<svg width="6227" height="2104" viewBox="0 0 6227 2104" fill="none" xmlns="http://www.w3.org/2000/svg">
<g clip-path="url(#clip0_6009_506)">
<path d="M5700.99 220.659C5912.72 261.155 6246 298.664 6246 298.664L2452 329C2452 329 2589.88 297.233 2678.8 281.33C2812.73 257.375 2888.82 253.71 3023.39 235.826C3231.44 208.174 3350.17 210.246 3556.09 164.321C3746.17 121.93 3843.72 38.9626 4036.06 16.977C4153.64 3.53599 4221.57 -3.8025 4338.45 16.977C4457.56 38.1531 4514.16 109.408 4633.81 125.318C4704.81 134.759 4745.43 131.564 4816.66 125.318C4924.53 115.859 4981.27 55.5404 5089.16 64.6472C5167.58 71.266 5207.73 103.551 5284.31 125.318C5445.58 171.153 5537.44 189.38 5700.99 220.659Z" fill="url(#paint0_linear_6009_506)"/>
<path d="M2028.64 256.276C1235.78 260.481 2 383.081 2 383.081V2104H6227V319.678C6227 319.678 4698.54 345.487 3719.68 319.678C3132.56 304.198 2804.31 259.032 2217.02 256.276C2143.45 255.931 2102.21 255.886 2028.64 256.276Z" fill="#4A3884"/>
<path d="M260.475 94.0588C162.373 65.1138 2 51 2 51V417H1479C1479 417 1274.67 351.45 1144.5 307.2C1021.93 265.531 959.433 219.171 831.726 197.4C703.823 175.596 625.737 226.844 499.401 197.4C400.301 174.304 358.047 122.847 260.475 94.0588Z" fill="url(#paint1_linear_6009_506)"/>
<path d="M260.475 275.059C162.373 246.114 2 232 2 232V598H1479C1479 598 1274.67 532.45 1144.5 488.2C1021.93 446.531 959.433 400.171 831.726 378.4C703.823 356.596 625.737 407.844 499.401 378.4C400.301 355.304 358.047 303.847 260.475 275.059Z" fill="url(#paint2_linear_6009_506)"/>
<path d="M241.195 1562.29L372.92 890.211C373.335 888.093 376.347 888.044 376.832 890.147L550.214 1643.13C550.562 1644.64 549.138 1645.95 547.662 1645.48L438.989 1611.09C437.483 1610.61 436.045 1611.99 436.453 1613.51L501.743 1857.4C502.069 1858.62 501.2 1859.83 499.942 1859.91L257.984 1875.82C256.613 1875.91 255.561 1874.62 255.924 1873.29L317.7 1647.61C317.883 1646.95 317.709 1646.23 317.24 1645.73L241.69 1564.03C241.256 1563.56 241.073 1562.92 241.195 1562.29Z" fill="#051457"/>
<path d="M663.635 1663.82L856.114 907.986C856.631 905.954 859.529 905.987 860.001 908.03L1034.43 1663.86C1034.72 1665.11 1033.77 1666.31 1032.49 1666.31H931.898C930.584 1666.31 929.627 1667.56 929.966 1668.83L985.586 1877.39C985.911 1878.6 985.042 1879.82 983.784 1879.9L741.016 1895.82C739.644 1895.91 738.592 1894.62 738.956 1893.29L800.536 1668.84C800.885 1667.57 799.927 1666.31 798.607 1666.31H665.573C664.268 1666.31 663.313 1665.08 663.635 1663.82Z" fill="#051457"/>
<path d="M1217 1358.02L1414.84 439.668C1415.3 437.546 1418.33 437.57 1418.75 439.699L1667.62 1690.7C1667.87 1691.92 1666.94 1693.07 1665.7 1693.09L1537.73 1695.48C1536.41 1695.5 1535.48 1696.77 1535.84 1698.03L1611.05 1960.08C1611.4 1961.29 1610.56 1962.52 1609.3 1962.63L1302.51 1988.48C1301.28 1988.58 1300.25 1987.55 1300.35 1986.32L1342.02 1495.57C1342.06 1495.01 1341.87 1494.46 1341.49 1494.05L1217.48 1359.8C1217.04 1359.32 1216.86 1358.66 1217 1358.02Z" fill="#051457"/>
<path d="M4769.07 292.573C5362.96 284.533 6290 292.573 6290 292.573L6149.57 653.932C6149.57 653.932 4958.4 668.12 4195.46 653.932C3374.05 638.657 2875.87 787.391 2093.77 572.728C1973.12 539.613 1783.8 585.322 1789.11 477.313C1794.34 370.849 2217.99 405.432 2093.77 394.079C2027.13 387.987 1951.64 401.007 1881.94 400.168C1549.66 396.171 2433.06 369.19 2764.98 355.507C3547.24 323.259 3985.99 303.175 4769.07 292.573Z" fill="#002B80"/>
<path d="M2403.38 1458L2539.56 321.636C2539.8 319.569 2542.65 319.209 2543.41 321.15L2956.5 1383.53C2956.86 1384.47 2956.47 1385.54 2955.57 1386.02L2747.33 1496.99C2746.49 1497.44 2746.08 1498.42 2746.36 1499.33L2773.72 1590.49C2774.07 1591.66 2773.29 1592.88 2772.08 1593.05L2517.15 1628.7C2515.83 1628.89 2514.7 1627.74 2514.9 1626.41L2541.85 1452.67C2542.05 1451.4 2541.01 1450.27 2539.73 1450.37L2405.51 1460.23C2404.26 1460.32 2403.23 1459.24 2403.38 1458Z" fill="#051457"/>
<path d="M2987.85 1254.27L3170.19 71.9009C3170.5 69.8758 3173.29 69.5809 3174.03 71.4954L3578.39 1123.34C3578.75 1124.3 3578.34 1125.38 3577.42 1125.84L3365.52 1232.85C3364.66 1233.29 3364.23 1234.27 3364.51 1235.2L3390.99 1325.24C3391.34 1326.43 3390.54 1327.64 3389.32 1327.79L3130.55 1360.14C3129.41 1360.28 3128.37 1359.43 3128.3 1358.28L3122.85 1271.14C3122.79 1270.16 3122.02 1269.36 3121.05 1269.27L2989.64 1256.57C2988.5 1256.46 2987.68 1255.41 2987.85 1254.27Z" fill="#051457"/>
<path d="M220.197 1562.29L352.352 890.181C352.768 888.064 355.777 888.015 356.263 890.116L530.212 1643.13C530.56 1644.64 529.138 1645.95 527.662 1645.49L418.617 1611.09C417.111 1610.61 415.674 1611.99 416.084 1613.51L481.583 1857.4C481.91 1858.62 481.041 1859.83 479.782 1859.91L237.032 1875.82C235.66 1875.91 234.609 1874.62 234.973 1873.29L296.947 1647.61C297.13 1646.95 296.955 1646.23 296.485 1645.72L220.693 1564.03C220.258 1563.56 220.073 1562.91 220.197 1562.29Z" fill="#040F43"/>
<path d="M647.918 1725.78L835.649 909.471C836.124 907.402 839.07 907.402 839.547 909.471L1013.44 1664.86C1013.72 1666.11 1012.77 1667.31 1011.49 1667.31H911.165C909.852 1667.31 908.895 1668.55 909.232 1669.82L964.712 1878.39C965.036 1879.61 964.167 1880.82 962.91 1880.9L720.768 1896.82C719.397 1896.91 718.345 1895.62 718.708 1894.29L779.683 1671.48C780.133 1669.83 778.452 1668.42 776.908 1669.14L650.713 1728.04C649.204 1728.74 647.545 1727.4 647.918 1725.78Z" fill="#040F43"/>
<path d="M1184.29 1356.8L1426.55 441.291C1427.09 439.245 1430.02 439.332 1430.44 441.406L1684.52 1697.89C1684.77 1699.13 1683.82 1700.28 1682.56 1700.28H1537.97C1536.63 1700.28 1535.66 1701.58 1536.05 1702.86L1615.17 1966.13C1615.54 1967.37 1614.66 1968.63 1613.37 1968.71L1267 1988.86C1265.76 1988.93 1264.75 1987.87 1264.9 1986.63L1322.09 1496.85C1322.17 1496.24 1321.95 1495.63 1321.52 1495.2L1184.82 1358.73C1184.31 1358.22 1184.11 1357.49 1184.29 1356.8Z" fill="#040F43"/>
<path d="M2369.77 1453.39L2529.66 320.886C2529.95 318.825 2532.8 318.525 2533.52 320.48L2924.32 1390.5C2924.67 1391.45 2924.25 1392.51 2923.34 1392.97L2712.83 1499.51C2711.98 1499.94 2711.55 1500.91 2711.81 1501.83L2737.26 1593.47C2737.58 1594.65 2736.78 1595.85 2735.56 1595.99L2479.95 1626.31C2478.62 1626.47 2477.51 1625.3 2477.75 1623.98L2508.32 1450.95C2508.54 1449.68 2507.53 1448.54 2506.25 1448.6L2371.86 1455.66C2370.6 1455.73 2369.6 1454.63 2369.77 1453.39Z" fill="#040F43"/>
<path d="M2971.85 1254.59L3154.19 72.2124C3154.5 70.1873 3157.29 69.8924 3158.03 71.807L3562.38 1123.66C3562.75 1124.61 3562.34 1125.69 3561.42 1126.16L3349.52 1233.16C3348.66 1233.6 3348.23 1234.58 3348.51 1235.51L3374.99 1325.55C3375.34 1326.74 3374.54 1327.95 3373.32 1328.1L3114.55 1360.45C3113.4 1360.6 3112.37 1359.74 3112.3 1358.59L3106.85 1271.45C3106.79 1270.47 3106.02 1269.67 3105.04 1269.58L2973.64 1256.89C2972.49 1256.78 2971.68 1255.72 2971.85 1254.59Z" fill="#040F43"/>
<path d="M1431.67 1656.36L1614.25 1115.46C1614.85 1113.66 1617.39 1113.64 1618.03 1115.42L1821.05 1683.96C1821.51 1685.26 1820.55 1686.63 1819.16 1686.63H1705.02C1703.51 1686.63 1702.54 1688.24 1703.25 1689.57L1764.97 1805.87C1765.66 1807.18 1764.75 1808.76 1763.27 1808.8L1487.14 1817.9C1485.73 1817.95 1484.72 1816.57 1485.19 1815.24L1529.78 1688.64C1530.16 1687.55 1529.55 1686.36 1528.44 1686.05L1433.02 1658.93C1431.92 1658.61 1431.31 1657.45 1431.67 1656.36Z" fill="#051457"/>
<path d="M2066.08 1698.27L2127.43 1249.87C2127.74 1247.58 2131.05 1247.56 2131.39 1249.85L2200.24 1712.11C2200.28 1712.34 2200.35 1712.56 2200.46 1712.76L2252.49 1810.48C2253.19 1811.79 2252.27 1813.37 2250.79 1813.42L2022.93 1820.9C2021.52 1820.95 2020.51 1819.57 2020.98 1818.24L2058.3 1712.61C2058.34 1712.51 2058.39 1712.4 2058.44 1712.31L2065.85 1698.98C2065.97 1698.76 2066.05 1698.52 2066.08 1698.27Z" fill="#040F43"/>
<path d="M2229.08 1832.27L2290.43 1383.87C2290.74 1381.58 2294.05 1381.56 2294.39 1383.85L2363.24 1846.11C2363.28 1846.34 2363.35 1846.56 2363.46 1846.76L2415.49 1944.48C2416.19 1945.79 2415.27 1947.37 2413.79 1947.42L2185.93 1954.9C2184.52 1954.95 2183.51 1953.57 2183.98 1952.24L2221.3 1846.61C2221.34 1846.51 2221.39 1846.4 2221.44 1846.31L2228.85 1832.98C2228.97 1832.76 2229.05 1832.52 2229.08 1832.27Z" fill="#040F43"/>
<path d="M1551.76 1774.2C861.592 1853.55 2 1731.99 2 1731.99V2104H6227V454.894C6227 454.894 5646.52 398.883 5281.04 454.894C4931.7 508.432 4734.73 567.58 4413.55 720.293C4047.01 894.578 3394.34 1205.85 3030.09 1385.27C2392.17 1699.49 2253.24 1693.55 1551.76 1774.2Z" fill="#020D51"/>
</g>
<defs>
<linearGradient id="paint0_linear_6009_506" x1="5210.47" y1="4" x2="3071.55" y2="-1034.26" gradientUnits="userSpaceOnUse">
<stop stop-color="#4E3C86"/>
<stop offset="1" stop-color="#223B5C"/>
</linearGradient>
<linearGradient id="paint1_linear_6009_506" x1="2.00001" y1="78.9882" x2="1433.78" y2="438.567" gradientUnits="userSpaceOnUse">
<stop stop-color="#4A3884"/>
<stop offset="1" stop-color="#223A5A"/>
</linearGradient>
<linearGradient id="paint2_linear_6009_506" x1="2.00001" y1="259.988" x2="1433.78" y2="619.567" gradientUnits="userSpaceOnUse">
<stop stop-color="#4E3C86"/>
<stop offset="1" stop-color="#223B5C"/>
</linearGradient>
<clipPath id="clip0_6009_506">
<rect width="6227" height="2104" fill="white"/>
</clipPath>
</defs>
</svg>
