<svg width="1440" height="509" viewBox="0 0 1440 509" fill="none" xmlns="http://www.w3.org/2000/svg">
<g clip-path="url(#clip0_5606_369)">
<rect width="1440" height="509" fill="#DFB562"/>
<path d="M1420 94.9979C1480.22 105.465 1575 115.159 1575 115.159L496 123C496 123 535.212 114.789 560.5 110.679C598.591 104.488 620.231 103.541 658.5 98.9182C717.671 91.7711 751.437 92.3067 810 80.4369C864.057 69.4803 891.799 48.0365 946.5 42.3541C979.942 38.8801 999.259 36.9834 1032.5 42.3541C1066.38 47.8273 1082.47 66.2438 1116.5 70.3561C1136.69 72.7961 1148.24 71.9704 1168.5 70.3561C1199.18 67.9114 1215.32 52.3212 1246 54.675C1268.3 56.3857 1279.72 64.7301 1301.5 70.3561C1347.36 82.2027 1373.49 86.9136 1420 94.9979Z" fill="url(#paint0_linear_5606_369)"/>
<path d="M468.814 99.0609C285.406 99.9893 0 127.057 0 127.057V507H1440V113.059C1440 113.059 1086.43 118.757 859.993 113.059C724.178 109.641 648.246 99.6695 512.39 99.0609C495.372 98.9847 485.831 98.9748 468.814 99.0609Z" fill="#D9A36B"/>
<path d="M60.025 41.1357C37.2429 34.4135 0 31.1357 0 31.1357V116.136H343C343 116.136 295.548 100.912 265.321 90.6357C236.856 80.9585 222.342 70.1918 192.685 65.1357C162.983 60.0719 144.849 71.9738 115.51 65.1357C92.4964 59.7719 82.6839 47.8216 60.025 41.1357Z" fill="url(#paint1_linear_5606_369)"/>
<path d="M60.025 83.1357C37.2429 76.4135 0 73.1357 0 73.1357V158.136H343C343 158.136 295.548 142.912 265.321 132.636C236.856 122.959 222.342 112.192 192.685 107.136C162.983 102.072 144.849 113.974 115.51 107.136C92.4964 101.772 82.6839 89.8216 60.025 83.1357Z" fill="url(#paint2_linear_5606_369)"/>
<path d="M57 367.136L90 199.136L133.5 387.636L105 378.636L121.5 440.136L60.5 444.136L76 387.636L57 367.136Z" fill="#234037"/>
<path d="M161 392.5L209 204L252.5 392.5H226.5L240.5 445L179.5 449L195 392.5H161Z" fill="#234037"/>
<path d="M263 320L305.5 139L350 387H324L338 439.5L277 443.5L287 347L263 320Z" fill="#234037"/>
<path d="M1132.93 106.971C1259.86 104.786 1458 106.971 1458 106.971L1427.99 205.196C1427.99 205.196 1173.4 209.053 1010.33 205.196C834.773 201.044 728.298 241.473 561.139 183.123C535.352 174.122 494.888 186.546 496.023 157.187C497.142 128.248 587.688 137.649 561.139 134.563C546.895 132.907 530.762 136.446 515.863 136.218C444.847 135.131 633.655 127.797 704.596 124.078C871.79 115.312 965.564 109.853 1132.93 106.971Z" fill="#36589B"/>
<path d="M520 364.277L578.631 64L668 355.161L609.938 380.801L615.631 406.442L546.185 411L557 364.277H520Z" fill="#234037"/>
<path d="M666.268 323.099L720.571 3.74318L822.057 290.906L765.12 318.955L771.881 344.335L702.687 351.798L701.661 327.319L666.268 323.099Z" fill="#234037"/>
<path d="M52 367.136L85 199.136L128.5 387.636L100 378.636L116.5 440.136L55.5 444.136L71 387.636L52 367.136Z" fill="#1C362E"/>
<path d="M157 408L204 204.136L247.5 392.636H221.5L235.5 445.136L174.5 449.136L190 392.636L157 408Z" fill="#1C362E"/>
<path d="M256.5 320.636L299 139.636L343.5 387.636H317.5L331.5 440.136L270.5 444.136L280.5 347.636L256.5 320.636Z" fill="#1C362E"/>
<path d="M514 364.413L572.631 64.1357L662 355.297L603.938 380.937L609.631 406.577L540.185 411.136L551 364.413H514Z" fill="#1C362E"/>
<path d="M662.07 323.099L716.374 3.74318L817.859 290.906L760.922 318.955L767.683 344.335L698.489 351.798L697.463 327.319L662.07 323.099Z" fill="#1C362E"/>
<path d="M308 414.5L348 296L392.5 420.611H366.5L380.5 446.99L319.5 449L329.5 420.611L308 414.5Z" fill="#234037"/>
<path d="M454.5 443L471 322L489.5 446.611L503.5 472.99L442.5 475L452.5 446.611L454.5 443Z" fill="#234037"/>
<path d="M453 445L469.5 324L488 448.611L502 474.99L441 477L451 448.611L453 445Z" fill="#1C362E"/>
<path d="M484 474L500.5 353L519 477.611L533 503.99L472 506L482 477.611L484 474Z" fill="#1C362E"/>
<path d="M360 435.909C200.569 453.494 2 426.553 2 426.553V509H1440V143.517C1440 143.517 1305.91 131.104 1221.48 143.517C1140.78 155.382 1095.28 168.491 1021.09 202.336C936.413 240.962 785.643 309.948 701.5 349.712C554.139 419.35 522.047 418.035 360 435.909Z" fill="#B66A20"/>
</g>
<defs>
<linearGradient id="paint0_linear_5606_369" x1="496" y1="45.4235" x2="1174.41" y2="587.74" gradientUnits="userSpaceOnUse">
<stop stop-color="#212F2A"/>
<stop offset="1" stop-color="#FFB673"/>
</linearGradient>
<linearGradient id="paint1_linear_5606_369" x1="2.37781e-06" y1="37.6357" x2="332.5" y2="121.136" gradientUnits="userSpaceOnUse">
<stop stop-color="#4D615B"/>
<stop offset="1" stop-color="#FFB673"/>
</linearGradient>
<linearGradient id="paint2_linear_5606_369" x1="2.37781e-06" y1="79.6357" x2="332.5" y2="163.136" gradientUnits="userSpaceOnUse">
<stop stop-color="#4D615B"/>
<stop offset="1" stop-color="#FFB673"/>
</linearGradient>
<clipPath id="clip0_5606_369">
<rect width="1440" height="509" fill="white"/>
</clipPath>
</defs>
</svg>
