<?xml version="1.0" encoding="utf-8"?>
<!-- Generator: Adobe Illustrator 26.5.0, SVG Export Plug-In . SVG Version: 6.00 Build 0)  -->
<svg version="1.1" id="Layer_1" xmlns="http://www.w3.org/2000/svg" xmlns:xlink="http://www.w3.org/1999/xlink" x="0px" y="0px"
	 viewBox="0 0 50 41" style="enable-background:new 0 0 50 41;" xml:space="preserve">
<style type="text/css">
	.st0{fill:#6F6FE8;}
</style>
<path class="st0" d="M30.5,36.8c-0.1,0-0.3-0.1-0.3-0.2c-0.1-0.2,0-0.4,0.1-0.5l5.5-3.2c0.2-0.1,0.4,0,0.5,0.1
	c0.1,0.2,0,0.4-0.1,0.5l-5.5,3.2C30.6,36.8,30.6,36.8,30.5,36.8L30.5,36.8z"/>
<path class="st0" d="M20.8,29.6c-0.2,0.1-0.4,0.1-0.6,0c-1.1-0.5-2.1-0.6-2.6-0.8c-0.8-0.2-1.6-0.6-2.3-1c-2.2-1.2-4-3-5.3-5.2
	c-0.1-0.2-0.2-0.3-0.3-0.5C7.8,18.9,7.3,15,8.3,11.3s3.4-6.7,6.7-8.6l0,0c6.7-3.5,15-1.3,19,5.1c1.4,2.2,2.2,4.8,2.3,7.5
	c0,0.8-0.1,1.6-0.2,2.3c-0.1,0.4-0.7,1.8-0.7,3.3c0,0.3-0.2,0.4-0.6,0.7c-0.3,0.2-0.8,0.6-0.8,0.2c0.1-1.3,0.8-3.8,0.9-4.4
	C35,16.7,35,16,35,15.3c-0.1-2.4-0.8-4.8-2.1-6.8c-3.6-5.8-11.2-7.9-17.3-4.7c-3,1.7-5.2,4.5-6.1,7.9c-0.9,3.4-0.5,6.9,1.2,9.9
	c0.1,0.2,0.2,0.3,0.3,0.4c1.2,2,2.9,3.6,4.8,4.7c0.7,0.4,1.4,0.7,2.1,0.9c0.5,0.2,2.5,0.7,3.6,1.3c0.3,0.2,0.4,0.3-0.1,0.4
	C21.3,29.4,21,29.5,20.8,29.6L20.8,29.6z"/>
<path class="st0" d="M6.6,37.9c-2.8,0-4.7-0.7-5.5-2.2c-1.7-3,1.6-8.6,8.9-14.7l0.3,0.3c-3.4,2.8-6,5.7-7.6,8.2s-2,4.6-1.2,6
	c1.1,2,4.8,2.5,10,1.4c5.4-1.1,11.9-3.8,18.2-7.5c6.4-3.7,11.9-8,15.6-12.1c3.6-4,4.9-7.4,3.8-9.4C47.6,5.2,41.7,5.3,33.7,8
	l-0.1-0.4c8.3-2.8,14.2-2.8,15.9,0.1c1.3,2.2-0.1,5.7-3.8,9.9C42,21.7,36.4,26,30,29.8c-6.4,3.7-13,6.4-18.4,7.5
	C9.7,37.8,8,37.9,6.6,37.9L6.6,37.9z"/>
<path class="st0" d="M8.5,36.4c-2.5,0-4.3-0.7-5-2c-1.5-2.6,1.1-7.2,6.9-12.3l0.3,0.3c-5.6,4.9-8.2,9.4-6.8,11.8
	c1,1.8,4.3,2.2,9,1.2c4.8-1,10.7-3.4,16.4-6.7s10.7-7.2,14-10.9c3.2-3.6,4.4-6.6,3.4-8.4C45.4,7.2,40.8,7,34.2,9.1l-0.1-0.4
	c6.8-2.1,11.5-1.9,13,0.5c1.1,2-0.1,5.1-3.5,8.9c-3.3,3.7-8.3,7.6-14.1,10.9S17.8,34.7,13,35.8C11.2,36.2,9.7,36.4,8.5,36.4
	L8.5,36.4z"/>
<path class="st0" d="M10.6,34.5c-2.2,0-3.7-0.6-4.4-1.7C5,30.7,6.7,27.2,11,23.2l0.3,0.3c-4,3.8-5.8,7.2-4.7,9.1
	c0.9,1.5,3.7,1.9,7.8,1.1c4.2-0.9,9.3-3,14.3-5.9s9.4-6.3,12.2-9.5c2.8-3.1,3.9-5.8,3-7.3c-1-1.7-4.4-2-9.2-0.7l-0.1-0.4
	c5.1-1.3,8.6-1,9.7,1c1,1.7-0.1,4.5-3,7.8c-2.9,3.2-7.3,6.6-12.4,9.6c-5.1,2.9-10.2,5-14.5,5.9C13,34.4,11.7,34.5,10.6,34.5
	L10.6,34.5z"/>
<path class="st0" d="M12.6,32.8c-1.9,0-3.2-0.5-3.8-1.5c-1-1.7,0.2-4.3,3.3-7.5l0.3,0.3c-2.9,3-4.1,5.6-3.3,7
	c0.8,1.3,3.2,1.6,6.7,0.9c3.6-0.8,8-2.6,12.3-5c4.3-2.5,8.1-5.4,10.5-8.1c2.4-2.7,3.3-4.9,2.6-6.2c-0.7-1.2-2.9-1.6-6.1-1L35,11.3
	c3.4-0.6,5.8-0.2,6.6,1.2c0.9,1.5-0.1,3.9-2.6,6.8c-2.5,2.8-6.3,5.7-10.6,8.2C24,30,19.6,31.8,16,32.6
	C14.7,32.7,13.6,32.8,12.6,32.8L12.6,32.8z"/>
<path class="st0" d="M27.9,35.3c0.3,0,0.5-0.1,0.8-0.2l0,0l7-4.2c0.7-0.4,0.8-1.2,0.7-2s-0.1-0.6-0.2-2.1c0-0.3-0.4,0.1-0.4,0.1
	s-0.4,0.3-0.5,0.4s-0.3,0.3-0.2,0.6c0.1,0.8,0.1,0.9,0.2,1.4c0,0.2,0,0.4-0.2,0.5l-7,4.1c-0.2,0.1-0.3,0-0.5-0.1
	c-0.3-0.2-0.2-0.1-1.4-0.9c-0.3-0.2-0.5,0-0.8,0.2c-0.4,0.2-0.7,0.3-0.5,0.4c1.3,0.8,1.1,0.6,1.7,1C27,35,27.4,35.3,27.9,35.3
	L27.9,35.3z"/>
<path class="st0" d="M4.1,8.6c0.3,0,0.1-0.5,0.4-0.7s0.7-0.2,0.7-0.4c0-0.3-0.5-0.1-0.7-0.4S4.4,6.3,4.1,6.3l0,0
	C3.9,6.3,4,6.8,3.7,7C3.5,7.3,3,7.2,3,7.4c0,0.3,0.5,0.1,0.7,0.4C4,8.1,3.9,8.6,4.1,8.6"/>
<path class="st0" d="M1.5,22.8c0.3,0,0.2-0.7,0.5-1c0.4-0.3,1-0.2,1-0.5s-0.7-0.2-1-0.5c-0.3-0.4-0.2-1-0.5-1l0,0
	c-0.3,0-0.2,0.7-0.5,1c-0.4,0.3-1,0.2-1,0.5s0.7,0.2,1,0.5C1.3,22.1,1.2,22.8,1.5,22.8"/>
<path class="st0" d="M20.6,40.2c0.2,0,0.1-0.3,0.3-0.5c0.2-0.2,0.5-0.1,0.5-0.3s-0.3-0.1-0.5-0.3s-0.1-0.5-0.3-0.5l0,0
	c-0.2,0-0.1,0.3-0.3,0.5c-0.2,0.2-0.5,0.1-0.5,0.3s0.3,0.1,0.5,0.3C20.5,39.9,20.5,40.2,20.6,40.2"/>
<path class="st0" d="M36,0c-0.3,0-0.1,0.5-0.4,0.7c-0.3,0.2-0.8,0.2-0.8,0.4c0,0.3,0.5,0.1,0.7,0.4s0.2,0.8,0.4,0.8l0,0
	c0.3,0,0.1-0.5,0.4-0.7c0.3-0.2,0.8-0.2,0.8-0.4c0-0.3-0.5-0.1-0.7-0.4C36.1,0.5,36.2,0,36,0"/>
<path class="st0" d="M44.2,28.9c0.3,0,0.2-0.6,0.5-0.9s0.9-0.2,0.9-0.5S45,27.3,44.7,27c-0.3-0.3-0.2-0.9-0.5-0.9l0,0
	c-0.3,0-0.2,0.6-0.5,0.9s-0.9,0.2-0.9,0.5s0.6,0.2,0.9,0.5C44,28.3,43.9,28.9,44.2,28.9"/>
<path class="st0" d="M22.1,18.5c-1.7,0-3.1-1.4-3.1-3.1s1.4-3.1,3.1-3.1l0,0c0.8,0,1.6,0.3,2.2,0.9c0.6,0.6,0.9,1.4,0.9,2.2
	C25.2,17.1,23.8,18.5,22.1,18.5L22.1,18.5L22.1,18.5z M22.1,13L22.1,13c-0.6,0-1.2,0.2-1.7,0.7c-0.4,0.4-0.7,1-0.7,1.7l0,0
	c0,1.3,1.1,2.3,2.3,2.3l0,0c1.3,0,2.3-1.1,2.3-2.3c0-0.6-0.2-1.2-0.7-1.7C23.3,13.3,22.7,13,22.1,13L22.1,13z"/>
<path class="st0" d="M27.9,26.2c-0.1,0.1-0.2,0.1-0.4-0.1L23,18c-0.2-0.3-0.1-0.3,0.2-0.5c0.3-0.2,0.5-0.3,0.6,0l4.6,8
	c0.2,0.3,0.1,0.3-0.2,0.5C28.1,26.1,28.1,26.1,27.9,26.2L27.9,26.2z"/>
<path class="st0" d="M32.5,38.1c-0.1,0-0.3-0.1-0.3-0.2c-0.1-0.2,0-0.4,0.1-0.5l3.7-2.2c0.2-0.1,0.4,0,0.5,0.1
	c0.1,0.2,0,0.4-0.1,0.5L32.7,38C32.6,38.1,32.5,38.1,32.5,38.1L32.5,38.1z"/>
<path class="st0" d="M34.6,39.5c-0.1,0-0.3-0.1-0.3-0.2c-0.1-0.2,0-0.4,0.1-0.5l1.8-1.1c0.2-0.1,0.4,0,0.5,0.1
	c0.1,0.2,0,0.4-0.1,0.5l-1.8,1.1C34.7,39.5,34.6,39.5,34.6,39.5z"/>
</svg>
