<svg width="22" height="31" viewBox="0 0 22 31" fill="none" xmlns="http://www.w3.org/2000/svg">
<path d="M1.08452 12V9.97727L5.32884 6.26136C5.64702 5.97348 5.91785 5.71023 6.14134 5.47159C6.36482 5.22917 6.53527 4.98674 6.6527 4.74432C6.77012 4.49811 6.82884 4.23106 6.82884 3.94318C6.82884 3.62121 6.75876 3.34659 6.61861 3.11932C6.47846 2.88826 6.28527 2.71023 6.03906 2.58523C5.79285 2.46023 5.51065 2.39773 5.19247 2.39773C4.8705 2.39773 4.5883 2.46402 4.34588 2.59659C4.10346 2.72538 3.91406 2.91288 3.7777 3.15909C3.64512 3.4053 3.57884 3.70455 3.57884 4.05682H0.914062C0.914062 3.26515 1.09209 2.58144 1.44815 2.00568C1.80421 1.42992 2.30421 0.986742 2.94815 0.676136C3.59588 0.361742 4.34777 0.204545 5.20384 0.204545C6.08641 0.204545 6.85346 0.352272 7.50497 0.647727C8.15649 0.943182 8.66027 1.35606 9.01634 1.88636C9.37618 2.41288 9.55611 3.02462 9.55611 3.72159C9.55611 4.16477 9.46709 4.60417 9.28906 5.03977C9.11103 5.47538 8.79096 5.95644 8.32884 6.48295C7.8705 7.00947 7.21899 7.64015 6.37429 8.375L4.98224 9.65909V9.73295H9.69815V12H1.08452ZM16.1001 12.2841C15.085 12.2841 14.21 12.0436 13.4751 11.5625C12.7403 11.0777 12.174 10.3826 11.7763 9.47727C11.3786 8.56818 11.1816 7.47538 11.1854 6.19886C11.1892 4.92235 11.388 3.83901 11.782 2.94886C12.1797 2.05492 12.7441 1.375 13.4751 0.909091C14.21 0.439394 15.085 0.204545 16.1001 0.204545C17.1153 0.204545 17.9903 0.439394 18.7251 0.909091C19.4638 1.375 20.032 2.05492 20.4297 2.94886C20.8274 3.8428 21.0244 4.92614 21.0206 6.19886C21.0206 7.47917 20.8217 8.57386 20.424 9.48295C20.0263 10.392 19.46 11.0871 18.7251 11.5682C17.9941 12.0455 17.1191 12.2841 16.1001 12.2841ZM16.1001 9.98295C16.7062 9.98295 17.1967 9.67424 17.5717 9.05682C17.9467 8.43561 18.1323 7.48295 18.1286 6.19886C18.1286 5.35795 18.0433 4.66477 17.8729 4.11932C17.7024 3.57008 17.4657 3.16098 17.1626 2.89205C16.8596 2.62311 16.5054 2.48864 16.1001 2.48864C15.4979 2.48864 15.0111 2.79356 14.6399 3.40341C14.2687 4.00947 14.0812 4.94129 14.0774 6.19886C14.0736 7.05114 14.1551 7.75758 14.3217 8.31818C14.4922 8.87879 14.7308 9.29735 15.0376 9.57386C15.3445 9.84659 15.6986 9.98295 16.1001 9.98295ZM1.65483 31V28.9773L5.89915 25.2614C6.21733 24.9735 6.48816 24.7102 6.71165 24.4716C6.93513 24.2292 7.10559 23.9867 7.22301 23.7443C7.34044 23.4981 7.39915 23.2311 7.39915 22.9432C7.39915 22.6212 7.32907 22.3466 7.18892 22.1193C7.04877 21.8883 6.85559 21.7102 6.60938 21.5852C6.36316 21.4602 6.08097 21.3977 5.76278 21.3977C5.44081 21.3977 5.15862 21.464 4.91619 21.5966C4.67377 21.7254 4.48438 21.9129 4.34801 22.1591C4.21544 22.4053 4.14915 22.7045 4.14915 23.0568H1.48438C1.48438 22.2652 1.66241 21.5814 2.01847 21.0057C2.37453 20.4299 2.87453 19.9867 3.51847 19.6761C4.16619 19.3617 4.91809 19.2045 5.77415 19.2045C6.65672 19.2045 7.42377 19.3523 8.07528 19.6477C8.7268 19.9432 9.23059 20.3561 9.58665 20.8864C9.9465 21.4129 10.1264 22.0246 10.1264 22.7216C10.1264 23.1648 10.0374 23.6042 9.85938 24.0398C9.68134 24.4754 9.36127 24.9564 8.89915 25.483C8.44081 26.0095 7.7893 26.6402 6.9446 27.375L5.55256 28.6591V28.733H10.2685V31H1.65483ZM11.858 31V28.9773L16.1023 25.2614C16.4205 24.9735 16.6913 24.7102 16.9148 24.4716C17.1383 24.2292 17.3087 23.9867 17.4261 23.7443C17.5436 23.4981 17.6023 23.2311 17.6023 22.9432C17.6023 22.6212 17.5322 22.3466 17.392 22.1193C17.2519 21.8883 17.0587 21.7102 16.8125 21.5852C16.5663 21.4602 16.2841 21.3977 15.9659 21.3977C15.6439 21.3977 15.3617 21.464 15.1193 21.5966C14.8769 21.7254 14.6875 21.9129 14.5511 22.1591C14.4186 22.4053 14.3523 22.7045 14.3523 23.0568H11.6875C11.6875 22.2652 11.8655 21.5814 12.2216 21.0057C12.5777 20.4299 13.0777 19.9867 13.7216 19.6761C14.3693 19.3617 15.1212 19.2045 15.9773 19.2045C16.8598 19.2045 17.6269 19.3523 18.2784 19.6477C18.9299 19.9432 19.4337 20.3561 19.7898 20.8864C20.1496 21.4129 20.3295 22.0246 20.3295 22.7216C20.3295 23.1648 20.2405 23.6042 20.0625 24.0398C19.8845 24.4754 19.5644 24.9564 19.1023 25.483C18.6439 26.0095 17.9924 26.6402 17.1477 27.375L15.7557 28.6591V28.733H20.4716V31H11.858Z" fill="white"/>
</svg>
