<svg width="50" height="41" viewBox="0 0 50 41" fill="none" xmlns="http://www.w3.org/2000/svg">
<path d="M30.484 36.7736C30.3494 36.7736 30.2183 36.7044 30.1451 36.5799C30.0351 36.393 30.0976 36.1522 30.2846 36.0423L35.7629 32.821C35.9496 32.7109 36.1906 32.7732 36.3006 32.9604C36.4106 33.1473 36.3481 33.3881 36.1611 33.498L30.6828 36.7194C30.6203 36.7562 30.5518 36.7736 30.484 36.7736V36.7736Z" fill="white"/>
<path d="M20.832 29.5916C20.6789 29.6443 20.4179 29.7198 20.2084 29.623C19.1276 29.1239 18.074 28.9827 17.616 28.8387C16.8106 28.5951 16.023 28.2616 15.2816 27.8495C13.1034 26.6048 11.2738 24.816 9.9838 22.6731C9.89005 22.5224 9.792 22.3577 9.69732 22.1912C7.81217 18.8747 7.33192 15.0229 8.34461 11.3453C9.35714 7.6676 11.7417 4.60434 15.0586 2.71986L15.0746 2.71112C21.7263 -0.818047 30.046 1.42909 34.0155 7.82636C35.4314 10.06 36.2179 12.6435 36.2868 15.2929C36.2997 16.0768 36.2316 16.8589 36.0844 17.6233C36.0039 18.0639 35.4219 19.4599 35.3536 20.912C35.3375 21.2587 35.1556 21.3587 34.779 21.6219C34.4944 21.8208 33.9641 22.2698 33.9862 21.8049C34.0492 20.4767 34.7402 17.9863 34.8491 17.3914C34.9809 16.7063 35.0415 16.011 35.0302 15.3194C34.9672 12.9033 34.2481 10.5409 32.9505 8.494C29.3268 2.65375 21.7401 0.602669 15.6719 3.81688C12.6509 5.53598 10.4792 8.32771 9.55647 11.6788C8.63292 15.0329 9.07098 18.5456 10.79 21.5701C10.8763 21.7219 10.966 21.8724 11.056 22.0171C12.2403 23.9844 13.9132 25.62 15.8988 26.7548C16.5556 27.1198 17.2603 27.4181 17.9867 27.638C18.5309 27.8092 20.4722 28.3248 21.6231 28.9199C21.9315 29.0791 22.0081 29.1831 21.5287 29.3485C21.2989 29.4278 21.0309 29.5232 20.832 29.5916H20.832Z" fill="white"/>
<path d="M6.61399 37.9493C3.81935 37.9493 1.90376 37.2085 1.06578 35.7574C-0.683955 32.7273 2.71455 27.1097 9.935 21.0969L10.2169 21.4353C6.80304 24.2781 4.17601 27.0968 2.61972 29.5865C1.05243 32.0937 0.647004 34.1516 1.44727 35.5373C2.59293 37.5209 6.24222 38.0307 11.4594 36.9361C16.8319 35.8086 23.313 33.1545 29.7087 29.4625C36.1044 25.7708 41.644 21.4861 45.3069 17.398C48.8639 13.4281 50.247 10.0134 49.1014 8.02958C47.5632 5.36583 41.6636 5.40946 33.7046 8.14361L33.5615 7.72714C41.8559 4.87787 47.8078 4.9087 49.4829 7.80934C50.7482 10.0006 49.3817 13.5102 45.6349 17.6918C41.9418 21.8137 36.364 26.1294 29.929 29.8439C23.4939 33.5584 16.9668 36.2302 11.5498 37.367C9.69367 37.7565 8.03936 37.9492 6.61399 37.9493V37.9493Z" fill="white"/>
<path d="M8.45523 36.3657C5.93052 36.3658 4.19953 35.6954 3.44122 34.3823C1.94603 31.7929 4.53758 27.1871 10.3737 22.0615L10.6644 22.3923C5.08277 27.2945 2.4612 31.8044 3.8227 34.1622C4.84865 35.9387 8.12461 36.3941 12.81 35.4104C17.643 34.3962 23.4737 32.0083 29.2279 28.6867C34.9821 25.3651 39.9658 21.5106 43.2609 17.8331C46.4555 14.2677 47.6992 11.2039 46.6733 9.42726C45.3849 7.19617 40.73 7.0696 34.2213 9.08854L34.0908 8.66802C40.9101 6.55265 45.6353 6.74903 47.0548 9.20702C48.1987 11.188 46.9678 14.3558 43.5889 18.1269C40.2636 21.8382 35.2416 25.7239 29.4482 29.0681C23.6546 32.4124 17.7779 34.8178 12.9005 35.8414C11.2296 36.1921 9.73946 36.3657 8.45525 36.3657H8.45523Z" fill="white"/>
<path d="M10.5901 34.5428C8.37432 34.5428 6.85389 33.9529 6.18678 32.7977C4.99093 30.7268 6.73898 27.2145 10.9826 23.1614L11.2868 23.4797C7.26223 27.3237 5.49833 30.7248 6.56826 32.5776C7.45743 34.1173 10.3061 34.5098 14.3841 33.6539C18.6006 32.769 23.6878 30.6856 28.7088 27.7874C33.7297 24.8891 38.078 21.526 40.9527 18.3176C43.733 15.2146 44.8175 12.5518 43.9283 11.012C42.9252 9.27472 39.5658 9.00289 34.7116 10.2657L34.6008 9.8395C39.6612 8.52318 43.2001 8.87013 44.3098 10.7917C45.315 12.5325 44.2392 15.3095 41.2807 18.6114C38.3758 21.8536 33.9891 25.2478 28.929 28.1688C23.8688 31.0896 18.7354 33.1906 14.4747 34.085C13.0151 34.3912 11.7132 34.5428 10.5901 34.5428L10.5901 34.5428Z" fill="white"/>
<path d="M12.6443 32.7885C10.7254 32.7886 9.40794 32.2761 8.82849 31.2727C7.86864 29.6104 9.05242 26.9339 12.1619 23.7364L12.4777 24.0434C9.56084 27.0429 8.36976 29.5976 9.20998 31.0526C9.96742 32.3645 12.4053 32.6964 15.8987 31.9635C19.5216 31.2032 23.8934 29.4126 28.2087 26.9217C32.5239 24.4308 36.2608 21.5407 38.731 18.7839C41.1125 16.1259 42.0439 13.8489 41.2863 12.537C40.5656 11.2889 38.3946 10.9252 35.1738 11.5129L35.0947 11.0797C38.5122 10.456 40.8468 10.8954 41.6677 12.3168C42.5394 13.8263 41.6129 16.2274 39.059 19.0777C36.5586 21.8683 32.7835 24.7895 28.429 27.3031C24.0744 29.8167 19.6565 31.6249 15.9891 32.3946C14.7332 32.6581 13.6121 32.7885 12.6443 32.7885L12.6443 32.7885Z" fill="white"/>
<path d="M27.8929 35.3138C28.1625 35.3138 28.4358 35.2471 28.6879 35.1083C28.6935 35.1053 28.6989 35.1022 28.7043 35.099L35.7264 30.9474C36.4225 30.5322 36.5252 29.7356 36.4115 28.9354C36.2956 28.1193 36.2956 28.3526 36.1658 26.8066C36.1437 26.5441 35.8028 26.9104 35.8028 26.9104C35.8028 26.9104 35.3964 27.2188 35.2788 27.3408C35.1452 27.4794 35.0174 27.5985 35.0665 27.9709C35.1664 28.7282 35.2073 28.8244 35.2627 29.3771C35.284 29.5903 35.2702 29.7865 35.0977 29.8892L28.0877 34.0337C27.9135 34.1258 27.7446 34.0311 27.5772 33.9245C27.3078 33.7529 27.4114 33.7753 26.2089 33.0318C25.9198 32.853 25.6754 33.0738 25.3643 33.2105C25.0094 33.3663 24.6614 33.5081 24.9062 33.6493C26.2431 34.4205 25.9799 34.2802 26.616 34.6932C27.045 34.9717 27.4058 35.3138 27.8929 35.3138L27.8929 35.3138Z" fill="white"/>
<path d="M4.10052 8.57241C4.35351 8.57241 4.23756 8.07706 4.50109 7.85575C4.77659 7.62438 5.22871 7.69765 5.22844 7.4658C5.22844 7.21286 4.73299 7.32879 4.51163 7.06531C4.28022 6.78987 4.35351 6.31675 4.12161 6.31702H4.13646C3.88347 6.31702 3.99942 6.81236 3.73589 7.03368C3.46039 7.26505 3.00827 7.19177 3.00855 7.42362C3.00855 7.67657 3.50399 7.56064 3.72535 7.82412C3.95676 8.09956 3.88347 8.57267 4.11537 8.57241" fill="white"/>
<path d="M1.48006 22.7547C1.82296 22.7547 1.6658 22.0833 2.02298 21.7833C2.39638 21.4697 3.00917 21.569 3.00883 21.2548C3.00883 20.9119 2.33732 21.0691 2.03728 20.712C1.72362 20.3386 1.82296 19.6974 1.50864 19.6978H1.52877C1.18586 19.6978 1.34303 20.3691 0.985846 20.6691C0.612443 20.9827 -0.000345188 20.8834 1.45895e-07 21.1976C1.45895e-07 21.5405 0.671509 21.3833 0.971549 21.7405C1.28521 22.1138 1.18586 22.755 1.50019 22.7547" fill="white"/>
<path d="M20.6059 40.1843C20.7731 40.1843 20.6965 39.857 20.8705 39.7108C21.0526 39.5579 21.3512 39.6064 21.3511 39.4532C21.3511 39.2861 21.0238 39.3627 20.8775 39.1886C20.7246 39.0066 20.7731 38.6941 20.6198 38.6943H20.6297C20.4625 38.6943 20.5391 39.0215 20.365 39.1677C20.183 39.3206 19.8844 39.2722 19.8845 39.4253C19.8845 39.5924 20.2118 39.5159 20.3581 39.6899C20.511 39.8719 20.4625 40.1844 20.6157 40.1843" fill="white"/>
<path d="M35.9953 1.16032e-07C35.7317 1.16032e-07 35.8525 0.516105 35.5779 0.746701C35.2909 0.987766 34.8198 0.911407 34.8201 1.153C34.8201 1.41653 35.3363 1.29574 35.5669 1.57027C35.808 1.85726 35.7317 2.35019 35.9733 2.34991H35.9578C36.2214 2.34991 36.1006 1.83381 36.3752 1.60321C36.6622 1.36215 37.1333 1.4385 37.133 1.19691C37.133 0.93338 36.6168 1.05417 36.3862 0.779639C36.145 0.492654 36.2214 -0.000276097 35.9798 1.16032e-07" fill="white"/>
<path d="M44.2084 28.9129C44.5195 28.9129 44.3769 28.3037 44.701 28.0315C45.0399 27.747 45.5959 27.8371 45.5955 27.5519C45.5955 27.2409 44.9862 27.3834 44.714 27.0594C44.4294 26.7207 44.5195 26.1388 44.2343 26.1392H44.2526C43.9415 26.1392 44.0841 26.7483 43.76 27.0205C43.4212 27.3051 42.8651 27.2149 42.8655 27.5001C42.8655 27.8112 43.4748 27.6686 43.747 27.9926C44.0316 28.3314 43.9415 28.9132 44.2267 28.9129" fill="white"/>
<path d="M22.0582 18.5235C20.3291 18.5235 18.9239 17.1191 18.9231 15.3925C18.9219 13.6648 20.3267 12.2583 22.0546 12.2571H22.0571C22.8933 12.2571 23.6794 12.5823 24.2712 13.1731C24.8636 13.7644 25.1901 14.551 25.1907 15.3879C25.1919 17.1156 23.7871 18.5221 22.0592 18.5235H22.0582V18.5235ZM22.0571 13.0426H22.0552C21.428 13.043 20.8385 13.2876 20.3953 13.7314C19.9521 14.1751 19.7083 14.7648 19.7087 15.392V15.3921C19.7092 16.6857 20.7621 17.7379 22.0559 17.738H22.0567C23.3534 17.737 24.406 16.683 24.4051 15.3885C24.4047 14.7614 24.16 14.172 23.7162 13.7289C23.2728 13.2863 22.6836 13.0426 22.0571 13.0426H22.0571Z" fill="white"/>
<path d="M27.9311 26.1863C27.794 26.2474 27.6936 26.2452 27.5784 26.0511L22.9702 18.0492C22.7981 17.7478 22.8881 17.7645 23.1895 17.5926C23.4914 17.4203 23.6532 17.2894 23.8254 17.5906L28.4336 25.5926C28.6058 25.894 28.4869 25.8892 28.1856 26.0612C28.0872 26.1173 28.0617 26.1281 27.9311 26.1863V26.1863Z" fill="white"/>
<path d="M32.464 38.1036C32.3294 38.1036 32.1983 38.0344 32.1251 37.9099C32.0151 37.723 32.0776 37.4823 32.2646 37.3723L35.9631 35.1977C36.15 35.0876 36.3908 35.1501 36.5008 35.3372C36.6108 35.5241 36.5483 35.7648 36.3613 35.8748L32.6628 38.0494C32.6003 38.0862 32.5317 38.1036 32.464 38.1036V38.1036Z" fill="white"/>
<path d="M34.568 39.5152C34.4329 39.5152 34.3014 39.4455 34.2284 39.3204C34.1191 39.1331 34.1823 38.8926 34.3697 38.7833L36.1969 37.7171C36.3842 37.608 36.6247 37.6711 36.7341 37.8583C36.8434 38.0457 36.7802 38.2861 36.5928 38.3955L34.7656 39.4616C34.7034 39.4979 34.6353 39.5152 34.568 39.5152Z" fill="white"/>
</svg>
