<svg width="28" height="24" viewBox="0 0 28 24" fill="none" xmlns="http://www.w3.org/2000/svg">
<path d="M26.8333 1.50001C25.7161 2.28807 24.4791 2.89081 23.17 3.28501C22.4673 2.47711 21.5335 1.90449 20.4948 1.64459C19.4561 1.3847 18.3627 1.45007 17.3624 1.83188C16.3621 2.21368 15.5031 2.89348 14.9018 3.77935C14.3004 4.66522 13.9856 5.7144 14 6.78501V7.95168C11.9497 8.00484 9.91811 7.55013 8.08614 6.62803C6.25416 5.70594 4.67866 4.34509 3.49996 2.66668C3.49996 2.66668 -1.16671 13.1667 9.33329 17.8333C6.93057 19.4643 4.06831 20.2821 1.16663 20.1667C11.6666 26 24.5 20.1667 24.5 6.75001C24.4989 6.42504 24.4676 6.10087 24.4066 5.78168C25.5973 4.60742 26.4376 3.12484 26.8333 1.50001V1.50001Z" stroke="white" stroke-width="2" stroke-linecap="round" stroke-linejoin="round"/>
</svg>
