<svg width="28" height="28" viewBox="0 0 28 28" fill="none" xmlns="http://www.w3.org/2000/svg">
<path d="M19.5 2H7.83333C4.61167 2 2 4.61167 2 7.83333V19.5C2 22.7217 4.61167 25.3333 7.83333 25.3333H19.5C22.7217 25.3333 25.3333 22.7217 25.3333 19.5V7.83333C25.3333 4.61167 22.7217 2 19.5 2Z" stroke="white" stroke-width="2" stroke-linecap="round" stroke-linejoin="round"/>
<path d="M18.3333 13.2649C18.4773 14.2358 18.3114 15.2274 17.8593 16.0987C17.4072 16.97 16.6919 17.6765 15.8152 18.1178C14.9384 18.5591 13.9448 18.7127 12.9757 18.5568C12.0066 18.4008 11.1113 17.9433 10.4173 17.2492C9.72318 16.5551 9.26563 15.6599 9.10969 14.6908C8.95375 13.7217 9.10735 12.7281 9.54866 11.8513C9.98996 10.9745 10.6965 10.2592 11.5678 9.80715C12.439 9.35506 13.4307 9.18922 14.4016 9.3332C15.392 9.48006 16.3089 9.94157 17.0169 10.6496C17.7249 11.3575 18.1864 12.2745 18.3333 13.2649Z" stroke="white" stroke-width="2" stroke-linecap="round" stroke-linejoin="round"/>
<path d="M20.0833 7.5835H20.0949" stroke="white" stroke-width="2" stroke-linecap="round" stroke-linejoin="round"/>
</svg>
