<svg width="31" height="31" viewBox="0 0 31 31" fill="none" xmlns="http://www.w3.org/2000/svg">
<path d="M6.75885 30.0393H0.536417V9.97736H6.75885V30.0393ZM3.64764 7.29527C1.60925 7.29527 0 5.57874 0 3.64764C0 1.71653 1.60925 0 3.64764 0C5.68602 0 7.29527 1.60925 7.29527 3.64764C7.18799 5.57874 5.57874 7.29527 3.64764 7.29527ZM30.0394 30.0393H23.8169V20.2766C23.8169 17.9163 23.8169 15.0197 20.5984 15.0197C17.3799 15.0197 16.8435 17.5945 16.8435 20.1693V30.0393H10.6211V9.97736H16.6289V12.7667H16.7362C17.5945 11.1575 19.6329 9.54822 22.6368 9.54822C28.9665 9.54822 30.1466 13.7323 30.1466 19.0964L30.0394 30.0393Z" fill="url(#icon_linkedin_paint0_linear)"/>
<defs>
<linearGradient id="icon_linkedin_paint0_linear" x1="15" y1="36.5" x2="15" y2="-3.5" gradientUnits="userSpaceOnUse">
<stop stop-color="#87CAD7"/>
<stop offset="1" stop-color="#AB87D7"/>
</linearGradient>
</defs>
</svg>
