<svg width="469" height="349" viewBox="0 0 469 349" fill="none" xmlns="http://www.w3.org/2000/svg">
<path d="M286.27 319.225C285.005 319.225 283.774 318.625 283.087 317.546C282.054 315.926 282.64 313.839 284.397 312.886L335.842 284.964C337.596 284.01 339.859 284.55 340.891 286.173C341.924 287.793 341.338 289.88 339.581 290.833L288.136 318.755C287.549 319.074 286.906 319.225 286.27 319.225V319.225Z" fill="white"/>
<path d="M195.627 256.972C194.19 257.429 191.738 258.083 189.771 257.244C179.621 252.918 169.727 251.694 165.426 250.446C157.863 248.334 150.467 245.443 143.504 241.872C123.049 231.083 105.868 215.578 93.7542 197.003C92.8738 195.697 91.9531 194.269 91.064 192.827C73.361 164.079 68.8511 130.693 78.361 98.8157C87.8694 66.9384 110.262 40.3867 141.41 24.0523L141.56 23.9766C204.025 -6.6136 282.154 12.8641 319.43 68.3146C332.726 87.6753 340.112 110.069 340.759 133.033C340.88 139.828 340.241 146.607 338.859 153.233C338.102 157.052 332.637 169.152 331.996 181.738C331.845 184.743 330.136 185.611 326.599 187.892C323.927 189.616 318.947 193.508 319.155 189.478C319.747 177.966 326.235 156.379 327.258 151.222C328.496 145.284 329.065 139.258 328.958 133.263C328.368 112.32 321.614 91.844 309.428 74.1016C275.4 23.4793 204.155 5.70092 147.17 33.5611C118.8 48.4619 98.4068 72.6602 89.7412 101.706C81.0684 130.779 85.1822 161.227 101.325 187.443C102.136 188.759 102.977 190.063 103.823 191.317C114.944 208.37 130.654 222.547 149.301 232.383C155.468 235.546 162.086 238.133 168.907 240.038C174.018 241.522 192.248 245.991 203.056 251.149C205.952 252.529 206.672 253.431 202.17 254.865C200.011 255.552 197.495 256.379 195.627 256.972H195.627Z" fill="white"/>
<path d="M62.1109 329.416C35.8672 329.416 17.8783 322.995 10.0091 310.417C-6.42226 284.153 25.4922 235.46 93.2977 183.342L95.9453 186.275C63.8863 210.917 39.2165 235.348 24.6017 256.928C9.88367 278.661 6.07645 296.498 13.5915 308.509C24.3502 325.702 58.6197 330.121 107.613 320.633C158.065 310.86 218.927 287.855 278.987 255.854C339.049 223.854 391.069 186.715 425.467 151.281C458.87 116.87 471.858 87.2723 461.1 70.077C446.655 46.9882 391.253 47.3663 316.512 71.0655L315.169 67.4555C393.059 42.7586 448.951 43.0258 464.682 68.168C476.564 87.1612 463.732 117.582 428.547 153.828C393.866 189.555 341.486 226.963 281.056 259.16C220.626 291.356 159.332 314.515 108.462 324.368C91.0314 327.745 75.4963 329.415 62.1109 329.416V329.416Z" fill="white"/>
<path d="M79.4024 315.689C55.6935 315.691 39.4382 309.879 32.3171 298.498C18.2761 276.054 42.6128 236.131 97.4186 191.704L100.148 194.571C47.7325 237.062 23.114 276.153 35.8995 296.59C45.5339 311.988 76.2976 315.936 120.297 307.409C165.683 298.618 220.437 277.921 274.473 249.13C328.51 220.339 375.31 186.929 406.254 155.052C436.253 124.148 447.933 97.5917 438.299 82.1922C426.2 62.8536 382.487 61.7564 321.366 79.2563L320.139 75.6112C384.178 57.2756 428.551 58.9778 441.881 80.2832C452.623 97.4544 441.065 124.912 409.334 157.599C378.107 189.768 330.947 223.449 276.542 252.436C222.136 281.423 166.949 302.273 121.147 311.145C105.456 314.185 91.4623 315.689 79.4026 315.689H79.4024Z" fill="white"/>
<path d="M99.4482 299.889C78.6402 299.889 64.3623 294.776 58.0975 284.763C46.8676 266.813 63.2831 236.369 103.134 201.237L105.991 203.996C68.1968 237.314 51.6325 266.795 61.68 282.855C70.0299 296.201 96.7811 299.603 135.077 292.184C174.673 284.514 222.445 266.455 269.596 241.334C316.746 216.212 357.58 187.061 384.576 159.252C410.684 132.355 420.869 109.275 412.519 95.9278C403.099 80.8696 371.552 78.5133 325.967 89.459L324.926 85.7649C372.447 74.3553 405.681 77.3626 416.101 94.0188C425.541 109.107 415.439 133.178 387.656 161.798C360.376 189.901 319.183 219.321 271.664 244.64C224.145 269.957 175.939 288.168 135.927 295.92C122.221 298.575 109.995 299.889 99.4484 299.889L99.4482 299.889Z" fill="white"/>
<path d="M118.741 284.682C100.721 284.683 88.3488 280.241 82.9074 271.543C73.8937 257.135 85.0103 233.936 114.211 206.22L117.176 208.881C89.7847 234.88 78.5996 257.024 86.4898 269.636C93.6028 281.007 116.497 283.884 149.302 277.531C183.324 270.941 224.379 255.42 264.902 233.829C305.425 212.239 340.518 187.188 363.714 163.293C386.079 140.254 394.825 120.517 387.71 109.146C380.942 98.327 360.556 95.1747 330.309 100.269L329.567 96.5145C361.66 91.1084 383.584 94.917 391.293 107.237C399.478 120.321 390.778 141.133 366.795 165.84C343.314 190.028 307.863 215.348 266.97 237.136C226.078 258.923 184.59 274.596 150.151 281.267C138.357 283.552 127.829 284.682 118.741 284.682L118.741 284.682Z" fill="white"/>
<path d="M261.934 306.571C264.466 306.571 267.032 305.993 269.4 304.79C269.452 304.764 269.503 304.736 269.554 304.709L335.496 268.724C342.034 265.125 342.998 258.22 341.931 251.284C340.842 244.21 340.842 246.232 339.623 232.832C339.416 230.557 336.214 233.731 336.214 233.731C336.214 233.731 332.398 236.404 331.293 237.462C330.039 238.664 328.839 239.696 329.3 242.924C330.238 249.488 330.622 250.322 331.142 255.113C331.342 256.96 331.212 258.661 329.592 259.552L263.763 295.475C262.128 296.274 260.542 295.453 258.97 294.529C256.44 293.041 257.412 293.235 246.121 286.791C243.406 285.241 241.11 287.155 238.188 288.34C234.856 289.69 231.588 290.919 233.887 292.144C246.441 298.828 243.97 297.612 249.944 301.192C253.972 303.606 257.36 306.571 261.935 306.571L261.934 306.571Z" fill="white"/>
<path d="M38.5093 74.7811C40.8851 74.7811 39.7962 70.4876 42.271 68.5692C44.8581 66.5638 49.1039 67.1989 49.1013 65.1893C49.1013 62.9968 44.4487 64.0016 42.3699 61.7178C40.1968 59.3304 40.8851 55.2295 38.7074 55.2318H38.8468C36.471 55.2318 37.5599 59.5254 35.0851 61.4437C32.498 63.4492 28.2522 62.814 28.2548 64.8237C28.2548 67.0161 32.9074 66.0113 34.9861 68.2951C37.1593 70.6826 36.471 74.7834 38.6487 74.7811" fill="white"/>
<path d="M13.8989 197.71C17.119 197.71 15.6431 191.891 18.9973 189.291C22.5039 186.573 28.2584 187.433 28.2552 184.71C28.2552 181.738 21.9492 183.1 19.1316 180.005C16.1861 176.769 17.119 171.21 14.1673 171.214H14.3563C11.1362 171.214 12.6121 177.033 9.25784 179.633C5.7513 182.351 -0.00324158 181.49 1.37007e-06 184.214C1.37007e-06 187.186 6.30597 185.824 9.12358 188.919C12.0691 192.155 11.1361 197.713 14.0879 197.71" fill="white"/>
<path d="M193.506 348.788C195.075 348.788 194.356 345.951 195.991 344.684C197.7 343.359 200.505 343.778 200.503 342.451C200.503 341.002 197.429 341.666 196.056 340.158C194.62 338.58 195.075 335.871 193.636 335.873H193.729C192.159 335.873 192.878 338.709 191.244 339.977C189.534 341.301 186.73 340.882 186.731 342.209C186.731 343.658 189.805 342.994 191.178 344.503C192.614 346.08 192.159 348.789 193.598 348.788" fill="white"/>
<path d="M338.024 0.477357C335.548 0.477357 336.683 4.95086 334.104 6.94963C331.409 9.03914 326.985 8.37727 326.988 10.4713C326.988 12.7556 331.835 11.7086 334.001 14.0882C336.265 16.5757 335.548 20.8484 337.817 20.846H337.672C340.147 20.846 339.013 16.3725 341.591 14.3737C344.287 12.2842 348.71 12.9461 348.708 10.852C348.708 8.56773 343.86 9.61469 341.694 7.23513C339.43 4.74759 340.147 0.474963 337.878 0.477357" fill="white"/>
<path d="M415.152 251.089C418.074 251.089 416.735 245.809 419.778 243.45C422.96 240.983 428.181 241.765 428.178 239.293C428.178 236.597 422.457 237.832 419.9 235.024C417.227 232.088 418.074 227.044 415.396 227.047H415.567C412.645 227.047 413.985 232.327 410.941 234.687C407.759 237.153 402.538 236.372 402.541 238.844C402.541 241.54 408.263 240.304 410.819 243.113C413.492 246.049 412.645 251.092 415.324 251.089" fill="white"/>
<path d="M207.144 161.035C190.907 161.035 177.711 148.862 177.703 133.897C177.692 118.921 190.884 106.73 207.111 106.719H207.133C214.986 106.719 222.368 109.538 227.926 114.659C233.489 119.785 236.555 126.602 236.561 133.857C236.572 148.831 223.38 161.023 207.153 161.035H207.144ZM207.133 113.527H207.116C201.226 113.531 195.69 115.652 191.528 119.498C187.366 123.344 185.076 128.456 185.081 133.892V133.893C185.085 145.106 194.973 154.226 207.123 154.227H207.13C219.307 154.218 229.192 145.082 229.183 133.861C229.179 128.426 226.881 123.317 222.714 119.477C218.55 115.64 213.017 113.527 207.134 113.527H207.133Z" fill="white"/>
<path d="M262.295 227.455C261.008 227.985 260.065 227.966 258.984 226.284L215.709 156.924C214.092 154.312 214.938 154.457 217.768 152.966C220.603 151.473 222.123 150.338 223.739 152.95L267.014 222.309C268.631 224.922 267.515 224.88 264.685 226.37C263.761 226.857 263.522 226.95 262.295 227.455Z" fill="white"/>
<path d="M304.862 330.752C303.598 330.752 302.367 330.153 301.68 329.074C300.647 327.453 301.233 325.367 302.99 324.414L337.721 305.564C339.476 304.611 341.738 305.152 342.771 306.773C343.804 308.394 343.217 310.48 341.461 311.433L306.729 330.282C306.142 330.602 305.498 330.752 304.862 330.752V330.752Z" fill="white"/>
<path d="M324.619 342.989C323.35 342.989 322.116 342.384 321.43 341.301C320.403 339.677 320.997 337.592 322.756 336.644L339.915 327.403C341.674 326.458 343.933 327.005 344.96 328.627C345.987 330.251 345.393 332.335 343.633 333.283L326.475 342.525C325.89 342.839 325.25 342.989 324.619 342.989Z" fill="white"/>
</svg>
