<svg width="497" height="179" viewBox="0 0 497 179" fill="none" xmlns="http://www.w3.org/2000/svg">
<path d="M485.489 0.837128C491.178 0.837128 495.806 5.45425 495.806 11.1295V36.6314C495.806 42.3066 491.178 46.9237 485.489 46.9237H303.703C298.015 46.9237 293.386 42.3066 293.386 36.6314V11.1295C293.386 5.45425 298.015 0.837144 303.703 0.837144H485.489M485.489 0H303.703C297.542 0 292.547 4.98285 292.547 11.1295V36.6314C292.547 42.778 297.542 47.7609 303.703 47.7609H485.489C491.65 47.7609 496.645 42.778 496.645 36.6314V11.1295C496.645 4.98283 491.65 0 485.489 0Z" fill="white"/>
<path d="M328.238 36.0795H326.05L312.681 22.0206V36.0795H307.423V11.7007H309.469L309.577 11.8221L322.987 25.9171V11.7007H328.238V36.0795Z" fill="white"/>
<path d="M344.614 11.6816H339.376V36.0793H344.614V11.6816Z" fill="white"/>
<path d="M408.58 36.0795H406.394L393.023 22.0206V36.0795H387.766V11.7007H389.806L403.332 25.9171V11.7007H408.58V36.0795Z" fill="white"/>
<path d="M438.633 16.8951H431.151V36.0795H425.898V16.8951H418.421V11.7007H438.633V16.8951Z" fill="white"/>
<path d="M453.839 11.6816H448.605V36.0793H453.839V11.6816Z" fill="white"/>
<path d="M483.547 32.836C481.029 35.1391 478.746 36.0785 475.666 36.0785H475.665C472.408 36.0662 469.629 34.8864 467.409 32.5718C465.198 30.2548 464.077 27.3183 464.077 23.8452C464.085 20.4452 465.209 17.539 467.418 15.2064C469.629 12.8796 472.404 11.6997 475.666 11.6997C478.752 11.6997 481.036 12.6416 483.548 14.9488L483.834 15.2105L480.345 19.221L480.063 18.9921C478.614 17.795 477.536 17.1879 475.666 17.1879C473.769 17.1969 472.223 17.8237 471.072 19.052C469.916 20.2753 469.33 21.8769 469.33 23.8124C469.342 25.8882 469.934 27.5521 471.091 28.7557C472.244 29.9627 473.793 30.5747 475.693 30.5747C477.61 30.5747 478.668 29.9741 480.06 28.7918L480.342 28.549L483.835 32.5759L483.547 32.836L483.547 32.836Z" fill="white"/>
<path d="M368.742 11.7002H363.729L354.657 35.54L354.455 36.0792H360.067L361.409 32.4609H371.061L372.405 36.0792L378.006 36.0589L368.742 11.7002ZM363.357 27.0472L366.346 19.2511L369.199 26.9772L363.357 27.0472H363.357Z" fill="white"/>
<path d="M342.243 68.8989C338.606 68.9007 335.515 71.3757 334.74 74.8586L318.766 134.595L305.66 81.0689C304.808 77.6386 301.735 75.2398 298.19 75.238H286.835C283.293 75.2398 280.221 77.6368 279.365 81.0743L266.27 134.593L250.311 74.9149C249.521 71.3757 246.43 68.9007 242.793 68.8989H228.825L254.242 159.462L254.53 160.479H271.578C275.069 160.464 278.124 158.107 279.001 154.74C282.817 140.223 289.62 111.683 292.514 99.4782C295.409 111.683 302.22 140.223 306.031 154.74C306.913 158.107 309.967 160.464 313.458 160.479H330.506L356.211 68.8989H342.243H342.243Z" fill="white"/>
<path d="M201.824 90.6098C197.361 88.1784 192.162 86.9109 187.277 87.0362C182.806 87.0016 178.5 87.8841 174.441 89.6873C172.122 90.6915 169.81 92.4602 167.433 95.0605V76.4007C167.484 74.3796 166.741 72.4602 165.343 70.9948C163.945 69.5312 162.059 68.6977 159.81 68.645H147.017V160.443H159.802C161.735 160.348 163.738 159.68 165.179 158.256C166.621 156.836 167.418 154.941 167.433 152.834L167.429 121.02C167.087 116.599 168.576 111.579 171.062 108.609C173.756 105.854 177.469 104.36 181.539 104.597C185.369 104.34 189.155 105.816 191.769 108.531C194.492 111.777 195.835 115.892 195.548 120.212V152.91C195.548 157.083 198.952 160.479 203.134 160.479H215.924V117.864C216.08 112.159 214.853 106.421 212.356 101.24C210.008 96.6802 206.364 93.0031 201.824 90.6098L201.824 90.6098Z" fill="white"/>
<path d="M444.972 71.2141C443.589 72.7467 442.802 74.7768 442.817 76.7724V152.866C442.802 154.886 443.581 156.792 445.009 158.231C446.432 159.669 448.332 160.464 450.404 160.479H463.196V68.6846H450.397C448.361 68.6973 446.436 69.5943 444.972 71.2141Z" fill="white"/>
<path d="M496.772 68.7808H483.976C481.937 68.7934 480.03 69.6742 478.599 71.2631C477.245 72.7648 476.48 74.7768 476.491 76.7724V152.866C476.477 154.886 477.256 156.792 478.682 158.23C480.106 159.669 482.006 160.464 484.078 160.478H496.867C496.867 160.478 496.772 68.7808 496.772 68.7808Z" fill="white"/>
<path d="M409.107 94.6584V95.6226C406.992 93.5035 404.538 91.704 401.877 90.3239C397.516 88.0995 392.663 86.9936 387.777 87.079C375.909 86.8357 364.555 93.7287 359.247 104.44C356.255 110.348 354.733 116.963 354.846 123.525C354.722 130.15 356.215 136.788 359.167 142.724C361.832 148.11 365.949 152.637 371.068 155.808C375.943 158.866 381.548 160.478 387.26 160.478H388.171C392.914 160.478 397.643 159.349 401.877 157.191C404.563 155.819 407.014 153.999 409.107 151.835V152.931C409.107 157.09 412.51 160.475 416.733 160.475H429.522V87.079H416.733C412.529 87.079 409.107 90.4782 409.107 94.6584ZM405.427 134.623C403.929 137.428 401.696 139.773 398.993 141.395C396.278 142.95 393.187 143.774 390.053 143.774H390.034C386.97 143.774 383.968 142.931 381.347 141.331C378.539 139.648 376.248 137.232 374.729 134.356C373.001 131.034 372.12 127.301 372.186 123.5C372.097 119.797 372.974 116.114 374.714 112.862C376.248 110.071 378.508 107.735 381.234 106.119C383.972 104.566 387.044 103.789 390.115 103.789C393.187 103.789 396.259 104.566 398.996 106.117C401.796 107.713 404.076 110.053 405.579 112.864C407.284 116.194 408.138 119.927 408.049 123.719C408.107 127.506 407.202 131.278 405.427 134.623Z" fill="white"/>
<path d="M117.373 75.9675C117.373 72.0039 114.512 68.8989 110.904 68.8989H98.3811V88.3382H98.3133C93.0594 88.3382 88.8005 92.587 88.8005 97.8281V107.407H98.3811V140.253C98.0969 146.476 100.489 152.263 104.162 156.133C107.329 159.469 111.676 161.23 116.736 161.23C122.218 161.23 126.471 159.626 129.368 156.463C133.846 151.571 133.351 144.797 133.329 144.509L133.224 143.219H123.929C121.749 143.31 120.049 142.772 118.986 141.697C117.227 139.92 117.329 136.853 117.373 135.544V107.407H124.249C129.503 107.407 133.761 103.158 133.761 97.9173V88.3382H117.373V75.9675L117.373 75.9675Z" fill="white"/>
<path d="M71.4026 54.6891L47.2492 41.8082C42.799 39.435 37.4552 39.435 33.005 41.8082L8.8516 54.6891C3.93603 57.3106 0.866699 62.4195 0.866699 67.9801V91.7893C0.866699 97.3501 3.93603 102.459 8.85162 105.08L16.3534 109.081L8.85162 113.082C3.93603 115.703 0.866699 120.812 0.866699 126.373V150.182C0.866699 155.743 3.93603 160.852 8.85162 163.473L33.005 176.354C37.4552 178.727 42.7991 178.727 47.2492 176.354L71.4026 163.473C76.3182 160.852 79.3875 155.743 79.3875 150.182V126.373C79.3875 120.812 76.3182 115.703 71.4026 113.082L63.9009 109.081L71.4026 105.08C76.3182 102.459 79.3875 97.35 79.3875 91.7893V67.9801C79.3875 62.4194 76.3182 57.3105 71.4026 54.6891L71.4026 54.6891ZM58.3846 143.813C58.3846 146.399 56.9569 148.775 54.6711 149.994L43.4392 155.984C41.3697 157.088 38.8845 157.088 36.815 155.984L25.5831 149.994C23.2973 148.775 21.87 146.399 21.87 143.813V132.741C21.87 130.156 23.2973 127.78 25.5831 126.561L36.815 120.571C38.8845 119.467 41.3697 119.467 43.4392 120.571L54.6711 126.561C56.9569 127.78 58.3846 130.156 58.3846 132.741V143.813ZM58.3846 85.4207C58.3846 88.0066 56.9569 90.3824 54.6711 91.6015L43.4392 97.5914C41.3697 98.695 38.8845 98.695 36.815 97.5914L25.5831 91.6015C23.2973 90.3823 21.87 88.0066 21.87 85.4207V74.3487C21.87 71.7629 23.2973 69.3871 25.5831 68.1679L36.815 62.178C38.8845 61.0744 41.3697 61.0744 43.4392 62.178L54.6711 68.1679C56.9569 69.3871 58.3846 71.7629 58.3846 74.3487V85.4207Z" fill="white"/>
</svg>
