<svg width="380" height="74" viewBox="0 0 380 74" fill="none" xmlns="http://www.w3.org/2000/svg">
<path fill-rule="evenodd" clip-rule="evenodd" d="M38.4698 2.10751C37.1696 3.30218 34.4241 5.18582 33.6126 5.44005C33.2338 5.55871 33.3619 5.68371 34.4534 6.2593C36.104 7.12965 37.5763 8.2065 38.774 9.41954L39.7237 10.3813L41.1272 9.04413C42.5342 7.70313 44.4643 6.35431 45.5741 5.93603C46.2645 5.6759 46.2703 5.68139 44.0938 4.47721C43.3594 4.07076 42.0809 3.10708 41.2532 2.33555L39.7483 0.933105L38.4698 2.10751ZM20.5227 14.5287C18.4917 15.1577 16.7079 16.701 15.8191 18.5983C15.3921 19.5101 15.3576 19.9678 15.2962 25.5495L15.2303 31.5248L14.7614 31.3561C14.5034 31.2634 12.3188 31.1874 9.90678 31.1874C5.67082 31.1874 5.48492 31.2051 4.45165 31.7102C3.01813 32.411 1.65392 33.7984 0.958227 35.2633L0.387043 36.466L0.32693 48.2989L0.266602 60.1316L3.85672 61.4283C5.83105 62.1416 9.2757 63.3875 11.5112 64.1973C13.7468 65.007 20.3239 67.389 26.1273 69.4905C31.9307 71.5919 36.8177 73.3112 36.9873 73.3112C37.2547 73.3112 37.2883 69.7283 37.2391 46.4427L37.1824 19.5742L36.5911 18.3863C35.8937 16.9852 34.2583 15.4009 32.8434 14.7557C31.9059 14.3283 31.4699 14.2924 26.7 14.2506C22.5918 14.2147 21.3574 14.2702 20.5227 14.5287ZM46.829 14.7058C46.134 14.9917 45.2194 15.4991 44.7967 15.8336C43.9198 16.5274 42.7255 18.3646 42.4168 19.4942C42.2848 19.9775 42.2281 30.0476 42.2623 46.8627L42.3167 73.4664L56.5428 68.3216C79.24 60.1131 79.0032 60.2026 79.0226 59.8229C79.0323 59.635 79.0318 54.3139 79.022 47.9985L79.0036 36.5157L78.4418 35.28C77.8178 33.9076 76.405 32.4652 74.9174 31.6821C74.0388 31.2194 73.7027 31.1829 69.7393 31.1185C67.2821 31.0786 65.2441 31.1382 64.8902 31.2598L64.2795 31.4699L64.199 25.7332C64.1241 20.3918 64.0854 19.9144 63.6394 18.8042C62.9653 17.1268 61.725 15.8217 60.0133 14.9896L58.586 14.2956L53.3395 14.2409C48.1879 14.187 48.0698 14.1955 46.829 14.7058ZM31.2813 19.1427C32.6502 19.8413 32.583 18.5656 32.583 43.8353C32.583 62.0413 32.5278 66.7646 32.3156 66.761C32.1686 66.7585 29.3527 65.7762 26.0582 64.5782L20.0683 62.4L20.0137 41.4383L19.9592 20.4767L20.7907 19.656L21.6225 18.8352H26.1507C29.6965 18.8352 30.8096 18.902 31.2813 19.1427ZM58.2136 19.263C59.6056 20.1004 59.5455 19.0386 59.4854 41.765L59.4308 62.3808L53.3683 64.5731C50.0339 65.779 47.1698 66.7657 47.004 66.7657C46.746 66.7657 46.7024 63.4709 46.7035 44.1201C46.7041 29.325 46.7805 21.2047 46.9236 20.6963C47.044 20.2683 47.4359 19.6746 47.7945 19.3766L48.4463 18.8352L52.976 18.8361C57.1418 18.8367 57.5624 18.8711 58.2136 19.263ZM189.36 23.9944C179.294 25.7431 172.527 36.2293 174.831 46.5084C176.35 53.2867 181.343 58.6502 187.832 60.4739C190.041 61.0951 193.957 61.1312 196.023 60.5495C199.179 59.6612 202.022 58.0375 204.232 55.8616C205.457 54.6562 206.724 53.0343 206.714 52.6864C206.712 52.5911 205.83 52.0274 204.756 51.4334L202.803 50.3534L200.964 52.1864C198.184 54.9568 195.364 56.2113 191.928 56.2058C188.694 56.2007 186.081 55.0563 183.503 52.5156C181.63 50.6695 180.577 48.9459 179.764 46.39C179.152 44.4656 179.087 40.9153 179.626 38.8942C180.957 33.9055 184.875 29.9272 189.522 28.8459C192.294 28.2013 195.52 28.764 198.313 30.3791C198.869 30.7011 199.965 31.5609 200.748 32.29C201.531 33.0191 202.233 33.6155 202.308 33.6155C202.587 33.6155 206.291 31.4498 206.291 31.2866C206.291 30.8789 202.915 27.6261 201.588 26.7552C197.879 24.3217 193.355 23.3002 189.36 23.9944ZM294.758 23.9135C290.306 24.5991 286.12 27.0605 283.192 30.7152C277.014 38.4259 277.769 49.3733 284.935 55.9889C288.634 59.4044 292.387 60.9439 296.996 60.9367C301.836 60.9291 305.866 59.173 309.511 55.4828C312.207 52.7539 313.89 49.6057 314.661 45.8496C315.093 43.7439 314.981 39.7228 314.434 37.7329C313.936 35.9187 312.176 32.4821 310.887 30.8071C307.149 25.95 300.365 23.0504 294.758 23.9135ZM108.633 24.8001C108.569 25.0613 108.543 33.0666 108.575 42.5893L108.634 59.9034L119.009 59.9593C128.829 60.0123 129.46 59.9931 130.784 59.5972C137.965 57.4509 140.432 48.4753 135.322 43.0836L134.343 42.0503L134.891 41.4751C137.352 38.8913 138.321 34.5976 137.19 31.2847C136.069 27.9999 133.384 25.499 130.027 24.6124C129.206 24.3958 126.607 24.3295 118.853 24.3276L108.749 24.3251L108.633 24.8001ZM154.649 24.5028C154.588 24.6004 153.149 27.9023 151.451 31.8402C149.753 35.7779 146.37 43.6081 143.933 49.2405C141.495 54.8728 139.451 59.6504 139.39 59.8574C139.287 60.2058 139.471 60.2292 141.896 60.1741L144.512 60.1145L146.935 54.5191L149.358 48.9237H157.213H165.067L167.283 54.0968C168.501 56.9421 169.592 59.4838 169.706 59.745C169.906 60.2001 170.024 60.2201 172.487 60.2201C173.901 60.2201 175.058 60.1352 175.058 60.0313C175.058 59.9275 174.058 57.5284 172.836 54.6999C170.175 48.5399 163.719 33.5501 161.415 28.1825L159.762 24.3329L157.261 24.3291C155.886 24.3268 154.71 24.4051 154.649 24.5028ZM211.64 42.167V60.009H213.993H216.346V52.3021V44.5952H220.586H224.825L230.454 52.4077L236.082 60.2201H238.965C241.349 60.2201 241.829 60.1688 241.734 59.9245C241.671 59.7619 238.859 55.8021 235.486 51.1247C232.113 46.4476 229.307 42.5025 229.251 42.3583C229.131 42.0492 229.685 41.2287 235.065 33.756C237.3 30.6504 239.736 27.2581 240.478 26.2174L241.826 24.3251H238.86H235.894L230.366 32.0319L224.837 39.7388H220.592H216.346V32.0319V24.3251H213.993H211.64V42.167ZM246.724 42.1761V60.0271L257.597 59.9653L268.47 59.9034L270.286 59.0153C272.566 57.8996 274.028 56.4364 275.111 54.1853C275.794 52.766 275.897 52.3363 275.986 50.5088C276.068 48.8135 276.006 48.1778 275.64 46.9924C275.134 45.3507 274.304 43.9603 273.156 42.8266L272.369 42.0498L273.245 41.0674C276.837 37.0397 276.511 30.8029 272.515 27.1135C271.095 25.8027 269.492 24.9163 267.878 24.5491C267.318 24.4216 262.867 24.3333 256.832 24.3301L246.724 24.3251V42.1761ZM319.245 42.1611V60.009H321.598H323.951V45.9552C323.951 37.4318 324.029 31.9488 324.148 32.0218C324.257 32.0879 325.032 33.2099 325.871 34.5152C326.711 35.8203 329.319 39.8338 331.668 43.4339C334.017 47.034 336.769 51.2622 337.785 52.83C338.8 54.3977 340.267 56.6536 341.043 57.8432L342.456 60.006L345.397 60.0075L348.339 60.009V42.167V24.3251H345.88H343.421L343.366 38.3879L343.312 52.4505L334.194 38.4407L325.077 24.4306L322.161 24.3719L319.245 24.3132V42.1611ZM361.174 24.6276C358.335 25.4087 355.901 27.4595 354.597 30.1696C353.886 31.6481 353.796 32.0269 353.721 33.886C353.599 36.8691 354.186 38.6647 356.035 40.974L356.92 42.0787L355.927 43.1691C353.426 45.9145 352.624 49.7468 353.816 53.2523C354.7 55.8517 357.12 58.3316 359.822 59.4072C361.055 59.8983 361.164 59.904 370.534 59.9644L380 60.0256V57.6946V55.3637H371.589C362.37 55.3637 361.828 55.3046 360.169 54.1182C358.487 52.9159 357.749 50.3895 358.428 48.1547C358.779 46.9964 360.004 45.6778 361.269 45.0965C362.336 44.6064 362.451 44.5992 369.357 44.5973L376.363 44.5952V42.167V39.7388H369.676C365.964 39.7388 362.666 39.647 362.261 39.5325C361.205 39.2335 360.007 38.3493 359.369 37.3974C357.61 34.7743 358.488 31.287 361.29 29.767L362.351 29.1914L371.175 29.1863L380 29.1815V26.7533V24.3251L371.069 24.3439C364.614 24.3576 361.87 24.4363 361.174 24.6276ZM301.116 29.3459C306.436 31.385 310.045 36.5243 310.119 42.167C310.153 44.7557 309.856 46.0255 308.616 48.5815C307.821 50.2217 307.356 50.8585 305.91 52.2886C300.575 57.5624 293.471 57.5692 288.105 52.3053C285.215 49.4714 283.873 46.3213 283.873 42.3782C283.873 39.8355 284.287 38.1651 285.481 35.8966C287.351 32.3421 290.968 29.5497 294.737 28.7505C296.427 28.392 299.335 28.6633 301.116 29.3459ZM130.059 29.7718C131.905 30.7131 133.113 33.0355 132.81 35.0613C132.512 37.0577 131.108 38.8102 129.297 39.4493C128.729 39.6497 126.563 39.7228 120.988 39.7295L113.447 39.7388V34.4631V29.1871L120.453 29.1316C128.156 29.0704 128.763 29.1107 130.059 29.7718ZM267.547 29.4977C271.829 31.2634 272.016 37.1483 267.855 39.1945L266.749 39.7388H259.196H251.644V34.4601V29.1815H259.212C265.451 29.1815 266.915 29.237 267.547 29.4977ZM160.066 37.2768C161.503 40.6261 162.731 43.5002 162.794 43.6641C162.892 43.9157 162.029 43.9618 157.224 43.9618H151.537L151.731 43.4565C152.824 40.6195 157.182 30.8833 157.3 31.0153C157.384 31.1099 158.629 33.9276 160.066 37.2768ZM13.7365 35.9276C15.3022 36.716 15.2656 36.3837 15.2034 49.2012L15.148 60.5979L10.0672 58.7805L4.98647 56.9632L4.98732 47.2426C4.98796 38.1235 5.01278 37.4817 5.38758 36.875C6.07813 35.7574 6.87907 35.526 10.0758 35.5207C12.4786 35.5167 13.0453 35.5796 13.7365 35.9276ZM72.6476 35.8054C73.0263 35.9646 73.5767 36.3522 73.8709 36.6668L74.4057 37.2388V47.0903V56.9418L69.3784 58.7642L64.3511 60.5867L64.2957 49.0768C64.2339 36.2023 64.183 36.6654 65.7489 35.8858C66.7075 35.4084 71.569 35.3518 72.6476 35.8054ZM130.028 45.0916C131.974 45.9858 133.126 47.7449 133.156 49.8667C133.186 51.9425 132.196 53.6042 130.32 54.6302L129.171 55.2581L121.309 55.3228L113.447 55.3876V49.9913V44.5952L121.202 44.5973C128.874 44.5992 128.969 44.6047 130.028 45.0916ZM267.716 44.9181C268.812 45.2863 270.105 46.4322 270.679 47.5428C271.745 49.606 271.336 51.9947 269.627 53.6811C267.982 55.3057 267.615 55.3637 258.985 55.3637H251.644V49.9795V44.5952H259.2C265.419 44.5952 266.926 44.6524 267.716 44.9181Z" fill="white"/>
</svg>
