<svg width="144" height="46" viewBox="0 0 144 46" fill="none" xmlns="http://www.w3.org/2000/svg">
<path fill-rule="evenodd" clip-rule="evenodd" d="M3.1836 0.569883C2.14743 1.12776 1.12415 2.27765 0.763767 3.2891C0.48639 4.06764 0.46585 5.43922 0.466698 23.1196L0.467547 42.1139L0.902456 43.0339C1.42326 44.1354 2.70643 45.4903 3.22893 45.4903C3.35505 45.4903 3.60646 45.6026 3.78776 45.7397C4.07617 45.958 12.5966 45.9898 72.1225 45.9945L140.128 46L140.973 45.5328C142.096 44.9114 142.396 44.6693 142.941 43.9455L143.4 43.3348V22.947V2.55948L142.734 1.80166C142.367 1.38495 141.672 0.838968 141.19 0.58857L140.313 0.133301L72.1303 0.145872L3.94749 0.158612L3.1836 0.569883ZM25.7218 15.9743C25.7471 17.9129 25.8292 19.4992 25.9044 19.4992C25.9796 19.4992 26.2263 19.3006 26.4527 19.0581C27.2711 18.1805 28.0825 17.8947 29.7534 17.8956C30.9821 17.8961 31.4438 17.971 32.0897 18.2749C32.9801 18.6937 34.2042 19.8823 34.3568 20.476C34.4108 20.6863 34.5106 20.8582 34.5787 20.8582C34.8016 20.8582 35.267 23.1765 35.267 24.2869C35.267 25.4052 34.9319 27.0025 34.5053 27.9183C34.0832 28.8248 32.9355 29.9682 31.9449 30.4699C31.0984 30.8985 30.8166 30.9526 29.5198 30.9372C27.8641 30.9171 27.1514 30.679 26.294 29.859C25.6793 29.2712 25.4777 29.3286 25.3919 30.1165C25.3386 30.6052 25.2989 30.6283 24.421 30.6783C23.9175 30.707 23.436 30.661 23.3512 30.576C23.1863 30.4111 23.1543 12.7694 23.3182 12.5037C23.3707 12.4189 23.9226 12.3721 24.5447 12.3994L25.6759 12.4493L25.7218 15.9743ZM53.5625 21.198C53.5883 26.0097 53.567 30.1221 53.515 30.3365C53.4264 30.7016 53.348 30.7231 52.2797 30.6763L51.139 30.6261L51.095 21.4878L51.0512 12.3495L52.2833 12.3994L53.5155 12.4493L53.5625 21.198ZM104.562 13.4453C104.971 13.756 105.238 14.5482 105.118 15.0943C104.959 15.8172 104.461 16.1583 103.563 16.1583C102.895 16.1583 102.713 16.0823 102.378 15.6629C101.866 15.0223 101.876 14.4868 102.413 13.7819C102.785 13.2943 102.947 13.2146 103.559 13.2192C103.951 13.2221 104.403 13.3239 104.562 13.4453ZM125.016 17.8409C126.078 18.3114 126.512 19.2522 126.182 20.3704C125.888 21.3667 125.374 21.6993 124.12 21.7039C123.038 21.7078 122.774 21.5488 122.223 20.5633C121.755 19.7252 122.247 18.4037 123.2 17.937C123.917 17.5866 124.386 17.5618 125.016 17.8409ZM44.889 18.2236C45.5758 18.5666 46.3906 19.3638 46.7512 20.0461C47.2272 20.9466 47.3603 22.2261 47.4326 26.5999L47.5008 30.7276L46.4349 30.6769C45.4147 30.6283 45.3578 30.6022 45.1053 30.0654C44.8484 29.5197 44.8336 29.5133 44.5486 29.8284C43.9009 30.5448 42.8212 30.9253 41.4111 30.9343C39.9295 30.9438 39.2029 30.6963 38.4236 29.9166C37.7573 29.2496 37.4738 28.447 37.4738 27.2274C37.4738 25.5514 38.0425 24.5383 39.4282 23.7449C40.6438 23.0488 41.7659 22.731 43.0144 22.7287C44.3577 22.7264 44.8369 22.3924 44.6714 21.5741C44.5169 20.8098 43.7934 20.085 42.9251 19.8247C42.2996 19.6372 42.028 19.6506 40.9319 19.9237C40.2338 20.0977 39.6241 20.3027 39.5767 20.3792C39.3537 20.7407 38.8235 20.4876 38.5794 19.9032C38.1606 18.9001 38.1693 18.8883 39.8504 18.1626C40.8088 17.749 44.0158 17.7877 44.889 18.2236ZM63.4137 18.1326C63.5715 18.2167 63.8345 18.3267 63.9978 18.3774C64.3787 18.4953 64.3823 19.1345 64.0063 19.9232C63.7994 20.3578 63.6435 20.4969 63.4546 20.4159C61.3176 19.4984 59.8718 19.6506 59.3775 20.8453C59.195 21.2862 59.2094 21.4334 59.4808 21.897C59.8392 22.5093 59.8034 22.4857 61.7486 23.3967C64.1209 24.508 64.7179 25.2608 64.7187 27.1418C64.7194 28.8153 64.2025 29.6602 62.6856 30.4646C61.9378 30.8611 61.6442 30.9136 60.1393 30.919C58.9593 30.9233 58.1649 30.8342 57.5453 30.6282C56.4597 30.267 56.2978 29.8778 56.8128 28.8676C57.1618 28.1831 57.3944 28.1094 57.9291 28.5141C58.27 28.7719 60.161 29.0614 60.7645 28.9481C61.6615 28.7796 62.0959 28.3588 62.1903 27.5667C62.3332 26.3682 61.9725 26.0267 59.3338 24.8627C57.9585 24.2561 57.0517 23.3026 56.9024 22.3066C56.5684 20.0782 57.8522 18.2357 59.9662 17.9094C60.6922 17.7972 63.0728 17.9513 63.4137 18.1326ZM74.565 18.2133C75.2647 18.5782 75.7169 18.9775 76.1559 19.6183C76.9225 20.7373 77.0227 21.5021 77.0245 26.2518L77.0264 30.7111H76.0111C75.0416 30.7111 74.9912 30.69 74.8929 30.2439C74.8362 29.9871 74.7756 29.7139 74.7583 29.6371C74.7408 29.5603 74.5371 29.6466 74.3057 29.8289C73.2013 30.6982 72.5614 30.9261 71.1699 30.9455C69.5779 30.9676 68.9052 30.7111 68.0171 29.7431C67.4078 29.0792 67.0091 28.0722 67.0135 27.2089C67.0187 26.2177 67.6852 24.852 68.5195 24.1231C69.3588 23.3897 71.2249 22.7315 72.5255 22.7099C74.4395 22.6781 74.7491 22.3936 74.228 21.1452C73.9374 20.4492 73.1894 19.9008 72.302 19.733C71.7437 19.6275 69.7659 20.0547 69.1977 20.4035C68.8132 20.6396 68.3937 20.4358 68.1967 19.9173C67.8422 18.9843 67.9393 18.8593 69.5572 18.1633C70.543 17.7391 73.7164 17.7709 74.565 18.2133ZM87.8057 17.9163C88.3287 18.0026 88.7002 18.246 89.423 18.9762L90.3612 19.9239L90.939 19.2746C91.881 18.2163 92.6646 17.8988 94.3412 17.8964C95.6086 17.8946 95.8668 17.9479 96.4632 18.3351C97.4477 18.974 97.8697 19.5595 98.3361 20.9337C98.5421 21.5415 98.5822 22.5371 98.5455 26.1553L98.5002 30.6261H97.3119H96.1237L96.0388 26.2093C95.9683 22.5392 95.9065 21.7063 95.6741 21.2826C95.2214 20.4568 94.7476 20.1352 93.8576 20.0496C92.7439 19.9426 91.9671 20.3274 91.4408 21.2466C91.0445 21.9392 91.0283 22.1036 90.9462 26.2943L90.8613 30.6261H89.673H88.4847L88.386 26.2943C88.3316 23.9118 88.2286 21.7593 88.1569 21.5109C87.9208 20.6921 87.151 20.1305 86.1544 20.0501C85.3689 19.9868 85.1747 20.0398 84.5667 20.4833C83.3229 21.3906 83.229 21.7717 83.1762 26.1244C83.1508 28.2266 83.092 30.1185 83.0457 30.3289C82.97 30.6722 82.86 30.7111 81.9667 30.7111C81.3325 30.7111 80.9025 30.6268 80.7796 30.4787C80.6418 30.3125 80.5995 28.5083 80.6314 24.1508L80.6761 18.0553L81.6046 18.0026C82.6491 17.9435 82.9678 18.1817 82.9678 19.022C82.9678 19.2845 83.0066 19.4992 83.0542 19.4992C83.1017 19.4992 83.3842 19.2663 83.6817 18.9816C84.7441 17.9657 86.0546 17.6272 87.8057 17.9163ZM115.857 18.3089C116.222 18.4852 116.619 18.7487 116.74 18.8945C117.031 19.2446 117.257 19.2306 117.263 18.8622C117.275 18.2279 117.678 17.9703 118.659 17.9703C119.265 17.9703 119.62 18.0458 119.659 18.1827C119.692 18.2996 119.681 22.2937 119.635 27.0587L119.55 35.7224L118.559 35.7737C117.975 35.8041 117.47 35.7433 117.329 35.6256C117.138 35.4671 117.088 34.8 117.088 32.3822V29.3383L116.621 29.782C115.744 30.6158 114.782 30.9489 113.25 30.9489C112.119 30.9489 111.707 30.8735 111.079 30.5502C108.964 29.4616 107.922 27.4768 107.922 24.54C107.922 22.5811 108.205 21.5557 109.113 20.2282C109.956 18.9962 111.192 18.1504 112.505 17.9077C113.299 17.7607 115.192 17.9873 115.857 18.3089ZM104.781 24.3407V30.6261L103.693 30.6774C102.938 30.7129 102.562 30.6611 102.465 30.5076C102.303 30.2526 102.266 18.6475 102.425 18.2318C102.511 18.008 102.744 17.9652 103.656 18.0055L104.781 18.0553V24.3407ZM123.839 18.6782C123.985 18.825 124.138 18.8279 124.424 18.6898C124.788 18.5143 124.776 18.5022 124.226 18.4915C123.78 18.4827 123.688 18.5272 123.839 18.6782ZM125.25 19.7681C125.258 19.966 125.298 20.0063 125.352 19.8709C125.401 19.7483 125.395 19.6017 125.339 19.5453C125.283 19.4889 125.242 19.5891 125.25 19.7681ZM29.071 19.9234C28.9777 19.9552 28.6288 20.0264 28.2959 20.0817C27.614 20.1952 26.7009 20.9727 26.1869 21.8775C25.9043 22.3752 25.8489 22.7901 25.8474 24.4256C25.8454 26.6707 26.0815 27.3419 27.189 28.2389C27.7797 28.7172 27.9315 28.7575 29.1425 28.7575C30.3301 28.7575 30.5171 28.7104 31.1014 28.2643C31.4569 27.9932 31.7845 27.63 31.8295 27.4574C31.8747 27.2848 31.9624 27.1437 32.0244 27.1437C32.296 27.1437 32.6341 25.4335 32.6124 24.1708C32.5744 21.9696 31.7204 20.5689 30.1276 20.0957C29.6526 19.9545 29.2588 19.8451 29.2523 19.8524C29.246 19.8597 29.1644 19.8918 29.071 19.9234ZM113.213 20.0094C112.399 20.1995 111.477 21.0144 110.986 21.9772C110.654 22.6289 110.547 23.1325 110.498 24.2748C110.443 25.5769 110.484 25.8387 110.878 26.6531C111.442 27.8198 111.762 28.1877 112.531 28.5501C113.179 28.8559 113.957 28.917 114.871 28.7341C115.49 28.6102 116.749 27.5159 116.749 27.1014C116.749 26.9488 116.825 26.7767 116.918 26.719C117.156 26.5722 117.138 22.2927 116.898 21.8238C116.505 21.0546 115.501 20.1828 114.891 20.0805C114.559 20.0248 114.173 19.9564 114.033 19.9283C113.893 19.9003 113.524 19.9368 113.213 20.0094ZM124.048 20.6783C124.048 20.8706 124.124 21.0281 124.218 21.0281C124.311 21.0281 124.388 20.918 124.388 20.7833C124.388 20.6486 124.311 20.4913 124.218 20.4335C124.124 20.3758 124.048 20.486 124.048 20.6783ZM42.8211 24.6059C41.4172 24.8908 41.1867 24.991 40.6109 25.5672C40.0877 26.0908 40.0206 26.2584 40.0239 27.0333C40.0295 28.319 40.7042 29.0123 41.95 29.0123C43.7034 29.0123 44.943 27.5718 44.943 25.5339C44.943 24.374 44.633 24.2383 42.8211 24.6059ZM72.6977 24.5345C70.9446 24.8937 70.0531 25.4605 69.7652 26.3996C69.1977 28.2494 70.8935 29.5734 72.8043 28.7723C73.9746 28.2817 74.4801 27.3553 74.4801 25.7021V24.4256L73.7586 24.4454C73.3619 24.4562 72.8844 24.4963 72.6977 24.5345Z" fill="white"/>
</svg>
