<svg width="451" height="112" viewBox="0 0 451 112" fill="none" xmlns="http://www.w3.org/2000/svg">
<path fill-rule="evenodd" clip-rule="evenodd" d="M0.00214503 7.39916V14.4648L12.4004 14.5136C25.8591 14.5666 25.7289 14.5606 29.4046 15.308C38.0346 17.0631 43.2108 21.8642 44.5697 29.3742C44.8836 31.1092 44.952 34.9519 44.6919 36.241C43.6511 41.4002 40.5333 45.3507 35.6822 47.657L34.5775 48.1823L35.6822 48.5455C41.2584 50.3795 45.0526 54.6382 46.2592 60.4178C46.5269 61.7004 46.6389 65.6764 46.4518 67.2534C45.8711 72.1449 44.2045 75.688 41.08 78.6733C37.3565 82.2308 32.3188 84.1626 25.3728 84.6966C24.363 84.7742 18.8804 84.8271 11.8378 84.8271H0L0.0326832 91.8682L0.0652404 98.9093L49.7528 98.9407L99.4404 98.9723V49.6528V0.333496H49.7213H0.00214503V7.39916ZM113.952 22.9332V45.5329L124.142 45.4867C135.145 45.4367 134.725 45.4609 136.919 44.7508C140.839 43.482 143.558 40.5728 144.58 36.5547C144.747 35.8949 144.797 35.1729 144.795 33.4425C144.791 30.8104 144.608 29.927 143.682 28.0598C142.275 25.2249 139.506 23.1531 135.937 22.2666L134.514 21.9129L135.152 21.7508C136.005 21.5339 137.842 20.635 138.623 20.0522C140.588 18.5849 141.892 16.7639 142.617 14.474C142.875 13.6606 142.913 13.288 142.911 11.5993C142.91 10.1122 142.855 9.45442 142.676 8.78285C141.436 4.14146 137.401 1.03385 131.871 0.461801C131.21 0.393455 126.925 0.336876 122.312 0.335624L113.952 0.333496V22.9332ZM209.352 22.9277V45.5219H211.308H213.263L213.295 37.1147L213.327 28.7076L221.568 37.1147L229.809 45.5219H232.2C233.515 45.5219 234.591 45.4909 234.591 45.4531C234.591 45.4004 225.447 35.9262 218.107 28.3728L217.438 27.6844L221.431 24.3046C223.627 22.4458 227.233 19.39 229.445 17.5139L233.466 14.1028L230.968 14.1051L228.47 14.1073L220.927 20.4264C216.779 23.9019 213.357 26.7456 213.324 26.7456C213.291 26.7456 213.264 20.8028 213.264 13.5395V0.333496H211.308H209.352V22.9277ZM237.745 2.71183V5.09017H240.017H242.288V2.71183V0.333496H240.017H237.745V2.71183ZM131.185 4.38293C135.986 5.22211 138.212 7.38138 138.503 11.4826C138.739 14.7904 137.165 17.5295 134.221 18.9348C131.843 20.0697 130.46 20.2364 123.422 20.2364H118.117V12.1488V4.06135L124.079 4.12219C128.76 4.17013 130.287 4.22608 131.185 4.38293ZM160.075 13.1766C156.119 13.5661 153.513 14.7209 151.732 16.8743C150.824 17.9715 150 19.7645 149.727 21.2378C149.682 21.4788 149.617 21.7745 149.583 21.895C149.526 22.0972 149.68 22.1141 151.587 22.1141H153.652L153.803 21.3943C154.263 19.1963 155.664 17.7419 157.976 17.061C159.173 16.7085 161.204 16.5633 162.7 16.723C164.847 16.9524 166.008 17.4351 167.057 18.5352C168.332 19.873 168.845 21.5803 168.845 24.4871V26.2449L166.732 26.2486C163.624 26.2542 159.481 26.4618 158.182 26.6771C153.674 27.4246 150.525 29.533 149.029 32.8071C147.718 35.6738 147.985 39.5324 149.67 42.0672C151.44 44.7303 154.18 46.1886 157.942 46.4704C160.213 46.6405 163.049 45.9536 165.159 44.7224C166.462 43.9613 168.16 42.3645 168.634 41.4537L168.96 40.8278L168.966 42.2171C168.969 42.9813 169.008 44.0374 169.053 44.5642L169.135 45.5219H171.086H173.038L172.954 44.6144C172.907 44.1152 172.825 38.6372 172.771 32.441C172.676 21.4829 172.666 21.1471 172.403 20.1455C171.208 15.6066 167.952 13.3958 162.153 13.1844C161.288 13.1529 160.353 13.1494 160.075 13.1766ZM188.658 13.2379C184.837 13.6025 181.837 15.0632 180.287 17.3138C179.403 18.5975 179.045 19.7346 178.973 21.4882C178.873 23.9468 179.439 25.5272 180.947 26.9995C182.501 28.516 184.828 29.4594 189.856 30.6112C195.075 31.8068 196.469 32.3425 197.74 33.6416C199.473 35.414 199.363 38.5271 197.495 40.5459C195.839 42.3351 192.608 43.2647 189.254 42.9171C185.897 42.5691 183.786 41.4665 182.736 39.5126C182.416 38.9166 181.983 37.4827 181.971 36.9787C181.968 36.8452 177.96 36.8616 177.877 36.9953C177.742 37.2119 178.072 39.1632 178.393 40.0506C179.689 43.6272 183.118 45.8704 188.113 46.4074C191.05 46.7232 194.604 46.1812 197.188 45.0231C199.139 44.1487 201.202 42.3119 202.068 40.6782C203.383 38.1944 203.486 35.0966 202.331 32.754C201.778 31.6327 200.217 30.013 199.143 29.4471C198.218 28.9592 195.382 28.0326 192.632 27.3201C186.518 25.7356 185.113 25.2323 184.157 24.2845C183.353 23.4872 183.168 22.985 183.169 21.6134C183.17 20.6603 183.225 20.307 183.444 19.8337C184.071 18.4807 185.449 17.4965 187.458 16.9665C188.256 16.7559 188.838 16.6997 190.235 16.6981C193.05 16.6947 195.056 17.3108 196.397 18.5902C197.038 19.2025 197.651 20.2498 197.8 20.9875C197.991 21.9393 197.794 21.8637 200.084 21.8637H202.155L202.077 21.2691C201.439 16.4196 198.233 13.7342 192.481 13.2336C190.817 13.0888 190.213 13.0894 188.658 13.2379ZM259.939 13.223C256.674 13.6333 253.837 15.3657 252.057 18.0357L251.563 18.7766L251.478 18.2235C251.431 17.9193 251.388 17.0789 251.382 16.356C251.376 15.6331 251.336 14.8305 251.293 14.5722L251.215 14.1028H249.265H247.314L247.393 14.9478C247.437 15.4125 247.502 22.4818 247.538 30.6573L247.604 45.5219H249.552H251.5V35.7746C251.5 27.6054 251.531 25.8473 251.693 24.9156C252.288 21.4798 253.982 18.8371 256.356 17.6408C259.245 16.185 263.027 16.3561 265.535 18.0561C266.886 18.9714 267.761 20.2185 268.426 22.1766L268.724 23.0529L268.761 34.2874L268.797 45.5219H270.756H272.714L272.664 34.4752C272.62 24.7097 272.59 23.305 272.4 22.3644C271.357 17.1885 268.697 14.251 264.292 13.4085C263.107 13.182 260.985 13.0915 259.939 13.223ZM238.124 29.8124V45.5219H240.017H241.91V29.8124V14.1028H240.017H238.124V29.8124ZM85.1809 19.298V24.1177L67.6272 24.086L50.0737 24.0543L49.7243 23.1037C48.5839 20.0011 46.4895 17.2222 43.8009 15.2448L42.759 14.4783H63.9698H85.1809V19.298ZM128.765 24.1179C133.655 24.3995 136.303 25.1934 138.165 26.9357C139.156 27.8631 139.681 28.7502 140.091 30.1923C140.457 31.4797 140.489 34.2054 140.153 35.5669C139.33 38.9065 137.197 40.6371 132.881 41.4657C131.995 41.636 130.62 41.6819 124.962 41.7302L118.117 41.7887V32.8902V23.9917L122.376 23.9934C124.718 23.9944 127.593 24.0504 128.765 24.1179ZM8.33073 34.1945V44.1661L15.5551 44.1087C23.3706 44.0465 23.7569 44.0168 25.9343 43.3108C27.8074 42.7036 29.2463 41.8211 30.3932 40.5763C32.1727 38.6449 32.9717 35.6464 32.5645 32.4273C31.9792 27.7995 29.5454 25.4704 24.3156 24.5332C23.3496 24.3601 21.9322 24.3173 15.7444 24.2743L8.33073 24.2228V34.1945ZM168.921 30.3444C169.068 31.3037 168.769 34.6592 168.411 36.0711C167.506 39.6369 165.489 41.8141 162.301 42.6681C160.997 43.0171 158.308 43.0433 157.11 42.7186C155.891 42.3884 154.689 41.7117 153.956 40.9422C151.609 38.4805 151.881 34.1496 154.51 32.1379C156.688 30.4707 159.96 29.8155 166.345 29.7682L168.83 29.7498L168.921 30.3444ZM71.0475 48.5887V53.0324H60.9522H50.857V48.5887V44.145H60.9522H71.0475V48.5887ZM8.33073 64.0479V75.0634H16.1323C22.6813 75.0634 24.1249 75.0314 25.1234 74.8643C29.9683 74.0534 33.2138 71.2216 34.0767 67.0521C34.3815 65.5787 34.4101 62.9315 34.1377 61.3823C33.2841 56.5268 30.1433 53.7622 24.7986 53.162C24.1511 53.0893 20.3673 53.0341 15.9968 53.0334L8.33073 53.0324V64.0479ZM113.605 76.2838L113.637 98.9093L129.253 98.9411L144.869 98.9729V95.1545V91.3362H134.143H123.417V85.3278V79.3193H133.133H142.85V75.5648V71.8103L133.165 71.7782L123.48 71.7462L123.447 66.5201L123.414 61.294H133.826H144.238V57.4762V53.6583H128.906H113.573L113.605 76.2838ZM222.981 57.7265V61.7947H228.092H233.203V57.7265V53.6583H228.092H222.981V57.7265ZM366.839 57.7265V61.7947H371.949H377.06V57.7265V53.6583H371.949H366.839V57.7265ZM166.637 66.7269C165.367 66.9677 164.042 67.4544 163.025 68.0539C162.159 68.5645 160.638 69.9383 159.978 70.8074L159.645 71.2455L159.639 69.3366L159.633 67.4276H154.901H150.169V83.1998V98.9719H154.896H159.622L159.663 88.8014C159.703 78.8313 159.709 78.612 159.975 77.674C160.511 75.7897 161.577 74.2458 162.859 73.5009C164.143 72.7544 165.999 72.6318 167.513 73.1937C168.544 73.5764 169.579 74.571 170.089 75.6698C170.926 77.471 170.907 77.1782 170.957 88.6136L171.003 98.9719H175.734H180.466L180.42 87.2993C180.376 76.0251 180.365 75.5861 180.111 74.4375C179.77 72.8917 179.478 72.1525 178.846 71.2293C177.615 69.4306 174.972 67.704 172.252 66.9209C171.05 66.5747 167.996 66.4692 166.637 66.7269ZM195.85 66.7869C191.354 67.7576 187.774 71.278 186.158 76.3151C184.818 80.4965 184.831 84.8337 186.198 88.9167C187.564 92.9955 190.369 96.1789 193.738 97.4732C195.178 98.0262 196.476 98.2481 198.248 98.244C200.613 98.2386 202.506 97.7841 204.144 96.8285C204.876 96.4017 206.441 94.966 206.92 94.2831L207.179 93.9127L207.274 95.2845C207.606 100.112 206.495 103.17 203.996 104.305C202.084 105.173 199.29 105.189 197.581 104.342C196.444 103.778 195.472 102.425 195.472 101.408V101.1H190.92H186.368L186.449 101.82C186.689 103.936 187.045 105.062 187.898 106.402C189.479 108.885 192.562 110.469 196.968 111.061C198.998 111.334 203.536 111.336 205.314 111.065C209.698 110.396 212.54 108.855 214.341 106.169C215.539 104.383 216.247 102.257 216.539 99.5714C216.624 98.7916 216.672 92.8115 216.672 82.8917V67.4276H211.939H207.207V69.274V71.1203L206.599 70.1815C205.513 68.5035 203.985 67.4051 201.97 66.8523C200.781 66.5261 197.234 66.4881 195.85 66.7869ZM256.232 66.7269C254.962 66.9677 253.638 67.4544 252.621 68.0539C251.754 68.5645 250.234 69.9383 249.574 70.8074L249.241 71.2455L249.235 69.3366L249.229 67.4276H244.497H239.764V83.1998V98.9719H244.491H249.218L249.258 88.8014C249.298 78.7732 249.303 78.6172 249.576 77.6545C250.187 75.4995 251.535 73.7859 253.101 73.1731C254.135 72.7681 256.035 72.7694 257.089 73.1757C258.145 73.5832 259.175 74.573 259.685 75.6698C260.522 77.471 260.502 77.1782 260.553 88.6136L260.598 98.9719H265.324H270.05L270.05 87.9877C270.049 76.4447 270.021 75.7235 269.471 73.5696C268.834 71.0721 267.21 69.3194 264.182 67.8626C262.104 66.8627 261.264 66.6584 259.009 66.6046C257.768 66.5749 256.811 66.6171 256.232 66.7269ZM287.178 66.7407C280.915 67.7851 276.395 72.5506 275.234 79.3321C274.736 82.2461 274.783 85.6879 275.362 88.6709C276.874 96.463 282.031 100.122 291.061 99.8084C299.137 99.5283 303.318 96.4382 304.432 89.928L304.512 89.4585H300.212C296.227 89.4585 295.906 89.4747 295.841 89.6776C295.802 89.798 295.575 90.3006 295.338 90.7944C294.816 91.8783 293.947 92.7094 292.946 93.0808C291.974 93.4416 290.28 93.6118 289.189 93.4583C286.411 93.0674 285.162 91.4421 284.818 87.7687C284.747 87.0114 284.688 86.2369 284.688 86.0475L284.688 85.7033H295.119H305.549L305.463 83.215C305.316 78.9907 304.799 76.3979 303.621 73.9911C301.566 69.7931 298.081 67.3744 293.094 66.6863C291.787 66.5061 288.398 66.5371 287.178 66.7407ZM320.997 66.7407C314.734 67.7851 310.214 72.5506 309.054 79.3321C308.555 82.2461 308.602 85.6879 309.181 88.6709C310.693 96.463 315.85 100.122 324.88 99.8084C332.956 99.5283 337.137 96.4382 338.251 89.928L338.331 89.4585H334.031C330.046 89.4585 329.725 89.4747 329.66 89.6776C329.621 89.798 329.395 90.3006 329.157 90.7944C328.635 91.8783 327.766 92.7094 326.765 93.0808C325.793 93.4416 324.1 93.6118 323.008 93.4583C320.23 93.0674 318.981 91.4421 318.637 87.7687C318.566 87.0114 318.508 86.2369 318.508 86.0475L318.507 85.7033H328.938H339.368L339.282 83.215C339.135 78.9907 338.618 76.3979 337.44 73.9911C335.386 69.7931 331.9 67.3744 326.913 66.6863C325.606 66.5061 322.217 66.5371 320.997 66.7407ZM400.09 66.7269C398.82 66.9677 397.495 67.4544 396.478 68.0539C395.611 68.5645 394.091 69.9383 393.431 70.8074L393.098 71.2455L393.092 69.3366L393.086 67.4276H388.354H383.622V83.1998V98.9719H388.348H393.075L393.116 88.8014C393.156 78.7732 393.16 78.6172 393.433 77.6545C394.044 75.4995 395.392 73.7859 396.958 73.1731C397.993 72.7681 399.892 72.7694 400.946 73.1757C402.002 73.5832 403.033 74.573 403.542 75.6698C404.379 77.471 404.36 77.1782 404.41 88.6136L404.455 98.9719H409.182H413.908L413.907 87.9877C413.907 76.4447 413.878 75.7235 413.328 73.5696C412.691 71.0721 411.067 69.3194 408.04 67.8626C405.962 66.8627 405.122 66.6584 402.866 66.6046C401.625 66.5749 400.669 66.6171 400.09 66.7269ZM429.303 66.7869C425.589 67.5889 422.463 70.1361 420.61 73.87C418.349 78.4252 417.996 83.9721 419.651 88.9167C421.017 92.9955 423.822 96.1789 427.191 97.4732C428.63 98.0262 429.929 98.2481 431.701 98.244C434.065 98.2386 435.959 97.7841 437.597 96.8285C438.329 96.4017 439.894 94.966 440.373 94.2831L440.632 93.9127L440.727 95.2845C441.059 100.112 439.947 103.17 437.449 104.305C435.537 105.173 432.743 105.189 431.034 104.342C429.897 103.778 428.924 102.425 428.924 101.408V101.1H424.372H419.82L419.902 101.82C420.143 103.944 420.533 105.17 421.377 106.456C422.992 108.916 426.051 110.474 430.421 111.061C432.451 111.334 436.989 111.336 438.767 111.065C442.313 110.524 444.743 109.452 446.611 107.606C447.875 106.357 448.951 104.437 449.445 102.547C450.064 100.178 450.037 100.974 450.087 83.6692L450.133 67.4276H445.4H440.667L440.632 69.2685L440.597 71.1094L440.095 70.2577C439.154 68.6602 437.413 67.3907 435.423 66.8503C434.23 66.5263 430.68 66.4894 429.303 66.7869ZM359.835 67.2334C356.354 67.7731 354.028 69.3941 352.55 72.3095L352.137 73.1231L352.027 70.2754L351.916 67.4276H347.568H343.22L343.286 68.3352C343.382 69.6399 343.6 86.3625 343.61 93.1825L343.619 98.9719H348.345H353.071L353.117 89.928C353.167 79.8834 353.142 80.2048 354.037 78.3586C354.53 77.3413 355.079 76.8261 356.332 76.2033C357.575 75.5855 358.425 75.4428 360.876 75.4408L363.053 75.4389V71.2455V67.0521L361.949 67.0645C361.341 67.0713 360.39 67.1474 359.835 67.2334ZM223.36 83.1998V98.9719H228.092H232.824V83.1998V67.4276H228.092H223.36V83.1998ZM367.217 83.1998V98.9719H371.949H376.681V83.1998V67.4276H371.949H367.217V83.1998ZM202.311 72.9499C205.203 73.554 206.714 76.0252 207.105 80.7889C207.524 85.9077 206.319 89.8524 203.908 91.2541C202.588 92.0215 200.497 92.1625 198.965 91.5874C197.912 91.1922 196.768 90.0966 196.185 88.9258C194.55 85.6398 194.614 78.9726 196.313 75.648C197.399 73.5211 199.824 72.4304 202.311 72.9499ZM291.647 72.9908C294.149 73.5168 295.308 75.1218 295.61 78.4758L295.697 79.4471L290.224 79.4146L284.751 79.3819L284.795 78.6309C284.979 75.4205 286.382 73.4077 288.761 72.9421C289.594 72.7789 290.73 72.7982 291.647 72.9908ZM325.466 72.9908C327.968 73.5168 329.127 75.1218 329.429 78.4758L329.516 79.4471L324.043 79.4146L318.571 79.3819L318.614 78.6309C318.798 75.4205 320.202 73.4077 322.58 72.9421C323.413 72.7789 324.55 72.7982 325.466 72.9908ZM435.764 72.9499C437.984 73.4137 439.459 75.0978 440.156 77.9652C440.77 80.4943 440.767 84.5681 440.148 86.9905C439.272 90.4202 437.206 92.124 434.161 91.928C432.733 91.836 431.858 91.4739 430.886 90.5722C429.493 89.2792 428.809 87.4529 428.525 84.2703C428.259 81.2922 428.697 77.955 429.609 75.9959C430.739 73.5714 433.113 72.3961 435.764 72.9499ZM85.1809 80.0078V84.8271H64.4746H43.7685L44.8204 84.0557C47.5845 82.0289 49.834 79.2068 51.1152 76.1586L51.5229 75.1885H68.3519H85.1809V80.0078Z" fill="white"/>
</svg>
