<svg width="105" height="105" viewBox="0 0 105 105" fill="none" xmlns="http://www.w3.org/2000/svg">
<path fill-rule="evenodd" clip-rule="evenodd" d="M52.1694 2.17937L50.7132 4.31157L49.5708 4.3122L48.4285 4.31283L48.2673 4.60833C46.3556 8.11322 43.9418 12.5004 43.8974 12.551C43.8654 12.5875 43.2241 12.2581 42.4722 11.8188C41.7203 11.3796 41.0795 11.0122 41.0481 11.0023C40.9912 10.9844 33.8233 19.9435 33.8219 20.0341C33.8215 20.0604 34.0326 20.2482 34.2909 20.4517L34.7605 20.8218L38.04 16.7114L41.3196 12.6012L41.5668 12.7509C41.8185 12.9035 43.0371 13.6144 44.7162 14.5885C45.2297 14.8864 45.6904 15.1297 45.7399 15.1292C45.8266 15.1283 46.3418 14.2672 46.3418 14.1233C46.3418 14.0845 46.0406 13.8833 45.6724 13.6761C45.3043 13.4689 45.0031 13.27 45.0031 13.2342C45.0031 13.1984 45.4884 12.2866 46.0815 11.2081C46.6746 10.1295 47.6076 8.42972 48.1546 7.43078L49.1494 5.61453L49.5341 5.58981C49.9071 5.56581 49.9147 5.5696 49.7839 5.71442C49.7098 5.79663 49.6498 5.8966 49.6507 5.93664C49.6516 5.97659 49.8784 6.15822 50.1546 6.34016L50.6569 6.67096L50.9512 6.22171C51.6303 5.1855 53.7521 2.10466 53.8124 2.06731C53.8484 2.04496 55.6772 3.96703 57.8763 6.33858L61.8747 10.6504L61.3339 11.1419L60.7931 11.6336L61.1725 12.0789C61.3812 12.3238 61.5798 12.5242 61.6138 12.5242C61.6478 12.5242 62.2505 12.0178 62.9531 11.3989C63.6557 10.7799 64.2579 10.2634 64.2913 10.251C64.3247 10.2386 66.4566 12.6082 69.0289 15.5167C71.6012 18.4253 73.7413 20.8059 73.7846 20.807C73.8279 20.808 74.0559 20.636 74.2912 20.4246L74.7189 20.0403L74.4544 19.7371C74.309 19.5703 71.994 16.9539 69.31 13.923C64.4517 8.43667 64.4293 8.4129 64.2644 8.55733C64.1734 8.63709 63.813 8.95612 63.4636 9.2663L62.8282 9.83013L61.0955 7.95923C55.1144 1.50088 53.7896 0.084676 53.7123 0.0669873C53.6646 0.0560898 52.9704 1.00662 52.1694 2.17937ZM49.4856 15.9279C48.0813 17.1485 46.8542 18.2234 46.7588 18.3167L46.5853 18.4862L46.9976 18.9503L47.4099 19.4143L49.8234 17.3117C51.1509 16.1553 52.2834 15.2091 52.34 15.2091C52.479 15.2091 55.9424 16.7358 55.9459 16.7986C55.9475 16.8259 55.8513 16.8897 55.7322 16.9404C55.2127 17.1613 55.2047 17.1926 55.5246 17.7468C55.6842 18.0232 55.8262 18.2631 55.8401 18.2799C55.8539 18.2966 56.579 17.9108 57.4514 17.4224C58.8985 16.6122 59.0552 16.5424 59.2377 16.6257C59.3477 16.676 60.5689 17.3406 61.9514 18.1025C63.3338 18.8645 64.4748 19.4758 64.4869 19.4608C64.499 19.446 64.6388 19.1981 64.7976 18.91L65.0864 18.3863L62.1121 16.7467C60.4764 15.845 59.1025 15.1075 59.0592 15.1079C59.0159 15.1084 58.6269 15.311 58.1946 15.5582C57.7625 15.8054 57.355 15.9916 57.2891 15.972C57.2232 15.9524 56.0426 15.4351 54.6656 14.8225C53.2885 14.2099 52.1342 13.7087 52.1004 13.7087C52.0666 13.7087 50.89 14.7073 49.4856 15.9279ZM46.8928 24.215C45.2782 24.3317 43.2662 24.7647 41.7745 25.3166C40.5419 25.7726 38.4672 26.8786 38.4672 27.0797C38.4672 27.1761 39.1234 28.0018 39.2001 28.0018C39.2362 28.0018 39.5347 27.838 39.8635 27.6379C41.5692 26.5995 44.11 25.7974 46.4823 25.5485C47.9393 25.3956 50.8426 25.4918 52.2981 25.7411C53.9465 26.0234 55.6412 26.4725 57.4055 27.0946C62.401 28.8558 65.2135 29.6261 67.9453 29.9813C68.3284 30.031 69.1611 30.0581 69.7958 30.0414C70.8494 30.0136 70.9897 29.9924 71.4095 29.7972C71.6623 29.6797 71.8572 29.5521 71.8426 29.5137C71.8279 29.4753 71.6172 29.2626 71.3744 29.041C70.9556 28.659 70.9189 28.6421 70.6661 28.7148C70.2737 28.8276 68.6256 28.8055 67.7212 28.6751C65.4484 28.3475 62.7316 27.6081 58.89 26.2715C56.2476 25.352 55.8172 25.218 54.4307 24.8828C51.8328 24.2548 49.3663 24.0363 46.8928 24.215ZM23.0331 24.9246C23.0331 25.2716 22.7432 26.081 22.4833 26.4599C21.8917 27.3222 20.9472 27.8798 19.8839 27.9945L19.4502 28.0413L19.4272 28.6533L19.4042 29.2653L19.7815 29.2641C20.6513 29.2614 21.8011 28.8167 22.6233 28.165L23.0331 27.8402V28.6737C23.0331 29.851 22.8047 30.5001 22.1347 31.2272C21.5869 31.8218 20.7487 32.2404 19.9226 32.3321L19.4502 32.3845L19.4272 32.9965L19.4042 33.6085H19.7847C20.6024 33.6085 21.7382 33.1766 22.5409 32.5604L23.0331 32.1826V33.0165C23.0331 33.6504 22.994 33.9665 22.8703 34.3349C22.4637 35.5453 21.411 36.4302 20.146 36.625C19.8499 36.6705 19.5634 36.7201 19.5092 36.735C19.4416 36.7538 19.4108 36.9483 19.4108 37.357V37.9517H19.7113C20.5927 37.9517 21.8339 37.4844 22.6197 36.8568L23.0331 36.5266V39.9636V43.4005H23.663H24.293V39.9636V36.5266L24.7064 36.8568C25.4921 37.4844 26.7334 37.9517 27.6148 37.9517H27.9153V37.357C27.9153 36.9483 27.8845 36.7538 27.8169 36.735C27.7628 36.7201 27.4761 36.6705 27.1801 36.625C26.0722 36.4544 25.1363 35.7611 24.6317 34.7372C24.3501 34.1659 24.3377 34.1056 24.3062 33.1555L24.2733 32.1676L24.7753 32.5529C25.5877 33.1765 26.7197 33.6085 27.5414 33.6085H27.9219L27.8989 32.9965L27.8759 32.3845L27.4035 32.3321C26.1623 32.1943 25.1137 31.4396 24.5825 30.3016C24.3596 29.8242 24.3355 29.693 24.3058 28.7981L24.2732 27.8177L24.7359 28.1782C25.5801 28.8359 26.6914 29.2653 27.5496 29.2653H27.9219L27.8989 28.6533L27.8759 28.0413L27.4035 27.9873C25.8312 27.8079 24.5099 26.5711 24.3276 25.1086L24.2749 24.6852H23.654H23.0331V24.9246ZM82.9225 24.9418C82.9055 24.9961 82.8692 25.2075 82.842 25.4114C82.6628 26.7553 81.3172 27.948 79.7752 28.1297L79.3362 28.1814V28.8024V29.4232L79.5921 29.4219C80.4361 29.4173 81.867 28.8609 82.5533 28.2704L82.8962 27.9753L82.8656 28.9954C82.8382 29.9101 82.8128 30.0613 82.6201 30.4596C82.0882 31.5587 81.0783 32.2691 79.848 32.4095L79.3755 32.4635L79.3525 33.0755L79.3296 33.6875L79.7069 33.6863C80.6025 33.6835 81.7959 33.2116 82.5139 32.5763L82.8962 32.238L82.8683 33.2607C82.8419 34.2262 82.8261 34.3126 82.5856 34.8022C82.1373 35.715 81.3122 36.3745 80.2708 36.6524C80.0383 36.7145 79.7328 36.7658 79.5921 36.7662L79.3362 36.7672V37.3989V38.0307L79.5921 38.0293C80.4215 38.0248 81.5962 37.5876 82.3867 36.9889L82.8781 36.6168L82.8985 39.9889L82.9191 43.361L83.5294 43.384L84.1396 43.4071V40.0082C84.1396 38.1388 84.1578 36.6092 84.1801 36.6092C84.2024 36.6092 84.4108 36.7646 84.6432 36.9544C84.8757 37.1443 85.2952 37.4083 85.5755 37.5411C86.0663 37.7737 87.0676 38.0307 87.483 38.0307C87.6804 38.0307 87.6832 38.0221 87.6832 37.4099V36.7892L87.3092 36.7426C86.2832 36.6149 85.3667 36.0971 84.8 35.3251C84.35 34.7121 84.2096 34.2347 84.1602 33.1499L84.1195 32.257L84.6324 32.6463C85.4889 33.2965 86.493 33.6875 87.306 33.6875H87.6832V33.0667V32.4459L87.2304 32.4034C85.9706 32.2848 84.8191 31.4109 84.3736 30.2352C84.248 29.9038 84.1892 29.535 84.1591 28.8902C84.1363 28.4016 84.1429 28.0018 84.1736 28.0018C84.2044 28.0018 84.3953 28.1394 84.598 28.3074C85.3249 28.9104 86.2055 29.2759 87.2039 29.3893L87.6832 29.4436V28.8107V28.1779L87.2304 28.1216C85.7474 27.9369 84.5459 26.8642 84.244 25.4552L84.1128 24.8431H83.5331C83.1385 24.8431 82.9437 24.8746 82.9225 24.9418ZM12.4024 32.9759C12.4024 34.0638 11.2731 35.3563 10.1125 35.5967L9.64633 35.6932V36.3179V36.9427L9.94163 36.8878C10.416 36.7996 11.3176 36.3937 11.8808 36.0149L12.4024 35.6642L12.4015 36.4723C12.401 36.9168 12.3532 37.4581 12.2954 37.6753C12.0753 38.5016 11.5724 39.2063 10.9362 39.5802C10.6236 39.7639 10.434 39.8309 9.86288 39.9592C9.64988 40.0071 9.64633 40.0176 9.64633 40.6094V41.2108L10.0204 41.1597C10.4598 41.0996 11.4064 40.666 11.9445 40.2782C12.1533 40.1279 12.341 40.0049 12.3616 40.0049C12.3823 40.0049 12.4089 40.76 12.4205 41.6829L12.4418 43.361L13.0521 43.384L13.6624 43.4071V41.4691C13.6624 40.4032 13.6714 39.531 13.6826 39.531C13.6937 39.531 13.9322 39.7466 14.2126 40.0101C14.8953 40.6514 15.8144 41.1117 16.5274 41.1691L17.0484 41.211V40.6094C17.0484 40.0169 17.0452 40.0071 16.8319 39.9623C15.8171 39.7489 15.4084 39.5693 14.8621 39.0966C14.0477 38.392 13.7476 37.6481 13.6836 36.1749L13.639 35.1484L14.1835 35.6616C14.9702 36.4034 16.0626 36.9251 16.8287 36.9251H17.0484V36.3115V35.6978L16.5633 35.6053C15.8697 35.4731 15.1398 35.0849 14.6127 34.5677C14.1055 34.07 13.8607 33.6493 13.7343 33.0583L13.6493 32.6609H13.0259H12.4024V32.9759ZM93.3672 33.1699C93.0698 34.655 91.8834 35.5125 89.8631 35.7023L89.2581 35.7592V36.3887V37.0183L89.9471 36.9647C91.4627 36.8468 92.2949 36.5043 93.0048 35.7063L93.4309 35.2273L93.4307 36.017C93.4302 37.4764 93.2204 38.2237 92.6312 38.8648C92.0565 39.4901 91.1381 39.8608 89.8945 39.9696L89.2581 40.0252V40.6561V41.287L89.9471 41.2323C91.4624 41.1121 92.1366 40.8451 92.9001 40.0631L93.4316 39.5187V41.4596V43.4005H94.0616H94.6916V41.7044V40.0083L95.1678 40.317C95.8737 40.7745 96.8253 41.1119 97.7429 41.23L98.1564 41.2832V40.6585V40.0338L97.637 39.9303C96.496 39.7029 95.4614 38.9098 94.9883 37.9001C94.7654 37.4243 94.7313 37.2614 94.7041 36.5417L94.673 35.7239L95.0958 36.01C95.6259 36.3689 96.591 36.7464 97.3509 36.8922C98.212 37.0575 98.1564 37.0927 98.1564 36.3826V35.7611L97.6883 35.6688C96.9774 35.5286 96.1631 35.0818 95.5885 34.5168C95.0691 34.006 94.6938 33.3528 94.6923 32.957L94.6916 32.7398H94.0724H93.4534L93.3672 33.1699ZM36.6881 34.9486C35.7669 35.1454 35.0075 35.7756 34.5646 36.711C33.8471 38.2261 33.9108 40.0195 34.712 40.8607C35.2396 41.4146 36.1499 41.6735 36.9881 41.5082C37.4927 41.4087 38.052 41.1626 38.3807 40.8956L38.5685 40.7432L38.2838 40.2969L37.9992 39.8507L37.6229 40.0848C36.8309 40.5777 36.0659 40.4517 35.7695 39.7797C35.6363 39.4777 35.6187 39.3061 35.6511 38.629C35.7066 37.4735 36.0552 36.6156 36.6202 36.2443C37.0763 35.9447 37.7287 35.9669 38.1744 36.2973L38.4073 36.47L38.8069 36.0693C39.2006 35.6745 39.2043 35.6661 39.0606 35.5069C38.652 35.054 37.4827 34.7789 36.6881 34.9486ZM50.3761 34.9508C49.8748 35.0572 49.1227 35.4898 48.8066 35.8535C47.8838 36.9152 47.4929 39.0527 48.0036 40.2433C48.4414 41.2639 49.5822 41.7525 50.8851 41.4773C52.4801 41.1403 53.4425 39.6905 53.4612 37.5963C53.4728 36.2917 53.0581 35.5 52.1602 35.1127C51.7083 34.9177 50.8841 34.8429 50.3761 34.9508ZM57.8386 34.9769C56.498 35.2908 55.646 36.3382 55.3529 38.0326C55.1401 39.2635 55.3108 40.1782 55.8729 40.8186C56.7963 41.8706 58.8867 41.7791 59.9112 40.642C60.6191 39.8561 60.947 38.8803 60.9482 37.5554C60.9491 36.6878 60.9373 36.6219 60.6926 36.1233C60.4131 35.5537 60.0909 35.2538 59.5526 35.0621C59.0804 34.8941 58.3479 34.8577 57.8386 34.9769ZM64.9257 34.9216C63.7139 35.1555 62.9996 35.8862 63.0061 36.8856C63.0117 37.7417 63.4003 38.1698 64.5921 38.6329C65.3898 38.943 65.6344 39.1614 65.6344 39.5636C65.6344 40.0725 65.1779 40.4012 64.4755 40.398C64.0767 40.3961 63.4975 40.175 63.2288 39.9222C63.0685 39.7712 63.0649 39.7729 62.6434 40.2009C62.2351 40.6156 62.2244 40.6371 62.3564 40.7833C62.4318 40.8669 62.6952 41.0427 62.9418 41.1742C64.0605 41.7705 65.633 41.667 66.4531 40.9432C66.8789 40.5673 67.1134 40.1528 67.1813 39.6559C67.3311 38.5603 66.8024 37.8975 65.4154 37.4422C64.9063 37.275 64.532 36.9738 64.532 36.7313C64.532 36.4578 64.8202 36.1488 65.1612 36.0566C65.5732 35.9454 66.0364 36.0312 66.4526 36.296L66.7971 36.515L67.1751 36.1302C67.5476 35.7509 67.5509 35.7431 67.4066 35.5831C67.1097 35.2541 66.3439 34.9529 65.7132 34.9171C65.3884 34.8987 65.034 34.9007 64.9257 34.9216ZM41.2669 35.1286C41.2172 35.2912 40.4331 41.0562 40.4345 41.2486C40.4358 41.4195 40.4627 41.4263 41.1383 41.4263H41.8408L41.8872 41.2091C41.9323 40.9983 42.2433 38.8406 42.2457 38.7216C42.2464 38.689 42.6545 38.6624 43.1526 38.6624C44.2215 38.6624 44.1331 38.4806 43.9007 40.2023C43.814 40.8437 43.7432 41.3816 43.7432 41.3974C43.7432 41.4133 44.0757 41.4263 44.4822 41.4263H45.2212L45.3071 40.8143C45.646 38.3985 46.1055 35.0876 46.1055 35.0615C46.1055 35.0441 45.7689 35.0299 45.3575 35.0299C44.946 35.0299 44.6094 35.0587 44.6094 35.0939C44.6094 35.1292 44.5385 35.6689 44.4519 36.2934C44.3653 36.9179 44.2944 37.4398 44.2944 37.4533C44.2944 37.4668 43.87 37.4779 43.3514 37.4779H42.4084L42.4447 37.2607C42.5343 36.7248 42.7195 35.3262 42.7195 35.1855C42.7195 35.0421 42.6633 35.0299 42.0083 35.0299C41.508 35.0299 41.2882 35.0592 41.2669 35.1286ZM69.815 35.6419C69.6528 36.7324 69.0205 41.2784 69.0205 41.3534C69.0205 41.4493 72.7763 41.45 72.8355 41.354C72.86 41.3143 72.9026 41.0655 72.9301 40.8012L72.9802 40.3207H71.8271C71.0186 40.3207 70.6742 40.2939 70.6742 40.2309C70.6742 40.1816 70.7158 39.8273 70.7668 39.4436L70.8594 38.746L71.8053 38.7239L72.7511 38.7019L72.8068 38.465C72.8374 38.3347 72.8817 38.0949 72.9052 37.932L72.9479 37.6358H71.9813H71.0147L71.1184 36.9449C71.1754 36.5649 71.2228 36.2273 71.2236 36.1947C71.2246 36.1621 71.7205 36.1354 72.3256 36.1354H73.4258L73.5569 35.6814C73.6289 35.4316 73.7045 35.1829 73.725 35.1286C73.7541 35.0513 73.3438 35.0299 71.834 35.0299H69.9059L69.815 35.6419ZM51.6571 36.298C51.8791 36.519 51.895 36.5761 51.9209 37.2436C51.9741 38.616 51.5955 39.8083 50.9759 40.2195C50.3739 40.619 49.6282 40.443 49.3991 39.8475C49.2836 39.547 49.315 38.3436 49.4544 37.7288C49.5229 37.4272 49.6921 36.9896 49.8305 36.7566C50.296 35.9729 51.122 35.7656 51.6571 36.298ZM59.0667 36.1872C59.3225 36.3552 59.4458 36.7887 59.4355 37.4837C59.4183 38.6402 59.0778 39.73 58.6102 40.1246C58.0762 40.5752 57.338 40.5241 56.995 40.0129C56.8399 39.7818 56.8149 39.6441 56.8149 39.0187C56.8149 37.7974 57.2133 36.5944 57.7302 36.2548C58.1778 35.9607 58.6832 35.9351 59.0667 36.1872ZM4.33101 49.9965C2.53325 50.3305 1.39577 51.4902 1.31608 53.0704C1.24245 54.53 1.97754 55.3751 3.95791 56.1073C4.86144 56.4414 5.17524 56.6156 5.46061 56.9415C5.67275 57.1837 5.70905 57.2866 5.70905 57.6452C5.70905 58.1686 5.49148 58.5214 4.99727 58.7991C4.68182 58.9764 4.55756 58.9965 3.77979 58.9965C2.99682 58.9965 2.87169 58.9759 2.47812 58.782C2.23858 58.6641 1.89895 58.4442 1.72335 58.2936L1.40411 58.0195L0.702094 58.7312L0 59.4428L0.386877 59.788C1.11512 60.4379 1.98187 60.7931 3.17093 60.9292C3.90444 61.013 5.07058 60.9169 5.66968 60.7233C7.39949 60.1642 8.3816 58.8073 8.29222 57.1C8.21891 55.7003 7.48736 54.9227 5.60676 54.2455C4.80852 53.9581 4.16682 53.6212 4.02169 53.4135C3.95232 53.3141 3.89791 53.0751 3.89791 52.8696C3.89791 52.1722 4.45535 51.7758 5.44061 51.7727C6.1431 51.7705 6.64376 51.9202 7.18538 52.2942L7.61021 52.5877L8.25419 51.9374L8.89825 51.2871L8.56917 50.9902C7.58391 50.1016 5.89592 49.7058 4.33101 49.9965ZM66.225 49.9923C63.913 50.421 62.3643 52.283 61.8922 55.2015C61.3245 58.7122 62.8352 60.9442 65.7837 60.9508C66.235 60.9518 66.7421 60.9002 67.0411 60.8228C67.6009 60.6778 68.6109 60.1728 68.9992 59.8438L69.2537 59.6283L68.8238 58.957C68.5873 58.5879 68.3817 58.2514 68.3668 58.2094C68.3519 58.1674 68.1648 58.2455 67.951 58.3831C66.7232 59.1732 65.5985 59.2369 64.9185 58.5549C64.4977 58.133 64.3406 57.5712 64.3462 56.509C64.3587 54.1542 65.3063 52.1937 66.6011 51.8441C67.3162 51.651 68.2509 51.8682 68.7673 52.3475L68.9473 52.5145L69.6335 51.8223L70.3198 51.1301L70.0048 50.8569C69.5341 50.4485 68.8082 50.1177 68.1085 49.9927C67.3544 49.8579 66.9498 49.8579 66.225 49.9923ZM14.5899 50.4878C14.5239 50.6507 13.8775 52.1343 13.1534 53.7847C12.4294 55.4351 11.4818 57.6027 11.0477 58.6017C10.6136 59.6006 10.2258 60.4802 10.1859 60.5561C10.1181 60.6851 10.1996 60.6943 11.4047 60.6943H12.6962L13.0928 59.6085L13.4894 58.5227L15.021 58.5013L16.5526 58.48L16.643 59.3746C16.6927 59.8667 16.7334 60.3649 16.7334 60.4818V60.6943H18.0417H19.3499L19.2957 60.3192C19.266 60.113 18.9272 57.9364 18.543 55.4825C18.1588 53.0286 17.8202 50.8343 17.7907 50.6062L17.7368 50.1917H16.2234H14.7099L14.5899 50.4878ZM24.0204 50.2904C24.0031 50.3447 23.8243 51.5795 23.6232 53.0345C22.9462 57.9305 22.6453 60.1004 22.6019 60.3982L22.5587 60.6943H23.6621C24.3936 60.6943 24.7655 60.6658 24.7655 60.6098C24.7655 60.5633 24.8874 59.666 25.0363 58.6159C25.4277 55.8563 25.4844 55.2732 25.4998 53.8523C25.5073 53.1512 25.5401 52.5936 25.5726 52.6133C25.6051 52.6329 25.6317 52.7039 25.6317 52.771C25.6317 52.8382 25.846 53.8222 26.1078 54.9577C26.3697 56.0933 26.7709 57.8396 26.9995 58.8386L27.4151 60.6548H28.9812H30.5474L30.7635 59.115C30.8824 58.268 31.1951 56.0116 31.4583 54.1005C31.7215 52.1895 31.9562 50.5283 31.9798 50.4088L32.0226 50.1917H30.9139C30.0799 50.1917 29.805 50.2161 29.8044 50.2904C29.8039 50.3447 29.6635 51.3541 29.4921 52.5336C29.12 55.0951 28.9852 56.5995 29.0368 57.6146C29.0796 58.4547 29.0285 58.3918 28.7808 57.2987C28.6873 56.8861 28.5442 56.2643 28.4629 55.9168C28.3816 55.5693 28.0638 54.2012 27.7568 52.8765C27.4498 51.5519 27.1802 50.4058 27.1579 50.3298C27.121 50.2044 26.9763 50.1917 25.5845 50.1917C24.4277 50.1917 24.0441 50.2158 24.0204 50.2904ZM35.4025 51.0011C35.3487 51.4463 35.2874 51.8727 35.2664 51.9487C35.2309 52.0764 35.3299 52.0869 36.572 52.0869C37.7275 52.0869 37.916 52.1039 37.916 52.208C37.916 52.2747 37.8457 52.7988 37.7598 53.3728C37.5753 54.6054 36.7348 60.5662 36.7348 60.642C36.7348 60.6708 37.2834 60.6943 37.9539 60.6943C39.1536 60.6943 39.1736 60.6915 39.2133 60.5166C39.2813 60.2175 40.3571 52.3866 40.3571 52.1906C40.3571 52.1091 40.6354 52.0869 41.6533 52.0869H42.9496L43.0369 51.7513C43.0849 51.5667 43.1925 51.1808 43.2761 50.8938C43.3598 50.6069 43.4282 50.3314 43.4282 50.2818C43.4282 50.2154 42.3834 50.1917 39.4643 50.1917H35.5003L35.4025 51.0011ZM47.3896 51.3169C46.9391 52.3598 43.9374 59.2127 43.481 60.2403L43.2794 60.6943H44.5659C45.7177 60.6943 45.8582 60.6799 45.9075 60.5561C45.9378 60.4802 46.0977 60.0448 46.263 59.5888C46.4283 59.1327 46.5882 58.6974 46.6186 58.6214C46.6683 58.4965 46.8195 58.4832 48.1944 58.4832H49.7153L49.7645 58.9768C49.7916 59.2483 49.8388 59.7368 49.8693 60.0626L49.9247 60.6548L51.2043 60.6766C52.345 60.6959 52.4839 60.6842 52.4839 60.5692C52.4839 60.4513 52.0654 57.7191 51.7047 55.4825C51.6242 54.983 51.4039 53.5883 51.2153 52.383L50.8723 50.1917H49.3741H47.8758L47.3896 51.3169ZM74.0602 50.2298C74.0602 50.2508 73.9727 50.8816 73.8658 51.6315C73.7588 52.3814 73.4921 54.292 73.2732 55.8773C73.0543 57.4626 72.8229 59.1015 72.7589 59.5192C72.6951 59.937 72.6428 60.3723 72.6428 60.4866V60.6943H73.8515H75.0601L75.3145 58.8188C75.4545 57.7874 75.5868 56.8796 75.6085 56.8015C75.6421 56.6814 75.7218 56.6633 76.1337 56.6831L76.6194 56.7065L77.4069 58.6993L78.1944 60.6921L79.5437 60.6932L80.893 60.6943L79.9177 58.5135C79.3813 57.314 78.9424 56.3211 78.9424 56.3071C78.9424 56.2929 79.1566 56.167 79.4184 56.027C80.3573 55.5252 80.9557 54.819 81.1827 53.945C81.3405 53.3378 81.3395 52.3751 81.1808 51.9079C81.0141 51.4172 80.5233 50.8765 80.021 50.6302C79.2661 50.2597 78.7086 50.1945 76.2848 50.193C75.0613 50.1923 74.0602 50.2088 74.0602 50.2298ZM85.5567 50.2114C85.5566 50.2223 85.3429 51.7414 85.0818 53.5873C84.5118 57.6185 84.4821 57.9313 84.6084 58.5753C84.9192 60.1598 86.1016 60.9519 88.1557 60.9519C89.5502 60.9519 90.6387 60.5552 91.4515 59.7507C92.2414 58.9689 92.5427 58.2167 92.7977 56.3906C92.8826 55.7825 93.0956 54.2545 93.2711 52.995C93.4466 51.7355 93.6116 50.5895 93.6378 50.4483L93.6854 50.1917L92.4364 50.192L91.1874 50.1923L90.8027 52.9756C90.142 57.7562 90.1269 57.8344 89.7535 58.4103C89.3588 59.0186 88.367 59.286 87.663 58.9737C87.2681 58.7985 87.0891 58.5418 87.01 58.0375C86.9676 57.7669 87.2317 55.6808 87.8431 51.4551C87.9279 50.8688 87.9976 50.3447 87.9978 50.2904C87.9981 50.2157 87.7018 50.1917 86.7776 50.1917C86.1063 50.1917 85.5569 50.2005 85.5567 50.2114ZM97.5373 50.8431C97.4869 51.2015 97.4238 51.6279 97.397 51.7907L97.3483 52.0869H99.3731C100.653 52.0869 101.388 52.1152 101.372 52.1638C101.357 52.2061 100.827 52.8724 100.193 53.6444C96.1286 58.5928 95.9566 58.8104 95.9138 59.0588C95.8396 59.4904 95.7185 60.4108 95.7168 60.5561C95.7153 60.6857 95.9389 60.6943 99.3224 60.6943H102.93L103.141 59.8849C103.258 59.4397 103.375 58.996 103.402 58.8991L103.45 58.7226L101.185 58.7017L98.9197 58.6807L101.563 55.4264C103.017 53.6366 104.228 52.1378 104.254 52.0957C104.297 52.0258 104.53 50.5204 104.533 50.2904C104.534 50.2129 103.792 50.1917 101.082 50.1917H97.629L97.5373 50.8431ZM77.9551 52.0153C78.6667 52.1951 78.9305 52.808 78.6751 53.6889C78.4055 54.619 77.9118 54.9253 76.6785 54.928C76.2345 54.9289 75.8718 54.9031 75.8724 54.8705C75.8729 54.8379 75.9608 54.2071 76.0677 53.4688C76.1745 52.7305 76.2626 52.082 76.2635 52.0276C76.2656 51.9007 77.4664 51.892 77.9551 52.0153ZM16.2088 54.6775C16.3048 55.7332 16.3677 56.6127 16.3484 56.6319C16.2873 56.6931 14.3033 56.6697 14.2648 56.6072C14.2315 56.5533 14.4254 55.9993 15.5566 52.916L15.9042 51.9684L15.9693 52.3633C16.005 52.5804 16.1128 53.6218 16.2088 54.6775ZM49.3365 54.3374C49.4313 55.3798 49.5138 56.3215 49.5199 56.4301L49.531 56.6275L48.5637 56.6497C48.0317 56.6619 47.5484 56.6442 47.4896 56.6102C47.4055 56.5616 47.5604 56.0622 48.2172 54.2646C48.9277 52.3197 49.06 52.0149 49.1078 52.2114C49.1387 52.3384 49.2416 53.2951 49.3365 54.3374ZM23.0148 69.9623C22.9103 70.892 22.1045 71.7772 20.8655 72.3233C20.4273 72.5165 19.2479 72.7763 18.8099 72.7763C18.6292 72.7763 18.6233 72.7962 18.6233 73.4081C18.6233 74.1346 18.5384 74.0854 19.5703 73.9564C21.0074 73.7768 22.3685 73.1293 23.2133 72.2236L23.6921 71.7103L24.3272 72.3511C24.8553 72.8838 25.0885 73.0528 25.7104 73.3532C26.873 73.9147 27.2684 73.9977 28.7815 73.9977C30.2929 73.9977 30.6918 73.9142 31.8431 73.3571C32.4546 73.0613 32.6916 72.889 33.2211 72.3551L33.8606 71.7103L34.5015 72.3558C35.0315 72.8896 35.2698 73.0628 35.8796 73.3579C37.0293 73.9142 37.4286 73.9977 38.9397 73.9977C40.4528 73.9977 40.8482 73.9147 42.0108 73.3532C42.6295 73.0543 42.8697 72.8809 43.4001 72.3499L44.0414 71.7079L44.4509 72.1653C45.5354 73.3764 47.1623 74.0345 49.0815 74.0381C50.5201 74.0408 51.7133 73.7107 52.7924 73.0113C53.2417 72.7201 54.1376 71.8657 54.1376 71.7284C54.1376 71.6926 54.4122 71.9404 54.7479 72.279C56.0306 73.5734 57.5618 74.114 59.6686 74.0165C60.1997 73.992 60.8467 73.9132 61.1066 73.8413C62.23 73.5309 63.5202 72.7444 64.0724 72.0337L64.3473 71.6798L64.753 72.1419C65.5338 73.0315 66.9156 73.751 68.2519 73.9641C69.0981 74.099 70.6271 74.0224 71.3688 73.808C72.4837 73.4857 73.7418 72.7024 74.2432 72.0181C74.3808 71.8305 74.511 71.677 74.5327 71.677C74.5543 71.677 74.6862 71.8326 74.8257 72.0228C75.41 72.8197 76.8224 73.6234 78.1049 73.8888C80.0771 74.297 82.1707 73.8646 83.6442 72.7447C84.025 72.4552 84.4841 71.9758 84.6553 71.6887C84.6624 71.6769 84.9479 71.9469 85.2898 72.2887C85.7919 72.7906 86.0553 72.9809 86.6595 73.2783C87.4955 73.6898 88.29 73.916 89.1991 74.0012L89.8093 74.0584V73.4276V72.7967L89.2595 72.7424C87.6033 72.5788 86.2215 71.8133 85.6536 70.7447C85.5175 70.4887 85.3825 70.1304 85.3534 69.9484L85.3007 69.6176H84.6909H84.0811L84.0292 69.9533C83.8436 71.1547 82.6654 72.2037 81.0363 72.6179C80.2658 72.8139 79.0864 72.8277 78.2886 72.6502C76.6688 72.2897 75.382 71.1683 75.1944 69.9533L75.1425 69.6176H74.5327H73.9229L73.871 69.9533C73.6833 71.1683 72.3966 72.2897 70.7768 72.6502C69.9596 72.8321 68.7268 72.8155 67.9525 72.6123C66.3658 72.1957 65.1902 71.1333 65.0316 69.9725L64.9831 69.6176H64.374H63.765L63.6747 70.0781C63.4684 71.1296 62.5283 72.0289 61.1249 72.5174C60.3431 72.7895 58.8429 72.8582 57.9637 72.662C57.1653 72.4838 56.2039 71.9929 55.7112 71.5117C55.2709 71.0815 54.8464 70.2781 54.8464 69.8743L54.8463 69.6176H54.2229H53.5994L53.5146 70.0142C53.3121 70.9613 52.6224 71.7651 51.5915 72.2556C49.4273 73.2853 46.3822 72.7523 45.2029 71.1373C44.9022 70.7256 44.6881 70.1861 44.6881 69.8405V69.6176H44.0647H43.4413L43.3542 70.0249C43.0029 71.6672 41.2235 72.7763 38.9397 72.7763C36.7632 72.7763 34.8572 71.6392 34.5719 70.1704C34.4573 69.5806 34.4961 69.609 33.8406 69.6341L33.2426 69.6571L33.1559 70.0937C32.8451 71.659 31.0232 72.7763 28.7815 72.7763C27.3494 72.7763 26.1317 72.3612 25.2834 71.5837C24.8414 71.1785 24.3718 70.3863 24.3718 70.0458C24.3718 69.6525 24.3142 69.6176 23.6649 69.6176H23.0536L23.0148 69.9623ZM33.2343 79.9032C33.2174 79.9575 33.1801 80.144 33.1514 80.3177C32.9376 81.6134 31.2716 82.7985 29.4508 82.9502L28.8209 83.0026L28.7979 83.6146L28.7749 84.2266H29.28C29.9877 84.2266 31.178 83.904 31.949 83.503C32.4306 83.2526 32.7651 82.9988 33.2306 82.5306L33.8606 81.8971L34.4906 82.5304C35.6431 83.689 37.0533 84.2266 38.9397 84.2266C39.7436 84.2266 40.0935 84.1884 40.6993 84.0343C41.9324 83.7206 43.0574 83.0486 43.7189 82.2306L43.9911 81.8939L44.6359 82.5272C45.4304 83.3077 46.2062 83.7373 47.3581 84.035C48.1146 84.2303 48.2569 84.2424 49.3636 84.2052C50.644 84.1621 51.2354 84.0271 52.1736 83.5635C52.7789 83.2643 53.5937 82.6376 53.9036 82.2327L54.1628 81.8942L54.7998 82.531C55.3228 83.0539 55.5709 83.2331 56.185 83.5316C57.3315 84.0891 57.8044 84.1873 59.3348 84.1863C60.4744 84.1855 60.7067 84.1627 61.2247 84.0007C62.4236 83.6258 63.4699 82.9763 64.0479 82.2484L64.3469 81.8717L64.6881 82.2687C65.3448 83.0333 66.3537 83.6522 67.5243 84.0087C68.2378 84.2259 70.0977 84.2884 70.8824 84.1214C72.1481 83.8521 73.4118 83.1662 74.1291 82.3591L74.5175 81.9221L75.0567 82.4691C76.044 83.4709 77.4886 84.1204 78.9197 84.2061L79.6582 84.2502L79.635 83.6265L79.6118 83.0026L79.0197 82.9543C77.056 82.7941 75.4132 81.5995 75.2005 80.1771L75.1448 79.8044H74.5237C73.9163 79.8044 73.9027 79.8087 73.9027 79.9989C73.9027 80.7477 73.0539 81.8583 72.0957 82.3632C70.9495 82.9672 69.2866 83.1461 67.966 82.8074C66.3779 82.4001 65.1915 81.3295 65.0316 80.1593L64.9831 79.8044H64.3739H63.7647L63.7128 80.1401C63.5273 81.3411 62.2577 82.4653 60.6602 82.843C59.9292 83.0157 58.555 82.9991 57.8113 82.8083C56.1884 82.392 54.9958 81.3172 54.865 80.1526L54.8258 79.8044H54.2153C53.565 79.8044 53.5122 79.8417 53.5087 80.303C53.5081 80.3817 53.4119 80.6421 53.295 80.8816C52.87 81.7519 51.7158 82.5572 50.4737 82.8497C49.6427 83.0454 47.9916 82.971 47.2473 82.7043C45.7876 82.1811 44.8262 81.2155 44.7068 80.1526L44.6676 79.8044H44.0544H43.4413L43.3542 80.2117C43.1141 81.334 42.2631 82.1724 40.8212 82.7068C40.2726 82.9102 40.1639 82.9226 38.9397 82.9202C37.7812 82.9179 37.5849 82.8977 37.1285 82.7334C36.1045 82.3648 35.2557 81.7502 34.8777 81.1033C34.6917 80.7849 34.6249 80.5952 34.4967 80.0216C34.4491 79.8083 34.4377 79.8044 33.8567 79.8044C33.4523 79.8044 33.2554 79.8357 33.2343 79.9032ZM43.3542 90.3985C43.0344 91.8936 41.5515 92.9377 39.3925 93.1878L38.9397 93.2403V93.8222C38.9397 94.1422 38.9662 94.4189 38.9987 94.4369C39.1006 94.4935 40.2331 94.3551 40.7592 94.2218C41.852 93.9449 43.2028 93.1256 43.7275 92.4216L43.9874 92.0727L44.6331 92.7191C45.6189 93.706 46.778 94.2252 48.4018 94.4073C50.4772 94.6399 52.9322 93.7439 53.9328 92.3887L54.1612 92.0794L54.8044 92.7244C55.787 93.7097 56.9379 94.2254 58.56 94.4073C60.6439 94.6408 62.9769 93.8019 64.0594 92.4297L64.3473 92.0648L64.7234 92.4926C65.6946 93.5972 67.1483 94.2605 69.0008 94.444L69.4142 94.485V93.8618V93.2386L69.0402 93.189C67.7659 93.02 66.9804 92.7431 66.2529 92.2064C65.9651 91.9941 65.624 91.6665 65.4949 91.4784C65.237 91.1024 65.0045 90.4896 65.0045 90.1859C65.0045 89.9955 64.9909 89.9912 64.3846 89.9912H63.7647L63.7128 90.3269C63.5408 91.4403 62.4225 92.5184 61.0001 92.9418C59.0983 93.508 56.9083 93.0711 55.7092 91.8865C55.2183 91.4016 54.9236 90.8615 54.865 90.3394L54.8258 89.9912H54.2061C53.8652 89.9912 53.5864 90.0042 53.5864 90.02C53.5864 90.0357 53.5516 90.2327 53.509 90.4576C53.2973 91.5773 52.1415 92.595 50.6188 93.0027C49.8315 93.2134 48.5137 93.2301 47.722 93.0394C46.1088 92.6509 44.8492 91.5413 44.7132 90.3889L44.6661 89.9912H44.0537H43.4413L43.3542 90.3985ZM53.5864 100.207C53.5864 100.462 53.3851 101.133 53.2273 101.403C52.9545 101.87 52.2515 102.503 51.6913 102.787C51.172 103.049 50.2041 103.337 49.8377 103.337C49.7015 103.337 49.4793 103.359 49.3439 103.386L49.0979 103.435V104.018V104.6H49.6341C49.929 104.6 50.4636 104.526 50.822 104.435C52.0385 104.126 52.9042 103.64 53.7146 102.809L54.1973 102.315L54.8171 102.926C55.2584 103.361 55.6245 103.635 56.0886 103.876C56.8582 104.277 58.049 104.6 58.7543 104.6H59.256V104.018V103.435L59.01 103.386C58.8746 103.359 58.6732 103.337 58.5622 103.337C58.1932 103.337 57.3339 103.087 56.7539 102.811C55.7445 102.332 54.9614 101.384 54.865 100.526L54.8258 100.178H54.2061C53.8652 100.178 53.5864 100.191 53.5864 100.207Z" fill="white"/>
</svg>
