<svg width="211" height="79" viewBox="0 0 211 79" fill="none" xmlns="http://www.w3.org/2000/svg">
<path fill-rule="evenodd" clip-rule="evenodd" d="M33.7732 0.923628C31.99 1.06975 31.2871 1.15918 28.7629 1.56149C27.5229 1.75909 25.3016 2.38651 24.3419 2.81017C24.1474 2.89604 23.6169 3.1106 23.163 3.28708C21.9341 3.76483 20.465 4.44799 19.921 4.79456C19.7589 4.89787 19.308 5.15382 18.919 5.36339C18.5299 5.57297 17.9994 5.90127 17.74 6.09294C17.4807 6.2846 16.7439 6.79117 16.1025 7.21851C12.9214 9.3387 9.73996 12.4487 7.44061 15.6859C6.29235 17.3026 4.77108 19.8481 4.03851 21.379C2.91795 23.7205 2.44238 24.9582 1.48652 28.0209C1.31864 28.5586 1.00729 29.959 0.643718 31.8116C0.278374 33.6737 0.00262668 36.7782 3.30739e-05 39.0615C-0.00373944 42.3276 0.314684 44.9321 1.22893 49.1118C1.42451 50.0061 2.89791 54.5549 3.06048 54.7665C3.11059 54.8317 3.19146 55.0185 3.24015 55.1816C3.36688 55.6063 5.21247 59.311 5.54975 59.8178C5.70561 60.0519 6.01872 60.5514 6.24567 60.9279C6.65852 61.6129 7.37648 62.6875 8.36193 64.096C10.1245 66.6149 14.0976 70.5926 16.6201 72.3636C19.6155 74.4666 22.3564 75.9847 24.4361 76.6923C25.0975 76.9174 25.7714 77.1556 25.9335 77.2218C28.0589 78.0891 32.0415 78.6701 35.8363 78.6665C37.7541 78.6646 41.1783 78.3882 41.8016 78.185C42.0026 78.1194 42.4801 78.0157 42.8626 77.9543C43.6078 77.8348 45.1815 77.429 45.8571 77.1821C46.084 77.0992 46.7206 76.889 47.2718 76.7151C49.0835 76.1436 52.3381 74.6344 53.9326 73.6267C59.5011 70.107 63.1415 66.428 65.4001 62.0373C65.8766 61.1109 65.8454 61.08 62.9256 59.5803C61.5174 58.857 60.2666 58.2653 60.1462 58.2653C59.8454 58.2653 59.5152 58.6632 59.0863 59.5427C58.0199 61.7294 55.6789 64.345 52.5179 66.8819C49.9026 68.9808 45.2346 71.1674 42.5536 71.5493C42.0687 71.6184 41.4697 71.7297 41.2225 71.7964C40.5746 71.9717 38.7566 72.1423 36.7205 72.2187C34.9411 72.2856 31.9196 72.0573 31.0028 71.7867C30.7758 71.7198 30.2453 71.6096 29.8239 71.542C28.9686 71.4048 27.2635 70.869 27.1633 70.7059C27.1276 70.6478 27.0122 70.6003 26.9067 70.6003C26.5694 70.6003 23.4357 69.0589 22.3617 68.3648C18.4044 65.8069 15.1323 62.5033 12.4397 58.3474C11.551 56.9758 9.8938 53.6074 9.4233 52.2164C9.21369 51.5967 8.97626 50.9562 8.89562 50.7932C8.8151 50.6301 8.60466 49.9629 8.42806 49.3106C8.25135 48.6583 8.03384 47.8844 7.94471 47.5908C7.68759 46.7437 7.32873 43.9266 7.17642 41.5581C6.93415 37.7896 7.43165 32.9651 8.44386 29.2662C8.65937 28.4792 9.68643 25.5887 9.98234 24.9371C11.1505 22.364 12.8271 19.5898 14.3903 17.6429C17.8681 13.3113 22.7755 9.87741 27.3482 8.57571C27.8345 8.4373 28.4976 8.24729 28.8218 8.15359C29.146 8.05989 30.0744 7.86337 30.8849 7.71701C32.1808 7.48288 32.764 7.45026 35.7184 7.44682C39.8425 7.44184 40.873 7.58772 44.6192 8.70617C46.4372 9.24903 48.7915 10.3677 50.3369 11.4233C53.72 13.7339 56.0252 16.2539 57.9247 19.7185C58.3321 20.4614 58.4672 20.6143 58.7443 20.6463C58.9268 20.6673 59.2186 20.5895 59.3927 20.4735C59.5668 20.3574 60.507 19.7781 61.4822 19.1862C64.0016 17.6568 64.0123 17.6481 64.0123 17.1463C64.0123 16.7013 63.7038 16.1253 62.4513 14.2326C60.7882 11.7194 57.8818 8.67225 55.2659 6.69937C54.3808 6.03197 53.6199 5.4858 53.5749 5.4858C53.5299 5.4858 53.1146 5.24953 52.6518 4.96061C51.8838 4.4812 49.8702 3.4695 49.684 3.4695C49.6412 3.4695 49.4391 3.39383 49.2348 3.30132C48.2396 2.85073 47.7179 2.65563 46.7412 2.36884C44.5667 1.73015 44.011 1.5947 43.2635 1.52104C42.842 1.47953 42.0993 1.37077 41.613 1.27945C40.8499 1.13605 39.2744 0.990757 36.4847 0.806325C36.0957 0.780588 34.8755 0.833369 33.7732 0.923628ZM89.7715 1.30969C89.1614 1.36911 88.7712 1.58474 88.6795 1.91304C88.6317 2.08407 88.5965 19.1313 88.6013 39.7956C88.61 77.1791 88.6113 77.3687 88.8459 77.6849C88.9757 77.8597 89.2477 78.0459 89.4505 78.0988C89.6531 78.1517 100.896 78.1806 114.435 78.1633C137.634 78.1336 139.072 78.1198 139.428 77.924C139.934 77.6454 139.988 77.3247 139.991 74.5622C139.992 72.8257 139.956 72.2521 139.833 72.1032C139.418 71.5996 139.819 71.6085 117.51 71.6085C97.3569 71.6085 96.1938 71.5972 95.9982 71.4004C95.8029 71.204 95.7929 70.3862 95.8199 56.8164C95.8449 44.2742 95.871 42.4058 96.0252 42.1691L96.202 41.8977H114.641H133.079L133.324 41.5852C133.553 41.2925 133.568 41.1212 133.568 38.8705C133.568 36.6818 133.548 36.4433 133.343 36.1882L133.117 35.9082L114.708 35.8863C100.74 35.8698 96.258 35.8307 96.1304 35.7243C96.0381 35.6471 95.913 35.3901 95.8525 35.1531C95.7865 34.8943 95.7582 29.3942 95.7819 21.394C95.8156 10.0127 95.8461 8.04104 95.9905 7.89574C96.1359 7.74938 99.1205 7.72246 117.336 7.70277L138.513 7.68L138.781 7.40887C139.044 7.14378 139.05 7.08424 139.042 4.68094C139.038 3.32966 138.998 2.07932 138.953 1.90224C138.891 1.65815 138.764 1.55141 138.43 1.46103C138.039 1.35523 90.8122 1.2084 89.7715 1.30969ZM148.176 1.43814L147.928 1.63977L147.923 39.3521C147.92 60.0938 147.955 77.2326 148 77.4383C148.058 77.7003 148.187 77.8557 148.431 77.9574C148.698 78.0688 151.93 78.106 162.306 78.1172C176.146 78.1321 178.322 78.0764 180.253 77.6576C181.458 77.3962 182.837 77.1109 183.672 76.9503C184.406 76.8091 184.934 76.6645 186.619 76.1437C188.126 75.6777 189.9 74.8783 192.455 73.5139C194.167 72.599 194.535 72.3718 195.343 71.7274C195.764 71.3914 196.198 71.067 196.307 71.0065C196.594 70.8474 198.435 69.2549 199.451 68.2875C201.233 66.5904 203.312 63.9018 205.008 61.1033C205.442 60.3859 206.592 57.988 206.965 57.02C207.192 56.4329 207.425 55.8458 207.484 55.7153C207.976 54.6263 208.548 52.811 208.887 51.2676C209.023 50.6479 209.236 49.6872 209.361 49.1327C209.486 48.5782 209.711 47.2706 209.863 46.2268C210.117 44.4737 210.138 43.9585 210.133 39.4663C210.128 34.9971 210.106 34.4787 209.865 33.0616C209.358 30.0798 208.774 27.288 208.475 26.4154C208.385 26.1521 208.237 25.6718 208.146 25.348C208.056 25.0242 207.841 24.3856 207.668 23.929C207.496 23.4723 207.299 22.9119 207.231 22.6836C207.163 22.4553 207.067 22.2151 207.017 22.1499C206.968 22.0847 206.859 21.8178 206.776 21.5569C206.599 20.9998 205.523 18.8758 204.733 17.5243C203.452 15.3305 201.635 13.0256 199.569 10.9719C198.83 10.2384 198.095 9.5478 197.934 9.43738C197.773 9.32684 197.27 8.93675 196.817 8.57038C195.768 7.72424 192.329 5.4858 192.077 5.4858C192.029 5.4858 190.012 4.53766 189.558 4.30187C188.401 3.7009 182.946 2.04623 182.121 2.04623C181.987 2.04623 181.445 1.94364 180.917 1.81827C179.427 1.46411 174.893 1.34385 160.89 1.28704C149.287 1.24007 148.406 1.2505 148.176 1.43814ZM72.9667 1.55224L72.6773 1.78791L72.6028 22.2876C72.5243 43.8769 72.5736 75.163 72.6885 76.6188C72.8029 78.0705 72.6642 78.0132 76.0677 78.0132C79.2326 78.0132 79.2262 78.0145 79.5332 77.2757C79.6649 76.9588 79.6918 70.5838 79.6918 39.6657C79.6918 12.7907 79.6556 2.3329 79.5615 2.06141C79.3428 1.43031 79.1807 1.39734 76.0908 1.35523C73.4066 1.31859 73.2407 1.32902 72.9667 1.55224ZM176.834 7.86301C177.969 7.93382 179.189 8.06392 179.546 8.15205C179.902 8.24029 180.486 8.34894 180.842 8.39341C181.532 8.47952 183.226 8.89998 184.202 9.22745C189.183 10.8977 193.551 14.0254 196.56 18.076C197.723 19.6424 198.984 21.6069 199.4 22.5017C200.839 25.5919 201.699 27.9312 201.93 29.3848C201.992 29.7762 202.095 30.2333 202.16 30.4007C202.224 30.5681 202.313 31.0217 202.357 31.4088C202.402 31.796 202.515 32.4204 202.608 32.7964C203.256 35.4097 203.313 42.9529 202.706 45.6556C202.616 46.0589 202.486 46.7527 202.418 47.1975C202.089 49.3623 201.183 52.7615 200.589 54.0548C200.44 54.381 200.219 54.888 200.1 55.1816C199.782 55.9614 198.948 57.5768 198.232 58.799C196.576 61.6284 194.159 64.2674 191.217 66.4585C189.635 67.6365 187.16 69.032 185.783 69.5225C185.432 69.6473 184.774 69.8926 184.32 70.0675C182.635 70.7171 180.679 71.178 178.484 71.4425C177.912 71.5116 172.794 71.5905 166.544 71.6266C154.764 71.6948 155.376 71.7241 155.112 71.0796C154.965 70.7211 154.865 12.0576 155.007 9.63285C155.075 8.48605 155.145 8.05171 155.288 7.89231C155.469 7.69115 155.985 7.68142 165.125 7.70716C170.43 7.72211 175.699 7.7922 176.834 7.86301Z" fill="white"/>
</svg>
