<svg width="237" height="89" viewBox="0 0 237 89" fill="none" xmlns="http://www.w3.org/2000/svg">
<path fill-rule="evenodd" clip-rule="evenodd" d="M41.3506 3.85511C36.802 7.50518 31.386 11.8569 30.8527 12.2901C30.6594 12.4471 28.9729 13.8077 27.1049 15.3139C25.2369 16.8199 20.3355 20.7719 16.2129 24.0956C12.0904 27.4197 7.2218 31.3386 5.39383 32.8045C1.5786 35.8641 1.17595 36.4608 0.483546 40.0814C-0.0657367 42.9544 -0.0739341 49.3224 0.469024 51.7783C1.12769 54.7587 1.78379 55.9034 3.57874 57.2016C5.51914 58.6049 13.6783 64.594 15.276 65.7877C15.9201 66.2688 17.2377 67.2545 18.2039 67.978C19.1702 68.7015 21.5945 70.4993 23.5914 71.9731C25.5882 73.447 27.749 75.0462 28.3932 75.5271C29.0373 76.008 31.9887 78.1957 34.9518 80.3886C41.4165 85.1734 42.2883 85.8193 44.0184 87.1054C45.9766 88.5612 46.9048 88.3923 47.8865 86.4024C49.9534 82.2126 49.9825 73.9109 47.9453 69.5238C47.5797 68.7366 46.9566 68.0982 45.4221 66.9387C43.1571 65.2276 33.1868 57.8523 31.5854 56.7034C31.022 56.2993 28.9139 54.736 26.9006 53.2293C24.8874 51.7228 22.0278 49.6034 20.5463 48.52C19.0648 47.4366 17.7669 46.4698 17.6622 46.3714C17.5572 46.2732 18.1897 45.619 19.0676 44.9176C21.6739 42.8344 36.4289 30.9448 41.9112 26.5096C44.7082 24.2469 47.2117 22.1185 47.4747 21.7801C48.0184 21.0806 48.7293 18.9021 49.1373 16.6867C49.4924 14.7588 49.503 9.01069 49.1549 6.9643C48.5072 3.15417 47.222 0.600098 45.9524 0.600098C45.6051 0.600098 43.9357 1.78098 41.3506 3.85511ZM112.601 5.20815C108.4 6.39354 105.077 10.2421 103.683 15.539C102.692 19.3 102.869 25.5551 104.069 29.2159C105.267 32.8719 107.741 36.1817 110.23 37.4583C113.568 39.1706 118.286 39.1664 121.891 37.4474C123.82 36.5281 125.891 34.3612 126.968 32.1377C127.792 30.4345 128.511 27.7725 128.226 27.4834C128.151 27.4078 127.214 27.2525 126.143 27.1382C125.072 27.0239 123.912 26.879 123.566 26.8159C122.97 26.7076 122.923 26.7692 122.672 27.9942C122.376 29.439 120.981 31.7424 119.94 32.5065C116.839 34.7838 112.933 33.7125 111.008 30.0565C109.803 27.7687 109.464 25.907 109.464 21.5857C109.464 17.3957 109.781 15.548 110.894 13.2472C112.738 9.43348 117.131 8.4008 120.024 11.1002C121.229 12.2247 121.889 13.3996 122.451 15.4204L122.847 16.8432L124.078 16.8083C124.755 16.7891 125.988 16.6997 126.819 16.6098L128.329 16.446L128.166 15.4591C127.914 13.9256 126.904 11.2736 126.075 9.96654C124.621 7.67449 122.239 5.89131 119.754 5.23637C118.079 4.79484 114.121 4.77919 112.601 5.20815ZM219.929 5.23755C216.789 6.0931 214.272 8.04132 213.136 10.4953C212.568 11.7224 212.502 12.1327 212.502 14.4719C212.502 16.8344 212.565 17.2169 213.165 18.5308C213.977 20.3114 215.365 21.7249 217.076 22.5152C217.788 22.8441 220.567 23.7044 223.251 24.4269C229.131 26.0099 229.875 26.4427 230.449 28.6171C230.7 29.5652 230.683 29.8632 230.325 30.8115C229.533 32.9098 227.575 33.8476 223.98 33.8498C220.1 33.8521 217.695 32.6127 216.666 30.0811C216.266 29.0975 216.218 29.0629 215.43 29.1948C214.979 29.2704 214.294 29.4229 213.908 29.5339C213.521 29.6446 212.606 29.8552 211.874 30.0017L210.542 30.268L210.885 31.2544C212.09 34.7093 214.81 36.9886 219.192 38.2143C221.294 38.8021 226.43 38.8028 228.529 38.2155C231.93 37.2639 234.675 35.2132 235.945 32.6751C236.588 31.3891 236.629 31.1378 236.629 28.45C236.629 25.6616 236.609 25.5528 235.821 23.9813C234.365 21.0766 232.747 20.1549 226.021 18.3975C223.568 17.7566 221.209 17.0525 220.78 16.8327C218.157 15.4925 217.595 13.0501 219.461 11.1017C220.753 9.75241 223.767 9.22125 226.369 9.88473C227.447 10.1593 228.96 11.4113 229.75 12.6819L230.112 13.263L232.851 12.5974C235.972 11.8391 235.904 11.9525 234.578 9.68958C233.417 7.71005 230.694 5.91858 227.791 5.22593C225.925 4.78061 221.582 4.78701 219.929 5.23755ZM132.979 21.8228V38.303H135.907H138.835V21.8228V5.3426H135.907H132.979V21.8228ZM142.349 7.83241V10.3222H146.682H151.016V24.3126V38.303H154.178H157.34V24.3126V10.3222H161.673H166.007V7.83241V5.3426H154.178H142.349V7.83241ZM169.52 21.8228V38.303H172.448H175.376V31.5449V24.7869H179.549H183.722L185.557 29.7072C186.566 32.4133 187.702 35.4546 188.08 36.4653L188.769 38.303H191.793C193.733 38.303 194.818 38.2145 194.818 38.0561C194.818 37.9203 193.586 34.6456 192.081 30.779C190.526 26.783 189.451 23.7127 189.592 23.6653C189.728 23.6195 190.511 23.1282 191.333 22.5735C194.09 20.7123 195.169 18.3046 195.013 14.3614C194.933 12.3525 194.826 11.8661 194.16 10.4967C192.858 7.82126 190.596 6.2081 187.239 5.56384C186.606 5.44219 182.359 5.3426 177.804 5.3426H169.52V21.8228ZM200.965 21.7635L201.025 38.1844L203.894 38.251L206.764 38.3177V21.8301V5.3426H203.834H200.904L200.965 21.7635ZM63.8977 7.4587C63.0631 8.30358 62.6492 10.3464 62.7474 13.1374C62.89 17.1934 62.5501 16.7974 71.6137 23.4665C77.4239 27.7417 79.2666 29.214 79.0846 29.4359C78.4189 30.2478 76.2904 31.6891 76.0121 31.5162C75.8454 31.4128 74.3385 30.3147 72.6637 29.0764C65.1043 23.4867 64.5615 23.1218 64.1451 23.3473C63.2231 23.8469 62.7085 25.8229 62.7202 28.818C62.7261 30.2986 62.8661 31.4771 63.1289 32.2563C63.4922 33.3343 63.7623 33.6202 66.1051 35.4067C67.5223 36.4873 68.7134 37.4636 68.752 37.576C68.7904 37.6886 67.6837 38.7049 66.2925 39.8343C63.1076 42.4197 62.8842 42.8458 62.7514 46.5905C62.6209 50.2764 63.1795 52.682 64.2645 53.1034C64.4723 53.1842 65.0279 52.9134 65.5973 52.4537C66.1342 52.0202 68.6817 49.975 71.2583 47.9087C73.8349 45.8424 76.1286 43.9921 76.3553 43.7969C76.8273 43.3905 77.2681 43.5615 78.5939 44.665L79.3711 45.3119L76.6029 47.5542C75.0806 48.7875 73.7155 49.9048 73.5693 50.0371C73.4234 50.1694 71.1361 52.0207 68.4866 54.1508C62.6462 58.8468 62.8258 58.548 62.8258 63.5568C62.8258 66.5403 62.8804 66.9885 63.3636 67.9818C63.6595 68.5895 64.0481 69.1439 64.2275 69.2136C64.4186 69.2876 66.4143 67.8469 69.0427 65.7372C71.5118 63.7555 74.7067 61.2019 76.1428 60.0628C77.5789 58.9236 79.5971 57.2988 80.6278 56.4521C81.6584 55.6053 82.8068 54.6701 83.1797 54.3737C86.4063 51.8089 87.5827 50.7589 87.8792 50.1787C88.4672 49.0277 88.8206 45.4663 88.5435 43.4839C88.1676 40.7926 87.8242 40.1872 85.9234 38.8659C85.0089 38.2302 84.2603 37.6488 84.2596 37.5736C84.2589 37.4987 84.9937 36.8584 85.8924 36.1508C86.7912 35.4435 87.6825 34.5381 87.8731 34.1393C88.4896 32.8496 88.8283 29.2858 88.5231 27.299C88.1132 24.6301 87.8125 24.1943 84.9075 22.0599C83.4873 21.0166 80.4151 18.7489 78.0802 17.021C71.3815 12.0632 64.96 7.34773 64.6496 7.1585C64.4892 7.06057 64.1619 7.19122 63.8977 7.4587ZM186.737 10.915C190.262 13.1265 189.493 18.408 185.476 19.5739C184.447 19.8727 176.874 20.1786 176 19.9569L175.376 19.7982V14.9251V10.0519L180.49 10.1278L185.604 10.2037L186.737 10.915ZM225.8 44.2067C222.017 45.6275 220.136 48.9482 220.405 53.7291C220.598 57.1502 222.168 59.9281 224.662 61.26C225.755 61.8443 226.077 61.8969 228.548 61.8969C230.917 61.8969 231.364 61.8305 232.26 61.3465C235.688 59.4948 237.361 55.7381 236.739 51.2924C236.29 48.0917 234.76 45.7392 232.352 44.5465C230.59 43.6736 227.627 43.5202 225.8 44.2067ZM115.88 52.8665V61.7784H120.976C123.779 61.7784 126.43 61.6745 126.867 61.5476C128.803 60.9856 130.034 59.5152 130.317 57.4288C130.576 55.5142 129.222 53.4899 127.241 52.8319L126.538 52.5983L127.358 52.2379C127.809 52.0396 128.487 51.5443 128.865 51.1371C130.149 49.7556 129.893 46.7318 128.378 45.3861C127.052 44.2076 126.571 44.1185 121.092 44.0345L115.88 43.9546V52.8665ZM137.14 48.2029C136.295 50.5178 134.894 54.386 134.026 56.7987C133.159 59.2115 132.4 61.319 132.338 61.482C132.256 61.7003 132.628 61.7784 133.751 61.7784H135.274L135.923 59.9406C136.28 58.93 136.673 57.9697 136.795 57.8065C136.956 57.5931 137.985 57.5101 140.475 57.5101C142.957 57.5101 143.998 57.5936 144.169 57.8065C144.3 57.9697 144.695 58.93 145.048 59.9406L145.689 61.7784H147.663C148.749 61.7784 149.587 61.6961 149.526 61.5953C149.464 61.4945 148.044 57.6799 146.369 53.1181C144.694 48.5563 143.251 44.6371 143.162 44.4089C143.025 44.0554 142.681 43.994 140.839 43.994H138.677L137.14 48.2029ZM152.655 52.8862V61.7784H154.061H155.466V55.376C155.466 51.8547 155.552 48.9736 155.657 48.9736C155.762 48.9736 156.016 49.3203 156.222 49.7443C156.428 50.1682 158.277 53.0225 160.331 56.0874L164.066 61.6598L165.739 61.7295L167.412 61.7992V52.8966V43.994H166.007H164.601V50.2031V56.4122L163.118 54.0564C162.303 52.7607 160.515 49.9667 159.145 47.8473L156.654 43.994H154.655H152.655V52.8862ZM176.918 44.1989C176.85 44.3115 176.168 46.1521 175.404 48.2893C174.64 50.4262 173.267 54.2269 172.353 56.7352C171.439 59.2433 170.691 61.4092 170.691 61.5481C170.691 61.7077 171.229 61.7748 172.148 61.7305L173.604 61.6598L174.301 59.7628C174.685 58.7194 175.11 57.7859 175.246 57.6882C175.382 57.5905 177.071 57.5371 178.999 57.5696L182.506 57.6287L183.236 59.6442L183.966 61.6598L185.878 61.7286C186.93 61.7665 187.791 61.7594 187.791 61.7129C187.791 61.6662 186.912 59.2345 185.838 56.3086C184.765 53.3829 183.316 49.4163 182.618 47.4937L181.349 43.9985L179.196 43.9961C178.012 43.9949 176.987 44.0862 176.918 44.1989ZM187.322 45.4167V46.8395H189.899H192.475V54.3089V61.7784H194.349H196.223V54.3089V46.8395H198.8H201.376V45.4167V43.994H194.349H187.322V45.4167ZM206.904 45.0018C206.703 45.5559 206.051 47.3434 205.455 48.9736C203.799 53.511 200.908 61.597 200.908 61.693C200.908 61.7399 201.579 61.7784 202.4 61.7784H203.892L204.533 59.9406C204.886 58.93 205.281 57.9697 205.412 57.8065C205.583 57.5936 206.624 57.5101 209.106 57.5101C211.593 57.5101 212.626 57.5931 212.79 57.8065C212.915 57.9697 213.311 58.93 213.67 59.9406L214.322 61.7784H216.164C217.178 61.7784 218.007 61.6845 218.007 61.5694C218.007 61.4547 216.584 57.49 214.845 52.7588C213.106 48.028 211.683 44.1204 211.683 44.0756C211.683 44.0307 210.69 43.994 209.477 43.994H207.271L206.904 45.0018ZM103.466 46.4838V48.7365H106.745H110.024V46.4838C110.024 44.6394 109.961 44.2311 109.673 44.2311C109.392 44.2311 109.322 44.5868 109.322 46.0095V47.788H108.15H106.979V46.3652C106.979 45.2586 106.901 44.9425 106.628 44.9425C106.355 44.9425 106.277 45.2586 106.277 46.3652V47.788H105.222H104.168V46.0095C104.168 44.5868 104.098 44.2311 103.817 44.2311C103.529 44.2311 103.466 44.6394 103.466 46.4838ZM230.264 46.6887C231.315 47.133 232.215 48.289 232.641 49.7393C233.096 51.2901 233.102 54.6976 232.653 56.2287C232.28 57.5006 231.206 58.7384 230.113 59.1555C228.598 59.7339 226.586 59.3047 225.569 58.1859C223.926 56.379 223.671 50.9958 225.106 48.3746C226.026 46.6936 228.423 45.91 230.264 46.6887ZM125.02 46.9604C125.871 47.406 126.187 47.9834 126.187 49.0948C126.187 50.4673 125.24 51.2583 123.358 51.458C122.53 51.5457 121.273 51.5829 120.565 51.5405L119.277 51.4634L119.21 49.0329L119.143 46.6024H121.74C123.597 46.6024 124.531 46.7043 125.02 46.9604ZM180.172 51.0916C180.884 53.0889 181.466 54.8166 181.466 54.9309C181.466 55.0452 180.254 55.1389 178.773 55.1389C177.291 55.1389 176.079 55.045 176.079 54.9302C176.079 54.7592 177.001 52.0705 178.472 47.9537C178.603 47.5883 178.747 47.328 178.794 47.3749C178.84 47.4219 179.46 49.0943 180.172 51.0916ZM210.48 51.056C211.141 52.9187 211.683 54.5992 211.683 54.7908C211.683 55.0767 211.198 55.1389 208.964 55.1389C206.89 55.1389 206.27 55.0687 206.349 54.8424C208.331 49.1787 209.015 47.377 209.133 47.5084C209.212 47.5971 209.818 49.1934 210.48 51.056ZM141.83 50.9595C142.502 52.8345 143.052 54.5418 143.052 54.7535C143.052 55.0857 142.698 55.1389 140.489 55.1389C139.079 55.1389 137.883 55.0589 137.83 54.961C137.707 54.7348 140.255 47.5509 140.457 47.5509C140.54 47.5509 141.158 49.0848 141.83 50.9595ZM103.466 51.1077C103.466 51.5293 103.622 51.582 104.871 51.582H106.277V52.5008C106.277 53.0062 106.211 53.7531 106.13 54.1607C105.988 54.8804 105.947 54.9017 104.725 54.9017C103.762 54.9017 103.466 54.9854 103.466 55.2574C103.466 55.5567 103.986 55.6131 106.745 55.6131C109.504 55.6131 110.024 55.5567 110.024 55.2574C110.024 54.9778 109.699 54.9017 108.502 54.9017H106.979V53.2532V51.6045L108.441 51.5341C109.613 51.4774 109.918 51.3814 109.981 51.0485C110.052 50.669 109.775 50.6335 106.762 50.6335C103.622 50.6335 103.466 50.656 103.466 51.1077ZM125.003 54.2845C126.489 54.828 127.159 56.4694 126.446 57.8188C125.899 58.8537 125.301 59.0355 122.146 59.1292L119.16 59.2176V56.7435C119.16 55.3829 119.23 54.1982 119.316 54.1114C119.587 53.8368 124.159 53.976 125.003 54.2845ZM103.466 59.2885C103.466 61.2996 103.531 61.7784 103.804 61.7784C104.034 61.7784 104.164 61.4568 104.214 60.7706L104.286 59.7628L107.155 59.6962C109.831 59.634 110.024 59.5982 110.024 59.1626C110.024 58.723 109.853 58.6957 107.096 58.6957H104.168V57.7472C104.168 57.0622 104.071 56.7987 103.817 56.7987C103.527 56.7987 103.466 57.2334 103.466 59.2885ZM105.222 65.3243C104.965 65.4322 104.491 65.8071 104.169 66.1573C103.669 66.7025 103.573 67.0646 103.5 68.673L103.416 70.552H106.72H110.024V68.9872C110.024 67.1545 109.595 66.0751 108.638 65.5026C107.925 65.0765 106.048 64.9784 105.222 65.3243ZM108.687 66.7212C108.983 67.0214 109.194 67.6308 109.267 68.3982L109.381 69.6035H106.745H104.109L104.222 68.4155C104.286 67.739 104.517 67.0226 104.759 66.7521C105.639 65.7678 107.729 65.7514 108.687 66.7212ZM145.511 68.0228C143.889 68.5687 143.064 69.1155 142.344 70.1218C141.757 70.9418 141.646 71.3203 141.646 72.4964C141.646 73.995 141.975 74.8646 142.857 75.6981C143.627 76.426 144.721 76.8486 147.652 77.5495C150.377 78.2014 151.132 78.5675 151.518 79.4238C151.869 80.2051 151.209 81.4024 150.188 81.8342C148.141 82.7001 144.724 81.9226 144.025 80.4318C143.783 79.9161 143.592 79.7894 143.205 79.8871C142.927 79.9571 142.252 80.0863 141.705 80.1745C141.157 80.2627 140.711 80.4546 140.713 80.6009C140.715 80.7472 140.956 81.2937 141.247 81.8154C141.652 82.5403 142.153 82.9579 143.372 83.5863C144.807 84.3266 145.198 84.4181 147.29 84.5032C150.935 84.6514 153.1 83.8376 154.406 81.8289C154.955 80.9836 155.021 80.6768 154.95 79.2995C154.806 76.5221 153.567 75.5089 149.047 74.475C146.057 73.7911 145.073 73.2818 144.967 72.3627C144.842 71.2785 145.456 70.625 146.909 70.2957C148.527 69.9293 149.868 70.2734 150.812 71.2973L151.458 71.9966L152.782 71.6463C153.51 71.4538 154.157 71.2446 154.219 71.1815C154.407 70.9916 153.802 69.9981 153.113 69.3664C152.758 69.0403 151.956 68.5774 151.331 68.3377C149.86 67.7731 146.752 67.605 145.511 68.0228ZM116.114 76.1033V84.263L117.524 84.3434C118.299 84.3878 119.037 84.3882 119.164 84.3448C119.308 84.295 119.394 81.2349 119.394 76.1047V67.9436H117.754H116.114V76.1033ZM124.078 76.1244V84.3052H125.367H126.655L126.678 79.3849C126.69 76.6786 126.682 74.0645 126.66 73.5753C126.637 73.0864 126.706 72.6861 126.813 72.6863C126.919 72.6866 127.299 73.1933 127.657 73.8127C128.014 74.4321 129.711 77.0196 131.427 79.5627L134.548 84.1867L136.106 84.2569L137.664 84.3268V76.1353V67.9436H136.38H135.096L135.033 73.6939C134.992 77.4865 134.896 79.286 134.751 78.9796C134.549 78.5514 131.222 73.3207 128.754 69.5492L127.709 67.9536L125.894 67.9486L124.078 67.9436V76.1244ZM156.637 69.2478V70.552H158.98H161.322V77.4286V84.3052H163.079H164.835V77.4286V70.552H167.178H169.52V69.2478V67.9436H163.079H156.637V69.2478ZM172.331 76.1033V84.263L173.741 84.3434C174.516 84.3878 175.254 84.3882 175.38 84.3448C175.525 84.295 175.61 81.2349 175.61 76.1047V67.9436H173.971H172.331V76.1033ZM178.421 69.2478V70.552H180.764H183.106V77.4092V84.2663L184.766 84.3451C185.679 84.3885 186.47 84.3795 186.523 84.3249C186.576 84.2706 186.619 81.1496 186.619 77.389V70.552H188.962H191.304V69.2478V67.9436H184.863H178.421V69.2478ZM193.881 73.7415C193.881 77.0279 193.991 80.0609 194.136 80.7436C194.656 83.1988 196.329 84.3368 199.652 84.4949C202.778 84.6434 204.747 83.8289 205.786 81.9567C206.275 81.0765 206.295 80.7752 206.295 74.4916V67.9436H205.145H203.994L203.905 73.931C203.84 78.3247 203.732 80.0889 203.501 80.5591C203.023 81.5294 201.813 82.0058 200.139 81.8832C198.924 81.7943 198.641 81.6788 198.081 81.045C197.227 80.0778 197.113 79.0064 197.204 72.8637L197.277 67.9431L195.579 67.9434L193.881 67.9436V73.7415ZM208.872 69.2478V70.552H211.214H213.557V77.4286V84.3052H215.313H217.07V77.4286V70.552H219.53H221.989V69.2478V67.9436H215.43H208.872V69.2478ZM224.566 76.1244V84.3052H230.421H236.277V83.1251V81.9449L232.12 81.8802L227.962 81.8154V79.5627V77.3101L231.183 77.2441L234.403 77.1782V75.9992V74.8202H231.115H227.827L227.895 72.6268L227.962 70.4334L232.003 70.3685L236.043 70.3037V69.1235V67.9436H230.304H224.566V76.1244ZM103.466 72.7966C103.466 73.0762 103.956 73.1575 105.973 73.2116L108.481 73.2789L106.149 74.7979C103.679 76.4066 103.475 76.5939 103.469 77.2508C103.466 77.6264 103.777 77.6657 106.745 77.6657C109.504 77.6657 110.024 77.6093 110.024 77.3101C110.024 77.0141 109.562 76.9541 107.272 76.9532L104.52 76.9518L107.267 75.1155C111.02 72.6067 110.989 72.449 106.745 72.449C104.02 72.449 103.466 72.5078 103.466 72.7966ZM106.511 80.0017C103.899 80.985 103.583 81.1645 103.583 81.6629C103.583 82.1645 103.883 82.3288 106.503 83.2635C109.673 84.3946 110.024 84.4669 110.024 83.987C110.024 83.812 109.603 83.541 109.087 83.3847L108.15 83.1006V81.7867C108.15 80.4742 108.151 80.4728 109.087 80.1005C109.71 79.853 110.024 79.5808 110.024 79.2896C110.024 78.7024 109.889 78.7297 106.511 80.0017ZM107.448 81.6969C107.448 82.7777 107.377 82.7971 105.691 82.1799C104.935 81.9034 104.644 81.7007 104.871 81.6084C105.634 81.2978 107.106 80.7808 107.272 80.765C107.369 80.756 107.448 81.1752 107.448 81.6969Z" fill="white"/>
</svg>
