<svg width="156" height="26" viewBox="0 0 105 16" fill="none" xmlns="http://www.w3.org/2000/svg">
<path fill-rule="evenodd" clip-rule="evenodd" d="M53.2926 0.152186C53.163 0.281866 53.1476 1.08897 53.1488 7.66214C53.1497 12.1415 53.1845 15.0812 53.2379 15.1655C53.3014 15.2661 53.5392 15.313 54.1037 15.3363C55.3892 15.3894 55.2637 15.8522 55.2937 10.9506C55.3233 6.11541 55.2311 6.54078 56.2758 6.41711C57.1995 6.30767 59.1503 6.33216 59.582 6.45861C59.7913 6.51989 60.0645 6.67194 60.1891 6.79662C60.6387 7.24611 60.6637 7.47063 60.703 11.3931C60.7339 14.4706 60.7616 15.0795 60.8752 15.1738C61.0598 15.3269 62.2816 15.3922 62.6058 15.2662L62.8674 15.1644L62.8296 11.0287C62.7885 6.52201 62.7606 6.25794 62.2545 5.59438C61.8936 5.12123 61.2918 4.76621 60.6124 4.62581C59.8711 4.47256 57.5458 4.49243 56.3824 4.66195C55.7944 4.74763 55.4662 4.75955 55.3888 4.6979C55.3022 4.62895 55.2733 4.05745 55.2733 2.41737C55.2733 0.838388 55.2424 0.197939 55.1623 0.117895C54.9869 -0.057538 53.4747 -0.029809 53.2926 0.152186ZM15.9442 0.714716C14.4902 1.02491 13.1788 1.72248 12.0829 2.76879C11.6772 3.15617 11.1898 3.70188 10.9999 3.98148C10.6494 4.4977 10.038 5.64522 10.1135 5.64522C10.1363 5.64522 9.99799 6.03084 9.8062 6.50205C9.6145 6.97335 9.17712 8.21081 8.83439 9.25185C8.49156 10.293 8.04984 11.4901 7.85278 11.9122C7.01758 13.7003 5.12618 14.8306 3.25881 14.6574C2.89057 14.6232 2.57085 14.5655 2.5483 14.5291C2.52584 14.4926 2.83881 14.3931 3.24393 14.308C4.13145 14.1213 4.68085 13.8177 5.37204 13.1319C6.05917 12.4498 6.44969 11.6198 7.39396 8.83406C7.80749 7.61399 8.33397 6.22762 8.56384 5.75336C8.79372 5.27901 8.96776 4.87879 8.95066 4.86391C8.54665 4.51249 7.13127 4.16634 6.09855 4.16634C5.02506 4.16634 4.35975 4.32532 3.32749 4.82841C2.70479 5.13186 2.38756 5.36654 1.79804 5.95976C0.574176 7.1913 0 8.56722 0 10.2686C0 11.3421 0.15898 12.0074 0.662078 13.0396C1.3639 14.4796 2.98115 15.8175 4.35429 16.0941C4.62835 16.1494 4.91498 16.2173 4.99123 16.2452C5.36345 16.3815 7.06158 16.412 13.4024 16.3959C17.3764 16.3857 20.5545 16.3395 20.9177 16.2865C23.009 15.9813 24.5502 14.1722 25.3763 11.0524C25.706 9.80745 25.7936 7.836 25.559 6.93924C24.9456 4.5942 23.0323 2.32171 20.7682 1.24915C19.3573 0.580693 17.5241 0.377623 15.9442 0.714716ZM81.6905 1.53651C81.2486 1.60528 80.7226 1.74541 80.5219 1.84782C79.8006 2.21578 79.12 3.28141 79.4167 3.57811C79.5314 3.69273 79.7076 3.69014 80.7442 3.55852C82.2144 3.37181 85.1739 3.34528 85.7719 3.5135C86.0176 3.58255 86.3223 3.76741 86.5253 3.97029C86.8109 4.2559 86.8769 4.39797 86.933 4.84681C87.0182 5.52867 86.9358 6.1278 86.6856 6.64467C86.3753 7.28558 86.2604 7.30897 83.4183 7.30897C81.5478 7.30897 80.8907 7.3391 80.6597 7.43569C80.2441 7.60927 79.7444 8.39132 79.7841 8.80569L79.8135 9.11135L83.065 9.15757C86.7513 9.20998 86.6344 9.18548 87.0462 9.99129C87.4358 10.7539 87.2868 12.3742 86.7772 12.9168C86.1585 13.5752 83.7205 13.7401 80.3988 13.348C79.704 13.266 79.0697 13.2241 78.9892 13.255C78.7487 13.3473 78.8179 13.8137 79.1434 14.2935C79.8115 15.2785 80.289 15.3966 83.6031 15.3966C85.9183 15.3966 86.1507 15.3815 86.8176 15.1883C87.2129 15.0737 87.6912 14.8807 87.8805 14.7593C88.9951 14.0448 89.5502 12.7125 89.4441 11.0062C89.3824 10.0146 89.2031 9.43394 88.7343 8.70854C88.3746 8.15211 88.2687 7.74801 88.4529 7.63423C88.5021 7.60382 88.6545 7.23742 88.7916 6.82001C89.0033 6.17559 89.042 5.89386 89.0487 4.95199C89.0584 3.58292 88.8985 3.04128 88.2936 2.39464C87.8002 1.86714 87.2261 1.62691 86.1306 1.48956C85.0854 1.35849 82.6693 1.384 81.6905 1.53651ZM94.0057 1.55066C93.6266 1.57071 93.2627 1.63181 93.1969 1.68644C93.101 1.76602 93.0772 3.09544 93.0772 8.37663C93.0772 15.745 93.0233 15.197 93.7586 15.3072C93.9797 15.3404 95.5494 15.3485 97.2467 15.3253C100.499 15.2806 100.898 15.2365 102.089 14.7897C102.836 14.5096 103.744 13.6106 104.157 12.7435C104.874 11.2354 105.169 8.74644 104.904 6.43088C104.778 5.32837 104.591 4.62812 104.212 3.8347C103.648 2.6552 102.841 2.06706 101.3 1.71278C100.738 1.58365 100.063 1.55066 97.6525 1.53429C96.0257 1.5232 94.3846 1.5306 94.0057 1.55066ZM100.506 3.54927C101.222 3.72859 101.731 4.10339 102.064 4.69596C102.518 5.50325 102.612 6.00191 102.662 7.86355C102.701 9.32542 102.681 9.70087 102.526 10.4516C102.304 11.5193 102.033 12.1187 101.539 12.6319C101.077 13.1124 100.537 13.2886 99.1314 13.4186C98.0059 13.5228 95.5006 13.4414 95.3187 13.2949C95.2289 13.2226 95.2034 12.1376 95.2045 8.42996C95.2053 5.80531 95.2372 3.60889 95.2754 3.54881C95.3785 3.3866 95.9687 3.35175 98.0685 3.3841C99.3379 3.4037 100.142 3.45814 100.506 3.54927ZM33.2463 4.54003C31.1426 4.89349 30.1417 5.94802 29.6971 8.27948C29.5147 9.2354 29.5799 11.7063 29.8092 12.5313C30.0113 13.2581 30.4637 14.1002 30.8078 14.3898C31.2178 14.7347 31.902 15.0559 32.6039 15.2329C33.0866 15.3546 33.6385 15.3905 35.0311 15.3904C37.6009 15.3902 38.2403 15.1871 38.7422 14.2111C38.8422 14.0166 38.9112 13.7463 38.8955 13.6103C38.8697 13.3875 38.8304 13.3635 38.4972 13.3672C38.2938 13.3693 37.6995 13.4214 37.1764 13.4827C36.0128 13.6192 34.5382 13.6254 33.7478 13.4971C32.4298 13.2832 31.9186 12.726 31.7591 11.3297C31.73 11.0755 31.7457 10.8051 31.7939 10.7289C31.8689 10.6102 32.4095 10.5862 35.5402 10.5621L39.1987 10.5341L39.2965 10.2848C39.4205 9.96911 39.3244 8.16561 39.1361 7.27014C38.7868 5.60964 38.117 4.91456 36.5455 4.58163C35.862 4.43688 34.0003 4.4134 33.2463 4.54003ZM45.3075 4.57737C43.9574 4.83294 43.0149 5.52488 42.4477 6.67711C41.9459 7.69616 41.8298 8.35361 41.8298 10.1743C41.8298 11.5757 41.8576 11.8891 42.0381 12.5197C42.6826 14.7719 44.114 15.5355 47.4629 15.414C49.5079 15.3398 50.0518 15.1412 50.4759 14.3142C50.6626 13.9503 50.7092 13.4558 50.5653 13.3668C50.5178 13.3374 49.9667 13.3813 49.3406 13.4642C47.4715 13.7117 45.4859 13.5383 44.7627 13.0644C44.4395 12.8527 44.1169 12.2356 44.0039 11.6131C43.8624 10.8336 43.8836 9.13243 44.0441 8.37432C44.303 7.1522 44.8556 6.58792 45.9866 6.39104C46.7122 6.2646 48.3759 6.26441 49.5066 6.39049C50.5187 6.50334 50.6518 6.45241 50.6518 5.95283C50.6518 5.37625 50.2486 4.85152 49.635 4.62941C49.1481 4.45324 46.1541 4.41719 45.3075 4.57737ZM69.9235 4.50149C69.8218 4.52145 69.5098 4.5832 69.2302 4.63866C67.6192 4.9581 66.6593 5.93249 66.1587 7.75688C65.9948 8.35398 65.9645 8.72398 65.9645 10.1281C65.9645 11.9711 66.1213 12.8335 66.6103 13.6787C67.3214 14.9077 68.4371 15.4165 70.6167 15.5054C73.4164 15.6196 74.9824 14.9688 75.7393 13.3766C76.2309 12.3428 76.3898 11.4702 76.3898 9.80458C76.3898 6.42385 75.5406 5.03084 73.21 4.58874C72.513 4.45657 70.4323 4.4013 69.9235 4.50149ZM36.2499 6.36091C36.8455 6.62628 37.0821 7.09305 37.138 8.11311C37.1785 8.84941 37.1734 8.87261 36.9603 8.92474C36.8397 8.95432 35.6388 8.9667 34.2916 8.95247L31.8422 8.92649L31.85 8.3257C31.8559 7.86937 31.9164 7.6102 32.1017 7.24778C32.5455 6.37921 33.262 6.08944 34.8462 6.13806C35.5826 6.1607 35.9212 6.21441 36.2499 6.36091ZM72.5959 6.3402C73.2955 6.52248 73.6213 6.76298 73.8919 7.29704C74.2364 7.97696 74.3393 8.71381 74.2956 10.1896C74.2503 11.7191 74.0834 12.3816 73.6012 12.9448C73.1172 13.5104 72.6542 13.6404 71.125 13.6404C69.2263 13.6404 68.7115 13.3883 68.2824 12.2479C68.0967 11.7543 68.076 11.5327 68.0766 10.0357C68.0773 8.5125 68.0954 8.3269 68.2912 7.83896C68.6468 6.95329 69.1507 6.50935 70.0375 6.30037C70.6079 6.16597 72.0109 6.18788 72.5959 6.3402Z" fill="white"/>
<path fill-rule="evenodd" clip-rule="evenodd" d="M15.9442 0.714811C14.4902 1.02501 13.1788 1.72258 12.0829 2.76889C11.6772 3.15626 11.1898 3.70197 10.9999 3.98157C10.6494 4.49779 10.038 5.64532 10.1135 5.64532C10.1363 5.64532 9.99799 6.03093 9.8062 6.50214C9.6145 6.97344 9.17712 8.2109 8.83439 9.25194C8.49156 10.2931 8.04984 11.4902 7.85278 11.9123C7.01758 13.7004 5.12618 14.8307 3.25881 14.6574C2.89057 14.6233 2.57085 14.5656 2.5483 14.5292C2.52584 14.4927 2.83881 14.3932 3.24393 14.3081C4.13145 14.1214 4.68085 13.8178 5.37204 13.132C6.05917 12.4499 6.44969 11.6199 7.39396 8.83416C7.80749 7.61408 8.33397 6.22772 8.56384 5.75346C8.79372 5.27911 8.96776 4.87888 8.95066 4.864C8.54665 4.51258 7.13127 4.16643 6.09855 4.16643C5.02506 4.16643 4.35975 4.32541 3.32749 4.82851C2.70479 5.13196 2.38756 5.36664 1.79804 5.95986C0.574176 7.1914 0 8.56731 0 10.2687C0 11.3422 0.15898 12.0075 0.662078 13.0397C1.3639 14.4797 2.98115 15.8176 4.35429 16.0942C4.62835 16.1495 4.91498 16.2174 4.99123 16.2453C5.36345 16.3816 7.06158 16.412 13.4024 16.396C17.3764 16.3858 20.5545 16.3396 20.9177 16.2866C23.009 15.9814 24.5502 14.1723 25.3763 11.0525C25.706 9.80754 25.7936 7.8361 25.559 6.93934C24.9456 4.59429 23.0323 2.3218 20.7682 1.24924C19.3573 0.580787 17.5241 0.377718 15.9442 0.714811Z" fill="white"/>
</svg>
