<svg width="488" height="179" viewBox="0 0 488 179" fill="none" xmlns="http://www.w3.org/2000/svg">
<path fill-rule="evenodd" clip-rule="evenodd" d="M21.8056 0.48842C19.5295 1.22685 16.9567 3.72253 16.0826 6.04002C14.8056 9.42638 15.5706 13.159 17.9219 15.0148C19.3674 16.1555 20.5546 16.521 22.8343 16.5269C26.9533 16.5381 30.3182 14.17 31.8397 10.19C32.4543 8.58212 32.4818 5.42738 31.893 4.07579C31.3217 2.76415 29.9624 1.30414 28.7158 0.662717C27.1415 -0.147042 24.008 -0.22615 21.8056 0.48842ZM2.67065 1.0471C1.70337 6.6996 0.135062 15.477 0.0288595 15.8313C-0.0921803 16.2349 0.10643 16.2852 1.82077 16.2852H3.74908L4.07445 14.4048C4.63826 11.1471 4.37146 11.4513 6.81828 11.2791C9.23023 11.1094 10.3188 10.744 11.5878 9.67797C13.8363 7.7887 14.3405 4.04882 12.637 1.89136C11.5763 0.547556 10.3435 0.216078 6.38202 0.209853L2.81486 0.204146L2.67065 1.0471ZM35.0614 0.787733C35.0578 1.10884 35.3798 4.73096 35.7773 8.83734L36.5001 16.3034L38.6528 16.2294L40.8052 16.1555L42.8176 11.7542L44.8297 7.35321L45.0179 8.38241C45.1213 8.94862 45.3555 10.9292 45.5385 12.7837L45.8709 16.1555H48.0408H50.2107L51.5835 13.1727C54.8974 5.97336 57.194 0.789288 57.194 0.508129C57.194 0.303225 56.5703 0.204146 55.2829 0.204146H53.3718L51.2001 5.32674C48.9589 10.6133 48.6075 11.304 48.5994 10.4364C48.5968 10.1583 48.3646 7.82968 48.0835 5.2619C47.8024 2.69412 47.5702 0.505795 47.5676 0.398675C47.565 0.291554 46.8731 0.204146 46.03 0.204146H44.4973L42.3472 4.93768C41.165 7.54126 40.0545 10.0084 39.8799 10.4208C39.5737 11.1426 39.5558 11.1092 39.3949 9.51301C39.2229 7.80401 38.7145 1.10417 38.7132 0.528361C38.7129 0.299854 38.1744 0.204146 36.8906 0.204146C35.1765 0.204146 35.0679 0.238642 35.0614 0.787733ZM60.1872 0.528361C60.0321 0.968774 57.4543 15.5061 57.4543 15.94C57.4543 16.2154 58.4739 16.2852 62.5034 16.2852H67.5527L67.8395 14.6429C67.9975 13.7397 68.1266 12.9227 68.1266 12.8273C68.1266 12.7321 66.7077 12.654 64.9734 12.654H61.8203L62.0054 11.422C62.1072 10.7445 62.2444 10.1026 62.3105 9.99544C62.3766 9.88832 63.6974 9.80091 65.2454 9.80091H68.06L68.236 8.69858C68.3328 8.09243 68.4775 7.3335 68.5577 7.01266C68.7027 6.43348 68.6816 6.42907 65.7795 6.42907H62.8556L63.0182 5.61854C63.1078 5.17268 63.1809 4.58909 63.1809 4.32168C63.1809 3.87244 63.4261 3.83535 66.4066 3.83535C70.0482 3.83535 69.7106 4.0553 70.0898 1.43616L70.2681 0.204146H65.2847C61.5324 0.204146 60.2731 0.284292 60.1872 0.528361ZM73.593 0.385963C73.593 0.606948 71.0389 14.8805 70.8523 15.7016C70.7239 16.2663 70.7825 16.2852 72.6501 16.2852H74.5808L74.8775 14.5344C75.5166 10.7637 75.364 11.0978 76.4464 11.0978H77.4199L78.4343 13.6915L79.4487 16.2852H81.3541C83.5599 16.2852 83.5021 16.5674 82.0155 13.0508C80.998 10.6439 80.9683 10.4094 81.6529 10.1928C82.5973 9.89428 84.1989 7.78638 84.5316 6.40444C84.9048 4.8534 84.7429 3.86155 83.8756 2.38676C82.8066 0.569084 81.7047 0.204146 77.2851 0.204146C75.2545 0.204146 73.593 0.285845 73.593 0.385963ZM88.845 1.0471C88.3895 3.29379 86.3477 15.3502 86.3477 15.7921C86.3477 16.2767 86.5447 16.2935 91.3567 16.2261L96.3656 16.1555L96.6553 14.5404C96.8149 13.6521 96.8839 12.8644 96.8092 12.7897C96.7342 12.715 95.3455 12.654 93.7228 12.654H90.7728V11.8927C90.7728 11.4741 90.8871 10.8322 91.0266 10.4662C91.2767 9.81077 91.321 9.80091 93.9922 9.80091C97.0237 9.80091 96.8865 9.89014 97.1744 7.72905L97.3475 6.42907H94.5807C91.5256 6.42907 91.6076 6.4851 91.9767 4.64589L92.1394 3.83535H95.3252H98.511L98.6716 2.66844C98.7599 2.0265 98.9056 1.20947 98.9954 0.852837L99.1589 0.204146H94.0872H89.0158L88.845 1.0471ZM102.386 0.658047C102.272 1.03984 100.175 12.7352 99.7308 15.4682L99.5897 16.3371L104.097 16.239C108.455 16.1441 108.653 16.1161 110.107 15.3893C111.965 14.4611 113.756 12.5925 114.664 10.6356C115.223 9.43157 115.355 8.76187 115.362 7.0775C115.37 5.25152 115.278 4.83523 114.597 3.6097C113.049 0.825084 111.605 0.231122 106.343 0.21556C102.923 0.205444 102.507 0.25187 102.386 0.658047ZM126.593 2.47365C125.735 7.15506 124.353 15.394 124.353 15.8313C124.352 16.2432 124.708 16.2852 128.209 16.2852C130.886 16.2852 132.47 16.1656 133.386 15.8946C136.447 14.9889 138.097 11.0757 136.383 8.7878L135.882 8.11889L136.678 7.13198C137.742 5.81255 137.95 3.39675 137.115 2.06955C136.178 0.58075 134.919 0.216337 130.691 0.209853L127.009 0.204146L126.593 2.47365ZM139.97 0.371699C139.97 0.475707 140.742 2.51956 141.685 4.91331L143.401 9.26583L142.856 12.3217C142.093 16.611 141.989 16.2852 144.117 16.2852C146.212 16.2852 145.99 16.6182 146.624 12.5243C146.867 10.9551 147.247 9.37943 147.47 9.02279C147.693 8.66616 149.2 6.60726 150.82 4.44773C152.44 2.28794 153.766 0.449769 153.766 0.36262C153.766 0.275471 152.799 0.204666 151.618 0.205444L149.471 0.206742L147.663 2.7919C146.669 4.21377 145.822 5.34439 145.782 5.30418C145.742 5.26424 145.31 4.12948 144.821 2.78257L143.934 0.333832L141.952 0.258097C140.861 0.216338 139.97 0.267432 139.97 0.371699ZM26.7227 4.04985C28.3363 4.91227 28.9287 6.83162 28.2639 9.04303C27.1384 12.786 21.7538 14.3117 19.8203 11.4352C19.022 10.2476 19.1651 7.80556 20.1241 6.26022C21.5333 3.98864 24.6528 2.94389 26.7227 4.04985ZM9.31587 4.1038C10.1249 4.53514 9.98953 6.04002 9.05843 6.9678C8.39935 7.62453 8.10339 7.72593 6.84588 7.72593C5.21665 7.72593 5.26715 7.82449 5.69951 5.48625L6.00484 3.83535H7.40864C8.1807 3.83535 9.03891 3.95622 9.31587 4.1038ZM80.4724 4.24283C81.0857 4.85417 80.9701 6.02471 80.2075 6.92784C79.584 7.66627 79.4086 7.72593 77.8648 7.72593C75.9627 7.72593 75.9935 7.78014 76.4922 5.30521L76.7884 3.83535H78.426C79.5674 3.83535 80.1872 3.95882 80.4724 4.24283ZM110.035 4.28978C110.548 4.545 111.17 5.15997 111.459 5.69791C111.923 6.56162 111.942 6.79635 111.655 8.16195C111.301 9.8489 110.846 10.5712 109.409 11.7312C108.517 12.4504 108.222 12.5329 106.237 12.6159C105.033 12.6662 104.048 12.6104 104.048 12.4924C104.048 12.176 105.37 4.53955 105.491 4.15957C105.653 3.64679 108.932 3.74069 110.035 4.28978ZM133.677 4.70114C133.816 5.91007 133.114 6.42907 131.339 6.42907C129.673 6.42907 129.633 6.37642 129.983 4.63474L130.148 3.81331L131.87 3.88904C133.547 3.96296 133.594 3.98424 133.677 4.70114ZM133.105 10.4641C133.519 11.0926 133.514 11.1642 133.019 11.8258C132.545 12.4605 132.319 12.5311 130.549 12.5993L128.601 12.6742L128.863 11.2376L129.124 9.80091H130.897C132.511 9.80091 132.708 9.86031 133.105 10.4641ZM68.6472 43.7937C46.1211 46.528 26.5712 60.2132 16.4442 80.3363C11.5961 89.9702 9.27266 99.8481 9.27266 110.826C9.27266 122.207 11.6682 132.045 16.882 142.079C26.2162 160.043 43.2612 172.926 62.8493 176.822C68.0301 177.853 70.9072 178.133 76.3024 178.133C91.5724 178.133 105.909 173.072 117.974 163.421C120.892 161.087 126.072 155.891 128.408 152.955C136.358 142.961 141.351 130.761 142.709 118.011C143.607 109.581 142.852 100.479 140.586 92.4249C138.966 86.6658 135.673 79.0532 134.803 79.0532C134.437 79.0532 133.58 80.583 131.136 85.5985L127.947 92.1435L128.634 94.3523C130.814 101.357 131.585 109.719 130.726 117.036C128.893 132.644 121.155 146.038 108.506 155.494C104.258 158.67 99.5166 161.179 94.4326 162.942C89.0054 164.824 84.0911 165.799 78.5444 166.094C70.8778 166.502 67.1151 164.164 65.3589 157.902C64.6454 155.358 64.706 148.726 65.4823 144.415C66.8673 136.721 69.7975 127.224 73.4368 118.634C75.0358 114.859 74.9715 113.469 73.1546 112.543C72.2108 112.062 71.6181 112.194 68.1761 113.654C54.742 119.355 40.9312 122.778 33.3765 122.278C27.5158 121.89 24.0304 119.975 22.2148 116.143C21.4683 114.568 21.4092 114.224 21.3149 110.905C21.0182 100.447 24.4013 89.1389 30.5731 79.961C37.5207 69.6292 47.413 62.1357 59.3261 58.1805C69.0942 54.9373 80.751 54.6974 90.8811 57.5311L93.4622 58.2532L99.9916 55.0154C104.841 52.6108 106.543 51.6475 106.605 51.2711C106.674 50.8574 106.219 50.5444 104.132 49.5702C99.1277 47.2332 93.0054 45.3393 86.9984 44.2694C84.4626 43.8178 82.6259 43.6985 77.2372 43.6349C73.5864 43.5919 69.721 43.6632 68.6472 43.7937ZM127.181 51.5909C125.124 52.6066 118.169 56.0358 111.727 59.211C64.7927 82.3436 64.8554 82.3117 64.2255 83.3272C63.0612 85.2045 63.3676 87.5656 64.9616 89.002C65.4687 89.459 69.778 91.0629 81.5321 95.1701C84.3954 96.1707 87.0286 97.1758 87.3839 97.4038C88.8299 98.3321 88.5668 97.7252 92.8641 110.048C94.3069 114.185 95.7818 118.353 96.1423 119.31C97.1676 122.035 98.9335 123.22 101.307 122.776C103.092 122.442 103.667 121.625 107.238 114.337C119.38 89.5562 136.018 55.2141 136.152 54.6565C136.504 53.184 135.294 50.9433 133.704 50.1239C132.26 49.3795 131.157 49.6277 127.181 51.5909ZM171.108 60.5426C168.552 61.3265 166.237 63.41 165 66.0392L164.308 67.5112L164.223 80.0907C164.133 93.5817 164.199 94.4991 165.421 96.7616C166.303 98.3964 168.265 100.193 170.108 101.053L171.596 101.748H253.461H335.325L336.788 101.032C338.857 100.02 340.426 98.5463 341.461 96.6441L342.353 95.0046V81.1282V67.2518L341.661 65.7799C340.691 63.7189 339.092 62.0911 337.055 61.0917L335.336 60.2488L253.857 60.201C182.062 60.1593 172.226 60.1997 171.108 60.5426ZM209.668 80.9337L209.736 91.5031H207.521H205.305V80.8585V70.2136L207.453 70.2891L209.6 70.3643L209.668 80.9337ZM305 80.8688V91.5031H302.788H300.575V81.0418C300.575 75.2879 300.653 70.5025 300.749 70.4076C300.844 70.3124 301.84 70.2346 302.961 70.2346H305V80.8688ZM183.235 74.8405C185.484 77.2288 188.149 79.9968 189.157 80.9915L190.989 82.8001V76.647V70.494H193.201H195.414V80.9985V91.5031H194.41C193.502 91.5031 193.257 91.3376 191.822 89.7523C190.95 88.7895 188.361 86.0757 186.069 83.7219L181.902 79.4423L181.89 85.4727L181.878 91.5031H179.535H177.193V81.1715C177.193 75.4889 177.271 70.7619 177.366 70.667C177.462 70.5718 177.901 70.495 178.342 70.496C179.043 70.4981 179.664 71.0493 183.235 74.8405ZM232.162 73.9955C232.877 75.85 234.436 79.9351 235.626 83.0735C236.816 86.2119 238.035 89.3923 238.333 90.1414L238.876 91.5031H236.458H234.039L233.505 90.0117L232.971 88.5203L228.676 88.4492L224.381 88.3784L223.81 89.9406L223.238 91.5031H220.909C219.628 91.5031 218.58 91.4388 218.58 91.3604C218.58 91.2818 219.503 88.8017 220.63 85.8488C221.757 82.8958 223.537 78.2287 224.586 75.4775L226.494 70.4753L228.679 70.5495L230.863 70.6236L232.162 73.9955ZM255.076 76.5879L260.879 82.6818L261.009 76.6527L261.14 70.6236L263.287 70.5484L265.435 70.4729V80.9882V91.5031H264.564C263.767 91.5031 263.218 91.0015 257.992 85.4939L252.289 79.4848L252.22 85.4939L252.15 91.5031H249.812H247.474V80.9985V70.494H248.373C249.209 70.494 249.685 70.9271 255.076 76.5879ZM291.855 72.6986V74.7736L288.601 74.9033L285.348 75.033L285.279 83.268L285.21 91.5031H283.001H280.792V83.2032V74.9033H277.539H274.285V72.6952V70.487L283.07 70.5554L291.855 70.6236V72.6986ZM328.6 71.5011C329.482 71.9721 330.442 72.6104 330.734 72.9193L331.263 73.4809L329.745 75.1647C328.309 76.7573 328.2 76.8257 327.741 76.426C325.686 74.6359 321.981 74.7962 320.175 76.7531C318.219 78.8737 318.336 83.5767 320.392 85.4602C322.109 87.0326 324.855 87.2826 327.022 86.0641L328.392 85.2937L329.823 86.907L331.255 88.5203L330.729 89.0798C330.441 89.3874 329.482 90.0293 328.6 90.5063C327.07 91.3329 326.868 91.3734 324.263 91.3734C321.765 91.3734 321.395 91.3075 319.971 90.6108C316.962 89.1389 314.975 86.3797 314.351 82.8061C313.472 77.7808 316.171 72.8491 320.822 70.9818C321.794 70.5915 322.565 70.5051 324.523 70.5666C326.745 70.6364 327.159 70.7313 328.6 71.5011ZM227.348 80.4149L226.173 83.5922L227.453 83.6706C228.156 83.7139 229.308 83.7139 230.012 83.6706L231.292 83.5922L230.116 80.4149C229.469 78.6675 228.846 77.2376 228.732 77.2376C228.618 77.2376 227.995 78.6675 227.348 80.4149ZM234.546 119.622C228.88 120.7 224.333 123.508 220.869 128.067C219.305 130.125 218.315 132.151 217.383 135.208C216.746 137.293 216.671 137.942 216.673 141.303C216.675 144.346 216.783 145.459 217.24 147.138C218.48 151.692 221.384 156.142 224.799 158.719C226.837 160.258 230.581 162.141 232.767 162.728C235.205 163.383 241.416 163.515 244.117 162.971C250.134 161.758 255.137 158.112 257.608 153.138C259.133 150.068 259.731 147.502 259.789 143.767L259.838 140.654L249.231 140.586L238.624 140.519V143.764V147.009H245.68H252.736L252.559 147.714C251.839 150.572 249.222 153.675 246.433 154.977C243.917 156.151 242.245 156.478 238.884 156.454C236.336 156.436 235.581 156.327 233.811 155.722C229.703 154.318 226.965 152.001 225.199 148.435C220.905 139.763 225.378 129.251 234.438 126.725C236.574 126.129 240.503 126.087 242.595 126.637C245.628 127.435 248.225 129.086 250.144 131.438C250.871 132.328 251.354 132.709 251.626 132.607C252.615 132.234 257.096 129.474 257.1 129.235C257.107 128.84 254.53 125.716 253.331 124.666C250.867 122.508 247.754 120.854 244.539 119.995C242.055 119.332 237.053 119.145 234.546 119.622ZM362.051 119.667C355.76 121.04 351.838 126.016 352.177 132.199C352.351 135.376 353.088 137.13 355.085 139.122C357.068 141.099 358.923 142.006 365.65 144.286C368.442 145.232 371.212 146.288 371.805 146.632C374.06 147.941 375.054 149.982 374.502 152.171C373.889 154.602 372.043 155.941 368.627 156.431C363.621 157.15 358.948 154.93 357.081 150.947C356.735 150.208 356.345 149.602 356.215 149.602C355.912 149.602 350.597 152.693 350.426 152.968C350.356 153.082 350.727 154.029 351.252 155.074C353.173 158.901 357.379 162.023 361.876 162.96C364.203 163.445 369.169 163.449 371.452 162.967C378.296 161.522 382.587 155.672 381.572 149.167C380.72 143.706 377.647 141.265 367.267 137.8C360.88 135.668 359.143 134.305 359.143 131.426C359.143 129.717 360.061 128.126 361.593 127.181C362.663 126.52 363.146 126.402 365.147 126.306C369.049 126.12 371.613 127.361 373.574 130.384C374.139 131.254 374.655 131.965 374.722 131.965C374.826 131.965 380.201 128.902 380.448 128.702C380.764 128.445 378.756 125.558 377.109 123.901C373.216 119.986 367.701 118.435 362.051 119.667ZM164.178 141.303V162.571H176.282H188.386V159.199V155.827H179.796H171.206V137.931V120.034H167.692H164.178V141.303ZM198.451 120.207C198.355 120.302 198.277 129.873 198.277 141.476V162.571H201.791H205.305V141.303V120.034H201.965C200.127 120.034 198.546 120.112 198.451 120.207ZM270.901 141.303V162.571H274.412H277.922L277.991 153.428L278.059 144.285H287.04H296.02L296.088 153.428L296.157 162.571H299.669H303.181L303.115 141.367L303.048 120.164L299.603 120.091L296.157 120.019L296.089 128.651L296.02 137.282L286.974 137.35L277.929 137.419V128.726V120.034H274.415H270.901V141.303ZM313.07 123.406V126.778H318.925H324.779L324.846 144.609L324.913 162.441L328.492 162.513L332.072 162.586V144.682V126.778H337.928H343.785V123.406V120.034H328.427H313.07V123.406ZM392.201 141.303V162.571H395.715H399.229V153.36V144.149L408.144 144.217L417.06 144.285L417.128 153.428L417.197 162.571H420.707H424.218V141.303V120.034H420.704H417.19V128.723V137.412H408.21H399.229V128.723V120.034H395.715H392.201V141.303ZM437.493 141.303V162.571H441.007H444.521V141.303V120.034H441.007H437.493V141.303ZM457.797 141.303V162.571H461.311H464.825V155.309V148.046H470.106C475.956 148.046 477.237 147.84 479.98 146.461C482.057 145.416 484.586 142.991 485.626 141.046C486.612 139.204 487.473 135.998 487.467 134.193C487.444 127.621 482.978 121.891 476.736 120.425C475.473 120.128 473.162 120.041 466.452 120.038L457.797 120.034V141.303ZM475.556 127.049C477.108 127.479 478.659 128.836 479.526 130.525C480.194 131.827 480.305 132.326 480.296 134.015C480.281 137.176 478.913 139.532 476.419 140.689C475.182 141.263 474.811 141.298 469.966 141.3L464.825 141.303V134.04V126.778L469.706 126.779C472.39 126.78 475.022 126.901 475.556 127.049Z" fill="white"/>
</svg>
