<svg width="143" height="61" viewBox="0 0 143 61" fill="none" xmlns="http://www.w3.org/2000/svg">
<path fill-rule="evenodd" clip-rule="evenodd" d="M7.79641 52.7245C7.96196 52.8069 8.08613 52.8892 8.2103 52.9716C8.33447 53.0952 8.41725 53.2187 8.45864 53.3834C8.50003 53.5482 8.54142 53.7129 8.54142 53.8776V59.8905C8.54142 59.9316 8.54142 60.014 8.50003 60.014C8.45864 60.0552 8.41725 60.0552 8.37586 60.0552H6.88583C6.84444 60.0552 6.80305 60.0552 6.76166 60.014C6.72027 59.9728 6.72027 59.9316 6.72027 59.8905V54.4542H5.51997V59.8905C5.51997 59.9316 5.51997 60.014 5.47858 60.014C5.43719 60.0552 5.3958 60.0552 5.35441 60.0552H3.98854C3.94715 60.0552 3.86437 60.0552 3.86437 60.014C3.82298 59.9728 3.82298 59.9316 3.82298 59.8905V54.4542H2.62268V59.8905C2.62268 60.014 2.5399 60.0964 2.41573 60.0964H0.925699C0.80153 60.0964 0.71875 60.014 0.71875 59.8905V52.8481C0.71875 52.7245 0.80153 52.6421 0.925699 52.6421H7.38251C7.50668 52.6009 7.67224 52.6421 7.79641 52.7245Z" fill="white"/>
<path fill-rule="evenodd" clip-rule="evenodd" d="M15.2879 52.6006C15.4535 52.6006 15.6191 52.6418 15.7846 52.683C15.9502 52.7653 16.0743 52.8477 16.1985 52.9301C16.3227 53.0536 16.4055 53.1772 16.4468 53.3419C16.4882 53.5066 16.5296 53.6714 16.5296 53.8361V59.8489C16.5296 59.8901 16.5296 59.9725 16.4882 59.9725C16.4468 60.0136 16.4055 60.0136 16.3641 60.0136H14.874C14.8326 60.0136 14.7499 60.0136 14.7499 59.9725C14.7085 59.9313 14.7085 59.8901 14.7085 59.8489V57.9545C14.7085 57.9133 14.7085 57.8309 14.6671 57.8309C14.6257 57.7897 14.5843 57.7897 14.5429 57.7897H12.432C12.3906 57.7897 12.3079 57.7897 12.3079 57.8309C12.2665 57.8721 12.2665 57.9133 12.2665 57.9545V59.8489C12.2665 59.9725 12.1837 60.0548 12.0595 60.0548H10.5695C10.4453 60.0548 10.3625 59.9725 10.3625 59.8489V53.8361C10.3625 53.6714 10.4039 53.5066 10.4453 53.3419C10.5281 53.1772 10.6109 53.0536 10.6937 52.9301C10.8178 52.8065 10.942 52.7241 11.1076 52.683C11.2731 52.6006 11.4387 52.6006 11.6042 52.6006H15.2879ZM14.6257 56.1424V54.2891H12.1009V56.1424H14.6257Z" fill="white"/>
<path fill-rule="evenodd" clip-rule="evenodd" d="M23.2761 52.6828C23.3175 52.724 23.3175 52.7652 23.3175 52.8064V58.8192C23.3175 58.9839 23.2761 59.1486 23.2347 59.3134C23.1519 59.4781 23.0692 59.6017 22.9864 59.7252C22.8622 59.8488 22.738 59.9311 22.5725 59.9723C22.4069 60.0547 22.2414 60.0547 22.0758 60.0547H18.8474C18.6818 60.0547 18.5163 60.0135 18.3507 59.9723C18.1852 59.8899 18.061 59.8076 17.9368 59.7252C17.8127 59.6017 17.7299 59.4781 17.6885 59.3134C17.6057 59.1486 17.6057 58.9839 17.6057 58.8192V56.5541C17.6057 56.4305 17.6885 56.3482 17.8127 56.3482H19.3027C19.4269 56.3482 19.5096 56.4305 19.5096 56.5541V58.0779C19.5096 58.119 19.5096 58.1602 19.551 58.2014C19.5924 58.2426 19.6338 58.2426 19.6752 58.2426H21.2066C21.248 58.2426 21.3308 58.2426 21.3308 58.2014C21.3722 58.1602 21.3722 58.119 21.3722 58.0779V52.8475C21.3722 52.8064 21.3722 52.724 21.4136 52.724C21.455 52.6828 21.4964 52.6828 21.5377 52.6828H23.0278C23.1519 52.6004 23.2347 52.6416 23.2761 52.6828Z" fill="white"/>
<path fill-rule="evenodd" clip-rule="evenodd" d="M30.0228 52.6006C30.1884 52.6006 30.3539 52.6418 30.5195 52.683C30.6851 52.7653 30.8092 52.8477 30.9334 52.9301C31.0576 53.0536 31.1403 53.1772 31.1817 53.3419C31.2231 53.5066 31.2645 53.6714 31.2645 53.8361V58.7781C31.2645 58.9429 31.2231 59.1076 31.1817 59.2723C31.0989 59.4371 31.0162 59.5606 30.9334 59.6842C30.8092 59.8077 30.6851 59.8901 30.5195 59.9313C30.3539 60.0136 30.1884 60.0136 30.0228 60.0136H26.2563C26.0908 60.0136 25.9252 59.9725 25.7597 59.9313C25.5941 59.8489 25.4699 59.7665 25.3458 59.6842C25.2216 59.5606 25.1388 59.4371 25.0974 59.2723C25.0146 59.1076 25.0146 58.9429 25.0146 58.7781V53.8361C25.0146 53.6714 25.056 53.5066 25.0974 53.3419C25.1388 53.1772 25.263 53.0536 25.3458 52.9301C25.4699 52.8065 25.5941 52.7241 25.7597 52.683C25.9252 52.6006 26.0908 52.6006 26.2563 52.6006H30.0228ZM29.3606 54.4127H26.8358V58.2427H29.3606V54.4127Z" fill="white"/>
<path fill-rule="evenodd" clip-rule="evenodd" d="M39.4598 59.8901C39.5011 59.9313 39.5011 59.9725 39.4598 60.0136C39.4184 60.0548 39.4184 60.0548 39.3356 60.0548H37.6386C37.5972 60.0548 37.5144 60.0548 37.473 60.0136L37.3489 59.8901L36.2313 57.8721C36.2313 57.8309 36.19 57.8309 36.1486 57.8309H34.8655C34.8241 57.8309 34.8241 57.8309 34.8241 57.8721V59.8489C34.8241 59.9725 34.7413 60.0548 34.6171 60.0548H33.1271C33.0029 60.0548 32.9202 59.9725 32.9202 59.8489V52.8065C32.9202 52.683 33.0029 52.6006 33.1271 52.6006H37.9697C38.1353 52.6006 38.3008 52.6418 38.4664 52.683C38.632 52.7653 38.7561 52.8477 38.8803 52.9301C39.0045 53.0536 39.0872 53.1772 39.1286 53.3419C39.2114 53.5066 39.2114 53.6714 39.2114 53.8361V56.6366C39.2114 56.9249 39.1286 57.1308 38.9631 57.3779C38.7975 57.5838 38.5906 57.7485 38.3422 57.8309H38.3008C38.2594 57.8309 38.2594 57.8721 38.2594 57.9133V57.9545L39.4598 59.8901ZM37.3489 54.3303H34.7827V56.1424H37.3489V54.3303Z" fill="white"/>
<path fill-rule="evenodd" clip-rule="evenodd" d="M49.5173 58.2421C49.5587 58.2421 49.6001 58.2421 49.6414 58.2833C49.6828 58.3245 49.6828 58.3657 49.6828 58.4068V59.8071C49.6828 59.8483 49.6828 59.9306 49.6414 59.9306C49.6001 59.9718 49.5587 59.9718 49.5173 59.9718H44.923C44.7988 59.9718 44.7161 59.8894 44.7161 59.7659V52.7235C44.7161 52.5999 44.7988 52.5176 44.923 52.5176H46.413C46.5372 52.5176 46.62 52.5999 46.62 52.7235V57.9538C46.62 57.995 46.62 58.0362 46.6614 58.0774C46.7028 58.1186 46.7442 58.1186 46.7856 58.1186H49.5173V58.2421Z" fill="white"/>
<path fill-rule="evenodd" clip-rule="evenodd" d="M56.4293 52.6836C56.4707 52.7248 56.4707 52.766 56.4707 52.8072V53.4249V53.7544V54.1662C56.4707 54.2074 56.4707 54.2486 56.4293 54.2898C56.3879 54.331 56.3465 54.331 56.3051 54.331H55.5601H53.3251H52.7456C52.7042 54.331 52.7042 54.331 52.7042 54.3722V55.5253C52.7042 55.5665 52.7042 55.5665 52.7456 55.5665H55.8085C55.8499 55.5665 55.8912 55.5665 55.9326 55.6077C55.974 55.6488 55.974 55.69 55.974 55.7312V56.802C55.974 56.8432 55.974 56.9255 55.9326 56.9255C55.8912 56.9667 55.8499 56.9667 55.8085 56.9667H52.7456C52.7042 56.9667 52.7042 56.9667 52.7042 57.0079V57.5433V58.161C52.7042 58.2022 52.7042 58.2022 52.7456 58.2022H53.2009H55.6015H56.3051C56.3465 58.2022 56.4293 58.2022 56.4293 58.2434C56.4707 58.2846 56.4707 58.3258 56.4707 58.367V58.7788V59.3142V59.6848C56.4707 59.726 56.4707 59.8084 56.4293 59.8084C56.3879 59.8496 56.3465 59.8496 56.3051 59.8496H55.6843H51.6281H51.0072C50.8831 59.8496 50.8003 59.7672 50.8003 59.6437V59.273V53.0955V52.6013C50.8003 52.5601 50.8003 52.4777 50.8417 52.4777C50.8831 52.4365 50.9245 52.4365 50.9659 52.4365H51.7523H55.9326H56.2637C56.3465 52.6013 56.3879 52.6424 56.4293 52.6836Z" fill="white"/>
<path fill-rule="evenodd" clip-rule="evenodd" d="M63.2174 52.6006C63.383 52.6006 63.5485 52.6418 63.7141 52.683C63.8796 52.7653 64.0038 52.8477 64.128 52.9301C64.2521 53.0536 64.3349 53.1772 64.3763 53.3419C64.4177 53.5066 64.4591 53.6714 64.4591 53.8361V59.8489C64.4591 59.8901 64.4591 59.9725 64.4177 59.9725C64.3763 60.0136 64.3349 60.0136 64.2935 60.0136H62.7621C62.7207 60.0136 62.6379 60.0136 62.6379 59.9725C62.5966 59.9313 62.5965 59.8901 62.5965 59.8489V57.9545C62.5965 57.9133 62.5965 57.8309 62.5552 57.8309C62.5138 57.7897 62.4724 57.7897 62.431 57.7897H60.2787C60.2373 57.7897 60.1546 57.7897 60.1546 57.8309C60.1132 57.8721 60.1132 57.9133 60.1132 57.9545V59.8489C60.1132 59.9725 60.0304 60.0548 59.9062 60.0548H58.4162C58.292 60.0548 58.2092 59.9725 58.2092 59.8489V53.8361C58.2092 53.6714 58.2506 53.5066 58.292 53.3419C58.3748 53.1772 58.4576 53.0536 58.5403 52.9301C58.6645 52.8065 58.7887 52.7241 58.9542 52.683C59.1198 52.6006 59.2854 52.6006 59.4509 52.6006H63.2174ZM62.5552 56.1424V54.2891H60.0304V56.1424H62.5552Z" fill="white"/>
<path fill-rule="evenodd" clip-rule="evenodd" d="M72.3645 56.0603C72.4059 56.1015 72.4059 56.1427 72.4059 56.1839V58.8196C72.4059 58.9844 72.3645 59.1491 72.3231 59.3138C72.2403 59.4786 72.1575 59.6021 72.0747 59.7257C71.9506 59.8492 71.8264 59.9316 71.6608 59.9728C71.4953 60.0551 71.3297 60.0551 71.1642 60.0551H67.3977C67.2321 60.0551 67.0666 60.014 66.901 59.9728C66.7355 59.8904 66.6113 59.808 66.4871 59.7257C66.3629 59.6021 66.2802 59.4786 66.2388 59.3138C66.156 59.1491 66.156 58.9844 66.156 58.8196V53.8776C66.156 53.7129 66.1974 53.5481 66.2388 53.3834C66.2802 53.2187 66.4043 53.0951 66.4871 52.9716C66.6113 52.848 66.7355 52.7656 66.901 52.7245C67.0666 52.6421 67.2321 52.6421 67.3977 52.6421H71.8264C71.8678 52.6421 71.9506 52.6421 71.9506 52.6833C71.992 52.7245 71.992 52.7656 71.992 52.8068V54.2071C71.992 54.2483 71.992 54.3306 71.9506 54.3306C71.9092 54.3718 71.8678 54.3718 71.8264 54.3718H68.2669C68.2255 54.3718 68.1427 54.3718 68.1427 54.413C68.1013 54.4542 68.1013 54.4954 68.1013 54.5365V57.996C68.1013 58.0371 68.1013 58.0783 68.1427 58.1195C68.1841 58.1607 68.2255 58.1607 68.2669 58.1607H70.3778C70.4192 58.1607 70.4605 58.1607 70.5019 58.1195C70.5433 58.0783 70.5433 58.0371 70.5433 57.996V56.1427C70.5433 56.1015 70.5433 56.0191 70.5847 56.0191C70.6261 55.978 70.6675 55.978 70.7089 55.978H72.1989C72.2403 55.978 72.3231 56.0191 72.3645 56.0603Z" fill="white"/>
<path fill-rule="evenodd" clip-rule="evenodd" d="M80.2285 52.683C80.2699 52.7241 80.2699 52.7653 80.2699 52.8065V58.8193C80.2699 58.9841 80.2285 59.1488 80.1871 59.3135C80.1043 59.4783 80.0215 59.6018 79.9388 59.7254C79.8146 59.8489 79.6904 59.9313 79.5249 59.9725C79.3593 60.0548 79.1937 60.0548 79.0282 60.0548H75.2617C75.0962 60.0548 74.9306 60.0136 74.765 59.9725C74.5995 59.8901 74.4753 59.8077 74.3511 59.7254C74.227 59.6018 74.1442 59.4783 74.1028 59.3135C74.02 59.1488 74.02 58.9841 74.02 58.8193V52.8065C74.02 52.683 74.1028 52.6006 74.227 52.6006H75.717C75.8412 52.6006 75.9239 52.683 75.9239 52.8065V58.0368C75.9239 58.078 75.9239 58.1192 75.9653 58.1604C76.0067 58.2016 76.0481 58.2016 76.0895 58.2016H78.2004C78.2418 58.2016 78.2832 58.2016 78.3246 58.1604C78.3659 58.1192 78.3659 58.078 78.3659 58.0368V52.8065C78.3659 52.7653 78.3659 52.683 78.4073 52.683C78.4487 52.6418 78.4901 52.6418 78.5315 52.6418H80.0215C80.1457 52.6006 80.1871 52.6418 80.2285 52.683Z" fill="white"/>
<path fill-rule="evenodd" clip-rule="evenodd" d="M87.6373 52.6836C87.6787 52.7248 87.6787 52.766 87.6787 52.8072V53.4249V53.7544V54.1662C87.6787 54.2074 87.6787 54.2486 87.6373 54.2898C87.5959 54.331 87.5545 54.331 87.5131 54.331H86.7681H84.5331H83.9536C83.9122 54.331 83.9122 54.331 83.9122 54.3722V55.5253C83.9122 55.5665 83.9122 55.5665 83.9536 55.5665H87.0165C87.0579 55.5665 87.0992 55.5665 87.1406 55.6077C87.182 55.6488 87.182 55.69 87.182 55.7312V56.802C87.182 56.8432 87.182 56.9255 87.1406 56.9255C87.0992 56.9667 87.0579 56.9667 87.0165 56.9667H83.9536C83.9122 56.9667 83.9122 56.9667 83.9122 57.0079V57.5433V58.161C83.9122 58.2022 83.9122 58.2022 83.9536 58.2022H84.4089H86.8095H87.5131C87.5545 58.2022 87.6373 58.2022 87.6373 58.2434C87.6787 58.2846 87.6787 58.3258 87.6787 58.367V58.7788V59.3142V59.6848C87.6787 59.726 87.6787 59.8084 87.6373 59.8084C87.5959 59.8496 87.5545 59.8496 87.5131 59.8496H86.8923H82.8361H82.2152C82.0911 59.8496 82.0083 59.7672 82.0083 59.6437V59.273V53.0955V52.6013C82.0083 52.5601 82.0083 52.4777 82.0497 52.4777C82.0911 52.4365 82.1325 52.4365 82.1739 52.4365H82.9603H87.1406H87.4718C87.5545 52.6013 87.5959 52.6424 87.6373 52.6836Z" fill="white"/>
<path fill-rule="evenodd" clip-rule="evenodd" d="M99.1024 52.6012C99.1437 52.6012 99.2265 52.6012 99.2265 52.6424C99.2679 52.6836 99.2679 52.7248 99.2679 52.766V59.8084C99.2679 59.8496 99.2679 59.9319 99.2265 59.9319C99.1851 59.9731 99.1437 59.9731 99.1024 59.9731H97.6123C97.5709 59.9731 97.4882 59.9731 97.4882 59.9319C97.4468 59.8907 97.4468 59.8496 97.4468 59.8084V57.3374C97.4468 57.2962 97.4468 57.255 97.4054 57.2138C97.364 57.1726 97.3226 57.1726 97.2812 57.1726H95.1703C95.1289 57.1726 95.0461 57.1726 95.0461 57.2138C95.0048 57.255 95.0048 57.2962 95.0048 57.3374V59.8084C95.0048 59.9319 94.922 60.0143 94.7978 60.0143H93.3078C93.1836 60.0143 93.1008 59.9319 93.1008 59.8084V52.766C93.1008 52.6424 93.1836 52.5601 93.3078 52.5601H94.7978C94.922 52.5601 95.0048 52.6424 95.0048 52.766V55.1546C95.0048 55.2782 95.0875 55.3605 95.2117 55.3605H97.3226C97.364 55.3605 97.4054 55.3605 97.4468 55.3194C97.4881 55.2782 97.4882 55.237 97.4882 55.1958V52.8072C97.4882 52.766 97.4881 52.6836 97.5295 52.6836C97.5709 52.6424 97.6123 52.6424 97.6537 52.6424H99.1024V52.6012Z" fill="white"/>
<path fill-rule="evenodd" clip-rule="evenodd" d="M106.014 52.6006C106.18 52.6006 106.346 52.6418 106.511 52.683C106.677 52.7653 106.801 52.8477 106.925 52.9301C107.049 53.0536 107.132 53.1772 107.173 53.3419C107.215 53.5066 107.256 53.6714 107.256 53.8361V59.8489C107.256 59.8901 107.256 59.9725 107.215 59.9725C107.173 60.0136 107.132 60.0136 107.091 60.0136H105.601C105.559 60.0136 105.476 60.0136 105.476 59.9725C105.435 59.9313 105.435 59.8901 105.435 59.8489V57.9545C105.435 57.9133 105.435 57.8309 105.394 57.8309C105.352 57.7897 105.311 57.7897 105.269 57.7897H103.159C103.117 57.7897 103.034 57.7897 103.034 57.8309C102.993 57.8721 102.993 57.9133 102.993 57.9545V59.8489C102.993 59.9725 102.91 60.0548 102.786 60.0548H101.296C101.172 60.0548 101.089 59.9725 101.089 59.8489V53.8361C101.089 53.6714 101.13 53.5066 101.172 53.3419C101.255 53.1772 101.337 53.0536 101.42 52.9301C101.544 52.8065 101.669 52.7241 101.834 52.683C102 52.6006 102.165 52.6006 102.331 52.6006H106.014ZM105.394 56.1424V54.2891H102.869V56.1424H105.394Z" fill="white"/>
<path fill-rule="evenodd" clip-rule="evenodd" d="M110.857 54.4539C110.816 54.495 110.816 54.5362 110.816 54.5774V58.0368C110.816 58.078 110.816 58.1192 110.857 58.1604C110.898 58.2016 110.94 58.2016 110.981 58.2016H114.417C114.458 58.2016 114.541 58.2016 114.541 58.2428C114.582 58.2839 114.582 58.3251 114.582 58.3663V59.7666C114.582 59.8077 114.582 59.8901 114.541 59.8901C114.499 59.9313 114.458 59.9313 114.417 59.9313H112.182H110.36H110.153C109.988 59.9313 109.822 59.8901 109.657 59.8489C109.491 59.7666 109.367 59.6842 109.243 59.6018C109.119 59.4783 109.036 59.3547 108.995 59.19C108.912 59.0252 108.912 58.8605 108.912 58.6958V58.4899V57.7074V55.2364V54.5362V53.7126C108.912 53.5478 108.953 53.3831 108.995 53.2184C109.077 53.0536 109.16 52.9301 109.243 52.8065C109.367 52.683 109.491 52.6006 109.657 52.5594C109.822 52.4771 109.988 52.4771 110.153 52.4771H110.36H114.417C114.458 52.4771 114.541 52.4771 114.541 52.5182C114.582 52.5594 114.582 52.6006 114.582 52.6418V54.042C114.582 54.0832 114.582 54.1656 114.541 54.1656C114.499 54.2068 114.458 54.2068 114.417 54.2068H110.981C110.94 54.4127 110.898 54.4539 110.857 54.4539Z" fill="white"/>
<path fill-rule="evenodd" clip-rule="evenodd" d="M120.583 55.7309C120.542 55.772 120.542 55.772 120.583 55.8132L123.067 59.8904C123.108 59.9316 123.108 59.9728 123.067 60.014C123.025 60.0551 123.025 60.0551 122.943 60.0551H121.163C121.122 60.0551 121.039 60.0551 120.997 60.014C120.956 59.9728 120.915 59.9316 120.873 59.8904L119.259 57.0076C119.218 56.9664 119.218 56.9664 119.218 57.0076L118.348 57.9548C118.307 57.996 118.266 58.0371 118.266 58.1195C118.224 58.2019 118.224 58.2431 118.224 58.3254V59.8904C118.224 60.014 118.141 60.0963 118.017 60.0963H116.569C116.444 60.0963 116.362 60.014 116.362 59.8904V52.848C116.362 52.7245 116.444 52.6421 116.569 52.6421H118.059C118.183 52.6421 118.266 52.7245 118.266 52.848V56.0191L121.039 52.8068C121.08 52.7656 121.122 52.7245 121.204 52.6833C121.287 52.6421 121.328 52.6421 121.37 52.6421H123.15C123.191 52.6421 123.232 52.6421 123.232 52.6833C123.232 52.7245 123.232 52.7656 123.191 52.8068L120.583 55.7309Z" fill="white"/>
<path fill-rule="evenodd" clip-rule="evenodd" d="M126.337 59.8489C126.337 59.9725 126.254 60.0548 126.13 60.0548H124.64C124.516 60.0548 124.433 59.9725 124.433 59.8489V52.8065C124.433 52.683 124.516 52.6006 124.64 52.6006H126.13C126.254 52.6006 126.337 52.683 126.337 52.8065V59.8489Z" fill="white"/>
<path fill-rule="evenodd" clip-rule="evenodd" d="M133.539 52.7245C133.704 52.8069 133.828 52.8892 133.953 52.9716C134.077 53.0952 134.159 53.2187 134.201 53.3834C134.284 53.5482 134.284 53.7129 134.284 53.8776V59.8905C134.284 59.9316 134.284 60.014 134.242 60.014C134.201 60.0552 134.159 60.0552 134.118 60.0552H132.628C132.587 60.0552 132.545 60.0552 132.504 60.014C132.463 59.9728 132.463 59.9316 132.463 59.8905V54.6601C132.463 54.6189 132.463 54.5778 132.421 54.5366C132.38 54.4954 132.338 54.4954 132.297 54.4954H130.186C130.145 54.4954 130.062 54.4954 130.062 54.5366C130.062 54.5778 130.021 54.6189 130.021 54.6601V59.8905C130.021 60.014 129.938 60.0964 129.814 60.0964H128.324C128.199 60.0964 128.117 60.014 128.117 59.8905V52.8481C128.117 52.7245 128.199 52.6421 128.324 52.6421H133.166C133.249 52.6009 133.414 52.6421 133.539 52.7245Z" fill="white"/>
<path fill-rule="evenodd" clip-rule="evenodd" d="M142.189 56.0603C142.231 56.1015 142.231 56.1427 142.231 56.1839V58.8196C142.231 58.9844 142.189 59.1491 142.148 59.3138C142.065 59.4786 141.982 59.6021 141.899 59.7257C141.775 59.8492 141.651 59.9316 141.486 59.9728C141.32 60.0551 141.154 60.0551 140.989 60.0551H137.222C137.057 60.0551 136.891 60.014 136.726 59.9728C136.56 59.8904 136.436 59.808 136.312 59.7257C136.188 59.6021 136.105 59.4786 136.063 59.3138C135.981 59.1491 135.981 58.9844 135.981 58.8196V53.8776C135.981 53.7129 136.022 53.5481 136.063 53.3834C136.105 53.2187 136.229 53.0951 136.312 52.9716C136.436 52.848 136.56 52.7656 136.726 52.7245C136.891 52.6421 137.057 52.6421 137.222 52.6421H141.651C141.693 52.6421 141.775 52.6421 141.775 52.6833C141.817 52.7245 141.817 52.7656 141.817 52.8068V54.2071C141.817 54.2483 141.817 54.3306 141.775 54.3306C141.734 54.3718 141.693 54.3718 141.651 54.3718H138.092C138.05 54.3718 137.967 54.3718 137.967 54.413C137.926 54.4542 137.926 54.4954 137.926 54.5365V57.996C137.926 58.0371 137.926 58.0783 137.967 58.1195C138.009 58.1607 138.05 58.1607 138.092 58.1607H140.202C140.244 58.1607 140.285 58.1607 140.327 58.1195C140.368 58.0783 140.368 58.0371 140.368 57.996V56.1427C140.368 56.1015 140.368 56.0191 140.409 56.0191C140.451 55.978 140.492 55.978 140.534 55.978H142.024C142.106 55.978 142.148 56.0191 142.189 56.0603Z" fill="white"/>
<path fill-rule="evenodd" clip-rule="evenodd" d="M45.7509 1.36775C46.7028 1.77959 47.5306 2.35616 48.2343 3.05628C48.9379 3.75641 49.4759 4.58008 49.9312 5.5273C50.3451 6.47453 50.5521 7.50412 50.5521 8.57489V47.617C50.5521 47.9876 50.4279 48.2759 50.1796 48.523C49.9312 48.7701 49.6415 48.8937 49.269 48.8937H39.8735C39.501 48.8937 39.2113 48.7701 39.0043 48.523C38.7974 48.2759 38.6732 47.9876 38.6732 47.617V12.1167H31.0989V47.617C31.0989 47.9876 30.9747 48.2759 30.7678 48.523C30.5608 48.7701 30.2297 48.8937 29.8986 48.8937H21.3723C20.9998 48.8937 20.71 48.7701 20.4617 48.523C20.2134 48.2759 20.0892 47.9876 20.0892 47.617V12.1167H12.5149V47.617C12.5149 48.4818 12.101 48.8937 11.2318 48.8937H1.91907C1.04988 48.8937 0.635986 48.4818 0.635986 47.617V2.02669C0.635986 1.16184 1.04988 0.75 1.91907 0.75H42.6466C43.7642 0.75 44.7575 0.955918 45.7509 1.36775Z" fill="white"/>
<path fill-rule="evenodd" clip-rule="evenodd" d="M91.4867 37.1975C91.8592 37.1975 92.1903 37.3211 92.3973 37.5682C92.6456 37.8153 92.7698 38.1447 92.7698 38.5154V47.617C92.7698 47.9876 92.6456 48.2759 92.3973 48.5642C92.1489 48.8113 91.8592 48.9349 91.4867 48.9349H59.3268C58.4162 48.9349 57.9609 48.4818 57.9609 47.617V2.06788C57.9609 1.20302 58.4162 0.75 59.3268 0.75H69.1776C70.0881 0.75 70.5434 1.20302 70.5434 2.06788V36.0032C70.5434 36.3738 70.6676 36.6621 70.9573 36.9092C71.2057 37.1563 71.5368 37.2387 71.9093 37.2387H91.4867V37.1975Z" fill="white"/>
<path fill-rule="evenodd" clip-rule="evenodd" d="M140.906 0.75C141.278 0.75 141.61 0.873551 141.858 1.12065C142.106 1.36775 142.272 1.69722 142.272 2.06788V47.7405C142.272 48.1112 142.148 48.3995 141.858 48.6878C141.61 48.9349 141.278 49.0584 140.906 49.0584H130.89C130.517 49.0584 130.186 48.9349 129.938 48.6878C129.689 48.4407 129.524 48.1112 129.524 47.7405V31.8025C129.524 31.4318 129.4 31.1435 129.151 30.8964C128.903 30.6493 128.613 30.567 128.199 30.567H114.168C113.796 30.567 113.464 30.6905 113.216 30.8964C112.968 31.1435 112.802 31.4318 112.802 31.8025V47.7405C112.802 48.6054 112.347 49.0584 111.436 49.0584H101.503C100.592 49.0584 100.137 48.6054 100.137 47.7405V2.06788C100.137 1.20302 100.592 0.75 101.503 0.75H111.436C112.347 0.75 112.802 1.20302 112.802 2.06788V17.5117C112.802 18.3766 113.258 18.8296 114.168 18.8296H128.199C128.572 18.8296 128.903 18.7061 129.151 18.459C129.4 18.2119 129.524 17.8824 129.524 17.5117V2.06788C129.524 1.69722 129.648 1.40894 129.938 1.12065C130.186 0.873551 130.517 0.75 130.89 0.75H140.906Z" fill="white"/>
</svg>
