<svg width="79" height="62" viewBox="0 0 79 62" fill="none" xmlns="http://www.w3.org/2000/svg">
<path fill-rule="evenodd" clip-rule="evenodd" d="M38.499 1.2232C37.2739 1.88491 35.8106 3.82765 35.5558 5.13019C35.4268 5.79097 35.5396 6.26968 35.9432 6.77171C36.4946 7.45737 36.6131 7.47303 39.6258 7.25778L42.7391 7.03548V6.21379C42.7391 5.62854 42.3005 4.96868 41.215 3.92069C39.5847 2.34672 39.3256 1.62636 40.2973 1.37059C40.9999 1.18543 40.817 0.666504 40.0492 0.666504C39.7633 0.666504 39.0656 0.917062 38.499 1.2232ZM0.0666504 5.42588V6.50058H16.8308C33.1536 6.50058 33.595 6.48492 33.595 5.91165C33.595 5.5877 33.6782 5.10409 33.78 4.83695C33.9473 4.39755 32.3459 4.35118 17.0158 4.35118H0.0666504V5.42588ZM44.342 5.42343L44.6703 6.50058H61.5549H78.4397L78.344 5.50265L78.2486 4.50471L61.1312 4.42549L44.0138 4.34596L44.342 5.42343ZM0.795129 10.547C0.725025 10.6615 0.943568 10.8436 1.28129 10.9514C1.86072 11.1368 1.89547 11.4064 1.89547 15.7221C1.89547 19.9822 1.85371 20.3191 1.28586 20.6252C0.950579 20.806 0.676256 21.0873 0.676256 21.2501C0.676256 21.6446 5.46319 21.6345 5.7055 21.2393C5.80914 21.0704 5.75854 20.9322 5.59273 20.9322C4.79079 20.9322 4.33389 19.9094 4.33389 18.1135V16.2598L5.1721 16.5036C6.78817 16.9734 7.75774 16.7633 8.65783 15.7485C10.0395 14.1908 9.6079 11.1878 7.91868 10.6053C7.06523 10.3112 0.970391 10.2611 0.795129 10.547ZM16.3096 10.5537C16.1359 10.7733 15.2781 13.1238 14.404 15.7771C13.203 19.4215 12.6709 20.647 12.2274 20.7889C11.2124 21.1131 11.9274 21.5464 13.478 21.5464C15.0157 21.5464 15.8402 21.0152 14.749 20.7277C13.9632 20.5208 13.7608 19.9862 14.0513 18.8857C14.2601 18.0944 14.4198 18.0069 15.8082 17.9243L17.3356 17.8331L17.7196 19.1252C18.054 20.2487 18.0409 20.4523 17.6196 20.69C16.6095 21.2593 17.2133 21.5464 19.4216 21.5464C21.7476 21.5464 22.1478 21.3569 21.1496 20.729C20.8042 20.5116 19.9749 18.5805 18.9751 15.6653C17.2588 10.6615 16.8482 9.87422 16.3096 10.5537ZM28.6279 10.6194C25.2031 11.5547 23.5587 15.0853 25.0288 18.3465C26.0133 20.53 28.4779 21.8264 30.824 21.395C32.6409 21.0612 33.2926 20.4658 33.2722 19.1596C33.2563 18.139 33.2152 18.0803 32.8912 18.6173C32.6915 18.9487 32.1475 19.619 31.6823 20.1072C30.9999 20.8236 30.6759 20.9547 30.0059 20.7861C28.157 20.3212 27.0887 18.5194 27.0887 15.8658C27.0887 11.7476 30.0199 9.51987 32.1054 12.0531L32.9689 13.1023L32.9771 11.9714C32.9832 11.1525 32.8385 10.7991 32.452 10.6895C30.9889 10.2743 29.9599 10.2556 28.6279 10.6194ZM37.2526 10.5479C37.2526 10.6744 37.5269 10.9256 37.8622 11.1064C38.4285 11.4116 38.4718 11.7494 38.4718 15.8658C38.4718 19.9822 38.4285 20.32 37.8622 20.6252C36.6912 21.2565 37.2611 21.5464 39.673 21.5464C42.2285 21.5464 42.9091 21.2488 41.6628 20.6768C40.913 20.3326 40.9102 20.3148 40.9102 15.8821V11.4331L41.7485 10.975C42.2093 10.7229 42.5181 10.4963 42.4343 10.4711C41.8503 10.2964 37.2526 10.3643 37.2526 10.5479ZM47.3111 10.5451C47.3111 10.6732 47.5854 10.9256 47.9207 11.1064C48.487 11.4116 48.5303 11.7494 48.5303 15.8658C48.5303 19.9822 48.487 20.32 47.9207 20.6252C46.7475 21.2577 47.3206 21.5464 49.7495 21.5464C52.1785 21.5464 52.7515 21.2577 51.5784 20.6252C51.0574 20.3445 50.9687 19.9822 50.9687 18.1383V15.9803L51.9594 16.0768C52.6388 16.1428 53.0445 16.39 53.2508 16.8637C53.7693 18.0542 54.0168 17.6268 54.0168 15.5406C54.0168 14.2762 53.9034 13.5973 53.712 13.7164C53.5443 13.8208 53.4072 14.1082 53.4072 14.3551C53.4072 14.9198 52.0852 15.5489 51.4308 15.2959C51.0367 15.1436 50.9575 14.7251 51.0303 13.1831L51.1211 11.26L52.1114 11.1639C52.9073 11.0865 53.281 11.2655 54.0165 12.0767L54.9312 13.0857V11.7123V10.3388L51.1211 10.3256C49.0256 10.3185 47.3111 10.4174 47.3111 10.5451ZM59.9159 10.5651C59.8367 10.6941 59.9074 10.7994 60.0732 10.7994C60.2387 10.7994 60.5895 11.0165 60.8532 11.2818C61.2406 11.6723 61.3311 12.5373 61.3275 15.8109C61.3247 18.0367 61.222 20.0059 61.0989 20.187C60.9757 20.3682 60.6261 20.6089 60.3222 20.7222C59.1667 21.1521 60.2415 21.5464 62.5692 21.5464C64.9811 21.5464 65.5511 21.2565 64.3801 20.6252C63.8138 20.32 63.7705 19.9822 63.7705 15.8658C63.7705 11.7494 63.8138 11.4116 64.3801 11.1064C64.7154 10.9256 64.9897 10.6772 64.9897 10.5543C64.9897 10.2553 60.0994 10.2657 59.9159 10.5651ZM74.1048 10.4837C70.7078 11.1147 68.7708 14.1091 69.6038 17.4422C70.3603 20.4686 73.768 22.2394 76.6801 21.1192C77.8207 20.6805 78.0538 20.4462 78.1797 19.6144C78.3977 18.1709 78.1358 18.0186 77.3796 19.1492C76.3658 20.6648 75.3783 21.1272 74.2962 20.5936C72.8463 19.8784 72.1949 18.6898 72.0571 16.5069C71.8477 13.196 73.0036 11.0978 75.0692 11.0386C75.8574 11.0159 76.2616 11.2329 76.9276 12.0368C77.3958 12.6018 77.8633 12.9789 77.9664 12.8748C78.2556 12.5834 77.7789 10.7714 77.3818 10.6517C76.4436 10.3689 75.0954 10.2998 74.1048 10.4837ZM6.60254 11.789C7.67087 13.3252 6.82261 15.8311 5.29494 15.653C4.55731 15.567 4.47806 15.4258 4.39119 14.0437C4.25281 11.8443 4.50367 11.1064 5.38912 11.1064C5.80731 11.1064 6.33431 11.4027 6.60254 11.789ZM16.6949 16.1299C16.886 16.8969 16.8363 16.9405 15.7643 16.9405C14.9206 16.9405 14.6737 16.8312 14.7953 16.5119C14.885 16.276 15.1343 15.4927 15.3489 14.7708L15.7393 13.4585L16.116 14.3889C16.3233 14.9007 16.5839 15.6843 16.6949 16.1299ZM5.01116 24.7612C-1.09099 26.6807 -1.36928 35.4548 4.60791 37.4709C5.9274 37.9159 8.83248 37.9214 10.0861 37.4811C11.2038 37.0887 11.6492 36.4033 11.6492 35.0771C11.6492 33.8655 11.3139 33.8836 10.6058 35.1336C9.78468 36.5829 8.90533 37.1918 7.62119 37.1995C4.52378 37.2182 2.49928 32.36 3.8904 28.247C4.51799 26.3917 5.76616 25.2261 7.35601 25.0115C8.53377 24.8521 8.69837 24.9271 9.84686 26.1433C10.5232 26.8594 11.1532 27.3682 11.2471 27.2739C11.3407 27.1793 11.3252 26.6057 11.2121 25.999C11.0646 25.2071 10.7908 24.8134 10.2413 24.6031C9.17325 24.1938 6.56353 24.2727 5.01116 24.7612ZM17.8976 24.7527C15.543 25.8304 14.101 28.2863 14.101 31.2187C14.101 35.5144 16.8387 38.0712 21.1057 37.7605C26.7259 37.3509 29.0022 29.7773 24.6594 25.936C22.8933 24.374 19.8776 23.8462 17.8976 24.7527ZM32.6827 24.7821C30.1589 25.9247 28.8928 28.0676 28.8797 31.2187C28.8672 34.1289 29.8459 35.8782 32.1264 37.0229C36.7942 39.3664 41.5781 36.446 41.6476 31.2107C41.6982 27.4096 39.1631 24.6117 35.4765 24.3995C34.3667 24.3357 33.3661 24.4729 32.6827 24.7821ZM43.6535 24.5442C43.6535 24.6728 43.9619 24.9148 44.3393 25.0815C45.0086 25.3772 45.0272 25.5151 45.1083 30.8397L45.1915 36.2949L44.4225 36.5894C42.9488 37.1541 43.6739 37.4224 46.7015 37.4332C49.7093 37.4439 50.4753 37.162 48.9875 36.5921C48.2569 36.3124 48.2255 36.1924 48.2255 33.6828C48.2255 32.243 48.2956 31.0651 48.381 31.0651C48.6016 31.0651 52.188 36.0339 52.188 36.3394C52.188 36.4785 51.9706 36.5921 51.7055 36.5921C51.44 36.5921 51.2799 36.765 51.3497 36.976C51.5073 37.4525 57.2641 37.6263 57.5485 37.163C57.6516 36.9953 57.4559 36.7841 57.1136 36.6941C56.1711 36.4457 50.8861 29.3548 51.1111 28.6406C51.2108 28.3246 52.034 27.3589 52.9411 26.4949C54.171 25.3232 54.8224 24.924 55.5045 24.924C56.0077 24.924 56.504 24.7858 56.6076 24.6169C56.728 24.4207 55.798 24.3099 54.0348 24.3099C52.3971 24.3099 51.2735 24.4348 51.2735 24.6169C51.2735 24.7858 51.5479 24.924 51.8832 24.924C52.2184 24.924 52.4928 25.1042 52.4928 25.3247C52.4928 25.792 48.854 30.144 48.4636 30.144C48.3185 30.144 48.2398 29.0732 48.2889 27.7643C48.3685 25.6348 48.4502 25.3526 49.0637 25.0815C50.3573 24.5098 49.7456 24.3099 46.7015 24.3099C45.0251 24.3099 43.6535 24.4152 43.6535 24.5442ZM59.5032 24.5442C59.5032 24.6728 59.8117 24.9148 60.189 25.0815C60.8572 25.3766 60.877 25.5215 60.958 30.6696L61.0416 35.9544L60.2722 36.4623C59.8495 36.7414 59.5032 37.0733 59.5032 37.1998C59.5032 37.5225 65.2738 37.4884 65.4725 37.1645C65.5621 37.0186 65.4899 36.8992 65.3125 36.8992C65.1351 36.8992 64.7154 36.6228 64.3801 36.2851C63.8226 35.7235 63.7705 35.2617 63.7705 30.8913C63.7705 26.1442 63.9872 24.924 64.83 24.924C65.0656 24.924 65.3433 24.7858 65.4469 24.6169C65.5676 24.4201 64.5355 24.3099 62.5692 24.3099C60.8831 24.3099 59.5032 24.4152 59.5032 24.5442ZM68.9521 24.6043C68.9521 24.7259 69.2984 24.9842 69.7214 25.1785L70.4905 25.5317L70.4072 30.8315C70.3259 35.9952 70.3061 36.1392 69.6379 36.4346C69.2606 36.6014 68.9521 36.8433 68.9521 36.972C68.9521 37.1009 71.1309 37.2063 73.7933 37.2063C78.5565 37.2063 78.6375 37.1952 78.8186 36.5154C79.0807 35.5297 79.0533 34.1357 78.7717 34.1357C78.64 34.1357 78.2846 34.5585 77.9816 35.0753C77.1211 36.5427 74.9781 37.0917 73.9908 36.0975C73.6071 35.7106 73.519 35.0906 73.5882 33.2572C73.6757 30.9331 73.6845 30.9107 74.5416 30.8118C75.4685 30.7049 76.5722 31.4664 76.5722 32.2129C76.5722 32.4542 76.7255 32.6001 76.913 32.5372C77.2629 32.4195 77.4086 28.7349 77.0766 28.4005C76.9794 28.3025 76.734 28.5887 76.5313 29.037C76.1564 29.8654 75.2408 30.2855 74.234 30.0902C73.7531 29.9969 73.6766 29.6662 73.6766 27.6832V25.3846L75.0482 25.286C76.3134 25.1951 76.4963 25.2786 77.4058 26.3607L78.3919 27.534L78.3964 25.9302L78.401 24.3261L73.6766 24.3547C71.0781 24.3704 68.9521 24.4827 68.9521 24.6043ZM21.644 25.4048C24.2107 27.2162 24.6405 34.6276 22.3023 36.7592C20.0264 38.8343 17.0335 35.324 17.0247 30.5692C17.0167 26.3008 19.2985 23.7498 21.644 25.4048ZM36.6738 25.5691C37.9799 26.8849 38.6181 28.8869 38.6212 31.6792C38.6236 33.8787 38.5087 34.4925 37.8893 35.5813C35.838 39.1889 32.2136 36.7119 31.8439 31.4502C31.5805 27.7001 32.9201 24.924 34.9937 24.924C35.6436 24.924 36.2736 25.1659 36.6738 25.5691ZM3.87669 41.3245C2.10182 42.1192 0.669246 44.4338 0.682962 46.4849C0.692106 47.8538 1.63821 49.8542 2.659 50.663C5.13796 52.6276 9.51554 52.069 9.51554 49.7885C9.51554 48.6275 9.19824 48.6306 8.53895 49.7977C7.3615 51.8827 4.97764 51.6217 3.87059 49.2862C3.20825 47.8894 3.11864 44.7918 3.70783 43.6544C4.96605 41.2247 6.90734 40.7435 8.3643 42.5002L9.19428 43.5009L9.20251 42.3823C9.208 41.6398 9.04858 41.2011 8.72854 41.0773C7.87418 40.7469 4.81883 40.9026 3.87669 41.3245ZM14.3686 41.5892C12.1408 43.1014 11.3215 45.5023 12.1149 48.1931C12.6501 50.0093 13.827 51.1537 15.6741 51.6548C18.852 52.517 21.7275 50.4395 22.2042 46.9378C22.4736 44.9558 21.2995 42.519 19.6158 41.5655C17.9869 40.6435 15.7466 40.6536 14.3686 41.5892ZM23.6889 41.198C23.7925 41.3669 24.09 41.5051 24.3497 41.5051C24.7606 41.5051 24.8075 42.1096 24.71 46.1376C24.614 50.1036 24.5213 50.8267 24.0671 51.1611C23.2244 51.7819 23.431 51.945 25.0605 51.945C26.6034 51.945 27.0923 51.5344 25.9749 51.1773C25.4074 50.9959 25.3668 50.7238 25.3894 47.2418C25.4025 45.1842 25.4811 43.6391 25.5637 43.808C25.6463 43.9769 26.287 45.7642 26.9875 47.7801C27.6879 49.7959 28.4185 51.4954 28.6114 51.5569C28.8221 51.6241 29.5118 50.0394 30.34 47.5848L31.718 43.5009L31.7421 47.2418C31.7646 50.7238 31.7241 50.9959 31.1566 51.1773C29.8389 51.5986 30.664 51.945 32.9854 51.945C34.3265 51.945 35.4238 51.8636 35.4238 51.7638C35.4238 51.6643 35.1525 51.3533 34.8212 51.0729C34.2805 50.6154 34.2162 50.1548 34.1957 46.5715C34.165 41.2588 34.1424 41.5051 34.6618 41.5051C34.9132 41.5051 35.119 41.3669 35.119 41.198C35.119 41.0291 34.3759 40.8909 33.4679 40.8909H31.8165L30.6847 44.3125C29.3933 48.2173 29.5813 48.279 27.9796 43.4242L27.1441 40.8909H25.3223C24.1854 40.8909 23.5712 41.0064 23.6889 41.198ZM37.2526 41.1621C37.2526 41.3113 37.5269 41.5057 37.8622 41.5941C38.4365 41.7455 38.4718 42.0129 38.4718 46.2248C38.4718 50.3808 38.4288 50.7183 37.8622 51.0238C36.689 51.6563 37.2621 51.945 39.691 51.945C42.12 51.945 42.693 51.6563 41.5199 51.0238C41.0056 50.7465 40.9102 50.3808 40.9102 48.6893C40.9102 46.7413 40.9301 46.6906 41.5961 46.9292C41.9734 47.0643 42.7244 47.1669 43.2655 47.1574C45.8215 47.1125 47.0148 43.1364 44.9605 41.5087C44.2832 40.972 43.7263 40.8909 40.7167 40.8909C38.8114 40.8909 37.2526 41.0131 37.2526 41.1621ZM50.108 41.4283C49.958 41.724 49.1152 43.9993 48.2347 46.4849C47.0657 49.7848 46.4775 51.0542 46.0538 51.1896C45.0016 51.5258 45.7938 51.945 47.4815 51.945C49.1311 51.945 49.7687 51.4389 48.5303 51.1129C48.0829 50.9949 47.9219 50.6962 47.9253 49.99C47.9326 48.4894 48.2597 48.2112 49.8907 48.3183C51.2656 48.4086 51.3705 48.4789 51.8164 49.6092C52.2486 50.7051 52.2459 50.8359 51.7807 51.1786C50.9114 51.8188 51.2016 51.945 53.5416 51.945C55.7462 51.945 56.76 51.5673 55.5734 51.1878C55.2512 51.0846 54.8934 50.7637 54.7785 50.4748C54.6633 50.1855 53.9092 48.1528 53.1024 45.9574C52.2956 43.7619 51.5393 41.724 51.422 41.4283C51.3043 41.1326 51.0221 40.8909 50.7944 40.8909C50.5667 40.8909 50.2579 41.1326 50.108 41.4283ZM68.3901 41.5834C68.8354 41.9626 69.83 43.3916 70.5999 44.7592C71.7639 46.8267 72.0001 47.5132 72.0001 48.8308C72.0001 50.0357 71.8538 50.5417 71.3905 50.9415C71.0553 51.2308 70.7809 51.5747 70.7809 51.7061C70.7809 52.0611 75.2859 51.996 75.5054 51.6379C75.609 51.469 75.5584 51.3309 75.3926 51.3309C74.5977 51.3309 74.1338 50.3078 74.1338 48.5548C74.1338 46.9311 74.2926 46.4729 75.6697 44.1246C76.5143 42.6838 77.4058 41.5051 77.6509 41.5051C77.8956 41.5051 78.0962 41.3669 78.0962 41.198C78.0962 41.027 77.2775 40.8909 76.2494 40.8909C75.0957 40.8909 74.4733 41.0061 74.591 41.198C74.6946 41.3669 74.9769 41.5051 75.2186 41.5051C75.8602 41.5051 75.759 42.2454 74.8787 43.9953C73.9731 45.7959 73.7141 45.7228 72.6128 43.3538C71.906 41.8336 71.9035 41.7974 72.4799 41.358C73.0081 40.9551 72.7926 40.9097 70.3237 40.9023L67.5805 40.894L68.3901 41.5834ZM17.5739 41.5523C19.1296 42.2662 20.1559 45.7977 19.5716 48.4252C18.4569 53.4354 14.3924 51.4985 14.3924 45.9574C14.3924 43.0569 15.0383 41.7528 16.7403 41.2173C16.7744 41.2069 17.1493 41.3574 17.5739 41.5523ZM57.3696 41.4311C57.3696 41.5594 57.6439 41.837 57.9792 42.0479C58.5376 42.3992 58.5888 42.764 58.5888 46.3955C58.5888 50.6041 58.4718 51.3309 57.7942 51.3309C57.5607 51.3309 57.3696 51.469 57.3696 51.6379C57.3696 51.8068 58.124 51.945 59.046 51.945C59.9681 51.945 60.7224 51.8068 60.7224 51.6379C60.7224 51.469 60.5335 51.3309 60.3024 51.3309C59.3752 51.3309 59.178 50.4987 59.2646 46.9492L59.3508 43.4226L62.3989 47.8304C64.0753 50.2546 65.6185 52.3061 65.8279 52.389C66.1226 52.5057 66.2089 51.4617 66.2089 47.7699C66.2089 42.9802 66.4238 41.8121 67.3044 41.8121C67.5598 41.8121 67.6841 41.6739 67.5805 41.5051C67.4769 41.3362 66.7225 41.198 65.9041 41.198C65.0857 41.198 64.3313 41.3362 64.2277 41.5051C64.124 41.6739 64.2362 41.8121 64.4773 41.8121C65.3682 41.8121 65.6261 42.6409 65.5359 45.2174L65.4469 47.7607L63.1703 44.4792L60.8934 41.198H59.1317C58.1624 41.198 57.3696 41.303 57.3696 41.4311ZM42.8448 41.9626C43.9144 43.04 43.698 45.4295 42.4708 46.0913C41.29 46.7278 40.9102 46.2141 40.9102 43.9799C40.9102 42.8438 41.0017 41.8222 41.1136 41.7099C41.4659 41.3549 42.373 41.4872 42.8448 41.9626ZM50.7935 46.6483C50.9901 47.2765 50.9111 47.3391 49.9224 47.3391C48.662 47.3391 48.5873 47.0545 49.3463 45.1437L49.8574 43.8568L50.2171 44.9069C50.4149 45.4848 50.6743 46.2681 50.7935 46.6483ZM34.916 55.2035C34.4152 55.9739 34.4228 56.0598 35.1138 57.3719C35.5094 58.1233 36.511 59.3521 37.3395 60.1022L38.8455 61.4665L39.9391 60.4993C43.6955 57.1766 44.1683 54.4014 40.9776 54.4014C40.475 54.4014 39.8492 54.6698 39.5344 55.0205L38.9784 55.6392L38.3246 55.0205C37.3386 54.0873 35.5808 54.1819 34.916 55.2035ZM0.0666504 56.7016V57.7791H16.9841H33.9016L33.4974 56.7811L33.0933 55.7832L16.58 55.7037L0.0666504 55.6244V56.7016ZM44.3435 56.7019L44.0153 57.7791H61.2275H78.4397L78.344 56.7811L78.2486 55.7832L61.4601 55.704L44.6718 55.6244L44.3435 56.7019Z" fill="white"/>
</svg>
