<svg width="196" height="147" viewBox="0 0 196 147" fill="none" xmlns="http://www.w3.org/2000/svg">
<path fill-rule="evenodd" clip-rule="evenodd" d="M55.9468 0.565893C55.8199 0.766946 51.3595 10.1106 46.0347 21.3294C39.856 34.3473 36.3543 41.9036 36.3565 42.2148C36.3583 42.483 36.4143 42.7874 36.4809 42.8913C36.6948 43.2249 69.9711 63.4714 70.9759 63.8792C72.1597 64.3597 74.0556 64.518 75.3729 64.2462C76.7809 63.9558 78.3998 63.0806 79.3573 62.0922C79.8859 61.5466 83.3054 56.4235 88.6917 48.1084C93.3667 40.8908 97.2349 34.9847 97.2875 34.9839C97.34 34.9829 101.283 40.9892 106.049 48.3311C115.174 62.3885 115.353 62.6334 117.125 63.5248C118.974 64.4548 121.487 64.6418 123.393 63.9912C124.303 63.6809 157.615 43.4309 158.07 42.9119C158.227 42.7322 158.354 42.4287 158.35 42.2374C158.347 42.0463 153.894 32.5279 148.455 21.0856L138.565 0.281461L137.662 0.233027C136.929 0.193694 136.731 0.239203 136.605 0.476825C136.52 0.63757 135.502 6.05412 134.344 12.5135C132.965 20.1948 132.175 24.2345 132.058 24.1903C131.96 24.1529 126.587 20.6323 120.119 16.3666C113.651 12.101 107.836 8.37525 107.197 8.08724C100.574 5.10363 93.0878 5.25349 86.6091 8.49942C86.0645 8.77231 80.4129 12.4343 74.0503 16.6373C64.1548 23.1737 62.4649 24.236 62.3642 23.9824C62.2995 23.8194 61.3188 18.4974 60.1847 12.1558C59.0507 5.8139 58.0428 0.529648 57.945 0.412787C57.8433 0.291051 57.4273 0.200195 56.9724 0.200195C56.3254 0.200195 56.1345 0.268296 55.9468 0.565893ZM145.748 21.0856C149.911 29.8461 153.49 37.3931 153.701 37.8567L154.085 38.6996L151.021 36.7066C148.371 34.9828 134.621 25.9125 134.478 25.7935C134.449 25.7701 135.26 21.1053 136.279 15.4275C137.298 9.74978 138.142 5.11631 138.155 5.13094C138.168 5.1454 141.584 12.3251 145.748 21.0856ZM58.3058 15.3253C59.2926 20.8057 60.1001 25.4142 60.1001 25.5663C60.1001 25.7519 56.9151 27.9372 50.4189 32.2083C45.0944 35.7095 40.711 38.5471 40.6781 38.5144C40.6452 38.4818 44.1677 30.9825 48.5057 21.8493C52.8439 12.7162 56.4197 5.27007 56.4523 5.30241C56.4849 5.33459 57.3189 9.84503 58.3058 15.3253ZM101.695 8.79718C104.69 9.47478 109.189 11.5255 109.03 12.1408C109.004 12.243 106.367 16.3564 103.169 21.2815C98.8116 27.9934 97.3089 30.1892 97.1694 30.0493C96.9526 29.8316 85.6498 12.4249 85.5388 12.1375C85.3696 11.7 89.5696 9.65308 91.8696 9.05187C94.8988 8.26017 98.8669 8.15729 101.695 8.79718ZM89.5978 22.9547C92.9473 28.0948 95.6918 32.41 95.6964 32.5441C95.7011 32.6782 91.7044 38.9489 86.815 46.4792C80.5606 56.1115 77.7264 60.3391 77.2546 60.7401C75.254 62.4397 72.1208 62.3628 70.1057 60.5645C68.625 59.2432 68.7488 59.7443 65.6714 42.6242C64.1371 34.089 62.9009 27.0549 62.924 26.993C62.9945 26.8038 83.2312 13.5142 83.374 13.5633C83.4476 13.5885 86.2482 17.8146 89.5978 22.9547ZM121.566 20.2521C127.12 23.9057 131.663 26.9912 131.663 27.1086C131.663 27.2259 130.411 34.2762 128.881 42.7757C125.811 59.8241 125.965 59.205 124.459 60.5491C123.28 61.6013 122.1 62.0134 120.516 61.9258C119.082 61.8463 118.106 61.446 117.114 60.5307C116.493 59.9577 98.8731 33.0051 98.8618 32.6111C98.8528 32.2999 111.104 13.5293 111.29 13.5699C111.388 13.5916 116.012 16.5984 121.566 20.2521ZM63.3267 43.2253C64.7853 51.3348 65.9535 57.9951 65.9224 58.0258C65.8156 58.1318 39.9449 42.2522 39.9928 42.11C40.0383 41.9743 60.4206 28.4924 60.592 28.4846C60.6374 28.4825 61.8679 35.1159 63.3267 43.2253ZM144.974 35.6322C150.342 39.1633 154.737 42.0888 154.741 42.1335C154.749 42.2143 128.829 58.0617 128.69 58.0617C128.64 58.0617 133.083 33.0847 133.947 28.5122C133.966 28.4095 135.462 29.3754 144.974 35.6322ZM4.50341 93.8731C2.51864 94.3846 1.11603 95.5362 0.498815 97.1603C0.198314 97.9515 0.1446 98.3606 0.201425 99.4262C0.343078 102.075 1.48645 103.29 5.53723 105.095C8.03998 106.209 9.25296 107.01 9.86133 107.95C10.801 109.401 10.2378 111.234 8.58874 112.092C8.07241 112.361 7.64581 112.428 6.46854 112.426C4.79933 112.422 3.92992 112.099 2.33031 110.888C1.85557 110.529 1.32499 110.235 1.1514 110.235C0.740688 110.235 0 111.203 0 111.74C0 112.447 1.60796 113.531 3.68166 114.221C4.85337 114.611 5.1673 114.649 6.71123 114.585C8.86681 114.497 9.96449 114.106 11.1955 112.99C12.3886 111.907 12.8373 110.88 12.8341 109.239C12.8321 108.222 12.7514 107.837 12.3849 107.093C11.578 105.456 10.4712 104.702 5.71049 102.546C3.09638 101.362 1.98314 99.6458 2.70991 97.9199C3.30469 96.507 4.41744 95.8711 6.31657 95.8589C7.5505 95.851 7.73211 95.8965 9.04367 96.5413C9.81646 96.9211 10.5973 97.232 10.7789 97.232C11.1788 97.232 11.7908 96.3153 11.7908 95.7162C11.7908 94.463 6.95753 93.2405 4.50341 93.8731ZM26.0777 93.8525C25.7929 94.193 17.0311 113.522 17.0311 113.81C17.0311 113.953 17.1195 114.158 17.2276 114.265C17.4986 114.534 18.9197 114.513 19.1989 114.236C19.3234 114.112 19.899 112.942 20.4784 111.635L21.5315 109.259H26.6176H31.7039L32.8282 111.772C33.4466 113.153 34.0569 114.323 34.1845 114.372C34.4966 114.491 35.6102 114.484 35.932 114.362C36.081 114.305 36.1878 114.081 36.1835 113.834C36.1793 113.597 34.1711 108.979 31.7207 103.571C27.2974 93.8081 27.2619 93.7372 26.7606 93.6886C26.4828 93.6617 26.1756 93.7355 26.0777 93.8525ZM42.2905 93.8439C42.1321 94.001 42.0864 96.2716 42.0864 103.998C42.0864 112.828 42.1154 113.978 42.3437 114.205C42.6624 114.521 43.9389 114.547 44.1937 114.242C44.3206 114.091 44.3887 111.64 44.4184 106.17L44.461 98.315L51.0114 106.428L57.5618 114.542H58.2168H58.8719L58.9141 104.483C58.9454 96.9998 58.9072 94.3654 58.7651 94.1954C58.6323 94.0366 58.294 93.9814 57.6584 94.0147L56.743 94.0626L56.6611 101.909L56.5792 109.755L50.1033 101.746C43.9861 94.181 43.5961 93.735 43.061 93.6895C42.7493 93.6631 42.4027 93.7325 42.2905 93.8439ZM88.1219 94.3372C87.9539 94.7225 85.928 99.1832 83.6202 104.25C81.3121 109.316 79.4238 113.642 79.4238 113.862C79.4238 114.083 79.5404 114.308 79.6829 114.362C80.0417 114.498 81.2666 114.481 81.496 114.336C81.5999 114.27 82.182 113.101 82.7897 111.738L83.8945 109.259L88.9874 109.263L94.0804 109.267L95.1296 111.634C95.7067 112.936 96.2831 114.104 96.4105 114.231C96.6948 114.513 98.1128 114.538 98.3873 114.265C98.4954 114.158 98.5838 113.955 98.5838 113.814C98.5838 113.673 96.5681 109.098 94.1043 103.648L89.6248 93.7376L89.0261 93.687C88.4606 93.6392 88.4107 93.6752 88.1219 94.3372ZM123.333 93.8393C119.505 94.4704 116.046 97.6977 115.053 101.563C114.728 102.825 114.723 105.437 115.042 106.78C115.741 109.722 117.833 112.28 120.61 113.586C122.254 114.36 123.46 114.623 125.359 114.623C127.912 114.623 129.654 114.065 131.622 112.615C132.841 111.717 132.939 111.307 132.114 110.562C131.446 109.959 131.126 109.954 130.377 110.534C126.863 113.257 122.407 112.926 119.463 109.724C116.429 106.423 116.569 101.474 119.787 98.287C122.752 95.3504 126.932 95.155 130.41 97.7903C130.831 98.109 131.233 98.3697 131.304 98.3697C131.584 98.3697 132.646 97.1165 132.646 96.7863C132.646 96.3717 131.062 95.1861 129.651 94.545C127.889 93.7446 125.516 93.4795 123.333 93.8393ZM65.0456 94.1764C64.7912 94.429 64.7912 95.6467 65.0456 95.8992C65.1824 96.035 66.0538 96.0943 67.9115 96.0943H70.5807V105.082C70.5807 111.856 70.6292 114.118 70.7773 114.265C71.0321 114.518 72.4221 114.518 72.6769 114.265C72.8249 114.118 72.8734 111.856 72.8734 105.082V96.0943H75.5697C78.0679 96.0943 78.2785 96.0712 78.4355 95.7799C78.5287 95.607 78.605 95.273 78.605 95.0378C78.605 94.8026 78.5287 94.4686 78.4355 94.2957C78.2723 93.9931 78.0246 93.9814 71.7541 93.9814C66.9076 93.9814 65.1919 94.0313 65.0456 94.1764ZM139.314 94.081C139.249 94.1454 139.196 98.6693 139.196 104.134C139.196 111.646 139.244 114.118 139.393 114.265C139.501 114.373 139.938 114.46 140.364 114.46C141.662 114.46 141.653 114.49 141.653 110.223V106.496H144.335H147.016L149.043 110.438L151.069 114.379L152.006 114.428C153.021 114.48 153.607 114.275 153.607 113.866C153.607 113.724 152.723 111.981 151.642 109.991C150.561 108.001 149.678 106.309 149.679 106.231C149.68 106.154 149.99 105.944 150.367 105.765C151.362 105.294 152.655 103.963 153.209 102.839C153.647 101.949 153.689 101.716 153.689 100.158C153.689 98.594 153.649 98.3725 153.211 97.5138C152.615 96.3452 151.28 95.0749 150.046 94.5008L149.104 94.0626L144.268 94.0132C141.608 93.9862 139.379 94.0166 139.314 94.081ZM160.11 94.0828C160.046 94.1462 159.995 97.3492 159.996 101.201C159.998 108.78 160.027 109.088 160.912 110.824C161.417 111.814 162.879 113.282 163.85 113.772C165.636 114.675 168.382 114.906 170.296 114.315C172.867 113.521 174.832 111.352 175.384 108.701C175.493 108.182 175.54 105.325 175.513 100.97L175.469 94.0626H174.405H173.34L173.255 101.052C173.173 107.753 173.155 108.076 172.812 108.915C171.84 111.295 170.262 112.389 167.773 112.41C166.692 112.419 166.302 112.347 165.548 111.999C164.123 111.342 163.154 110.218 162.561 108.533C162.455 108.233 162.352 105.304 162.296 101.052L162.205 94.0626L161.215 94.0152C160.671 93.989 160.174 94.0194 160.11 94.0828ZM182.175 94.3625C182.122 94.5722 182.102 95.0294 182.131 95.3783L182.183 96.013L186.979 96.0943L191.774 96.1756L186.532 104.627C181.234 113.167 180.939 113.73 181.479 114.265C181.625 114.41 183.283 114.46 187.928 114.46C193.126 114.46 194.212 114.422 194.373 114.23C194.484 114.097 194.544 113.632 194.515 113.133L194.466 112.266L189.518 112.185L184.57 112.104L189.884 103.571C192.806 98.8777 195.198 94.888 195.2 94.7046C195.206 93.9903 195.123 93.9814 188.54 93.9814H182.272L182.175 94.3625ZM148.924 96.6529C150.81 97.5816 151.706 99.5536 151.122 101.489C150.854 102.376 149.765 103.545 148.783 103.999C148.007 104.357 147.767 104.38 144.805 104.382L141.653 104.383V100.311V96.2383L144.969 96.2882C147.856 96.3316 148.368 96.3789 148.924 96.6529ZM28.796 102.747C29.8881 105.2 30.757 107.231 30.7269 107.26C30.6967 107.29 28.8225 107.295 26.5619 107.271L22.4517 107.228L24.5141 102.627C25.6485 100.097 26.6291 98.0855 26.6934 98.1576C26.7578 98.2296 27.704 100.295 28.796 102.747ZM91.1143 102.691L93.1415 107.228L89.0423 107.271C86.7875 107.295 84.916 107.288 84.8834 107.256C84.8507 107.223 85.6079 105.448 86.5659 103.312C87.5239 101.175 88.4478 99.105 88.619 98.7124C88.7901 98.3198 88.9655 98.0336 89.0085 98.0765C89.0518 98.1193 89.9993 100.196 91.1143 102.691ZM53.1083 125.553C53.0238 125.665 51.9366 128.389 50.6924 131.608C49.4481 134.826 48.4172 137.475 48.4017 137.495C48.386 137.515 47.6833 134.898 46.8401 131.681C45.4951 126.548 45.2654 125.82 44.966 125.746C44.7783 125.699 43.9255 125.683 43.0708 125.709C41.7525 125.749 41.5089 125.799 41.463 126.037C41.4134 126.294 46.6475 145.114 47.0014 145.951C47.125 146.244 47.2868 146.317 47.8104 146.317C48.3606 146.317 48.5003 146.246 48.6889 145.87C48.8122 145.624 50.01 142.625 51.3504 139.205L53.7878 132.988L56.4315 139.612L59.0753 146.236L59.8192 146.284L60.5632 146.334L60.8105 145.472C63.6655 135.525 66.1712 126.412 66.1301 126.125C66.0796 125.773 66.003 125.754 64.3818 125.71C63.4197 125.684 62.601 125.734 62.4892 125.826C62.3809 125.915 61.6345 128.548 60.8306 131.677C60.0267 134.807 59.3175 137.314 59.2548 137.25C59.1919 137.186 58.1286 134.537 56.892 131.364C55.6553 128.19 54.5632 125.54 54.4651 125.474C54.1757 125.281 53.275 125.333 53.1083 125.553ZM78.6869 125.464C77.7476 125.587 76.4073 126.031 75.3396 126.571C73.2875 127.61 71.777 129.161 70.7515 131.283C69.9359 132.97 69.6963 134.022 69.6963 135.915C69.6963 137.821 69.9342 138.852 70.784 140.628C72.0264 143.225 74.6549 145.344 77.534 146.071C78.822 146.395 81.621 146.391 82.9211 146.062C86.5749 145.137 89.535 142.2 90.4667 138.573C90.6172 137.987 90.7233 136.888 90.7233 135.915C90.7233 132.835 89.8265 130.638 87.6973 128.502C86.6461 127.448 86.1054 127.051 84.9917 126.516C82.9882 125.555 80.7868 125.187 78.6869 125.464ZM143.987 125.586C141.887 126.061 140.346 127.305 139.677 129.064C139.393 129.814 139.341 130.236 139.397 131.364C139.532 134.075 140.706 135.4 144.644 137.286C147.389 138.6 148.255 139.301 148.457 140.372C148.617 141.217 148.124 142.078 147.217 142.538C145.987 143.162 144.773 142.94 142.566 141.689C141.853 141.284 141.133 140.953 140.967 140.953C140.655 140.953 140.339 141.387 139.565 142.876L139.114 143.742L139.77 144.311C140.634 145.061 142.47 145.919 143.727 146.16C144.307 146.271 145.492 146.323 146.511 146.283C147.977 146.224 148.448 146.138 149.222 145.788C150.395 145.257 151.706 144.054 152.272 142.988C152.659 142.262 152.706 141.993 152.705 140.547C152.703 139.157 152.645 138.806 152.306 138.123C151.605 136.714 150.353 135.676 148.045 134.588C144.899 133.106 144.89 133.101 144.31 132.599C143.281 131.71 143.055 130.855 143.611 129.95C144.427 128.622 146.151 128.57 148.6 129.801C149.552 130.279 150.263 130.542 150.445 130.482C150.608 130.428 151.059 129.904 151.447 129.317C152.406 127.867 152.355 127.563 151.027 126.798C148.893 125.569 146.149 125.096 143.987 125.586ZM96.9789 125.87C96.6951 126.152 96.6951 145.678 96.9789 145.959C97.1045 146.084 97.7432 146.154 98.7475 146.154C99.7519 146.154 100.391 146.084 100.516 145.959C100.658 145.819 100.713 144.706 100.713 141.977V138.19H102.266H103.819L105.827 142.132L107.836 146.073L109.696 146.119C111.578 146.166 112.012 146.06 112.012 145.555C112.012 145.426 111.169 143.771 110.139 141.876C109.109 139.982 108.222 138.317 108.167 138.176C108.095 137.99 108.335 137.757 109.035 137.327C110.244 136.587 111.106 135.65 111.663 134.471C112.039 133.675 112.094 133.349 112.094 131.933C112.094 130.516 112.039 130.19 111.663 129.394C110.871 127.719 109.382 126.45 107.602 125.933C106.879 125.724 105.818 125.675 101.944 125.675C98.4534 125.675 97.1227 125.728 96.9789 125.87ZM118.759 125.87C118.611 126.018 118.563 128.477 118.563 135.942C118.563 145.54 118.571 145.823 118.879 145.986C119.335 146.228 122.039 146.201 122.378 145.951C122.623 145.771 122.659 145.25 122.696 141.294L122.738 136.841L126.513 141.457L130.288 146.073L132.221 146.119C135.597 146.199 135.586 146.157 130.818 140.498C128.732 138.022 126.89 135.845 126.725 135.662C126.429 135.332 126.473 135.274 130.272 131.029C132.625 128.401 134.118 126.602 134.119 126.398C134.12 125.778 133.812 125.675 131.949 125.675H130.171L129.68 126.203C129.409 126.494 127.737 128.361 125.963 130.352L122.738 133.972L122.695 130.04C122.666 127.472 122.588 126.033 122.47 125.892C122.229 125.604 119.045 125.586 118.759 125.87ZM81.2317 129.415C86.1092 130.333 88.428 135.913 85.5183 139.73C84.1033 141.587 82.1453 142.505 79.8555 142.385C77.4538 142.259 75.3915 140.889 74.3037 138.696C73.8085 137.697 73.7741 137.517 73.7741 135.918C73.7741 134.401 73.8237 134.103 74.2156 133.273C75.0964 131.407 76.9507 129.915 78.9325 129.477C80.0884 129.222 80.1918 129.219 81.2317 129.415ZM106.904 129.779C108.267 130.676 108.6 132.277 107.703 133.623C106.964 134.73 106.263 134.94 103.281 134.94H100.713V132.082V129.223L103.468 129.278C106.158 129.331 106.24 129.343 106.904 129.779Z" fill="white"/>
</svg>
