<svg width="191" height="79" viewBox="0 0 191 79" fill="none" xmlns="http://www.w3.org/2000/svg">
<path fill-rule="evenodd" clip-rule="evenodd" d="M120.229 0.491491C119.565 0.535739 118.275 0.61888 117.362 0.67616C113.304 0.930937 112.675 0.976802 112.533 1.02772C112.45 1.05752 111.839 1.13106 111.175 1.19117C108.401 1.44221 107.216 1.57303 105.239 1.8468C104.575 1.93873 103.738 2.05319 103.378 2.10118C102.412 2.22998 100.697 2.48445 100.008 2.60113C99.6761 2.6574 99.1328 2.7459 98.8008 2.79782C98.1688 2.89662 95.8504 3.30374 94.475 3.55761C91.7145 4.06697 87.1383 5.02981 85.5719 5.43066C84.2138 5.77838 83.1283 6.04407 82.6545 6.14479C82.3502 6.20954 82.005 6.29935 81.8873 6.34431C81.7696 6.38926 81.3621 6.49988 80.9819 6.59009C80.6016 6.6803 80.0641 6.81931 79.7874 6.89902C79.5108 6.97872 79.0355 7.10985 78.7311 7.19037C77.8106 7.43373 75.9933 7.94449 75.5119 8.09502C75.2629 8.1728 74.8782 8.28686 74.6568 8.34848C74.0083 8.52881 72.6039 8.9528 71.7897 9.21404C71.3748 9.34719 70.492 9.62338 69.828 9.82775C68.3896 10.2706 63.1708 12.0012 62.2076 12.3549C61.5468 12.5974 60.889 12.8345 59.3908 13.3699C58.9896 13.5132 58.5709 13.668 58.4602 13.7137C58.2179 13.8138 57.096 14.2523 56.1967 14.5985C55.8371 14.7369 55.4523 14.8871 55.3416 14.9322C52.6271 16.0384 49.9768 17.138 49.5068 17.3532C49.1748 17.5052 48.4279 17.823 47.8469 18.0596C47.266 18.2962 46.7477 18.5293 46.695 18.5776C46.6425 18.626 46.5458 18.6655 46.4801 18.6655C46.4144 18.6655 45.8795 18.8928 45.2915 19.1706C44.7035 19.4484 44.2011 19.6757 44.175 19.6757C44.149 19.6757 43.6631 19.8947 43.0951 20.1623C42.5271 20.43 41.8161 20.7596 41.5149 20.8947C39.9812 21.5831 32.6189 25.3583 30.0407 26.7784C28.2436 27.7684 24.6164 30.4626 22.4164 32.4415C21.7194 33.0687 21.8067 33.1819 22.631 32.7201C22.9162 32.5602 23.6702 32.1356 24.3065 31.7766C27.9031 29.7473 32.6047 27.3478 37.2336 25.1795C37.6763 24.9722 38.4232 24.6217 38.8935 24.4007C42.5876 22.6647 49.4988 19.8295 53.9835 18.2103C54.6833 17.9576 55.472 17.6677 57.2551 17.0075C57.6437 16.8637 58.0177 16.746 58.0865 16.746C58.1552 16.746 58.2901 16.7006 58.3862 16.645C58.575 16.5359 62.0076 15.3928 63.2387 15.0291C63.6537 14.9064 64.0838 14.7668 64.1944 14.7188C64.4035 14.6282 66.7217 13.9327 67.6733 13.6752C67.9731 13.5941 68.6938 13.3931 69.2747 13.2286C71.9218 12.4791 77.271 11.1407 80.0389 10.5354C80.4539 10.4447 80.9745 10.3287 81.1958 10.2776C82.108 10.0672 83.6397 9.74309 84.0629 9.67096C84.3119 9.62843 84.7646 9.54499 85.0689 9.48529C86.5959 9.18596 87.2806 9.05574 87.7851 8.96886C88.0895 8.91653 88.7006 8.80409 89.1432 8.71913C89.5859 8.63417 90.2649 8.51992 90.6522 8.46516C91.0396 8.41051 91.8092 8.29332 92.3624 8.20483C93.9421 7.95207 94.6078 7.85984 95.5869 7.75791C96.0878 7.70568 96.5631 7.64002 96.6432 7.61193C96.8034 7.55576 98.1707 7.3911 99.656 7.24896C100.182 7.19875 101.359 7.08571 102.272 6.99782C106.692 6.57241 111.464 6.40209 116.777 6.48038C121.367 6.54797 123.64 6.69112 127.371 7.14774C127.814 7.20188 128.38 7.26936 128.629 7.29775C128.878 7.32614 129.24 7.37402 129.434 7.40413C131.772 7.76761 134.594 8.29524 135.671 8.57063C135.864 8.62013 136.34 8.73368 136.727 8.82288C137.114 8.91209 137.567 9.02533 137.733 9.07443C137.899 9.12362 138.261 9.22768 138.538 9.30577C138.815 9.38376 139.245 9.50589 139.494 9.57701C141.428 10.1294 144.712 11.316 146.161 11.986C146.536 12.1592 146.866 12.3011 146.895 12.3011C147.162 12.3011 150.957 14.3783 152.119 15.1602C152.713 15.5598 154.628 16.9889 154.846 17.1958C154.908 17.254 155.412 17.7025 155.966 18.1924C160.073 21.8211 162.821 26.6543 163.731 31.8488C163.799 32.2378 163.896 32.72 163.947 32.9204L164.039 33.2849L175.398 33.3596C181.645 33.4007 186.851 33.4042 186.967 33.3672C187.139 33.3124 187.178 33.2181 187.178 32.8526C187.178 31.7607 186.405 28.9203 185.505 26.7069C182.8 20.0541 177.613 14.4397 170.026 9.9511C168.391 8.98411 165.691 7.62911 163.939 6.89639C163.58 6.74597 163.104 6.54261 162.883 6.44442C159.96 5.148 154.487 3.52518 149.906 2.59629C147.354 2.07895 146.287 1.89075 144.171 1.58455C143.477 1.48413 143.238 1.45342 140.65 1.13328C139.169 0.949929 137.827 0.832745 135.57 0.689395C134.713 0.634944 133.445 0.544226 132.753 0.487754C131.302 0.369256 122.021 0.372083 120.229 0.491491ZM105.038 9.58843C104.429 9.6353 103.298 9.72208 102.523 9.78138C96.7199 10.2252 89.1506 11.3853 83.1072 12.7571C82.4986 12.8952 81.7969 13.052 81.5479 13.1055C81.299 13.159 80.6425 13.3217 80.0892 13.4671C79.5359 13.6124 78.9248 13.7679 78.7311 13.8126C78.5375 13.8572 78.1074 13.9717 77.7754 14.0668C77.4435 14.1621 77.0134 14.2775 76.8197 14.3232C76.6261 14.369 76.2187 14.4831 75.9143 14.5768C75.61 14.6704 75.2135 14.7699 75.0332 14.798C74.8528 14.826 74.6804 14.8894 74.65 14.9388C74.6195 14.9883 74.5208 15.0287 74.4305 15.0287C74.2773 15.0287 73.5334 15.2453 71.84 15.7831C71.4527 15.906 70.7284 16.1344 70.2304 16.2902C68.6224 16.7939 65.2724 17.9344 64.0435 18.3964C63.9605 18.4277 63.0778 18.7551 62.0818 19.1239C61.0859 19.4928 60.0673 19.8778 59.8183 19.9795C59.5693 20.0812 58.8944 20.354 58.3186 20.5858C57.2788 21.0044 56.0345 21.5341 55.217 21.9061C54.9824 22.0128 54.7672 22.1002 54.7387 22.1002C54.7103 22.1002 54.2684 22.2994 53.7568 22.5429C53.2452 22.7864 52.5776 23.0996 52.2733 23.239C50.0161 24.2732 44.9718 26.7885 43.4205 27.6535C42.8949 27.9467 42.2329 28.3153 41.9496 28.4729C40.1953 29.4482 36.9327 31.4527 36.3785 31.8958C36.1725 32.0606 36.1591 32.0974 36.3045 32.0992C36.4021 32.1004 36.5605 32.0572 36.6566 32.003C37.6459 31.446 48.078 26.3173 49.6577 25.6113C49.8514 25.5249 50.5078 25.2275 51.1164 24.9505C51.7251 24.6734 52.6305 24.2782 53.1284 24.0723C53.6264 23.8662 54.2375 23.6085 54.4865 23.4996C55.1048 23.2289 55.2369 23.1748 56.0458 22.8599C56.9366 22.513 57.1486 22.4275 57.4291 22.3018C58.2163 21.9493 66.0433 19.2887 68.0172 18.7026C68.5152 18.5548 69.2848 18.325 69.7274 18.1921C70.1701 18.0591 70.7133 17.9013 70.9346 17.8414C71.156 17.7815 71.5375 17.6697 71.7825 17.5929C72.0275 17.516 72.3111 17.4532 72.4127 17.4532C72.5142 17.4532 72.6759 17.413 72.772 17.3639C72.9567 17.2693 74.381 16.886 75.0592 16.7481C75.2806 16.7031 75.7333 16.5905 76.0652 16.4977C76.3972 16.4051 76.8952 16.282 77.1718 16.2244C77.728 16.1085 78.0213 16.0428 79.1335 15.7854C79.5485 15.6895 80.0691 15.5767 80.2904 15.535C80.5118 15.4933 81.1682 15.362 81.7491 15.2432C83.1807 14.9506 83.7557 14.8401 84.1132 14.7891C84.2792 14.7654 84.8225 14.6712 85.3204 14.5796C86.393 14.3823 87.2742 14.2441 88.2378 14.1219C88.6252 14.0727 89.4626 13.96 90.0989 13.8713C94.4247 13.2682 99.758 12.9072 104.343 12.9072C107.663 12.9072 110.112 13.0434 113.539 13.4184C115.229 13.6034 117.821 14.0176 119.122 14.3108C119.929 14.4926 121.651 14.9147 122.19 15.063C123.155 15.3282 125.813 16.2558 126.57 16.5914C126.762 16.6764 127.088 16.8211 127.296 16.9127C127.875 17.1687 128.936 17.6973 129.383 17.9532C132.143 19.5302 133.667 20.72 135.214 22.5043C137.517 25.1604 138.649 28.0679 138.764 31.6252C138.81 33.0419 138.837 33.231 139.002 33.3198C139.207 33.4302 153.816 33.4106 153.927 33.2998C153.962 33.2645 153.995 33.1508 154 33.0473C154.016 32.7201 153.773 30.5551 153.667 30.081C153.359 28.7067 153.149 27.9214 152.977 27.5049C152.931 27.3938 152.765 26.9846 152.609 26.5957C152.452 26.2068 152.176 25.6228 151.995 25.298C151.814 24.9732 151.666 24.688 151.666 24.6644C151.666 24.5938 151.164 23.8313 150.412 22.7583C149.637 21.6533 147.629 19.5543 146.435 18.6005C144.679 17.1981 142.388 15.7651 140.182 14.6888C139.426 14.3201 138.78 14.0184 138.747 14.0184C138.714 14.0184 138.495 13.9328 138.26 13.828C135.967 12.8039 132.355 11.6995 129.333 11.0985C128.752 10.983 128.073 10.8442 127.824 10.7901C126.943 10.5986 124.82 10.2678 122.995 10.0376C121.911 9.90079 121.213 9.83523 118.066 9.57439C116.598 9.45265 106.663 9.46346 105.038 9.58843ZM35.8504 32.2693C35.9196 32.2974 36.0328 32.2974 36.1019 32.2693C36.1711 32.2413 36.1144 32.2184 35.9761 32.2184C35.8378 32.2184 35.7813 32.2413 35.8504 32.2693ZM5.3937 40.6865C4.34635 40.8398 3.9176 41.0062 3.04218 41.5995C2.04523 42.2751 1.2019 43.5405 1.02364 44.6281C0.855231 45.6557 0.84839 45.8991 0.972933 46.4298C1.2025 47.4077 1.72281 48.2985 2.56272 49.1518C3.41168 50.0142 4.20069 50.5734 5.97275 51.5687C8.78936 53.1507 9.38249 53.7751 9.59727 55.3849C9.77554 56.7211 9.37847 58.127 8.63856 58.7794C7.47471 59.8055 5.4945 59.9661 3.73209 59.1772C2.64662 58.6913 2.2751 58.1662 2.2751 57.1176C2.2751 56.162 2.26142 56.1447 1.50984 56.1447H0.866699V58.0458V59.9468L1.94815 60.2131C2.5429 60.3595 3.39176 60.5312 3.8344 60.5947C4.77421 60.7293 7.43407 60.6752 8.13908 60.5071C9.57333 60.165 11.2643 58.8136 11.875 57.5211C12.4503 56.3033 12.5852 55.0862 12.2771 53.8923C11.8661 52.2994 11.1466 51.518 8.64328 49.9451C7.96836 49.521 7.39544 49.1741 7.37009 49.1741C7.34474 49.1741 6.92363 48.9385 6.43431 48.6506C4.89412 47.7444 4.29102 47.1984 3.89637 46.3535C3.66509 45.8582 3.63411 45.6675 3.64064 44.7797C3.64648 43.9958 3.69366 43.6675 3.8511 43.3148C4.12624 42.6986 4.51838 42.2538 5.07731 41.9238C5.52156 41.6616 5.60919 41.648 6.8524 41.648C8.08073 41.648 8.1927 41.6648 8.69449 41.9247C8.98824 42.0769 9.2831 42.2588 9.3495 42.3288C9.61297 42.6065 9.75673 43.1012 9.81226 43.921L9.8704 44.7797L10.5079 44.81C10.8914 44.8282 11.2021 44.7931 11.2876 44.7219C11.3987 44.6292 11.4297 44.2654 11.4297 43.0535C11.4297 41.5954 11.4175 41.4971 11.2239 41.3929C11.0119 41.2791 9.88962 40.993 8.9147 40.8044C8.15678 40.6578 6.06792 40.5879 5.3937 40.6865ZM22.0933 40.6473C18.7155 40.9341 15.9864 43.1648 14.9253 46.5064C14.4482 48.0087 14.3973 48.4082 14.3986 50.639C14.3998 52.8513 14.4677 53.3641 14.96 54.8774C15.9339 57.8719 18.2147 59.9396 21.2001 60.5344C22.2787 60.7493 24.8038 60.7075 25.8511 60.4574C29.0056 59.7041 31.1496 57.3273 32.0198 53.6191C32.2826 52.4998 32.2778 48.8498 32.0121 47.7093C31.1205 43.8809 29.0332 41.633 25.6046 40.8086C25.1066 40.6888 22.8339 40.5844 22.0933 40.6473ZM108.106 40.6833C106.676 40.8976 105.327 41.7634 104.493 43.0019C103.927 43.8427 103.747 44.4954 103.75 45.6889C103.753 46.5499 103.791 46.7837 104.009 47.272C104.734 48.8922 106.033 50.0418 109.068 51.7473C111.467 53.0953 112.127 53.7972 112.393 55.286C112.676 56.8729 112.078 58.48 110.959 59.1385C109.741 59.8556 107.949 59.8489 106.367 59.1217C105.937 58.924 105.292 58.3889 105.179 58.1363C105.174 58.1244 105.117 57.6827 105.053 57.1549L104.936 56.1952H104.283H103.63L103.602 58.0243L103.575 59.8533L104.005 60.0152C104.415 60.1698 105.121 60.332 106.452 60.578C106.788 60.6399 107.762 60.6906 108.617 60.6906C109.881 60.6906 110.314 60.6515 110.924 60.4814C112.604 60.0141 114.01 58.9122 114.719 57.5085C115.057 56.8403 115.175 56.0745 115.132 54.8263C115.098 53.8334 115.054 53.5866 114.822 53.0832C114.26 51.8665 112.676 50.5998 109.302 48.669C107.836 47.8303 107.076 47.166 106.692 46.3871C106.476 45.9508 106.447 45.7567 106.449 44.7797C106.45 43.8266 106.483 43.6077 106.676 43.2419C107.024 42.5802 107.452 42.1511 108.062 41.8513C108.594 41.5903 108.68 41.5786 109.798 41.6171C111.873 41.6887 112.533 42.1993 112.533 43.7338C112.533 44.754 112.613 44.8493 113.441 44.8104L114.092 44.7797L114.12 43.1429C114.146 41.5766 114.138 41.5014 113.939 41.3943C113.751 41.293 112.835 41.0539 111.627 40.7907C110.991 40.6519 108.768 40.5841 108.106 40.6833ZM48.6517 41.0924L45.8852 41.1429L45.8542 41.4645C45.816 41.8601 45.965 41.9541 46.7906 42.0547C47.4971 42.1409 47.8912 42.3193 48.0703 42.634C48.2694 42.984 48.2562 55.6906 48.0559 56.3972C47.7895 57.3376 47.5565 57.7534 46.968 58.339C45.9646 59.3373 44.9143 59.7319 43.2696 59.7289C40.9347 59.7247 39.5056 58.7505 38.8819 56.7382C38.7044 56.1655 38.6923 55.7072 38.6923 49.5137C38.6923 42.2954 38.6802 42.4489 39.266 42.226C39.4208 42.1671 39.8125 42.0917 40.1364 42.0581C40.9482 41.9743 41.1259 41.8634 41.0874 41.4645L41.0564 41.1429H37.2839H33.5114L33.4804 41.4645C33.4422 41.8601 33.5912 41.9541 34.4168 42.0547C35.1666 42.1461 35.5485 42.335 35.6977 42.6883C35.7775 42.8773 35.8335 44.8575 35.8795 49.1236C35.9439 55.0828 35.9535 55.3126 36.1706 56.0941C36.4983 57.2736 37.0206 58.2129 37.7563 58.9459C38.605 59.7914 39.2507 60.1107 41.0681 60.5831C41.5917 60.7191 44.225 60.7239 44.7418 60.5896C44.9557 60.5341 45.3232 60.4393 45.5583 60.3791C46.8493 60.0485 48.2993 58.8319 48.9257 57.5541C49.5713 56.2368 49.5811 56.1265 49.6576 49.2752C49.6959 45.8581 49.7615 42.94 49.8036 42.7905C49.9242 42.362 50.1885 42.1987 50.9299 42.0942C51.8702 41.9618 51.9618 41.9241 52.0328 41.6399C52.1056 41.3486 51.9528 41.1291 51.6415 41.0783C51.5187 41.0582 50.1733 41.0646 48.6517 41.0924ZM53.1725 41.1144C52.9908 41.182 52.9775 41.2961 52.9775 42.7863C52.9775 43.8955 53.0145 44.4229 53.0982 44.5069C53.1646 44.5736 53.4498 44.6281 53.732 44.6281C54.0142 44.6281 54.2994 44.5736 54.3658 44.5069C54.439 44.4334 54.4877 44.0662 54.4897 43.5725C54.4936 42.5833 54.602 42.4043 55.2635 42.295C56.0702 42.1618 59.5586 42.1852 59.6976 42.3248C59.8631 42.491 59.872 57.7608 59.707 58.419C59.5572 59.0161 59.2763 59.1796 58.1654 59.3162L57.253 59.4284L57.2204 59.7711C57.2008 59.9771 57.241 60.1477 57.321 60.1987C57.4718 60.2946 64.9465 60.3199 65.1922 60.2252C65.2932 60.1863 65.3513 60.0411 65.3513 59.8279C65.3513 59.4482 65.313 59.4282 64.3956 59.3281C64.0637 59.2918 63.6177 59.2113 63.4047 59.1492C62.6415 58.9266 62.6889 59.474 62.6558 50.5078C62.6335 44.5046 62.6557 42.4521 62.7435 42.3457C62.8373 42.2322 63.2487 42.2048 64.7852 42.2097C66.7803 42.2158 67.5923 42.2921 67.7911 42.4917C67.855 42.5559 67.9322 43.006 67.9627 43.492C67.9932 43.978 68.0546 44.4325 68.099 44.5019C68.1474 44.5773 68.399 44.6281 68.7238 44.6281C69.1585 44.6281 69.2885 44.5889 69.3718 44.4328C69.5321 44.132 69.508 41.3458 69.3439 41.2091C69.1928 41.0832 53.5036 40.9912 53.1725 41.1144ZM71.5896 41.2426C71.5212 41.3253 71.4926 41.5013 71.5259 41.6343C71.5718 41.8182 71.6934 41.9031 72.0343 41.9892C72.2808 42.0516 72.5914 42.1026 72.7247 42.1026C73.164 42.1026 73.6037 42.3207 73.7545 42.6137C73.8808 42.8589 73.9023 44.0392 73.9023 50.7213C73.9023 58.4571 73.9001 58.5448 73.6957 58.8057C73.4798 59.0814 73.1044 59.214 72.2157 59.3285C71.8526 59.3752 71.6547 59.4553 71.5869 59.5824C71.4507 59.8379 71.4622 59.9432 71.646 60.1279C71.7838 60.2662 72.2604 60.2866 75.3481 60.2866C79.0846 60.2866 79.1335 60.2806 79.1335 59.8241C79.1335 59.5024 78.944 59.3925 78.2084 59.2879C77.2818 59.1561 76.9482 58.961 76.8494 58.4932C76.8055 58.2849 76.7694 56.5008 76.7694 54.5283V50.942H81.1958H85.6222V54.815V58.6879L85.3475 58.9251C85.1829 59.0672 84.8802 59.1875 84.593 59.2251C83.4914 59.3692 83.4119 59.405 83.3764 59.7741C83.3569 59.9777 83.3972 60.1479 83.4771 60.1987C83.6275 60.2945 90.3275 60.3171 90.6774 60.2229C90.8548 60.1751 90.9037 60.0891 90.9037 59.8249C90.9037 59.5215 90.8661 59.4774 90.5265 59.3827C90.3191 59.3248 90.0257 59.2772 89.8746 59.2769C89.7236 59.2766 89.421 59.2044 89.2022 59.1165C88.4725 58.8234 88.4893 59.0197 88.4893 50.7775C88.4893 43.3326 88.5194 42.6935 88.886 42.3603C88.9867 42.2689 89.3801 42.1488 89.7601 42.0935C90.7775 41.9456 90.9229 41.8652 90.8849 41.4705L90.8534 41.1429H87.1312H83.409L83.3781 41.4645C83.3396 41.8627 83.4716 41.9425 84.4091 42.0879C84.9328 42.1692 85.1717 42.2608 85.3648 42.4546L85.6222 42.7131L85.6549 45.9569C85.6729 47.7409 85.6607 49.3089 85.6277 49.441L85.5676 49.6814L81.1685 49.655L76.7694 49.6287L76.7428 46.6545C76.7148 43.5417 76.7874 42.6963 77.1106 42.3718C77.2367 42.2451 77.572 42.1433 78.1242 42.0641C79.0168 41.936 79.2047 41.7948 79.0904 41.3376L79.0291 41.0924H75.3714C72.2571 41.0924 71.6954 41.1147 71.5896 41.2426ZM116.625 41.1584C116.518 41.2655 116.545 41.7802 116.661 41.8522C116.718 41.8877 117.069 41.9599 117.44 42.0128C117.811 42.0656 118.168 42.1642 118.232 42.232C118.35 42.3552 118.723 43.4579 118.872 44.123C118.916 44.3175 119.029 44.7494 119.124 45.0827C119.219 45.4161 119.339 45.8707 119.39 46.093C119.509 46.6088 119.601 46.9694 119.928 48.2144C120.074 48.77 120.23 49.3838 120.274 49.5782C120.431 50.2657 120.609 50.9445 120.684 51.1441C120.751 51.3226 121.051 52.5074 121.284 53.5181C121.787 55.699 123.027 60.3457 123.123 60.4067C123.285 60.5098 123.815 60.5079 123.979 60.4035C124.088 60.3341 124.4 59.3375 125.678 54.9829C125.759 54.7051 125.864 54.3414 125.91 54.1747C125.956 54.008 126.089 53.5762 126.206 53.215C126.323 52.8539 126.469 52.3765 126.53 52.1543C126.592 51.932 126.749 51.4092 126.879 50.9925C127.009 50.5758 127.229 49.8485 127.369 49.3762C127.93 47.4785 128.151 46.784 128.3 46.4465L128.456 46.093L128.733 46.9516C128.886 47.4239 129.127 48.1967 129.27 48.669C129.412 49.1413 129.626 49.8459 129.743 50.2349C129.861 50.6238 129.994 51.0784 130.039 51.2451C130.084 51.4118 130.28 52.0709 130.474 52.7099C131.549 56.2474 132.181 58.351 132.25 58.6197C132.426 59.3097 132.799 60.3421 132.899 60.4113C133.087 60.5431 133.64 60.4933 133.803 60.3299C133.889 60.2425 133.961 60.0855 133.961 59.9811C133.961 59.8765 134 59.6865 134.048 59.5589C134.145 59.3043 134.369 58.5705 134.567 57.862C134.637 57.612 134.75 57.2256 134.818 57.0033C134.886 56.7811 135.043 56.2583 135.167 55.8416C135.611 54.3462 135.876 53.4544 136.115 52.6594C136.248 52.2149 136.413 51.6466 136.482 51.3966C136.552 51.1466 136.696 50.6693 136.804 50.3359C136.912 50.0025 137.065 49.4797 137.144 49.1741C137.223 48.8685 137.399 48.2548 137.535 47.8103C137.671 47.3658 137.913 46.5476 138.073 45.9919C138.632 44.058 139.019 42.8579 139.202 42.492C139.381 42.1346 139.407 42.1217 140.09 42.0529C140.861 41.975 141.034 41.8546 140.985 41.4267L140.952 41.1429L138.45 41.1158C135.95 41.0888 135.671 41.1214 135.671 41.439C135.671 41.7882 135.942 41.9226 136.831 42.0131C137.351 42.0659 137.786 42.1634 137.868 42.2449C138.016 42.3934 138.001 42.4752 137.528 44.1735C137.435 44.5069 137.322 44.9161 137.277 45.0827C137.231 45.2494 137.074 45.7949 136.927 46.295C136.78 46.7951 136.619 47.3519 136.568 47.5325C136.393 48.1528 136.288 48.5185 136.123 49.0731C136.033 49.3787 135.92 49.7651 135.872 49.9318C135.824 50.0985 135.711 50.4849 135.62 50.7905C135.439 51.4007 135.361 51.6768 135.134 52.5079C135.05 52.8135 134.917 53.2681 134.837 53.5181C134.758 53.7681 134.611 54.2682 134.51 54.6293C134.218 55.6788 134.07 55.7804 133.881 55.0587C133.735 54.499 133.782 54.6612 132.854 51.5481C132.457 50.2147 132.073 48.9191 132.001 48.669C131.429 46.6786 130.715 44.221 130.637 43.9715C130.584 43.8048 130.398 43.1983 130.222 42.6238C130.047 42.0491 129.84 41.5149 129.762 41.4367C129.556 41.2302 128.959 41.2538 128.842 41.4731C128.685 41.7686 128.327 42.8911 128.327 43.0894C128.327 43.1912 128.291 43.3177 128.247 43.3704C128.203 43.4232 128.091 43.7164 127.998 44.022C127.905 44.3276 127.765 44.7822 127.688 45.0322C127.61 45.2823 127.445 45.8278 127.321 46.2445C127.196 46.6612 126.949 47.4568 126.77 48.0124C126.592 48.568 126.364 49.2954 126.264 49.6287C126.164 49.9621 126.002 50.4849 125.905 50.7905C125.807 51.0961 125.538 51.9598 125.307 52.7099C124.615 54.9567 124.587 55.0334 124.454 55.0334C124.374 55.0334 124.224 54.5912 124.052 53.8464C123.901 53.1936 123.575 51.8638 123.329 50.8915C122.841 48.9693 122.584 47.9419 122.356 47.0022C122.275 46.6688 122.132 46.1233 122.039 45.7899C121.946 45.4565 121.833 45.0247 121.788 44.8302C121.227 42.3911 121.223 42.3103 121.65 42.1149C121.787 42.0526 122.182 42.0016 122.528 42.0016C123.286 42.0016 123.529 41.8587 123.482 41.441L123.448 41.1429L120.071 41.1163C118.213 41.1017 116.663 41.1207 116.625 41.1584ZM142.88 41.1597C142.766 41.2746 142.807 41.7696 142.939 41.8731C143.008 41.9272 143.427 42.0207 143.869 42.0809C144.941 42.2266 145.083 42.3854 145.175 43.5367C145.268 44.6945 145.185 58.363 145.083 58.649C144.969 58.9718 144.507 59.1837 143.695 59.286C143.314 59.3341 142.959 59.3998 142.908 59.4319C142.746 59.5319 142.798 60.1579 142.973 60.2252C143.241 60.3288 156.33 60.2926 156.495 60.1879C156.615 60.1116 156.651 59.8004 156.673 58.6488C156.707 56.8719 156.651 56.714 155.968 56.6697C155.213 56.6206 155.124 56.7163 155.042 57.6691C154.94 58.8368 154.832 58.9299 153.466 59.0235C151.909 59.13 148.958 59.0412 148.628 58.8778C148.062 58.5976 148.039 58.4224 148.068 54.5103L148.095 50.942H150.373C152.472 50.942 152.668 50.9572 152.863 51.1345C153.004 51.2632 153.075 51.4492 153.075 51.696C153.075 52.2564 153.249 52.4266 153.782 52.3885L154.231 52.3563L154.259 50.3432C154.289 48.1505 154.293 48.1683 153.71 48.1654C153.27 48.1633 153.075 48.3934 153.075 48.9131C153.075 49.6708 153.045 49.6792 150.376 49.6792H148.045V46.0627C148.045 43.3845 148.076 42.4146 148.165 42.3248C148.341 42.148 153.63 42.1565 153.98 42.3341C154.21 42.4506 154.238 42.5391 154.306 43.3565C154.347 43.8487 154.432 44.3135 154.494 44.3892C154.564 44.4735 154.812 44.5271 155.134 44.5271C155.949 44.5271 155.992 44.4371 155.992 42.7462C155.992 41.7832 155.954 41.2963 155.871 41.2136C155.78 41.1219 154.194 41.0924 149.349 41.0924C145.828 41.0924 142.917 41.1227 142.88 41.1597ZM160.487 41.1585C160.449 41.1962 160.418 41.3543 160.418 41.5097C160.418 41.8621 160.62 41.9771 161.389 42.0635C162.156 42.1498 162.51 42.3608 162.64 42.808C162.707 43.0407 162.732 45.8425 162.712 50.9255L162.682 58.6878L162.407 58.9251C162.243 59.0672 161.94 59.1875 161.653 59.2251C160.536 59.3712 160.471 59.4014 160.438 59.7968C160.413 60.1025 160.444 60.169 160.639 60.2215C160.987 60.3152 173.929 60.2962 174.077 60.2018C174.175 60.1395 174.199 59.6803 174.178 58.2587L174.15 56.3972H173.558C173.133 56.3972 172.943 56.4401 172.886 56.5487C172.843 56.6321 172.754 57.099 172.689 57.5863C172.531 58.7607 172.442 58.8596 171.433 58.9884C170.34 59.1277 166.274 59.0564 165.981 58.8929C165.859 58.8247 165.712 58.5989 165.655 58.3912C165.501 57.836 165.511 43.416 165.665 42.8988C165.831 42.3426 166.038 42.203 166.869 42.0873C167.84 41.9523 167.983 41.869 167.944 41.4645L167.913 41.1429L164.234 41.1164C162.211 41.1019 160.524 41.1208 160.487 41.1585ZM176.783 41.1597C176.645 41.2984 176.719 41.7942 176.892 41.8868C176.989 41.9386 177.339 42.014 177.671 42.0543C178.541 42.1597 178.797 42.3397 178.925 42.935C179.058 43.559 179.064 57.8423 178.931 58.4177C178.814 58.9272 178.545 59.1476 177.944 59.226C176.828 59.3716 176.769 59.4003 176.735 59.8065C176.708 60.1242 176.738 60.1871 176.936 60.2352C177.064 60.2664 180.156 60.2793 183.808 60.2639L190.447 60.236V58.3166V56.3972L190.003 56.3653C189.19 56.307 189.126 56.3575 189.048 57.128C188.941 58.185 188.791 58.663 188.512 58.8471C188.304 58.9836 187.853 59.0172 185.784 59.0503C184.42 59.0721 183.056 59.0523 182.752 59.0063C182.237 58.9286 182.184 58.8943 181.997 58.5187C181.801 58.1257 181.796 57.9125 181.796 50.74C181.796 44.473 181.819 43.2917 181.947 42.8751C182.128 42.2846 182.339 42.1554 183.281 42.0566C184.136 41.9668 184.388 41.7462 184.2 41.2522C184.145 41.1105 183.725 41.0924 180.494 41.0924C178.49 41.0924 176.82 41.1227 176.783 41.1597ZM24.8164 41.7603C26.6383 42.3031 27.9172 43.6967 28.6625 45.9515C29.1545 47.4402 29.2736 48.3476 29.2779 50.639C29.2819 52.8278 29.1236 54.067 28.6684 55.4136C28.2372 56.6893 27.4048 58.0071 26.6245 58.6498C25.6645 59.4404 24.3151 59.8432 22.9421 59.7487C20.8921 59.6077 19.4306 58.5275 18.4078 56.3972C18.0244 55.5987 17.8452 55.0017 17.4594 53.2389C17.3309 52.6517 17.3398 48.7121 17.471 48.0453C17.7237 46.7624 17.7918 46.4693 17.9477 45.9919C18.0385 45.7141 18.2861 45.1475 18.498 44.7326C19.3412 43.0814 20.2118 42.2958 21.7915 41.7605C22.4158 41.549 24.1068 41.5489 24.8164 41.7603ZM185.971 65.4814C185.244 65.6832 184.743 65.9608 184.296 66.4083C183.681 67.0258 183.456 67.6153 183.457 68.6085C183.458 69.3278 183.494 69.492 183.749 69.9386C184.119 70.5871 185.146 71.5491 185.954 72.0051C187.305 72.7677 188.241 73.4373 188.536 73.8528C188.818 74.2496 188.838 74.3389 188.838 75.1873C188.838 75.8539 188.79 76.1974 188.657 76.4747C188.288 77.2498 187.171 77.6893 186.114 77.4762C184.887 77.2286 184.263 76.6969 184.259 75.8945C184.257 75.3285 184.159 75.218 183.697 75.2561L183.305 75.2883L183.276 76.3909C183.259 77.0346 183.29 77.5358 183.348 77.5949C183.488 77.7348 184.124 77.9468 184.639 78.0248C184.875 78.0605 185.093 78.13 185.123 78.1791C185.196 78.2974 187.634 78.2948 187.858 78.1763C187.955 78.1255 188.288 77.9659 188.599 77.8216C189.427 77.4372 190.039 76.8493 190.398 76.0937C190.996 74.8357 190.782 73.4336 189.846 72.4778C189.471 72.0949 188.14 71.1723 187.276 70.6967C185.678 69.8169 185.166 69.1811 185.166 68.0759C185.166 67.3898 185.284 67.0083 185.6 66.6664C186 66.2351 186.51 66.0444 187.249 66.0497C188.407 66.0578 188.954 66.4835 189.074 67.4705L189.14 68.0147L189.56 68.0455L189.981 68.0762L190.047 67.6366C190.114 67.1818 190.053 65.9681 189.957 65.8718C189.893 65.8083 189.367 65.6905 188.234 65.4866C187.271 65.3131 186.583 65.3116 185.971 65.4814ZM160.217 65.6379L157.853 65.6912L157.822 65.9633C157.794 66.2076 157.83 66.242 158.174 66.3005C159.305 66.4924 159.211 65.9888 159.211 71.8492V76.932L158.963 77.0951C158.827 77.1848 158.559 77.2583 158.367 77.2583C157.923 77.2583 157.661 77.4973 157.807 77.7703C157.904 77.9538 158.039 77.9654 160.066 77.9654C162.093 77.9654 162.228 77.9538 162.326 77.7703C162.469 77.5015 162.212 77.2583 161.785 77.2583C161.146 77.2583 161.115 77.1385 161.146 74.7729L161.173 72.6618L161.726 72.6356C162.031 72.6211 162.33 72.6439 162.392 72.6861C162.495 72.7561 163.108 73.7187 163.543 74.4917C164.162 75.5939 165.597 77.782 165.757 77.8681C165.869 77.928 166.523 77.9594 167.323 77.943C168.522 77.9184 168.71 77.8917 168.808 77.7322C168.961 77.4801 168.651 77.2583 168.144 77.2583C167.847 77.2583 167.68 77.1829 167.415 76.9299C167.106 76.6347 164.415 72.7176 164.282 72.3692C164.245 72.2744 164.458 72.0748 164.913 71.7774C165.726 71.2454 165.847 71.1177 166.22 70.3888C166.482 69.8769 166.504 69.7457 166.502 68.7219C166.501 67.7443 166.472 67.5621 166.266 67.2066C165.717 66.258 165.088 65.8787 163.738 65.6825C163.213 65.6062 162.737 65.5528 162.682 65.5641C162.627 65.5754 161.517 65.6086 160.217 65.6379ZM93.0415 65.7076C92.7551 65.8237 92.9162 66.1532 93.3508 66.3403C93.7085 66.4943 93.832 66.6239 94.045 67.0691C94.3845 67.7787 94.6259 68.3342 94.6259 68.4058C94.6259 68.4375 94.7418 68.7179 94.8836 69.0289C95.1669 69.6509 96.8707 73.7634 97.5396 75.4399C98.2745 77.2815 98.5958 77.9852 98.7256 78.0375C98.901 78.1082 99.3541 77.9825 99.3541 77.8632C99.3541 77.8091 99.599 77.1395 99.8983 76.375C100.197 75.6107 100.813 74.0079 101.265 72.8133C102.631 69.2105 103.585 66.8337 103.763 66.5908C103.862 66.4554 104.089 66.3336 104.314 66.2941C104.656 66.2343 104.694 66.1983 104.667 65.9591L104.636 65.6912L103.166 65.6634C101.948 65.6402 101.675 65.6618 101.57 65.7896C101.417 65.9742 101.588 66.2465 101.856 66.2475C101.946 66.2478 102.19 66.2953 102.397 66.3532C102.703 66.4384 102.775 66.5057 102.775 66.7076C102.775 66.8446 102.735 67.0357 102.686 67.1322C102.58 67.3407 102.402 67.786 101.969 68.924C101.927 69.0351 101.77 69.4442 101.621 69.8331C101.471 70.2221 101.245 70.8131 101.118 71.1464C100.535 72.6785 100.139 73.6855 100.059 73.8354C100.012 73.9253 99.924 74.1753 99.8646 74.3911C99.8052 74.6067 99.7159 74.8467 99.6661 74.9243C99.5368 75.1258 99.2909 74.9967 99.2133 74.6866C99.177 74.5413 99.0092 74.1195 98.8404 73.7494C98.6716 73.3793 98.4636 72.8696 98.3783 72.6166C98.2929 72.3636 98.1155 71.9322 97.9838 71.6579C97.8522 71.3835 97.7446 71.1234 97.7446 71.0798C97.7446 71.0361 97.6259 70.7378 97.481 70.4167C97.0566 69.4773 96.9398 69.2003 96.9398 69.1349C96.9398 69.101 96.8544 68.8806 96.7501 68.645C96.2415 67.4965 96.0196 66.8606 96.0505 66.6403C96.0802 66.43 96.1593 66.3872 96.6564 66.3121C97.2491 66.2227 97.4463 66.04 97.231 65.7794C97.1404 65.6699 96.7006 65.6424 95.1418 65.6487C94.0557 65.6531 93.1107 65.6796 93.0415 65.7076ZM106.259 65.7923C106.13 66.1303 106.406 66.343 106.979 66.3465C107.106 66.3473 107.321 66.4595 107.457 66.5959L107.704 66.8438V71.8314V76.8189L107.471 77.0387C107.324 77.1777 107.109 77.2583 106.887 77.2583C106.417 77.2583 106.149 77.4598 106.24 77.7458L106.309 77.9654H110.558C113.728 77.9654 114.837 77.9346 114.927 77.8442C115.005 77.7664 115.048 77.3677 115.048 76.7304C115.048 75.7431 115.046 75.7374 114.774 75.6334C114.31 75.4561 114.082 75.6398 114.01 76.2497C113.976 76.5384 113.896 76.8379 113.832 76.9154C113.74 77.0266 113.32 77.0562 111.832 77.0562C110.045 77.0562 109.938 77.0453 109.757 76.8436C109.582 76.6502 109.562 76.4214 109.529 74.3227L109.493 72.0143L109.761 71.9469C110.202 71.8358 112.417 71.9498 112.558 72.0909C112.627 72.1597 112.733 72.3618 112.793 72.5399C112.883 72.805 112.956 72.8638 113.196 72.8638H113.488V71.5505V70.2372H113.19C112.931 70.2372 112.877 70.2874 112.787 70.6118C112.729 70.8179 112.634 71.0351 112.574 71.0946C112.505 71.1641 111.949 71.1927 111.016 71.1746L109.565 71.1464L109.538 68.8805C109.521 67.5039 109.549 66.5758 109.609 66.516C109.769 66.3551 113.172 66.3705 113.367 66.5329C113.468 66.6166 113.54 66.8637 113.559 67.1876C113.586 67.6502 113.619 67.7184 113.862 67.8035C114.046 67.8684 114.217 67.8616 114.39 67.7824C114.636 67.6699 114.645 67.6319 114.645 66.7577C114.645 65.9636 114.621 65.8368 114.451 65.7453C114.326 65.6783 112.831 65.6407 110.287 65.6407C106.851 65.6407 106.309 65.6611 106.259 65.7923ZM117.932 65.7081C117.895 65.7451 117.865 65.8597 117.865 65.9628C117.865 66.1691 118.12 66.3029 118.692 66.396C119.396 66.5107 119.374 66.3303 119.374 71.8144C119.374 77.4869 119.429 77.1561 118.455 77.2543C117.934 77.3069 117.915 77.3195 117.915 77.6118V77.9149L119.746 77.9424C121.475 77.9684 121.583 77.9589 121.682 77.7727C121.834 77.489 121.567 77.2583 121.088 77.2583C120.86 77.2583 120.607 77.1799 120.466 77.0652L120.229 76.8722L120.199 72.6329C120.175 69.175 120.194 68.384 120.303 68.3419C120.386 68.31 120.646 68.585 120.984 69.0617C122.601 71.3407 126.988 77.4561 127.212 77.7414C127.418 78.004 127.535 78.067 127.774 78.0444L128.075 78.0159L128.126 72.4597C128.153 69.4038 128.216 66.8205 128.265 66.7189C128.365 66.5121 128.724 66.3479 129.077 66.3479C129.206 66.3479 129.416 66.2622 129.545 66.1575C129.746 65.9941 129.76 65.9437 129.644 65.8039C129.451 65.5704 126.155 65.5604 125.856 65.7924C125.665 65.9411 125.665 65.9477 125.899 66.1459C126.035 66.2623 126.282 66.3479 126.482 66.3479C126.714 66.3479 126.908 66.4288 127.074 66.5959L127.321 66.8438V70.7378C127.321 73.9571 127.297 74.6317 127.184 74.6317C127.108 74.6317 126.807 74.3021 126.514 73.8993C126.22 73.4965 125.814 72.9396 125.612 72.6618C125.409 72.384 124.926 71.7021 124.538 71.1464C122.605 68.3809 120.742 65.7844 120.642 65.718C120.503 65.6253 118.023 65.6162 117.932 65.7081ZM131.957 65.782C131.881 65.8737 131.851 66.2713 131.869 66.9185L131.898 67.9137H132.301H132.703L132.755 67.3233C132.79 66.9283 132.865 66.6908 132.98 66.6062C133.185 66.4558 134.906 66.3444 135.62 66.4354L136.123 66.4994V71.6663C136.123 76.6055 136.115 76.8425 135.932 77.0457C135.797 77.1952 135.618 77.2587 135.328 77.2597C134.743 77.2616 134.464 77.3565 134.464 77.5529C134.464 77.9389 134.632 77.9654 137.079 77.9654C139.526 77.9654 139.695 77.9389 139.695 77.5529C139.695 77.3613 139.417 77.2617 138.876 77.2597C138.667 77.2589 138.408 77.1753 138.272 77.0652L138.035 76.8722L138.009 71.7868C137.994 68.676 138.021 66.6434 138.08 66.5519C138.156 66.434 138.416 66.403 139.313 66.4059C139.938 66.4079 140.617 66.4428 140.823 66.4836C141.158 66.55 141.202 66.5963 141.255 66.9326C141.401 67.8686 141.429 67.9137 141.861 67.9137H142.26L142.289 66.9185C142.308 66.2713 142.277 65.8737 142.201 65.782C142.104 65.6645 141.243 65.6407 137.079 65.6407C132.916 65.6407 132.054 65.6645 131.957 65.782ZM144.188 65.7081C143.944 65.9535 144.274 66.3479 144.723 66.3479C144.84 66.3479 145.065 66.415 145.223 66.4969L145.51 66.6459L145.559 70.563C145.61 74.5957 145.645 74.9727 146.068 75.9791C146.433 76.848 147.229 77.57 148.195 77.9082C148.472 78.0051 148.777 78.1257 148.873 78.1765C149.082 78.2866 151.364 78.3014 151.365 78.1927C151.366 78.1511 151.641 78.031 151.976 77.9259C152.799 77.6681 153.568 76.9637 153.986 76.0831C154.389 75.2361 154.477 74.1449 154.482 69.9342C154.484 68.2117 154.519 66.7525 154.56 66.6914C154.676 66.5167 155.05 66.3479 155.32 66.3479C155.456 66.3479 155.673 66.2622 155.802 66.1575C156.002 65.9941 156.017 65.9437 155.901 65.8039C155.786 65.6649 155.501 65.6407 153.98 65.6407C152.588 65.6407 152.168 65.6713 152.079 65.7794C151.871 66.031 152.067 66.2321 152.633 66.3503C153.537 66.5386 153.495 66.2957 153.459 71.215C153.422 76.0618 153.452 75.8778 152.575 76.7532C151.934 77.3922 151.307 77.5984 150.177 77.5413C148.954 77.4795 148.223 77.052 147.709 76.0965C147.497 75.7028 147.49 75.5798 147.46 71.3145C147.424 66.2728 147.38 66.5389 148.3 66.3471C148.885 66.2251 149.06 66.0473 148.848 65.791C148.745 65.6663 148.345 65.6407 146.49 65.6407C145.261 65.6407 144.225 65.671 144.188 65.7081ZM171.283 65.7923C171.096 66.019 171.303 66.2073 171.897 66.3503C172.743 66.5541 172.701 66.2547 172.669 71.8801C172.637 77.5185 172.685 77.2204 171.811 77.2785C171.287 77.3132 171.057 77.5399 171.276 77.8054C171.393 77.9467 171.9 77.9654 175.618 77.9654C180.477 77.9654 180.036 78.0782 180.034 76.8356C180.032 75.8916 179.965 75.6534 179.681 75.5817C179.284 75.4817 179.049 75.6946 178.972 76.2231C178.845 77.1022 178.965 77.0562 176.811 77.0562H174.902L174.701 76.7279C174.515 76.4224 174.503 76.2452 174.527 74.1771L174.553 71.9546L175.71 71.9235C177.179 71.8839 177.566 71.9876 177.723 72.4623C177.857 72.8728 178.101 73.0422 178.353 72.9008C178.503 72.8166 178.526 72.6313 178.526 71.5474V70.2916L178.274 70.2278C177.963 70.1494 177.722 70.3322 177.722 70.6465C177.722 71.144 177.521 71.2047 175.976 71.1744L174.553 71.1464L174.526 68.8458C174.501 66.7254 174.513 66.5393 174.677 66.4717C174.913 66.3741 177.797 66.3776 178.148 66.4759C178.32 66.5241 178.439 66.6376 178.465 66.7787C178.648 67.7581 178.672 67.8121 178.949 67.8442C179.098 67.8615 179.313 67.8258 179.427 67.7648C179.61 67.6667 179.633 67.5575 179.633 66.8061C179.633 66.17 179.594 65.9185 179.475 65.7994C179.337 65.6605 178.823 65.6407 175.363 65.6407C171.97 65.6407 171.391 65.6622 171.283 65.7923ZM163.417 66.5029C164.285 66.7619 164.741 67.5599 164.741 68.8229C164.743 70.7974 163.693 71.9041 161.82 71.9041H161.135L161.103 69.3028C161.086 67.8721 161.107 66.622 161.151 66.5247C161.217 66.377 161.367 66.3479 162.064 66.3479C162.522 66.3479 163.131 66.4176 163.417 66.5029Z" fill="white"/>
</svg>
