<svg width="122" height="61" viewBox="0 0 122 61" fill="none" xmlns="http://www.w3.org/2000/svg">
<path fill-rule="evenodd" clip-rule="evenodd" d="M81.689 0.81725C80.5429 0.941321 79.4478 1.25657 78.4171 1.7593C77.5184 2.19758 76.9157 2.61408 76.0846 3.37125C74.9997 4.35966 68.4704 10.9697 68.1223 11.432C67.9005 11.7265 67.7747 11.8384 67.6652 11.8384C67.5821 11.8384 67.3287 11.701 67.1021 11.5329C66.3298 10.9604 65.0901 10.2892 64.066 9.88904C63.4996 9.66782 62.0081 9.31921 61.442 9.27577C61.1569 9.25392 60.5883 9.20327 60.1785 9.16321C59.2273 9.07028 9.78334 9.08049 8.3137 9.174C6.49127 9.28988 5.87958 9.41454 4.93383 9.86264C3.41683 10.5815 2.32018 11.5599 1.44396 12.9764C1.2271 13.327 0.920124 13.9451 0.798058 14.2769C0.732296 14.4558 0.657398 14.6313 0.631676 14.6671C0.536175 14.7997 0.192979 16.1809 0.124107 16.7095C-0.0702648 18.2022 0.13078 19.77 0.683638 21.0723C1.08767 22.024 1.82428 23.1789 2.33334 23.6586C2.92137 24.2129 2.86896 24.4294 2.12406 24.5232C1.28075 24.6296 0.62118 25.0804 0.277401 25.7855C0.0213492 26.3108 -0.0312608 27.1068 0.015194 29.7534C0.0557529 32.0674 0.0914525 32.4164 0.335519 32.8899C0.4835 33.177 0.845744 33.5295 1.15616 33.6884C1.71018 33.9721 2.04528 34.0072 4.41421 34.0296C6.30137 34.0475 6.67962 34.0665 6.7295 34.1456C6.8436 34.3267 6.78931 34.4537 6.49406 34.6965C6.0021 35.1011 4.92651 36.3441 4.46929 37.0364C3.08996 39.1248 2.28377 41.8217 2.45333 43.78C2.55971 45.0087 2.71709 45.5711 3.34128 46.953C3.55652 47.4294 4.19373 48.3334 4.87539 49.1294C5.18069 49.4859 5.43052 49.8141 5.43052 49.8586C5.43052 50.0255 5.17907 50.0775 4.57366 50.0358C3.79533 49.9822 2.65897 50.0981 2.26997 50.2708C1.42692 50.6451 1.03986 51.2501 0.835572 52.5128C0.615867 53.8708 0.365193 55.4555 0.275004 56.0568C0.218636 56.4323 0.145617 56.88 0.112704 57.0517C0.0285409 57.4908 0.0383243 58.4945 0.129873 58.8129C0.318608 59.4694 0.769875 59.9435 1.4862 60.2379C1.83309 60.3805 1.8581 60.3812 7.11507 60.4136C17.9072 60.4801 104.644 60.4862 105.564 60.4205C107.481 60.2839 108.932 59.8606 110.343 59.0261C112.833 57.5541 114.443 55.5588 115.467 52.6754C115.757 51.8596 116.09 50.0231 116.091 49.229C116.093 48.3873 115.799 46.9984 115.438 46.1448C115.008 45.1281 114.31 44.0767 113.602 43.3787C113.228 43.0096 113.162 42.8382 113.355 42.7357C113.418 42.7026 113.979 42.6643 114.603 42.6506C115.717 42.6259 115.744 42.6221 116.158 42.4215C116.389 42.3093 116.704 42.0979 116.857 41.9518C117.197 41.6264 117.497 41.0111 117.553 40.5226C117.576 40.3219 117.651 39.8358 117.721 39.4424C117.79 39.049 117.89 38.4198 117.943 38.0443C117.996 37.6688 118.068 37.2006 118.102 37.0039C118.136 36.8072 118.224 36.1689 118.298 35.5856C118.483 34.131 118.386 33.6564 117.77 33.0028C117.149 32.3442 116.587 32.2359 113.939 32.2657C112.342 32.2836 112.13 32.2739 112.035 32.1792C111.937 32.0803 111.939 32.0567 112.064 31.8558C112.138 31.7366 112.426 31.4191 112.704 31.1501C112.982 30.8811 114.261 29.6082 115.546 28.3214C118.067 25.7975 118.19 25.6448 118.364 24.8113C118.425 24.5172 118.447 23.0597 118.452 18.8901C118.458 13.861 118.468 13.3443 118.566 13.195C118.625 13.1048 119.195 12.5065 119.834 11.8657C120.827 10.8685 121.028 10.6326 121.228 10.2298C121.356 9.97098 121.493 9.60227 121.533 9.41051C121.581 9.17621 121.599 8.11426 121.586 6.17457L121.568 3.28737L121.336 2.79966C120.909 1.89975 120.188 1.3558 119.165 1.1615C118.495 1.03431 92.1369 1.03717 91.5696 1.16449C90.9277 1.30853 90.4234 1.58977 89.8699 2.11246C89.2264 2.72001 89.2007 2.72599 88.7034 2.38265C88.1211 1.98065 86.8787 1.40691 86.1272 1.19304C84.5296 0.738371 83.3449 0.638035 81.689 0.81725ZM84.637 3.27878C86.2726 3.61504 87.2171 4.12277 88.4265 5.31563C88.8346 5.71814 89.1582 5.98592 89.2364 5.98586C89.3187 5.98579 89.7722 5.57703 90.4681 4.87565C91.0739 4.26511 91.6457 3.71011 91.7387 3.64228C91.898 3.52621 92.0626 3.51873 94.5571 3.5149C96.0142 3.51268 97.3316 3.51177 97.4846 3.51288C97.692 3.51444 97.8035 3.55567 97.922 3.6746C98.0651 3.81818 98.0811 3.88822 98.0819 4.37364C98.0837 5.46824 98.1459 5.47468 99.1354 4.48321C99.5675 4.05026 99.9912 3.64983 100.077 3.59332C100.218 3.50098 101.157 3.49012 109.378 3.48609C114.407 3.48355 118.617 3.50514 118.734 3.53401C119.173 3.64313 119.172 3.63507 119.157 6.51752C119.146 8.64455 119.127 9.1359 119.048 9.2878C118.996 9.38937 118.31 10.1042 117.523 10.8762C116.17 12.2043 116.092 12.2935 116.084 12.5306C116.079 12.6685 116.082 15.3564 116.091 18.5037C116.106 23.4692 116.095 24.257 116.011 24.4594C115.946 24.6153 114.771 25.8337 112.468 28.1334C110.572 30.0258 108.958 31.6097 108.88 31.6531C108.775 31.7117 107.984 31.7327 105.814 31.7344C103.03 31.7366 102.883 31.7307 102.737 31.6124L102.584 31.4882L102.552 28.4432C102.522 25.6496 102.51 25.3965 102.409 25.3771C102.337 25.3631 101.428 26.2335 99.7207 27.953C98.2172 29.4669 96.9618 30.676 96.7104 30.8519C95.9206 31.4053 94.7086 31.8634 93.6753 31.9993C92.9059 32.1005 90.9318 32.1019 90.3709 32.0017C89.7205 31.8854 88.6507 31.5542 88.1742 31.3214C86.6708 30.5871 85.5985 29.283 85.0604 27.5345C84.8851 26.9649 84.8203 26.8563 84.6846 26.9041C84.6228 26.926 83.7121 27.7955 82.6609 28.8363C81.0786 30.403 80.6524 30.7885 80.1855 31.0761C79.5544 31.4646 78.4763 31.8718 77.7368 32.001C77.1292 32.1071 75.4463 32.1091 74.886 32.0044C73.394 31.7256 71.97 30.9589 70.9358 29.8777C70.0815 28.9846 69.237 27.5371 68.8553 26.3112C68.7301 25.9091 68.629 25.6892 68.5697 25.6892C68.5105 25.6892 68.4062 25.9144 68.2763 26.3232C67.2979 29.4018 65.0173 31.2281 61.6398 31.6378C61.2221 31.6884 59.7489 31.7438 58.1052 31.7705C55.3557 31.8153 55.283 31.8133 55.1282 31.6875L54.9696 31.5585L54.9866 21.6189C54.9989 14.4115 55.0234 11.6551 55.076 11.5916C55.1909 11.4526 60.7829 11.5172 61.534 11.6662C63.6176 12.0795 65.0277 12.7757 66.2696 14.0044C66.8824 14.6106 67.465 15.3942 67.7339 15.9736C67.8516 16.2273 67.9909 16.4706 68.0433 16.5143C68.1632 16.6142 68.2217 16.5135 68.4469 15.8193C68.6691 15.1345 69.1848 14.0913 69.6549 13.3756C69.9874 12.8694 70.6273 12.1972 73.972 8.84087C76.1317 6.67358 78.0737 4.77154 78.2875 4.61411C78.9169 4.15054 79.4797 3.84003 80.1055 3.61101C80.6446 3.41371 81.655 3.16785 82.2073 3.09957C82.7048 3.03805 83.8923 3.12564 84.637 3.27878ZM81.8186 4.0952C78.7753 4.64253 76.8164 6.69166 75.7841 10.4078C75.1494 12.6922 75.1395 15.8821 75.7594 18.2761C76.1245 19.6864 76.5168 20.6139 77.1512 21.5669C78.2482 23.215 79.4862 24.1383 81.2679 24.6372C81.8398 24.7973 84.141 24.7937 84.7257 24.6317C86.6712 24.0928 88.2989 22.6942 89.2843 20.7146C90.202 18.8712 90.6307 16.8257 90.6296 14.2957C90.6287 12.1686 90.334 10.5182 89.6748 8.94784C88.8784 7.05042 88.0704 5.99204 86.7395 5.10279C86.3959 4.87325 86.0956 4.68545 86.0721 4.68545C86.0486 4.68545 85.8808 4.61353 85.6992 4.52561C85.2445 4.30543 84.8212 4.19235 84.0033 4.0725C83.143 3.94642 82.6151 3.95188 81.8186 4.0952ZM91.9963 4.38613C91.94 4.45408 91.9261 6.31353 91.941 11.783C91.9607 19.0505 91.9616 19.0922 92.1037 19.7067C92.3971 20.9754 92.5678 21.4177 93.0572 22.1777C93.9561 23.5739 95.5002 24.5019 97.2711 24.7099C98.0155 24.7974 99.448 24.7982 100.156 24.7117C101.224 24.5811 102.499 24.0941 103.17 23.5597C104.466 22.5285 105.181 21.1924 105.45 19.294C105.552 18.5768 105.561 17.8509 105.545 11.4509C105.532 5.9921 105.51 4.38652 105.449 4.34718C105.405 4.31928 104.22 4.30348 102.814 4.31213L100.257 4.3278L100.212 4.49037C100.187 4.57978 100.164 7.65231 100.161 11.3182C100.153 19.1297 100.161 19.0117 99.6075 19.4995C99.3445 19.7312 99.0713 19.7981 98.5443 19.7598C97.81 19.7065 97.4887 19.254 97.3753 18.1135C97.3376 17.7338 97.3083 14.7593 97.3048 10.9645C97.3007 6.38942 97.2781 4.44036 97.2285 4.38047C97.1212 4.25068 92.1038 4.25607 91.9963 4.38613ZM106.957 4.35901C106.874 4.41201 106.86 4.74176 106.86 6.67228V8.92378L107.013 9.04805C107.152 9.16074 107.282 9.17231 108.412 9.17231C109.518 9.17231 109.67 9.18512 109.757 9.28611C109.844 9.38645 109.857 10.286 109.865 16.878C109.873 23.7724 109.882 24.3624 109.981 24.4364C110.064 24.4981 110.622 24.5086 112.395 24.4817C113.662 24.4625 114.796 24.4321 114.913 24.4142C115.065 24.391 115.145 24.3347 115.189 24.2183C115.227 24.1181 115.251 21.2089 115.251 16.6866C115.251 10.1713 115.262 9.30881 115.349 9.23623C115.423 9.17485 115.796 9.15742 116.828 9.16705C118.035 9.17836 118.22 9.16666 118.296 9.07406C118.367 8.98868 118.381 8.52959 118.369 6.71299C118.355 4.71178 118.342 4.44868 118.247 4.37657C118.115 4.27532 107.116 4.25822 106.957 4.35901ZM83.4509 9.0537C84.131 9.25821 84.6357 10.0961 84.9217 11.4948C85.1505 12.6143 85.1722 15.7796 84.9594 17.0085C84.6315 18.9029 84.0004 19.7717 82.9524 19.7717C82.4915 19.7717 82.2414 19.661 81.9039 19.3077C81.4443 18.8266 81.1868 18.156 80.9334 16.7805C80.7707 15.8977 80.7693 13.0228 80.931 12.001C81.0517 11.2391 81.3021 10.3315 81.4985 9.9451C81.895 9.16477 82.6595 8.81577 83.4509 9.0537ZM12.7773 11.6162C12.799 11.6727 12.8166 12.7496 12.8166 14.0092C12.8166 15.7036 12.7964 16.3196 12.7389 16.3773C12.6818 16.4346 12.1334 16.4553 10.6753 16.4553C9.3624 16.4553 8.61472 16.4804 8.46913 16.5294C7.59245 16.8241 7.5344 17.9285 8.35471 18.7073C8.61757 18.9569 9.5028 19.6253 10.1436 20.0583C10.6346 20.39 11.4896 21.2455 11.8434 21.7591C12.531 22.7574 12.8144 23.7652 12.8158 25.2175C12.8183 27.7275 11.6818 29.8365 9.71939 30.9634C9.10026 31.319 8.50639 31.533 7.82777 31.6451C7.09428 31.7664 2.58181 31.7778 2.46311 31.6587C2.40558 31.6009 2.38536 30.9856 2.38536 29.2931C2.38536 27.3082 2.39864 26.9946 2.48559 26.9222C2.56159 26.8589 3.06741 26.8353 4.57509 26.8249C6.75451 26.8099 6.91098 26.7859 7.16127 26.4281C7.47265 25.9828 7.50174 25.4797 7.24517 24.9749C7.06914 24.6286 6.81127 24.381 5.89792 23.6813C4.20747 22.3863 3.2198 21.2757 2.81654 20.2162C2.40901 19.1454 2.36612 18.8875 2.40733 17.7559C2.44821 16.6349 2.48358 16.4431 2.81888 15.5227C3.3834 13.9733 4.44816 12.72 5.75207 12.0702C6.71097 11.5925 7.25029 11.5262 10.2343 11.5191C12.461 11.5139 12.7423 11.5247 12.7773 11.6162ZM25.5667 11.5946C25.608 11.6446 25.6498 12.5244 25.6758 13.8868C25.7099 15.673 25.7013 16.1289 25.6312 16.2603L25.5444 16.4228L24.1098 16.4553C23.3208 16.4732 22.6511 16.5122 22.6215 16.542C22.5919 16.5718 22.553 19.9721 22.5352 24.0982C22.5098 29.9777 22.4853 31.6178 22.4218 31.6814C22.3173 31.7864 17.2362 31.7641 17.109 31.6581C17.0451 31.6049 17.028 30.023 17.028 24.1488C17.028 19.1432 17.0061 16.6657 16.961 16.5811C16.8981 16.4632 16.8129 16.4553 15.5961 16.4553C14.8254 16.4553 14.2474 16.428 14.173 16.388C14.0527 16.3234 14.0477 16.2277 14.0477 13.9853C14.0477 11.8296 14.0564 11.6447 14.161 11.5835C14.3409 11.4784 25.4798 11.4892 25.5667 11.5946ZM35.2172 11.5946C35.2523 11.6393 35.3419 11.9392 35.4164 12.2611C35.5879 13.0014 35.9937 14.8646 36.0396 15.1223C36.1017 15.4715 36.7875 18.7262 37.1219 20.2594C37.3013 21.082 37.5592 22.2964 37.6951 22.958C37.831 23.6197 38.1221 25.0243 38.342 26.0793C38.5619 27.1344 38.7988 28.2903 38.8685 28.6479C39.1225 29.9516 39.407 31.0861 39.4653 31.0276C39.4995 30.9933 39.5277 26.9659 39.5332 21.3486C39.5412 13.3006 39.5573 11.7108 39.6316 11.6208C39.7115 11.5243 39.9705 11.5133 42.1675 11.5133C44.4044 11.5133 44.6258 11.523 44.7467 11.6271C44.8689 11.7322 44.9743 12.0024 45.5648 13.7242C45.6814 14.064 45.8508 14.5322 45.9413 14.7646C46.2375 15.525 46.8171 17.1191 47.1472 18.081C47.7504 19.8392 48.4661 21.8439 48.7954 22.6979C48.9205 23.0225 48.9693 23.093 49.0054 23.0015C49.0643 22.8524 49.0047 22.187 48.7046 19.6417C48.5812 18.5956 48.5589 18.0034 48.5339 15.1011C48.5071 11.9964 48.513 11.7547 48.6179 11.6384C48.7254 11.5192 48.8451 11.5133 51.1614 11.5133C53.3323 11.5133 53.6048 11.5248 53.7106 11.6209C53.8244 11.7243 53.8291 12.1211 53.8291 21.6597C53.8291 30.3759 53.8173 31.6005 53.7326 31.6711C53.5852 31.7939 48.6657 31.7855 48.5463 31.6623C48.4993 31.6138 48.344 31.2522 48.2011 30.8588C47.5941 29.1872 45.754 23.8765 45.3961 22.763C45.0154 21.5788 44.6959 20.7282 44.591 20.6194C44.5116 20.537 44.4992 20.602 44.4992 21.102C44.4992 21.4198 44.5418 21.9162 44.5938 22.2052C44.7485 23.0654 44.8232 25.0953 44.8232 28.4457V31.6036L44.6615 31.71C44.554 31.7807 44.4291 31.8035 44.2889 31.7783C44.0031 31.7268 39.9131 31.7251 36.8378 31.7753C35.457 31.7978 34.2284 31.7976 34.1076 31.7749C33.858 31.7278 33.7776 31.5806 33.7143 31.0539C33.6065 30.1588 33.4543 29.3744 33.3726 29.2923C33.231 29.1502 29.9726 29.1579 29.8546 29.3005C29.8092 29.3554 29.7366 29.6115 29.6932 29.8695C29.4614 31.2471 29.3861 31.5815 29.2849 31.6814C29.186 31.779 28.9338 31.7848 26.4874 31.7464L23.7986 31.7042L23.778 31.5585C23.7667 31.4783 23.831 31.0979 23.9208 30.7132C24.0107 30.3283 24.2329 29.3697 24.4145 28.5829C24.5961 27.7961 24.9183 26.4354 25.1306 25.5591C25.5842 23.6865 25.9966 21.9541 26.5546 19.5766C26.7771 18.6289 27.2358 16.7415 27.5741 15.3824C27.9124 14.0233 28.2523 12.6329 28.3294 12.2925C28.4065 11.9521 28.4919 11.6375 28.519 11.5935C28.5914 11.476 35.1251 11.4771 35.2172 11.5946ZM60.559 16.6929C60.4861 16.7811 60.4673 17.5339 60.4544 20.8709C60.4364 25.5357 60.4663 26.6189 60.617 26.7703C60.8153 26.9692 61.619 26.6532 62.0714 26.1983C63.0207 25.2438 63.5042 23.092 63.2963 20.7471C63.1518 19.1175 62.7976 18.0395 62.177 17.3407C61.6564 16.7545 60.7937 16.4091 60.559 16.6929ZM31.7096 16.9194C31.6946 16.9682 31.6486 17.33 31.6074 17.7234C31.5387 18.3794 31.439 19.1168 31.282 20.1294C31.2486 20.344 31.1171 21.1926 30.9896 22.0152C30.862 22.8377 30.7299 23.6512 30.6959 23.8228C30.6112 24.2504 30.6183 24.672 30.7118 24.7658C30.7647 24.8189 31.0729 24.8438 31.6757 24.8438C32.4079 24.8438 32.5768 24.8258 32.6477 24.7401C32.7393 24.6293 32.7149 24.3574 32.3556 21.4949C32.2703 20.8154 32.1692 19.9375 32.1308 19.5441C32.0925 19.1507 32.0316 18.5278 31.9955 18.16C31.9594 17.7921 31.9299 17.3787 31.9299 17.2413C31.9299 16.983 31.7646 16.7415 31.7096 16.9194ZM92.5414 34.6217C94.2233 34.6368 95.4687 34.6752 95.6838 34.7188C95.8798 34.7586 96.39 34.8399 96.8176 34.8996C98.1938 35.0916 99.4248 35.5988 100.338 36.35C100.77 36.7055 101.277 37.449 101.546 38.1229C101.844 38.8685 101.966 39.6259 101.967 40.7455C101.97 42.7454 101.54 44.3281 100.625 45.6903C99.9687 46.6666 99.1202 47.42 98.0219 48.0017C97.7222 48.1605 97.4452 48.3408 97.4066 48.4024C97.3521 48.4889 97.3859 48.666 97.5549 49.1806C97.8232 49.9975 98.0964 50.8442 98.2316 51.2773C98.2874 51.4561 98.4377 51.8951 98.5655 52.2527C98.6934 52.6104 98.8283 53.0054 98.8652 53.1306C98.9022 53.2558 99.0789 53.7971 99.2579 54.3336C99.437 54.8701 99.6356 55.4992 99.6993 55.7317C99.9154 56.5205 100.096 57.1293 100.153 57.2598C100.376 57.7685 100.433 57.873 100.474 57.8475C100.524 57.8168 100.646 57.1573 100.703 56.6095C100.722 56.4307 100.781 56.021 100.834 55.6992C100.888 55.3773 101.004 54.5764 101.091 53.9194C101.189 53.1923 101.29 52.6644 101.352 52.5701L101.453 52.4153L103.509 52.4142C105.686 52.413 106.16 52.3655 106.686 52.0965C107.029 51.9206 107.194 51.6753 107.312 51.1631C107.397 50.7977 107.398 50.7014 107.319 50.4393C107.17 49.9404 106.842 49.5088 106.18 48.9362C103.757 46.8429 102.868 45.3095 102.879 43.2465C102.886 41.9775 103.265 40.6391 104.07 39.0438C105.276 36.6535 107.259 35.1611 109.841 34.701C110.642 34.558 115.804 34.5465 115.995 34.6872C116.114 34.7744 116.114 34.7917 115.979 35.4187C115.903 35.7719 115.807 36.3536 115.765 36.7113C115.724 37.0689 115.649 37.5318 115.6 37.74C115.55 37.9481 115.481 38.3577 115.446 38.6504C115.272 40.0979 115.217 40.2957 114.973 40.3518C114.894 40.37 113.809 40.3922 112.562 40.4014C110.382 40.4172 110.284 40.4232 110.034 40.5575C109.267 40.9701 108.972 41.7107 109.303 42.3968C109.468 42.738 110.117 43.436 110.683 43.8815C110.897 44.0496 111.345 44.451 111.679 44.7735C112.577 45.6393 112.983 46.2237 113.374 47.2145C113.586 47.7508 113.592 47.7965 113.618 48.8843C113.645 50.0523 113.527 51.1341 113.331 51.5179C113.282 51.6145 113.242 51.7559 113.242 51.8322C113.242 51.9511 112.956 52.7 112.796 53.0005C112.283 53.9635 111.968 54.4405 111.399 55.1123C110.984 55.6023 109.86 56.629 109.549 56.8017C108.356 57.4646 107.497 57.7864 106.439 57.967C105.635 58.1042 100.738 58.1429 100.582 58.0133C100.508 57.9512 100.455 57.9507 100.342 58.011C100.18 58.0983 93.6826 58.1101 93.6052 58.0233C93.5621 57.9749 93.4442 57.4848 93.2572 56.577C93.202 56.3088 93.0808 55.7382 92.9878 55.309C92.8949 54.8798 92.7924 54.3531 92.7603 54.1385C92.7281 53.9239 92.6765 53.6606 92.6456 53.5533C92.5298 53.1514 92.1432 51.1897 91.9278 49.9118C91.7613 48.9235 91.7107 48.7413 91.6024 48.7413C91.4922 48.7413 91.3527 49.3798 91.3468 49.9118C91.3444 50.1263 91.2994 50.5653 91.2468 50.8872C91.1942 51.209 91.1077 51.7358 91.0546 52.0576C91.0015 52.3795 90.8834 53.1257 90.7923 53.7158C90.7011 54.306 90.5814 55.0814 90.5262 55.439C90.4709 55.7967 90.3862 56.2942 90.338 56.5445C90.2897 56.7949 90.2313 57.1753 90.2082 57.3899C90.1851 57.6044 90.1241 57.8459 90.0726 57.9263L89.9792 58.0726H86.9435C84.4829 58.0726 83.8941 58.0561 83.8356 57.9854C83.7959 57.9374 83.7753 57.8861 83.7899 57.8715C83.8045 57.8569 83.8614 57.4349 83.9163 56.9336C83.9713 56.4324 84.0578 55.8325 84.1085 55.6006C84.1592 55.3687 84.236 54.8717 84.2792 54.4962C84.3224 54.1206 84.4097 53.5354 84.4733 53.1956C84.5369 52.8559 84.6229 52.3145 84.6645 51.9926C84.7061 51.6707 84.7701 51.2611 84.8069 51.0822C84.8437 50.9034 84.9431 50.2889 85.0278 49.7167C85.1124 49.1444 85.2271 48.4293 85.2826 48.1275C85.3381 47.8257 85.4007 47.3722 85.4219 47.1196C85.443 46.8671 85.4981 46.4995 85.5444 46.3027C85.5906 46.106 85.6775 45.594 85.7374 45.1648C85.7974 44.7356 85.8866 44.1504 85.9356 43.8642C85.9847 43.5781 86.0582 43.1099 86.0989 42.8238C86.1396 42.5377 86.2264 42.0256 86.2917 41.6858C86.357 41.3461 86.443 40.8193 86.4829 40.5153C86.5226 40.2113 86.5965 39.7431 86.6469 39.4749C86.6973 39.2067 86.7989 38.5629 86.8728 38.0443C86.9467 37.5257 87.0349 36.999 87.069 36.8738C87.1029 36.7487 87.1308 36.5384 87.131 36.4066C87.1312 36.2748 87.1597 36.0923 87.1943 36.0009C87.2289 35.9096 87.275 35.637 87.2967 35.3952C87.3474 34.8299 87.4316 34.6105 87.6075 34.5853C87.6842 34.5743 88.1988 34.5725 88.7512 34.5812C89.3035 34.5899 91.0091 34.6082 92.5414 34.6217ZM17.9243 34.7062C17.9617 34.7733 17.9615 34.8909 17.9237 35.0151C17.8588 35.2287 17.7955 35.6022 17.6471 36.6462C17.5386 37.4096 17.253 39.2095 17.1522 39.766C17.0312 40.4328 17.2803 40.3704 14.6153 40.4021C12.0274 40.433 11.9383 40.4454 11.5426 40.8312C11.0415 41.3196 10.9443 41.9715 11.2856 42.5541C11.4585 42.8493 12.0874 43.4715 12.9568 44.2076C14.2124 45.2707 14.8138 46.0591 15.2743 47.2456L15.5014 47.8309L15.501 49.1965L15.5006 50.562L15.2542 51.4399C14.7804 53.128 13.9933 54.4815 12.7842 55.6873C11.4899 56.9782 9.9919 57.7461 8.24891 58.0121C7.53867 58.1205 2.7031 58.1737 2.51961 58.0752C2.40927 58.0159 2.38607 57.9427 2.38925 57.6639C2.39132 57.4774 2.41724 57.1932 2.44678 57.0322C2.67835 55.7707 2.77411 55.1647 2.77411 54.9607C2.77411 54.8299 2.80339 54.6207 2.83916 54.4957C2.87492 54.3708 2.9504 53.9028 3.0069 53.4557C3.06333 53.0087 3.15138 52.577 3.2025 52.4966L3.29541 52.3503H5.51442C8.48235 52.3503 8.70458 52.2929 9.09183 51.4267C9.45395 50.617 9.21539 49.9833 8.21936 49.1093C7.36011 48.3551 6.12158 47.0603 5.77054 46.5491C4.63256 44.8918 4.45685 42.6754 5.28707 40.4503C5.88386 38.8508 6.53818 37.8343 7.66832 36.7508C8.68132 35.7797 9.76105 35.1473 10.8405 34.8927C11.1256 34.8254 11.5046 34.7335 11.6828 34.6884C11.9183 34.6288 12.8064 34.6053 14.9353 34.6022C17.6034 34.5983 17.8693 34.6075 17.9243 34.7062ZM32.7085 34.6968C32.8084 34.8175 32.7557 35.3567 32.4803 37.0364C32.3573 37.7866 32.2285 38.6334 32.1244 39.3774C32.0368 40.0033 31.9534 40.238 31.787 40.3274C31.7081 40.3697 31.0649 40.3886 30.0442 40.3783C28.7097 40.365 28.4119 40.3784 28.3432 40.455C28.2974 40.506 28.2092 40.8844 28.1473 41.2957C28.0854 41.707 27.9944 42.2922 27.945 42.5962C27.8955 42.9002 27.825 43.3538 27.7881 43.6041C27.6461 44.569 27.1306 47.8468 27.0723 48.156C26.9558 48.7744 26.6654 50.5858 26.1916 53.6508C26.1391 53.9906 26.0541 54.5173 26.0028 54.8213C25.9516 55.1253 25.8636 55.7398 25.8075 56.1869C25.6465 57.4685 25.5794 57.8343 25.4757 57.9944L25.3791 58.1437L22.3239 58.1036C20.6435 58.0816 19.2456 58.0492 19.2174 58.0317C19.1379 57.9824 19.1556 57.6995 19.2905 56.8615C19.3589 56.4368 19.4472 55.8552 19.4866 55.5691C19.6283 54.5426 19.7566 53.6737 19.8493 53.1143C20.0834 51.702 20.1493 51.309 20.2341 50.8221C20.284 50.536 20.3729 49.98 20.4317 49.5866C20.4905 49.1932 20.6238 48.33 20.7278 47.6683C20.8318 47.0067 20.9444 46.2897 20.9781 46.0752C21.427 43.2168 21.583 42.2854 21.7303 41.5822C21.8572 40.9759 21.8652 40.5174 21.7499 40.4441C21.7008 40.4129 20.9567 40.3868 20.0963 40.3863C18.3258 40.3852 18.4188 40.4168 18.5165 39.8491C18.5487 39.6611 18.6046 39.3026 18.6405 39.0522C18.6764 38.8019 18.7491 38.3044 18.8022 37.9468C18.8552 37.5891 18.9325 37.0478 18.9741 36.7438C19.0155 36.4398 19.0903 36.0467 19.1402 35.8703C19.1901 35.694 19.2309 35.437 19.2309 35.2993C19.2309 35.1616 19.2732 34.9474 19.3248 34.8234L19.4187 34.5979H26.0227C31.8552 34.5979 32.6363 34.6095 32.7085 34.6968ZM40.4445 34.6374C40.5732 34.6869 40.5739 34.868 40.4479 35.6058C40.3316 36.2877 40.2004 37.0977 40.0582 38.0118C39.9569 38.6636 39.8816 39.1316 39.6348 40.6454C39.5619 41.0925 39.4331 41.8972 39.3485 42.4336C39.264 42.9701 39.1187 43.8919 39.0257 44.482C38.9326 45.0721 38.8145 45.7744 38.7632 46.0426C38.7119 46.3109 38.6249 46.8376 38.5699 47.2131C38.515 47.5887 38.429 48.1446 38.3789 48.4486C38.3288 48.7526 38.2581 49.2062 38.2218 49.4566C38.1856 49.7069 38.1095 50.2336 38.0528 50.627C37.996 51.0205 37.9081 51.5911 37.8573 51.8951C37.7365 52.6192 37.6141 53.3971 37.3716 54.9839C37.2623 55.6992 37.1471 56.4014 37.1156 56.5445C37.084 56.6876 37.0388 56.9802 37.0151 57.1948C36.9553 57.7353 36.8677 58.0534 36.7681 58.0918C36.6427 58.1401 30.7034 58.0832 30.6224 58.0329C30.5479 57.9867 30.5953 57.0878 30.6975 56.6095C30.7281 56.4665 30.8015 55.9983 30.8608 55.5691C30.9201 55.1399 31.0369 54.3791 31.1204 53.8784C31.2039 53.3777 31.3195 52.6461 31.3771 52.2527C31.4348 51.8593 31.5222 51.3033 31.5714 51.0172C31.6206 50.7311 31.6945 50.2629 31.7357 49.9768C31.7768 49.6907 31.8653 49.1639 31.9324 48.8063C32.064 48.1038 32.2905 46.7231 32.3857 46.0426C32.4183 45.8102 32.4736 45.459 32.5087 45.2623C32.5438 45.0656 32.6186 44.612 32.6749 44.2544C32.7312 43.8967 32.8194 43.3408 32.871 43.0189C32.9996 42.216 33.1386 41.322 33.2551 40.5479C33.3089 40.1902 33.4162 39.5172 33.4935 39.0522C33.5708 38.5873 33.6554 38.0459 33.6813 37.8492C33.8129 36.8539 33.8941 36.353 33.9768 36.0242C34.0269 35.8251 34.0679 35.547 34.0679 35.406C34.0679 35.0856 34.1692 34.7211 34.2774 34.6522C34.3719 34.592 40.2897 34.5777 40.4445 34.6374ZM54.8345 34.7059C54.9015 34.7732 54.9304 34.8774 54.9111 34.9823C54.8941 35.0749 54.8182 35.531 54.7427 35.996C54.5785 37.0054 54.4203 37.9556 54.3422 38.402C54.3109 38.5808 54.2551 38.9801 54.2182 39.2891C54.132 40.0111 54.0472 40.2494 53.8493 40.3249C53.7623 40.3581 53.0131 40.3853 52.1844 40.3853C50.5165 40.3853 50.3621 40.4105 49.4881 40.8251C47.5325 41.7529 46.0691 45.1968 46.2026 48.5571C46.2448 49.6186 46.3647 50.2143 46.6507 50.7821C47.0434 51.5614 47.649 52.0709 48.3646 52.224C48.9531 52.3499 49.9081 52.4172 50.9158 52.4038C51.4694 52.3964 51.9608 52.4142 52.0079 52.4434C52.1093 52.5063 52.06 53.2666 51.917 53.8459C51.8685 54.0426 51.7821 54.54 51.7251 54.9513C51.668 55.3626 51.5789 55.9186 51.5269 56.1869C51.475 56.4551 51.3869 56.9672 51.3311 57.3248C51.2691 57.7216 51.192 58.0042 51.1331 58.0496C51.0633 58.1036 50.4437 58.116 48.8856 58.0946C46.6038 58.0632 45.6688 57.9667 44.7955 57.6726C42.6203 56.94 41.0149 55.2727 40.297 53.0005C40.06 52.2508 40.0539 52.2187 39.9319 51.0923C39.7439 49.3578 39.8194 47.7978 40.1983 45.5875C40.3561 44.6667 40.7022 43.4526 41.0787 42.4987C42.1063 39.8952 43.6518 37.9241 45.7702 36.5152C46.4178 36.0845 47.8306 35.3749 48.3543 35.2173C48.5681 35.1529 48.7722 35.079 48.8078 35.053C48.8434 35.0271 48.9892 34.9871 49.1318 34.9641C49.2743 34.9412 49.6387 34.8755 49.9416 34.8183C50.8606 34.6444 51.2656 34.6167 53.0308 34.6071C54.533 34.5989 54.7392 34.6102 54.8345 34.7059ZM62.6286 34.8428C62.6398 34.9596 62.6054 35.2669 62.5521 35.5256C62.499 35.7843 62.4226 36.2301 62.3824 36.5162C62.3422 36.8023 62.2688 37.2998 62.2193 37.6216C62.1696 37.9435 62.0834 38.5141 62.0275 38.8897C61.9716 39.2652 61.8837 39.8065 61.8321 40.0927C61.7805 40.3788 61.6904 40.9494 61.6317 41.3607C61.5732 41.772 61.4858 42.2694 61.4376 42.4662C61.3141 42.9706 61.2469 43.8686 61.3289 43.9194C61.3652 43.9419 61.4262 43.9224 61.4645 43.8761C61.5747 43.7428 62.3721 42.1787 64.222 38.467C65.1667 36.5715 65.9987 34.9255 66.0709 34.8092L66.2022 34.5979H69.4023C72.801 34.5979 72.8147 34.5991 72.7057 34.8985C72.6813 34.9656 72.5781 35.1438 72.4764 35.2945C72.3747 35.4452 71.9751 36.1036 71.5884 36.7576C71.2018 37.4117 70.595 38.4296 70.2401 39.0197C69.8852 39.6098 69.3756 40.4584 69.1075 40.9055C68.8394 41.3526 68.1594 42.4792 67.5965 43.409C66.2938 45.5605 66.1425 45.8374 66.1408 46.074C66.1399 46.1807 66.2677 46.6635 66.4246 47.147C66.7481 48.1433 67.3416 50.0409 67.391 50.2369C67.4224 50.3614 67.7012 51.3022 68.5469 54.1385C68.7602 54.8538 69.0032 55.6439 69.0869 55.8942C69.1706 56.1446 69.2575 56.4604 69.28 56.5959C69.3025 56.7315 69.3734 56.9656 69.4375 57.1162C69.5935 57.4825 69.666 57.9825 69.5716 58.0412C69.4681 58.1053 63.0195 58.0888 62.9551 58.0241C62.9258 57.9947 62.8289 57.611 62.7397 57.1714C62.6504 56.7318 62.5653 56.3525 62.5505 56.3283C62.5356 56.3042 62.4759 56.0064 62.4178 55.6666C62.3159 55.071 62.2562 54.7948 61.8623 53.0981C61.7627 52.6689 61.6463 52.1129 61.6037 51.8626C61.5612 51.6122 61.4888 51.2464 61.4429 51.0497C61.397 50.853 61.234 50.0399 61.0806 49.2428C60.857 48.0805 60.7825 47.7973 60.704 47.8125C60.6358 47.8257 60.5797 47.989 60.5186 48.3514C60.4704 48.6374 60.3894 49.0908 60.3386 49.359C60.2538 49.8073 60.0527 51.1254 59.9122 52.1552C59.8551 52.5735 59.8337 52.7077 59.6324 53.9109C59.5755 54.2507 59.4531 54.9822 59.3604 55.5366C59.2677 56.0909 59.1503 56.8518 59.0996 57.2273C59.0474 57.6131 58.9675 57.9501 58.9159 58.002C58.8393 58.079 58.3386 58.0914 55.8269 58.0784C54.1782 58.07 52.8026 58.0464 52.7699 58.0261C52.707 57.9871 52.7536 57.1869 52.8543 56.577C52.8868 56.3803 52.958 55.9268 53.0125 55.5691C53.067 55.2115 53.1755 54.5384 53.2535 54.0735C53.3316 53.6085 53.4059 53.1257 53.4186 53.0005C53.4461 52.7298 53.6028 51.6398 53.7316 50.8221C53.7824 50.5002 53.8676 49.9296 53.9212 49.5541C54.164 47.8511 54.406 46.3047 54.6388 44.9697C54.7543 44.3075 54.9034 43.3606 54.9971 42.6937C55.0373 42.4076 55.1102 41.9541 55.1591 41.6858C55.208 41.4176 55.2819 40.9787 55.3233 40.7104C55.3647 40.4422 55.4401 39.974 55.4908 39.67C55.5416 39.366 55.609 38.9271 55.6405 38.6946C55.7231 38.0872 55.8811 37.0686 56.0036 36.3536C56.0619 36.0138 56.1243 35.531 56.1425 35.2807C56.1965 34.5339 55.8945 34.594 59.4927 34.6135L62.6082 34.6304L62.6286 34.8428ZM86.0102 34.705C86.0328 34.7639 86.0035 35.02 85.9452 35.274C85.8869 35.528 85.8081 36.0285 85.7702 36.3861C85.7322 36.7438 85.6591 37.2705 85.6077 37.5566C85.4155 38.626 85.3173 39.2867 85.3173 39.5096C85.3173 39.6359 85.275 39.8407 85.2234 39.9647L85.1295 40.1902L82.6156 40.1912C80.7388 40.1919 80.0612 40.2126 79.9421 40.2732C79.696 40.3982 79.5985 40.8072 79.4195 42.4662C79.3906 42.7344 79.3494 42.9986 79.3279 43.0533C79.3065 43.1079 79.3276 43.2058 79.3748 43.2706C79.4547 43.3803 79.619 43.3893 81.7055 43.3988C83.364 43.4064 83.9706 43.4296 84.0286 43.4878C84.11 43.5694 84.0485 44.088 83.7642 45.7175C83.6986 46.093 83.6117 46.6198 83.5711 46.888C83.5304 47.1562 83.4548 47.5958 83.403 47.8649C83.3512 48.1339 83.3088 48.4274 83.3088 48.5169C83.3088 48.6065 83.2634 48.7448 83.2079 48.8243L83.1071 48.9689H80.8207C78.7254 48.9689 78.5258 48.9784 78.4322 49.0827C78.3242 49.2029 78.1858 49.8509 78.0606 50.8221C78.0191 51.144 77.9467 51.6122 77.8996 51.8626C77.8287 52.2399 77.8287 52.341 77.8997 52.4537C77.984 52.5874 78.0134 52.589 79.7912 52.5588C81.9817 52.5215 83.1058 52.5771 83.1625 52.7257C83.184 52.7817 83.1377 53.1664 83.0598 53.5806C82.9818 53.9947 82.8733 54.6555 82.8184 55.0489C82.7636 55.4423 82.6776 55.9837 82.6272 56.2519C82.5769 56.5201 82.5014 57.0102 82.4593 57.341C82.4173 57.6717 82.3455 57.9734 82.2999 58.0115C82.1965 58.0976 70.7385 58.0977 70.6527 58.0116C70.5945 57.9533 70.7394 56.6283 70.9021 55.7317C70.9508 55.4634 71.0232 54.9806 71.063 54.6587C71.1029 54.3368 71.19 53.7809 71.2565 53.4232C71.3231 53.0656 71.4686 52.1877 71.5798 51.4724C71.691 50.7571 71.8418 49.8061 71.915 49.359C71.9882 48.912 72.0718 48.3413 72.1008 48.091C72.1299 47.8406 72.1988 47.3578 72.2538 47.018C72.3088 46.6783 72.3848 46.2101 72.4225 45.9776C72.4602 45.7451 72.5213 45.3501 72.5581 45.0998C72.5951 44.8494 72.6652 44.4105 72.7142 44.1243C72.7631 43.8382 72.8509 43.2822 72.9093 42.8888C72.9677 42.4954 73.0452 42.0419 73.0816 41.8809C73.1179 41.72 73.1731 41.3688 73.2041 41.1006C73.2883 40.3727 73.4577 39.2722 73.4948 39.2118C73.5128 39.1827 73.5564 38.9447 73.5917 38.6829C73.6271 38.4211 73.6999 37.9435 73.7537 37.6216C73.8453 37.0722 73.9395 36.4641 74.1111 35.3132C74.2301 34.5152 73.5285 34.5979 80.1785 34.5979C85.4964 34.5979 85.9726 34.6067 86.0102 34.705ZM93.1788 39.7351C93.1018 39.7662 93.0244 39.8447 93.007 39.9096C92.953 40.1103 92.7806 41.1065 92.7053 41.6533C92.6658 41.9394 92.5925 42.4076 92.5423 42.6937C92.3644 43.7096 92.1712 44.972 92.17 45.1272C92.1675 45.4696 92.5505 45.5425 93.2214 45.3274C94.3346 44.9705 95.0405 44.2101 95.4332 42.9451C95.6299 42.3114 95.629 41.387 95.4313 40.9372C95.173 40.35 94.5644 39.866 93.9633 39.7698C93.435 39.6853 93.3152 39.68 93.1788 39.7351ZM119.041 55.4111C119.237 55.4439 119.389 55.4409 119.426 55.4035C119.465 55.3642 119.347 55.3443 119.102 55.3492L118.717 55.3568L119.041 55.4111ZM118.137 55.5188C117.951 55.5664 117.572 55.819 117.315 56.0667C116.724 56.6366 116.517 57.1384 116.526 57.9751C116.531 58.3763 116.565 58.6217 116.636 58.7554C116.693 58.8627 116.74 58.9871 116.74 59.0318C116.741 59.0765 116.763 59.1139 116.789 59.1148C116.816 59.1158 116.909 59.2329 116.997 59.3749C117.084 59.517 117.201 59.631 117.256 59.6282C117.323 59.6248 117.329 59.612 117.275 59.5902C117.231 59.5722 117.194 59.516 117.194 59.4653C117.194 59.4147 117.151 59.3732 117.097 59.3732C117.044 59.3732 117 59.3326 117 59.2831C117 59.2335 116.956 59.1092 116.903 59.0067C116.85 58.9043 116.806 58.7563 116.806 58.678C116.806 58.5996 116.776 58.5174 116.741 58.4953C116.661 58.4461 116.653 57.2923 116.732 57.2923C116.764 57.2923 116.808 57.1753 116.83 57.0322C116.853 56.8891 116.901 56.7721 116.936 56.7721C116.971 56.7721 117 56.7273 117 56.6725C117 56.6177 117.044 56.5561 117.097 56.5355C117.151 56.5149 117.194 56.4622 117.194 56.4182C117.194 56.3263 117.55 55.9918 117.647 55.9918C117.683 55.9918 117.713 55.9651 117.713 55.9325C117.713 55.8507 118.24 55.6016 118.413 55.6016C118.491 55.6016 118.555 55.5724 118.555 55.5366C118.555 55.4699 118.361 55.4617 118.137 55.5188ZM119.494 55.5366C119.516 55.5724 119.618 55.6016 119.72 55.6016C119.903 55.6016 120.249 55.7542 120.419 55.9105C120.468 55.9552 120.557 55.9911 120.617 55.9903C120.701 55.9892 120.689 55.9602 120.563 55.8613C120.474 55.7912 120.344 55.7148 120.275 55.6917C120.205 55.6685 120.108 55.6095 120.06 55.5605C119.958 55.4581 119.432 55.4359 119.494 55.5366ZM120.734 56.154C120.755 56.2074 120.798 56.2347 120.83 56.2145C120.898 56.1724 120.844 56.0568 120.756 56.0568C120.724 56.0568 120.714 56.1005 120.734 56.154ZM121.024 56.4957C121.106 56.6299 121.188 56.7542 121.208 56.7721C121.324 56.878 121.433 57.3319 121.455 57.8069C121.481 58.3608 121.459 58.4557 121.154 59.1124C121.04 59.3601 120.551 59.8934 120.439 59.8934C120.4 59.8934 120.369 59.9227 120.369 59.9584C120.369 60.061 120.563 60.0342 120.605 59.9259C120.625 59.8723 120.67 59.8284 120.703 59.8284C120.783 59.8284 121.14 59.4441 121.217 59.2756C121.249 59.2041 121.301 59.1017 121.332 59.048C121.574 58.6229 121.6 58.5177 121.6 57.9426C121.6 57.5601 121.568 57.2828 121.51 57.1723C121.461 57.0773 121.366 56.8845 121.3 56.7438C121.183 56.4959 120.991 56.2519 120.914 56.2519C120.894 56.2519 120.943 56.3617 121.024 56.4957ZM118.205 56.7449C118.143 56.9081 118.16 59.0365 118.224 59.0762C118.256 59.0959 118.293 58.8913 118.306 58.6216C118.323 58.2808 118.36 58.1126 118.427 58.0704C118.479 58.0369 118.739 58.0092 119.005 58.0086C119.441 58.0077 119.505 58.0245 119.669 58.1823C119.823 58.3309 119.851 58.4089 119.851 58.7026C119.851 58.8926 119.874 59.048 119.903 59.048C119.966 59.048 119.919 58.2499 119.854 58.2027C119.723 58.1081 119.742 57.9153 119.916 57.5843L120.105 57.2229L119.982 57.0193C119.806 56.7293 119.543 56.642 118.846 56.642C118.357 56.642 118.237 56.6614 118.205 56.7449ZM119.462 56.8046C119.506 56.8583 119.583 56.9022 119.633 56.9022C119.683 56.9022 119.753 56.9772 119.787 57.0689C119.872 57.2919 119.868 57.6825 119.781 57.6825C119.743 57.6825 119.668 57.7264 119.615 57.78C119.511 57.8839 118.591 57.9216 118.451 57.8278C118.412 57.8015 118.363 57.6129 118.343 57.4086C118.312 57.0996 118.327 57.0094 118.435 56.8721C118.549 56.7266 118.613 56.7071 118.973 56.7071C119.257 56.7071 119.406 56.7368 119.462 56.8046ZM117.463 59.8654C117.557 59.9609 117.673 60.0228 117.722 60.0031C117.782 59.9786 117.763 59.953 117.664 59.9227C117.584 59.8983 117.518 59.8555 117.518 59.8277C117.518 59.8 117.467 59.7581 117.405 59.7346C117.328 59.7058 117.347 59.7485 117.463 59.8654ZM117.826 60.1315C117.871 60.1496 117.943 60.1496 117.988 60.1315C118.033 60.1135 117.996 60.0988 117.907 60.0988C117.818 60.0988 117.781 60.1135 117.826 60.1315ZM120.162 60.1329C120.209 60.1517 120.265 60.1493 120.287 60.1278C120.308 60.1062 120.27 60.0908 120.202 60.0936C120.126 60.0967 120.111 60.1121 120.162 60.1329ZM118.637 60.3583C118.931 60.3921 119.307 60.3919 119.544 60.3578C119.896 60.3071 119.831 60.2997 119.041 60.3001C118.177 60.3005 118.158 60.3033 118.637 60.3583Z" fill="white"/>
</svg>
