<svg width="188" height="27" viewBox="0 0 188 27" fill="none" xmlns="http://www.w3.org/2000/svg">
<path d="M37.7706 24.6678C35.1456 24.6678 32.7393 24.3758 30.6246 22.2588L33.3591 19.5214C34.7445 20.9084 36.531 21.0909 37.8436 21.0909C39.3019 21.0909 40.7968 20.6164 40.7968 19.3389C40.7968 18.4994 40.3593 17.9154 39.0103 17.8059L36.3852 17.5504C33.3591 17.2584 31.4997 15.9444 31.4997 12.842C31.4997 9.37453 34.5622 7.47656 37.9894 7.47656C40.6145 7.47656 42.802 7.91456 44.4062 9.44753L41.8176 12.0755C40.8332 11.1995 39.3749 10.944 37.9165 10.944C36.2394 10.944 35.5466 11.7105 35.5466 12.55C35.5466 13.1705 35.8018 13.864 37.2967 14.01L39.9217 14.2655C43.2395 14.594 44.9167 16.3459 44.9167 19.1929C44.9167 22.9158 41.7447 24.6678 37.7706 24.6678Z" fill="white"/>
<path d="M52.2083 24.4847C48.7812 24.4847 47.3593 22.0758 47.3593 19.6668V11.3449H45.5728V8.16949H47.3593V3.20557H51.5521V8.16949H54.5053V11.3449H51.5521V19.4113C51.5521 20.3603 51.9896 20.9443 53.0104 20.9443H54.5417V24.4847H52.2083Z" fill="white"/>
<path d="M56.3649 4.81278V1.38184H60.6671V4.81278H56.3649ZM56.4378 24.486V7.69624H60.6306V24.486H56.4378Z" fill="white"/>
<path d="M70.0736 24.6678C66.7193 24.6678 62.563 22.8793 62.563 16.0539C62.563 9.26504 66.7193 7.47656 70.0736 7.47656C72.407 7.47656 74.1206 8.17005 75.6154 9.73953L72.7716 12.5865C71.8966 11.6375 71.1674 11.2725 70.0736 11.2725C69.0892 11.2725 68.2871 11.6375 67.7037 12.3675C67.0475 13.1705 66.7558 14.302 66.7558 16.0904C66.7558 17.8789 67.0475 19.0104 67.7037 19.8499C68.3236 20.5799 69.0892 20.9449 70.0736 20.9449C71.1674 20.9449 71.8966 20.5434 72.7716 19.6309L75.6154 22.4413C74.1206 23.9378 72.407 24.6678 70.0736 24.6678Z" fill="white"/>
<path d="M87.1727 24.485L83.0528 17.4771L81.2663 19.4846V24.485H77.0735V1.52686H81.2663V14.5572L86.8446 7.69526H91.9124L85.9331 14.4842L92.3864 24.5215H87.1727V24.485Z" fill="white"/>
<path d="M95.8501 17.3678C95.8501 19.5213 97.1626 21.0907 99.5325 21.0907C101.355 21.0907 102.267 20.5797 103.324 19.5213L105.876 22.0032C104.163 23.7187 102.522 24.6312 99.496 24.6312C95.522 24.6312 91.7302 22.8427 91.7302 16.0173C91.7302 10.5424 94.6834 7.43994 99.0585 7.43994C103.725 7.43994 106.387 10.8709 106.387 15.4698V17.3313H95.8501V17.3678ZM101.866 12.6959C101.428 11.7104 100.48 10.9439 99.0585 10.9439C97.6366 10.9439 96.6887 11.6739 96.2512 12.6959C95.996 13.3164 95.8866 13.7543 95.8501 14.4843H102.23C102.194 13.7543 102.121 13.3164 101.866 12.6959Z" fill="white"/>
<path d="M117.47 12.2581C116.814 11.6011 116.267 11.2726 115.246 11.2726C113.97 11.2726 112.548 12.2581 112.548 14.3751V24.4854H108.356V7.69568H112.439V9.30166C113.241 8.31617 114.845 7.51318 116.668 7.51318C118.309 7.51318 119.476 7.91468 120.642 9.08266L117.47 12.2581Z" fill="white"/>
<path fill-rule="evenodd" clip-rule="evenodd" d="M17.718 26.3465C17.4627 26.456 17.1346 26.4195 16.8065 26.456C16.5148 26.456 16.1137 26.456 15.9314 26.31C15.8221 26.237 15.8221 26.0545 15.8221 25.945C15.8221 25.8355 15.8585 25.653 15.8585 25.5435C15.895 25.3975 15.9314 25.1785 15.8585 25.069C15.7856 24.9595 15.5304 24.996 15.3846 24.923C15.2387 24.85 15.2023 24.631 15.1658 24.412C15.1658 24.339 15.0929 24.266 15.0929 24.2295C15.0564 23.901 15.1658 23.4265 15.2387 23.098C15.3116 22.733 15.421 22.4046 15.4939 22.0396C15.6033 21.5286 15.6033 20.9446 15.5669 20.3971C15.5669 20.1051 15.4939 19.8861 15.5669 19.6671C15.6033 19.4481 15.7127 19.2656 15.7492 19.0466C15.7492 18.9736 15.7492 18.9006 15.7492 18.8276C15.7492 18.7546 15.7856 18.7181 15.7856 18.6451C15.7856 18.4991 15.7492 18.3166 15.7492 18.1341C15.7127 17.6596 15.7492 16.9661 15.7856 16.5646C15.7856 16.4186 15.8585 16.2726 15.7492 16.1996C15.2387 16.1996 14.8012 16.2726 14.3272 16.3456C13.0876 16.4916 11.4834 16.5281 10.2803 16.2726C10.1709 16.2361 10.0615 16.2361 9.95213 16.2361C9.07711 16.0536 8.31147 15.6522 7.69166 15.1777C7.58228 15.1047 7.47291 15.0317 7.36353 14.9222C7.25415 14.8492 7.14477 14.7397 7.0354 14.6667C6.56143 14.4477 5.90516 14.7032 5.6864 15.0317C5.61348 15.1412 5.54057 15.3237 5.46765 15.4697C5.39473 15.6157 5.32181 15.7617 5.28535 15.9076C4.95722 16.6376 4.59263 17.3676 4.26449 18.0976C4.0822 18.5356 3.86344 19.0101 3.7176 19.4846C3.42593 20.5066 3.68114 21.8571 3.93636 22.8425C3.97282 22.9155 4.00928 23.025 4.04574 23.1345C4.11866 23.3535 4.26449 23.682 4.44679 23.828C4.55617 23.901 4.702 23.974 4.81138 24.047C4.95722 24.1565 5.03014 24.3755 5.13951 24.5945C5.17597 24.6675 5.24889 24.777 5.28535 24.8865C5.39473 25.1055 5.46765 25.288 5.21243 25.434C5.03014 25.5435 4.73846 25.5435 4.48325 25.58C4.37387 25.6165 4.41033 25.7625 4.33741 25.8355C4.30095 25.872 4.11866 25.945 4.04574 25.9815C3.7176 26.091 3.13426 26.091 2.87904 25.9815C2.7332 25.945 2.58737 25.8355 2.55091 25.726C2.47799 25.507 2.66029 25.2515 2.51445 25.1055C2.44153 25.0325 2.29569 25.0325 2.18632 24.996C2.00402 24.923 1.85818 24.7405 1.7488 24.558C1.56651 24.047 1.67589 23.2805 1.63943 22.66C1.63943 22.4776 1.60297 22.2951 1.60297 22.0761C1.60297 21.7111 1.49359 21.3461 1.45713 20.9811C1.42067 20.7986 1.38421 20.6526 1.34775 20.5066C1.27483 20.2511 1.23838 19.9591 1.16546 19.7036C1.09254 19.4116 1.09254 19.1196 1.16546 18.9006C1.20192 18.8276 1.27483 18.7546 1.31129 18.6816C1.38421 18.5356 1.38421 18.3896 1.38421 18.2436C1.34775 18.1706 1.16546 18.2436 1.129 18.1706C1.01962 17.3676 0.910242 16.6011 0.837324 15.7617C0.800865 15.4697 0.800865 15.2142 0.800865 14.9222C0.764405 14.3747 0.800865 13.7907 0.727946 13.2432C0.691487 12.9877 0.655028 12.7322 0.618568 12.4767C0.509191 11.7467 0.326894 10.8342 0.472731 10.0677C0.582109 9.59325 0.727946 9.19175 1.01962 8.82676C1.20192 8.57126 1.42067 8.35226 1.63943 8.09677C1.85818 7.87777 2.1134 7.65877 2.36861 7.47628C2.55091 7.36678 2.7332 7.22078 2.9155 7.11128C3.31655 6.92878 3.86344 6.74629 4.44679 6.70979C5.03014 6.67329 5.6864 6.67329 6.23329 6.78279C6.78018 6.89229 7.32707 6.96528 7.87396 7.07478C8.38439 7.18428 8.89482 7.33028 9.40525 7.43978C9.47816 7.43978 9.51462 7.51278 9.58754 7.51278C9.73338 7.54928 9.91568 7.54928 10.098 7.62227C10.5719 7.73177 11.1553 7.80477 11.7386 7.80477C12.3584 7.80477 12.9053 7.80477 13.4158 7.65877C13.4887 7.62227 13.5616 7.58577 13.6345 7.58577C13.7074 7.54928 13.8168 7.54928 13.8897 7.54928C13.9262 7.54928 13.9991 7.47628 14.0356 7.43978C14.3272 7.29378 14.5825 7.14778 14.8377 6.96528C15.0564 6.81929 15.2023 6.70979 15.4939 6.60029C15.6033 6.56379 15.7492 6.49079 15.8585 6.45429C16.1137 6.38129 16.4054 6.30829 16.5877 6.1623C16.9158 5.9798 17.1346 5.6878 17.3898 5.43231C17.645 5.21331 17.9367 4.95781 18.2284 4.73882C18.8117 4.26432 19.3951 3.86283 19.942 3.42484C20.2336 3.20584 20.5253 2.98684 20.8534 2.80435C21.4733 2.43935 22.1295 2.03786 23.041 1.96486C23.4056 1.92836 23.7702 1.92836 24.1348 1.96486C24.2442 1.96486 24.3535 2.03786 24.4629 2.00136C24.5723 1.96486 24.6452 1.81886 24.6817 1.70936C24.8275 1.45387 24.9004 1.30787 25.0463 1.01587C25.1192 0.833376 25.0827 0.650879 25.265 0.650879C25.4473 0.650879 25.4109 1.12537 25.4109 1.30787C25.4109 1.52687 25.3744 1.81886 25.4109 1.96486C25.4473 2.07436 25.5931 2.22036 25.739 2.22036C25.8484 2.22036 25.9213 2.14736 25.9942 2.07436C26.1036 2.00136 26.1765 2.00136 26.2494 1.92836C26.3953 1.81886 26.5775 1.63636 26.7234 1.49037C26.8328 1.38087 27.0515 1.05237 27.2338 1.08887C27.5984 1.12537 27.2338 1.67286 27.1609 1.81886C26.9786 2.22036 26.7963 2.54885 26.5775 2.91384C26.5046 3.05984 26.2859 3.27884 26.2859 3.46134C26.2859 3.57084 26.3953 3.64383 26.4317 3.78983C26.4682 3.86283 26.4682 3.89933 26.5046 3.97233C26.614 4.26432 26.7234 4.66582 26.8328 4.99431C26.9057 5.28631 26.9786 5.5783 27.088 5.8338C27.1974 6.0893 27.3432 6.34479 27.4526 6.63679C27.489 6.70979 27.489 6.78279 27.5255 6.85579C27.7442 7.43978 27.963 8.09677 28.2547 8.68076C28.364 8.89976 28.5099 9.19175 28.5099 9.52025C28.5099 9.88524 28.3276 10.0677 28.1453 10.3597C28.0724 10.5057 27.9265 10.7247 27.7807 10.7612C27.6713 10.7977 27.5619 10.7612 27.4526 10.7612C27.3067 10.7977 27.1974 10.8707 27.088 10.8707C26.7598 10.9072 26.4317 10.6517 26.3588 10.3962C26.3223 10.3232 26.3588 10.2137 26.3223 10.1042C26.2494 9.70274 26.0307 9.52025 25.7754 9.22825C25.5931 9.04575 25.4473 8.93626 25.2286 8.82676C24.9004 8.64426 24.5723 8.57126 24.2077 8.38876C24.0983 8.31576 23.916 8.24277 23.8066 8.27926C23.6243 8.31576 23.4421 8.60776 23.2962 8.79026C22.4212 9.95824 21.6191 11.1627 20.7805 12.2942C20.1972 13.0607 19.6138 13.8272 19.1399 14.6667C19.0305 14.8857 18.9576 15.1412 18.8482 15.3967C18.7753 15.6522 18.7024 15.9077 18.6294 16.1996C18.3013 17.1486 18.1919 18.3166 17.9002 19.3021C17.8638 19.4116 17.8638 19.5211 17.8273 19.6306C17.6815 20.1416 17.5357 20.7256 17.3898 21.2731C17.2804 21.6746 17.244 22.2221 17.2075 22.733C17.2075 23.244 17.1711 23.9375 17.3534 24.2295C17.4627 24.412 17.7909 24.4485 17.9002 24.631C17.9732 24.7405 18.0461 24.996 18.1555 25.142C18.2284 25.2515 18.4107 25.4705 18.3742 25.653C18.3742 25.7625 18.2648 25.872 18.1555 25.9085C18.0461 25.945 17.9002 25.945 17.7909 25.9815C17.7909 26.1275 17.8273 26.2735 17.718 26.3465Z" fill="white"/>
<path d="M139.455 7.47656C137.377 7.47656 135.846 8.13355 134.424 9.59353C133.367 8.13355 131.835 7.47656 129.976 7.47656C128.445 7.47656 126.877 8.09705 125.783 9.22854V7.69556H121.7V24.4853H125.892V14.3385C125.892 12.039 127.387 11.2725 128.7 11.2725C130.012 11.2725 131.471 12.039 131.471 14.3385V24.4853H135.663V14.229C135.663 12.039 137.195 11.2725 138.471 11.2725C139.783 11.2725 141.242 12.039 141.242 14.3385V24.4853H145.435V13.7545C145.435 11.9295 144.961 10.3235 143.612 8.97304C142.627 8.02405 141.132 7.47656 139.455 7.47656Z" fill="white"/>
<path d="M157.648 17.842C157.648 20.1415 156.154 20.908 154.841 20.908C153.529 20.908 152.07 20.1415 152.07 17.842V7.65869H147.877V18.426C147.877 20.251 148.242 21.857 149.591 23.2075C150.539 24.1564 151.888 24.7039 153.565 24.7039C155.096 24.7039 156.664 24.1199 157.758 22.952V24.4849H161.841V7.69519H157.648V17.842Z" fill="white"/>
<path d="M168.695 19.4116V1.52686H164.503V19.6671C164.503 22.0395 165.961 24.485 169.388 24.485H171.758V20.9446H170.154C169.097 20.9446 168.695 20.4336 168.695 19.4116Z" fill="white"/>
<path d="M187.144 15.5064C187.144 10.9075 184.519 7.47656 179.816 7.47656C175.477 7.47656 172.488 10.579 172.488 16.0539C172.488 22.8428 176.279 24.6678 180.253 24.6678C183.279 24.6678 184.92 23.7188 186.634 22.0398L184.082 19.5579C183.024 20.6164 182.113 21.1274 180.29 21.1274C177.92 21.1274 176.607 19.5579 176.607 17.4044H187.108V15.5064H187.144ZM176.644 14.521C176.68 13.791 176.79 13.3165 177.045 12.7325C177.482 11.747 178.43 10.9805 179.852 10.9805C181.274 10.9805 182.186 11.7105 182.66 12.7325C182.915 13.353 183.024 13.791 183.061 14.521H176.644Z" fill="white"/>
</svg>
