<svg width="157" height="142" viewBox="0 0 157 142" fill="none" xmlns="http://www.w3.org/2000/svg">
<path fill-rule="evenodd" clip-rule="evenodd" d="M53.7888 0.531666C52.071 0.896348 51.6339 1.00773 50.6511 1.33179C50.0759 1.52142 49.4708 1.73819 49.3064 1.81344C48.7165 2.08371 48.279 2.26455 48.2155 2.26455C48.1799 2.26455 47.6482 2.51037 47.0338 2.81078C46.2679 3.18544 45.4597 3.70242 44.4622 4.45614C43.2181 5.39598 42.8886 5.70617 42.1855 6.59872C41.0895 7.98988 40.7806 8.52612 40.3654 9.75899C39.8316 11.3435 39.6942 12.0859 39.6942 13.3869V14.5503L39.3705 14.8735C39.1924 15.0513 38.7633 15.4195 38.4167 15.6919C38.0703 15.9643 37.4208 16.4886 36.9737 16.857C36.5264 17.2255 36.124 17.4904 36.0795 17.4458C36.0349 17.401 36.0615 17.1895 36.1386 16.9755C36.6494 15.5569 36.9056 14.349 37.0042 12.8936C37.1105 11.3238 36.9869 9.3492 36.7044 8.10305C36.2799 6.23114 36.2231 5.99281 36.0746 5.45826C35.6567 3.95413 34.5306 1.36632 34.2939 1.36632C34.2229 1.36632 34.0306 1.5315 33.8665 1.7334C33.7025 1.9352 33.3099 2.38951 32.9941 2.74291C32.6785 3.09631 32.1675 3.77328 31.8587 4.24725C31.5499 4.72121 31.1824 5.28241 31.0419 5.49439C30.7533 5.92993 30.5704 6.23693 30.4687 6.4563C30.4305 6.53863 30.2235 6.90651 30.0087 7.27369C29.7938 7.64096 29.4815 8.31464 29.3145 8.77074C29.1476 9.22694 28.9432 9.77975 28.8603 9.99932C28.3752 11.2843 27.9411 13.5327 27.9407 14.7629C27.9403 15.8598 28.3066 17.7268 28.6902 18.5824C28.8164 18.8641 29.2498 19.8375 29.4454 20.2791C29.5517 20.5189 30.14 21.3306 30.6547 21.9477C30.8602 22.194 31.0278 22.4583 31.0272 22.5349C31.0267 22.6116 30.7306 22.9663 30.3694 23.3231C30.0082 23.6799 29.6101 24.129 29.4849 24.3211C29.3597 24.5132 29.003 24.9399 28.6923 25.2692C28.3816 25.5986 28.0551 25.9883 27.9668 26.1354C27.7795 26.4472 27.4799 26.5593 27.399 26.3479C27.3681 26.2672 27.3431 25.8342 27.3435 25.3858C27.3441 24.5618 27.1467 23.2319 26.8745 22.2252C26.6887 21.5385 26.3374 20.5111 26.2431 20.3789C26.2038 20.324 26.1392 20.1668 26.0993 20.0296C26.0327 19.8002 25.6162 18.885 24.8277 17.2351C24.6571 16.8783 24.3312 16.3169 24.1034 15.9875C23.8755 15.6582 23.5656 15.1754 23.4147 14.9146C23.0697 14.3186 22.8524 14.303 22.5658 14.854C22.4476 15.0813 22.1463 15.5812 21.8964 15.9648C21.3589 16.7898 20.3943 18.7755 20.0188 19.83C19.8721 20.2416 19.663 20.8255 19.554 21.1274C19.3307 21.7462 19.1602 22.3669 18.8552 23.6724C18.6811 24.4177 18.6439 24.9102 18.6362 26.5667C18.6303 27.8548 18.6694 28.7044 18.7464 28.962C19.373 31.0584 19.433 31.2101 20.1657 32.5549C20.5648 33.2873 20.882 33.7192 21.4383 34.2877C21.6726 34.5271 21.8643 34.7905 21.8643 34.8729C21.8643 35.041 21.6423 35.4722 20.9454 36.6574C20.6838 37.1024 20.4698 37.5005 20.4698 37.5422C20.4698 37.6535 18.9784 40.6217 18.8636 40.7388C18.7104 40.895 18.4033 40.4094 18.329 39.8935C18.2642 39.4437 18.0577 38.7243 17.8841 38.3435C17.8339 38.2337 17.6574 37.8415 17.4919 37.4719C16.5379 35.3434 14.7353 32.83 12.6265 30.6884C11.8264 29.8758 11.6438 29.7358 11.4907 29.818C11.3903 29.8719 11.2811 30.038 11.248 30.1875C11.215 30.3368 11.0308 30.953 10.8389 31.5569C10.2467 33.4191 10.1381 33.8625 9.7597 35.9643C9.5044 37.3828 9.53349 40.8139 9.81209 42.136C10.0071 43.0616 10.197 43.7439 10.3954 44.2319C10.6148 44.7717 11.5834 46.6747 11.8182 47.0276C12.2304 47.6467 13.9807 49.2939 14.6061 49.6513C15.4308 50.1225 15.4308 50.1225 15.1829 51.0328C14.8479 52.2628 14.6895 52.8801 14.5894 53.3456C14.5385 53.5826 14.4659 53.8266 14.428 53.8879C14.3903 53.9491 14.311 54.2938 14.252 54.6538C14.1103 55.5177 13.9111 55.5721 13.5646 54.8414C12.9653 53.5775 11.2444 51.2659 10.0232 50.0843C8.5128 48.6229 7.53853 47.8626 5.55473 46.5975L4.43533 45.8837L4.27606 46.1922C3.9097 46.9022 3.84246 52.1851 4.17904 53.813C4.25853 54.1973 4.39788 54.8934 4.48862 55.36C4.93527 57.6543 5.65205 59.2678 7.08253 61.1985C7.87451 62.2674 8.3357 62.6802 9.8615 63.6855C10.5339 64.1285 11.7019 64.7415 11.8736 64.7415C11.9957 64.7415 12.5752 64.9985 12.6936 65.1051C12.7718 65.1754 12.686 71.1722 12.6048 71.3176C12.5457 71.4234 12.4016 71.2961 12.042 70.8203C11.5077 70.1135 10.7142 69.2951 9.67981 68.3841C8.35532 67.2177 5.24555 65.4549 3.78539 65.0427C3.62103 64.9963 3.24003 64.8629 2.93872 64.7462C1.42099 64.1583 0.286446 63.8659 0.13036 64.0223C0.0737825 64.079 0.0504737 64.2977 0.0785633 64.5083C0.215226 65.5336 0.375895 66.4398 0.50927 66.9372C0.917764 68.4615 1.15772 69.2258 1.40694 69.7966C1.48244 69.9696 1.5442 70.1424 1.5442 70.1808C1.5442 70.2793 2.10061 71.572 2.25301 71.8275C2.30212 71.9099 2.37055 72.0446 2.40492 72.1269C3.01512 73.5854 4.44649 75.7025 5.462 76.6485C6.51884 77.6331 7.47578 78.3404 8.20919 78.6794C8.62496 78.8716 9.09949 79.0908 9.26385 79.1667C10.1038 79.5546 11.5387 79.9071 12.585 79.9825C13.5593 80.0527 13.5343 80.0226 13.6871 81.3089C13.8608 82.7713 14.0795 84.0258 14.296 84.802C14.7178 86.3145 14.6833 86.4003 13.9292 85.7162C13.6472 85.4604 13.2231 85.1164 12.9866 84.9517C11.8997 84.1949 10.019 83.1053 9.79934 83.1053C9.74047 83.1053 9.55112 83.0398 9.3785 82.9598C9.08156 82.8221 7.61005 82.327 6.43846 81.9705C6.14461 81.881 5.81889 81.8079 5.7148 81.8079C5.61071 81.8079 5.26846 81.7432 4.95429 81.6643C4.00253 81.4249 2.03527 81.1888 1.29518 81.2249C0.619039 81.258 0.598718 81.2665 0.622723 81.5085C0.647825 81.7602 0.890472 82.4296 1.05692 82.7061C1.10652 82.7884 1.17346 82.9232 1.20583 83.0055C1.67827 84.2082 3.00556 86.7427 3.56346 87.5073C3.79515 87.8247 4.18442 88.3676 4.42856 88.7137C5.25899 89.891 7.06529 91.6346 8.34486 92.4944C9.4549 93.2403 9.81946 93.4383 10.758 93.8047C12.1228 94.3378 14.2472 94.5848 15.7812 94.3889C16.9219 94.2433 17.2425 94.2885 17.3318 94.6079C17.3664 94.7313 17.5308 95.1691 17.6974 95.5807C17.8639 95.9924 18.0584 96.4865 18.1296 96.6786C18.4287 97.4855 18.7283 98.1779 19.1416 99.0173C19.7501 100.253 19.6416 100.423 18.6002 99.8665C18.0211 99.5568 16.3481 98.9832 15.4396 98.7828C14.8725 98.6578 13.6497 98.5088 12.0529 98.3701C10.9297 98.2725 9.09292 98.3217 8.11835 98.4755C7.81704 98.5231 7.20484 98.5916 6.7579 98.6278C6.03823 98.6862 5.93862 98.7185 5.88782 98.9088C5.85146 99.0448 5.91004 99.2326 6.0473 99.4202C6.16663 99.5833 6.51804 100.1 6.82822 100.568C7.93786 102.243 9.94945 104.459 11.4864 105.7C13.6256 107.428 15.7677 108.484 18.129 108.974C19.2597 109.209 21.9473 109.084 22.711 108.76C23.2112 108.549 24.1217 108.294 24.2395 108.334C24.3111 108.358 24.5666 108.676 24.8072 109.04C25.3746 109.9 25.7296 110.4 26.5618 111.511C26.9366 112.011 27.2432 112.517 27.2432 112.634C27.2432 112.872 27.1727 112.88 26.1973 112.751C25.5716 112.668 22.8037 112.865 22.1631 113.038C21.9714 113.09 21.5904 113.162 21.3165 113.198C21.0425 113.234 20.6391 113.323 20.42 113.395C20.2008 113.468 19.7526 113.604 19.4239 113.698C19.0952 113.792 18.4452 113.993 17.9796 114.146C17.5139 114.299 16.9984 114.452 16.8341 114.487C16.6697 114.522 16.428 114.633 16.2969 114.733C15.9424 115.004 16.0812 115.295 16.8972 115.991C17.2835 116.32 17.9203 116.874 18.3125 117.222C18.9419 117.78 20.8917 119.155 21.5587 119.511C21.6919 119.582 22.1849 119.861 22.6544 120.13C23.1238 120.4 23.7992 120.715 24.1553 120.831C24.5114 120.947 24.87 121.076 24.9522 121.118C25.1008 121.194 25.9068 121.443 27.1435 121.795C28.1229 122.073 31.078 122.05 32.124 121.755C33.0402 121.497 33.7147 121.257 33.8585 121.138C33.918 121.089 34.135 121.017 34.3406 120.978C34.8008 120.892 35.029 121.027 35.8636 121.875C36.1947 122.212 36.8359 122.77 37.2887 123.115C38.2555 123.853 38.3028 124.038 37.5513 124.146C36.4979 124.298 34.9168 124.699 34.0165 125.042C33.6604 125.178 33.1001 125.373 32.7714 125.474C32.144 125.668 29.7791 126.83 29.2635 127.198C29.098 127.316 28.8473 127.457 28.7065 127.511C28.5658 127.564 28.4034 127.696 28.3457 127.804C28.2298 128.021 28.2996 128.092 29.4029 128.879C30.2885 129.511 34.297 131.61 34.6177 131.61C34.6668 131.61 34.8542 131.673 35.0341 131.75C35.3397 131.881 35.6263 131.961 37.1542 132.343C38.7609 132.743 39.2783 132.81 40.7694 132.809C41.7923 132.808 42.5123 132.756 42.9608 132.652C44.9578 132.187 45.973 131.798 46.9754 131.112C47.2975 130.892 47.6492 130.712 47.757 130.712C47.8648 130.712 48.181 130.846 48.4597 131.011C48.7384 131.176 48.9939 131.31 49.0275 131.31C49.061 131.31 49.2271 131.416 49.3966 131.546C49.5662 131.675 50.0935 131.949 50.5686 132.153C51.3385 132.485 51.853 132.835 51.7379 132.949C51.7154 132.971 50.9483 133.371 50.0333 133.836C49.0128 134.355 48.0031 134.958 47.4218 135.396C46.9006 135.789 46.2373 136.269 45.9478 136.463C45.3174 136.886 44.3301 137.894 44.4441 137.999C44.5981 138.139 45.6602 138.696 45.7748 138.696C45.8379 138.696 46.0309 138.758 46.2035 138.834C46.9124 139.145 48.8424 139.789 50.0535 140.118C52.4741 140.777 54.9239 140.985 56.9762 140.706C57.9566 140.573 58.2292 140.507 59.5163 140.088C60.5394 139.755 62.36 138.718 63.0567 138.072C63.6122 137.557 63.7195 137.498 64.1076 137.498C64.3454 137.498 64.7206 137.561 64.9416 137.638C65.8847 137.966 68.3124 138.509 69.6763 138.698C70.0872 138.754 70.4906 138.826 70.5728 138.856C70.7463 138.921 72.6956 139.157 74.3775 139.317C75.3103 139.406 75.5735 139.402 75.6973 139.299C75.8249 139.193 75.852 138.902 75.852 137.638C75.852 135.83 75.8898 135.889 74.6069 135.702C73.0197 135.472 71.9085 135.291 71.4693 135.192C71.2227 135.136 70.7737 135.051 70.4713 135.002C70.169 134.953 69.7558 134.843 69.5531 134.758C69.3505 134.673 69.0909 134.604 68.9764 134.604C68.8618 134.604 68.7958 134.559 68.8296 134.504C68.9082 134.377 89.861 134.365 89.9395 134.493C89.9695 134.541 89.8937 134.604 89.7711 134.631C89.6485 134.659 89.0999 134.802 88.5521 134.949C87.3194 135.28 84.5667 135.821 82.974 136.044C82.3166 136.137 81.6218 136.243 81.4301 136.281L81.0815 136.35L81.053 137.897C81.0372 138.748 81.051 139.552 81.0834 139.683C81.1412 139.918 81.1565 139.921 81.9585 139.857C82.9542 139.777 84.6486 139.559 85.8876 139.35C86.3944 139.265 87.2012 139.13 87.6805 139.051C89.2154 138.799 89.7142 138.694 91.3761 138.28L93.0047 137.873L93.2686 138.086C94.8342 139.346 96.4284 140.301 97.561 140.656C99.8499 141.373 103.594 141.382 106.531 140.679C107.459 140.456 109.508 139.79 110.217 139.48C110.781 139.233 110.916 139.178 111.711 138.87C112.819 138.442 112.724 138.245 110.665 136.707C108.849 135.351 107.589 134.552 106.462 134.044C105.929 133.803 105.424 133.537 105.34 133.452C105.202 133.312 105.211 133.278 105.436 133.102C105.573 132.995 106.155 132.676 106.731 132.394C107.306 132.112 108.029 131.73 108.337 131.546C108.646 131.361 109.004 131.211 109.134 131.211C109.264 131.211 109.625 131.385 109.937 131.597C110.489 131.972 112.102 132.671 113.073 132.954C114.244 133.296 116.189 133.399 117.79 133.204C120.135 132.918 123.415 131.764 125.606 130.455C125.99 130.226 126.505 129.938 126.752 129.814C127.363 129.508 128.51 128.65 128.591 128.439C128.699 128.156 128.363 127.944 125.557 126.523C124.129 125.8 121.403 124.925 119.927 124.716C119.229 124.617 118.883 124.484 118.883 124.315C118.883 124.193 119.298 123.796 120.178 123.078C120.534 122.787 121.108 122.27 121.455 121.929C122.172 121.223 122.091 121.23 123.369 121.765C125.444 122.635 128.197 122.754 130.487 122.072C131.482 121.775 131.699 121.699 132.629 121.311C134.073 120.71 134.298 120.597 135.322 119.968C137.199 118.813 138.664 117.708 140.05 116.402C140.777 115.716 140.927 115.526 140.846 115.395C140.641 115.06 138.321 114.267 136.115 113.778C134.119 113.334 133.246 113.228 131.492 113.212C130.365 113.202 129.694 113.158 129.673 113.093C129.654 113.036 130.085 112.362 130.631 111.596C131.177 110.829 131.794 109.961 132.002 109.666C132.7 108.674 132.521 108.727 133.824 109.127C134.955 109.475 134.994 109.48 136.862 109.491C138.798 109.503 138.851 109.496 140.348 109.028C141.241 108.75 143.273 107.717 144.223 107.059C146.041 105.799 148.038 103.805 149.671 101.619C150.567 100.419 151.157 99.4364 151.068 99.2919C150.938 99.0811 150.436 98.9788 149.041 98.8786C146.287 98.6807 143.147 98.7895 141.743 99.1316C140.113 99.5284 139.806 99.6374 137.941 100.478C137.604 100.63 137.304 100.731 137.275 100.702C137.206 100.632 137.489 99.933 138.038 98.8183C138.283 98.3209 138.691 97.3777 138.945 96.7224C139.199 96.067 139.492 95.3452 139.596 95.1183L139.787 94.7057L140.267 94.8065C141.143 94.9904 143.53 94.9288 144.532 94.6965C146.517 94.2364 147.562 93.7462 149.202 92.507C151.211 90.9879 153.452 88.151 154.778 85.4481C155.57 83.8347 156.25 82.2222 156.27 81.9128C156.285 81.6661 156.267 81.6583 155.688 81.6612C154.371 81.6677 152.401 81.9558 150.757 82.3823C150.237 82.5173 149.562 82.6879 149.257 82.7614C147.425 83.2024 144.447 84.7791 143.14 85.9996C142.633 86.473 142.291 86.6723 142.291 86.4945C142.291 86.4408 142.444 85.7573 142.631 84.9756C142.818 84.194 143.001 83.3523 143.038 83.1053C143.074 82.8583 143.168 82.4347 143.245 82.164C143.323 81.8933 143.386 81.4532 143.386 81.1858C143.386 80.7311 143.407 80.6914 143.71 80.568C143.888 80.4956 144.393 80.4068 144.831 80.3709C145.966 80.2778 147.517 79.8117 148.367 79.3085C148.613 79.1626 149.123 78.8741 149.499 78.6674C149.938 78.4266 150.559 77.9288 151.228 77.2813C153.198 75.3749 154.519 73.0898 155.792 69.3824C156.178 68.2578 156.544 66.7804 156.779 65.3902C156.9 64.6788 156.898 64.5784 156.758 64.4692C156.671 64.4009 156.488 64.3729 156.344 64.4061C155.922 64.5035 155.115 64.7488 154.742 64.893C154.55 64.9671 154.057 65.1272 153.646 65.2488C152.885 65.4741 150.986 66.3661 149.463 67.215C148.1 67.9739 145.374 70.2072 144.953 70.9096C144.812 71.1437 144.694 71.2304 144.544 71.2091C144.34 71.1798 144.33 71.1144 144.262 69.1827C144.223 68.0849 144.164 66.799 144.13 66.3253L144.07 65.4638L144.799 65.245C146.219 64.8188 148.349 63.4002 149.421 62.1659C150.844 60.5285 152.018 58.0392 152.49 55.6594C152.763 54.285 152.949 52.1552 152.943 50.4807C152.937 48.6739 152.751 46.6387 152.577 46.4643C152.497 46.3841 152.228 46.4978 151.588 46.8828C149.949 47.8669 149.105 48.489 147.672 49.7665C146.543 50.7731 146.618 50.6973 145.75 51.7171C144.71 52.9379 144.021 53.9405 143.487 55.0107C143.24 55.5047 142.993 55.9089 142.939 55.9089C142.885 55.9089 142.72 55.4373 142.574 54.861C142.203 53.3995 141.722 51.5786 141.607 51.1975C141.554 51.0215 141.531 50.7967 141.557 50.6979C141.583 50.599 141.989 50.2715 142.46 49.97C143.141 49.5338 143.533 49.1739 144.378 48.2103C145.456 46.9806 145.765 46.4763 146.374 44.9503C147.582 41.9213 147.647 37.8531 146.551 33.7026C145.938 31.3797 145.84 31.0416 145.646 30.5838C145.548 30.3497 145.421 30.209 145.309 30.2082C145.21 30.2075 144.687 30.6668 144.146 31.2288C141.84 33.626 140.255 35.9091 139.173 38.3934C139.089 38.5855 138.849 39.2926 138.639 39.9648C138.373 40.8149 138.211 41.1868 138.107 41.1867C138.018 41.1865 137.801 40.8544 137.569 40.3637C136.515 38.1372 136.152 37.424 135.599 36.499C135.162 35.7677 135.015 35.4346 135.059 35.2725C135.092 35.1501 135.387 34.77 135.714 34.4279C136.437 33.6729 136.648 33.343 137.233 32.0559C138.384 29.5272 138.617 26.8051 137.945 23.7722C137.576 22.1076 136.803 19.8233 136.189 18.5824C135.577 17.3444 134.317 15.1655 134.1 14.9688C133.912 14.7981 133.897 14.8013 133.69 15.0594C133.133 15.7539 132.771 16.3317 132.318 17.2492C132.048 17.7973 131.724 18.4113 131.599 18.6136C131.323 19.059 130.338 21.3545 130.338 21.5508C130.338 21.6277 130.276 21.8895 130.201 22.1326C129.852 23.2618 129.443 25.5228 129.44 26.341C129.437 27.1391 129.319 27.1138 128.581 26.1563C127.945 25.3325 127.54 24.8648 126.471 23.7223C125.938 23.1516 125.864 22.8884 126.141 22.5409C126.672 21.8741 127.556 20.6052 127.73 20.2602C127.954 19.8164 128.408 18.5163 128.608 17.7462C129.075 15.9527 128.977 13.6424 128.337 11.3966C128.228 11.0123 128.087 10.5183 128.026 10.2987C127.838 9.62915 127.009 7.81452 126.636 7.25472C126.508 7.0626 126.313 6.73026 126.204 6.51608C125.481 5.10276 122.98 1.86873 122.608 1.86654C122.438 1.86554 122.3 2.07473 121.886 2.96038C121.604 3.5627 121.373 4.09535 121.373 4.14415C121.373 4.19295 121.258 4.58718 121.119 5.02023C120.147 8.02541 119.884 9.36028 119.81 11.6461C119.747 13.6199 119.944 14.9944 120.559 16.8608C120.772 17.5057 120.909 18.0335 120.864 18.0335C120.759 18.0335 119.754 17.2269 119.182 16.6824C118.935 16.4478 118.554 16.1361 118.335 15.9898C118.116 15.8435 117.791 15.5912 117.613 15.429C117.307 15.1506 117.289 15.0962 117.289 14.4416C117.289 13.5594 117.033 11.7023 116.786 10.7977C116.269 8.90398 114.434 6.29651 112.808 5.14418C112.506 4.9303 112.057 4.60295 111.811 4.41681C110.55 3.46519 108.315 2.43103 105.784 1.62851C104.276 1.15015 101.587 0.594243 101.305 0.70243C101.221 0.734766 101.153 0.863812 101.153 0.989265C101.153 1.54617 101.85 3.54623 102.858 5.87634C103.473 7.30053 103.925 8.08669 104.758 9.18372C105.015 9.52256 105.385 10.0283 105.579 10.3075C106.081 11.0306 107.814 12.6307 108.853 13.3321C109.534 13.7914 111.393 14.6707 112.337 14.9792C113.178 15.2543 115.138 15.6382 115.702 15.6382C116.077 15.6382 116.773 16.0506 117.107 16.4711C117.375 16.8082 117.229 16.8366 116.566 16.5759C114.996 15.9588 112.588 15.5963 110.117 15.6054C108.239 15.6123 107.548 15.677 104.838 16.1003L103.792 16.2637L102.696 15.8878C102.094 15.6811 101.36 15.4057 101.065 15.2757C100.771 15.1457 100.489 15.0394 100.438 15.0394C100.388 15.0394 99.8441 14.8419 99.2304 14.6004C98.6166 14.3589 97.7559 14.0469 97.3176 13.9071C96.8793 13.7672 96.2742 13.5584 95.9729 13.443C95.215 13.1528 94.8972 13.0342 93.5823 12.5506C92.9523 12.3188 92.3696 12.0949 92.2874 12.0529C92.2052 12.0109 91.8018 11.8757 91.3909 11.7528C90.98 11.6297 90.1956 11.3557 89.6478 11.144C89.0999 10.9323 88.2483 10.6033 87.7552 10.413C87.2622 10.2227 86.2312 9.8555 85.4642 9.59691C84.2511 9.18792 83.2582 8.82483 81.9281 8.30386C80.4872 7.73937 79.9848 7.56022 79.2636 7.35333L78.4418 7.11769L77.6201 7.35273C77.168 7.48198 76.6638 7.64376 76.4995 7.71222C76.3351 7.78069 75.8421 7.97101 75.4038 8.13509C74.9655 8.29917 74.2035 8.59059 73.7104 8.78251C73.2174 8.97454 72.3657 9.27694 71.8179 9.45459C70.8208 9.77785 70.1994 9.99772 69.8257 10.1593C69.2745 10.3977 67.0701 11.2054 65.7811 11.6412C64.981 11.9118 63.9052 12.2957 63.3905 12.4944C61.9665 13.0441 61.8182 13.101 60.9606 13.4253C60.5223 13.591 59.8499 13.8202 59.4665 13.9347C59.083 14.0491 58.6795 14.1834 58.57 14.233C58.4604 14.2827 58.1242 14.4147 57.8229 14.5265C57.5216 14.6382 56.7537 14.9328 56.1165 15.1811C54.6348 15.7585 53.4483 16.153 53.1787 16.1582C53.0622 16.1604 52.8743 16.0693 52.7609 15.9557C52.6476 15.8421 52.3842 15.7229 52.1757 15.6909C51.9672 15.6589 51.438 15.5678 50.9997 15.4885C50.5615 15.4093 49.3819 15.2683 48.3785 15.1755C46.8808 15.0368 46.3905 15.027 45.6393 15.1207C45.1361 15.1835 44.4331 15.261 44.077 15.2929C43.2441 15.3673 41.4071 15.7889 40.5638 16.0989C40.1418 16.2541 39.6603 16.2826 39.7108 16.1495C39.7291 16.1013 39.9819 15.8594 40.2726 15.6119C40.8393 15.1295 41.1044 15.0394 41.9564 15.0394C42.2555 15.0394 42.7991 14.9659 43.1642 14.876C44.1602 14.631 45.2097 14.3236 45.3221 14.2442C45.3769 14.2054 45.713 14.0691 46.0691 13.9412C47.9352 13.2712 50.6547 10.9161 52.1194 8.70187C52.4826 8.15296 52.9216 7.51531 53.0949 7.28496C53.3845 6.90022 53.98 5.59829 54.5467 4.11092C54.6722 3.78157 54.8108 3.46938 54.8546 3.41728C54.8984 3.36509 54.9343 3.25969 54.9343 3.18284C54.9343 3.1061 54.9976 2.9017 55.075 2.72874C55.2805 2.26954 55.6372 1.03767 55.6609 0.705125C55.6811 0.420386 55.6767 0.41809 55.0837 0.400924C54.755 0.391343 54.1723 0.450227 53.7888 0.531666ZM78.9864 11.4871C79.2073 11.5642 79.6795 11.7193 80.0356 11.8316C80.3917 11.9439 80.9296 12.13 81.2309 12.2453C81.5322 12.3605 81.9804 12.5249 82.227 12.6108C82.4735 12.6966 82.7873 12.8239 82.9242 12.8935C83.1937 13.0306 84.2738 13.4163 86.1615 14.0492C86.8189 14.2697 87.4464 14.4922 87.556 14.5438C88.0126 14.7583 90.23 15.5776 91.3411 15.9422C91.9985 16.1579 92.6142 16.3799 92.7093 16.4354C92.8045 16.4909 92.9322 16.5364 92.9931 16.5364C93.0541 16.5364 93.2452 16.5977 93.4179 16.6728C93.5905 16.7477 94.18 16.9781 94.7278 17.1848C95.2757 17.3915 96.0377 17.6877 96.4212 17.8432C96.8046 17.9986 97.7339 18.329 98.486 18.5776C99.8013 19.0121 100.536 19.2835 102.696 20.1337C103.244 20.3492 104.074 20.6394 104.539 20.7785C105.361 21.0241 107.271 21.7141 107.876 21.9842C108.04 22.0576 108.514 22.2469 108.928 22.405C109.342 22.563 110.119 22.9914 110.653 23.357C111.187 23.7226 111.66 24.0217 111.703 24.0217C111.746 24.0217 111.956 24.1461 112.169 24.2982C112.666 24.6514 112.952 24.7789 114.052 25.1375C115.158 25.4982 116.017 25.6988 116.99 25.8236C118.147 25.9721 118.122 25.9584 118.465 26.6256C118.639 26.9627 118.76 27.2714 118.736 27.3116C118.711 27.3518 118.207 27.411 117.616 27.4431C116.632 27.4966 116.2 27.548 114.455 27.819C114.129 27.8696 113.799 27.9752 113.72 28.0538C113.566 28.2085 113.519 28.1233 114.649 29.7604C116.501 32.4447 119.919 35.5545 122.095 36.5355C122.382 36.6654 122.91 36.905 123.266 37.068C123.622 37.231 124.122 37.4411 124.378 37.5348C124.906 37.728 125.091 37.9039 125.04 38.164C125.009 38.3271 124.899 38.3402 123.838 38.307C122.805 38.2746 122.663 38.2902 122.605 38.4421C122.531 38.6345 123.396 40.8625 123.931 41.8612C124.507 42.9346 125.957 45.193 126.54 45.9254C127.941 47.6855 129.634 49.1485 131.221 49.9721C132.037 50.3953 132.529 50.7961 132.529 51.0375C132.529 51.1039 132.664 51.3579 132.828 51.6019C132.992 51.8459 133.127 52.1226 133.127 52.2171C133.127 52.3651 133.062 52.3788 132.654 52.3175C132.394 52.2783 132.112 52.2096 132.028 52.1647C131.944 52.1197 131.563 52.0372 131.181 51.9812C130.8 51.9253 130.122 51.8254 129.675 51.7592C128.641 51.6061 128.545 51.643 128.545 52.1931C128.545 52.8552 129.066 55.0537 129.537 56.3805C129.855 57.274 129.782 57.5952 129.319 57.3407C129.161 57.2538 128.475 57.2127 127.051 57.2047C125.928 57.1985 124.023 57.1438 122.817 57.0831C121.373 57.0104 113.154 56.9688 98.7121 56.9611C86.2781 56.9544 75.9365 56.9077 74.8061 56.8531C73.0344 56.7675 71.2382 56.7548 65.3932 56.7866C64.4892 56.7916 63.2566 56.785 62.6539 56.7722C62.0513 56.7593 60.841 56.7844 59.9645 56.8279C58.2942 56.9107 44.2702 56.9297 42.035 56.852C40.6978 56.8056 38.9488 56.8905 37.5434 57.0697C36.9685 57.1431 36.2969 57.1389 35.2026 57.0549C32.28 56.8309 28.1919 56.9694 27.5247 57.3151C27.3667 57.397 27.1896 57.4345 27.1313 57.3984C27.0052 57.3203 27.0653 56.8033 27.2812 56.1085C27.8783 54.1872 28.1013 53.2989 28.2544 52.2336C28.3973 51.238 28.3153 51.1178 27.5853 51.2543C27.315 51.3048 26.6455 51.4235 26.0977 51.5181C25.5498 51.6128 24.8846 51.7574 24.6195 51.8394C23.8649 52.0729 23.8433 51.931 24.4654 50.8273C24.7605 50.3035 25.042 49.8741 25.091 49.8729C25.3086 49.8678 26.9704 48.7731 27.7351 48.1313C28.799 47.2382 29.1205 46.916 29.9824 45.8784C31.0005 44.6528 31.2718 44.2837 31.5234 43.7828C31.6475 43.5358 31.9257 43.072 32.1417 42.7521C33.062 41.3892 34.4228 38.3189 34.2762 37.9362C34.2235 37.7987 34.0713 37.7871 33.1199 37.8489C32.1361 37.9128 32.0244 37.9032 32.0244 37.7539C32.0244 37.4785 32.317 37.1191 32.5991 37.0482C32.7451 37.0115 33.0902 36.8766 33.3659 36.7485C34.2314 36.3463 34.8004 36.0979 34.8562 36.0979C34.9417 36.0979 35.9445 35.4702 36.0973 35.321C36.1735 35.2468 36.3528 35.112 36.4958 35.0216C38.4506 33.7859 41.2791 30.8402 42.8702 28.3831C43.1233 27.9923 43.2734 27.5331 43.1556 27.5099C42.4477 27.371 41.0898 27.2065 40.2918 27.1631C38.6669 27.0748 38.3993 27.0286 38.3993 26.8365C38.3993 26.7445 38.5188 26.4326 38.6649 26.1433C38.9647 25.5496 39.024 25.5223 40.5578 25.272C41.7587 25.076 42.3961 24.9391 42.6326 24.8261C42.7422 24.7738 43.0784 24.6288 43.3797 24.5037C43.9955 24.2484 44.3565 24.0557 45.339 23.4583C45.7131 23.2308 46.2883 22.9549 46.617 22.8451C47.1632 22.6629 48.9738 21.9868 50.2029 21.5062C50.4768 21.3991 51.2836 21.117 51.9958 20.8794C53.1251 20.5025 54.1168 20.136 56.9264 19.0568C57.2825 18.9199 57.7084 18.773 57.8727 18.7302C58.2789 18.6243 59.9788 18.0068 62.2555 17.1384C63.2964 16.7412 64.7532 16.2128 65.4928 15.9639C66.2324 15.7151 67.0783 15.4053 67.3728 15.2754C67.6672 15.1456 67.9489 15.0394 67.9988 15.0394C68.0486 15.0394 68.5922 14.8427 69.2066 14.6023C69.821 14.3618 70.6824 14.0509 71.1206 13.9113C71.9969 13.6323 73.0271 13.2571 74.425 12.7079C75.5973 12.2474 76.0209 12.0954 76.9975 11.7848C77.4358 11.6455 77.884 11.4929 77.9936 11.4458C78.2872 11.3196 78.537 11.33 78.9864 11.4871ZM86.9003 19.7709C86.8775 19.7933 86.4553 19.8864 85.9623 19.978C85.4692 20.0694 84.752 20.2062 84.3685 20.2819C83.985 20.3575 82.9765 20.5345 82.1274 20.6751C80.5609 20.9346 79.5513 21.1212 78.2924 21.384C77.9089 21.464 76.5418 21.7329 75.2544 21.9814C73.9669 22.23 72.6222 22.4987 72.2661 22.5787C71.91 22.6587 71.2825 22.7702 70.8716 22.8265C69.4218 23.0251 68.6766 23.1956 68.4803 23.3737C68.2921 23.5441 68.2818 23.6834 68.2818 26.0293C68.2818 28.3873 68.2914 28.514 68.4836 28.6935C68.7413 28.934 69.6641 29.1267 73.0907 29.6559C74.5735 29.8848 74.4986 29.792 74.4261 31.3121C74.3534 32.8356 74.3985 32.9322 75.2544 33.0836C75.5557 33.1369 76.71 33.3669 77.8194 33.5947C80.0081 34.0443 80.1494 34.0402 80.3463 33.5219C80.4023 33.3743 80.5399 32.9167 80.652 32.505C80.7641 32.0933 80.9163 31.6381 80.9902 31.4935L81.1245 31.2305L81.8002 31.3653C82.1719 31.4394 82.8122 31.5686 83.223 31.6525C84.2637 31.8647 87.1071 32.3245 87.3988 32.3277C87.9109 32.3333 87.9046 32.4107 87.9046 26.042C87.9046 22.1481 87.8693 20.05 87.8015 19.9232C87.7273 19.7843 87.5922 19.7302 87.32 19.7302C87.112 19.7302 86.9231 19.7485 86.9003 19.7709ZM86.8587 26.0178V31.0578L86.4603 31.0872C85.6739 31.1452 85.7196 31.452 85.707 26.0315C85.7008 23.3769 85.7333 21.1693 85.7792 21.1259C85.9008 21.0108 86.2184 20.9443 86.5599 20.9621L86.8587 20.9777V26.0178ZM84.5145 21.52C84.581 21.6447 84.6176 23.2665 84.6176 26.0988C84.6176 30.8874 84.63 30.7872 84.0544 30.6491C83.499 30.516 83.5219 30.7162 83.5219 26.0007V21.6167L83.8456 21.4758C84.2821 21.2857 84.3932 21.2931 84.5145 21.52ZM82.502 26.0544L82.528 30.2329L81.9043 30.1815C81.5613 30.1531 80.8549 30.0393 80.3344 29.9287C79.814 29.8179 78.8054 29.6337 78.0932 29.5195C76.6138 29.2821 75.3931 29.0621 74.4575 28.8642C74.1014 28.7888 72.9584 28.564 71.9175 28.3644C70.8766 28.1649 69.9261 27.9816 69.8053 27.957C69.4856 27.8922 69.3787 27.377 69.3781 25.8977C69.3774 24.363 69.4483 24.1588 70.0131 24.0705C70.4117 24.0081 72.6458 23.5773 74.1587 23.271C74.5696 23.1877 75.6005 23.0083 76.4497 22.8722C77.2988 22.7359 78.8228 22.4492 79.8364 22.2349C80.8499 22.0206 81.8584 21.8522 82.0776 21.8607L82.476 21.8759L82.502 26.0544ZM32.5694 23.414C32.6026 23.5188 32.7513 23.6863 32.8998 23.7861C33.3097 24.0613 34.1324 24.514 34.4399 24.6335C34.5906 24.692 34.7138 24.7928 34.7138 24.8575C34.7138 24.9221 34.4335 25.51 34.0908 26.1638C33.5164 27.26 33.4408 27.3591 33.1196 27.4354C32.9281 27.4808 32.7025 27.5566 32.6182 27.6039C32.5338 27.6511 32.2764 27.7217 32.046 27.7606C31.8155 27.7997 31.6017 27.8726 31.5707 27.9227C31.5399 27.9728 31.4475 28.0138 31.3655 28.0138C31.0589 28.0138 28.5567 29.2471 27.7937 29.7744C27.559 29.9365 27.3428 29.9509 27.3428 29.8044C27.3428 29.7462 27.602 29.3533 27.919 28.9311C28.2358 28.509 28.5668 28.0513 28.6545 27.914C28.7422 27.7768 28.9139 27.5522 29.0361 27.415C29.1583 27.2778 29.3293 27.0532 29.4163 26.916C29.6414 26.5604 30.5214 25.4318 30.8948 25.0197C31.0688 24.8276 31.3126 24.5357 31.4364 24.371C31.9921 23.6317 32.3431 23.2233 32.4228 23.2233C32.4702 23.2233 32.5361 23.3091 32.5694 23.414ZM125.378 24.7472C126.539 26.1395 127.352 27.1666 127.832 27.8484C128.071 28.1864 128.498 28.7773 128.781 29.1616C129.344 29.9235 129.641 30.3711 129.641 30.4575C129.641 30.5267 129.078 30.2215 128.296 29.7279C127.583 29.2782 126.334 28.7334 125.048 28.3115C123.952 27.9521 123.658 27.8157 123.589 27.6358C123.562 27.5632 123.276 27.0307 122.954 26.4522C122.632 25.8738 122.369 25.3208 122.369 25.2236C122.369 25.1042 122.523 24.9892 122.842 24.8692C123.548 24.6042 124.145 24.2324 124.214 24.0149C124.33 23.6503 124.612 23.828 125.378 24.7472ZM76.8979 30.4083C77.117 30.4585 77.7894 30.5942 78.392 30.7097C79.8539 30.9901 79.8364 30.9834 79.8364 31.2604C79.8364 31.6063 79.4423 32.6094 79.2822 32.6709C79.2073 32.6997 78.7972 32.6473 78.3706 32.5545C77.1494 32.2886 76.3324 32.1223 75.9143 32.0547L75.5284 31.9923L75.5746 31.1915C75.6355 30.1388 75.6597 30.1246 76.8979 30.4083ZM23.8995 36.2864C23.9296 36.3352 24.0779 36.4056 24.2291 36.4426C24.3802 36.4798 24.7446 36.6233 25.0388 36.7617C25.333 36.9 25.826 37.0786 26.1345 37.1584C27.5351 37.5211 27.4356 37.4708 27.3481 37.7714C27.158 38.4253 26.6142 39.1218 26.1973 39.2452C24.9439 39.6163 21.7997 41.3577 21.1746 42.0271C21.0417 42.1694 20.8423 42.2857 20.7314 42.2857C20.5744 42.2857 20.5561 42.2591 20.6491 42.166C20.7148 42.1001 20.7686 41.9853 20.7686 41.911C20.7686 41.7416 20.9708 41.295 22.0765 39.0229C22.5624 38.0242 22.96 37.1789 22.96 37.1443C22.96 37.1098 23.0763 36.8828 23.2185 36.6396C23.4625 36.2224 23.7636 36.0663 23.8995 36.2864ZM134.034 37.8944C134.643 39.1194 135.802 41.5972 136.048 42.2027C136.32 42.8699 136.1 42.8071 134.955 41.8919C134.014 41.1391 133.257 40.734 131.234 39.8998L130.487 39.5917L130.103 38.8411C129.668 37.991 129.697 37.8453 130.323 37.737C130.826 37.6499 131.934 37.2507 132.503 36.9513C133.3 36.5319 133.382 36.5825 134.034 37.8944ZM95.8449 41.4093C95.6803 41.53 95.6712 41.91 95.6967 47.6042C95.7266 54.2757 95.6837 53.8582 96.3394 53.8614C96.9858 53.8645 96.969 53.9831 96.969 49.4239C96.969 45.525 96.9787 45.3011 97.1455 45.3448C97.2425 45.3701 97.7691 46.0438 98.3159 46.8418C98.8625 47.6398 99.6479 48.7488 100.061 49.3063C100.474 49.8638 100.918 50.4995 101.047 50.7191C101.177 50.9387 101.584 51.5225 101.952 52.0166C102.32 52.5106 102.796 53.1843 103.01 53.5136C103.72 54.6061 103.689 54.842 103.718 48.0356C103.737 43.6302 103.713 41.9213 103.631 41.8228C103.569 41.7481 103.348 41.6869 103.14 41.6869C102.422 41.6869 102.447 41.529 102.447 46.0296C102.447 48.2456 102.41 50.0816 102.365 50.1097C102.253 50.1789 101.644 49.4344 101.133 48.6048C100.903 48.2307 100.551 47.7225 100.352 47.4755C100.152 47.2285 99.6836 46.5773 99.3099 46.0284C98.9362 45.4794 98.2678 44.5217 97.8246 43.9001C97.3814 43.2785 96.8843 42.5574 96.72 42.2977C96.1199 41.3496 96.0389 41.2673 95.8449 41.4093ZM47.7625 41.6303C46.5324 41.9738 45.4884 42.7856 45.2091 43.6158C44.8163 44.7837 45.0438 46.0374 45.7798 46.7609C46.3448 47.3162 46.8036 47.5089 49.6052 48.3675C51.6349 48.9896 52.3729 49.5855 52.3729 50.6023C52.3729 50.9027 52.2957 51.291 52.1927 51.5085C51.6951 52.5591 49.8126 53.1221 48.1382 52.7212C47.25 52.5084 46.4504 51.926 46.2454 51.3423C46.1353 51.0286 45.8958 50.9418 45.2651 50.987C44.6959 51.0278 44.6689 51.179 45.0812 52.018C45.4616 52.7922 45.8229 53.1334 46.7364 53.5809L47.4138 53.9128H49.212H51.0101L51.6855 53.5694C52.5072 53.1514 53.1276 52.558 53.477 51.8554C53.6931 51.4209 53.739 51.1912 53.739 50.5444C53.739 48.8531 52.8612 47.9419 50.6404 47.3275C47.5396 46.4698 46.9159 46.1604 46.4521 45.2495C46.031 44.4224 46.4612 43.3636 47.3953 42.9279C48.3917 42.4631 50.9167 42.671 51.3276 43.2517C51.3984 43.3516 51.5571 43.5907 51.6802 43.7828C51.8912 44.1119 51.9356 44.1321 52.448 44.1321C52.9305 44.1321 52.9954 44.1076 53.0227 43.9152C53.0945 43.4104 52.2573 42.4068 51.3899 41.9578C50.5629 41.5296 48.719 41.3632 47.7625 41.6303ZM54.5764 41.8248C54.5468 41.9021 54.5367 42.1384 54.5541 42.3501L54.5856 42.7348L55.8741 42.7629C56.6158 42.7791 57.2181 42.8372 57.2935 42.8999C57.3987 42.9873 57.4245 44.0372 57.4245 48.2281C57.4245 51.0987 57.4517 53.5184 57.4849 53.6052C57.5295 53.7216 57.6836 53.7631 58.0709 53.7631C58.5318 53.7631 58.6039 53.7355 58.6566 53.5386C58.6896 53.4151 58.7173 50.9914 58.718 48.1527C58.7194 43.1527 58.7254 42.9881 58.912 42.888C59.018 42.8312 59.6177 42.7847 60.2446 42.7847C61.5368 42.7847 61.6401 42.7335 61.5896 42.1181L61.5582 41.7368L58.0942 41.7106C55.1904 41.6886 54.6215 41.7071 54.5764 41.8248ZM63.0454 41.8189C63.0175 41.8915 63.0077 43.9912 63.0236 46.4848L63.0524 51.0185L63.3237 51.5674C63.8025 52.5357 64.6792 53.3172 65.7418 53.7228C66.144 53.8763 66.4986 53.9123 67.5845 53.9102C68.8833 53.9077 68.9521 53.8969 69.5989 53.5924C70.3547 53.2366 71.1756 52.5199 71.5141 51.9201C71.9553 51.1386 71.9758 50.8678 71.9458 46.1781L71.9175 41.7368H71.3697H70.8218L70.772 46.228C70.7234 50.6102 70.7169 50.729 70.504 51.1278C70.2341 51.633 69.6809 52.1293 69.0837 52.4021C68.7126 52.5716 68.4319 52.609 67.5347 52.6087C66.551 52.6083 66.3831 52.581 65.8907 52.3417C65.5892 52.1951 65.1811 51.9048 64.984 51.6965C64.299 50.9731 64.2975 50.9612 64.2975 46.196C64.2975 43.0083 64.2672 41.8961 64.1779 41.8067C64.0121 41.6405 63.1099 41.6502 63.0454 41.8189ZM74.5322 41.7444C74.4911 41.786 74.4575 44.5024 74.4575 47.7809C74.4575 53.1244 74.4738 53.748 74.6151 53.8023C74.7017 53.8357 75.4881 53.8629 76.3624 53.8629C78.7869 53.8629 80.0145 53.5429 81.3252 52.5694C82.1826 51.9325 82.7586 51.308 82.9993 50.7538C83.6565 49.241 83.7559 48.841 83.7517 47.725C83.7477 46.6708 83.564 45.904 83.0736 44.8944C82.6179 43.9562 81.9065 43.2075 80.9209 42.6284C79.5973 41.851 79.2081 41.7656 76.7485 41.7139C75.5706 41.6891 74.5733 41.7029 74.5322 41.7444ZM85.9789 41.7535C85.9424 41.79 85.9125 44.5024 85.9125 47.7809C85.9125 53.1244 85.9288 53.748 86.0701 53.8023C86.351 53.9104 92.6843 53.8707 92.8916 53.7596C93.0374 53.6815 93.0843 53.5491 93.0843 53.2166C93.0843 52.9744 93.0283 52.7406 92.9598 52.6961C92.8913 52.6517 91.5802 52.5929 90.0462 52.5655L87.2572 52.5156L87.2301 50.5267C87.2123 49.2122 87.2391 48.5015 87.3096 48.4308C87.3776 48.3626 88.3967 48.3058 90.1257 48.2739L92.8353 48.224L92.8666 47.8428C92.9221 47.1673 92.9593 47.1761 90.0462 47.1761C87.9456 47.1761 87.4086 47.149 87.317 47.0386C87.2379 46.9428 87.2114 46.2962 87.2301 44.9177L87.2572 42.9344L90.0749 42.8845C93.1554 42.83 93.0797 42.8464 93.0828 42.2308C93.0836 42.0635 93.0305 41.8725 92.9648 41.8067C92.8765 41.7182 91.9568 41.6869 89.4453 41.6869C87.5752 41.6869 86.0154 41.7168 85.9789 41.7535ZM105.496 41.8448C105.394 42.1111 105.429 42.5551 105.56 42.664C105.629 42.7208 106.23 42.7823 106.897 42.8009C107.564 42.8195 108.146 42.8721 108.192 42.9178C108.237 42.9635 108.297 45.4112 108.324 48.3571L108.374 53.7132L108.913 53.7439C109.276 53.7646 109.478 53.7322 109.534 53.6441C109.579 53.5723 109.617 51.1434 109.618 48.2465L109.619 42.9794L109.875 42.882C110.015 42.8286 110.611 42.7847 111.2 42.7847C112.377 42.7847 112.508 42.7296 112.508 42.2358C112.508 42.0657 112.454 41.8725 112.388 41.8067C112.3 41.7182 111.39 41.6869 108.913 41.6869C105.944 41.6869 105.55 41.7052 105.496 41.8448ZM79.1459 43.1438C79.9222 43.3727 80.7393 43.9011 81.2524 44.5061C82.3243 45.7699 82.5632 46.4267 82.5107 47.9649C82.4769 48.9548 82.4475 49.0893 82.1264 49.7241C81.6173 50.7305 80.8392 51.5296 79.9858 51.9225C79.0454 52.3555 78.449 52.4657 77.0459 52.4657C76.0118 52.4657 75.8489 52.4432 75.7808 52.291C75.7378 52.195 75.7164 50.0617 75.7331 47.5504L75.7636 42.9843H77.1842C78.1937 42.9843 78.7615 43.0306 79.1459 43.1438ZM19.446 50.987C19.6441 51.1518 19.5982 51.3941 19.2874 51.8222C19.1303 52.0389 18.8122 52.5755 18.5808 53.0146C18.3493 53.4537 18.0409 54.0163 17.8955 54.2647C17.75 54.5131 17.4741 54.9954 17.2823 55.3364C16.8167 56.1646 16.6369 56.1642 16.7259 55.335C16.7628 54.992 16.8413 54.5592 16.9003 54.3736C17.0154 54.0119 17.2412 53.0675 17.3684 52.4158C17.4112 52.1962 17.4975 51.8594 17.56 51.6672C17.6227 51.4751 17.7002 51.1885 17.7323 51.0302L17.7908 50.7425L18.5548 50.8118C18.975 50.85 19.376 50.9288 19.446 50.987ZM139.26 51.8556C139.294 52.0539 139.474 52.8478 139.661 53.6198C140.028 55.1389 140.08 55.6594 139.866 55.6594C139.793 55.6594 139.564 55.3114 139.356 54.8859C139.149 54.4604 138.857 53.9328 138.706 53.7132C138.555 53.4936 138.257 53.0059 138.045 52.6294C137.833 52.253 137.605 51.8503 137.539 51.7345C137.474 51.6188 137.439 51.5053 137.462 51.4821C137.485 51.459 137.808 51.3879 138.179 51.3241C138.976 51.1874 139.162 51.2791 139.26 51.8556ZM97.0686 61.3106C97.5891 61.3464 98.1359 61.4369 98.2838 61.5117C98.4318 61.5864 98.6411 61.6476 98.7489 61.6476C98.8568 61.6476 99.0719 61.7127 99.227 61.7922C99.3821 61.8717 99.5762 61.9622 99.6584 61.9931C99.7406 62.024 99.9871 62.1517 100.206 62.2766C100.425 62.4016 100.761 62.5919 100.952 62.6995C101.143 62.8071 101.641 63.1871 102.059 63.5438C102.476 63.9006 103.044 64.3818 103.319 64.613C103.749 64.9734 104.24 65.707 104.24 65.9877C104.24 66.0347 104.304 66.144 104.383 66.2307C104.601 66.4733 105.535 68.3141 105.539 68.51C105.54 68.6056 105.607 68.771 105.688 68.8774C105.898 69.1552 105.895 72.8564 105.685 73.2248C105.606 73.362 105.541 73.6372 105.539 73.8364C105.537 74.0355 105.468 74.2543 105.386 74.3226C105.304 74.391 105.236 74.5276 105.236 74.6263C105.236 74.7949 104.785 75.7174 104.305 76.5307C103.964 77.1068 102.984 78.2724 102.537 78.6328C102.311 78.8147 101.963 79.1013 101.764 79.2698C101.565 79.4381 101.222 79.6828 101.003 79.8132C100.784 79.9436 100.569 80.1089 100.525 80.1806C100.481 80.2522 100.363 80.3108 100.263 80.3108C100.162 80.3108 99.9513 80.3779 99.7943 80.4599C99.6374 80.5419 99.4418 80.6107 99.3596 80.6128C99.2774 80.6149 99.1231 80.6825 99.0168 80.7631C98.9105 80.8437 98.6863 80.9112 98.5188 80.9131C98.3512 80.9151 98.102 80.9809 97.9651 81.0594C97.5966 81.2703 94.0497 81.2698 93.6457 81.0588C93.4887 80.9767 93.2646 80.9093 93.1476 80.909C93.0306 80.9086 92.8065 80.8413 92.6496 80.7593C92.4926 80.6773 92.2852 80.6102 92.1886 80.6102C92.092 80.6102 91.9572 80.5429 91.889 80.4605C91.8207 80.3782 91.6863 80.3108 91.5901 80.3108C91.494 80.3108 91.3609 80.2452 91.2945 80.165C91.2281 80.0848 91.0881 79.9919 90.9835 79.9587C90.2887 79.7376 88.3001 77.933 87.5971 76.8855C87.3828 76.566 87.2074 76.2873 87.2074 76.2661C87.2074 76.2449 87.0729 75.9991 86.9086 75.7199C86.7442 75.4406 86.6097 75.1297 86.6097 75.029C86.6097 74.9284 86.5425 74.7902 86.4603 74.7218C86.3781 74.6535 86.3109 74.4769 86.3109 74.3295C86.3109 74.182 86.2451 73.9742 86.1647 73.8676C86.0819 73.7579 86.0171 73.4534 86.0153 73.1658C86.0135 72.8864 85.9453 72.4372 85.8638 72.1678C85.6752 71.5451 85.6752 70.9123 85.8638 70.2897C85.9453 70.0202 86.0135 69.5711 86.0153 69.2916C86.0171 69.004 86.0819 68.6995 86.1647 68.5898C86.2451 68.4832 86.3109 68.2754 86.3109 68.1279C86.3109 67.9805 86.3781 67.804 86.4603 67.7356C86.5425 67.6672 86.6097 67.553 86.6097 67.4818C86.6097 67.2974 87.3103 65.9391 87.4054 65.9391C87.4489 65.9391 87.5137 65.8233 87.5491 65.6815C87.6265 65.3727 89.5817 63.3893 90.1458 63.0473C90.365 62.9145 90.5676 62.7726 90.5961 62.7319C90.6246 62.6913 90.7591 62.6096 90.8949 62.5504C91.0307 62.4911 91.3394 62.3311 91.5809 62.1948C91.8223 62.0585 92.0971 61.947 92.1913 61.947C92.2855 61.947 92.4184 61.8796 92.4866 61.7973C92.5549 61.715 92.7535 61.6476 92.928 61.6476C93.1026 61.6476 93.3324 61.5816 93.4388 61.5011C93.5481 61.4181 93.87 61.3494 94.18 61.3426C94.4813 61.3361 94.9519 61.2948 95.2258 61.251C95.4998 61.2071 95.8135 61.1879 95.9231 61.2083C96.0327 61.2287 96.5481 61.2747 97.0686 61.3106ZM54.9844 61.5261C55.0941 61.6203 55.2958 61.9109 55.4324 62.1716C55.5692 62.4322 55.7147 62.6456 55.7558 62.6456C55.7971 62.6456 55.8307 62.7327 55.8307 62.8393C55.8307 62.9459 55.8763 63.0612 55.9319 63.0956C55.9874 63.1301 56.0986 63.3011 56.1789 63.4758C56.2592 63.6504 56.3672 63.8607 56.4192 63.9431C56.4711 64.0254 56.5399 64.1601 56.5719 64.2425C56.604 64.3248 56.7662 64.6167 56.9323 64.8912C57.0985 65.1657 57.2989 65.5331 57.3778 65.7078C57.4566 65.8824 57.5666 66.0535 57.6222 66.0879C57.6778 66.1224 57.7233 66.2391 57.7233 66.3473C57.7233 66.4556 57.7905 66.5701 57.8727 66.6016C57.9549 66.6333 58.0221 66.7643 58.0221 66.893C58.0221 67.0216 58.0782 67.1627 58.1466 67.2066C58.2705 67.2861 58.6244 67.8898 58.91 68.5091C58.9924 68.6875 59.0952 68.8334 59.1385 68.8334C59.182 68.8334 59.2174 68.8947 59.2174 68.9697C59.2174 69.0446 59.3071 69.2201 59.4167 69.3597C59.5262 69.4992 59.6159 69.6795 59.6159 69.7601C59.6159 69.8408 59.6831 69.9627 59.7653 70.0311C59.8475 70.0994 59.9147 70.2149 59.9147 70.2878C59.9147 70.3606 60.0492 70.6199 60.2135 70.8639C60.3779 71.1079 60.5123 71.3517 60.5123 71.4057C60.5123 71.4596 60.5796 71.5596 60.6618 71.6279C60.7439 71.6963 60.8112 71.8379 60.8112 71.9427C60.8112 72.0475 60.8784 72.1591 60.9606 72.1906C61.0428 72.2223 61.1108 72.3443 61.1117 72.462C61.1137 72.7066 61.5536 73.1704 61.6987 73.0807C61.7587 73.0434 61.7984 70.8993 61.804 67.385C61.8088 64.2852 61.8371 61.6857 61.8667 61.6084C61.9517 61.3866 62.245 61.351 64.0013 61.3496C65.3318 61.3485 65.6901 61.378 65.869 61.5036L66.0904 61.6589V71.2309C66.0904 80.5923 66.0861 80.8051 65.8978 80.9062C65.6053 81.063 61.9903 81.0427 61.7723 80.883C61.5949 80.753 61.4296 80.4942 61.1759 79.9487C61.096 79.7771 60.9813 79.606 60.9209 79.5686C60.8606 79.5312 60.8112 79.419 60.8112 79.3191C60.8112 79.2193 60.7439 79.0817 60.6618 79.0134C60.5796 78.945 60.5123 78.8295 60.5123 78.7567C60.5123 78.6838 60.3779 78.4245 60.2135 78.1805C60.0492 77.9365 59.9147 77.6928 59.9147 77.6388C59.9147 77.5849 59.8475 77.4849 59.7653 77.4165C59.6831 77.3482 59.6159 77.2065 59.6159 77.1017C59.6159 76.997 59.5486 76.8854 59.4665 76.8538C59.3843 76.8222 59.317 76.6911 59.317 76.5625C59.317 76.4339 59.2606 76.2927 59.1915 76.2488C59.1224 76.2049 58.9403 75.922 58.7868 75.6201C58.474 75.0049 58.3882 74.8554 57.9972 74.2428C57.8465 74.0067 57.7233 73.7539 57.7233 73.6811C57.7233 73.6082 57.6561 73.4928 57.5739 73.4244C57.4917 73.356 57.4245 73.2213 57.4245 73.125C57.4245 73.0287 57.3572 72.8939 57.2751 72.8256C57.1929 72.7572 57.1257 72.6426 57.1257 72.571C57.1257 72.4993 57.0697 72.3792 57.0011 72.3042C56.8786 72.17 56.7049 71.8676 56.2973 71.079C56.1838 70.8594 56.0324 70.6439 55.9608 70.6C55.8893 70.556 55.8307 70.4149 55.8307 70.2863C55.8307 70.1576 55.7635 70.0266 55.6813 69.9949C55.5992 69.9634 55.5319 69.8269 55.5319 69.6916C55.5319 69.4308 55.1904 69.2355 55.0247 69.4015C54.9754 69.4509 54.9245 72.0418 54.9102 75.225L54.8845 80.9595L52.9209 80.9866L50.9573 81.0136L50.7928 80.762C50.6417 80.5312 50.6328 79.7393 50.6833 71.1187C50.7342 62.4286 50.7511 61.7128 50.9094 61.5376C51.0659 61.3642 51.2378 61.3485 52.9326 61.3515C54.536 61.3544 54.8117 61.3778 54.9844 61.5261ZM78.279 61.5551L78.5415 61.7619L78.54 71.211C78.539 76.9803 78.5017 80.7184 78.4441 80.8098C78.3666 80.9328 78.0007 80.965 76.3962 80.9905C74.9987 81.0126 74.4021 80.9879 74.3006 80.9035C74.1796 80.8028 74.1589 79.3943 74.1601 71.3413C74.1608 66.1469 74.1878 61.7985 74.22 61.6779C74.2523 61.5574 74.3526 61.439 74.4429 61.415C74.5331 61.391 75.3741 61.3661 76.3117 61.3598C77.8953 61.349 78.0352 61.3628 78.279 61.5551ZM117.586 61.5957C117.706 61.7044 117.866 61.9289 117.942 62.0947C118.018 62.2605 118.238 62.6656 118.431 62.9949C118.625 63.3243 118.805 63.6499 118.833 63.7185C118.86 63.7872 118.906 63.8995 118.934 63.968C118.962 64.0367 119.071 64.2275 119.176 64.3922C119.369 64.6955 119.798 65.4641 120.052 65.9621C120.128 66.112 120.232 66.2606 120.284 66.2923C120.335 66.3242 120.377 66.4304 120.377 66.5284C120.377 66.6264 120.467 66.788 120.576 66.8873C120.686 66.9866 120.775 67.1418 120.775 67.2321C120.775 67.3224 120.822 67.443 120.879 67.5001C121.002 67.623 121.42 68.3533 121.624 68.8017C121.703 68.9764 121.814 69.1474 121.87 69.1818C121.925 69.2163 121.971 69.3261 121.971 69.426C121.971 69.5258 122.038 69.6633 122.12 69.7317C122.202 69.8 122.27 69.9155 122.27 69.9884C122.27 70.0612 122.399 70.314 122.557 70.55C122.715 70.7861 123.017 71.3158 123.229 71.7273C123.441 72.1388 123.67 72.5349 123.739 72.6077C123.807 72.6805 123.863 72.8015 123.863 72.8767C123.863 73.0591 124.008 73.1394 124.203 73.0647C124.345 73.01 124.361 72.4257 124.361 67.3448C124.361 62.8963 124.389 61.6483 124.489 61.5106C124.605 61.3523 124.796 61.3384 126.473 61.3667C127.494 61.384 128.367 61.4355 128.412 61.4812C128.54 61.6095 128.57 80.5758 128.443 80.8136C128.345 80.9979 128.224 81.0094 126.395 81.0094H124.451L124.195 80.735C124.054 80.584 123.895 80.3371 123.841 80.1861C123.788 80.0351 123.704 79.9116 123.654 79.9116C123.605 79.9116 123.564 79.8245 123.564 79.7179C123.564 79.6113 123.515 79.4936 123.455 79.4562C123.394 79.4188 123.281 79.2477 123.203 79.0761C123.124 78.9044 122.966 78.6067 122.85 78.4146C122.734 78.2224 122.532 77.8631 122.402 77.6161C122.271 77.3691 122.124 77.0997 122.075 77.0173C122.025 76.935 121.96 76.8002 121.929 76.7179C121.898 76.6356 121.83 76.5008 121.779 76.4185C121.728 76.3362 121.66 76.2014 121.628 76.1191C121.596 76.0367 121.483 75.8346 121.378 75.67C121.152 75.3195 121.012 75.0697 120.623 74.3226C120.466 74.0207 120.312 73.7512 120.28 73.7238C120.249 73.6964 120.169 73.5616 120.102 73.4244C120.035 73.2872 119.938 73.1075 119.887 73.0252C119.836 72.9428 119.767 72.8081 119.735 72.7258C119.703 72.6434 119.541 72.3515 119.375 72.077C119.209 71.8026 119.008 71.4351 118.93 71.2605C118.851 71.0858 118.741 70.9147 118.685 70.8803C118.63 70.8459 118.584 70.7291 118.584 70.6209C118.584 70.5126 118.517 70.3982 118.435 70.3666C118.352 70.335 118.285 70.2116 118.285 70.0925C118.285 69.9733 118.201 69.8036 118.098 69.7153C117.995 69.627 117.886 69.4934 117.857 69.4187C117.67 68.951 117.619 70.0887 117.599 75.1499C117.58 80.2155 117.562 80.772 117.414 80.8847C117.188 81.0577 113.596 81.0621 113.424 80.8897C113.333 80.7982 113.305 78.5195 113.306 71.2337C113.307 65.9888 113.341 61.6481 113.381 61.5877C113.519 61.3806 113.756 61.3578 115.561 61.3779C117.206 61.3963 117.388 61.4157 117.586 61.5957ZM31.0121 61.678C31.0853 61.7664 31.1358 63.6152 31.1694 67.4417C31.2253 73.7978 31.2714 74.9063 31.4837 74.9879C31.562 75.0179 31.6259 75.1515 31.6259 75.2845C31.6259 75.4177 31.6915 75.5517 31.7715 75.5825C31.8516 75.6133 31.9447 75.7253 31.9782 75.8312C32.0118 75.9372 32.2905 76.21 32.5975 76.4372C33.0206 76.7504 33.2725 76.8617 33.638 76.8969C33.9033 76.9224 34.1444 76.9824 34.1739 77.0302C34.2443 77.1445 35.7817 77.1432 35.8522 77.0288C35.8821 76.9803 36.1049 76.9107 36.3473 76.8743C36.9381 76.7856 37.4868 76.5058 37.8613 76.1023C38.3246 75.6032 38.4989 75.305 38.4989 75.0113C38.4989 74.8656 38.5661 74.6904 38.6483 74.622C38.7783 74.5139 38.7977 73.6681 38.7977 68.1261C38.7977 61.9287 38.803 61.7516 38.9904 61.6511C39.281 61.4953 42.7984 61.5146 43.0149 61.6733C43.1744 61.7901 43.1844 62.2393 43.1585 68.1453C43.1373 72.9894 43.1017 74.5267 43.0081 74.6397C42.9406 74.721 42.8672 75.0759 42.8448 75.4284C42.8225 75.7809 42.7323 76.2039 42.6444 76.3686C42.5564 76.5333 42.4842 76.7635 42.4838 76.8804C42.4835 76.9972 42.416 77.1485 42.3338 77.2169C42.2516 77.2853 42.1844 77.42 42.1844 77.5163C42.1844 77.6126 42.1172 77.7474 42.035 77.8157C41.9528 77.8841 41.8856 78.0122 41.8856 78.1005C41.8856 78.3125 40.1935 80.0114 39.9824 80.0114C39.8921 80.0114 39.7624 80.0788 39.6942 80.1611C39.626 80.2435 39.4915 80.3108 39.3954 80.3108C39.2992 80.3108 39.1648 80.3782 39.0965 80.4605C39.0283 80.5429 38.8714 80.6102 38.7479 80.6102C38.6244 80.6102 38.4675 80.6776 38.3993 80.7599C38.3226 80.8525 38.0993 80.9108 37.8144 80.9128C37.5608 80.9145 37.2663 80.9819 37.1601 81.0625C36.8773 81.2768 33.0612 81.2713 32.7773 81.0562C32.6709 80.9756 32.3963 80.9096 32.1669 80.9096C31.9178 80.9096 31.7 80.8494 31.6259 80.7599C31.5577 80.6776 31.4208 80.6102 31.3217 80.6102C31.2226 80.6102 30.8601 80.4642 30.5163 80.2859C29.8197 79.9245 27.9404 78.123 27.9404 77.8167C27.9404 77.7198 27.8732 77.5847 27.791 77.5163C27.7088 77.448 27.6416 77.2901 27.6416 77.1655C27.6416 77.0409 27.5744 76.913 27.4922 76.8814C27.397 76.8449 27.3412 76.6869 27.3384 76.4465C27.336 76.239 27.2694 75.8895 27.1905 75.67C27.0708 75.3372 27.0467 74.137 27.0454 68.4665C27.044 62.0695 27.0544 61.6595 27.2183 61.6166C27.3141 61.5915 28.1827 61.5657 29.1485 61.5594C30.4822 61.5506 30.9302 61.5791 31.0121 61.678ZM94.5286 65.641C94.3095 65.6739 94.0405 65.7508 93.9309 65.8119C93.8214 65.8731 93.5387 66.0171 93.3027 66.132C93.0668 66.247 92.8203 66.385 92.7549 66.4387C92.6895 66.4923 92.4066 66.7127 92.1261 66.9283C91.8457 67.1439 91.512 67.4924 91.3844 67.7026C91.2568 67.9128 91.1205 68.1075 91.0815 68.1351C90.9107 68.256 90.2952 69.5861 90.2952 69.8343C90.2952 69.9849 90.2283 70.2367 90.1464 70.394C89.9588 70.7544 89.9584 71.6987 90.1458 72.0271C90.2241 72.1644 90.2898 72.4395 90.2917 72.6387C90.2936 72.8378 90.3625 73.0566 90.4446 73.125C90.5268 73.1933 90.5941 73.3281 90.5941 73.4244C90.5941 73.5207 90.6613 73.6554 90.7435 73.7238C90.8257 73.7922 90.8929 73.9302 90.8929 74.0306C90.8929 74.2685 92.8394 76.2189 93.0769 76.2189C93.1771 76.2189 93.3149 76.2863 93.3831 76.3686C93.4513 76.4509 93.5813 76.5183 93.672 76.5183C93.7626 76.5183 93.9421 76.5922 94.0708 76.6825C94.3844 76.9026 95.6443 77.0196 96.5706 76.9146C97.3866 76.8222 97.6462 76.7243 98.8795 76.0442C99.1982 75.8684 100.555 74.5871 100.555 74.4618C100.555 74.4248 100.689 74.1756 100.854 73.908C101.084 73.5325 101.153 73.3039 101.153 72.9068C101.153 72.5584 101.208 72.3303 101.325 72.2008C101.569 71.9308 101.627 70.6758 101.417 70.2176C101.333 70.0327 101.232 69.6569 101.193 69.3825C101.136 68.979 101.04 68.798 100.69 68.4344C100.453 68.1873 100.258 67.905 100.257 67.807C100.256 67.5702 98.8926 66.2385 98.6519 66.2385C98.5481 66.2385 98.4631 66.1966 98.4631 66.1454C98.4631 66.0942 98.3622 66.0234 98.239 65.9878C98.1158 65.9523 97.8804 65.8645 97.7161 65.7926C97.3879 65.6493 95.1758 65.544 94.5286 65.641ZM17.0732 80.4356C17.1435 80.7787 17.2157 81.4186 17.2338 81.8578L17.2667 82.6562L17.1668 82.0579C17.1119 81.7287 17.0234 81.4071 16.9703 81.3429C16.8371 81.182 16.7298 79.8118 16.8505 79.8118C16.9028 79.8118 17.003 80.0926 17.0732 80.4356ZM139.758 81.9997C139.657 82.1117 139.601 82.3641 139.6 82.714C139.599 83.0115 139.555 83.3224 139.502 83.4047C139.422 83.5285 139.406 83.5198 139.408 83.3548C139.415 82.8408 139.593 81.7276 139.71 81.4586L139.841 81.1592L139.878 81.4929C139.9 81.7004 139.855 81.892 139.758 81.9997ZM122.718 84.2951C123.704 84.3569 124.712 84.4585 124.959 84.5208C125.213 84.5851 126.401 84.6448 127.696 84.6584C130.247 84.6851 130.149 84.6567 130.339 85.422C130.498 86.0608 131.014 87.357 131.411 88.1113C132.099 89.4196 132.343 89.813 133.06 90.766L133.754 91.69L133.59 92.1997C133.5 92.4801 133.426 92.8577 133.426 93.0391C133.426 93.2204 133.398 93.4398 133.365 93.5266C133.277 93.7576 132.977 93.7192 132.846 93.4599C132.482 92.7415 131.989 92.0053 131.288 91.1305C130.358 89.9698 128.27 87.7961 128.085 87.7961C128.014 87.7961 127.913 87.942 127.86 88.1204C127.807 88.2989 127.667 88.6918 127.548 88.9937C127.429 89.2956 127.297 89.6833 127.255 89.8552C127.212 90.0272 127.143 90.2217 127.103 90.2875C126.955 90.5278 126.532 92.3404 126.276 93.8342C126.065 95.0639 126.035 98.9343 126.228 100.022C126.36 100.767 126.598 101.618 126.817 102.133C126.891 102.306 126.951 102.49 126.951 102.542C126.951 102.594 127.068 102.857 127.21 103.126C127.84 104.317 128.282 105.116 128.337 105.162C128.369 105.189 128.479 105.31 128.58 105.431C128.764 105.649 128.762 105.654 128.232 106.218C127.938 106.531 127.284 107.098 126.777 107.479C126.27 107.86 125.792 108.262 125.715 108.373C125.464 108.732 125.219 108.563 125.108 107.955C125.054 107.654 124.981 107.363 124.947 107.308C124.913 107.253 124.853 107.028 124.814 106.809C124.724 106.304 124.433 105.429 124.112 104.702C123.975 104.392 123.863 104.1 123.863 104.052C123.863 103.973 123.524 103.189 123.091 102.268C122.937 101.94 122.032 100.386 121.648 99.7912C121.553 99.6436 121.433 99.4263 121.381 99.3081C121.242 98.9937 121.12 98.9536 120.896 99.1492C120.658 99.3574 119.324 101.442 119.175 101.839C119.117 101.992 118.897 102.477 118.687 102.916C118.219 103.893 118.018 104.361 117.485 105.711C117.091 106.711 116.803 108.138 116.645 109.886C116.531 111.135 116.532 111.58 116.648 112.741C116.723 113.497 116.826 114.223 116.875 114.355C117.047 114.81 117.097 115.583 116.966 115.747C116.897 115.833 116.281 116.34 115.596 116.875C114.228 117.943 114.237 117.942 114.211 117.038C114.206 116.846 114.135 116.375 114.054 115.991C113.972 115.606 113.905 115.033 113.904 114.716C113.903 114.292 113.826 113.976 113.613 113.518C113.454 113.176 113.154 112.425 112.946 111.849C112.739 111.272 112.538 110.756 112.5 110.701C112.462 110.646 112.4 110.452 112.361 110.27C112.322 110.088 112.227 109.819 112.15 109.671C112.074 109.524 112.011 109.346 112.01 109.276C112.01 109.205 111.913 109.112 111.795 109.068C111.619 109.003 111.487 109.08 111.063 109.495C110.572 109.976 109.961 110.748 109.417 111.574C109.282 111.779 109.142 111.947 109.107 111.948C109.038 111.949 108.026 113.412 108.026 113.511C108.026 113.543 107.829 113.894 107.589 114.29C107.149 115.017 106.447 116.431 106.028 117.438C105.771 118.053 105.585 118.346 104.96 119.12C104.723 119.414 104.424 119.818 104.296 120.018C103.949 120.56 102.643 121.938 102.538 121.874C102.488 121.843 102.447 121.045 102.446 120.102C102.445 118.214 102.407 117.937 102.153 117.937C101.956 117.937 100.323 118.755 99.6584 119.187C99.4119 119.348 98.874 119.728 98.4631 120.033C98.0522 120.337 97.5368 120.703 97.3176 120.845C96.942 121.088 95.5621 122.329 94.7646 123.141C93.992 123.927 92.2797 126.265 92.1377 126.728C92.0969 126.86 91.9392 127.238 91.7871 127.568C91.6349 127.897 91.4361 128.414 91.3451 128.715C90.8992 130.196 90.8554 130.299 90.6504 130.354C90.5373 130.384 84.9929 130.41 78.3295 130.411C67.4959 130.412 66.2009 130.396 66.086 130.257C66.0154 130.172 65.9001 129.824 65.8296 129.484C65.3549 127.189 64.9235 126.295 63.1235 123.875C62.607 123.181 60.4267 121.009 59.9147 120.679C59.7229 120.555 59.1627 120.136 58.6696 119.748C58.1765 119.36 57.5266 118.918 57.2253 118.766C56.924 118.614 56.6102 118.437 56.528 118.373C56.4458 118.309 56.0116 118.055 55.5631 117.808C54.4602 117.2 54.4498 117.212 54.368 119.209C54.2841 121.256 54.5893 124.097 55.0839 125.871C55.3472 126.816 55.6306 127.719 55.7185 127.893C56.087 128.622 56.236 129.214 56.0508 129.214C56.0075 129.214 55.4583 128.785 54.8306 128.259C54.2028 127.734 53.2858 126.976 52.7927 126.576C51.3345 125.393 51.3919 125.493 51.5458 124.4C51.8297 122.385 51.7621 119.865 51.3952 118.785C51.3207 118.565 51.2296 118.217 51.1931 118.01C51.1565 117.804 51.0868 117.61 51.0383 117.58C50.9897 117.55 50.9499 117.457 50.9499 117.372C50.9499 117.198 50.8717 117.018 49.9798 115.142C49.2634 113.636 48.968 113.134 48.1594 112.048C47.8528 111.637 47.4945 111.12 47.3634 110.901C47.2323 110.681 46.8763 110.233 46.5721 109.905C45.1767 108.399 45.1376 108.372 44.9739 108.803C44.9221 108.94 44.7848 109.243 44.6687 109.477C44.5526 109.711 44.4201 110.015 44.3744 110.152C44.3286 110.289 44.1952 110.649 44.078 110.95C43.5175 112.394 43.0248 114.226 42.8706 115.442C42.5519 117.953 42.5678 117.912 42.064 117.502C41.8837 117.355 41.455 117.015 41.1112 116.747C40.2499 116.074 39.7386 115.602 39.665 115.41C39.6054 115.254 39.708 114.815 39.9023 114.394C40.0021 114.177 40.1399 113.541 40.2913 112.597C40.4059 111.884 40.4074 109.826 40.2939 109.054C40.1405 108.011 39.9801 107.206 39.8263 106.709C39.4578 105.518 39.1504 104.651 38.7828 103.765C38.5664 103.243 38.3529 102.727 38.3082 102.617C37.8267 101.432 36.2305 98.7516 35.9347 98.6318C35.8666 98.6042 35.7176 98.6811 35.6036 98.8028C35.3792 99.0421 34.2563 100.9 33.9923 101.469C33.9032 101.661 33.6734 102.155 33.4817 102.567C32.5034 104.668 32.0116 106.15 31.7015 107.931C31.6419 108.275 31.5443 108.555 31.485 108.554C31.4255 108.554 31.108 108.322 30.7792 108.04C30.4505 107.757 30.0658 107.454 29.9241 107.367C29.5864 107.158 27.9404 105.638 27.9404 105.534C27.9404 105.49 28.1538 105.175 28.4144 104.834C29.0619 103.987 29.9157 102.246 30.2599 101.07C30.7653 99.3437 30.7792 99.2244 30.7792 96.6287C30.7792 94.6017 30.745 93.9651 30.5966 93.2354C30.226 91.4143 29.932 90.2381 29.7105 89.6923C29.655 89.5551 29.551 89.2183 29.4796 88.9438C29.0929 87.4582 29.0649 87.4001 28.7373 87.3998C28.5464 87.3997 27.9364 87.967 27.2407 88.792C26.9407 89.1477 26.5131 89.6233 26.2905 89.8489C25.9427 90.2015 24.886 91.6473 24.053 92.9103C23.6577 93.5099 23.4443 93.3731 23.315 92.4369C23.277 92.1625 23.1963 91.7952 23.1354 91.6208C23.0328 91.3267 23.0543 91.2644 23.43 90.7658C23.653 90.47 24.0209 90.0132 24.2476 89.7506C24.4743 89.4881 24.8534 88.8838 25.0899 88.4077C25.3265 87.9314 25.5708 87.4531 25.6331 87.3446C25.6952 87.2361 25.9506 86.6309 26.2005 85.9996C26.4504 85.3684 26.7088 84.8005 26.7747 84.7377C26.8643 84.6523 27.6608 84.6504 29.9326 84.73C34.87 84.9031 49.6105 84.8423 53.0915 84.6345C56.6216 84.4237 68.6333 84.4094 75.1548 84.6081C77.4283 84.6773 80.8125 84.7249 82.6752 84.7138C89.9061 84.6708 100.652 84.5006 101.601 84.4139C102.149 84.3639 104.255 84.3134 106.282 84.3018C108.309 84.2902 110.394 84.2486 110.914 84.2093C112.307 84.1044 120.639 84.1648 122.718 84.2951ZM46.8604 88.3642C46.7921 88.5732 46.5636 89.1174 46.3528 89.5735C46.142 90.0296 45.9695 90.425 45.9695 90.4523C45.9695 90.4795 45.8857 90.6902 45.7831 90.9204C45.6805 91.1507 45.4514 91.7209 45.274 92.1874C45.0965 92.654 44.5027 94.0892 43.9544 95.3767C42.9109 97.827 42.5631 98.7616 42.6452 98.8946C42.6722 98.9383 42.9145 98.9741 43.1838 98.9741C43.7542 98.9741 43.7132 99.0298 44.3778 97.3506C44.7002 96.5358 44.8537 96.2635 45.0128 96.2245C45.1281 96.1961 46.1621 96.1857 47.3104 96.2012L49.3985 96.2295L49.5201 96.479C49.5869 96.6162 49.8043 97.1547 50.0033 97.6757C50.4383 98.8155 50.5657 98.9741 51.0451 98.9741C51.4554 98.9741 51.6573 98.8277 51.5779 98.5876C51.4153 98.096 50.9831 97.0176 50.6327 96.2295C50.0723 94.9688 50.0173 94.8368 49.6562 93.8841C49.4794 93.4175 48.9175 92.0477 48.4075 90.8401C47.8976 89.6325 47.4654 88.56 47.4471 88.4567C47.4288 88.3535 47.3173 88.205 47.1994 88.1266C46.9962 87.9917 46.9782 88.0043 46.8604 88.3642ZM80.7917 88.3065C80.767 88.3825 80.7045 88.6918 80.6529 88.9937C80.6012 89.2956 80.371 90.351 80.1412 91.3391C79.7583 92.986 79.3392 94.8075 78.9933 96.3293C78.6909 97.6593 78.5206 98.676 78.5761 98.8209C78.6542 99.0247 79.3694 99.0274 79.5375 98.8245C79.6057 98.7421 79.728 98.3715 79.8094 98.0011C79.8907 97.6305 80.0138 97.0803 80.083 96.7784C80.3704 95.5241 80.7211 93.8922 80.8336 93.2853C80.8999 92.9285 80.9964 92.4653 81.0482 92.2559L81.1424 91.8752L81.3143 92.1062C81.4088 92.2332 81.5905 92.6066 81.718 92.936C81.8455 93.2653 82.1421 94.0063 82.3771 94.5827C82.612 95.1591 82.9486 96.0349 83.125 96.5289C83.765 98.3212 84.24 99.359 84.3934 99.3C84.5572 99.237 85.0002 98.3202 85.3008 97.4217C85.643 96.399 86.3757 94.4809 86.8019 93.492C87.0249 92.9743 87.2081 92.5027 87.2089 92.444C87.2119 92.2354 87.375 92.0817 87.5301 92.1414C87.6338 92.1812 87.7255 92.4291 87.799 92.8683C87.8604 93.2349 88.0186 93.9839 88.1506 94.5328C88.2825 95.0817 88.4871 95.9575 88.6055 96.479C89.1974 99.0899 89.1499 98.975 89.635 98.9726C90.179 98.9699 90.2031 98.9103 90.0404 97.9728C89.7471 96.2824 89.5581 95.3994 88.6099 91.2892C88.4388 90.5482 88.2326 89.6358 88.1516 89.2616C87.9204 88.1944 87.6866 87.8989 87.5536 88.5057C87.5162 88.6763 87.3733 89.0694 87.2362 89.379C87.0989 89.6886 86.8619 90.2787 86.7094 90.6904C86.557 91.1021 86.3181 91.6882 86.1785 91.993C86.0389 92.2978 85.7658 93.0164 85.5717 93.5899C84.783 95.9197 84.5709 96.4045 84.3591 96.3616C84.2614 96.3418 84.065 95.9805 83.8536 95.431C83.6633 94.937 83.4267 94.3307 83.3278 94.0837C83.2289 93.8367 83.0712 93.3876 82.9775 93.0857C82.8241 92.5916 82.6909 92.2432 82.4243 91.6385C82.191 91.1093 81.4045 89.1075 81.3225 88.834C81.2063 88.4461 80.8585 88.1006 80.7917 88.3065ZM54.8845 88.4911C54.1761 88.7247 53.3338 89.4182 53.0272 90.0203C52.469 91.1167 52.7652 92.3094 53.7975 93.1213C54.431 93.6194 55.01 93.8541 56.4111 94.1803C58.4435 94.6537 59.2174 95.2463 59.2174 96.3293C59.2174 97.428 58.3595 98.1145 56.8268 98.242C56.0719 98.3049 54.96 98.079 54.5364 97.7768C54.3846 97.6685 54.1694 97.3858 54.058 97.1486C53.7801 96.5561 53.638 96.4621 53.0744 96.4981C52.6681 96.5241 52.5887 96.5625 52.5627 96.7458C52.5239 97.0179 52.8466 97.6604 53.257 98.1288C53.8649 98.8225 54.9714 99.1866 56.4782 99.1888C58.7065 99.1921 60.0884 98.2951 60.4217 96.6287C60.5241 96.1165 60.517 95.9457 60.3725 95.4484C60.0496 94.337 59.254 93.8298 56.5778 93.0291C55.2251 92.6244 54.4963 92.2659 54.1967 91.858C53.9104 91.4682 53.9089 90.5147 54.1941 90.1216C54.7445 89.3626 56.3693 89.0753 57.6221 89.5154C58.1602 89.7044 58.315 89.813 58.5501 90.1664C58.8117 90.5599 58.8643 90.5906 59.2769 90.5906C59.7947 90.5906 59.9016 90.4421 59.7129 89.9855C59.5374 89.561 58.5773 88.7341 58.0319 88.5379C57.2976 88.2736 55.6196 88.2487 54.8845 88.4911ZM64.148 88.3817C63.1528 88.6462 62.2648 89.3008 61.9126 90.0296C61.7634 90.3385 61.7076 90.6512 61.7076 91.1782C61.7076 92.0738 61.967 92.5775 62.7332 93.1697C63.3583 93.6529 63.4928 93.7067 65.1441 94.1335C66.7336 94.5442 67.0818 94.6884 67.586 95.1449C68.2572 95.7524 68.3249 96.5171 67.7781 97.3141C67.4445 97.8003 67.1464 97.9726 66.3328 98.1496C65.7122 98.2845 65.4483 98.2944 64.8344 98.2058C63.7262 98.0458 63.216 97.7447 62.8712 97.047L62.5904 96.479H62.1027C61.7231 96.479 61.5923 96.5216 61.5123 96.6714C61.3888 96.9024 61.4443 97.0722 61.8571 97.7265C62.4774 98.71 63.5843 99.1745 65.3433 99.1895C67.2572 99.2059 68.4474 98.6328 69.0883 97.3862C69.2655 97.0416 69.3144 96.7818 69.3137 96.1885C69.3127 95.3031 69.1316 94.8374 68.6094 94.378C68.2453 94.0577 67.0498 93.4607 66.5387 93.344C65.6145 93.1328 63.9504 92.5319 63.5455 92.2633C62.9828 91.8898 62.7608 91.4368 62.8317 90.8068C62.8961 90.2341 63.1511 89.8989 63.7555 89.5925C64.1867 89.374 64.3711 89.3438 65.2437 89.3497C66.4776 89.358 67.0369 89.5706 67.4431 90.1856C67.686 90.5534 67.7495 90.5906 68.1334 90.5906C68.6688 90.5906 68.8053 90.4414 68.6361 90.0417C68.4577 89.6204 67.5754 88.8265 67.0127 88.5809C66.495 88.3551 64.7145 88.2312 64.148 88.3817ZM71.0459 88.5027C70.8835 88.5975 70.8716 88.9537 70.8716 93.7287C70.8716 98.3093 70.8883 98.8593 71.0292 98.9135C71.1158 98.9468 72.4775 98.9741 74.055 98.9741C77.216 98.9741 77.2279 98.9718 77.098 98.3793C77.0615 98.2124 77.0238 98.0665 77.0146 98.0553C77.0052 98.044 75.8769 98.0103 74.5073 97.9804L72.0171 97.9261V96.1297V94.3332L74.4575 94.2788C75.7997 94.249 76.9091 94.2152 76.9228 94.204C76.9366 94.1927 76.9477 94.0028 76.9477 93.7818C76.9477 93.4425 76.9081 93.365 76.6922 93.2828C76.5517 93.2293 75.4583 93.1855 74.2625 93.1855C72.3717 93.1855 72.0804 93.1649 72.0278 93.0276C71.9069 92.712 71.9605 89.7083 72.0884 89.6292C72.1551 89.5879 73.2568 89.5515 74.5369 89.5484C76.722 89.543 76.8728 89.5308 77.0056 89.3489C77.1917 89.0939 77.1851 88.7468 76.9904 88.5517C76.8554 88.4165 76.4486 88.3953 74.0271 88.3979C72.3066 88.3998 71.1528 88.4403 71.0459 88.5027ZM91.7466 88.5517C91.6086 88.6901 91.5901 89.298 91.5901 93.7293C91.5901 97.9988 91.6118 98.7681 91.7349 98.8704C91.8412 98.9588 92.4699 98.9816 94.1006 98.9566C96.2953 98.9229 96.3282 98.9192 96.8875 98.6448C97.503 98.3429 97.9396 97.9071 98.2848 97.2497C98.4636 96.9091 98.5058 96.6654 98.5047 95.98C98.5028 94.8465 98.2522 94.3232 97.4172 93.7078C97.0885 93.4656 96.806 93.2308 96.7895 93.186C96.773 93.1412 96.8902 92.9542 97.05 92.7707C97.776 91.9368 97.9584 90.9764 97.5586 90.0916C96.977 88.8041 95.9582 88.3949 93.3339 88.3949C92.1661 88.3949 91.8744 88.4237 91.7466 88.5517ZM100.125 88.5196C99.968 88.6348 99.957 89.0408 99.981 93.7843L100.007 98.9242H102.398H104.788V98.475V98.0259L103.017 97.9987L101.245 97.9714L101.149 97.7177C101.092 97.5683 101.053 95.6486 101.053 93.0492C101.053 89.7485 101.023 88.6042 100.933 88.5147C100.778 88.3586 100.34 88.3613 100.125 88.5196ZM105.602 88.4615C105.445 88.6188 105.563 88.9777 105.924 89.4428C106.28 89.9 106.919 90.7896 108.596 93.1575L109.217 94.0338L109.232 95.7304C109.24 96.6636 109.275 97.7639 109.309 98.1756L109.37 98.9242H109.818H110.267L110.328 97.7265C110.362 97.0678 110.395 95.9672 110.403 95.2806L110.416 94.0324L111.068 93.1349C111.426 92.6412 111.884 91.9903 112.086 91.6884C112.288 91.3865 112.849 90.6089 113.333 89.9604C113.817 89.312 114.199 88.7057 114.182 88.6131C114.139 88.3885 113.29 88.3243 113.005 88.5241C112.895 88.6012 112.397 89.2661 111.898 90.0017C111.399 90.7373 110.824 91.5412 110.62 91.7882C110.416 92.0352 110.195 92.3384 110.13 92.4619C110.064 92.5853 109.934 92.6838 109.84 92.6806C109.678 92.6749 108.576 91.268 107.98 90.3061C107.578 89.6569 106.84 88.6614 106.656 88.5196C106.486 88.3891 105.716 88.3466 105.602 88.4615ZM95.9731 89.8489C96.4281 90.1152 96.5673 90.413 96.5691 91.1241C96.5722 92.338 96.0498 92.7009 94.2047 92.7668C93.3229 92.7982 92.9428 92.776 92.8351 92.6862C92.6369 92.5216 92.6153 89.9049 92.8103 89.7035C92.9033 89.6076 93.2756 89.584 94.28 89.6102C95.4129 89.6397 95.68 89.6774 95.9731 89.8489ZM47.4134 91.1144C47.4777 91.344 47.7354 91.9871 48.453 93.7085C49.0698 95.1884 49.1737 95.0817 47.115 95.0817H45.3719V94.8272C45.3719 94.6873 45.4446 94.4318 45.5335 94.2596C45.6857 93.9647 46.4924 92.038 46.847 91.1224C46.9801 90.7786 47.0379 90.7221 47.1794 90.798C47.2735 90.8485 47.3789 90.9909 47.4134 91.1144ZM96.3264 94.1426C96.9015 94.4161 97.3674 95.1973 97.3674 95.888C97.3674 96.6801 96.8688 97.4406 96.1223 97.7868C95.7944 97.9389 95.4731 97.972 94.308 97.9738C93.0088 97.9758 92.8836 97.9602 92.7889 97.783C92.6792 97.5775 92.6421 94.4137 92.7463 94.1418C92.8356 93.9087 95.836 93.9094 96.3264 94.1426ZM64.0982 111.934C64.0982 112.057 64.2064 112.15 64.422 112.212L64.7457 112.305V114.145C64.7457 115.973 64.7442 115.985 64.5132 116.101C63.6644 116.525 64.0261 116.636 66.2612 116.638C68.4781 116.639 68.3814 116.686 68.3814 115.61C68.3814 114.933 68.248 114.686 67.9458 114.802C67.8297 114.846 67.7838 114.99 67.7838 115.309C67.7838 116.095 67.7185 116.14 66.5956 116.14C65.4661 116.14 65.492 116.162 65.4943 115.209C65.4962 114.397 65.5526 114.325 66.1499 114.363C66.606 114.392 66.6446 114.415 66.7345 114.721C66.7965 114.933 66.8848 115.038 66.9835 115.019C67.1065 114.995 67.1363 114.825 67.1363 114.144C67.1363 113.464 67.1065 113.293 66.9835 113.269C66.8848 113.25 66.7965 113.356 66.7345 113.567C66.6472 113.864 66.5982 113.898 66.2076 113.926C65.5918 113.97 65.4928 113.846 65.4928 113.032C65.4928 112.384 65.5081 112.337 65.7483 112.245C66.0734 112.122 67.3878 112.121 67.5829 112.245C67.6741 112.303 67.7506 112.561 67.7822 112.917C67.8299 113.454 67.8515 113.495 68.0826 113.495C68.3206 113.495 68.3329 113.466 68.361 112.824C68.4102 111.701 68.509 111.749 66.1367 111.749C64.2177 111.749 64.0982 111.76 64.0982 111.934ZM86.2439 111.904C85.4805 112.239 85.3941 113.166 86.0681 113.792C86.2799 113.989 86.3064 114.066 86.2186 114.23C86.1599 114.34 86.0303 114.456 85.9305 114.488C85.7028 114.56 85.4144 115.153 85.4144 115.548C85.4144 116.225 86.0557 116.639 87.1033 116.639C88.0706 116.639 88.6427 116.306 88.7612 115.673C88.842 115.242 88.6717 114.839 88.2445 114.449C88.0575 114.279 87.9046 114.099 87.9046 114.05C87.9046 114 88.0391 113.825 88.2035 113.661C88.4546 113.409 88.5023 113.283 88.5023 112.87C88.5023 112.34 88.4048 112.2 87.8349 111.911C87.4516 111.716 86.679 111.713 86.2439 111.904ZM72.8622 112.4C72.7428 112.594 72.5934 112.807 72.5303 112.875C72.1265 113.306 72.1147 113.356 72.3706 113.549C72.6018 113.724 72.6164 113.796 72.6501 114.937C72.6853 116.131 72.6879 116.142 72.9815 116.39C73.2989 116.657 73.9066 116.728 74.2601 116.539C74.5061 116.407 74.8375 115.383 74.684 115.229C74.5185 115.064 74.3883 115.198 74.3105 115.615C74.1921 116.25 73.865 116.432 73.5233 116.054C73.3821 115.898 73.3596 115.684 73.3833 114.731L73.4116 113.595L73.9097 113.545C74.5449 113.482 74.6088 113.223 74.0093 113.143C73.4734 113.071 73.3618 112.986 73.3618 112.649C73.3618 112.312 73.2732 112.048 73.1601 112.048C73.1156 112.048 72.9815 112.207 72.8622 112.4ZM87.717 112.359C88.1118 112.755 87.7842 113.745 87.2584 113.745C86.9065 113.745 86.286 113.142 86.286 112.8C86.286 112.198 87.2574 111.899 87.717 112.359ZM69.5904 113.221C68.6012 113.736 68.9271 114.706 70.2053 115.051C71.0453 115.277 71.3382 115.699 70.946 116.117C70.7696 116.305 70.6437 116.343 70.2773 116.32C69.8336 116.29 69.8252 116.283 69.7948 115.916C69.7581 115.471 69.495 115.272 69.1725 115.445C68.8792 115.602 68.9468 116.109 69.2954 116.369C69.8221 116.761 71.1042 116.715 71.5302 116.288C71.7845 116.033 71.8521 115.486 71.6711 115.147C71.533 114.889 70.9932 114.592 70.4006 114.45C69.7723 114.299 69.5127 114.051 69.6712 113.754C69.7958 113.521 70.1129 113.414 70.5358 113.463C70.7616 113.489 70.8283 113.552 70.8526 113.763C70.8911 114.096 71.0907 114.269 71.3891 114.227C71.6912 114.184 71.7636 113.659 71.499 113.43C71.0458 113.037 70.1356 112.937 69.5904 113.221ZM82.2683 113.188C81.317 113.603 81.1747 114.943 82.0211 115.515C82.2937 115.699 82.4923 115.741 83.0884 115.741C83.7895 115.741 83.8207 115.751 83.8207 115.974C83.8207 116.239 83.1153 117.038 82.8819 117.038C82.7995 117.038 82.6857 116.952 82.629 116.846C82.4146 116.444 81.7289 116.519 81.7289 116.944C81.7289 117.188 82.2725 117.537 82.6536 117.537C82.9954 117.538 83.7944 117.14 84.0898 116.822C84.8282 116.029 84.8777 114.319 84.1842 113.561C83.7195 113.053 82.9305 112.899 82.2683 113.188ZM79.2759 113.338C79.0499 113.44 78.8362 113.571 78.8011 113.628C78.7167 113.765 78.9295 113.895 79.2387 113.895C79.4863 113.895 79.4879 113.901 79.5161 114.918C79.5463 116.004 79.4578 116.34 79.1415 116.34C79.0371 116.34 78.9274 116.379 78.8979 116.427C78.7863 116.608 80.1955 116.701 80.7328 116.549L80.9819 116.478L80.683 116.333L80.3842 116.188L80.3564 114.798C80.34 113.982 80.2836 113.355 80.2197 113.278C80.0698 113.097 79.7622 113.116 79.2759 113.338ZM89.9006 113.291C89.8312 113.375 89.7505 113.743 89.7211 114.109C89.6595 114.877 89.7781 115.042 90.3906 115.042C91.6113 115.042 92.0827 116.419 91.0732 117.036C90.6441 117.298 90.4102 117.291 90.3042 117.014C90.2571 116.89 90.1324 116.711 90.0271 116.616C89.8535 116.46 89.8156 116.458 89.6173 116.597C89.3338 116.796 89.3411 116.99 89.6433 117.292C89.8556 117.505 89.9782 117.537 90.5748 117.537C91.3776 117.537 91.8234 117.306 92.1192 116.737C92.3417 116.309 92.2913 115.47 92.0211 115.102C91.8335 114.847 91.0937 114.543 90.6582 114.543C90.0837 114.543 89.9583 114.337 90.2864 113.931C90.4432 113.737 90.5968 113.686 91.1579 113.645C91.7562 113.601 91.8392 113.571 91.8392 113.396C91.8392 113.213 91.7633 113.194 90.9329 113.168C90.2168 113.145 90.0002 113.171 89.9006 113.291ZM83.3108 113.556C83.63 113.668 83.836 113.959 83.9592 114.473C84.0133 114.699 83.9702 114.808 83.7318 115.047C83.0005 115.78 81.8979 115.033 82.2438 114.039C82.337 113.771 82.5081 113.635 82.9841 113.449C82.9896 113.447 83.1366 113.495 83.3108 113.556ZM87.5546 114.66C87.7056 114.779 87.8934 115.03 87.9718 115.218C88.0976 115.52 88.096 115.589 87.9583 115.799C87.5655 116.4 86.8448 116.485 86.3495 115.988C86.0138 115.652 86.0389 115.232 86.4209 114.796C86.7863 114.379 87.1439 114.336 87.5546 114.66ZM75.6101 115.898C75.524 115.984 75.4536 116.116 75.4536 116.19C75.4536 116.265 75.524 116.396 75.6101 116.482C75.6962 116.569 75.8275 116.639 75.9018 116.639C75.9761 116.639 76.1074 116.569 76.1936 116.482C76.2796 116.396 76.3501 116.265 76.3501 116.19C76.3501 116.116 76.2796 115.984 76.1936 115.898C76.1074 115.812 75.9761 115.741 75.9018 115.741C75.8275 115.741 75.6962 115.812 75.6101 115.898ZM105.185 123.7C105.216 123.906 105.285 124.291 105.338 124.556C105.484 125.276 105.46 125.483 105.212 125.646C105.088 125.727 104.488 126.215 103.879 126.731C102.052 128.274 101.55 128.664 101.346 128.698C100.787 128.789 101.522 127.224 102.602 126.021C103.021 125.554 103.599 124.881 103.888 124.524C104.488 123.781 104.928 123.326 105.046 123.326C105.091 123.326 105.153 123.495 105.185 123.7Z" fill="white"/>
</svg>
