<svg width="113" height="24" viewBox="0 0 113 24" fill="none" xmlns="http://www.w3.org/2000/svg">
<g clip-path="url(#clip0_7629_8029)">
<path d="M0.813965 0.0234375H113V25.5066H0.813965V0.0234375Z" fill="white"/>
<path d="M0.813965 0.0234375H113V23.5463H0.813965V0.0234375Z" fill="white"/>
<path d="M0.813965 0.0234375H113V23.5463H0.813965V0.0234375Z" fill="white"/>
<path d="M4.49891 1.72021C3.30257 1.72021 2.32312 2.72994 2.32312 3.96326V19.6677C2.32312 20.901 3.30257 21.9107 4.49891 21.9107H19.7314C20.9287 21.9107 21.9082 20.901 21.9082 19.6677V3.96326C21.9082 2.72994 20.9287 1.72021 19.7314 1.72021H4.49891ZM19.7314 19.6677H4.49891V3.96326H19.7314V19.6677Z" fill="black"/>
<path d="M6.16089 5.67676H17.947V8.02905H6.16089V5.67676Z" fill="black"/>
<path d="M35.5526 5.90479H38.3929L33.4927 17.0047H31.2625L26.3583 5.90479H29.2778L32.4073 13.3986L35.5526 5.90479Z" fill="black"/>
<path d="M39.0342 17.0047V5.90479H46.6836V8.14273H41.7675V10.25H46.3786V12.4716H41.7675V14.7708H46.6836V17.0047H39.0342Z" fill="black"/>
<path d="M57.8314 17.0047H54.7455L52.8836 13.464C52.6479 13.0535 52.2756 12.8473 51.7665 12.8473H50.9109V17.0047H48.1498V5.90479H53.2798C54.5811 5.90479 55.5615 6.19678 56.2191 6.77873C56.8767 7.36169 57.2055 8.20399 57.2055 9.30662C57.2055 10.1459 56.9807 10.8564 56.5321 11.4384C56.0824 12.0214 55.4516 12.4124 54.6385 12.6104C55.2585 12.7493 55.7526 13.1648 56.1201 13.856L57.8314 17.0047ZM52.8361 10.6747C53.456 10.6747 53.9017 10.5757 54.1711 10.3766C54.4424 10.1785 54.5791 9.85283 54.5791 9.40055C54.5791 8.93806 54.4424 8.6042 54.1711 8.40001C53.9017 8.19582 53.456 8.09372 52.8361 8.09372H50.8831V10.6747H52.8361Z" fill="black"/>
<path d="M66.1667 11.2424C66.7975 11.4414 67.2808 11.7753 67.6165 12.2429C67.9542 12.7085 68.1236 13.2833 68.1236 13.9663C68.1236 14.5768 67.9671 15.1098 67.6561 15.5671C67.3442 16.0225 66.9005 16.3757 66.3251 16.6289C65.7517 16.8801 65.0783 17.0047 64.3048 17.0047H58.9451V5.90479H64.1503C65.2803 5.90479 66.1785 6.16513 66.8441 6.6848C67.5115 7.20549 67.8463 7.90587 67.8463 8.78797C67.8463 9.35461 67.6977 9.8559 67.4026 10.2908C67.1095 10.7268 66.6975 11.0443 66.1667 11.2424ZM61.6784 10.2663H63.6789C64.2068 10.2663 64.592 10.1836 64.8356 10.0172C65.0812 9.84875 65.204 9.58024 65.204 9.21269C65.204 8.82371 65.0812 8.5409 64.8356 8.36326C64.592 8.18357 64.2068 8.09372 63.6789 8.09372H61.6784V10.2663ZM63.9522 14.8157C64.5118 14.8157 64.9109 14.7249 65.1486 14.5421C65.3882 14.3573 65.5091 14.0551 65.5091 13.6355C65.5091 13.2169 65.3882 12.9157 65.1486 12.733C64.9109 12.5482 64.5118 12.4553 63.9522 12.4553H61.6784V14.8157H63.9522Z" fill="black"/>
<path d="M82.8436 5.90479H85.4977L81.6512 17.0047H79.4209L77.1471 10.3439L74.8416 17.0047H72.5955L68.7609 5.90479H71.617L73.8473 12.9412L76.2597 5.90479H78.2008L80.5063 13.0678L82.8436 5.90479Z" fill="black"/>
<path d="M86.6738 17.0047V5.90479H89.4824V17.0047H86.6738Z" fill="black"/>
<path d="M101.119 17.0047H98.0334L96.1716 13.464C95.9359 13.0535 95.5635 12.8473 95.0545 12.8473H94.1988V17.0047H91.4377V5.90479H96.5677C97.869 5.90479 98.8495 6.19678 99.5071 6.77873C100.165 7.36169 100.493 8.20399 100.493 9.30662C100.493 10.1459 100.269 10.8564 99.82 11.4384C99.3704 12.0214 98.7395 12.4124 97.9265 12.6104C98.5464 12.7493 99.0406 13.1648 99.408 13.856L101.119 17.0047ZM96.1241 10.6747C96.744 10.6747 97.1897 10.5757 97.459 10.3766C97.7304 10.1785 97.8671 9.85283 97.8671 9.40055C97.8671 8.93806 97.7304 8.6042 97.459 8.40001C97.1897 8.19582 96.744 8.09372 96.1241 8.09372H94.1711V10.6747H96.1241Z" fill="black"/>
<path d="M102.233 17.0047V5.90479H109.882V8.14273H104.966V10.25H109.577V12.4716H104.966V14.7708H109.882V17.0047H102.233Z" fill="black"/>
<path d="M18.0112 5.67871V17.8291H15.7295V5.67871H18.0112Z" fill="black"/>
<path d="M17.214 8.47609L5.29226 20.2927L3.71167 18.5969L15.6324 6.78027L17.214 8.47609Z" fill="black"/>
<path d="M4.14443 15.4883L8.24346 20.1183L6.41727 21.8366L2.31824 17.2066L4.14443 15.4883Z" fill="black"/>
</g>
<defs>
<clipPath id="clip0_7629_8029">
<rect width="112.186" height="23.5229" fill="white" transform="translate(0.813965 0.0102539)"/>
</clipPath>
</defs>
</svg>
