<svg width="170" height="36" viewBox="0 0 113 24" fill="none" xmlns="http://www.w3.org/2000/svg">
<path d="M3.68494 1.72021C2.48861 1.72021 1.50916 2.72994 1.50916 3.96326V19.6677C1.50916 20.901 2.48861 21.9107 3.68494 21.9107H18.9174C20.1147 21.9107 21.0942 20.901 21.0942 19.6677V3.96326C21.0942 2.72994 20.1147 1.72021 18.9174 1.72021H3.68494ZM18.9174 19.6677H3.68494V3.96326H18.9174V19.6677Z" fill="white"/>
<path d="M5.34692 5.67676H17.133V8.02905H5.34692V5.67676Z" fill="white"/>
<path d="M34.7387 5.90479H37.579L32.6787 17.0047H30.4485L25.5443 5.90479H28.4638L31.5933 13.3986L34.7387 5.90479Z" fill="white"/>
<path d="M38.2202 17.0047V5.90479H45.8696V8.14273H40.9536V10.25H45.5646V12.4716H40.9536V14.7708H45.8696V17.0047H38.2202Z" fill="white"/>
<path d="M57.0174 17.0047H53.9315L52.0697 13.464C51.834 13.0535 51.4616 12.8473 50.9526 12.8473H50.0969V17.0047H47.3358V5.90479H52.4658C53.7671 5.90479 54.7475 6.19678 55.4051 6.77873C56.0627 7.36169 56.3915 8.20399 56.3915 9.30662C56.3915 10.1459 56.1667 10.8564 55.7181 11.4384C55.2685 12.0214 54.6376 12.4124 53.8245 12.6104C54.4445 12.7493 54.9387 13.1648 55.3061 13.856L57.0174 17.0047ZM52.0221 10.6747C52.6421 10.6747 53.0877 10.5757 53.3571 10.3766C53.6285 10.1785 53.7651 9.85283 53.7651 9.40055C53.7651 8.93806 53.6285 8.6042 53.3571 8.40001C53.0877 8.19582 52.6421 8.09372 52.0221 8.09372H50.0692V10.6747H52.0221Z" fill="white"/>
<path d="M65.3527 11.2424C65.9835 11.4414 66.4668 11.7753 66.8026 12.2429C67.1403 12.7085 67.3096 13.2833 67.3096 13.9663C67.3096 14.5768 67.1531 15.1098 66.8422 15.5671C66.5302 16.0225 66.0865 16.3757 65.5111 16.6289C64.9377 16.8801 64.2643 17.0047 63.4908 17.0047H58.1311V5.90479H63.3364C64.4663 5.90479 65.3646 6.16513 66.0301 6.6848C66.6976 7.20549 67.0323 7.90587 67.0323 8.78797C67.0323 9.35461 66.8838 9.8559 66.5886 10.2908C66.2955 10.7268 65.8835 11.0443 65.3527 11.2424ZM60.8645 10.2663H62.8649C63.3928 10.2663 63.778 10.1836 64.0217 10.0172C64.2673 9.84875 64.3901 9.58024 64.3901 9.21269C64.3901 8.82371 64.2673 8.5409 64.0217 8.36326C63.778 8.18357 63.3928 8.09372 62.8649 8.09372H60.8645V10.2663ZM63.1383 14.8157C63.6978 14.8157 64.0969 14.7249 64.3346 14.5421C64.5743 14.3573 64.6951 14.0551 64.6951 13.6355C64.6951 13.2169 64.5743 12.9157 64.3346 12.733C64.0969 12.5482 63.6978 12.4553 63.1383 12.4553H60.8645V14.8157H63.1383Z" fill="white"/>
<path d="M82.0296 5.90479H84.6837L80.8372 17.0047H78.607L76.3331 10.3439L74.0276 17.0047H71.7815L67.9469 5.90479H70.8031L73.0333 12.9412L75.4458 5.90479H77.3869L79.6924 13.0678L82.0296 5.90479Z" fill="white"/>
<path d="M85.8599 17.0047V5.90479H88.6685V17.0047H85.8599Z" fill="white"/>
<path d="M100.305 17.0047H97.2195L95.3576 13.464C95.1219 13.0535 94.7496 12.8473 94.2405 12.8473H93.3849V17.0047H90.6238V5.90479H95.7538C97.0551 5.90479 98.0355 6.19678 98.6931 6.77873C99.3507 7.36169 99.6795 8.20399 99.6795 9.30662C99.6795 10.1459 99.4547 10.8564 99.006 11.4384C98.5564 12.0214 97.9256 12.4124 97.1125 12.6104C97.7325 12.7493 98.2266 13.1648 98.5941 13.856L100.305 17.0047ZM95.3101 10.6747C95.93 10.6747 96.3757 10.5757 96.6451 10.3766C96.9164 10.1785 97.0531 9.85283 97.0531 9.40055C97.0531 8.93806 96.9164 8.6042 96.6451 8.40001C96.3757 8.19582 95.93 8.09372 95.3101 8.09372H93.3571V10.6747H95.3101Z" fill="white"/>
<path d="M101.419 17.0047V5.90479H109.068V8.14273H104.152V10.25H108.763V12.4716H104.152V14.7708H109.068V17.0047H101.419Z" fill="white"/>
<path d="M17.1973 5.67871V17.8291H14.9155V5.67871H17.1973Z" fill="white"/>
<path d="M16.4001 8.47609L4.47829 20.2927L2.89771 18.5969L14.8185 6.78027L16.4001 8.47609Z" fill="white"/>
<path d="M3.33047 15.4883L7.4295 20.1183L5.60331 21.8366L1.50427 17.2066L3.33047 15.4883Z" fill="white"/>
</svg>
