<svg width="170" height="61" viewBox="0 0 170 61" fill="none" xmlns="http://www.w3.org/2000/svg">
<path fill-rule="evenodd" clip-rule="evenodd" d="M28.2336 0.766707C28.201 0.799436 27.681 0.858578 27.0783 0.898154C26.4755 0.93782 25.7621 1.01546 25.4929 1.07087C25.2238 1.12619 24.7833 1.21281 24.5141 1.26333C24.245 1.31384 23.8846 1.39068 23.7133 1.43417C23.542 1.47766 23.1215 1.57763 22.779 1.65634C21.7059 1.90296 19.4104 2.66567 18.3298 3.13463C17.2059 3.62236 15.669 4.38623 15.2004 4.69004C14.9473 4.85404 14.7158 4.98824 14.6858 4.98824C14.6016 4.98824 13.4226 5.76777 12.6794 6.31481C11.5826 7.12209 10.8067 7.74998 10.0619 8.43319C9.67442 8.78857 9.32756 9.07931 9.29099 9.07931C9.18048 9.07931 7.25657 11.2548 6.47201 12.2668C5.33881 13.7287 5.25116 13.8602 3.85795 16.1879C3.40787 16.9398 2.52463 18.7967 2.18382 19.7072C2.07393 20.0007 1.95344 20.3208 1.91598 20.4187C1.63542 21.152 1.36366 22.0166 1.20314 22.6865C1.16212 22.8577 1.06415 23.2179 0.985485 23.487C0.906735 23.756 0.819621 24.1162 0.791947 24.2874C0.764184 24.4586 0.706434 24.6787 0.663544 24.7765C0.620655 24.8744 0.567354 25.1745 0.54493 25.4436C0.467248 26.3781 0.319447 27.5431 0.228595 27.9374C0.0841753 28.5636 0.10998 32.3714 0.264989 33.3144C0.337421 33.7547 0.397307 34.2844 0.398197 34.4916C0.398998 34.6987 0.437349 35.0389 0.483265 35.2475C0.529269 35.4561 0.646104 36.027 0.743006 36.5161C0.992337 37.7748 1.55551 39.8617 1.77521 40.3404C1.84248 40.4871 1.99705 40.8929 2.1186 41.242C2.59572 42.6128 4.03387 45.4819 4.87636 46.7438C6.93543 49.8277 9.43363 52.5352 11.9524 54.4126C13.0858 55.2574 13.7288 55.6945 14.2078 55.9462C14.4857 56.0921 14.7364 56.2493 14.765 56.2955C14.7934 56.3416 15.1668 56.5587 15.5945 56.7779C16.0222 56.9971 16.4923 57.2409 16.6391 57.3197C17.0924 57.563 18.4821 58.1803 18.9972 58.3671C19.2664 58.4648 19.7979 58.6618 20.1782 58.805C21.4141 59.27 24.062 59.9063 25.7154 60.1357C29.1209 60.608 31.6552 60.5784 35.2366 60.0245C35.8583 59.9283 38.1617 59.4026 38.7514 59.2223C39.535 58.9826 41.6187 58.2075 42.2218 57.9313C42.5888 57.7633 43.0293 57.5642 43.2006 57.489C45.4024 56.5224 48.8852 54.0788 51.1297 51.9255C52.2 50.8987 53.9198 48.8231 54.9441 47.3219C56.1998 45.4816 57.8522 42.1784 58.3698 40.4738C58.4516 40.2048 58.5527 39.9046 58.5946 39.8068C58.757 39.4277 59.0379 38.434 59.2232 37.5834C59.3296 37.0942 59.4528 36.5339 59.497 36.3383C59.5749 35.9924 59.6669 35.4359 59.8424 34.2483C59.8894 33.9303 59.9537 32.7497 59.9855 31.6246C60.0688 28.6695 59.8826 26.5675 59.3161 24.0651C59.2717 23.8694 59.1934 23.5092 59.1421 23.2646C58.9973 22.5751 58.2128 20.2674 57.7209 19.0846C56.1828 15.3852 53.8378 11.931 51.019 9.21271C50.5118 8.72356 49.7423 8.0432 49.309 7.7008C48.8757 7.35839 48.346 6.93817 48.132 6.76697C47.4663 6.23442 47.2814 6.10564 46.137 5.37796C43.4206 3.65064 39.6134 2.06944 36.8383 1.51582C36.6425 1.47677 36.2021 1.38597 35.8595 1.31402C34.9039 1.11329 34.0801 0.986824 33.0562 0.883658C31.9341 0.770531 28.3175 0.68284 28.2336 0.766707ZM33.5014 3.91398C34.5079 4.01697 35.5396 4.17216 35.643 4.23593C35.6889 4.2643 35.9166 4.32229 36.1489 4.36471C36.3813 4.40722 36.7115 4.48202 36.8828 4.53102C37.0541 4.58012 37.4945 4.69982 37.8616 4.79712C38.5475 4.97899 38.9525 5.11177 39.4188 5.30743C39.5656 5.36907 39.926 5.50825 40.2197 5.61684C40.8598 5.85341 42.8556 6.81882 43.601 7.25238C43.8947 7.42323 44.215 7.60359 44.3129 7.65331C44.4108 7.70302 44.591 7.81819 44.7133 7.90926C44.8357 8.00033 45.1649 8.23086 45.445 8.42145C47.0182 9.49215 47.8182 10.1643 49.314 11.6723C50.107 12.4718 50.8771 13.286 51.0253 13.4817C51.1736 13.6773 51.4569 14.0375 51.655 14.2821C52.1175 14.8533 53.2349 16.5281 53.6132 17.217C54.3939 18.6387 55.3913 20.7061 55.3913 20.9025C55.3913 20.9583 55.4648 21.1523 55.5546 21.3338C55.6444 21.5153 55.8297 22.064 55.9662 22.5531C56.1028 23.0423 56.2941 23.6826 56.3914 23.9761C56.9091 25.5378 57.2964 30.4248 57.0644 32.4695C57.0173 32.8853 56.9431 33.5857 56.8994 34.0259C56.7196 35.8427 56.6416 36.1992 55.8685 38.7395C55.7494 39.1308 55.6181 39.5311 55.5766 39.6289C55.5352 39.7267 55.3933 40.1069 55.2614 40.4738C54.9621 41.3054 53.7246 43.8256 53.3033 44.4614C53.1303 44.7225 52.9887 44.9519 52.9887 44.9711C52.9887 45.0528 52.2309 46.1538 51.6095 46.975C50.3606 48.6255 48.5481 50.4934 47.2168 51.5019C46.8616 51.7709 46.4234 52.1127 46.2428 52.2615C45.7752 52.6468 44.6743 53.3695 44.5552 53.3695C44.437 53.3695 43.6841 52.6235 43.4783 52.3023C43.3999 52.18 43.1952 51.9265 43.0234 51.7387C42.8517 51.5511 42.6711 51.3237 42.6222 51.2335C42.5733 51.1432 42.3819 50.8965 42.1969 50.6853C41.4145 49.7921 40.976 49.2452 40.976 49.1627C40.976 49.1142 40.8058 48.8849 40.5978 48.6531C40.3899 48.4213 39.9994 47.9634 39.7302 47.6355C39.4611 47.3076 39.0606 46.8261 38.8404 46.5654C37.9954 45.5652 37.7974 45.3137 37.6854 45.0985C37.6218 44.9762 37.4052 44.6904 37.204 44.4634C36.5593 43.7358 36.1308 43.2053 35.9616 42.9254C35.871 42.7755 35.6967 42.5463 35.5745 42.4161C35.3644 42.1927 35.3612 42.1748 35.5168 42.0952C35.6132 42.0459 35.9768 42.0384 36.3934 42.0772C36.7849 42.1136 37.6658 42.1912 38.351 42.2497C39.9272 42.384 41.5233 42.5593 42.8891 42.7481C43.4886 42.831 44.6204 42.9009 45.4697 42.9076C46.9639 42.9194 46.9874 42.9166 47.3922 42.6787C47.7811 42.4502 48.7274 41.466 49.2954 40.6993C49.439 40.5054 49.618 40.2839 49.6931 40.2072C49.7683 40.1305 49.9613 39.889 50.1219 39.6704C50.2824 39.4519 50.6849 38.913 51.0162 38.4727C51.8752 37.331 52.0989 36.986 52.0989 36.8025C52.0989 36.6271 51.7112 36.2439 51.4419 36.153C51.3498 36.1219 51.0494 35.929 50.7746 35.7243C50.4997 35.5197 50.1746 35.3053 50.0523 35.2477C49.9299 35.1903 49.6697 35.0258 49.4739 34.8824C49.2781 34.7388 48.4973 34.2187 47.7387 33.7265C46.9801 33.2342 46.1793 32.7012 45.9591 32.542C45.7388 32.3828 45.3065 32.0835 44.9983 31.8769C44.6901 31.6703 44.3096 31.3943 44.1529 31.2636C43.9962 31.1327 43.4604 30.7403 42.9624 30.3914C41.292 29.2212 40.5797 28.6982 39.9215 28.1587C39.5617 27.8638 39.1413 27.5485 38.9871 27.4581C38.833 27.3675 38.4064 27.0073 38.0389 26.6576C37.6716 26.3078 37.181 25.8537 36.9486 25.6486C36.7163 25.4434 36.4825 25.1632 36.4292 25.026C36.3667 24.8653 36.3427 24.1277 36.3616 22.9534C36.3945 20.9175 36.2962 16.4841 36.1755 14.5612C36.132 13.8696 36.1185 13.1907 36.1454 13.0523C36.1723 12.914 36.1432 12.4337 36.0808 11.985C36.0183 11.5364 35.9707 10.8691 35.975 10.5023C35.9837 9.7522 35.8461 9.07931 35.6842 9.07931C35.625 9.07931 35.1579 9.50949 34.6461 10.0354C33.1636 11.5586 29.8805 14.7503 29.693 14.8506C29.5557 14.9241 29.4812 14.899 29.3166 14.7241C29.2039 14.604 29.1042 14.4355 29.0952 14.3495C29.0515 13.933 28.92 13.4402 28.7453 13.037C28.6392 12.7924 28.4801 12.3522 28.3917 12.0587C28.155 11.273 27.9516 10.6671 27.5409 9.52399C27.2082 8.59798 26.8343 7.42598 26.6472 6.7225C26.3706 5.68301 26.2739 5.37769 26.1968 5.3005C26.0766 5.18025 23.8676 7.44253 22.9844 8.59016C22.2412 9.55601 21.6262 10.4518 21.2187 11.1619C20.8219 11.8535 18.8924 15.6755 18.8131 15.9274C18.7745 16.0497 18.5753 16.5299 18.3704 16.9946C18.1655 17.4593 17.9384 18.0396 17.8656 18.2842C17.7929 18.5288 17.6428 18.929 17.5322 19.1736C17.4215 19.4181 17.2774 19.7558 17.212 19.9239C17.118 20.1657 16.4027 21.1311 16.1536 21.3525C16.1261 21.377 15.9936 21.5571 15.8594 21.7527C15.725 21.9484 15.476 22.2886 15.3062 22.5087C14.5926 23.4331 13.3755 25.3589 12.6083 26.7776C12.4364 27.0956 12.2283 27.4557 12.146 27.578C12.0637 27.7003 11.792 28.2073 11.5423 28.7049C11.2925 29.2023 11.0491 29.6825 11.0014 29.7721C10.9537 29.8616 10.8449 30.0949 10.7596 30.2906C10.6743 30.4863 10.3484 31.1866 10.0353 31.847C9.7222 32.5073 9.43043 33.1277 9.38692 33.2255C8.8653 34.3975 7.87429 36.8215 7.87429 36.9254C7.87429 36.9787 7.81814 37.1285 7.74963 37.2584C7.60752 37.5273 6.80649 39.6282 6.80649 39.7319C6.80649 39.8984 5.8962 42.0736 5.82768 42.0708C5.59116 42.0612 5.30571 41.526 4.76673 40.0818C4.04561 38.1496 3.77137 37.1506 3.42175 35.1821C3.15383 33.6739 3.13496 33.4241 3.09483 30.8648C3.05052 28.0372 3.03913 28.2006 3.46989 25.488C3.57543 24.8231 3.98884 23.21 4.09954 23.031C4.12677 22.987 4.22848 22.6613 4.32556 22.3073C4.51687 21.6098 5.09748 20.127 5.43073 19.4848C5.54498 19.2647 5.73923 18.8574 5.86247 18.5796C6.13876 17.9565 6.96951 16.5093 7.46141 15.794C8.70993 13.9787 11.0007 11.3473 12.1538 10.4039C13.2901 9.47445 14.0257 8.90135 14.0832 8.90099C14.1186 8.90081 14.3 8.76074 14.4863 8.58971C14.6725 8.41878 14.8655 8.27888 14.9151 8.27888C14.9647 8.27888 15.188 8.14886 15.4112 7.98984C16.0647 7.52435 16.3774 7.34906 17.9739 6.55361C19.6786 5.70418 20.2244 5.47481 21.6222 5.02044C23.1922 4.51021 23.3779 4.45818 23.8468 4.39806C24.0915 4.36676 24.3688 4.30139 24.4631 4.25292C25.0623 3.94484 30.9228 3.57985 32.2557 3.76759C32.5248 3.80548 33.0854 3.87138 33.5014 3.91398ZM111.568 5.64842C109.775 5.90624 108.633 6.85519 108.337 8.3342C108.29 8.57282 108.223 9.48041 108.19 10.3511C108.121 12.1818 108.222 12.0114 107.014 12.3354C105.994 12.6089 105.845 12.7628 105.845 13.5385C105.845 14.2966 105.892 14.3265 107.081 14.3265C107.841 14.3265 107.987 14.3498 108.057 14.4823C108.105 14.5711 108.155 16.6615 108.174 19.3515C108.193 21.9439 108.239 24.1151 108.277 24.1762C108.373 24.3291 110.568 24.3331 110.721 24.1807C110.801 24.1006 110.83 22.9165 110.837 19.4448C110.842 16.8988 110.873 14.7156 110.907 14.5934L110.969 14.371L112.567 14.3265C113.446 14.3021 114.215 14.2497 114.276 14.2101C114.354 14.1595 114.387 13.8389 114.387 13.1302C114.387 12.293 114.363 12.113 114.246 12.0682C114.169 12.0385 113.391 12.0142 112.517 12.0142C110.976 12.0142 110.927 12.0085 110.869 11.8255C110.836 11.7217 110.838 11.0713 110.873 10.3803C110.954 8.81703 111.112 8.41771 111.781 8.08829C112.167 7.89815 112.325 7.87849 113.472 7.87707C114.196 7.87618 114.775 7.8374 114.826 7.78644C114.933 7.68008 114.981 6.27284 114.887 5.99153C114.845 5.86453 114.705 5.76127 114.493 5.70187C113.953 5.55005 112.444 5.52248 111.568 5.64842ZM84.2441 5.86097C83.8884 5.8953 83.8314 6.00283 83.6939 6.90037C83.6339 7.29169 83.545 7.79196 83.4962 8.01207C83.3974 8.4588 83.2767 9.18968 83.1586 10.0576C82.9606 11.5134 82.8661 12.0651 82.7906 12.206C82.7458 12.2898 82.7091 12.5082 82.7091 12.6913C82.7091 12.8745 82.6713 13.1473 82.6251 13.2975C82.5788 13.4477 82.4995 13.8507 82.4488 14.1931C82.3981 14.5355 82.3112 15.0758 82.2556 15.3938C82.2001 15.7117 82.1189 16.232 82.0751 16.5499C81.8468 18.2083 81.5358 19.9183 81.4316 20.0866C81.301 20.2979 81.2068 20.1928 81.1512 19.7739C81.1203 19.5416 80.9777 18.8744 80.8342 18.2913C80.6909 17.7083 80.5735 17.1341 80.5735 17.0154C80.5735 16.8967 80.5186 16.5934 80.4515 16.3413C80.3843 16.0892 80.2857 15.6828 80.2322 15.4382C80.1788 15.1937 80.0311 14.5333 79.904 13.9708C79.7769 13.4083 79.5895 12.5678 79.4876 12.1031C79.3857 11.6384 79.2513 11.0581 79.1888 10.8136C79.1264 10.569 79.0275 10.0887 78.9691 9.74633C78.8727 9.18007 78.7423 8.58802 78.2987 6.70142C78.2155 6.34737 78.0975 6.01626 78.0362 5.96556C77.9663 5.90749 77.3526 5.88232 76.3807 5.89771L74.8363 5.92207L74.7238 6.15669C74.6193 6.37502 74.4518 7.08233 74.2528 8.14548C74.1639 8.62129 74.1133 8.85305 73.8268 10.1021C73.7258 10.5423 73.5961 11.1426 73.5385 11.4361C73.4036 12.1237 73.2032 13.0411 73.1012 13.4372C72.9968 13.8433 72.8795 14.3834 72.7053 15.2604C72.4665 16.4623 72.311 17.1991 72.2077 17.6172C72.0862 18.1086 71.8544 19.3524 71.8221 19.6857C71.8091 19.8206 71.7557 19.9735 71.7036 20.0257C71.5753 20.1538 71.2303 19.5937 71.2303 19.2573C71.2303 19.1193 71.1921 18.7838 71.1455 18.5119C70.9322 17.2686 70.7865 16.361 70.695 15.7051C70.6405 15.3137 70.5617 14.8335 70.5198 14.6378C70.3326 13.7613 70.2399 13.2635 70.1634 12.7257C70.1182 12.4077 70.0191 11.7074 69.9432 11.1693C69.8674 10.6312 69.7472 9.93087 69.6761 9.61292C69.605 9.29498 69.5021 8.73468 69.4477 8.36782C69.2763 7.21494 69.0773 6.19484 68.9923 6.03324C68.9204 5.89646 68.7613 5.8776 67.6787 5.8776C66.3527 5.8776 66.1694 5.9371 66.2933 6.32727C66.3267 6.43248 66.3862 6.72454 66.4254 6.97632C66.4647 7.22801 66.6013 7.94644 66.729 8.57282C66.9409 9.61203 67.0116 10.0079 67.2242 11.3472C67.263 11.5918 67.3643 12.112 67.4492 12.5034C67.6226 13.3021 67.7199 13.8271 67.8034 14.4155C67.8347 14.6356 67.9155 15.0558 67.983 15.3493C68.0505 15.6428 68.1499 16.1431 68.2039 16.461C68.2579 16.779 68.3402 17.2492 68.3869 17.506C68.4336 17.7629 68.5087 18.183 68.5539 18.4398C68.599 18.6967 68.6853 19.1669 68.7454 19.4848C68.8056 19.8028 68.8832 20.243 68.9181 20.4631C68.9835 20.876 69.2901 22.3523 69.4493 23.0213C69.4989 23.2299 69.5396 23.5556 69.5396 23.7452C69.5396 23.9518 69.6077 24.1739 69.7095 24.2998C69.8729 24.5016 69.9337 24.5109 71.2701 24.54C72.3879 24.5643 72.7002 24.5444 72.8622 24.4382C73.066 24.3049 73.1505 23.9941 73.4964 22.1085C73.5592 21.7661 73.6922 21.1857 73.7917 20.8189C73.8913 20.452 73.9972 19.9918 74.0269 19.7961C74.0818 19.4351 74.1555 19.0916 74.5705 17.2614C74.79 16.2938 75.3274 14.0251 75.4975 13.3482C75.5405 13.177 75.6227 12.7568 75.68 12.4144C75.7374 12.072 75.8383 11.5717 75.9045 11.3027C75.9705 11.0337 76.0763 10.5586 76.1396 10.247C76.3101 9.40855 76.6271 9.39014 76.7566 10.2111C76.7933 10.4447 76.8872 10.8758 76.9651 11.1693C77.145 11.8462 77.283 12.471 77.3777 13.037C77.5377 13.9927 77.6258 14.4097 77.8855 15.4382C78.0337 16.0252 78.2822 17.1258 78.4378 17.884C78.5934 18.6422 78.7546 19.4026 78.7959 19.5738C78.9521 20.2204 79.0606 20.701 79.1573 21.1746C79.2122 21.4437 79.3375 22.004 79.4358 22.4197C79.5339 22.8355 79.6688 23.4303 79.7354 23.7416C79.802 24.0529 79.9026 24.363 79.959 24.4308C80.0381 24.5262 80.3671 24.5539 81.4074 24.553C82.1479 24.5523 82.843 24.5278 82.9524 24.4985C83.18 24.4375 83.3445 23.9591 83.5144 22.8644C83.5713 22.4976 83.6738 21.9912 83.7419 21.739C83.8101 21.4869 83.8659 21.1314 83.8659 20.9489C83.8659 20.7665 83.9024 20.4725 83.9471 20.2956C84.0638 19.834 84.1946 19.1783 84.3128 18.4621C84.3694 18.1197 84.4709 17.5794 84.5382 17.2614C84.6056 16.9435 84.7472 16.2231 84.8531 15.6606C84.9589 15.0981 85.0803 14.4577 85.123 14.2376C85.2323 13.6742 85.3323 13.1135 85.5493 11.8473C85.6531 11.2418 85.7568 10.7161 85.7796 10.6791C85.8026 10.642 85.8633 10.337 85.9145 10.0011C86.0709 8.97765 86.1644 8.44919 86.3452 7.56739C86.6265 6.19608 86.6381 6.08847 86.5148 5.98851C86.4028 5.89762 84.7987 5.80752 84.2441 5.86097ZM100.911 6.01857C100.777 6.15268 100.767 6.84434 100.791 14.2701L100.817 22.3753L101.015 22.8581C101.254 23.4422 101.745 23.9683 102.285 24.2205C102.792 24.4567 104.149 24.5533 104.303 24.3641C104.396 24.2492 104.469 23.3396 104.436 22.7056C104.423 22.45 104.372 22.3923 104.027 22.2445C103.81 22.1517 103.59 21.9956 103.537 21.8978C103.472 21.7754 103.442 19.3249 103.441 14.0434C103.44 8.03884 103.415 6.31828 103.327 6.14441C103.218 5.92794 103.186 5.92145 102.136 5.89717C101.231 5.87627 101.034 5.89584 100.911 6.01857ZM25.8242 9.01261C25.93 9.14912 26.7561 11.7066 27.0092 12.6812C27.1108 13.0725 27.2876 13.7129 27.402 14.1042C27.6748 15.0374 28.1398 16.7022 28.346 17.4838C28.4363 17.8262 28.616 18.4265 28.7453 18.8178C28.8746 19.2091 29.0368 19.742 29.1057 20.0018C29.1745 20.2617 29.3058 20.6419 29.3974 20.8467C29.4888 21.0515 29.6088 21.3595 29.6638 21.5312C29.7341 21.7506 30.2064 22.2809 31.2544 23.3174C32.0743 24.1281 32.8852 24.9035 33.0565 25.0407C33.2278 25.1777 33.6282 25.5305 33.9463 25.8245C34.2645 26.1185 34.6683 26.4641 34.8437 26.5924C35.019 26.7209 35.4331 27.0651 35.7636 27.3576C36.9234 28.3835 37.3913 28.7815 37.8248 29.1107C38.0653 29.2933 38.6897 29.7735 39.2125 30.1779C41.6997 32.102 43.5929 33.3991 46.1278 34.9154C47.0281 35.454 47.8387 35.9944 47.9291 36.1164C48.1134 36.365 48.8065 38.0196 48.8065 38.2109C48.8065 38.2787 48.5563 38.6614 48.2504 39.0614C47.9445 39.4613 47.5681 39.9567 47.4139 40.1622C46.8898 40.8607 46.7197 40.945 45.9591 40.8822C45.592 40.8519 44.8048 40.7922 44.2097 40.7496C43.6145 40.7069 43.0903 40.649 43.0449 40.621C42.9994 40.5929 42.4253 40.5271 41.7689 40.4746C40.4498 40.3693 39.4056 40.2685 38.1286 40.1232C37.6636 40.0703 36.7555 39.9915 36.1104 39.9482C35.4654 39.9049 34.8949 39.8431 34.8428 39.8109C34.7906 39.7787 34.2573 39.7147 33.6575 39.6687C31.7094 39.5195 30.7472 39.4197 30.6443 39.3561C30.5887 39.3218 30.0777 39.257 29.5086 39.212C28.49 39.1316 28.0097 39.0891 25.5374 38.8594C23.9753 38.7144 22.0302 38.7162 20.6434 38.8642C20.0561 38.9268 19.3553 38.9845 19.0862 38.9922L18.5968 39.0063L18.6245 38.7479C18.6529 38.4841 18.9817 37.7734 19.2642 37.3654C19.3505 37.2407 19.6161 36.8407 19.8543 36.4765C20.0926 36.1123 20.5578 35.5224 20.8881 35.1655C21.2184 34.8087 21.4887 34.4426 21.4887 34.3519C21.4887 34.1488 21.2938 33.9718 20.7929 33.72C20.4483 33.5468 20.1335 33.4267 18.7302 32.9329C18.0443 32.6916 18.0233 32.4766 18.6099 31.7052C18.7251 31.5538 18.8192 31.3982 18.8192 31.3593C18.8192 31.3206 18.9794 31.1151 19.1751 30.9028C19.5807 30.4631 19.6487 30.1979 19.3309 30.2957C19.043 30.3842 17.4727 31.2244 17.262 31.4027C17.1641 31.4855 16.854 31.6821 16.5728 31.8398C16.2917 31.9974 15.778 32.401 15.4314 32.7366C14.652 33.4912 14.6302 33.6868 15.3044 33.8757C16.5677 34.2296 17.7696 34.6563 17.9835 34.8268L18.2242 35.0185L18.056 35.3227C17.9636 35.4899 17.7793 35.7468 17.6465 35.8936C16.9176 36.6991 15.6158 39.9314 15.6158 40.9355C15.6158 41.2146 15.6513 41.2797 15.828 41.324C15.9445 41.3533 16.1948 41.3342 16.3841 41.2818C16.5733 41.2292 16.9609 41.1861 17.2454 41.1858C17.5299 41.1855 18.1706 41.1278 18.6691 41.0577C21.0412 40.7239 25.2595 40.7187 27.851 41.0464C28.4383 41.1208 29.3417 41.1824 29.8587 41.1834C30.7689 41.1852 30.8058 41.193 31.0247 41.4299C31.2267 41.6485 31.6901 42.3951 33.0531 44.6983C33.7114 45.8104 34.065 46.3915 34.8125 47.5887C35.2901 48.3537 35.8779 49.3269 36.1287 49.7676C36.24 49.9633 36.5729 50.5236 36.8685 51.0127C37.4727 52.0124 38.47 53.6773 38.6264 53.9476C38.683 54.0455 38.9363 54.465 39.1892 54.8799C39.7753 55.8413 39.7659 55.9939 39.1074 56.2222C38.8382 56.3154 38.5379 56.4275 38.44 56.4714C38.3421 56.5151 38.1019 56.5945 37.9061 56.6476C37.7103 56.7008 37.3299 56.8047 37.0608 56.8785C36.1125 57.1384 35.0241 57.3717 34.7595 57.3717C34.6123 57.3717 34.3924 57.4095 34.2709 57.4556C34.1493 57.5019 33.1757 57.608 32.1072 57.6915C30.4346 57.8222 29.9914 57.8278 28.9188 57.732C28.2336 57.6708 27.2926 57.5872 26.8277 57.5463C26.3628 57.5054 25.8622 57.4477 25.7154 57.4182C25.5686 57.3886 25.2082 57.3212 24.9146 57.2686C24.4239 57.1805 23.8971 57.0556 23.0904 56.8362C22.4465 56.6611 20.6365 56.0493 20.1985 55.8587C20.1006 55.8161 19.7202 55.6532 19.3531 55.4969C18.6506 55.1974 16.7371 54.2317 16.2832 53.9474C16.1364 53.8554 15.6832 53.5577 15.276 53.2859C14.8689 53.0139 14.457 52.747 14.3606 52.6926C14.2643 52.6383 14.0942 52.5083 13.9828 52.4036C13.8714 52.299 13.7506 52.2134 13.7144 52.2134C13.5063 52.2134 11.3479 50.3598 10.4004 49.3674C8.57059 47.4508 8.46096 47.2689 8.63154 46.4325C8.75086 45.8476 9.78164 41.7596 10.448 39.2287C10.785 37.9484 10.9279 37.4331 11.4342 35.6712C11.5397 35.3044 11.7802 34.564 11.9688 34.0259C12.1572 33.4878 12.4592 32.5874 12.6397 32.0248C13.1371 30.4751 13.76 28.9648 14.5795 27.3219C15.6401 25.1955 16.4133 24.0464 17.6728 22.7243C18.6481 21.7005 19.0057 20.9635 20.6904 16.5055C21.9729 13.1115 23.1345 11.0821 24.607 9.66326C25.3731 8.92527 25.6442 8.7803 25.8242 9.01261ZM92.0968 11.7594C90.2832 12.0851 89.2259 12.6431 88.6094 13.5999C87.9066 14.6907 87.7045 15.5002 87.6396 17.4838C87.5662 19.7258 87.7233 21.0705 88.1648 21.9775C88.7461 23.1716 89.045 23.5036 89.9876 24.0015C90.8229 24.4427 92.4853 24.7941 93.3083 24.7033C94.7958 24.5392 95.7474 24.2316 96.5179 23.6662C97.1255 23.2203 97.7714 22.3988 97.941 21.8565C98.3392 20.5823 98.4555 19.7594 98.4573 18.2006C98.4594 16.5848 98.3625 15.8923 97.9542 14.6046C97.5471 13.3208 96.3265 12.2719 94.8553 11.9421C93.5433 11.6479 92.9402 11.6079 92.0968 11.7594ZM120.927 11.7827C120.121 11.9318 119.103 12.2875 118.687 12.566C118.199 12.8917 117.887 12.8932 117.749 12.5701C117.539 12.0779 117.429 12.0142 116.782 12.0142C116.353 12.0142 116.139 12.0544 116.04 12.1539C115.915 12.2782 115.9 12.9438 115.9 18.1401C115.9 23.0557 115.92 24.0141 116.026 24.1592C116.14 24.3146 116.265 24.3315 117.271 24.3283C118.05 24.3258 118.424 24.2905 118.502 24.2123C118.589 24.1251 118.615 23.0815 118.621 19.5467C118.625 17.0425 118.66 14.9221 118.698 14.8346C118.879 14.4262 120.397 14.04 121.946 14.0083C123.266 13.9814 123.291 13.9642 123.275 13.0867C123.257 12.0869 123.214 11.9909 122.707 11.818C122.207 11.6475 121.712 11.6376 120.927 11.7827ZM128.516 11.7077C128.489 11.7349 128.112 11.7925 127.678 11.8358C126.144 11.989 125.246 12.2734 125.144 12.6382C125.064 12.9261 125.065 14.0413 125.146 14.3265C125.196 14.5026 125.263 14.5468 125.47 14.5389C125.727 14.5291 125.882 14.4968 127.156 14.1882C128.005 13.9828 129.673 13.9776 130.251 14.1786C130.811 14.3731 131.099 14.5682 131.243 14.8511C131.412 15.1843 131.497 16.0281 131.389 16.3106C131.299 16.5467 131.287 16.5499 130.472 16.5499C130.018 16.5499 129.507 16.5911 129.336 16.6416C129.165 16.6919 128.684 16.7715 128.268 16.8183C127.212 16.9372 126.94 16.9908 126.539 17.159C125.939 17.4103 125.542 17.6497 125.186 17.9755C124.43 18.6668 124.175 19.3723 124.177 20.7661C124.178 21.7942 124.281 22.2581 124.641 22.8644C125.109 23.6523 126.024 24.2781 126.978 24.463C127.272 24.5199 127.657 24.6037 127.834 24.6493C128.011 24.6948 128.255 24.7321 128.377 24.7321C128.702 24.7321 130.595 24.2504 130.9 24.0905C131.043 24.015 131.361 23.8477 131.605 23.7188L132.05 23.4844L132.245 23.7302C132.783 24.407 132.776 24.4032 133.402 24.3529C133.72 24.3274 134.026 24.2601 134.083 24.2033C134.242 24.0433 134.168 15.6433 134 14.8322C133.608 12.9398 132.772 12.2123 130.569 11.845C129.485 11.6644 128.617 11.6063 128.516 11.7077ZM141.972 11.7571C141.032 11.9632 139.778 12.4234 139.532 12.6523C139.436 12.7416 139.235 12.8137 139.085 12.8126C138.868 12.811 138.785 12.7528 138.672 12.5235C138.48 12.1322 138.2 12.0084 137.571 12.0357C137.09 12.0565 137.035 12.0793 136.979 12.281C136.945 12.4033 136.914 15.1098 136.909 18.2956C136.901 23.583 136.913 24.0984 137.047 24.2098C137.156 24.3004 137.448 24.3261 138.179 24.3093C139.334 24.2829 139.444 24.2571 139.514 23.9954C139.543 23.887 139.567 21.7681 139.568 19.2868L139.569 14.7753L139.787 14.6325C140.323 14.2818 141.288 14.0274 142.105 14.0212C142.983 14.0147 143.364 14.1361 143.749 14.5467C143.952 14.7618 143.972 14.871 144.038 16.0865C144.077 16.8061 144.099 18.9036 144.086 20.7476C144.069 23.1884 144.091 24.1282 144.166 24.203C144.299 24.3368 146.497 24.3199 146.661 24.184C146.754 24.1072 146.777 23.1514 146.778 19.4518C146.779 16.9019 146.809 14.7712 146.845 14.717C146.952 14.5551 147.402 14.3586 148.131 14.1548C149.352 13.8139 150.657 14.0611 151.051 14.7081C151.218 14.9814 151.225 15.183 151.226 19.4428C151.226 23.3255 151.244 23.9172 151.365 24.0897C151.495 24.2753 151.568 24.2874 152.572 24.2874C153.159 24.2874 153.718 24.246 153.812 24.1954C153.979 24.1062 153.985 23.9627 153.985 19.7262C153.985 15.2894 153.966 14.9747 153.635 13.8819C153.305 12.7914 152.284 12.0572 150.708 11.7766C150.062 11.6617 149.819 11.6567 149.224 11.7462C148.205 11.8997 147.375 12.1618 146.63 12.5659C146.099 12.8539 145.768 12.8819 145.603 12.6527C145.495 12.5027 144.9 12.1569 144.374 11.9395C143.902 11.7437 142.513 11.6384 141.972 11.7571ZM34.5861 14.1496C34.6698 15.0565 34.6522 17.8779 34.5517 19.6627C34.5062 20.4698 34.4695 21.6104 34.4698 22.1974C34.4703 22.7844 34.4501 23.3347 34.4249 23.4203C34.3465 23.6877 34.1273 23.5943 33.515 23.033C33.1895 22.7342 32.7028 22.3448 32.4336 22.1673C31.4972 21.5501 30.9074 21.0616 30.8187 20.8298C30.7696 20.7015 30.6911 20.3764 30.644 20.1074C30.597 19.8384 30.4826 19.2581 30.3898 18.8178C30.297 18.3776 30.195 17.8592 30.1631 17.6657L30.1052 17.3142L31.4273 16.0204C33.2067 14.2793 34.1938 13.4205 34.3755 13.4551C34.4924 13.4774 34.5381 13.6278 34.5861 14.1496ZM94.0229 14.115C94.8782 14.3548 95.3388 14.8482 95.6004 15.8043C95.7578 16.3796 95.7327 20.0647 95.567 20.7006C95.2473 21.9272 94.2542 22.5105 92.6871 22.3923C91.7096 22.3187 91.1164 21.9936 90.7892 21.3525C90.6519 21.0835 90.4939 20.6632 90.438 20.4187C90.2881 19.7628 90.2367 17.0692 90.3599 16.3276C90.4875 15.5598 90.8998 14.6529 91.2151 14.4464C91.9178 13.9863 93.0763 13.8495 94.0229 14.115ZM131.338 20.0142V21.6552L130.982 21.8971C130.603 22.1552 130.564 22.1672 129.47 22.3626C127.816 22.6582 126.756 21.9684 126.756 20.5965C126.756 19.8346 127.103 19.1894 127.674 18.8929C128.013 18.7163 129.097 18.5166 129.743 18.5114C130.033 18.5091 130.411 18.4704 130.582 18.4252C130.753 18.3801 130.994 18.3499 131.116 18.3581L131.338 18.3731V20.0142ZM29.9845 29.4809C29.6888 29.6097 29.5814 29.7954 29.4073 30.4793C29.2596 31.06 29.3188 31.2018 29.7372 31.2688C30.7087 31.4243 31.3382 31.6082 32.1555 31.9753C33.1741 32.4329 33.1133 32.4331 34.6415 31.9686C35.3912 31.7409 35.5836 31.5766 35.36 31.3554C35.0927 31.091 33.5681 30.238 32.8217 29.9353C31.5224 29.4083 30.5199 29.2477 29.9845 29.4809ZM66.7811 30.6604C66.6098 30.6826 66.4197 30.7662 66.3584 30.8462C66.2711 30.9603 66.2472 32.9182 66.2472 39.9402C66.2472 47.5327 66.2663 48.9149 66.3737 49.0614C66.4963 49.2288 66.6545 49.234 71.61 49.234C75.8104 49.234 76.7462 49.2123 76.8671 49.112C76.9879 49.0117 77.0142 48.8116 77.0142 47.9918C77.0142 47.1378 76.9907 46.9725 76.8514 46.8465C76.7054 46.7144 76.2972 46.6991 72.8694 46.698C70.7689 46.6972 69.0008 46.6653 68.9404 46.6269C68.8549 46.5727 68.8253 44.8165 68.8069 38.7174C68.7916 33.6403 68.7519 30.8466 68.6943 30.79C68.593 30.6903 67.2513 30.5995 66.7811 30.6604ZM169.204 34.1873C169.074 34.2531 168.954 34.4361 168.884 34.6749C168.789 35.0001 168.519 35.6517 168.441 35.7441C168.366 35.8331 168.044 35.5082 168.044 35.3438C168.044 35.2362 168.004 35.1234 167.955 35.0931C167.906 35.0629 167.866 34.9566 167.866 34.857C167.866 34.5782 167.526 34.1593 167.299 34.1593C166.932 34.1593 166.887 34.308 166.887 35.5139C166.887 36.4605 166.911 36.6641 167.024 36.7078C167.238 36.7895 167.284 36.6832 167.332 36.0047C167.376 35.3855 167.538 35.1092 167.65 35.4637C167.679 35.5534 167.759 35.733 167.828 35.8628C167.898 35.9926 167.955 36.1766 167.955 36.2715C167.955 36.6005 168.537 36.9154 168.613 36.6273C168.756 36.0811 169.02 35.3933 169.183 35.1402C169.271 35.0041 169.376 35.4444 169.377 35.955C169.379 36.541 169.498 36.7967 169.654 36.5497C169.697 36.4823 169.732 35.9383 169.733 35.3408C169.734 34.382 169.716 34.2443 169.573 34.1682C169.464 34.11 169.344 34.1162 169.204 34.1873ZM164.245 34.3055C164.066 34.3782 164.217 34.5898 164.491 34.6499C164.633 34.6811 164.779 34.7536 164.815 34.811C164.851 34.8683 164.87 35.3062 164.857 35.7839C164.838 36.501 164.858 36.6618 164.972 36.7055C165.28 36.8236 165.374 36.5769 165.374 35.6558V34.7728L165.68 34.6453C166.045 34.4927 166.136 34.3753 165.945 34.3021C165.781 34.2393 164.401 34.242 164.245 34.3055ZM81.3743 36.6456C81.252 36.687 80.923 36.7247 80.6433 36.7296C80.3635 36.7345 80.0031 36.7947 79.8424 36.8633C79.6817 36.932 79.3776 37.0392 79.1666 37.1017C78.9555 37.1641 78.7453 37.2854 78.6994 37.3712C78.6534 37.457 78.6159 37.9251 78.6159 38.4115C78.6159 39.5549 78.6406 39.5783 79.5691 39.3163C79.9503 39.2088 80.3782 39.085 80.52 39.0414C80.6619 38.9976 81.4453 38.9619 82.2607 38.9619C83.9345 38.9619 84.2783 39.0536 84.7066 39.6148C84.9033 39.8727 84.9337 40.0015 84.9337 40.5781V41.2437L84.4665 41.3585C84.2095 41.4217 83.4788 41.5071 82.8426 41.5484C81.444 41.6391 80.737 41.7203 80.618 41.8037C80.569 41.8381 80.332 41.939 80.0911 42.028C79.1625 42.3713 78.5465 42.8478 78.184 43.503C77.466 44.8012 77.4595 46.3787 78.1671 47.6458C78.5414 48.3162 78.7294 48.5155 79.3276 48.876C80.1249 49.3567 80.7299 49.4809 82.0549 49.4356C83.3389 49.3917 83.7266 49.2896 84.9232 48.6801C85.3334 48.4711 85.683 48.3002 85.7 48.3002C85.717 48.3002 85.8112 48.4576 85.9095 48.6501C86.1474 49.1161 86.4018 49.2785 86.8941 49.2785C87.6935 49.2785 87.6436 49.5342 87.6775 45.2613C87.721 39.7604 87.5979 38.8453 86.6783 37.8278C86.2251 37.3264 85.2094 36.8334 84.4397 36.741C83.4404 36.6211 81.6152 36.5642 81.3743 36.6456ZM95.9257 36.671C94.7926 36.7425 94.1484 36.9396 93.0441 37.553C92.552 37.8263 92.3193 37.8326 92.3193 37.5723C92.3193 37.4898 92.2171 37.2884 92.0923 37.1248C91.8735 36.8381 91.8431 36.8274 91.25 36.8274C90.7287 36.8274 90.6205 36.8542 90.5409 37.0029C90.3915 37.2818 90.4592 48.9669 90.611 49.1184C90.774 49.2811 92.7974 49.2811 92.96 49.1185C93.0512 49.0273 93.081 48.023 93.101 44.3639C93.1232 40.2827 93.1432 39.7064 93.267 39.5697C93.5669 39.2385 94.5309 38.9729 95.6625 38.9096C96.8604 38.8427 97.1421 38.9145 97.6143 39.4072C98.0506 39.8623 98.0977 40.4034 98.0976 44.9524C98.0974 48.0303 98.124 49.063 98.2059 49.1616C98.35 49.3352 100.434 49.2979 100.613 49.1185C100.704 49.0275 100.734 48.0278 100.755 44.4193L100.782 39.8356L100.509 39.0167C100.264 38.2819 100.184 38.1477 99.7259 37.7089C99.4451 37.4399 99.0436 37.1281 98.8337 37.0159C98.2768 36.7185 97.1993 36.5906 95.9257 36.671ZM158.389 36.6685C156.756 36.9648 155.596 37.8166 154.903 39.2287C154.699 39.6445 154.509 40.1247 154.481 40.2959C154.288 41.4829 154.244 41.9862 154.244 43.0085C154.244 44.3426 154.421 45.8036 154.655 46.388C154.884 46.9636 155.56 47.9833 155.884 48.2415C156.408 48.6597 157.135 49.0424 157.829 49.265C158.35 49.4317 158.633 49.4563 160.031 49.4563C161.713 49.4563 162.011 49.4166 163.236 49.0282C164.112 48.7505 164.106 48.7607 164.12 47.5773C164.131 46.602 164.007 46.4849 163.283 46.789C162.737 47.0188 160.996 47.1677 159.692 47.0963C158.654 47.0395 158.44 46.9725 157.808 46.5052C157.375 46.1853 156.869 44.9252 156.936 44.3353L156.965 44.0757L160.732 44.0312C164.369 43.9883 164.504 43.9806 164.631 43.8089C164.802 43.5775 164.752 41.7576 164.543 40.6072C164.134 38.3583 162.948 37.0294 161.103 36.7552C160.153 36.6139 158.909 36.5742 158.389 36.6685ZM106.646 36.7057C105.809 36.8149 104.859 37.2653 104.258 37.8384C103.326 38.7257 102.838 40.4903 103.081 42.0895C103.27 43.3265 103.623 44.0353 104.46 44.8515L104.95 45.3299L104.589 45.7663C104.077 46.3861 103.949 46.6762 103.941 47.2329C103.934 47.7944 104.079 48.2059 104.448 48.6714C104.59 48.851 104.681 49.0396 104.65 49.0902C104.619 49.1409 104.364 49.3061 104.084 49.4573C103.342 49.8585 102.951 50.2417 102.626 50.886C102.238 51.656 102.183 52.4677 102.467 53.2361C102.705 53.8821 103.486 54.7016 104.132 54.983C105.477 55.5693 107.343 55.8413 108.992 55.6912C112.484 55.3735 114.532 54.0641 114.831 51.9567C114.936 51.2112 114.822 50.1452 114.578 49.6057C114.174 48.7123 112.907 48.046 111.362 47.9134C111.044 47.8861 110.363 47.7984 109.849 47.7184C109.335 47.6386 108.734 47.5567 108.514 47.5365C107.257 47.421 106.632 47.2879 106.506 47.1091C106.312 46.832 106.344 46.2892 106.567 46.066C106.745 45.8887 106.813 45.8811 107.708 45.9391C109.077 46.0278 110.675 45.694 111.54 45.1387C112.976 44.2163 113.6 42.266 113.187 39.9846C113.116 39.5933 113.057 39.2296 113.055 39.1763C113.051 39.0488 113.347 38.9194 113.949 38.7846C114.695 38.6178 114.763 38.5392 114.811 37.7862C114.872 36.8263 114.949 36.8589 112.474 36.7955C108.178 36.6854 106.947 36.6664 106.646 36.7057ZM131.694 36.7409C131.107 36.8023 130 37.1168 129.843 37.2667C129.734 37.3712 129.753 39.2213 129.865 39.356C129.944 39.4506 130.14 39.425 130.917 39.2197C131.78 38.9917 132.015 38.9669 133.34 38.9653L134.809 38.9636L135.273 39.2296C135.528 39.3759 135.776 39.5686 135.824 39.658C135.973 39.9369 136.049 41.1509 135.922 41.2293C135.684 41.3763 135.114 41.4659 133.919 41.544C132.421 41.6421 131.951 41.7188 131.249 41.9799C130.364 42.3092 130.229 42.3889 129.726 42.8774C128.976 43.6061 128.716 44.3146 128.714 45.6333C128.713 46.4571 128.749 46.6195 129.148 47.6179C129.296 47.9893 130.055 48.7003 130.597 48.9756C131.326 49.3455 131.867 49.4541 132.986 49.4553C134.335 49.4567 135.071 49.2381 136.353 48.4564C136.517 48.3564 136.677 48.3108 136.709 48.3551C136.74 48.3994 136.876 48.6034 137.009 48.8083C137.196 49.094 137.327 49.1948 137.571 49.2405C137.921 49.3063 138.487 49.2396 138.608 49.1182C138.651 49.0754 138.685 47.0629 138.683 44.646C138.68 39.3389 138.64 39.0146 137.879 38.0281C137.426 37.4423 136.556 36.9667 135.601 36.7841C134.859 36.6422 132.849 36.6199 131.694 36.7409ZM144.686 36.7014C143.442 36.8801 142.252 37.5963 141.705 38.496C141.389 39.0148 141.102 39.9865 141.04 40.741C140.963 41.693 141.092 42.5302 141.457 43.4531C141.686 44.0299 141.845 44.2715 142.3 44.7288C142.609 45.039 142.862 45.3221 142.862 45.358C142.862 45.3938 142.758 45.5202 142.631 45.6388C142.505 45.7574 142.279 46.1067 142.13 46.4152C141.892 46.9094 141.866 47.0346 141.918 47.4695C141.982 48.0198 142.059 48.1951 142.444 48.6758C142.663 48.9492 142.69 49.0301 142.598 49.1408C142.483 49.2798 142.003 49.5453 141.867 49.5453C141.824 49.5453 141.655 49.6675 141.49 49.8169C141.326 49.9663 141.129 50.1364 141.052 50.1949C140.975 50.2534 140.77 50.5391 140.597 50.8296C140.3 51.3263 140.281 51.4043 140.281 52.1306C140.281 53.7316 141.059 54.6451 142.972 55.2889C145.968 56.2972 150.452 55.5366 152.022 53.7538C152.47 53.245 152.691 52.76 152.83 51.9748C152.963 51.2224 152.842 50.1918 152.547 49.5685C152.325 49.1015 151.689 48.53 151.196 48.3563C150.411 48.0793 149.891 47.9444 149.608 47.9442C149.446 47.9441 148.772 47.8599 148.112 47.7571C147.451 47.6543 146.75 47.5543 146.554 47.5347C144.794 47.3589 144.446 47.2395 144.329 46.7703C144.253 46.4707 144.494 46.0043 144.754 45.9457C144.863 45.921 145.413 45.9105 145.976 45.9221C147.759 45.9591 149.165 45.5249 150.064 44.6588C150.678 44.0674 150.964 43.4958 151.183 42.421C151.33 41.7025 151.329 41.2273 151.176 39.6696C151.133 39.2316 151.148 39.0651 151.239 38.9959C151.388 38.8827 152.029 38.6951 152.268 38.6951C152.609 38.6951 152.739 38.4205 152.739 37.6984C152.739 37.2675 152.699 36.9955 152.628 36.939C152.523 36.8566 150.97 36.794 146.732 36.7017C145.754 36.6805 144.833 36.6802 144.686 36.7014ZM117.235 36.8083C116.822 36.8264 116.624 36.876 116.545 36.981C116.413 37.1556 116.392 43.7615 116.517 45.6766C116.608 47.0692 116.853 47.7909 117.442 48.4009C118.176 49.1605 119.084 49.4538 120.707 49.4553C121.968 49.4565 122.601 49.299 123.987 48.639C124.803 48.2506 124.744 48.239 125.07 48.8546C125.177 49.0584 125.333 49.2086 125.471 49.2434C125.812 49.3289 126.586 49.2305 126.675 49.0906C126.718 49.0227 126.754 46.2807 126.754 42.9971C126.755 38.1047 126.734 37.0091 126.636 36.9278C126.455 36.7775 124.394 36.7522 124.247 36.8985C124.155 36.9901 124.126 37.9859 124.106 41.6947C124.089 45.0156 124.052 46.4106 123.981 46.4967C123.824 46.6854 122.953 47.0551 122.666 47.0551C122.524 47.0551 122.294 47.0985 122.157 47.1516C121.817 47.2825 120.816 47.2817 120.388 47.1501C119.751 46.9548 119.613 46.8441 119.384 46.3436L119.159 45.8544L119.153 41.4775C119.148 37.708 119.129 37.083 119.014 36.9733C118.869 36.8343 118.153 36.768 117.235 36.8083ZM109.333 38.8407C110.366 39.1303 110.783 39.8309 110.783 41.2742C110.783 43.0146 110.123 43.7446 108.466 43.8348C107.496 43.8876 106.848 43.7412 106.357 43.3585C105.877 42.9848 105.773 42.7716 105.646 41.8991C105.568 41.3656 105.573 41.0767 105.672 40.5239C105.78 39.9152 105.843 39.7727 106.154 39.4304C106.782 38.7404 108.102 38.4955 109.333 38.8407ZM147.333 38.8572C147.92 39.0404 148.33 39.3856 148.566 39.8957C148.81 40.4236 148.807 42.2066 148.561 42.6895C148.363 43.0758 147.956 43.4491 147.545 43.6199C147.072 43.8165 145.445 43.874 144.967 43.7112C144.471 43.5423 143.893 43.0027 143.772 42.596C143.436 41.4652 143.434 41.0295 143.76 39.9755C143.883 39.5782 144.474 39.0309 144.97 38.8544C145.548 38.6492 146.67 38.6505 147.333 38.8572ZM160.792 39.0826C161.533 39.463 161.993 40.3197 161.993 41.3175C161.993 42.2152 162.136 42.1702 159.368 42.1429L156.965 42.1191L156.978 41.7189C157.021 40.3041 157.734 39.2416 158.834 38.9504C159.241 38.8428 160.489 38.9271 160.792 39.0826ZM84.9289 43.3584C85.0041 43.449 85.0266 43.9146 85.0065 44.9645C84.9786 46.4207 84.9748 46.4457 84.7557 46.617C84.1783 47.0685 83.3054 47.3219 82.3272 47.3219C81.3915 47.3219 80.9933 47.1516 80.5992 46.5833C80.1101 45.8778 80.2429 44.503 80.8496 43.9927C81.2624 43.6455 81.853 43.517 83.9104 43.3268C84.3019 43.2906 84.6673 43.2541 84.7226 43.2458C84.7778 43.2376 84.8706 43.2883 84.9289 43.3584ZM135.903 43.3375C136.016 43.4504 136.062 46.1937 135.956 46.4708C135.896 46.6272 134.901 47.144 134.66 47.144C134.576 47.144 134.483 47.184 134.453 47.2329C134.371 47.3646 132.58 47.3457 132.338 47.2107C131.484 46.7337 131.105 45.7143 131.423 44.7555C131.59 44.2531 132.107 43.7304 132.522 43.6447C133.367 43.4704 133.936 43.388 134.72 43.3262C135.209 43.2876 135.652 43.2505 135.703 43.2434C135.754 43.2365 135.844 43.2788 135.903 43.3375ZM109.404 49.8556C109.869 49.9344 110.51 50.0309 110.828 50.0699C111.513 50.1542 112.03 50.3649 112.164 50.6149C112.369 50.9985 112.371 51.6208 112.168 52.0929C111.736 53.0957 110.431 53.5812 108.158 53.5846C106.774 53.5865 106.165 53.4812 105.682 53.1556C105.184 52.82 104.966 52.4628 104.895 51.8668C104.792 50.9992 105.195 50.3755 106.171 49.8907C106.666 49.645 106.733 49.6349 107.624 49.6726C108.138 49.6944 108.939 49.7767 109.404 49.8556ZM146.85 49.7702C147.275 49.845 147.845 49.945 148.117 49.9925C148.389 50.04 148.75 50.0798 148.918 50.0809C149.373 50.0838 149.95 50.3809 150.156 50.7185C150.704 51.6169 149.967 52.8619 148.631 53.2962C147.822 53.5588 146.035 53.6831 144.984 53.5497C143.868 53.408 143.277 53.0842 143.033 52.4802C142.557 51.3012 143.158 50.1789 144.489 49.7631C144.999 49.6039 145.921 49.6066 146.85 49.7702Z" fill="white"/>
</svg>
