<svg width="206" height="90" viewBox="0 0 206 90" fill="none" xmlns="http://www.w3.org/2000/svg">
<path fill-rule="evenodd" clip-rule="evenodd" d="M8.22058 0.794216C5.31547 1.74053 2.73532 3.85808 1.42429 6.37162C0.060134 8.98729 0.134006 6.76865 0.134006 45.1987C0.134006 75.5768 0.174263 80.2498 0.447343 81.4152C1.3471 85.2569 4.46075 88.4797 8.41398 89.6609C9.44322 89.9684 17.4706 89.9976 100.97 89.9976C201.889 89.9976 193.405 90.1139 196.102 88.6933C197.783 87.8076 199.881 85.6558 200.738 83.9392C202.089 81.2306 202.025 83.1523 202.025 45.1987C202.025 15.6555 201.982 10.5295 201.72 9.27613C200.893 5.32026 197.877 2.02498 193.97 0.810088C192.667 0.404914 191.516 0.400111 101.007 0.411181C13.716 0.421832 9.30771 0.440002 8.22058 0.794216ZM202.362 1.04254C201.64 1.90698 201.624 3.14005 202.326 3.84701C204.306 5.83988 207.239 3.19665 205.438 1.04254C204.975 0.488456 204.763 0.399902 203.9 0.399902C203.038 0.399902 202.826 0.488456 202.362 1.04254ZM204.806 1.25056C205.203 1.56509 205.353 1.87565 205.353 2.38692C205.353 2.77372 205.259 3.1484 205.145 3.21941C204.94 3.34702 204.905 3.19205 204.858 1.9663C204.836 1.37817 204.777 1.33577 203.911 1.27353C203.253 1.22633 203.074 1.15198 203.288 1.0156C203.763 0.713181 204.216 0.783146 204.806 1.25056ZM202.863 2.39632C202.863 2.97798 202.782 3.29836 202.655 3.21941C202.298 2.9974 202.419 1.44416 202.794 1.44416C202.832 1.44416 202.863 1.87273 202.863 2.39632ZM204.108 2.07072C204.108 2.18559 204.014 2.27957 203.9 2.27957C203.786 2.27957 203.693 2.18559 203.693 2.07072C203.693 1.95585 203.786 1.86187 203.9 1.86187C204.014 1.86187 204.108 1.95585 204.108 2.07072ZM193.587 3.2593C195.979 4.16927 198.02 6.154 198.95 8.4733L199.439 9.69384V45.1987V80.7037L198.95 81.9242C198.02 84.2435 195.979 86.2282 193.587 87.1382L192.384 87.5958L101.704 87.6493C42.009 87.6843 10.6416 87.6313 9.90388 87.4941C6.7784 86.9126 4.20966 84.693 3.06339 81.5834L2.61787 80.3747V45.1987V10.0228L3.06339 8.81415C4.17397 5.80145 6.76263 3.50575 9.70965 2.92013C10.2031 2.82217 51.5067 2.75534 101.495 2.77184L192.384 2.80171L193.587 3.2593ZM204.108 3.21941C204.108 3.39171 204.253 3.53269 204.431 3.53269C204.609 3.53269 204.697 3.62667 204.627 3.74154C204.556 3.85641 204.229 3.95039 203.9 3.95039C203.571 3.95039 203.245 3.85641 203.174 3.74154C203.103 3.62667 203.191 3.53269 203.369 3.53269C203.547 3.53269 203.693 3.39171 203.693 3.21941C203.693 3.04711 203.786 2.90613 203.9 2.90613C204.014 2.90613 204.108 3.04711 204.108 3.21941ZM126.501 15.9072C126.503 16.6342 126.923 18.0101 127.26 18.3917C127.473 18.6336 127.491 18.7595 127.322 18.8163C127.141 18.8773 127.141 19.1156 127.324 19.7987C127.456 20.295 127.534 20.7317 127.496 20.7695C127.459 20.8073 126.942 20.5295 126.347 20.1521C124.791 19.1645 123.156 18.6979 121.208 18.6854C119.872 18.6766 119.548 18.7351 119.548 18.9857C119.548 19.3762 121.649 20.6586 122.289 20.6586C122.551 20.6586 122.765 20.7797 122.765 20.9278C122.765 21.3543 124.95 22.5247 125.484 22.3841C125.77 22.3091 125.893 22.3444 125.811 22.4775C125.739 22.5953 125 22.7381 124.17 22.7949C122.613 22.9017 121.105 23.4576 121.105 23.925C121.105 24.2408 122.31 24.5019 123.176 24.3739C123.515 24.3239 123.818 24.3532 123.849 24.439C123.881 24.5251 124.49 24.6345 125.205 24.6823C125.919 24.7302 126.555 24.8214 126.618 24.8851C126.682 24.949 126.365 25.7393 125.915 26.6416C123.97 30.5354 122.721 35.2968 121.925 41.8571C121.786 43.0058 121.556 44.1737 121.415 44.4523L121.158 44.9592L120.902 44.4772C120.662 44.0258 120.666 43.7132 120.945 40.6061C120.995 40.0457 120.914 39.9513 120.158 39.6861C119.015 39.2855 118.265 39.504 117.883 40.3484C117.716 40.7187 117.251 42.5233 116.849 44.3587C116.447 46.1941 115.984 47.8315 115.819 47.9976C115.302 48.5178 115.033 47.3581 115.145 45.0943C115.297 42.02 116.256 39.9371 117.383 40.2337C117.947 40.3822 117.9 39.8457 117.299 39.2778C116.242 38.2786 114.488 38.3313 113.511 39.3918C112.29 40.718 111.549 44.4191 111.943 47.2223C112.355 50.1575 113.382 51.5662 115.111 51.5679C116.586 51.5696 117.317 50.4011 117.686 47.4502L117.822 46.36L118.347 46.9878C119.806 48.733 121.622 48.5968 122.34 46.6883L122.566 46.0893L123.036 46.7927C124.076 48.3472 125.668 48.304 126.581 46.6964C126.854 46.2173 127.192 45.4494 127.334 44.9899C127.718 43.747 127.761 43.7286 128.167 44.6405C128.612 45.6401 129.414 46.2221 130.346 46.2221C131.266 46.2221 131.635 45.8639 132.426 44.2038L133.099 42.7913L133.248 44.0993C133.568 46.9097 135.299 48.6448 137.784 48.6448C139.819 48.6448 139.968 48.0256 138.861 44.1599L138.149 41.6739L138.684 41.0344C138.978 40.6829 139.26 40.3951 139.311 40.3951C139.362 40.3951 139.53 40.7638 139.684 41.2143C140.353 43.1733 142.156 43.9212 144.02 43.0129C145.714 42.1875 147.072 40.1431 147.513 37.7525C147.695 36.768 147.89 36.3985 148.583 35.7202C149.143 35.1711 149.703 34.8407 150.239 34.7421C151.019 34.5989 151.044 34.612 150.916 35.0924C150.251 37.5859 150.095 38.8463 150.348 39.6942C150.709 40.9079 151.592 41.7527 152.498 41.7527C153.477 41.7527 154.13 41.1714 154.955 39.5652C155.34 38.8164 155.71 38.2034 155.777 38.203C155.844 38.2026 156.004 38.4321 156.131 38.7133C156.443 39.4023 157.272 39.9183 157.935 39.836C158.414 39.7765 158.544 39.5693 159.038 38.0884C159.698 36.1049 160.68 34.4027 162.023 32.9122L162.995 31.8322L162.387 33.8163C161.456 36.853 161.157 38.5086 161.387 39.3471C161.644 40.2851 162.54 40.9173 163.612 40.9173C164.357 40.9173 164.544 40.8066 165.284 39.9252C165.742 39.3795 166.315 38.6982 166.558 38.411C166.886 38.0224 166.967 37.9879 166.876 38.2768C166.558 39.2763 167.571 41.0338 168.52 41.1316C169.529 41.2354 169.919 41.0572 171.102 39.9549L172.359 38.7838V39.5063C172.359 40.5432 173.134 41.6048 174.061 41.8375C175.099 42.0981 175.877 41.7339 177.453 40.2504L178.742 39.0368L178.832 40.2874C178.946 41.8809 179.517 42.5881 180.689 42.5881C181.362 42.5881 181.773 42.3473 183.534 40.9219C185.631 39.2243 186.07 38.6821 185.595 38.3787C185.17 38.1072 185.058 38.1517 183.679 39.142C182.959 39.6589 182.321 40.0819 182.261 40.0819C182.2 40.0819 182.252 39.7508 182.375 39.3461C182.605 38.5921 183.705 37.2797 184.567 36.731C184.954 36.4846 185.022 36.3108 184.909 35.8587C184.717 35.0882 183.824 34.234 183.211 34.234C182.471 34.234 182.079 34.4926 179.035 36.9831C176.238 39.2732 175.519 39.6711 175.798 38.7765C176.191 37.5098 177.924 35.528 179.675 34.3411C180.88 33.5245 181.377 33.4404 181.945 33.9575C182.225 34.2125 182.391 34.2451 182.558 34.0776C182.942 33.6906 182.559 32.418 181.82 31.6294C180.897 30.6451 180.092 30.649 178.122 31.6474C176.895 32.2695 176.09 32.9491 173.546 35.5111C171.849 37.221 170.383 38.6199 170.288 38.6199C169.801 38.6199 171.332 35.2106 172.535 33.6131C173.009 32.9844 173.397 32.3692 173.397 32.2457C173.397 31.8568 171.842 30.4747 171.404 30.4747C170.8 30.4747 170.438 30.8174 169.304 32.4588C168.749 33.2628 167.995 34.2497 167.629 34.6517C167.263 35.0537 166.52 35.9875 165.978 36.7267C165.436 37.466 164.885 38.1053 164.753 38.1473C164.345 38.2776 164.822 36.6429 166.042 33.734C167.216 30.9356 167.437 29.7032 166.853 29.2157C166.334 28.7817 164.632 28.7107 163.898 29.0927C163.215 29.4484 161.323 31.2831 160.769 32.1281L160.438 32.6329L160.32 32.1304C160.183 31.5442 159.013 30.6835 158.354 30.6835C157.639 30.6835 157.311 31.2119 155.762 34.8679C154.964 36.75 154.123 38.4789 153.893 38.7101L153.476 39.1303V38.3923C153.476 37.9862 153.76 36.8139 154.108 35.7874C154.836 33.6354 154.797 32.8188 153.935 32.1342C153.469 31.7641 153.166 31.7019 152.179 31.7729C151.523 31.8201 150.986 31.8268 150.986 31.7877C150.986 31.7487 151.499 31.0899 152.127 30.3241C152.755 29.558 153.268 28.8208 153.268 28.6854C153.268 28.3022 151.456 26.7153 151.019 26.7153C150.214 26.7153 148.505 28.9342 147.829 30.8573C147.492 31.8155 147.435 32.3593 147.529 33.7119L147.646 35.3827L147.279 34.1296C146.778 32.418 146.383 31.7219 145.409 30.8368C143.445 29.0501 141.37 29.4377 140.921 31.6756C140.791 32.3259 140.812 32.3543 141.434 32.3543C142.216 32.3543 143.057 32.7651 143.62 33.422C143.964 33.8236 143.917 33.8094 143.344 33.3391C142.556 32.6916 142.274 32.6517 141.464 33.073C140.885 33.3746 140.821 33.4938 139.148 37.4219C138.769 38.3139 138.288 39.1978 138.082 39.3862C137.732 39.7045 137.676 39.702 137.29 39.3509C136.717 38.8285 136.757 37.8837 137.473 35.0299C138.045 32.7505 138.748 31.0312 139.612 29.7978L140.013 29.2255L139.452 28.7013C138.663 27.9657 137.344 27.9709 136.608 28.7126C135.791 29.5344 134.624 32.5811 133.959 35.6266C133.364 38.3488 131.934 42.4079 131.362 42.9983C131.103 43.2648 131.063 43.1975 131.047 42.4761C131.003 40.3985 131.118 39.2343 131.514 37.7298C132.006 35.866 131.92 35.6222 130.646 35.2772C129.058 34.8468 128.587 35.3574 128.042 38.0978C127.66 40.0171 126.6 43.3448 126.151 44.0296L125.796 44.5722L125.65 44.0501C124.963 41.5935 126.321 34.0696 128.171 30.0793C128.995 28.3032 130.214 26.2989 130.472 26.298C130.65 26.2974 132.933 28.5664 132.933 28.7445C132.933 29.019 134.052 30.0569 134.348 30.0569C134.585 30.0569 134.622 29.8577 134.521 29.1165C134.376 28.0528 133.825 26.8613 133.048 25.9317C132.55 25.3358 132.543 25.2955 132.921 25.1959C133.141 25.1381 133.365 25.2066 133.419 25.3484C133.529 25.636 135.979 26.2245 136.189 26.0136C136.263 25.9394 136.47 26.0069 136.651 26.1633C136.974 26.443 138.617 26.9242 139.25 26.9242C139.834 26.9242 139.588 26.3694 138.586 25.4256C137.404 24.3129 135.764 23.495 134.092 23.1851C132.827 22.9505 132.356 22.75 133.054 22.7431C133.625 22.7375 135.423 21.5512 135.423 21.1803C135.423 20.9882 135.617 20.8674 135.928 20.8674C136.641 20.8674 138.567 19.6231 138.49 19.2125C138.408 18.7741 136.951 18.672 135.319 18.9903C133.844 19.2781 132.332 20.0017 131.123 20.9984L130.247 21.7206L130.128 21.1375C129.659 18.8468 129.113 17.6684 127.911 16.3564C126.983 15.3425 126.499 15.1885 126.501 15.9072ZM93.5062 17.1081C93.0354 17.582 93.0009 17.8011 93.306 18.375C93.5494 18.8328 94.5228 18.9253 94.9173 18.5283C95.3117 18.1313 95.2198 17.1515 94.765 16.9066C94.1947 16.5995 93.9771 16.6342 93.5062 17.1081ZM16.3134 17.2908C16.3134 17.5601 16.5107 17.7221 16.945 17.8096C18.054 18.0329 18.2127 18.8441 18.9134 27.864C19.0919 30.1614 19.603 35.5654 20.0496 39.873C21.052 49.5466 21.428 53.6205 21.7231 58.0066C21.9783 61.8017 21.9188 62.0421 20.6605 62.2954C20.2247 62.3831 20.0485 62.5404 20.0485 62.8416C20.0485 63.2492 20.1728 63.2645 23.4724 63.2645C26.7415 63.2645 26.8963 63.2459 26.8963 62.8528C26.8963 62.5634 26.696 62.3892 26.2219 62.2664C25.1233 61.9819 25.0084 61.48 25.2499 58.0258C25.6249 52.6646 27.0249 40.5593 27.2445 40.7805C27.3497 40.8862 27.8311 44.8289 28.2305 48.8537C28.4071 50.6341 28.8018 54.1807 29.1075 56.7351C29.6337 61.1325 29.6443 61.4003 29.3067 61.7758C29.1106 61.9938 28.6748 62.2277 28.3382 62.2954C27.9025 62.3831 27.7263 62.5404 27.7263 62.8416C27.7263 63.2492 27.8506 63.2645 31.1502 63.2645C34.3597 63.2645 34.5741 63.2401 34.5741 62.8729C34.5741 62.6062 34.3786 62.442 33.9609 62.3579C33.6237 62.29 33.1896 61.9913 32.996 61.6941C32.6646 61.1847 32.6702 60.7196 33.0951 53.594C33.7552 42.5267 34.5257 29.1228 34.7903 24.1047C34.9723 20.6532 35.104 19.5297 35.4086 18.8311L35.7959 17.9435L56.6101 17.9406C68.0579 17.9391 77.6157 17.8861 77.8496 17.8228C78.138 17.7449 78.4553 17.8894 78.8352 18.2718L79.3957 18.8359V40.1997V61.5634L78.8489 61.9961C78.5482 62.2342 78.128 62.4291 77.9151 62.4291C77.6406 62.4291 77.5281 62.5809 77.5281 62.9512V63.4733H80.824H84.12L84.2192 62.9512C84.3012 62.5193 84.2375 62.4291 83.8513 62.4291C83.5944 62.4291 83.1765 62.2597 82.9227 62.0529C82.4625 61.6778 82.4608 61.6496 82.3521 53.1245C82.2921 48.4207 82.3135 43.0743 82.3994 41.2435C82.5876 37.2356 82.6727 37.2916 83.9673 42.2748C84.4448 44.1127 85.33 47.3082 85.9343 49.3758C87.5557 54.9225 89.1315 60.7748 89.1959 61.4892C89.2482 62.0703 89.1882 62.13 88.3704 62.3125C87.6441 62.4746 87.4885 62.5943 87.4885 62.9913V63.4733H90.7864C93.6023 63.4733 94.1028 63.4251 94.2103 63.1429C94.4282 62.5715 94.3564 62.4857 93.5527 62.3564C92.3525 62.1632 92.0663 61.8334 91.7094 60.2317C91.2776 58.2953 90.0873 53.7538 89.4663 51.6732C89.1919 50.7542 88.5418 48.4986 88.0214 46.6607C87.5012 44.8228 86.5512 41.5334 85.9104 39.3509C85.2696 37.1684 84.738 34.9598 84.7286 34.4428C84.7108 33.441 85.3049 31.9034 89.3117 22.5832C90.9576 18.7549 91.3969 17.9078 91.7868 17.8092C92.0719 17.7372 92.2612 17.5317 92.2612 17.2944C92.2612 16.9279 92.0734 16.8992 89.6673 16.8992C87.3281 16.8992 87.0735 16.9354 87.0735 17.2675C87.0735 17.4698 87.2837 17.7296 87.5404 17.8447C88.2027 18.1413 88.1077 18.5396 86.5342 22.0673C85.778 23.7621 84.932 25.7128 84.6539 26.402C83.4917 29.2827 82.6509 31.1012 82.4815 31.1012C82.2336 31.1012 82.2512 19.3549 82.5 18.6962C82.6287 18.356 82.9345 18.1072 83.3612 17.9959C83.7561 17.893 84.0914 17.6371 84.1926 17.3614L84.3626 16.8992H57.275H30.1875L30.2537 17.3692C30.3006 17.7002 30.4822 17.8579 30.8692 17.903C31.1711 17.9383 31.5812 18.1482 31.7802 18.3694C32.1165 18.7434 32.1248 19.0765 31.9005 23.1091C31.7679 25.4946 31.4731 30.8767 31.2454 35.0694C30.7167 44.8063 30.5465 46.9065 30.365 45.9297C30.1973 45.0271 28.9174 30.7257 28.8885 29.4314C28.868 28.515 28.8861 28.488 29.6457 28.2982C30.1898 28.1622 30.4239 27.9891 30.4239 27.7228C30.4239 27.3694 30.1751 27.3419 27 27.3419C23.7146 27.3419 23.5761 27.3588 23.5761 27.7596C23.5761 28.0426 23.7146 28.1773 24.0049 28.1773C24.2406 28.1773 24.6251 28.2805 24.8594 28.4066C25.2377 28.6104 25.2711 28.7677 25.1578 29.8163C25.0876 30.4657 24.844 34.0043 24.6164 37.6801C24.3885 41.3559 24.1368 45.1152 24.0565 46.0342L23.9109 47.705L23.7577 46.6607C23.5185 45.0287 21.9468 27.4102 21.7086 23.6869C21.5909 21.849 21.4417 19.9963 21.3772 19.5696C21.2799 18.927 21.3498 18.7033 21.786 18.2643C22.0755 17.973 22.4566 17.7347 22.633 17.7347C22.8152 17.7347 22.9536 17.5544 22.9536 17.3169C22.9536 16.9166 22.8152 16.8992 19.6335 16.8992C16.5254 16.8992 16.3134 16.9243 16.3134 17.2908ZM44.384 18.554C44.0159 18.6476 43.479 18.8796 43.1908 19.0696L42.6668 19.4151V24.8233C42.6668 27.798 42.7249 30.3838 42.7957 30.5697C42.8667 30.7558 43.1891 31.0454 43.5124 31.2138C44.0379 31.4872 44.1945 31.4809 44.9918 31.1538C46.619 30.4861 48.0239 29.5985 48.1695 29.1461C48.3945 28.448 48.5179 21.9472 48.3324 20.5763C48.2025 19.616 48.0517 19.2618 47.647 18.9656C47.043 18.5233 45.3472 18.3094 44.384 18.554ZM36.7529 18.8063C35.8262 19.3771 35.8326 19.3102 35.8257 28.4521C35.8214 34.0855 35.8953 37.3288 36.0339 37.5894C36.1706 37.8465 36.468 37.9933 36.8521 37.9933C37.3264 37.9933 37.6684 37.7448 38.4528 36.83C39.0016 36.1901 39.9547 35.2749 40.571 34.7962C41.1873 34.3175 41.8067 33.6427 41.9474 33.2967C42.1396 32.8238 42.1759 31.0442 42.0941 26.1274C42.001 20.5387 41.9366 19.5272 41.6517 19.1759C41.373 18.8328 40.9761 18.7474 39.243 18.6578C37.8018 18.5834 37.0411 18.6288 36.7529 18.8063ZM49.1515 18.7083C48.7483 18.8721 48.7777 29.2215 49.1815 29.2215C49.3407 29.2215 50.0643 29.0396 50.7897 28.8174C51.515 28.5952 52.4766 28.3464 52.9266 28.2646C53.3767 28.1827 53.9602 27.8989 54.2236 27.6338C54.6846 27.1698 54.7023 27.0255 54.7023 23.7277C54.7023 19.6649 54.5597 19.0836 53.4904 18.7848C52.7206 18.5694 49.6273 18.5151 49.1515 18.7083ZM55.9473 18.8282C55.662 18.9794 55.3171 19.4295 55.1808 19.8286C54.8218 20.8806 54.8498 23.079 55.2327 23.8912C55.5143 24.4883 55.694 24.5988 56.6334 24.7536L57.7111 24.9309L56.4142 24.9977L55.1173 25.0643V26.2819C55.1173 27.1504 55.2138 27.5802 55.4541 27.7809C55.8274 28.0927 58.3368 28.3005 59.1743 28.0887C60.1936 27.8314 60.6248 25.4885 60.023 23.4781C59.7862 22.6868 59.7084 22.6262 58.5511 22.3294C57.8792 22.1571 57.2907 21.8988 57.2436 21.7551C57.1963 21.6116 57.259 21.494 57.3827 21.494C57.5061 21.494 57.6074 21.588 57.6074 21.7029C57.6074 21.819 58.1608 21.9117 58.8524 21.9117H60.0975V20.691C60.0975 19.0517 59.7269 18.71 57.8516 18.62C56.9849 18.5782 56.2719 18.6563 55.9473 18.8282ZM67.8271 18.8708L67.1527 19.1764V24.7306V30.2848L67.6703 30.8057C68.238 31.3771 70.5762 32.5628 71.1357 32.563C71.329 32.5632 71.7492 32.3366 72.0694 32.0594L72.6517 31.5557L72.7127 25.7118L72.7737 19.8679L72.2659 19.2737C71.7984 18.7267 71.6285 18.6749 70.1299 18.6223C69.0367 18.5838 68.2799 18.6655 67.8271 18.8708ZM60.5125 20.032V21.2851H61.4463H62.3801V25.1147V28.9442L63.622 29.2917C64.3051 29.4828 64.9121 29.6392 64.9708 29.6392C65.0295 29.6392 65.0777 27.7596 65.0777 25.4622V21.2851H65.9077H66.7377V20.032V18.7789H63.6251H60.5125V20.032ZM73.5276 19.0759C73.2898 19.3153 73.2035 20.7868 73.0829 26.6468C72.9841 31.4569 73.0053 34.1106 73.1454 34.4815C73.262 34.7898 73.827 35.5642 74.4012 36.2022C74.9754 36.8403 75.6722 37.7245 75.9498 38.1671C76.5574 39.136 77.4908 39.6019 78.1318 39.2567C78.5474 39.0328 78.5675 38.8473 78.6082 34.8532C78.6314 32.5598 78.6549 30.284 78.6601 29.7959L78.6694 28.9083L77.3725 28.846L76.0756 28.784V30.9991C76.0756 32.4228 76.0015 33.1682 75.8681 33.0853C75.738 33.0043 75.6606 30.8205 75.6606 27.2251C75.6606 23.5437 75.7348 21.494 75.8681 21.494C75.9851 21.494 76.0756 22.0857 76.0756 22.8515V24.2091H77.304H78.5327L78.679 22.8332C78.8888 20.8626 78.6009 19.3821 77.9431 19.0483C77.1999 18.6711 73.9094 18.6916 73.5276 19.0759ZM91.4726 19.4472C91.0387 19.884 91.1792 20.6471 91.7407 20.9046C92.1468 21.0909 92.2074 21.2031 92.0225 21.4274C91.6191 21.9165 92.0319 22.0094 92.6276 21.5638C93.2566 21.0934 93.4956 20.0003 93.08 19.4963C92.7797 19.1321 91.815 19.1026 91.4726 19.4472ZM94.6631 20.2238C94.1088 20.8401 94.3155 21.5615 95.1144 21.7983C95.8002 22.0015 96.0326 22.3294 95.491 22.3294C95.3273 22.3294 94.9469 22.235 94.6456 22.1199C94.1769 21.9405 94.108 21.9625 94.1673 22.2722C94.3371 23.1596 96.2499 23.1237 96.6564 22.2254C96.9446 21.5886 96.6446 21.1611 95.7745 20.9687C95.44 20.8948 95.1663 20.7478 95.1663 20.6421C95.1663 20.3956 95.4213 20.3988 96.0866 20.6534C96.4854 20.806 96.6188 20.7904 96.6188 20.5907C96.6188 19.8017 95.27 19.5485 94.6631 20.2238ZM70.0579 25.4622C70.0579 28.1077 69.9817 29.6392 69.8503 29.6392C69.7192 29.6392 69.6428 28.1541 69.6428 25.6015C69.6428 22.0489 69.704 21.2851 69.9888 21.2851C70.0267 21.2851 70.0579 23.1648 70.0579 25.4622ZM39.2216 25.4645C39.3669 29.4369 39.2446 31.9366 38.9049 31.9366C38.8055 31.9366 38.7242 29.587 38.7242 26.7153C38.7242 23.8436 38.8035 21.494 38.9002 21.494C38.9971 21.494 39.1417 23.2807 39.2216 25.4645ZM45.7795 24.9524C45.7795 28.3055 45.5082 29.2938 45.3105 26.6616C45.1692 24.7805 45.3599 21.4664 45.6008 21.6164C45.6992 21.6776 45.7795 23.1786 45.7795 24.9524ZM52.0047 24.1301C52.0047 25.9175 51.9501 26.2976 51.6934 26.2976C51.4347 26.2976 51.3822 25.8887 51.3822 23.8703C51.3822 21.7363 51.4197 21.4744 51.6934 21.7029C51.9335 21.9033 52.0047 22.4585 52.0047 24.1301ZM115.884 23.3457C110.046 25.279 104.621 32.4439 103.155 40.1545C102.441 43.9072 102.908 49.6314 104.158 52.457C104.76 53.8191 106.47 55.7506 107.734 56.4958C109.981 57.8212 113.199 58.3759 116.624 58.0281C121.01 57.5829 122.534 57.1343 140.507 50.9984C150.435 47.6089 153.734 46.9151 160.012 46.8957C166.915 46.8744 171.78 48.1043 175.576 50.8302C179.032 53.3122 180.228 56.3291 179.221 60.0225C177.894 64.8923 174.526 68.4073 169.286 70.3914C167.626 71.0196 167.284 71.0749 164.993 71.0852L162.503 71.0965L161.019 70.2986C160.164 69.8383 159.081 69.0207 158.461 68.3668C157.869 67.7429 157.26 67.2327 157.107 67.2327C156.689 67.2327 156.32 68.6021 156.47 69.5979C156.9 72.4573 159.46 74.05 163.987 74.275C168.65 74.507 173.511 73.0945 177.651 70.3051C179.793 68.8613 182.173 66.24 183.135 64.263C184.345 61.7793 184.687 60.267 184.683 57.4166C184.678 53.3455 183.588 50.5412 180.979 47.8919C178.264 45.1336 174.684 43.916 167.742 43.3895C161.16 42.8901 153.164 43.9997 145.572 46.4659C144.27 46.8888 140.123 48.3852 136.357 49.7912C128.166 52.8488 125.693 53.7064 123.491 54.2527C117.601 55.7143 113.785 55.4691 110.758 53.4346C109.277 52.4388 108.472 51.4758 107.636 49.696C105.452 45.0475 106.834 36.6018 110.598 31.5918C112.044 29.6674 114.897 27.0451 116.239 26.406C117.84 25.6437 117.992 25.8049 117.992 28.2633C117.992 30.3188 117.596 32.2453 116.944 33.3583C116.455 34.1935 116.448 34.3207 116.866 34.7413C117.236 35.1139 118.444 35.1763 119.043 34.8537C120.637 33.9949 121.544 27.0344 120.36 24.7431C119.508 23.0923 118.035 22.6329 115.884 23.3457ZM174.849 25.6103C174.291 25.817 173.762 26.3807 172.95 27.6353C171.938 29.199 171.907 29.9128 172.826 30.4769C173.197 30.7046 173.651 30.8911 173.836 30.8915C174.021 30.8919 174.887 30.0463 175.761 29.0123C177.326 27.1595 177.345 27.1236 177.049 26.5468C176.621 25.7145 175.666 25.3081 174.849 25.6103ZM182.527 25.671C182.527 25.7859 182.667 25.8799 182.838 25.8799C183.057 25.8799 183.15 26.1017 183.15 26.6232C183.15 27.0656 183.234 27.3143 183.357 27.2374C183.471 27.1664 183.565 26.8321 183.565 26.4941C183.565 26.1562 183.658 25.8799 183.772 25.8799C183.886 25.8799 183.98 25.7859 183.98 25.671C183.98 25.5562 183.653 25.4622 183.253 25.4622C182.854 25.4622 182.527 25.5562 182.527 25.671ZM184.187 26.402C184.187 26.9189 184.28 27.3419 184.395 27.3419C184.509 27.3419 184.602 27.1953 184.602 27.0163C184.602 26.8306 184.701 26.7523 184.833 26.8341C184.96 26.9131 185.145 26.8481 185.245 26.6898C185.378 26.4774 185.426 26.5284 185.429 26.8843C185.431 27.152 185.524 27.3091 185.64 27.2374C185.895 27.0787 185.918 25.4622 185.665 25.4622C185.565 25.4622 185.362 25.609 185.214 25.7886C184.97 26.0848 184.928 26.0848 184.763 25.7886C184.431 25.1913 184.187 25.4511 184.187 26.402ZM54.9098 30.4135C52.3085 30.8688 47.3202 32.2263 47.0245 32.5592C46.9674 32.6235 46.6581 32.7923 46.337 32.9345C45.6458 33.2403 43.008 35.1755 41.4812 36.4971C39.9514 37.821 38.4791 40.166 37.7881 42.3792C37.1814 44.3228 36.7282 55.1758 37.1992 56.486C37.4864 57.285 37.0534 57.9035 36.1304 58.0121C35.3211 58.1071 35.2642 58.1503 35.1484 58.7604C35.0368 59.3477 35.3134 59.714 35.8679 59.714C36.1882 59.714 36.2123 59.7823 36.0196 60.1451C35.5695 60.9915 36.5327 61.4483 37.7695 60.975C38.1056 60.8464 38.3389 60.8464 38.4179 60.975C38.4858 61.0855 38.9178 61.176 39.3781 61.176C39.9008 61.176 40.4131 61.3328 40.7426 61.5937C41.405 62.1179 42.7909 62.1521 43.3338 61.6576C43.7009 61.3232 43.7285 61.3276 43.8347 61.7365C44.0681 62.635 45.5915 62.9067 46.4746 62.2077C47.1382 61.682 48.4771 61.4126 48.4771 61.8044C48.4771 62.0009 48.7703 62.0394 49.6065 61.9525C50.2903 61.8815 50.7636 61.9186 50.8059 62.0469C50.8792 62.2681 51.0408 62.2758 53.2497 62.1649C53.9916 62.1275 54.7546 62.1897 54.9455 62.3031C55.1762 62.4401 55.5352 62.4341 56.0177 62.2852C56.447 62.1526 57.0988 62.1267 57.6155 62.2217C58.3397 62.3549 61.1083 62.1676 61.8613 61.9341C61.9754 61.8988 62.367 61.9947 62.7316 62.1473C63.5126 62.4744 63.9061 62.3652 64.2074 61.7382C64.3854 61.3669 64.4296 61.3495 64.441 61.6459C64.4489 61.8468 64.573 62.0114 64.7172 62.0114C64.8612 62.0114 65.0714 62.2227 65.1841 62.4813C65.3418 62.843 65.59 62.9658 66.263 63.0151C66.7435 63.0502 67.326 62.9769 67.5574 62.8524C68.089 62.5661 68.3212 61.6908 67.9763 61.2727C67.5339 60.7361 67.9236 60.6843 68.9064 61.1492C69.9946 61.6641 70.8499 61.7158 71.4135 61.3013C71.7658 61.0419 71.8794 61.0667 72.4156 61.5208C73.1078 62.1072 73.7515 62.0949 74.0831 61.4892C74.4286 60.8583 74.6573 60.7603 75.4788 60.8917C75.9311 60.9642 76.2877 60.9199 76.3729 60.7808C76.4512 60.6534 76.8388 60.5494 77.2343 60.5494C77.8261 60.5494 77.9915 60.4487 78.1681 59.9809C78.4845 59.1434 78.1175 58.4609 77.3505 58.4609C77.0195 58.4609 76.6344 58.322 76.4945 58.1524C76.285 57.8982 76.3599 57.7416 76.9187 57.2648C77.2918 56.9463 77.7688 56.5624 77.9788 56.4118C78.9678 55.7026 79.3083 53.6932 78.5906 52.801C78.2633 52.3941 77.9612 52.3027 76.7101 52.2314C75.4348 52.159 75.2385 52.0974 75.3505 51.8056C76.2347 49.5015 76.3972 44.6929 75.6882 41.8124C75.1293 39.5424 73.7604 37.2693 72.1788 35.9852C71.6399 35.5479 70.5922 34.6571 69.8503 34.0057C69.1085 33.3543 68.128 32.6352 67.6715 32.4078C66.4831 31.8155 62.9244 30.7328 61.3425 30.4824C60.03 30.2748 55.9523 30.2309 54.9098 30.4135ZM130.732 30.6789C130.17 30.9074 129.613 32.3107 129.613 33.4955C129.613 34.2133 129.715 34.4917 130.074 34.7442C130.627 35.1348 131.767 35.1717 132.042 34.8083C132.4 34.3368 133.386 31.3328 133.254 31.1179C133.128 30.913 131.79 30.465 131.376 30.4891C131.262 30.4957 130.972 30.5812 130.732 30.6789ZM56.7774 31.7154C56.7774 32.0488 56.4068 32.1695 55.0627 32.2741C52.3089 32.4882 47.6711 34.0224 45.6047 35.4029C44.6147 36.0644 43.8999 36.2135 43.9185 35.7547C43.9273 35.5404 46.5358 34.0596 48.3733 33.2259C50.5001 32.2608 56.7774 31.1327 56.7774 31.7154ZM62.0252 31.8303C65.3979 32.4224 66.9131 33.0425 69.3121 34.8131C70.515 35.7008 71.5015 36.5005 71.5046 36.5901C71.5177 36.9606 70.8427 36.9725 70.4434 36.6089C69.8906 36.1053 67.7296 34.7801 66.5302 34.2091C66.0166 33.9648 65.4564 33.6459 65.2852 33.5005C64.7811 33.0726 61.5915 32.3439 59.6306 32.2088C58.3046 32.1175 57.8149 32.0074 57.8149 31.8013C57.8149 31.4151 59.735 31.4285 62.0252 31.8303ZM56.5701 32.9287C56.5705 33.2409 56.4051 33.2837 55.4381 33.2232C54.4506 33.1613 54.2381 33.2202 53.7778 33.6837C52.6133 34.8555 53.4483 36.5314 55.1968 36.5314C55.7641 36.5314 56.252 36.4038 56.4514 36.2033C56.7477 35.9048 56.7774 35.9917 56.7774 37.159V38.443L56.2401 37.8006C55.3819 36.7738 53.9887 36.966 53.3556 38.198C52.8885 39.1072 52.9642 39.7809 53.589 40.2755C54.3103 40.8467 55.5126 40.844 56.2381 40.2696L56.7923 39.8308L56.733 41.9902C56.6852 43.7301 56.612 44.1614 56.3563 44.2107C56.1077 44.2585 56.0534 44.1004 56.1059 43.4822C56.1503 42.9569 56.0318 42.4653 55.7519 42.0138C55.3819 41.4173 55.2217 41.335 54.4302 41.335C53.3952 41.335 52.6695 41.934 52.4481 42.9711L52.316 43.5902L51.3537 42.7111C50.4189 41.8571 50.4085 41.8346 50.991 41.9206C51.7032 42.0257 52.5506 41.524 52.8766 40.8039C53.0601 40.3985 53.0302 40.1232 52.7299 39.4528C52.3124 38.5213 51.804 38.2849 50.6754 38.4979C49.8124 38.661 49.4835 39.0355 49.3208 40.0405L49.1959 40.8129L48.2658 39.9304C47.4792 39.184 47.4034 39.0472 47.7746 39.0428C48.4391 39.0349 49.2365 38.2958 49.3847 37.5506C49.515 36.895 49.5223 36.8912 49.9433 37.2749C50.4942 37.7768 51.9321 37.745 52.4417 37.2197C53.0661 36.5761 53.142 35.4623 52.6083 34.7793C52.1885 34.2421 52.0524 34.1964 51.1392 34.2845C49.9248 34.4021 49.3071 34.9023 49.3071 35.7682C49.3071 36.3394 49.2803 36.3655 49.0375 36.0314C48.8894 35.8273 48.4457 35.5892 48.0519 35.5021L47.3358 35.344L48.4771 34.8236C49.908 34.1711 53.2902 33.031 54.5079 32.7906C56.0581 32.4846 56.5699 32.5189 56.5701 32.9287ZM62.1566 33.2146C64.1607 33.6757 66.4939 34.8493 68.5615 36.4361C70.0473 37.5765 70.255 38.0545 69.4872 38.5677C69.0402 38.8663 69.0203 38.8546 69.0203 38.2933C69.0203 37.3841 68.2845 36.7402 67.2455 36.7402C66.4692 36.7402 66.3443 36.6703 66.1119 36.1053C65.4568 34.5139 63.4672 34.3948 62.6934 35.9006C62.2439 36.7755 62.2994 37.1088 63.0134 37.8275C63.5859 38.4035 63.7353 38.4526 64.5697 38.3375C65.3601 38.2285 65.4927 38.263 65.4927 38.5775C65.4927 39.1817 66.0743 39.8308 66.7496 39.9799L67.3833 40.1201L66.5935 40.7218C66.1592 41.0526 65.7519 41.326 65.6882 41.3291C65.6247 41.3323 65.4051 40.9532 65.2005 40.4864C64.8316 39.6447 64.2478 39.2465 63.3834 39.2465C62.7967 39.2465 61.5484 40.5524 61.5569 41.1575C61.5664 41.8291 62.19 42.5261 62.9648 42.7309L63.6087 42.9014L62.4799 43.6942L61.3508 44.487L61.7098 43.8489C62.0559 43.2341 62.0528 43.1829 61.6254 42.4296C61.0275 41.3759 60.3594 41.1527 59.2756 41.6445C58.3459 42.0664 57.9431 42.9241 58.2619 43.8026C58.5285 44.5373 58.482 44.765 58.1262 44.4678C57.8838 44.2654 57.8149 43.6963 57.8149 41.8966V39.5854L58.2357 40.0399C58.7989 40.6485 59.5055 40.7997 60.3994 40.5027C61.2382 40.2241 61.55 39.7715 61.55 38.8329C61.55 37.3054 59.7124 36.6322 58.4534 37.6987L57.8149 38.2394V35.4044V32.5697L59.1118 32.691C59.8252 32.7578 61.1954 32.9934 62.1566 33.2146ZM59.044 33.8002C58.1148 34.7355 58.2708 35.8869 59.4094 36.4973C60.3602 37.0069 61.6687 36.6435 62.1512 35.7361C62.3894 35.2883 61.9163 33.823 61.4141 33.4535C60.7669 32.9771 59.708 33.1321 59.044 33.8002ZM55.3207 34.5523C55.1762 34.7273 55.0042 34.8163 54.938 34.7499C54.872 34.6834 54.9554 34.5416 55.1233 34.4347C55.5626 34.1551 55.6201 34.1893 55.3207 34.5523ZM59.9051 34.8606C60.011 34.8606 60.0975 34.7666 60.0975 34.6517C60.0975 34.5368 60.2108 34.4428 60.3494 34.4428C60.5125 34.4428 60.483 34.5621 60.2656 34.7808C59.8815 35.1674 59.4633 35.0049 59.499 34.4827C59.5208 34.1642 59.5324 34.1655 59.6179 34.4951C59.6702 34.696 59.7995 34.8606 59.9051 34.8606ZM61.135 34.6517C61.135 34.7666 61.036 34.8606 60.9153 34.8606C60.7945 34.8606 60.7532 34.7666 60.8238 34.6517C60.8943 34.5368 60.9931 34.4428 61.0435 34.4428C61.0939 34.4428 61.135 34.5368 61.135 34.6517ZM55.6361 34.8606C55.4516 35.1611 56.0229 35.1183 56.3331 34.8083C56.5427 34.5991 56.567 34.6197 56.4561 34.9128C56.3777 35.1204 56.1034 35.2783 55.8214 35.2783C55.5483 35.2783 55.3248 35.3722 55.3248 35.4871C55.3248 35.602 55.1381 35.696 54.9098 35.696C54.3331 35.696 54.3923 35.4453 55.0658 35.0362C55.7685 34.6095 55.7952 34.6012 55.6361 34.8606ZM144.864 37.325C144.864 39.4382 144.63 40.2132 143.712 41.1372C143.142 41.7109 142.915 41.6476 142.571 40.8195C142.179 39.8747 142.19 38.5535 142.602 37.1437C142.958 35.9267 143.372 35.3257 144.034 35.0665C144.717 34.7994 144.864 35.1989 144.864 37.325ZM50.3899 35.9428C50.26 36.0736 50.2309 35.9364 50.3083 35.5552C50.3967 35.1181 50.449 35.0654 50.5094 35.3526C50.5544 35.5658 50.5005 35.8315 50.3899 35.9428ZM61.3614 35.2622C61.2006 35.3645 60.9437 35.4 60.7908 35.3409C60.542 35.245 60.4154 35.507 60.4899 35.9631C60.5046 36.0527 60.2822 35.9714 59.9958 35.7824C59.536 35.4792 59.2282 35.1099 59.6306 35.3443C59.7163 35.394 59.973 35.3593 60.2012 35.2668C60.7995 35.0245 61.7401 35.0207 61.3614 35.2622ZM51.1747 35.8004C50.8628 36.1786 51.185 36.2202 51.5787 35.8526C51.8047 35.6415 51.8262 35.6477 51.6914 35.8856C51.5648 36.1091 51.6283 36.1523 51.9568 36.0658C52.2593 35.9861 52.357 36.0349 52.2832 36.2285C52.2253 36.3806 52.0443 36.4535 51.8812 36.3904C51.7179 36.3273 51.4467 36.3908 51.2784 36.5314C51.1101 36.6719 50.8105 36.7244 50.6125 36.6479C50.3911 36.5625 50.3361 36.4529 50.4693 36.3635C50.5887 36.2835 50.7464 36.0535 50.8202 35.8526C50.8939 35.6517 51.0618 35.4871 51.1935 35.4871C51.366 35.4871 51.3608 35.5746 51.1747 35.8004ZM64.2476 35.696C64.2476 35.8108 64.1487 35.9048 64.0279 35.9048C63.9071 35.9048 63.8658 35.8108 63.9364 35.696C64.0069 35.5811 64.1057 35.4871 64.1561 35.4871C64.2066 35.4871 64.2476 35.5811 64.2476 35.696ZM48.4771 36.2058C48.4771 36.2565 48.3837 36.3559 48.2696 36.4269C48.1554 36.498 48.062 36.4564 48.062 36.3348C48.062 36.2133 48.1554 36.1137 48.2696 36.1137C48.3837 36.1137 48.4771 36.155 48.4771 36.2058ZM64.4551 36.3002C64.4551 36.6059 63.781 36.772 63.5386 36.5259C63.3765 36.3614 63.4153 36.3367 63.677 36.437C63.8874 36.5176 64.0401 36.4787 64.0401 36.3449C64.0401 36.2177 64.1335 36.1137 64.2476 36.1137C64.3618 36.1137 64.4551 36.1976 64.4551 36.3002ZM47.7124 36.6103C47.8381 36.9401 47.4854 37.3668 47.0868 37.3668C46.9384 37.3668 46.817 37.2757 46.817 37.1644C46.817 37.0533 46.9571 37.0163 47.1283 37.0823C47.3304 37.1604 47.4395 37.0771 47.4395 36.8447C47.4395 36.607 47.3314 36.5285 47.1175 36.6112C46.9328 36.6824 46.8496 36.6473 46.9222 36.5291C47.1073 36.2275 47.5852 36.2768 47.7124 36.6103ZM43.0819 36.9182C43.0819 37.0025 42.545 37.6316 41.8887 38.3158C40.5189 39.7444 38.9962 42.431 38.7115 43.9218C38.6045 44.4832 38.5152 45.517 38.5136 46.2192C38.5117 46.9216 38.4198 47.6371 38.3092 47.8094C38.1718 48.0235 38.1071 47.4727 38.1048 46.0709C38.0996 42.6984 39.0444 40.4415 41.5936 37.7369C42.5843 36.6861 43.0819 36.4123 43.0819 36.9182ZM45.7448 37.1512C45.7002 37.2816 45.5651 37.2816 45.3644 37.1512C45.0878 36.9716 45.0878 36.9265 45.3644 36.7469C45.6836 36.5397 45.882 36.7505 45.7448 37.1512ZM65.5643 36.8536C65.4966 37.0309 65.3968 37.1312 65.3425 37.0765C65.2881 37.0218 65.3051 36.8766 65.3804 36.7542C65.585 36.4209 65.7046 36.4856 65.5643 36.8536ZM64.589 37.2204C64.561 37.6732 64.5267 37.6842 63.9885 37.414C63.6745 37.2563 63.4176 37.0817 63.4176 37.0259C63.4176 36.9702 63.5102 36.9821 63.6235 37.0525C63.7368 37.1228 63.9934 37.0844 64.1941 36.9668C64.3948 36.849 64.5724 36.75 64.5888 36.7465C64.6054 36.7431 64.6054 36.9564 64.589 37.2204ZM47.9734 37.4771C47.7844 37.7676 47.6902 38.1034 47.7639 38.2235C47.8375 38.3436 47.7033 38.3196 47.4653 38.17C47.0353 37.8998 47.0361 37.8952 47.5993 37.4311C48.3316 36.8275 48.3916 36.8348 47.9734 37.4771ZM48.7562 37.4802C48.6885 37.6575 48.5887 37.7578 48.5343 37.703C48.48 37.6483 48.497 37.5032 48.5723 37.3808C48.7769 37.0474 48.8964 37.1122 48.7562 37.4802ZM60.3502 38.6579C60.2203 38.7887 60.1913 38.6514 60.2687 38.2703C60.3571 37.8331 60.4094 37.7805 60.4698 38.0677C60.5148 38.2809 60.4608 38.5466 60.3502 38.6579ZM73.5687 39.004C74.6363 41.1326 75.3001 43.5327 75.307 45.2886C75.3157 47.5565 75.0517 49.6891 74.7621 49.6895C74.5875 49.6899 74.5373 49.0475 74.584 47.4021C74.6907 43.6202 73.8646 39.9756 72.6376 38.8154C72.2562 38.4547 72.1925 38.2772 72.3685 38.0637C72.7542 37.5959 72.9325 37.7356 73.5687 39.004ZM54.8511 38.6813C54.7886 38.8455 54.5581 39.0267 54.3389 39.0846C54.0034 39.1729 53.9582 39.1034 54.0518 38.6435C54.1312 38.2529 54.185 38.2018 54.2404 38.4633C54.2829 38.6642 54.4151 38.8288 54.5342 38.8288C54.6533 38.8288 54.6983 38.6274 54.6344 38.381C54.5512 38.0612 54.5819 37.9975 54.7415 38.1581C54.8643 38.2818 54.9137 38.5171 54.8511 38.6813ZM59.6825 38.0733C59.6825 38.1174 59.4955 38.2026 59.2672 38.2628C59.0388 38.3229 58.9041 38.2868 58.9682 38.1828C59.0799 38.0009 59.6825 37.9085 59.6825 38.0733ZM67.5864 38.2841C67.2492 38.693 66.5993 38.8325 66.5993 38.4961C66.5993 38.3444 66.6765 38.2686 66.7707 38.3271C66.8649 38.3858 67.1061 38.3375 67.3067 38.2199C67.8047 37.928 67.868 37.9424 67.5864 38.2841ZM68.044 38.5518C67.9429 38.8166 67.9948 38.8688 68.2579 38.7671C68.4513 38.6926 68.6053 38.7335 68.6053 38.8597C68.6053 38.9843 68.4183 39.0372 68.1899 38.977C67.955 38.9152 67.7055 38.9912 67.6161 39.1521C67.5111 39.3409 67.3565 39.3732 67.1557 39.2481C66.9046 39.0921 66.9228 39.0343 67.2623 38.9079C67.4875 38.8244 67.7462 38.6312 67.8375 38.4789C68.0716 38.0886 68.2029 38.1347 68.044 38.5518ZM59.6246 38.7676C59.339 39.0551 59.2199 39.0729 59.0095 38.8597C58.7995 38.6468 58.8197 38.6224 59.1118 38.7344C59.3222 38.815 59.475 38.7761 59.475 38.6422C59.475 38.5151 59.5883 38.411 59.7269 38.411C59.8846 38.411 59.8464 38.5445 59.6246 38.7676ZM44.8837 39.0769C44.8175 39.2433 44.7683 39.1938 44.7583 38.9505C44.7494 38.7304 44.7984 38.6072 44.8673 38.6765C44.9362 38.7458 44.9436 38.9261 44.8837 39.0769ZM44.1194 39.0499C44.1194 39.1715 44.2362 39.2024 44.3788 39.1184C44.5216 39.0345 44.4597 39.1704 44.2416 39.4206C44.0237 39.6708 43.908 39.9386 43.9845 40.0157C44.0611 40.0927 44.2725 39.9747 44.4547 39.7533C44.7376 39.4094 44.7361 39.4353 44.4439 39.9311C44.2559 40.2502 44.1626 40.6096 44.2362 40.7297C44.3099 40.8498 44.1798 40.8283 43.947 40.6821C43.7141 40.5357 43.5703 40.34 43.6272 40.2473C43.6843 40.1545 43.5815 39.9284 43.3991 39.7448C43.1433 39.4873 43.1223 39.3446 43.3076 39.1199C43.5901 38.7774 44.1194 38.7318 44.1194 39.0499ZM55.4084 39.0706C55.3066 39.2362 55.4008 39.2751 55.7077 39.1945C55.977 39.1234 56.1046 39.1592 56.0281 39.284C55.9579 39.3983 55.7243 39.4453 55.5089 39.3887C55.1298 39.2889 55.0478 39.4236 55.0866 40.0819C55.099 40.2922 55.0675 40.3093 54.9903 40.1341C54.927 39.9906 54.743 39.873 54.5813 39.873C54.0989 39.873 54.247 39.4994 54.8579 39.1757C55.5939 38.7853 55.5821 38.7876 55.4084 39.0706ZM72.0113 39.6999C72.7212 40.5344 73.5855 42.4329 73.5855 43.1574C73.5855 43.4367 73.5016 43.4116 73.1443 43.0259C72.8019 42.6558 72.5286 42.566 71.9225 42.6242L71.1417 42.6992L71.5336 42.1978C72.08 41.4985 72.0321 40.5879 71.416 39.968C71.1359 39.6861 70.7509 39.4553 70.5606 39.4553C70.2766 39.4553 70.2608 39.3991 70.4729 39.142C70.8825 38.6454 71.218 38.7669 72.0113 39.6999ZM43.4334 39.1711C43.2676 39.3379 43.455 39.6642 43.7166 39.6642C43.8241 39.6642 43.9119 39.5232 43.9119 39.3509C43.9119 39.028 43.667 38.9359 43.4334 39.1711ZM59.9045 39.4279C59.7904 39.6424 59.7638 39.891 59.8454 39.9799C59.9269 40.0691 59.7368 39.9766 59.4231 39.7746C58.9313 39.458 58.5731 39.0591 59.0081 39.3125C59.0938 39.3622 59.3505 39.3275 59.5787 39.235C59.807 39.1427 60.0203 39.0604 60.0529 39.0522C60.0855 39.0443 60.0186 39.2132 59.9045 39.4279ZM60.8238 39.2465C60.7532 39.3613 60.5843 39.4538 60.4484 39.4522C60.2998 39.4501 60.3255 39.368 60.5125 39.2465C60.9111 38.9871 60.9829 38.9871 60.8238 39.2465ZM42.9034 41.0142C44.0918 42.0209 45.987 41.3895 45.987 39.9868C45.987 39.3143 46.1345 39.3193 46.8564 40.0155L47.437 40.5754L46.6663 41.0106C45.1227 41.882 44.9733 43.3005 46.3404 44.1042C46.8782 44.4202 47.1413 44.4548 47.7396 44.2886C48.4679 44.0862 48.475 44.0904 48.3351 44.6413C48.1106 45.5264 48.2156 46.0051 48.7271 46.4281L49.2033 46.8222L48.1658 46.6772C46.5377 46.45 46.402 46.3779 46.402 45.7393C46.402 44.8232 45.8037 44.4335 44.5122 44.5083C43.5309 44.5651 43.3568 44.6476 42.958 45.2449L42.5089 45.9176L42.0425 45.5104C41.4334 44.9788 40.2826 44.7698 39.6248 45.0716C39.1158 45.3048 39.1079 45.2954 39.2502 44.6277C39.3301 44.2526 39.5171 43.6637 39.6655 43.3191L39.9354 42.6925L39.9522 43.2516C39.9742 43.973 40.8534 44.6766 41.7331 44.6766C42.1018 44.6766 42.6494 44.4818 42.9501 44.2437C43.4099 43.8796 43.4969 43.6457 43.4969 42.7711C43.4969 41.7704 43.468 41.7193 42.733 41.4102C42.3012 41.2285 41.7107 41.1412 41.3741 41.2088C40.7103 41.3425 40.7233 41.2794 41.6081 40.0819L42.1481 39.3509L42.213 39.9177C42.2493 40.2347 42.5536 40.718 42.9034 41.0142ZM51.1747 39.873C51.1747 39.9879 51.0757 40.0819 50.9549 40.0819C50.8341 40.0819 50.7972 40.183 50.8729 40.3064C50.962 40.4513 51.1734 40.3774 51.4693 40.0975C51.7214 39.8592 52.0095 39.6642 52.1097 39.6642C52.2097 39.6642 52.1103 39.812 51.8887 39.9929C51.4946 40.3145 51.4957 40.3195 51.9372 40.2253C52.246 40.1596 52.3562 40.2143 52.2861 40.3983C52.2296 40.5461 52.0265 40.6416 51.8347 40.6103C51.6428 40.5789 51.3925 40.6205 51.2784 40.7028C51.1643 40.7851 50.8943 40.9162 50.6785 40.9941C50.3424 41.1153 50.3243 41.089 50.5536 40.8112C50.7767 40.5407 50.7555 40.4325 50.4272 40.1627C50.0828 39.8795 50.079 39.8534 50.3965 39.9538C50.5961 40.0171 50.7596 39.9776 50.7596 39.8665C50.7596 39.7552 50.853 39.6642 50.9672 39.6642C51.0813 39.6642 51.1747 39.7581 51.1747 39.873ZM67.719 39.7903C67.6501 39.8596 67.4711 39.8672 67.3214 39.8068C67.1559 39.7402 67.205 39.6907 67.4468 39.6807C67.6655 39.6717 67.7879 39.721 67.719 39.7903ZM63.0916 40.3803C62.8719 40.542 62.7669 40.7498 62.8586 40.8419C62.9501 40.9342 63.1026 40.8834 63.1974 40.7291C63.2921 40.575 63.4969 40.4914 63.6525 40.5436C63.8465 40.6086 63.782 40.721 63.4467 40.9016C62.7476 41.2782 62.3774 40.8705 62.8955 40.2943C63.1051 40.0612 63.3249 39.919 63.384 39.9783C63.4429 40.0376 63.3114 40.2185 63.0916 40.3803ZM69.5069 40.613C69.4393 40.7903 69.3395 40.8905 69.2851 40.8358C69.2307 40.7811 69.2477 40.6359 69.3231 40.5136C69.5277 40.1802 69.6472 40.245 69.5069 40.613ZM70.2612 40.8179C70.1168 40.9929 69.9448 41.0819 69.8786 41.0154C69.8126 40.949 69.896 40.8072 70.0639 40.7003C70.5032 40.4206 70.5606 40.4549 70.2612 40.8179ZM63.9233 41.2214C63.7397 41.5035 63.6538 41.8394 63.7326 41.9678C63.8185 42.1073 63.7021 42.0919 63.4433 41.9294C63.0134 41.6591 63.0142 41.6545 63.5774 41.1905C64.2989 40.5956 64.3288 40.5984 63.9233 41.2214ZM70.6804 41.0217C70.4714 41.2752 70.4785 41.335 70.7173 41.335C70.8796 41.335 71.1301 41.2176 71.2736 41.0739C71.4832 40.8646 71.5075 40.8853 71.3967 41.1783C71.3158 41.3924 71.0427 41.5438 70.7376 41.5438C70.3191 41.5438 70.2382 41.6257 70.3255 41.9615C70.3851 42.1913 70.3494 42.3792 70.2459 42.3792C70.1425 42.3792 70.0579 42.2853 70.0579 42.1704C70.0579 42.0555 69.9645 41.9615 69.8503 41.9615C69.7362 41.9615 69.4561 41.7736 69.2278 41.5438C68.9996 41.3141 68.8875 41.1261 68.9788 41.1261C69.0701 41.1261 69.2567 41.2387 69.3932 41.3761C69.5862 41.5704 69.7694 41.5263 70.2129 41.179C70.8962 40.6439 71.0286 40.5994 70.6804 41.0217ZM64.7378 41.2306C64.672 41.4029 64.4649 41.5409 64.2773 41.5371C63.9878 41.5315 63.9974 41.4841 64.3391 41.2239C64.8426 40.8406 64.8861 40.8415 64.7378 41.2306ZM69.2251 42.5866C69.674 42.8172 70.1996 43.0058 70.393 43.0058C70.7134 43.0058 70.7157 43.0384 70.42 43.3713C69.7412 44.1353 69.9475 45.233 70.8734 45.7835L71.4986 46.1551L70.8893 46.7213C69.957 47.5876 69.8827 48.2919 70.6432 49.0573L71.2709 49.6891H70.0419H68.8128L69.2278 49.2714C69.7341 48.7618 69.7595 47.9683 69.2946 47.1762C68.6906 46.1469 67.11 46.1183 66.3252 47.1227C65.7977 47.7975 65.7948 48.4439 66.3159 49.1108C66.5404 49.3981 66.6649 49.6926 66.5927 49.7655C66.5203 49.8384 65.7396 49.8979 64.8577 49.8979C63.5871 49.8979 63.2284 49.8294 63.1286 49.5675C62.9094 48.993 62.9831 48.9103 63.8355 48.7731C64.8978 48.602 65.4941 48.0095 65.4881 47.1306C65.4811 46.096 64.898 45.4851 63.8154 45.3777C62.6785 45.2647 61.9663 45.7608 61.7816 46.7938L61.6538 47.5091L60.555 47.2938L59.4561 47.0784L61.9038 45.2821C63.2499 44.294 64.7249 43.2374 65.1814 42.934C65.6379 42.6307 66.4781 42.0518 67.0486 41.6474L68.0859 40.9125L68.2473 41.5401C68.3606 41.9801 68.6528 42.2928 69.2251 42.5866ZM41.6293 41.9615C41.6293 42.0764 41.5303 42.1704 41.4096 42.1704C41.2888 42.1704 41.2475 42.0764 41.318 41.9615C41.3886 41.8467 41.4874 41.7527 41.5378 41.7527C41.5882 41.7527 41.6293 41.8467 41.6293 41.9615ZM47.647 42.0752C47.647 42.0994 47.507 42.2362 47.3358 42.3792C47.0832 42.5902 47.0245 42.5818 47.0245 42.3352C47.0245 42.1679 47.1646 42.0311 47.3358 42.0311C47.507 42.0311 47.647 42.0509 47.647 42.0752ZM49.8918 43.3903C49.6273 43.4296 49.2257 43.6175 48.9994 43.808C48.6128 44.1336 48.6047 44.1326 48.8668 43.7919C49.0272 43.5835 49.1095 43.1171 49.0606 42.695L48.9753 41.9609L49.6742 42.6399C50.3571 43.3036 50.3621 43.3208 49.8918 43.3903ZM54.2873 42.1704C54.2873 42.2853 54.1472 42.3792 53.976 42.3792C53.8048 42.3792 53.6647 42.5202 53.6647 42.6925C53.6647 42.8648 53.7581 43.0058 53.8723 43.0058C53.9864 43.0058 54.0798 42.9118 54.0798 42.7969C54.0798 42.6821 54.1931 42.5881 54.3317 42.5881C54.4948 42.5881 54.4653 42.7074 54.2478 42.926C53.8862 43.2903 53.4572 43.1624 53.4572 42.6906C53.4572 42.5307 53.6208 42.3043 53.8204 42.1871C54.2781 41.9187 54.2873 41.9185 54.2873 42.1704ZM59.89 42.1704C59.89 42.2853 59.791 42.3792 59.6702 42.3792C59.5495 42.3792 59.5082 42.2853 59.5787 42.1704C59.6493 42.0555 59.748 41.9615 59.7985 41.9615C59.8489 41.9615 59.89 42.0555 59.89 42.1704ZM137.41 43.8533C137.682 44.795 137.854 45.6476 137.793 45.7476C137.339 46.4867 136.668 44.9588 136.668 43.1865C136.668 42.4745 136.723 41.948 136.791 42.0163C136.86 42.0848 137.138 42.9114 137.41 43.8533ZM41.2122 42.7969C41.3085 42.7969 41.423 42.689 41.4668 42.5568C41.5106 42.4246 41.6814 42.3619 41.8466 42.4173C42.0703 42.4924 42.0269 42.5829 41.6764 42.7717C41.1311 43.0653 40.7889 42.9239 40.8233 42.4191C40.8451 42.1006 40.8568 42.1019 40.9422 42.4315C40.9945 42.6324 41.1159 42.7969 41.2122 42.7969ZM47.7508 42.5881C47.5663 42.8886 48.1376 42.8458 48.4478 42.5359C48.6574 42.3266 48.6817 42.3473 48.5709 42.6403C48.4924 42.8479 48.2181 43.0058 47.9361 43.0058C47.663 43.0058 47.4395 43.0998 47.4395 43.2147C47.4395 43.5039 46.6674 43.4778 46.486 43.1823C46.4045 43.0499 46.425 42.9954 46.5313 43.0616C46.6377 43.1278 46.9556 43.0035 47.2378 42.7853C47.822 42.3335 47.9334 42.2907 47.7508 42.5881ZM42.135 43.101C41.9514 43.3832 41.8655 43.719 41.9443 43.8475C42.0302 43.987 41.9138 43.9715 41.655 43.809C41.2251 43.5388 41.2259 43.5342 41.7891 43.0701C42.5106 42.4753 42.5405 42.478 42.135 43.101ZM59.6117 42.8492C59.6696 42.7057 59.8694 42.5881 60.0556 42.5881C60.3679 42.5881 60.3679 42.6144 60.0543 42.93C59.6872 43.2994 59.0579 43.186 59.0631 42.7512C59.0653 42.5616 59.1303 42.5749 59.2863 42.7969C59.4521 43.0327 59.5326 43.0457 59.6117 42.8492ZM65.4767 43.1986C65.1111 43.5666 64.8702 44.0292 64.8702 44.3633C64.8702 45.1177 65.9058 46.1388 66.6699 46.1378C66.9926 46.1373 67.5599 45.9508 67.9309 45.7232C68.5053 45.3706 68.6053 45.1891 68.6053 44.4991C68.6053 43.3053 67.9705 42.5881 66.9141 42.5881C66.2725 42.5881 65.9453 42.7272 65.4767 43.1986ZM60.5783 43.1345C60.4689 43.4212 60.5162 43.4362 60.8914 43.2341C61.2631 43.034 61.3135 43.048 61.2085 43.3231C61.1373 43.51 60.8951 43.6238 60.6426 43.5889C60.3251 43.5451 60.201 43.6403 60.2004 43.9285C60.1998 44.1488 60.0832 44.3681 59.9408 44.416C59.7688 44.4736 59.729 44.3798 59.8221 44.1357C59.9253 43.8652 59.8804 43.8003 59.6518 43.8886C59.4671 43.9598 59.2291 43.8266 59.0637 43.5593C58.8082 43.1466 58.8145 43.134 59.14 43.4049C59.4494 43.6624 59.5648 43.6441 60.0552 43.2598C60.7445 42.7197 60.7356 42.7218 60.5783 43.1345ZM42.8744 43.2147C42.8744 43.3295 42.7108 43.422 42.5112 43.4204C42.2008 43.4177 42.1933 43.3876 42.4593 43.2147C42.8509 42.9599 42.8744 42.9599 42.8744 43.2147ZM55.1173 43.4066C54.8316 43.4893 54.6095 43.7025 54.623 43.8811C54.644 44.162 54.5767 44.1685 54.119 43.9296C53.8285 43.7779 53.4996 43.7105 53.3881 43.7798C53.2748 43.8502 53.2518 43.798 53.3359 43.6612C53.4184 43.5267 53.5496 43.4534 53.6272 43.4985C53.705 43.5434 53.9553 43.5045 54.1835 43.412C54.4118 43.3197 54.832 43.2468 55.1173 43.2502L55.6361 43.2562L55.1173 43.4066ZM72.7555 43.4235C72.7555 43.5384 72.6621 43.6324 72.5479 43.6324C72.4338 43.6324 72.3404 43.5384 72.3404 43.4235C72.3404 43.3086 72.4338 43.2147 72.5479 43.2147C72.6621 43.2147 72.7555 43.3086 72.7555 43.4235ZM66.1754 43.8412C66.1146 44.0747 66.169 44.2589 66.2984 44.2589C66.4261 44.2589 66.5302 44.1649 66.5302 44.0501C66.5302 43.9352 66.6435 43.8412 66.7821 43.8412C66.9398 43.8412 66.9017 43.9747 66.6798 44.1977C66.2659 44.6144 65.7687 44.2982 65.9774 43.7508C66.1569 43.28 66.3036 43.3471 66.1754 43.8412ZM67.7753 43.9456C67.6331 44.1179 67.4117 44.256 67.2831 44.2522C67.1542 44.2487 67.2304 44.1077 67.4518 43.9389C67.9693 43.5451 68.1033 43.5478 67.7753 43.9456ZM71.9254 44.1545C71.6364 44.5049 71.0954 44.5772 71.0954 44.2654C71.0954 44.1543 71.2355 44.1173 71.4067 44.1833C71.5779 44.2495 71.7179 44.1996 71.7179 44.0724C71.7179 43.9452 71.8227 43.8412 71.9507 43.8412C72.1118 43.8412 72.1039 43.9381 71.9254 44.1545ZM72.6517 44.1873C72.2406 44.5166 72.241 44.5189 72.688 44.413C72.9999 44.3393 73.1076 44.3895 73.0368 44.5753C72.9804 44.7232 72.7772 44.8186 72.5855 44.7873C72.3936 44.756 72.1232 44.8211 71.9844 44.932C71.8455 45.0429 71.6121 45.0889 71.4656 45.034C71.289 44.9678 71.339 44.8777 71.6142 44.7668C71.8424 44.6749 72.1512 44.4291 72.3004 44.2205C72.4494 44.0118 72.6828 43.8441 72.8192 43.8479C72.9553 43.8514 72.88 44.0043 72.6517 44.1873ZM49.5748 44.6766C49.514 44.9101 49.5683 45.0943 49.6978 45.0943C49.8254 45.0943 49.9296 45.0003 49.9296 44.8855C49.9296 44.7706 50.0344 44.6766 50.1624 44.6766C50.3148 44.6766 50.2977 44.795 50.1135 45.0185C49.8595 45.3268 49.908 45.3514 50.6069 45.2693C51.0334 45.2192 51.3822 45.2533 51.3822 45.3452C51.3822 45.4368 51.201 45.512 50.9794 45.512C50.7578 45.512 50.5189 45.606 50.4484 45.7209C50.2625 46.0237 49.6715 45.9778 49.7748 45.6687C49.823 45.5252 49.7221 45.3038 49.5509 45.1768C49.3733 45.0448 49.2959 44.7986 49.3706 44.6025C49.5549 44.1192 49.7053 44.1739 49.5748 44.6766ZM67.9326 44.5879C67.867 44.6539 67.6881 44.727 67.535 44.7503C67.3818 44.7737 67.1492 44.8604 67.0179 44.9429C66.702 45.1417 65.7012 45.0528 65.8332 44.8379C65.8901 44.7453 66 44.7065 66.0777 44.7516C66.1555 44.7965 66.4057 44.7577 66.634 44.6651C67.1162 44.4699 68.1085 44.4108 67.9326 44.5879ZM44.8256 44.9185C44.7237 45.0841 44.8179 45.1231 45.1246 45.0423C45.3707 44.9776 45.572 44.955 45.572 44.9924C45.572 45.0296 45.6274 45.2324 45.6952 45.4427C45.773 45.6837 45.7529 45.7345 45.6408 45.5799C45.3891 45.2326 44.2864 45.1424 44.1756 45.46C44.1146 45.635 44.2101 45.6766 44.4651 45.586C44.7635 45.4799 44.7936 45.5074 44.6043 45.7136C44.4305 45.9034 44.1989 45.921 43.7743 45.7771C43.201 45.5826 43.1979 45.5734 43.6525 45.4262C43.9094 45.3431 44.1194 45.1944 44.1194 45.0956C44.1194 44.9968 44.2829 44.8731 44.4825 44.8205C44.6822 44.7681 44.8745 44.7142 44.9098 44.7008C44.9451 44.6875 44.9071 44.7854 44.8256 44.9185ZM51.0709 44.8855C51.0004 45.0003 50.8493 45.0943 50.7352 45.0943C50.621 45.0943 50.5853 45.0003 50.6559 44.8855C50.7264 44.7706 50.8775 44.6766 50.9916 44.6766C51.1058 44.6766 51.1415 44.7706 51.0709 44.8855ZM52.4969 46.1643C52.0572 46.2378 51.5534 46.5003 51.338 46.7683C51.1284 47.0287 50.8891 47.1689 50.8063 47.0795C50.7235 46.9901 50.7746 46.8742 50.9196 46.8222C51.2736 46.695 51.7972 45.6459 51.7972 45.0636C51.7972 44.6246 51.8441 44.6405 52.5359 45.3145L53.2746 46.0342L52.4969 46.1643ZM54.9133 44.9899C54.8218 45.1048 54.7135 45.3648 54.6728 45.5676C54.6091 45.884 54.5205 45.8529 54.0505 45.3493L53.5025 44.7622L54.2912 44.7716C54.7886 44.7775 55.0183 44.8581 54.9133 44.9899ZM60.6163 45.0118C59.9811 45.5045 59.4746 45.7537 59.4781 45.5716C59.4851 45.215 59.8109 44.9229 60.305 44.8305C60.5903 44.7771 60.8705 44.7236 60.9275 44.7117C60.9846 44.6998 60.8445 44.8347 60.6163 45.0118ZM73.986 46.639L74.0005 47.4525L73.3039 46.7434L72.6071 46.0342L73.0964 45.7664C73.3653 45.6192 73.5921 45.3842 73.6 45.2443C73.6334 44.6641 73.9725 45.8901 73.986 46.639ZM41.2143 45.592C41.2143 45.6361 40.9838 45.7165 40.7018 45.7708C40.42 45.8251 40.2386 45.789 40.299 45.6908C40.4052 45.5177 41.2143 45.4306 41.2143 45.592ZM58.4513 46.837C58.2235 47.3719 57.9415 47.8094 57.8244 47.8094C57.7076 47.8094 57.8662 47.2877 58.1768 46.6501C58.8419 45.2854 59.0514 45.4281 58.4513 46.837ZM45.2607 45.9297C45.1901 46.0446 45.0212 46.1371 44.8853 46.1355C44.7367 46.1334 44.7625 46.0513 44.9494 45.9297C45.3481 45.6703 45.4199 45.6703 45.2607 45.9297ZM56.5699 46.0342C56.2698 46.398 55.9473 46.4456 55.9473 46.1263C55.9473 46.0047 56.0407 45.9632 56.1548 46.0342C56.269 46.1052 56.3624 46.0636 56.3624 45.9421C56.3624 45.8205 56.4671 45.7209 56.5952 45.7209C56.7562 45.7209 56.7483 45.8178 56.5699 46.0342ZM46.1945 46.1386C46.1945 46.2535 46.1534 46.3474 46.103 46.3474C46.0525 46.3474 45.9538 46.2535 45.8832 46.1386C45.8127 46.0237 45.854 45.9297 45.9747 45.9297C46.0955 45.9297 46.1945 46.0237 46.1945 46.1386ZM64.4551 46.1386C64.4551 46.2535 64.3562 46.3474 64.2354 46.3474C64.1146 46.3474 64.0733 46.2535 64.1439 46.1386C64.2144 46.0237 64.3132 45.9297 64.3636 45.9297C64.4141 45.9297 64.4551 46.0237 64.4551 46.1386ZM43.483 49.5195C42.5876 49.9485 42.2518 50.2231 42.2518 50.5259C42.2518 50.9048 42.3919 50.9422 43.8081 50.9422C44.9667 50.9422 45.3644 50.871 45.3644 50.6638C45.3644 50.5105 45.3016 50.3219 45.2246 50.2444C45.1476 50.1671 45.0752 49.8814 45.0634 49.6097C45.0428 49.1413 45.1333 49.1728 46.8114 50.2181C48.2799 51.1331 48.5926 51.4215 48.6501 51.9146C48.6881 52.2413 48.8659 52.6732 49.0454 52.8741C49.3104 53.1713 49.3168 53.2389 49.0799 53.2366C48.3953 53.23 47.8877 52.9775 47.9948 52.6968C48.062 52.5207 47.9736 52.4042 47.773 52.4042C47.5896 52.4042 47.2295 52.1928 46.973 51.9342C46.7049 51.6642 46.2312 51.4551 45.8596 51.4428C45.5039 51.4309 44.7257 51.3561 44.1304 51.2766C43.1286 51.1429 43.0574 51.1617 43.1734 51.5303C43.2811 51.8716 43.1628 51.9472 42.3427 52.0602C41.4374 52.1853 40.5909 52.6301 39.658 53.4718C39.4297 53.678 39.033 54.0388 38.7761 54.274C38.2164 54.7865 38.1475 55.8941 38.6522 56.2654C38.9846 56.5102 38.8917 56.9989 38.5125 56.9989C38.271 56.9989 37.9535 55.7721 37.7794 54.1675C37.5478 52.0343 38.3036 49.7927 40.0794 47.3451L40.7953 46.3587L42.7546 47.644L44.7139 48.9293L43.483 49.5195ZM63.2253 46.974C63.3311 46.974 63.4176 46.88 63.4176 46.7651C63.4176 46.6503 63.5224 46.5563 63.6504 46.5563C63.8115 46.5563 63.8036 46.6532 63.6251 46.8696C63.2377 47.3395 62.7916 47.2528 62.8192 46.7129C62.8372 46.3593 62.8667 46.3334 62.9381 46.6085C62.9903 46.8094 63.1196 46.974 63.2253 46.974ZM44.3045 46.8813C44.7722 46.9717 44.8814 47.0862 44.7996 47.4009C44.7291 47.6724 44.8212 47.8418 45.0816 47.9191C45.2941 47.9821 45.9119 48.2653 46.4541 48.5481C47.6062 49.1494 48.1731 49.1989 48.358 48.7144C48.5198 48.2898 48.3198 48.074 47.2959 47.5694C46.6931 47.2722 46.6344 47.2044 47.048 47.2827C47.3461 47.3391 48.2249 47.4759 49.001 47.5864C50.6816 47.8259 51.6459 48.4617 50.0547 48.2812C49.5293 48.2215 49.1017 48.2555 49.1042 48.3566C49.1166 48.8466 49.9041 49.5024 50.6208 49.6193C51.3073 49.7315 51.4208 49.6903 51.5241 49.292C51.6293 48.8873 52.0595 48.738 52.0203 49.12C52.0117 49.2033 52.0047 49.7883 52.0047 50.4201V51.5687L51.5897 51.151C51.3614 50.9213 51.089 50.7333 50.9842 50.7333C50.8794 50.7333 50.6459 50.6763 50.4654 50.6066C50.0261 50.437 50.0425 50.9086 50.4934 51.4098C50.8622 51.82 49.2351 50.9537 47.4395 49.7839C46.0922 48.9061 46.0025 48.8503 44.1466 47.7388C43.2186 47.1833 42.4593 46.6824 42.4593 46.6258C42.4593 46.5692 42.7395 46.5776 43.0819 46.6442C43.4243 46.7106 43.9744 46.8174 44.3045 46.8813ZM53.6647 47.1574C53.6647 47.3729 53.5226 47.6682 53.3487 47.8134C53.0816 48.0364 53.0549 48.0191 53.1765 47.7002C53.2831 47.4205 53.2493 47.3673 53.0453 47.494C52.8613 47.6087 52.8202 47.5845 52.9208 47.4205C53.0034 47.286 53.1578 47.23 53.2641 47.2963C53.3703 47.3623 53.4572 47.3059 53.4572 47.1707C53.4572 47.0281 53.2834 46.9711 53.042 47.0346C52.8136 47.0947 52.6789 47.0586 52.743 46.9546C52.9638 46.5949 53.6647 46.7491 53.6647 47.1574ZM63.9501 47.3652C63.7803 47.6952 63.7079 48.0366 63.7891 48.1235C63.87 48.2106 63.7324 48.1567 63.483 48.0038C63.0132 47.7158 63.0283 47.3917 63.5114 47.3917C63.6637 47.3917 63.842 47.2507 63.9077 47.0784C63.9733 46.9061 64.0791 46.7651 64.1426 46.7651C64.2063 46.7651 64.1196 47.0352 63.9501 47.3652ZM64.6898 47.2543C64.5628 47.4084 64.528 47.6114 64.6126 47.7054C64.6971 47.7994 64.6452 47.8059 64.4969 47.7198C64.2893 47.5993 64.2833 47.4957 64.4705 47.2687C64.6041 47.1066 64.7602 46.974 64.8172 46.974C64.8743 46.974 64.817 47.1001 64.6898 47.2543ZM67.3754 48.0183C67.4812 48.0183 67.5678 47.9243 67.5678 47.8094C67.5678 47.6945 67.6811 47.6006 67.8197 47.6006C67.9828 47.6006 67.9533 47.7198 67.7358 47.9385C67.3517 48.3251 66.9336 48.1626 66.9693 47.6404C66.9911 47.3219 67.0027 47.3232 67.0882 47.6528C67.1405 47.8537 67.2698 48.0183 67.3754 48.0183ZM72.1288 47.71C71.9844 47.885 71.9273 48.0897 72.0018 48.1647C72.0763 48.2396 72.2765 48.12 72.4469 47.8986C72.7075 47.5598 72.7364 47.554 72.6299 47.8616C72.483 48.2864 72.7633 48.3437 73.1412 47.966C73.3508 47.7568 73.3738 47.7806 73.2578 48.0874C73.1678 48.3255 72.9727 48.4326 72.7403 48.3714C72.5351 48.3175 72.318 48.4023 72.2579 48.56C72.1979 48.7177 72.0109 48.7935 71.8426 48.7284C71.6636 48.6592 71.5893 48.4723 71.6633 48.2781C71.7534 48.0419 71.6994 47.9807 71.4772 48.0665C71.2969 48.1363 71.1645 48.0717 71.1645 47.9138C71.1645 47.7635 71.2797 47.6847 71.4203 47.7392C71.5608 47.7935 71.7376 47.7376 71.813 47.6148C71.8883 47.4922 72.0493 47.3917 72.1705 47.3917C72.3083 47.3917 72.2925 47.5116 72.1288 47.71ZM54.9718 48.2793C53.9963 49.3574 53.8532 50.4585 54.3952 52.7174C54.7212 54.0764 54.8131 56.3385 54.5 55.2949C54.4082 54.9895 53.9542 53.9549 53.4909 52.9958C52.7523 51.467 52.67 51.155 52.8246 50.4658C53.0707 49.3672 53.5419 48.7202 54.4452 48.2401C55.4416 47.7106 55.4838 47.7138 54.9718 48.2793ZM40.1919 48.5686C39.4914 49.4648 39.6161 49.8979 40.5748 49.8979C41.6629 49.8979 42.0443 49.726 42.0443 49.2352C42.0443 48.0051 40.9423 47.6085 40.1919 48.5686ZM47.3343 48.2248C47.4069 48.343 47.3237 48.3781 47.1391 48.3069C46.7797 48.168 46.7139 48.0183 47.0123 48.0183C47.1198 48.0183 47.2646 48.1112 47.3343 48.2248ZM57.5605 48.2793C58.1228 48.9733 58.3038 50.3046 58.0301 51.7317C57.4603 54.702 57.4105 55.2191 57.6194 55.9993C57.7346 56.4304 58.0203 56.8859 58.2542 57.0119C58.6356 57.2174 58.6451 57.266 58.3472 57.4853C58.1646 57.6198 57.4798 57.7203 56.8255 57.7086C55.6606 57.6879 55.6373 57.6758 55.6975 57.123C55.7313 56.8124 55.568 55.4442 55.3344 54.0823C54.6795 50.2626 54.7701 49.507 56.0193 48.3838C56.4937 47.9573 57.2577 47.9055 57.5605 48.2793ZM60.1514 48.5926C60.4521 48.9084 60.8466 49.5251 61.0284 49.9631C61.338 50.7087 61.3301 50.9008 60.9049 52.9898C60.5434 54.7667 60.492 55.4206 60.6517 56.2057C60.8507 57.1842 60.848 57.1921 60.2525 57.3239C59.9228 57.3968 59.6323 57.4239 59.6074 57.3842C59.5825 57.3446 59.309 56.9661 58.9998 56.543C58.3357 55.6347 58.276 54.6844 58.7694 52.8843C59.3164 50.8887 59.321 50.8165 58.9765 49.6245C58.7941 48.993 58.6449 48.3731 58.6449 48.2472C58.6449 47.8036 59.6113 48.0252 60.1514 48.5926ZM67.7315 48.4596C68.0818 48.2708 68.1177 48.3071 68.0309 48.763C67.9589 49.1423 67.8649 49.224 67.6792 49.069C67.54 48.9525 67.3841 48.8992 67.3333 48.9504C67.2824 49.0015 67.1127 48.8363 66.9558 48.5832C66.6993 48.1684 66.7039 48.15 67.0023 48.3982C67.2424 48.5978 67.4435 48.6147 67.7315 48.4596ZM68.9166 48.436C68.846 48.5508 68.6949 48.6448 68.5808 48.6448C68.4667 48.6448 68.431 48.5508 68.5015 48.436C68.5721 48.3211 68.7232 48.2271 68.8373 48.2271C68.9514 48.2271 68.9871 48.3211 68.9166 48.436ZM61.9783 49.1147C62.3502 49.7123 62.3848 50.0059 62.2691 51.5687C62.1968 52.5451 62.1128 54.1429 62.0825 55.1192C62.0404 56.4755 61.9588 56.8945 61.7368 56.8945C61.3448 56.8945 61.317 52.9729 61.7063 52.5811C62.0958 52.189 62.0099 50.3309 61.5556 49.3236C61.0844 48.2789 61.3705 48.1375 61.9783 49.1147ZM41.2958 48.9752C41.4818 49.4629 41.4681 49.4802 40.8958 49.4802C40.4341 49.4802 40.3967 49.4293 40.5918 49.0625C40.859 48.5598 41.1249 48.5268 41.2958 48.9752ZM73.4817 49.4802C73.4112 49.5951 73.2423 49.6876 73.1064 49.6859C72.9578 49.6839 72.9835 49.6018 73.1705 49.4802C73.5691 49.2208 73.6409 49.2208 73.4817 49.4802ZM44.3269 50.1068C44.3269 50.4416 44.1929 50.5218 43.6525 50.5113C43.0628 50.4996 43.0341 50.4752 43.4238 50.3171C43.6689 50.2175 43.9312 50.0356 44.0067 49.9126C44.2142 49.5744 44.3269 49.6429 44.3269 50.1068ZM74.7025 50.6937C74.8851 50.9911 74.3836 52.5806 74.069 52.7022C73.8569 52.7841 73.7957 52.7099 73.865 52.4551C73.9196 52.2548 74.0233 51.7385 74.0955 51.3077C74.2194 50.5686 74.4699 50.3152 74.7025 50.6937ZM65.0777 51.0625C64.3358 51.2204 63.5654 51.4468 63.3657 51.5654C63.0595 51.7473 63.0026 51.6991 63.0026 51.2571C63.0026 50.7386 63.0198 50.7336 64.7145 50.7542L66.4265 50.7753L65.0777 51.0625ZM69.8296 51.2033C69.696 51.4618 69.558 51.707 69.5229 51.7482C69.4878 51.7895 69.1971 51.636 68.8767 51.4071C68.5561 51.1782 68.1073 50.9439 67.879 50.8864C67.6508 50.8288 68.0508 50.7709 68.7682 50.7576C70.0572 50.7335 70.0697 50.7388 69.8296 51.2033ZM71.7179 50.8154C71.7179 50.8605 71.5731 50.9535 71.3959 51.022C71.2112 51.0932 71.128 51.0581 71.2006 50.9399C71.3224 50.7413 71.7179 50.6463 71.7179 50.8154ZM73.378 51.0466C73.378 51.2189 73.3412 51.3599 73.2964 51.3599C73.2516 51.3599 73.1611 51.2189 73.0954 51.0466C73.0298 50.8743 73.0665 50.7333 73.1769 50.7333C73.2875 50.7333 73.378 50.8743 73.378 51.0466ZM38.3957 51.4614C38.1121 51.8971 38.0884 52.1045 38.2754 52.5171C38.4032 52.7995 38.6593 53.0307 38.8444 53.0307C39.288 53.0307 40.6524 51.6481 40.542 51.3102C40.4945 51.1652 40.0718 51.018 39.6022 50.9829C38.8761 50.9288 38.696 51.0003 38.3957 51.4614ZM72.3404 51.3325C72.3404 51.1943 72.3774 51.1206 72.4224 51.1684C72.4674 51.2164 72.4313 51.6314 72.3425 52.0909C72.1829 52.9142 72.1802 52.9163 72.1568 52.2352C72.1421 51.8064 72.0495 51.5959 71.9132 51.6807C71.7922 51.7559 71.7223 52.0587 71.7576 52.3536C71.7982 52.6938 71.708 52.9215 71.5104 52.9762C71.2539 53.0474 71.2496 53.027 71.4859 52.8605C71.7156 52.6988 71.6847 52.6306 71.3303 52.5174C70.8825 52.3743 70.7028 51.7776 71.1076 51.7776C71.2284 51.7776 71.2736 51.8651 71.2081 51.972C71.1423 52.079 71.1836 52.2254 71.2996 52.2976C71.4156 52.3697 71.5104 52.3369 71.5104 52.2248C71.5104 52.1124 71.5729 51.8565 71.6494 51.6561C71.7517 51.3879 71.7158 51.3365 71.5135 51.4622C71.3305 51.5763 71.2884 51.5527 71.3871 51.3916C71.4932 51.2189 71.6507 51.2118 71.9381 51.3666C72.2325 51.5253 72.3404 51.5161 72.3404 51.3325ZM158.434 51.3599C158.206 51.4938 157.977 52.2713 157.712 53.8074C157.338 55.9764 157.318 56.0244 157.179 55.1192C157.099 54.6023 157.027 53.7511 157.019 53.2272C157.01 52.7037 156.87 52.0928 156.707 51.8697C156.415 51.4721 156.406 51.4731 156.24 51.9213C156.063 52.3954 156.482 64.6891 156.682 64.8896C156.744 64.952 157.038 64.8917 157.335 64.7551C157.869 64.5103 157.874 64.4873 157.737 62.8938C157.341 58.2838 157.666 57.666 158.675 61.1116C159.485 63.8793 159.876 64.5602 160.404 64.1197C160.899 63.7064 160.838 63.3278 159.701 59.734C159.131 57.9302 158.666 56.1775 158.668 55.839C158.671 55.5006 158.857 54.3826 159.083 53.3546C159.309 52.3267 159.494 51.4102 159.494 51.3183C159.494 51.0924 158.846 51.1176 158.434 51.3599ZM70.5766 51.9865C70.4988 52.2335 70.3882 52.3887 70.3311 52.3313C70.2741 52.2738 70.2913 52.0247 70.3691 51.7776C70.4469 51.5305 70.5575 51.3754 70.6146 51.4328C70.6717 51.4902 70.6544 51.7394 70.5766 51.9865ZM161.395 51.6329C161.217 51.8482 161.19 53.5735 161.291 58.2211C161.446 65.3302 161.255 64.7279 163.213 64.2728C164.219 64.0391 164.266 63.9971 164.266 63.333C164.266 62.6778 164.225 62.6379 163.54 62.6379H162.814V61.3119C162.814 60.5826 162.753 59.2668 162.68 58.388L162.545 56.7901H163.173C163.891 56.7901 164.334 56.374 164.144 55.8768C164.059 55.6539 163.768 55.5369 163.3 55.5369H162.586L162.648 54.3373C162.708 53.1851 162.735 53.1335 163.333 53.0311C163.856 52.9413 163.965 52.8169 164.02 52.2467C164.085 51.5731 164.079 51.5687 163.155 51.5687C162.644 51.5687 162.092 51.5176 161.93 51.4547C161.768 51.3921 161.527 51.4723 161.395 51.6329ZM39.6516 51.7672C39.7746 51.9675 38.9736 52.5159 38.8053 52.3465C38.7553 52.2962 38.7734 52.1007 38.8452 51.9119C38.9884 51.5366 39.4582 51.4522 39.6516 51.7672ZM65.1933 52.033C65.0088 52.2981 64.8666 52.9474 64.8619 53.5472C64.8536 54.5933 64.8525 54.595 64.546 54.0269C64.2732 53.5205 64.275 53.3693 64.5624 52.6767C64.8361 52.0176 65.1843 51.5855 65.4526 51.5719C65.4875 51.5702 65.3709 51.7776 65.1933 52.033ZM67.3136 51.8943C66.6051 52.2814 66.3227 52.8022 66.3227 53.7218C66.3227 54.7222 66.0988 55.7458 65.8799 55.7458C65.7124 55.7458 65.8019 54.0017 66.027 52.8799C66.1501 52.2667 66.9156 51.5667 67.4513 51.5771C67.8244 51.5844 67.807 51.6247 67.3136 51.8943ZM72.8972 52.0257C72.831 52.1922 72.7818 52.1427 72.7719 51.8994C72.7629 51.6792 72.8119 51.556 72.8808 51.6253C72.9497 51.6947 72.9572 51.8749 72.8972 52.0257ZM52.1412 52.5451C51.9271 52.7607 51.6102 52.3845 51.7335 52.0614C51.8455 51.7672 51.88 51.7695 52.0547 52.0838C52.1622 52.2772 52.2012 52.4848 52.1412 52.5451ZM165.642 57.8865C165.323 61.2463 165.013 64.1703 164.954 64.3839C164.854 64.7442 164.942 64.7613 166.165 64.621C167.664 64.4489 168.107 64.2636 168.418 63.6784C168.539 63.452 168.914 61.9544 169.252 60.3504C169.977 56.9053 170.258 53.5537 169.881 52.8442C169.546 52.2149 168.456 51.7776 167.222 51.7776H166.222L165.642 57.8865ZM46.4968 52.3519C46.5516 52.4956 46.7832 52.613 47.0114 52.613C47.2849 52.613 47.3879 52.7143 47.3134 52.9098C47.2204 53.1537 47.0724 53.1308 46.4829 52.7807C46.0013 52.4946 45.5697 52.3941 45.1688 52.475C44.7469 52.5598 44.5367 52.5027 44.452 52.2803C44.3533 52.0213 44.5147 51.9768 45.3647 52.0282C45.9478 52.0637 46.4406 52.2045 46.4968 52.3519ZM63.9053 54.2838C63.9963 54.4561 63.9239 54.4146 63.7442 54.1917C63.5525 53.9536 63.429 53.4363 63.4454 52.9386L63.473 52.0909L63.6064 53.0307C63.6797 53.5476 63.8142 54.1115 63.9053 54.2838ZM151.712 52.2979C151.598 52.3363 151.258 52.4221 150.957 52.4885C150.655 52.555 150.349 52.7659 150.277 52.957C150.123 53.3599 150.883 62.431 151.204 64.0241C151.327 64.6343 151.608 65.2647 151.856 65.486L152.291 65.8751L152.151 62.8002L152.01 59.7253L152.768 59.4064C153.185 59.2309 153.609 59.0874 153.709 59.0874C153.809 59.0874 153.892 59.6277 153.892 60.2883C153.893 60.9489 153.953 62.2645 154.027 63.2123C154.138 64.6544 154.218 64.9353 154.519 64.9353C155.327 64.9353 155.392 64.5076 155.146 60.819C154.791 55.5006 154.517 53.1834 154.184 52.6652C153.937 52.2822 153.7 52.1984 152.9 52.2118C152.361 52.2208 151.826 52.2596 151.712 52.2979ZM49.8259 52.613C49.8964 52.7279 49.8607 52.8219 49.7466 52.8219C49.6325 52.8219 49.4814 52.7279 49.4108 52.613C49.3403 52.4981 49.376 52.4042 49.4901 52.4042C49.6042 52.4042 49.7553 52.4981 49.8259 52.613ZM68.7647 53.2135C68.3951 53.4002 67.8828 53.9288 67.6263 54.3883C67.2746 55.0179 67.1588 55.1157 67.1561 54.7849C67.149 53.8609 67.6176 52.9896 68.27 52.7133C68.7225 52.522 68.9946 52.5048 69.1766 52.6569C69.3741 52.8219 69.2751 52.9557 68.7647 53.2135ZM43.4672 53.0077C43.6635 53.1331 43.6791 53.2306 43.5191 53.3302C43.3927 53.4087 43.2894 53.6032 43.2894 53.7623C43.2894 53.9887 43.4971 53.9591 44.2476 53.6249C45.1858 53.2072 45.2233 53.2064 46.0471 53.5802C46.5099 53.7901 47.2123 54.2694 47.608 54.6449C48.6734 55.6564 49.1044 55.5039 48.2544 54.4165C47.7487 53.7694 47.7551 53.7676 49.0404 54.2005C50.4847 54.6867 50.9672 55.2111 50.9672 56.2947C50.9672 57.148 50.9267 57.2063 50.0666 57.5891C48.9504 58.086 48.2696 59.1181 48.2696 60.313C48.2696 60.7877 48.1743 61.176 48.0581 61.176C47.9359 61.176 47.9018 60.9546 47.9776 60.6511C48.1278 60.0484 47.7732 59.5051 47.2297 59.5051C46.9706 59.5051 46.8205 59.276 46.7174 58.7224C46.5506 57.8276 46.3329 57.6332 45.4929 57.6286C44.9252 57.6257 44.9011 57.6622 45.0129 58.3565C45.102 58.9078 45.0575 59.0874 44.8326 59.0874C44.6687 59.0874 44.5344 59.0143 44.5344 58.9252C44.5344 58.8358 44.2595 58.4598 43.9235 58.0897C43.3906 57.5025 43.1798 57.4166 42.2705 57.4166C40.8009 57.4166 39.7617 56.8834 39.7617 56.129C39.7617 55.2337 40.3699 53.9048 40.9786 53.4701C41.8101 52.8764 42.9337 52.6677 43.4672 53.0077ZM51.6758 53.4361C52.9279 54.3033 53.9318 55.5019 53.7608 55.9252C53.6847 56.1138 53.5307 56.5225 53.4186 56.8337C53.1835 57.4874 52.4581 57.8136 52.1894 57.3868C52.0914 57.2309 52.0097 56.7999 52.0078 56.4287C52.0028 55.3479 51.4166 54.1253 50.7642 53.8346C50.2733 53.6159 50.2199 53.518 50.4179 53.1991C50.5467 52.9917 50.6827 52.8219 50.7202 52.8219C50.7578 52.8219 51.1877 53.0984 51.6758 53.4361ZM76.6981 52.9039C76.6981 52.9491 76.5533 53.042 76.376 53.1105C76.1914 53.1817 76.1082 53.1466 76.1808 53.0284C76.3026 52.8298 76.6981 52.7348 76.6981 52.9039ZM168.504 53.2918C168.758 53.684 168.778 54.2053 168.619 56.4463C168.322 60.6486 167.698 63.277 167.001 63.2614C166.306 63.2455 166.298 62.9364 166.871 58.1232C167.512 52.7454 167.73 52.0984 168.504 53.2918ZM63.5361 54.8014C63.8841 55.5998 63.7031 55.7826 63.1923 55.1483C62.9542 54.853 62.8007 54.3507 62.8092 53.8952C62.8227 53.1665 62.8322 53.1567 63.0441 53.6573C63.1655 53.9444 63.3869 54.4593 63.5361 54.8014ZM65.4474 54.7015C65.4439 55.1706 65.4275 55.16 65.2852 54.5971C65.198 54.2525 65.125 53.7826 65.1229 53.5528C65.1198 53.2256 65.1551 53.2481 65.2852 53.6573C65.3765 53.9444 65.4495 54.4144 65.4474 54.7015ZM66.8867 54.6464C66.839 54.9639 66.7987 54.7537 66.7971 54.1794C66.7956 53.6051 66.8346 53.3452 66.8838 53.6021C66.933 53.859 66.9342 54.3289 66.8867 54.6464ZM75.5568 53.4484C75.4863 53.5633 75.224 53.6506 74.9739 53.6427C74.5357 53.6285 74.5342 53.6216 74.9343 53.4484C75.5053 53.2014 75.7085 53.2014 75.5568 53.4484ZM146.474 53.4432C144.915 53.8156 144.892 54.1078 145.867 61.0715L146.539 65.8751L147.321 65.9407C148.361 66.0278 149.908 65.2747 150.19 64.5439C150.488 63.7707 150.251 62.0976 149.679 60.9339C149.326 60.2161 149.248 59.847 149.393 59.5856C149.643 59.1369 149.595 57.1121 149.294 55.3544C148.955 53.3728 148.385 52.9864 146.474 53.4432ZM70.9916 53.6573C71.0622 53.7721 71.0209 53.8661 70.9001 53.8661C70.7794 53.8661 70.6804 53.7721 70.6804 53.6573C70.6804 53.5424 70.7215 53.4484 70.7719 53.4484C70.8223 53.4484 70.9211 53.5424 70.9916 53.6573ZM77.4026 53.6928C77.2982 53.8628 77.3715 53.8912 77.6433 53.7861C77.8583 53.7032 77.9653 53.7045 77.8811 53.7893C77.6124 54.0599 76.2831 54.4507 76.2831 54.2592C76.2831 54.1579 76.4117 54.075 76.569 54.075C76.7261 54.075 76.971 53.934 77.1131 53.7617C77.419 53.3908 77.6169 53.3436 77.4026 53.6928ZM152.739 53.6399C152.804 53.7454 152.986 54.5677 153.145 55.4674C153.303 56.3671 153.466 57.2362 153.506 57.3982C153.555 57.595 153.31 57.7527 152.77 57.8715C152.325 57.9695 151.925 58.0135 151.881 57.9692C151.729 57.8162 151.373 54.0301 151.484 53.74C151.608 53.4156 152.555 53.3402 152.739 53.6399ZM74.5155 54.0361C74.5807 54.2072 74.7755 54.2757 74.9878 54.2022C75.1866 54.1337 75.0382 54.3484 74.6583 54.6798C74.1723 55.1032 74.0491 55.3183 74.2433 55.4041C74.395 55.4714 74.3246 55.5054 74.0866 55.4799C73.8465 55.454 73.4311 55.67 73.1528 55.9653C72.8773 56.2579 72.7671 56.3456 72.9082 56.1604C73.0837 55.9302 73.0974 55.7558 72.9518 55.6092C72.8063 55.4628 72.8706 55.2358 73.1553 54.8916C73.3842 54.6149 73.5747 54.4655 73.5786 54.5597C73.5824 54.6541 73.4411 54.8768 73.2643 55.0545C72.8405 55.4812 73.0192 55.6355 73.5504 55.3016C74.1769 54.9079 74.4761 54.1431 74.0657 53.9845C73.7276 53.854 73.3307 54.0938 72.7061 54.806C72.3473 55.2151 72.3452 55.2128 72.6007 54.7015C72.744 54.4144 72.937 54.061 73.0296 53.916C73.2497 53.5712 74.373 53.6621 74.5155 54.0361ZM68.294 54.4927C68.117 54.8373 67.9255 55.1192 67.8684 55.1192C67.8114 55.1192 67.9095 54.8373 68.0865 54.4927C68.2635 54.1481 68.4551 53.8661 68.5121 53.8661C68.5692 53.8661 68.471 54.1481 68.294 54.4927ZM69.8503 54.0695C69.8503 54.1815 69.5702 54.419 69.2278 54.5971C68.535 54.9578 68.4293 54.8258 68.9487 54.2481C69.316 53.8396 69.8503 53.7339 69.8503 54.0695ZM76.7875 54.7249C76.5977 55.034 77.1397 55.3571 77.4347 55.1107C77.5871 54.9833 77.6665 55.02 77.6665 55.2178C77.6665 55.3832 77.5727 55.4603 77.4582 55.3891C77.3304 55.3095 77.3063 55.4073 77.3962 55.6426C77.502 55.9204 77.3924 55.8751 76.9979 55.478C76.5394 55.0165 76.4481 54.4927 76.8263 54.4927C76.8834 54.4927 76.866 54.5971 76.7875 54.7249ZM148.042 56.2266C148.414 58.2539 148.382 58.4412 147.614 58.7671C146.775 59.1227 146.74 59.0496 146.535 56.5476C146.399 54.8962 146.42 54.7312 146.767 54.6522C147.493 54.4868 147.791 54.8546 148.042 56.2266ZM72.2695 55.5969C72.604 55.4829 72.8167 55.892 72.5193 56.0768C72.3676 56.1712 72.3319 56.1376 72.4245 55.987C72.5058 55.8544 72.4791 55.7458 72.3649 55.7458C72.2508 55.7458 72.0997 55.8398 72.0292 55.9547C71.9586 56.0695 71.7897 56.156 71.6538 56.147C71.4753 56.1351 71.4726 56.1034 71.644 56.0326C71.9171 55.9198 71.7681 55.1192 71.4739 55.1192C71.3664 55.1192 71.3483 55.0052 71.434 54.8659C71.5395 54.6942 71.6606 54.7845 71.8094 55.1456C71.9302 55.4388 72.1373 55.6418 72.2695 55.5969ZM76.2003 55.4227C76.1275 55.7153 75.9843 55.9547 75.8822 55.9547C75.7801 55.9547 75.801 55.6763 75.9287 55.336C76.2034 54.6032 76.3897 54.6627 76.2003 55.4227ZM71.0576 55.8502C70.9277 56.1374 70.7408 56.3724 70.6422 56.3724C70.5438 56.3724 70.6163 56.1374 70.8032 55.8502C70.9902 55.5631 71.1771 55.3281 71.2187 55.3281C71.2602 55.3281 71.1877 55.5631 71.0576 55.8502ZM138.738 56.5591C135.025 57.8692 134.596 58.0578 134.18 58.5628C133.973 58.8132 133.964 58.9559 134.142 59.1355C134.321 59.3151 135.426 59.0208 138.585 57.9532C142.711 56.558 143.922 55.925 143.265 55.5058C142.785 55.1994 142.217 55.3316 138.738 56.5591ZM63.7264 56.3371C63.6025 56.4674 62.7951 55.94 62.7951 55.7287C62.7951 55.6126 63.0194 55.6863 63.2935 55.8926C63.5676 56.099 63.7625 56.299 63.7264 56.3371ZM75.453 55.6291C75.453 55.6798 75.3597 55.7792 75.2455 55.8502C75.1314 55.9212 75.038 55.8797 75.038 55.7581C75.038 55.6366 75.1314 55.5369 75.2455 55.5369C75.3597 55.5369 75.453 55.5783 75.453 55.6291ZM66.7159 56.831C66.5838 57.0795 66.4288 57.1735 66.3524 57.0513C66.2789 56.9342 66.0322 56.7915 65.8039 56.7341C65.4188 56.6372 65.4217 56.628 65.8436 56.6054C66.0936 56.5921 66.357 56.4858 66.4285 56.369C66.6807 55.9584 66.95 56.3909 66.7159 56.831ZM69.8476 56.4768C69.8342 56.5917 69.6659 56.6543 69.4735 56.6159C69.1923 56.5599 69.1747 56.5988 69.3835 56.8143C69.5262 56.9617 69.6428 57.1929 69.6428 57.3279C69.6428 57.6629 68.6553 57.6403 68.5264 57.3024C68.4694 57.1526 68.2447 57.0783 68.0241 57.1363C67.7336 57.2128 67.5916 57.109 67.5028 56.7548C67.3926 56.3145 67.4069 56.3028 67.6528 56.6334C67.8025 56.8343 67.9946 56.9989 68.0797 56.9989C68.165 56.9989 68.1799 56.8343 68.1131 56.6334C68.0336 56.3949 68.1069 56.4313 68.3237 56.7378C68.642 57.1881 69.5982 57.4331 69.3295 56.9956C69.2577 56.8788 69.1029 56.8431 68.9852 56.9162C68.8595 56.9945 68.8711 56.8619 69.0137 56.5937C69.2494 56.1501 69.8968 56.0595 69.8476 56.4768ZM71.7179 56.5971C71.7179 56.6959 71.5779 56.7228 71.4067 56.6568C71.2355 56.5906 71.0954 56.4555 71.0954 56.3565C71.0954 56.2577 71.2355 56.2308 71.4067 56.2968C71.5779 56.363 71.7179 56.4981 71.7179 56.5971ZM73.5855 56.2356C73.5855 56.2752 73.3755 56.4866 73.1186 56.7055L72.6517 57.1033L73.047 56.6334C73.4184 56.1919 73.5855 56.0685 73.5855 56.2356ZM75.8882 56.779C75.4454 56.8515 75.13 57.0447 75.0424 57.2969C74.9181 57.656 74.8886 57.6616 74.7695 57.3492C74.5761 56.8416 74.2277 56.9193 74.0005 57.521C73.892 57.8082 73.6843 58.0417 73.5388 58.04C73.3481 58.0377 73.3574 57.9837 73.5722 57.8471C73.8254 57.6858 73.8272 57.6054 73.5855 57.3122C73.3437 57.019 73.3456 56.9383 73.5988 56.7763C73.7627 56.6714 73.9986 56.623 74.1231 56.6685C74.2476 56.714 74.4535 56.6867 74.5805 56.6077C74.7075 56.5286 75.2128 56.5087 75.7029 56.5637L76.5943 56.6635L75.8882 56.779ZM74.7268 56.7901C74.6562 56.9049 74.6975 56.9989 74.8183 56.9989C74.9391 56.9989 75.038 56.9049 75.038 56.7901C75.038 56.6752 74.9969 56.5812 74.9465 56.5812C74.8961 56.5812 74.7973 56.6752 74.7268 56.7901ZM54.751 57.3018C54.8096 57.6096 54.7392 57.8554 54.5745 57.9191C54.1966 58.0651 54.0955 57.8178 54.3049 57.26C54.5309 56.6581 54.6307 56.6673 54.751 57.3018ZM65.2101 57.1033C65.0648 57.4843 65.3086 57.511 65.6892 57.1556C65.9164 56.9431 65.9357 56.953 65.7923 57.2078C65.6952 57.3801 65.3889 57.7023 65.1115 57.9237L64.6068 58.3264L65.0499 58.4914C65.5387 58.6735 65.624 58.9811 65.2499 59.2138C65.0866 59.3153 65.0505 59.251 65.1397 59.0173C65.2346 58.7685 65.1605 58.6697 64.8789 58.6697C64.6627 58.6697 64.4429 58.8343 64.3906 59.0352C64.313 59.3343 64.2914 59.3226 64.2717 58.9703C64.2584 58.7334 64.4381 58.3339 64.6707 58.0826C65.121 57.596 64.761 57.4012 64.2891 57.8761C64.1522 58.0139 64.0416 58.0373 64.0432 57.9283C64.0486 57.5962 64.334 57.3122 64.6627 57.3122C64.8338 57.3122 64.9505 57.1948 64.922 57.0511C64.8936 56.9076 64.9735 56.7901 65.0999 56.7901C65.2262 56.7901 65.2758 56.931 65.2101 57.1033ZM67.3603 56.869C67.3603 56.9122 67.1967 57.0768 66.9971 57.2345C66.668 57.4941 66.6608 57.4868 66.9187 57.1556C67.1899 56.8076 67.3603 56.6971 67.3603 56.869ZM70.337 57.1123C70.2693 57.2896 70.1695 57.3899 70.1151 57.3352C70.0608 57.2804 70.0778 57.1353 70.1531 57.0129C70.3577 56.6796 70.4772 56.7443 70.337 57.1123ZM39.6312 57.317C39.73 57.5766 39.6769 57.5944 39.3419 57.4141C38.8609 57.1549 38.8155 56.9989 39.2208 56.9989C39.3797 56.9989 39.5644 57.142 39.6312 57.317ZM71.4067 57.2078C71.4772 57.3226 71.4359 57.4166 71.3151 57.4166C71.1944 57.4166 71.0954 57.3226 71.0954 57.2078C71.0954 57.0929 71.1365 56.9989 71.1869 56.9989C71.2373 56.9989 71.3361 57.0929 71.4067 57.2078ZM72.366 57.6409C72.4454 57.9277 72.5156 57.9987 72.5272 57.8045C72.5386 57.6157 72.6965 57.4039 72.8779 57.3339C73.2576 57.1873 73.7212 57.4035 73.4473 57.5994C73.3469 57.6712 73.1103 57.9745 72.9217 58.2733C72.6695 58.6729 72.4234 58.8059 71.9927 58.7758C71.0535 58.7105 71.0441 58.6942 71.6478 58.1716C72.1661 57.7228 72.1929 57.6365 71.9188 57.3022C71.6509 56.9757 71.6511 56.9431 71.9196 57.0327C72.0877 57.0885 72.2886 57.3623 72.366 57.6409ZM63.3035 57.3989C63.1952 57.5041 62.8739 57.6215 62.5897 57.6599C62.2674 57.7036 62.0458 57.887 62.0003 58.1476C61.9296 58.5553 61.935 58.5557 62.2261 58.1679C62.3977 57.9396 62.6301 57.8362 62.7727 57.9248C62.9092 58.0098 63.18 57.9536 63.3749 57.8001C63.6957 57.5471 63.7015 57.5561 63.4363 57.8961C63.2748 58.1029 63.0032 58.2167 62.8304 58.1501C62.6579 58.0835 62.4469 58.1432 62.3614 58.2825C62.2757 58.422 61.919 58.5496 61.5685 58.5661C61.2182 58.5826 60.9852 58.5421 61.0506 58.4763C61.1161 58.4103 61.2707 58.3565 61.3944 58.3565C61.7903 58.3565 61.8071 57.835 61.4116 57.8176C61.2025 57.8082 61.4515 57.6796 61.9651 57.5315C63.1491 57.1902 63.5608 57.1493 63.3035 57.3989ZM40.9234 57.902C41.261 57.7717 41.2516 57.8251 40.846 58.3443C40.5422 58.733 40.3843 59.2228 40.3843 59.7771C40.3843 60.2401 40.3143 60.5484 40.2286 60.4617C39.9618 60.1921 40.0379 57.6324 40.306 57.856C40.4343 57.963 40.7121 57.9837 40.9234 57.902ZM70.7576 57.9442C70.8128 58.0893 70.6252 58.1409 70.2461 58.0849C69.9165 58.0363 69.686 57.9331 69.7335 57.8556C69.8738 57.6271 70.6625 57.6952 70.7576 57.9442ZM51.2932 58.252C51.2932 58.4818 51.1786 58.6697 51.0387 58.6697C50.6046 58.6697 50.5245 58.2888 50.9109 58.0624C51.113 57.944 51.2817 57.8441 51.2859 57.8406C51.2898 57.8372 51.2932 58.0223 51.2932 58.252ZM60.9275 57.9133C60.9275 57.9565 60.764 58.1211 60.5644 58.2788C60.2353 58.5384 60.228 58.5311 60.4859 58.1998C60.7572 57.8519 60.9275 57.7414 60.9275 57.9133ZM66.9037 58.0849C67.2357 58.4191 67.2187 58.6697 66.8637 58.6697C66.4267 58.6697 66.263 59.2913 66.6923 59.3205C67.0224 59.3429 67.022 59.3518 66.6859 59.4402C66.4862 59.4928 66.3227 59.6119 66.3227 59.705C66.3227 60.0154 65.5228 60.0943 65.4089 59.7952C65.3138 59.5463 65.4914 59.4297 65.9129 59.4648C65.9726 59.4696 66.1785 59.199 66.37 58.8629C66.6329 58.402 66.6522 58.252 66.4485 58.252C66.3001 58.252 66.0772 58.4634 65.9534 58.7219C65.8297 58.9805 65.722 59.0682 65.7143 58.917C65.6923 58.4882 66.1017 57.8343 66.3922 57.8343C66.5367 57.8343 66.7668 57.9471 66.9037 58.0849ZM68.9684 57.9782C68.7688 58.0309 68.6053 58.1766 68.6053 58.3022C68.6053 58.4277 68.5493 58.474 68.4808 58.4051C68.2735 58.1965 68.6063 57.8327 68.9807 57.8586C69.2971 57.8805 69.2959 57.8922 68.9684 57.9782ZM75.5114 58.3642C75.0752 58.6852 74.9826 58.6403 75.154 58.1906C75.2233 58.0089 75.4147 57.9129 75.58 57.9766C75.8278 58.0722 75.8158 58.1401 75.5114 58.3642ZM43.3944 58.4621C43.6015 58.6927 43.7316 58.9208 43.6834 58.9692C43.6353 59.0177 43.394 58.8293 43.147 58.5503C42.9003 58.2715 42.7702 58.0432 42.858 58.0432C42.9457 58.0432 43.1871 58.2318 43.3944 58.4621ZM68.1903 58.252C68.1903 58.3669 68.0969 58.4609 67.9828 58.4609C67.8686 58.4609 67.7753 58.3669 67.7753 58.252C67.7753 58.1372 67.8686 58.0432 67.9828 58.0432C68.0969 58.0432 68.1903 58.1372 68.1903 58.252ZM71.7179 58.3565C71.5063 58.6131 71.5206 58.6697 71.7963 58.6697C71.9814 58.6697 72.1344 58.5524 72.136 58.4087C72.1385 58.2165 72.1865 58.2224 72.3176 58.431C72.4274 58.6052 72.5455 58.6338 72.6245 58.5052C72.6953 58.3899 72.6058 58.2389 72.4259 58.1695C71.9937 58.0025 72.0142 57.997 71.7179 58.3565ZM74.8305 58.1353C74.8305 58.186 74.7372 58.2854 74.623 58.3565C74.5089 58.4275 74.4155 58.3859 74.4155 58.2643C74.4155 58.1428 74.5089 58.0432 74.623 58.0432C74.7372 58.0432 74.8305 58.0845 74.8305 58.1353ZM46.3875 59.3485C46.3953 59.5494 46.3086 59.714 46.1945 59.714C46.0803 59.714 45.9936 59.3617 46.0015 58.9308C46.0133 58.3026 46.0515 58.2303 46.1945 58.5653C46.2926 58.795 46.3794 59.1476 46.3875 59.3485ZM69.5028 58.3895C69.6599 58.5476 69.267 59.0874 68.995 59.0874C68.8948 59.0874 68.8128 58.9935 68.8128 58.8786C68.8128 58.7637 68.8827 58.6808 68.9684 58.6944C69.3783 58.7595 69.5078 58.643 69.2278 58.4609C69.0566 58.3496 69.0178 58.257 69.1413 58.2552C69.265 58.2535 69.4277 58.3138 69.5028 58.3895ZM50.5032 58.8917C50.5694 59.1386 50.5488 59.1417 50.3863 58.9085C50.2483 58.7105 50.1463 58.6948 50.0471 58.8562C49.969 58.9834 49.8136 59.0874 49.7018 59.0874C49.5897 59.0874 49.6186 58.9502 49.7659 58.7827C50.0805 58.4243 50.3899 58.4701 50.5032 58.8917ZM53.2529 58.7568C53.2547 58.8811 53.3466 58.842 53.4572 58.6697C53.6276 58.4045 53.6589 58.4145 53.6616 58.7359C53.6639 59.021 53.5614 59.0826 53.2497 58.983C52.7673 58.8289 52.6706 59.246 53.146 59.4295C53.3172 59.4957 53.4572 59.6371 53.4572 59.7437C53.4572 59.855 53.2861 59.8454 53.0549 59.7207C52.6357 59.4949 52.2859 59.7447 52.51 60.1098C52.5733 60.2127 52.4793 60.3531 52.3012 60.4218C52.0452 60.5206 52.0078 60.4489 52.1228 60.0782C52.2027 59.8205 52.3535 59.5542 52.4581 59.4863C52.5625 59.4187 52.6621 59.1758 52.6791 58.9469C52.7108 58.5223 53.247 58.3448 53.2529 58.7568ZM57.0807 59.1461C57.1787 59.0565 57.1889 59.105 57.1034 59.2543C56.9776 59.4736 56.882 59.4749 56.6033 59.2612C56.4136 59.1156 56.2258 58.9765 56.186 58.9515C56.1459 58.9266 56.1826 58.7934 56.2673 58.6553C56.3748 58.4805 56.4945 58.5417 56.662 58.8569C56.7944 59.1058 56.9828 59.2359 57.0807 59.1461ZM57.6074 58.6697C57.6074 58.7846 57.5084 58.8786 57.3876 58.8786C57.2669 58.8786 57.2256 58.7846 57.2961 58.6697C57.3667 58.5549 57.4655 58.4609 57.5159 58.4609C57.5663 58.4609 57.6074 58.5549 57.6074 58.6697ZM62.9408 58.8015C62.737 59.0066 61.5478 59.2602 61.6621 59.0741C61.7281 58.9665 61.9632 58.8786 62.1848 58.8786C62.4064 58.8786 62.5876 58.779 62.5876 58.6574C62.5876 58.5359 62.6872 58.4983 62.809 58.5739C62.9306 58.6497 62.9899 58.752 62.9408 58.8015ZM75.9718 58.6697C75.9013 58.7846 75.7324 58.8771 75.5964 58.8755C75.4479 58.8734 75.4736 58.7913 75.6606 58.6697C76.0592 58.4103 76.131 58.4103 75.9718 58.6697ZM36.2341 58.8786C36.2341 58.9935 36.1351 59.0874 36.0144 59.0874C35.8936 59.0874 35.8523 58.9935 35.9229 58.8786C35.9934 58.7637 36.0922 58.6697 36.1426 58.6697C36.193 58.6697 36.2341 58.7637 36.2341 58.8786ZM42.3712 58.8567C42.1514 58.9433 41.9011 59.1952 41.815 59.4164C41.6691 59.7911 41.6575 59.7875 41.6438 59.3658C41.6293 58.911 41.8827 58.7042 42.4593 58.7008C42.6565 58.6998 42.6239 58.7568 42.3712 58.8567ZM67.8161 59.4667C67.3978 59.86 67.0836 60.0074 66.9056 59.8938C66.6991 59.762 66.7178 59.7196 66.9832 59.7171C67.1752 59.7155 67.3897 59.5321 67.4599 59.3097C67.5715 58.9554 68.1484 58.6382 68.3743 58.8065C68.4185 58.8393 68.1673 59.1365 67.8161 59.4667ZM140.869 58.9107C140.591 59.1906 140.506 62.2685 140.743 63.4625C140.862 64.0588 140.934 64.116 141.418 63.9944C142.577 63.7033 142.704 63.3902 142.64 60.9809L142.582 58.7742L141.855 58.7123C141.455 58.6785 141.011 58.7677 140.869 58.9107ZM41.356 59.3356C41.2898 59.502 41.2407 59.4525 41.2307 59.2092C41.2218 58.9891 41.2707 58.8658 41.3396 58.9352C41.4085 59.0045 41.416 59.1848 41.356 59.3356ZM51.5108 59.0666C51.7503 58.8667 51.7818 58.8849 51.676 59.1624C51.604 59.3508 51.4488 59.5051 51.3309 59.5051C51.213 59.5051 51.0043 59.6599 50.8669 59.8489C50.6407 60.1603 50.6198 60.1551 50.6464 59.7932C50.6881 59.2221 51.0176 58.7178 51.129 59.0542C51.1956 59.2549 51.2819 59.2577 51.5108 59.0666ZM55.4518 59.4648C55.4647 59.7107 55.3987 59.8644 55.3053 59.8063C55.2119 59.7482 55.1928 59.5498 55.2632 59.3656C55.351 59.1353 55.2995 59.0638 55.0984 59.1374C54.9376 59.196 54.8326 59.3596 54.865 59.5005C54.8976 59.6415 54.7488 59.9118 54.5344 60.101C54.3201 60.2902 54.1839 60.586 54.2319 60.7583C54.3043 61.0187 54.2848 61.0225 54.1165 60.7802C53.9515 60.5425 53.8957 60.5617 53.8135 60.8846C53.7324 61.2037 53.7083 61.2125 53.6888 60.9297C53.6755 60.737 53.789 60.4542 53.9407 60.3015C54.0926 60.1486 54.1812 59.9157 54.1375 59.7838C54.0455 59.5064 54.9032 58.8416 55.2171 58.9469C55.3335 58.9857 55.4389 59.2188 55.4518 59.4648ZM58.9616 59.4947C58.5626 60.2712 58.5636 60.4166 58.967 60.2608C59.1442 60.1925 59.2376 60.22 59.1749 60.3224C59.112 60.4247 58.7593 60.6141 58.3907 60.7434C57.8861 60.9203 57.7794 60.9193 57.9591 60.7384C58.0903 60.6064 58.1421 60.3535 58.0747 60.1764C57.9975 59.9742 58.0369 59.9072 58.1803 59.9964C58.5223 60.2092 58.7433 59.6998 58.4121 59.4621C58.199 59.309 58.2318 59.2886 58.5412 59.3815C58.95 59.5043 58.9502 59.5016 58.5534 59.1923C58.1662 58.8907 58.1724 58.8786 58.7144 58.8786C59.2718 58.8786 59.2745 58.8855 58.9616 59.4947ZM61.2616 59.3834C61.1888 59.6754 61.2328 59.9208 61.3656 59.9655C61.5029 60.0114 61.4448 60.1657 61.2218 60.3483C60.9964 60.5323 60.9099 60.55 61.0037 60.3928C61.0998 60.2317 61.0439 60.1317 60.8582 60.1317C60.6048 60.1317 60.305 59.7226 60.305 59.3769C60.305 59.299 61.0562 58.9375 61.3131 58.8917C61.3542 58.8846 61.3309 59.1058 61.2616 59.3834ZM71.3506 59.3485C71.9628 60.2982 71.1081 61.3677 69.9186 61.1405C69.6383 61.0868 69.5229 60.846 69.477 60.2186C69.4249 59.5058 69.4918 59.332 69.8921 59.138C70.63 58.7804 71.0207 58.8368 71.3506 59.3485ZM75.204 59.1292C75.6317 59.5597 75.4802 59.9166 74.7145 60.2842C74.0725 60.5922 73.9509 60.5987 73.7839 60.3328C73.5174 59.9089 73.5301 59.8527 74.0086 59.3358C74.4844 58.8216 74.8378 58.7606 75.204 59.1292ZM130.51 59.2119C130.44 59.3951 130.596 61.1371 130.855 63.0828C131.115 65.0287 131.291 66.6577 131.245 66.703C131.2 66.7484 130.567 65.3119 129.837 63.5107C128.268 59.6371 128.079 59.2963 127.504 59.2963C127.11 59.2963 127.077 59.3846 127.177 60.1839C127.237 60.672 127.554 63.5418 127.879 66.5612C128.441 71.7658 128.493 72.048 128.886 71.9914C129.276 71.9354 129.299 71.7865 129.266 69.5301C129.247 68.2091 129.179 66.6113 129.115 65.9796C129.008 64.9263 129.021 64.8743 129.281 65.353C129.436 65.6402 129.954 66.956 130.433 68.2769C131.41 70.9762 131.635 71.312 132.317 71.0942C132.777 70.9473 132.783 70.9001 132.657 68.6765C132.467 65.3277 131.896 59.888 131.678 59.3485C131.459 58.803 130.7 58.7142 130.51 59.2119ZM59.5351 59.5051C59.4754 59.7349 59.3407 59.9228 59.2359 59.9228C59.1307 59.9228 59.1448 59.7359 59.2675 59.5051C59.3897 59.2754 59.5241 59.0874 59.5667 59.0874C59.609 59.0874 59.5947 59.2754 59.5351 59.5051ZM73.3047 59.6484C73.2408 59.713 73.0209 59.6969 72.8163 59.6129C72.4693 59.4707 72.4722 59.4496 72.8592 59.3019C73.2499 59.1528 73.5587 59.3928 73.3047 59.6484ZM76.4906 59.2963C76.4906 59.4112 76.3505 59.5051 76.1793 59.5051C76.0081 59.5051 75.8681 59.4112 75.8681 59.2963C75.8681 59.1814 76.0081 59.0874 76.1793 59.0874C76.3505 59.0874 76.4906 59.1814 76.4906 59.2963ZM139.922 59.2963C139.861 59.4686 139.749 60.0751 139.673 60.644L139.535 61.6785L139.112 60.6962C138.88 60.1559 138.574 59.714 138.432 59.714C137.931 59.714 137.827 62.4539 138.251 64.5067C138.417 65.3117 138.732 64.6064 138.759 63.3689L138.783 62.3246L139.11 63.3167C139.505 64.5105 139.892 64.5857 140.184 63.5256C140.57 62.1302 140.323 58.1597 139.922 59.2963ZM38.0602 59.5469C38.3598 59.8485 38.3951 60.4187 38.1027 60.2368C37.8058 60.0521 37.4323 59.2963 37.6379 59.2963C37.7332 59.2963 37.9232 59.4091 38.0602 59.5469ZM50.2755 59.9228C50.2755 60.6722 49.812 60.7677 49.675 60.0463C49.602 59.6624 49.6534 59.572 49.8923 59.6641C50.0962 59.7428 50.1529 59.6998 50.0552 59.5406C49.9726 59.4062 49.9885 59.2963 50.0902 59.2963C50.1921 59.2963 50.2755 59.5782 50.2755 59.9228ZM57.4715 59.6185C57.4038 59.7959 57.304 59.8961 57.2497 59.8414C57.1953 59.7867 57.2123 59.6415 57.2876 59.5191C57.4922 59.1858 57.6118 59.2506 57.4715 59.6185ZM60.7364 59.6269C60.7464 59.8702 60.7955 59.9197 60.8617 59.7533C60.9217 59.6025 60.9142 59.4222 60.8453 59.3529C60.7765 59.2836 60.7275 59.4068 60.7364 59.6269ZM63.2101 59.5051C63.2101 59.62 63.1012 59.714 62.9679 59.714C62.8349 59.714 62.7876 59.776 62.8629 59.8521C62.9383 59.9279 63.1914 59.8157 63.4253 59.6027C63.7859 59.2742 63.8303 59.2679 63.7187 59.5611C63.5795 59.9262 62.9132 60.2299 62.6334 60.0557C62.5423 59.9991 62.1647 60.2649 61.7941 60.6463C61.2199 61.2376 60.1398 61.8293 60.3868 61.4176C60.5111 61.21 59.957 60.7622 59.7802 60.9274C59.6186 61.0786 60.0794 60.1037 60.2552 59.9228C60.311 59.8654 60.2882 60.0417 60.2048 60.3144C60.1213 60.5874 60.133 60.7635 60.2309 60.706C60.3287 60.6486 60.5897 60.6678 60.8109 60.7487C61.3251 60.9366 61.947 60.4201 61.8154 59.9145C61.7409 59.6277 61.8596 59.5154 62.3081 59.4479C62.633 59.3988 62.9688 59.3447 63.0545 59.3276C63.1402 59.3103 63.2101 59.3903 63.2101 59.5051ZM142 61.0755C141.851 63.2014 141.609 63.754 141.407 62.4291C141.182 60.95 141.211 59.8197 141.482 59.5469C142.017 59.0085 142.123 59.3211 142 61.0755ZM43.1701 59.9481C43.0356 60.1672 42.6668 59.9913 42.6668 59.7081C42.6668 59.6037 42.8063 59.5722 42.9769 59.638C43.1474 59.704 43.2344 59.8435 43.1701 59.9481ZM56.7427 59.926C57.0201 59.9287 57.032 59.9655 56.8027 60.1116C56.6454 60.2119 56.5769 60.3919 56.6504 60.5116C56.724 60.6315 56.6892 60.7883 56.5732 60.8606C56.4572 60.9326 56.3624 60.8921 56.3624 60.7706C56.3624 60.649 56.27 60.5494 56.1573 60.5494C56.0444 60.5494 55.9745 60.757 56.0017 61.0108C56.0334 61.308 55.922 61.4993 55.688 61.5481C55.4883 61.5901 55.3248 61.5235 55.3248 61.4001C55.3248 61.2768 55.4705 61.176 55.6483 61.176C55.8261 61.176 55.9226 61.0958 55.8625 60.9978C55.8021 60.8997 55.8654 60.5197 56.0027 60.1532C56.1401 59.7869 56.2852 59.5851 56.3248 59.705C56.3644 59.8249 56.5526 59.9243 56.7427 59.926ZM64.8469 59.8328C65.1812 59.625 65.13 59.9001 64.7664 60.266C64.4898 60.5444 64.4551 60.5436 64.4551 60.2576C64.4551 60.0576 64.3375 59.9813 64.1439 60.0561C63.9727 60.1223 63.8326 60.0801 63.8326 59.9625C63.8326 59.6662 64.3223 59.5229 64.4838 59.7721C64.5566 59.8844 64.7201 59.9118 64.8469 59.8328ZM45.2713 60.0534C45.6435 60.299 46.0193 60.3554 46.629 60.2572C47.3457 60.1419 47.4617 60.1737 47.4038 60.4698C47.2768 61.1194 46.6807 61.3084 46.0119 60.9107C45.6776 60.7119 45.214 60.5494 44.9816 60.5494C44.5083 60.5494 44.236 60.2399 44.4307 59.9228C44.601 59.6455 44.6685 59.6559 45.2713 60.0534ZM69.0203 60.2808C69.0203 60.8032 68.994 60.8211 68.6846 60.5097C68.4999 60.3238 68.4119 60.0688 68.4893 59.9429C68.7439 59.5281 69.0203 59.7042 69.0203 60.2808ZM76.2831 60.1062C76.2831 60.3667 75.7502 60.7789 75.6039 60.6317C75.4035 60.4297 75.6824 59.9228 75.994 59.9228C76.153 59.9228 76.2831 60.0053 76.2831 60.1062ZM54.9735 60.5358C54.9156 60.7583 54.6873 61.1052 54.4659 61.3067C54.0742 61.6636 54.0704 61.6597 54.3319 61.1636C54.9075 60.072 55.1576 59.8272 54.9735 60.5358ZM41.5772 60.762C41.8897 61.0093 42.2674 61.1329 42.4919 61.0611C42.7023 60.9938 42.8744 61.0327 42.8744 61.1474C42.8744 61.5296 41.9478 61.5116 41.3699 61.1183C41.0562 60.9047 40.7993 60.6421 40.7993 60.5352C40.7993 60.2416 40.9906 60.2973 41.5772 60.762ZM49.3071 60.889C49.3071 61.1146 49.4397 61.1676 49.774 61.0757C50.1786 60.9644 50.1921 60.978 49.8761 61.1772C49.4384 61.4533 49.1876 61.3284 49.0402 60.7612C48.9801 60.5296 49.0155 60.3926 49.1189 60.4571C49.2224 60.5214 49.3071 60.7159 49.3071 60.889ZM64.1225 60.5145C64.1812 60.6104 64.0976 60.6887 63.9364 60.6887C63.7751 60.6887 63.6915 60.6104 63.7502 60.5145C63.809 60.4189 63.8928 60.3406 63.9364 60.3406C63.98 60.3406 64.0638 60.4189 64.1225 60.5145ZM122.43 60.6409C122.318 60.9331 123.09 71.2531 123.294 72.1929C123.357 72.4841 123.549 72.6628 123.799 72.6628C124.505 72.6628 124.625 72.0563 124.351 69.8818C124.118 68.0299 124.126 67.8592 124.443 67.8592C124.633 67.8592 124.901 67.995 125.038 68.1606C125.312 68.4933 125.759 70.3016 125.976 71.9521C126.106 72.9496 126.148 73.0104 126.636 72.9166C126.922 72.8615 127.21 72.6764 127.275 72.5052C127.501 71.9131 126.897 68.8204 126.381 67.9259C125.97 67.2149 125.915 66.9505 126.084 66.5025C126.523 65.3428 126.086 61.4097 125.43 60.615C125.103 60.2177 122.583 60.2395 122.43 60.6409ZM136.527 60.4859C136.279 60.5346 135.983 60.6864 135.871 60.823C135.758 60.9598 135.599 62.1759 135.516 63.5256C135.386 65.6542 135.408 65.9796 135.684 65.9796C136.094 65.9796 136.253 65.5389 136.253 64.4034C136.253 63.7018 136.35 63.4357 136.668 63.2645C137.06 63.0533 137.083 63.1058 137.083 64.2143C137.083 65.06 137.155 65.3637 137.342 65.3012C137.72 65.1753 137.822 60.753 137.453 60.5172C137.307 60.4237 137.14 60.3583 137.083 60.3721C137.026 60.3861 136.776 60.4373 136.527 60.4859ZM148.483 61.2472C148.585 61.5162 148.732 62.1657 148.81 62.6908C148.94 63.5608 148.906 63.6761 148.422 63.9948C148.13 64.1874 147.807 64.2923 147.704 64.2281C147.601 64.164 147.454 63.5725 147.377 62.9136C147.3 62.2547 147.183 61.5001 147.117 61.2369C147.012 60.8142 147.074 60.7583 147.648 60.7583C148.139 60.7583 148.344 60.8781 148.483 61.2472ZM44.5724 61.4301C44.4236 61.5799 44.3269 61.5922 44.3269 61.4615C44.3269 61.3426 44.3892 61.1829 44.4653 61.1064C44.5413 61.0298 44.6519 61.0158 44.7108 61.0751C44.7697 61.1344 44.7075 61.2942 44.5724 61.4301ZM51.7907 61.6981C51.7907 61.813 51.7003 61.766 51.5897 61.5937C51.4791 61.4214 51.3886 61.1864 51.3886 61.0715C51.3886 60.9567 51.4791 61.0037 51.5897 61.176C51.7003 61.3483 51.7907 61.5832 51.7907 61.6981ZM58.6449 61.176C58.6449 61.2908 58.5516 61.3848 58.4374 61.3848C58.3233 61.3848 58.2299 61.2908 58.2299 61.176C58.2299 61.0611 58.3233 60.9671 58.4374 60.9671C58.5516 60.9671 58.6449 61.0611 58.6449 61.176ZM65.0777 61.176C65.0777 61.2908 64.9787 61.3848 64.8579 61.3848C64.7372 61.3848 64.6959 61.2908 64.7664 61.176C64.837 61.0611 64.9357 60.9671 64.9862 60.9671C65.0366 60.9671 65.0777 61.0611 65.0777 61.176ZM57.8406 61.6494C57.6356 61.8541 57.612 61.8301 57.7244 61.5325C57.8025 61.3265 57.9184 61.2106 57.9824 61.275C58.0463 61.3391 57.9826 61.5076 57.8406 61.6494ZM112.648 61.3234C112.391 61.3733 112.103 61.5719 112.008 61.7649C111.819 62.1473 112.269 73.5143 112.503 74.2852C112.636 74.7205 112.734 74.7489 113.711 74.6344C116.138 74.3502 116.448 73.9325 116.272 71.1904C116.2 70.0787 116.024 69.094 115.849 68.8248C115.587 68.4225 115.587 68.2901 115.849 67.7868C116.298 66.9248 115.923 61.8493 115.381 61.4506C115.027 61.19 113.664 61.1267 112.648 61.3234ZM117.265 61.5949C116.903 61.9982 116.855 62.3209 116.886 64.1745C116.926 66.6057 117.84 73.2199 118.184 73.5661C118.526 73.9107 121.248 74.0208 121.626 73.7052C122.086 73.3212 122.035 67.4384 121.546 64.4547C121.084 61.6398 120.844 61.3368 118.981 61.2173C117.843 61.1442 117.627 61.1916 117.265 61.5949ZM124.636 62.4984C124.766 63.092 124.927 64.1325 124.992 64.8104C125.092 65.8528 125.052 66.0865 124.728 66.3246C123.954 66.8946 123.867 66.6949 123.747 64.0517C123.682 62.6467 123.671 61.4291 123.723 61.3458C123.965 60.9502 124.421 61.5254 124.636 62.4984ZM136.879 62.3196C136.735 62.4947 136.535 62.6379 136.435 62.6379C136.16 62.6379 136.217 61.7133 136.511 61.4178C136.893 61.0333 137.24 61.8825 136.879 62.3196ZM53.816 61.511C53.7471 61.5803 53.5681 61.5878 53.4184 61.5275C53.2528 61.4608 53.302 61.4113 53.5438 61.4013C53.7625 61.3923 53.8849 61.4416 53.816 61.511ZM119.625 62.5003C119.961 62.9076 120.482 67.7868 120.482 70.5209C120.482 72.5215 120.433 72.8717 120.155 72.8717C119.975 72.8717 119.628 72.6453 119.383 72.3684C118.849 71.7652 118.294 68.7373 118.077 65.2409C117.951 63.2208 117.977 62.8915 118.289 62.578C118.715 62.1494 119.307 62.115 119.625 62.5003ZM114.454 62.8269C114.57 63.0456 114.724 63.8681 114.797 64.6544C114.941 66.2179 114.661 66.8388 113.686 67.1241C113.23 67.2578 113.219 67.2235 113.219 65.602C113.219 64.6897 113.163 63.6573 113.093 63.3081C112.984 62.7593 113.034 62.6603 113.456 62.5795C113.726 62.5281 114.013 62.4731 114.094 62.4575C114.176 62.4418 114.337 62.6081 114.454 62.8269ZM140.714 66.282C136.767 67.3985 134.528 68.5002 134.917 69.1341C135.142 69.5 135.982 69.3124 139.158 68.1878C140.927 67.5612 142.619 66.9973 142.919 66.9344C143.504 66.8118 144.517 66.084 144.345 65.91C143.989 65.5493 142.915 65.6592 140.714 66.282ZM20.0485 66.2928C20.0485 66.7035 20.1539 66.815 20.542 66.815C21.3241 66.815 21.5073 67.259 21.6418 69.4785C21.759 71.417 21.7374 71.5896 21.323 72.0066C21.0786 72.2527 20.6918 72.454 20.4635 72.454C20.1406 72.454 20.0485 72.5933 20.0485 73.0806V73.7071H23.5761H27.1038V73.0806C27.1038 72.571 27.0166 72.4534 26.6369 72.4509C25.9036 72.4458 25.6282 72.1601 25.5114 71.2832L25.403 70.4699L27.9761 70.4457C30.0819 70.426 30.7235 70.344 31.5094 69.9941C33.0273 69.3183 33.5973 67.7554 32.6517 66.8613C31.5926 65.8599 30.9952 65.7707 25.3466 65.7707H20.0485V66.2928ZM36.4416 66.3973C36.4416 66.9443 36.5155 67.0238 37.0226 67.0238C37.9822 67.0238 38.1017 67.3283 38.1017 69.7734C38.1017 71.7823 38.0589 72.0446 37.7004 72.2378C37.4796 72.3567 37.1061 72.454 36.8703 72.454C36.5323 72.454 36.4416 72.5866 36.4416 73.0806V73.7071H39.9692H43.4969V73.1238C43.4969 72.6457 43.3751 72.5043 42.8225 72.3406C42.1763 72.1491 42.1414 72.0837 41.9881 70.7832C41.8144 69.3108 41.9566 67.7007 42.2967 67.2849C42.4141 67.1414 42.7322 67.0238 43.0034 67.0238C43.4135 67.0238 43.4969 66.9177 43.4969 66.3973V65.7707H39.9692H36.4416V66.3973ZM48.6344 66.8024C47.6315 68.112 47.4885 68.485 47.988 68.4887C48.1998 68.4902 48.5634 68.5428 48.7958 68.6057C49.0745 68.6811 49.4853 68.5063 50.0027 68.0927C50.8705 67.3985 52.4992 66.9482 53.7463 67.0575L54.5539 67.1283L51.3021 69.8433C48.5314 72.1568 48.0589 72.6357 48.1081 73.0806L48.1658 73.6027L53.5021 73.6584L58.8381 73.7142L59.1859 73.0319C59.3772 72.6566 59.7072 72.1255 59.9192 71.8515C60.5671 71.0148 60.4243 70.7832 59.261 70.7832C58.4959 70.7832 58.1828 70.8724 58.0896 71.1167C57.8782 71.6712 56.1818 72.2564 54.4035 72.3884L52.731 72.5123L53.8606 71.5956C54.4821 71.0912 56.0229 69.7926 57.2845 68.7093C58.5464 67.6262 59.6096 66.7179 59.6474 66.6909C59.6852 66.664 59.6119 66.4459 59.4845 66.2064C59.2594 65.7832 59.1124 65.7709 54.3319 65.7797L49.4108 65.7885L48.6344 66.8024ZM63.7289 66.6648C63.3865 67.1479 62.9866 67.7552 62.8403 68.0144C62.5836 68.4691 62.6031 68.4858 63.39 68.4858C63.9063 68.4858 64.6508 68.2462 65.4196 67.8327C66.3601 67.3267 66.9807 67.1552 68.1716 67.0721L69.7092 66.9645L68.8979 67.6834C68.4515 68.0785 67.6663 68.7212 67.1527 69.1115C66.6392 69.5017 65.7988 70.2019 65.2852 70.6677C64.7716 71.1334 63.9889 71.8028 63.5456 72.1549C62.8237 72.7288 62.7654 72.8433 62.9841 73.2547C63.2273 73.7119 63.2533 73.7138 68.5497 73.6584L73.871 73.6027L74.5574 72.454C74.9349 71.8222 75.2443 71.1879 75.2447 71.0442C75.2464 70.5396 73.8887 70.7803 72.4768 71.5348C71.3 72.1637 70.7933 72.3055 69.371 72.4032C67.2899 72.5463 67.2843 72.5574 70.5561 70.0436C71.8227 69.0704 73.2622 67.9041 73.7546 67.4518C74.5323 66.7377 74.6201 66.5731 74.4217 66.2001C74.201 65.7849 74.03 65.7709 69.2724 65.7786L64.3514 65.7866L63.7289 66.6648ZM82.2502 68.4336C79.7028 71.8581 79.3855 72.189 78.4845 72.3592C77.8296 72.4828 77.7356 72.5762 77.7356 73.1037V73.7071H80.8483H83.9609V73.0806C83.9609 72.5653 83.8758 72.454 83.4817 72.454C83.2182 72.454 82.8463 72.3366 82.6554 72.1929C82.3597 71.9707 82.3469 71.8542 82.5695 71.4097C82.8208 70.9079 82.9173 70.8853 85.0584 70.8283L87.286 70.769L87.4995 71.3341C87.7844 72.0885 87.6134 72.454 86.9762 72.454C86.5308 72.454 86.451 72.5494 86.451 73.0806V73.7071H90.0823H93.7137V73.1054C93.7137 72.5693 93.615 72.4786 92.809 72.2742C91.7426 72.0041 91.7117 71.9705 90.2801 69.5322C89.6709 68.4946 88.829 67.2237 88.4092 66.7083L87.646 65.7707H85.9384H84.2306L82.2502 68.4336ZM28.5667 67.1337C29.3511 67.5418 29.3949 68.3338 28.6601 68.8183C28.3748 69.0065 27.5205 69.2105 26.7616 69.2719L25.3821 69.3834L25.529 68.2678C25.6099 67.6544 25.7228 67.0765 25.7797 66.9835C25.9577 66.6936 27.9247 66.7995 28.5667 67.1337ZM85.789 68.6688L86.2412 69.4783L85.5938 69.6086C85.2379 69.6802 84.6722 69.7389 84.3371 69.7389H83.7276L84.3981 68.7991C84.767 68.2822 85.1291 67.8592 85.2028 67.8592C85.2767 67.8592 85.5404 68.2235 85.789 68.6688ZM114.394 69.0643C114.527 69.1491 114.742 69.8135 114.873 70.5407C115.077 71.671 115.064 71.936 114.783 72.3673C114.229 73.2194 113.711 73.0231 113.559 71.9026C113.387 70.6412 113.39 69.2189 113.565 69.0428C113.745 68.8615 114.092 68.8705 114.394 69.0643Z" fill="white"/>
</svg>
