<svg width="170" height="128" viewBox="0 0 170 128" fill="none" xmlns="http://www.w3.org/2000/svg">
<rect x="49.3174" y="25.8224" width="2.3271" height="30.2523" rx="1.16355" fill="#4B4162"/>
<path d="M49.3174 25.2548V3.41289C49.3174 2.96781 49.6095 2.57735 50.0392 2.46126C51.4834 2.07108 54.7943 1.23051 57.1752 1.03935C64.5217 0.449515 68.4309 6.71134 75.596 5.03247C77.903 4.49192 80.7562 2.96193 82.4659 1.96046C83.1362 1.56779 84.0088 2.02593 84.0401 2.80218L84.9726 25.9487C84.9889 26.3548 84.7606 26.7288 84.387 26.889C82.8368 27.554 78.6634 29.2489 75.596 29.6151C68.2085 30.4971 64.593 24.2757 57.1752 24.8733C55.0694 25.0429 52.2507 25.7718 50.6246 26.2328C49.9741 26.4172 49.3174 25.931 49.3174 25.2548Z" fill="#FFCC00" stroke="#E8B900"/>
<path d="M34.1218 112.701H5C3.34315 112.701 2 114.044 2 115.701V122.888C2 124.545 3.34315 125.888 5 125.888H165C166.657 125.888 168 124.545 168 122.888V53.6448C168 51.9879 166.657 50.6448 165 50.6448H139.192C137.535 50.6448 136.192 51.9879 136.192 53.6448V65.098C136.192 66.7549 134.848 68.098 133.192 68.098H107.383C105.726 68.098 104.383 69.4412 104.383 71.098V79.0607C104.383 80.7175 103.04 82.0607 101.383 82.0607H71.9301C70.2733 82.0607 68.9301 83.4038 68.9301 85.0607V91.084C68.9301 92.7409 67.587 94.084 65.9301 94.084H40.1218C38.4649 94.084 37.1218 95.4272 37.1218 97.084V109.701C37.1218 111.358 35.7786 112.701 34.1218 112.701Z" fill="#6898DB" stroke="#040404" stroke-width="3"/>
<circle cx="36.9062" cy="28.1495" r="4.92991" fill="#6AB9A1" stroke="#4B4162"/>
<mask id="path-5-inside-1_5269_366" fill="white">
<path fill-rule="evenodd" clip-rule="evenodd" d="M41.5509 43.6636C41.5575 43.5352 41.5609 43.4059 41.5609 43.2759C41.5609 39.206 38.2616 35.9067 34.1917 35.9067C31.1872 35.9067 28.6026 37.7048 27.4554 40.2837L22.4856 46.5257C22.1618 46.9323 21.9607 47.3971 21.8772 47.8754C21.4536 48.2012 21.1104 48.6426 20.9012 49.1763L17.0746 58.9374C16.4609 60.5029 17.2325 62.2696 18.798 62.8833C20.3635 63.497 22.1302 62.7254 22.7439 61.1599L26.5704 51.3988C26.6442 51.2106 26.698 51.0195 26.7327 50.8278C26.9209 50.6828 27.0947 50.5128 27.2494 50.3186L28.374 48.9061V59.1777V68.486V77.4795L23.8681 97.0795C23.3578 99.2991 24.7435 101.512 26.9631 102.022C29.1827 102.533 31.3957 101.147 31.906 98.9273L36.7643 77.7945H36.9067V77.1088C36.9627 76.7158 36.9607 76.3259 36.9067 75.9485V69.0609L44.7688 73.6971L44.9055 82.3286C44.9423 84.6568 46.8596 86.5143 49.1877 86.4774C51.5159 86.4406 53.3734 84.5233 53.3366 82.1951L53.1671 71.4861C53.1521 70.5426 52.8283 69.6763 52.2935 68.9821L52.3219 68.9339L52.195 68.8591C51.5801 68.1196 50.7176 67.5947 49.7373 67.4098L41.5609 62.5882V56.0852L50.4997 55.9905C52.1811 55.9727 53.5297 54.5952 53.5119 52.9137C53.4941 51.2323 52.1166 49.8837 50.4351 49.9015L41.5609 49.9956V43.6636H41.5509Z"/>
</mask>
<path fill-rule="evenodd" clip-rule="evenodd" d="M41.5509 43.6636C41.5575 43.5352 41.5609 43.4059 41.5609 43.2759C41.5609 39.206 38.2616 35.9067 34.1917 35.9067C31.1872 35.9067 28.6026 37.7048 27.4554 40.2837L22.4856 46.5257C22.1618 46.9323 21.9607 47.3971 21.8772 47.8754C21.4536 48.2012 21.1104 48.6426 20.9012 49.1763L17.0746 58.9374C16.4609 60.5029 17.2325 62.2696 18.798 62.8833C20.3635 63.497 22.1302 62.7254 22.7439 61.1599L26.5704 51.3988C26.6442 51.2106 26.698 51.0195 26.7327 50.8278C26.9209 50.6828 27.0947 50.5128 27.2494 50.3186L28.374 48.9061V59.1777V68.486V77.4795L23.8681 97.0795C23.3578 99.2991 24.7435 101.512 26.9631 102.022C29.1827 102.533 31.3957 101.147 31.906 98.9273L36.7643 77.7945H36.9067V77.1088C36.9627 76.7158 36.9607 76.3259 36.9067 75.9485V69.0609L44.7688 73.6971L44.9055 82.3286C44.9423 84.6568 46.8596 86.5143 49.1877 86.4774C51.5159 86.4406 53.3734 84.5233 53.3366 82.1951L53.1671 71.4861C53.1521 70.5426 52.8283 69.6763 52.2935 68.9821L52.3219 68.9339L52.195 68.8591C51.5801 68.1196 50.7176 67.5947 49.7373 67.4098L41.5609 62.5882V56.0852L50.4997 55.9905C52.1811 55.9727 53.5297 54.5952 53.5119 52.9137C53.4941 51.2323 52.1166 49.8837 50.4351 49.9015L41.5609 49.9956V43.6636H41.5509Z" fill="#6AB9A1"/>
<path d="M41.5509 43.6636L40.5522 43.6118L40.4977 44.6636H41.5509V43.6636ZM27.4554 40.2837L28.2377 40.9065L28.3172 40.8067L28.3691 40.6901L27.4554 40.2837ZM22.4856 46.5257L23.2679 47.1486H23.2679L22.4856 46.5257ZM21.8772 47.8754L22.4868 48.6681L22.7953 48.4309L22.8623 48.0475L21.8772 47.8754ZM20.9012 49.1763L21.8322 49.5413L20.9012 49.1763ZM17.0746 58.9374L18.0056 59.3024L17.0746 58.9374ZM18.798 62.8833L19.163 61.9523L18.798 62.8833ZM22.7439 61.1599L23.6749 61.5249L22.7439 61.1599ZM26.5704 51.3988L27.5014 51.7638V51.7638L26.5704 51.3988ZM26.7327 50.8278L26.1221 50.0359L25.8174 50.2708L25.7488 50.6494L26.7327 50.8278ZM27.2494 50.3186L28.0317 50.9415L27.2494 50.3186ZM28.374 48.9061H29.374V46.0447L27.5917 48.2832L28.374 48.9061ZM28.374 77.4795L29.3486 77.7035L29.374 77.5929V77.4795H28.374ZM23.8681 97.0795L24.8427 97.3035L23.8681 97.0795ZM26.9631 102.022L26.739 102.997L26.9631 102.022ZM31.906 98.9273L30.9314 98.7033L31.906 98.9273ZM36.7643 77.7945V76.7945H35.9681L35.7897 77.5705L36.7643 77.7945ZM36.9067 77.7945V78.7945H37.9067V77.7945H36.9067ZM36.9067 77.1088L35.9167 76.9677L35.9067 77.0379V77.1088H36.9067ZM36.9067 75.9485H35.9067V76.0196L35.9168 76.0901L36.9067 75.9485ZM36.9067 69.0609L37.4147 68.1995L35.9067 67.3102V69.0609H36.9067ZM44.7688 73.6971L45.7687 73.6813L45.7598 73.1206L45.2768 72.8357L44.7688 73.6971ZM44.9055 82.3286L43.9056 82.3444V82.3444L44.9055 82.3286ZM53.3366 82.1951L54.3364 82.1793L53.3366 82.1951ZM53.1671 71.4861L52.1672 71.5019L53.1671 71.4861ZM52.2935 68.9821L51.4321 68.4742L51.0886 69.0567L51.5014 69.5925L52.2935 68.9821ZM52.3219 68.9339L53.1833 69.4419L53.6913 68.5805L52.8299 68.0726L52.3219 68.9339ZM52.195 68.8591L51.4261 69.4985L51.5373 69.6321L51.687 69.7204L52.195 68.8591ZM49.7373 67.4098L49.2293 68.2712L49.3801 68.36L49.552 68.3925L49.7373 67.4098ZM41.5609 62.5882H40.5609V63.1595L41.053 63.4496L41.5609 62.5882ZM41.5609 56.0852L41.5503 55.0853L40.5609 55.0958V56.0852H41.5609ZM50.4997 55.9905L50.4891 54.9905L50.4997 55.9905ZM53.5119 52.9137L54.5118 52.9031V52.9031L53.5119 52.9137ZM50.4351 49.9015L50.4457 50.9014L50.4351 49.9015ZM41.5609 49.9956H40.5609V51.0062L41.5715 50.9955L41.5609 49.9956ZM41.5609 43.6636H42.5609V42.6636H41.5609V43.6636ZM40.5609 43.2759C40.5609 43.3887 40.558 43.5007 40.5522 43.6118L42.5495 43.7153C42.5571 43.5697 42.5609 43.4232 42.5609 43.2759H40.5609ZM34.1917 36.9067C37.7093 36.9067 40.5609 39.7583 40.5609 43.2759H42.5609C42.5609 38.6537 38.8139 34.9067 34.1917 34.9067V36.9067ZM28.3691 40.6901C29.3616 38.4591 31.5965 36.9067 34.1917 36.9067V34.9067C30.7779 34.9067 27.8437 36.9506 26.5417 39.8772L28.3691 40.6901ZM23.2679 47.1486L28.2377 40.9065L26.6731 39.6608L21.7033 45.9028L23.2679 47.1486ZM22.8623 48.0475C22.9177 47.7299 23.051 47.421 23.2679 47.1486L21.7033 45.9028C21.2727 46.4436 21.0037 47.0643 20.8921 47.7034L22.8623 48.0475ZM21.8322 49.5413C21.9733 49.1814 22.2032 48.8862 22.4868 48.6681L21.2676 47.0827C20.704 47.5161 20.2475 48.1038 19.9701 48.8114L21.8322 49.5413ZM18.0056 59.3024L21.8322 49.5413L19.9701 48.8114L16.1436 58.5724L18.0056 59.3024ZM19.163 61.9523C18.1117 61.5401 17.5935 60.3537 18.0056 59.3024L16.1436 58.5724C15.3283 60.6522 16.3533 62.999 18.433 63.8143L19.163 61.9523ZM21.8129 60.7949C21.4007 61.8462 20.2143 62.3644 19.163 61.9523L18.433 63.8143C20.5127 64.6296 22.8596 63.6046 23.6749 61.5249L21.8129 60.7949ZM25.6394 51.0338L21.8129 60.7949L23.6749 61.5249L27.5014 51.7638L25.6394 51.0338ZM25.7488 50.6494C25.7255 50.7776 25.6894 50.9062 25.6394 51.0338L27.5014 51.7638C27.599 51.5149 27.6704 51.2614 27.7167 51.0063L25.7488 50.6494ZM26.4671 49.6957C26.363 49.8264 26.247 49.9396 26.1221 50.0359L27.3433 51.6198C27.5948 51.4259 27.8265 51.1993 28.0317 50.9415L26.4671 49.6957ZM27.5917 48.2832L26.4671 49.6957L28.0317 50.9415L29.1563 49.529L27.5917 48.2832ZM29.374 59.1777V48.9061H27.374V59.1777H29.374ZM29.374 68.486V59.1777H27.374V68.486H29.374ZM29.374 77.4795V68.486H27.374V77.4795H29.374ZM24.8427 97.3035L29.3486 77.7035L27.3994 77.2554L22.8935 96.8554L24.8427 97.3035ZM27.1871 101.048C25.5058 100.661 24.4561 98.9849 24.8427 97.3035L22.8935 96.8554C22.2595 99.6133 23.9812 102.363 26.739 102.997L27.1871 101.048ZM30.9314 98.7033C30.5449 100.385 28.8685 101.434 27.1871 101.048L26.739 102.997C29.4969 103.631 32.2466 101.909 32.8806 99.1514L30.9314 98.7033ZM35.7897 77.5705L30.9314 98.7033L32.8806 99.1514L37.7389 78.0186L35.7897 77.5705ZM36.9067 76.7945H36.7643V78.7945H36.9067V76.7945ZM35.9067 77.1088V77.7945H37.9067V77.1088H35.9067ZM35.9168 76.0901C35.9576 76.3751 35.9591 76.6699 35.9167 76.9677L37.8967 77.2498C37.9662 76.7618 37.9639 76.2767 37.8966 75.8068L35.9168 76.0901ZM35.9067 69.0609V75.9485H37.9067V69.0609H35.9067ZM45.2768 72.8357L37.4147 68.1995L36.3988 69.9222L44.2609 74.5585L45.2768 72.8357ZM45.9053 82.3128L45.7687 73.6813L43.769 73.7129L43.9056 82.3444L45.9053 82.3128ZM49.1719 85.4775C47.3959 85.5056 45.9334 84.0887 45.9053 82.3128L43.9056 82.3444C43.9512 85.2248 46.3232 87.5229 49.2036 87.4773L49.1719 85.4775ZM52.3367 82.2109C52.3648 83.9869 50.9479 85.4494 49.1719 85.4775L49.2036 87.4773C52.084 87.4317 54.382 85.0597 54.3364 82.1793L52.3367 82.2109ZM52.1672 71.5019L52.3367 82.2109L54.3364 82.1793L54.1669 71.4703L52.1672 71.5019ZM51.5014 69.5925C51.9092 70.1219 52.1558 70.781 52.1672 71.5019L54.1669 71.4703C54.1485 70.3041 53.7474 69.2308 53.0857 68.3718L51.5014 69.5925ZM51.4606 68.426L51.4321 68.4742L53.1549 69.4901L53.1833 69.4419L51.4606 68.426ZM51.687 69.7204L51.814 69.7953L52.8299 68.0726L52.7029 67.9977L51.687 69.7204ZM49.552 68.3925C50.2973 68.533 50.9556 68.9327 51.4261 69.4985L52.9639 68.2197C52.2046 67.3066 51.138 66.6563 49.9226 66.4271L49.552 68.3925ZM41.053 63.4496L49.2293 68.2712L50.2453 66.5484L42.0689 61.7268L41.053 63.4496ZM40.5609 56.0852V62.5882H42.5609V56.0852H40.5609ZM50.4891 54.9905L41.5503 55.0853L41.5715 57.0852L50.5103 56.9904L50.4891 54.9905ZM52.5119 52.9243C52.5239 54.0535 51.6182 54.9786 50.4891 54.9905L50.5103 56.9904C52.7439 56.9668 54.5355 55.1368 54.5118 52.9031L52.5119 52.9243ZM50.4457 50.9014C51.5749 50.8895 52.5 51.7952 52.5119 52.9243L54.5118 52.9031C54.4882 50.6695 52.6582 48.8779 50.4245 48.9016L50.4457 50.9014ZM41.5715 50.9955L50.4457 50.9014L50.4245 48.9016L41.5503 48.9956L41.5715 50.9955ZM40.5609 43.6636V49.9956H42.5609V43.6636H40.5609ZM41.5509 44.6636H41.5609V42.6636H41.5509V44.6636Z" fill="#4B4162" mask="url(#path-5-inside-1_5269_366)"/>
</svg>
