<svg width="688" height="336" viewBox="0 0 688 336" fill="none" xmlns="http://www.w3.org/2000/svg">
<path fill-rule="evenodd" clip-rule="evenodd" d="M315.04 43.3803C345.882 16.4886 387.496 0 433.285 0C519.238 0 590.48 58.1018 603.374 134.052C651.323 140.982 688 179.219 688 225.349C688 276.285 643.283 317.596 588.052 317.766V317.767H86.9411V317.766C86.8271 317.767 86.7131 317.767 86.599 317.767C38.7717 317.767 0 282.06 0 238.014C0 203.671 23.5698 174.399 56.6244 163.167C69.2509 133.515 100.601 112.519 137.276 112.519C146.358 112.519 155.115 113.807 163.341 116.195C160.461 108.253 158.901 99.7537 158.901 90.9193C158.901 46.8728 197.673 11.166 245.5 11.166C273.985 11.166 299.257 23.8312 315.04 43.3803Z" fill="#424344"/>
<path fill-rule="evenodd" clip-rule="evenodd" d="M315.04 61.4176C345.882 34.5259 387.496 18.0373 433.285 18.0373C519.238 18.0373 590.48 76.1391 603.374 152.089C651.323 159.019 688 197.256 688 243.386C688 294.322 643.283 335.634 588.052 335.804V335.804H86.9411V335.804C86.8271 335.804 86.7131 335.804 86.599 335.804C38.7717 335.804 0 300.098 0 256.051C0 221.709 23.5698 192.436 56.6244 181.205C69.2509 151.553 100.601 130.557 137.276 130.557C146.358 130.557 155.115 131.844 163.341 134.233C160.461 126.29 158.901 117.791 158.901 108.957C158.901 64.9101 197.673 29.2034 245.5 29.2034C273.985 29.2034 299.257 41.8685 315.04 61.4176Z" fill="#282F3A"/>
</svg>
