<svg width="61" height="61" viewBox="0 0 61 61" fill="none" xmlns="http://www.w3.org/2000/svg">
<path class="social" d="M23.0656 8.53998C23.0656 8.53998 15.2977 9.07373 10.2175 13.1531C10.1937 13.1626 10.1651 13.1769 10.1412 13.1912C9.2596 14.0062 8.59718 15.269 7.7775 17.08C6.95781 18.8909 6.09046 21.2213 5.29937 23.8281C3.72195 29.0465 2.44 35.4515 2.44 41.48C2.43523 41.6944 2.48765 41.9041 2.5925 42.09C4.37484 45.221 7.65359 47.113 10.7131 48.3044C13.7727 49.4958 16.5987 49.9723 18.0331 50.02C18.4382 50.0343 18.8242 49.8484 19.0625 49.5244L22.0362 45.4069C24.4334 45.974 27.2451 46.36 30.5 46.36C33.7549 46.36 36.5666 45.974 38.9637 45.4069L41.9375 49.5244C42.1758 49.8484 42.5618 50.0343 42.9669 50.02C44.4013 49.9723 47.2273 49.4958 50.2869 48.3044C53.3464 47.113 56.6251 45.221 58.4075 42.09C58.5123 41.9041 58.5648 41.6944 58.56 41.48C58.56 35.4515 57.278 29.0465 55.7006 23.8281C54.9095 21.2213 54.0422 18.8909 53.2225 17.08C52.4028 15.269 51.7404 14.0062 50.8587 13.1912C50.8349 13.1769 50.8063 13.1626 50.7825 13.1531C45.7023 9.07373 37.9344 8.53998 37.9344 8.53998C37.8438 8.53045 37.758 8.53045 37.6675 8.53998C37.2434 8.59717 36.8859 8.87358 36.7144 9.26436C36.7144 9.26436 36.2998 10.1746 36.0281 11.4756C33.6501 11.0944 31.6485 10.98 30.5 10.98C29.3515 10.98 27.3499 11.0944 24.9719 11.4756C24.7002 10.1746 24.2856 9.26436 24.2856 9.26436C24.0759 8.7878 23.5851 8.49709 23.0656 8.53998ZM22.3031 11.1706C22.3937 11.4184 22.4556 11.6519 22.5319 11.9331C19.7821 12.5717 16.7702 13.6154 13.9537 15.3644C13.5105 15.5502 13.2198 15.9791 13.2055 16.4605C13.196 16.937 13.4677 17.3802 13.8966 17.5899C14.3302 17.7948 14.8449 17.7329 15.2119 17.4231C20.8639 13.9204 28.0552 13.42 30.5 13.42C32.9448 13.42 40.1361 13.9204 45.7881 17.4231C46.1551 17.7329 46.6698 17.7948 47.1034 17.5899C47.5323 17.3802 47.804 16.937 47.7944 16.4605C47.7801 15.9791 47.4894 15.5502 47.0462 15.3644C44.2298 13.6154 41.2179 12.5717 38.4681 11.9331C38.5444 11.6519 38.6063 11.4184 38.6969 11.1706C40.0884 11.3422 45.4974 12.0713 49.1812 14.9831C49.4195 15.2023 50.2487 16.4223 51.0112 18.1094C51.7737 19.7964 52.5744 21.9933 53.3369 24.5144C54.8237 29.4325 56.0247 35.4991 56.0819 41.0606C54.6951 43.3052 52.093 44.9732 49.41 46.0169C46.97 46.9652 44.692 47.3894 43.5006 47.5037L41.4419 44.7206C42.4903 44.3822 43.4339 44.0153 44.2631 43.6531C47.3417 42.2997 48.9906 40.87 48.9906 40.87C49.4958 40.4172 49.5387 39.6405 49.0859 39.1353C48.6332 38.6301 47.8564 38.5872 47.3512 39.04C47.3512 39.04 46.0741 40.2076 43.2719 41.4419C42.2425 41.8946 40.9939 42.3426 39.5737 42.7381C39.2449 42.7 38.9161 42.7953 38.6587 43.005C36.3855 43.5578 33.6834 43.92 30.5 43.92C27.2927 43.92 24.5859 43.5244 22.3031 42.9669C22.0458 42.7953 21.7312 42.7238 21.4262 42.7762C20.0013 42.3807 18.7623 41.8946 17.7281 41.4419C14.9259 40.2076 13.6487 39.04 13.6487 39.04C13.3723 38.7826 12.9911 38.673 12.6194 38.735C12.1476 38.8065 11.7568 39.1448 11.6281 39.6071C11.4947 40.0646 11.6472 40.5602 12.0094 40.87C12.0094 40.87 13.6583 42.2997 16.7369 43.6531C17.5661 44.0153 18.5097 44.3822 19.5581 44.7206L17.4994 47.5037C16.308 47.3894 14.03 46.9652 11.59 46.0169C8.90695 44.9732 6.30492 43.3052 4.91812 41.0606C4.97531 35.4991 6.17625 29.4325 7.66312 24.5144C8.42562 21.9933 9.22625 19.7964 9.98875 18.1094C10.7512 16.4223 11.5805 15.2023 11.8187 14.9831C15.5026 12.0713 20.9116 11.3422 22.3031 11.1706ZM22.57 25.62C19.458 25.62 17.08 28.446 17.08 31.72C17.08 34.994 19.458 37.82 22.57 37.82C25.6819 37.82 28.06 34.994 28.06 31.72C28.06 28.446 25.6819 25.62 22.57 25.62ZM38.43 25.62C35.318 25.62 32.94 28.446 32.94 31.72C32.94 34.994 35.318 37.82 38.43 37.82C41.5419 37.82 43.92 34.994 43.92 31.72C43.92 28.446 41.5419 25.62 38.43 25.62ZM22.57 28.06C24.176 28.06 25.62 29.604 25.62 31.72C25.62 33.8359 24.176 35.38 22.57 35.38C20.964 35.38 19.52 33.8359 19.52 31.72C19.52 29.604 20.964 28.06 22.57 28.06ZM38.43 28.06C40.036 28.06 41.48 29.604 41.48 31.72C41.48 33.8359 40.036 35.38 38.43 35.38C36.824 35.38 35.38 33.8359 35.38 31.72C35.38 29.604 36.824 28.06 38.43 28.06Z" fill="white"/>
</svg>
