<svg width="106" height="122" viewBox="0 0 106 122" fill="none" xmlns="http://www.w3.org/2000/svg">
<path d="M66.8927 120.13L13.8942 107.191C13.8942 107.191 13.4922 106.305 13.3965 105.698C13.1045 103.844 14.5432 102.999 15.1383 101.219C16.1846 98.0903 16.7178 96.2822 17.1288 93.0084C17.4438 90.4998 17.658 89.0518 17.3777 86.5391C17.0402 83.5144 16.36 81.862 15.1383 79.0745C13.9141 76.2814 12.734 74.9667 11.1572 72.3564C9.62331 69.8173 7.17606 65.8871 7.17606 65.8871C7.17606 65.8871 2.38791 56.661 1.45321 50.2115C0.798178 45.6917 0.901905 43.0505 1.45321 38.5169C2.14765 32.8062 2.77619 29.4361 5.43432 24.3342C8.86546 17.7487 12.3394 14.729 18.3729 10.4003C25.0597 5.60299 29.7269 3.88087 37.7809 2.18929C43.7839 0.928457 47.3346 0.808475 53.4565 1.19401C60.4939 1.6372 64.6244 2.18866 71.1227 4.9263C77.8286 7.75144 81.7279 9.92667 86.5495 15.3767C90.6144 19.9715 92.2786 23.2568 94.2629 29.0618C95.7361 33.3715 97.0364 35.9844 96.5023 40.5075C96.3391 41.8892 95.7558 43.991 95.7558 43.991C95.7558 43.991 94.2629 46.3116 94.2629 47.9721C94.2629 49.6325 94.621 50.7427 95.3026 52.2568C97.4727 57.0775 101.468 58.1175 103.718 62.9013C104.256 64.0443 105.201 64.6466 104.962 65.8871C104.741 67.0361 103.874 67.3812 102.972 68.1265C100.91 69.8293 98.3109 68.3969 96.5023 70.3658C95.7357 71.2004 95.1226 71.7265 95.0093 72.854C94.908 73.8634 95.3264 74.4231 95.7558 75.3422C96.2007 76.2945 97.2511 76.5306 97.2487 77.5816C97.2471 78.3216 96.5023 79.3233 96.5023 79.3233L93.7653 81.5627C93.7653 81.5627 96.0154 82.5097 96.5023 83.8021C96.8448 84.7114 96.9071 85.407 96.5023 86.2903C95.9744 87.442 94.8261 87.3395 93.7653 88.032C92.8851 88.6066 92.1465 88.6767 91.5259 89.5249C90.1754 91.3707 92.5233 92.974 92.77 95.2478C93.0215 97.5663 93.8129 99.1336 92.77 101.219C92.0325 102.694 91.2067 103.371 89.7841 104.205C86.934 105.876 84.6198 103.972 81.3243 104.205C77.4996 104.476 74.8424 103.62 71.6203 105.698C70.291 106.556 69.4763 107.096 68.6345 108.435C67.4272 110.356 67.5338 111.892 67.6392 114.158C67.7224 115.948 69.5234 117.081 68.6345 118.637C68.19 119.415 66.8927 120.13 66.8927 120.13Z" fill="#6C5D8F" stroke="black" stroke-width="2"/>
<rect x="39.8158" y="69.1765" width="15.9244" height="1.99056" rx="0.995278" fill="#4BA5D7"/>
<rect x="48.2758" y="14.4363" width="6.96695" height="1.49292" rx="0.746459" transform="rotate(90 48.2758 14.4363)" fill="#D9D9D9"/>
<rect x="34.6057" y="17.9197" width="6.96695" height="1.49292" rx="0.746459" transform="rotate(57.5045 34.6057 17.9197)" fill="#D9D9D9"/>
<rect x="24.2019" y="27.3749" width="6.96695" height="1.49292" rx="0.746459" transform="rotate(32.7778 24.2019 27.3749)" fill="#D9D9D9"/>
<rect x="26.9156" y="42.801" width="6.96695" height="1.49292" rx="0.746459" transform="rotate(178.419 26.9156 42.801)" fill="#D9D9D9"/>
<rect x="30.1187" y="53.0337" width="6.96695" height="1.49292" rx="0.746459" transform="rotate(148.611 30.1187 53.0337)" fill="#D9D9D9"/>
<rect x="62.1998" y="18.5316" width="6.96695" height="1.49292" rx="0.746459" transform="rotate(119.352 62.1998 18.5316)" fill="#D9D9D9"/>
<rect x="71.9219" y="28.6497" width="6.96695" height="1.49292" rx="0.746459" transform="rotate(148.643 71.9219 28.6497)" fill="#D9D9D9"/>
<rect x="75.0282" y="42.5146" width="6.96695" height="1.49292" rx="0.746459" transform="rotate(180 75.0282 42.5146)" fill="#D9D9D9"/>
<rect x="71.1414" y="56.167" width="6.96695" height="1.49292" rx="0.746459" transform="rotate(-148.585 71.1414 56.167)" fill="#D9D9D9"/>
<rect x="40.8112" y="72.66" width="13.9339" height="1.99056" rx="0.995278" fill="#4BA5D7"/>
<rect x="43.2993" y="76.1436" width="8.9575" height="1.99056" rx="0.995278" fill="#4BA5D7"/>
<path fill-rule="evenodd" clip-rule="evenodd" d="M61.0288 53.5284C63.9265 50.434 65.693 46.3208 65.693 41.8064C65.693 32.1871 57.6722 24.389 47.778 24.389C37.8839 24.389 29.863 32.1871 29.863 41.8064C29.863 46.88 32.0944 51.447 35.6551 54.6303C36.5401 56.1762 37.909 58.7272 38.526 60.7167C39.3485 63.3686 39.6604 67.6836 39.6604 67.6836H56.6765C56.6765 67.6836 56.6522 63.0463 57.5273 60.219C58.2838 57.7748 60.3911 54.4914 61.0288 53.5284Z" fill="#282F3A"/>
<path d="M46.5346 61.5323V45.359C46.5346 45.359 44.581 44.0389 43.2999 44.3637C42.1657 44.6513 40.8818 45.9326 40.8131 47.1007C40.7405 48.3353 42.6125 50.2288 43.7972 50.5842C46.2854 51.3307 49.3735 51.5739 51.5109 49.5889C52.5622 48.6126 53.3152 47.5895 53.2527 46.3543C53.2005 45.3227 52.4906 44.6913 51.511 44.3637C50.3453 43.9739 48.5251 45.359 48.5251 45.359V61.5323" stroke="white"/>
</svg>
