<svg width="134" height="90" viewBox="0 0 134 100" fill="none" xmlns="http://www.w3.org/2000/svg">
<circle cx="67.1383" cy="32.4332" r="31.9332" fill="#6C5D8F" stroke="black"/>
<circle cx="67.1382" cy="32.4331" r="26.8456" fill="#8877AF" stroke="black"/>
<path d="M65.456 43.76V41.12C64.384 41.056 63.376 40.864 62.432 40.544C61.488 40.208 60.664 39.744 59.96 39.152L60.776 37.184C61.544 37.792 62.36 38.248 63.224 38.552C64.104 38.856 65.096 39.008 66.2 39.008C67.464 39.008 68.4 38.768 69.008 38.288C69.632 37.808 69.944 37.192 69.944 36.44C69.944 35.8 69.728 35.296 69.296 34.928C68.864 34.544 68.136 34.24 67.112 34.016L64.64 33.488C63.2 33.168 62.12 32.648 61.4 31.928C60.68 31.192 60.32 30.216 60.32 29C60.32 28.088 60.528 27.28 60.944 26.576C61.376 25.872 61.976 25.296 62.744 24.848C63.512 24.4 64.416 24.12 65.456 24.008V21.32H67.424V24.008C68.256 24.088 69.064 24.296 69.848 24.632C70.648 24.952 71.336 25.4 71.912 25.976L71.12 27.872C70.496 27.264 69.792 26.816 69.008 26.528C68.224 26.224 67.36 26.072 66.416 26.072C65.312 26.072 64.424 26.336 63.752 26.864C63.096 27.392 62.768 28.08 62.768 28.928C62.768 29.584 62.976 30.104 63.392 30.488C63.808 30.872 64.472 31.168 65.384 31.376L67.856 31.904C69.392 32.224 70.536 32.744 71.288 33.464C72.04 34.168 72.416 35.104 72.416 36.272C72.416 37.6 71.952 38.688 71.024 39.536C70.096 40.368 68.896 40.872 67.424 41.048V43.76H65.456Z" fill="white"/>
<path d="M14.9907 40.7004V47.0599V66.7742L24.5299 73.1336V49.6037C24.5299 49.6037 23.1744 45.6719 21.3502 43.8802C19.3692 41.9345 14.9907 40.7004 14.9907 40.7004Z" fill="#4BA5D7" stroke="black"/>
<path d="M32.1613 107.475V112.562H57.5991L58.235 108.746L57.5991 92.8478L53.7834 81.4008L30.8894 63.5944C30.8894 63.5944 28.986 66.1387 28.4365 68.046C27.7489 70.4325 28.4365 74.4055 28.4365 74.4055L20.7143 68.046C20.7143 68.046 19.4479 60.9966 18.1705 56.599C16.7678 51.7699 13.7189 44.5161 13.7189 44.5161C13.7189 44.5161 11.1052 39.3783 7.99539 38.1566C5.4527 37.1577 1 38.1566 1 38.1566C1 38.1566 3.31032 58.5093 7.99539 70.5898C14.222 86.6453 32.1613 107.475 32.1613 107.475Z" fill="#4BA5D7"/>
<path d="M42.3364 85.8525L28.4365 74.4055M28.4365 74.4055L20.7143 68.046C20.7143 68.046 19.4479 60.9966 18.1705 56.599C16.7678 51.7699 13.7189 44.5161 13.7189 44.5161C13.7189 44.5161 11.1052 39.3783 7.99539 38.1566C5.4527 37.1577 1 38.1566 1 38.1566C1 38.1566 3.31032 58.5093 7.99539 70.5898C14.222 86.6453 32.1613 107.475 32.1613 107.475V112.562H57.5991L58.235 108.746L57.5991 92.8478L53.7834 81.4008L30.8894 63.5944C30.8894 63.5944 28.986 66.1387 28.4365 68.046C27.7489 70.4325 28.4365 74.4055 28.4365 74.4055Z" stroke="black"/>
<rect x="27.5" y="112.5" width="31" height="10" rx="1.5" fill="#4BA5D7" stroke="black"/>
<path d="M116.47 43.3807L116.074 49.5176L114.844 68.5418L104.945 74.0476L106.413 51.3413C106.413 51.3413 108.009 47.6368 109.937 46.0285C112.032 44.2819 116.47 43.3807 116.47 43.3807Z" fill="#4BA5D7" stroke="black"/>
<path d="M101.569 107.834V113H75.648L75 109.126L75.648 92.9827L79.5362 81.3597L102.865 63.2796C102.865 63.2796 104.805 65.863 105.365 67.7996C106.065 70.2227 105.365 74.2568 105.365 74.2568L110.708 67.7996C110.708 67.7996 114.524 60.6419 115.826 56.1767C117.255 51.2733 120.362 43.908 120.362 43.908C120.362 43.908 123.025 38.6913 126.194 37.4508C128.785 36.4365 133.323 37.4508 133.323 37.4508C133.323 37.4508 130.968 58.1163 126.194 70.3825C119.849 86.6848 101.569 107.834 101.569 107.834Z" fill="#4BA5D7"/>
<path d="M91.2007 85.8798L105.365 74.2568M105.365 74.2568L110.708 67.7996C110.708 67.7996 114.524 60.6419 115.826 56.1767C117.255 51.2733 120.362 43.908 120.362 43.908C120.362 43.908 123.025 38.6913 126.194 37.4508C128.785 36.4365 133.323 37.4508 133.323 37.4508C133.323 37.4508 130.968 58.1163 126.194 70.3825C119.849 86.6848 101.569 107.834 101.569 107.834V113H75.648L75 109.126L75.648 92.9827L79.5362 81.3597L102.865 63.2796C102.865 63.2796 104.805 65.863 105.365 67.7996C106.065 70.2227 105.365 74.2568 105.365 74.2568Z" stroke="black"/>
<rect x="73.5" y="112.5" width="31" height="10" rx="1.5" fill="#4BA5D7" stroke="black"/>
</svg>
