<svg width="1440" height="936" viewBox="0 0 1440 936" fill="none" xmlns="http://www.w3.org/2000/svg">
<path d="M0.0136184 39.1867V39.205C0.234982 39.24 3.65473 38.8277 44.9319 29.6785C494.999 -70.0796 568.738 130.796 697.022 231.833C771.29 290.327 928.582 319.604 1008.37 370.477C1131.86 449.216 1127.44 371.433 1271.5 399.808C1427.27 430.488 1439.06 567.283 1439.06 567.283V936H0.0136182L0.0136184 39.205C-0.0170231 39.2002 0.0136184 39.1867 0.0136184 39.1867Z" fill="#4D4D89" fill-opacity="0.8"/>
<path d="M0.0136185 39.1867V39.205C0.234982 39.24 3.65473 38.8277 44.9319 29.6785C494.999 -70.0796 600.716 105.348 729 206.385C803.268 264.879 928.582 319.604 1008.37 370.477C1131.86 449.216 1127.44 371.432 1271.5 399.808C1427.27 430.488 1439.06 567.283 1439.06 567.283V936H0.0136182L0.0136185 39.205C-0.0170231 39.2002 0.0136185 39.1867 0.0136185 39.1867Z" fill="#4D4D89" fill-opacity="0.8"/>
<path d="M0 935.097V131.711C0 131.711 74.7164 139.925 122.076 147.96C283.109 175.279 252.275 217.722 380.5 309.752C454.734 363.031 758.748 322.586 838.5 368.924C961.936 440.643 1023.5 525.225 1167.5 551.07C1323.2 579.015 1438.39 798.563 1438.39 798.563V935.097H0Z" fill="#5B85AA"/>
<path d="M0 934.971V276.362C0 276.362 74.7998 283.095 122.212 289.682C283.425 312.079 194.895 332.798 323.263 408.244C397.58 451.922 687.971 370.256 767.812 408.244C891.386 467.038 1160.93 418.133 1264.48 441.813C1416.45 476.564 1440 580.089 1440 580.089V934.971H0Z" fill="#C7C7E4" fill-opacity="0.3"/>
</svg>
