<svg width="126" height="105" viewBox="0 0 126 105" fill="none" xmlns="http://www.w3.org/2000/svg">
<path d="M27.8445 6.23836C27.8445 6.23836 28.7421 2.35589 30.7399 1.65406C31.8067 1.27928 32.6127 1.1715 33.6352 1.65406C35.0093 2.30247 35.5655 5.03197 35.5655 5.03197V15.407C35.5655 15.407 34.6151 16.9173 33.6352 17.3372C32.596 17.7826 31.8308 17.6347 30.7399 17.3372C29.4288 16.9796 28.3336 16.6749 27.8445 15.407C27.5394 14.6158 27.8445 13.2355 27.8445 13.2355C27.8445 13.2355 26.0033 14.4655 24.9492 15.407C15.7429 23.6293 23.7428 47.7384 23.7428 47.7384C23.7428 47.7384 27.6501 59.4255 33.6352 63.6628C38.3914 67.03 42.2872 67.4616 48.112 67.282C53.2996 67.122 56.6091 66.5829 60.8998 63.6628C64.8901 60.9472 66.2739 59.8181 68.6541 55.6191C75.7196 43.1552 76.5375 29.8649 69.5858 17.3372C68.6601 15.6689 66.9318 13.2355 66.9318 13.2355C66.9318 13.2355 66.662 14.637 66.2079 15.407C65.6664 16.3252 65.2575 16.9173 64.2777 17.3372C63.2384 17.7826 62.4395 17.7383 61.3823 17.3372C60.3215 16.9347 59.7433 16.4089 59.2108 15.407C58.8031 14.6399 58.7283 13.2355 58.7283 13.2355C58.7283 13.2355 57.4624 7.83596 58.7283 4.79069C59.1006 3.89489 59.1917 3.24302 59.9347 2.61917C60.4187 2.2127 60.7725 2.06165 61.3823 1.89534C62.2005 1.67221 62.7262 1.71065 63.5538 1.89534C64.2542 2.05162 64.7074 2.14137 65.2428 2.61917C65.9352 3.23708 66.0971 3.86932 66.2079 4.79069C66.2529 5.16489 66.2079 5.7558 66.2079 5.7558C66.2079 5.7558 69.1087 6.00461 70.7922 6.72092C72.7173 7.54005 73.7663 8.27545 75.1352 9.85755C76.7071 11.6742 77.9015 13.1742 78.7879 15.407C83.5855 27.4926 78.7879 48.7035 78.7879 48.7035C78.7879 48.7035 77.751 52.7619 76.8576 55.1365C75.7744 58.0159 74.5292 60.3436 72.7559 62.8575C70.7968 65.6347 69.5069 66.4302 66.9318 68.6482C64.8898 70.4068 63.2924 71.1087 60.8998 72.3488C58.9414 73.3638 57.7325 73.7478 55.5916 74.2791C53.8325 74.7156 51.0073 75.0029 51.0073 75.0029C51.0073 75.0029 50.1019 80.8513 51.0073 84.4128L51.0286 84.4965C51.3607 85.8033 51.5594 86.5851 52.2137 87.7907C53.1694 89.5513 54.047 90.3756 55.5916 91.6512C57.4124 93.1547 58.7673 93.2219 60.8998 93.9825C67.4398 96.3148 71.6087 95.8751 78.5466 96.154C85.1418 96.4191 89.1217 97.4339 95.4361 95.5116C98.5275 94.5705 102.433 93.7412 102.99 92.1337C103.772 89.8767 104.49 87.9128 105.149 86.2125C105.087 85.6784 105.054 85.0807 105.054 84.4128V59.3198C105.054 59.3198 101.944 58.1294 100.228 56.907C98.1112 55.3988 96.9835 54.309 95.644 52.0814C94.5528 50.2667 94.1095 49.0946 93.7137 47.0145C93.291 44.793 93.2786 43.443 93.7137 41.2238C94.3706 37.8733 95.4468 35.9619 97.8155 33.5029C100.419 30.8003 102.562 29.557 106.26 28.9186C109.727 28.32 111.964 28.7154 115.188 30.125C118.019 31.3634 119.62 32.4677 121.461 34.9506C123.045 37.0875 123.561 38.6219 124.115 41.2238C124.723 44.0809 124.883 45.8852 124.115 48.7035C123.372 51.4324 122.527 53.0088 120.496 54.9767C118.766 56.6521 117.283 56.928 115.188 58.1134C114.343 58.591 113.016 59.3198 113.016 59.3198V85.6192C113.016 85.6192 112.379 88.7946 111.568 90.686C110.702 92.7059 110.106 93.8452 108.673 95.5116C106.965 97.4981 105.657 98.3441 103.365 99.6134C100.914 100.971 99.2953 101.231 96.6091 102.026C82.7857 106.119 59.6934 102.026 59.6934 102.026C59.6934 102.026 54.8384 101.204 52.2137 99.6134C49.7631 98.1278 48.599 96.8584 46.9056 94.5465C45.287 92.3369 44.4443 90.9277 43.769 88.2732C43.4634 87.0722 43.4302 86.3676 43.2864 85.1366C42.8272 81.2059 43.2864 75.0029 43.2864 75.0029C43.2864 75.0029 40.1548 74.7791 38.2195 74.2791C34.9954 73.4461 33.3011 72.4585 30.4986 70.6599C27.5742 68.783 26.043 67.4737 23.7428 64.8692C21.6322 62.4794 20.5493 60.9824 19.1585 58.1134C17.8196 55.3516 17.0958 54.4807 16.2966 51.5173C15.9931 50.392 15.3496 49.517 15.0902 48.3807C12.2802 36.0712 10.7373 26.8741 16.0219 15.407C17.0638 13.1461 17.4461 11.6644 19.1585 9.85755C20.6507 8.28305 21.6853 7.40816 23.7428 6.72092C25.2726 6.20994 27.8445 6.23836 27.8445 6.23836Z" fill="#6C5D8F" stroke="#6C5D8F"/>
<path d="M117.116 44.2792C117.116 48.2045 113.73 51.4827 109.43 51.4827C105.131 51.4827 101.744 48.2045 101.744 44.2792C101.744 40.3539 105.131 37.0757 109.43 37.0757C113.73 37.0757 117.116 40.3539 117.116 44.2792Z" stroke="#574B74" stroke-width="2"/>
<mask id="path-3-inside-1_5269_323" fill="white">
<path fill-rule="evenodd" clip-rule="evenodd" d="M7.95889 56.9306C3.38749 53.9082 0.37207 48.7221 0.37207 42.8317C0.37207 33.5038 7.93377 25.9421 17.2616 25.9421C20.85 25.9421 24.1771 27.0612 26.9128 28.9694C29.6485 27.0612 32.9755 25.9421 36.5639 25.9421C45.8918 25.9421 53.4535 33.5038 53.4535 42.8317C53.4535 48.2164 50.9335 53.0126 47.0086 56.1053L47.038 56.106L25.9771 72.1695L7.95889 56.9306Z"/>
</mask>
<path fill-rule="evenodd" clip-rule="evenodd" d="M7.95889 56.9306C3.38749 53.9082 0.37207 48.7221 0.37207 42.8317C0.37207 33.5038 7.93377 25.9421 17.2616 25.9421C20.85 25.9421 24.1771 27.0612 26.9128 28.9694C29.6485 27.0612 32.9755 25.9421 36.5639 25.9421C45.8918 25.9421 53.4535 33.5038 53.4535 42.8317C53.4535 48.2164 50.9335 53.0126 47.0086 56.1053L47.038 56.106L25.9771 72.1695L7.95889 56.9306Z" fill="#9F204B"/>
<path d="M7.95889 56.9306L8.60465 56.167L8.55961 56.1289L8.5104 56.0964L7.95889 56.9306ZM26.9128 28.9694L26.3407 29.7896L26.9128 30.1887L27.4849 29.7896L26.9128 28.9694ZM47.0086 56.1053L46.3897 55.3198L44.2129 57.035L46.9834 57.105L47.0086 56.1053ZM47.038 56.106L47.6445 56.9012L49.9036 55.1781L47.0632 55.1064L47.038 56.106ZM25.9771 72.1695L25.3314 72.9331L25.9448 73.4519L26.5836 72.9647L25.9771 72.1695ZM8.5104 56.0964C4.20713 53.2513 1.37207 48.3723 1.37207 42.8317H-0.62793C-0.62793 49.0718 2.56786 54.5651 7.40738 57.7647L8.5104 56.0964ZM1.37207 42.8317C1.37207 34.0561 8.48606 26.9421 17.2616 26.9421V24.9421C7.38149 24.9421 -0.62793 32.9516 -0.62793 42.8317H1.37207ZM17.2616 26.9421C20.6389 26.9421 23.7673 27.9947 26.3407 29.7896L27.4849 28.1493C24.5868 26.1278 21.0612 24.9421 17.2616 24.9421V26.9421ZM27.4849 29.7896C30.0582 27.9947 33.1867 26.9421 36.5639 26.9421V24.9421C32.7644 24.9421 29.2388 26.1278 26.3407 28.1493L27.4849 29.7896ZM36.5639 26.9421C45.3395 26.9421 52.4535 34.0561 52.4535 42.8317H54.4535C54.4535 32.9516 46.444 24.9421 36.5639 24.9421V26.9421ZM52.4535 42.8317C52.4535 47.8971 50.0843 52.4086 46.3897 55.3198L47.6275 56.8908C51.7827 53.6166 54.4535 48.5357 54.4535 42.8317H52.4535ZM46.9834 57.105L47.0128 57.1057L47.0632 55.1064L47.0339 55.1056L46.9834 57.105ZM46.4316 55.3109L25.3707 71.3744L26.5836 72.9647L47.6445 56.9012L46.4316 55.3109ZM26.6229 71.406L8.60465 56.167L7.31312 57.6941L25.3314 72.9331L26.6229 71.406Z" fill="black" mask="url(#path-3-inside-1_5269_323)"/>
<path d="M1.57874 48.381L6.40432 40.9014L13.6427 51.5176L17.7444 46.6921L20.3985 49.8287H26.6718L29.3258 53.6892L33.4276 45.2444L36.0816 48.381H41.8723L44.7677 45.2444L47.1805 48.381H52.0061" stroke="white" stroke-width="2"/>
</svg>
