<svg class="special" width="52" height="52" viewBox="0 0 52 52" fill="none" xmlns="http://www.w3.org/2000/svg">
<path d="M36.8333 4.33334H15.1666C9.1835 4.33334 4.33325 9.18359 4.33325 15.1667V36.8333C4.33325 42.8164 9.1835 47.6667 15.1666 47.6667H36.8333C42.8163 47.6667 47.6666 42.8164 47.6666 36.8333V15.1667C47.6666 9.18359 42.8163 4.33334 36.8333 4.33334Z" stroke="white" stroke-width="2" stroke-linecap="round" stroke-linejoin="round"/>
<path class="special" d="M34.6666 24.635C34.934 26.4382 34.626 28.2798 33.7864 29.8979C32.9468 31.5159 31.6184 32.8281 29.9901 33.6476C28.3618 34.4672 26.5166 34.7525 24.7168 34.4629C22.917 34.1733 21.2544 33.3235 19.9654 32.0345C18.6764 30.7455 17.8267 29.0829 17.5371 27.2831C17.2475 25.4834 17.5327 23.6381 18.3523 22.0098C19.1719 20.3815 20.484 19.0531 22.1021 18.2135C23.7201 17.374 25.5617 17.066 27.3649 17.3333C29.2043 17.6061 30.9071 18.4632 32.2219 19.778C33.5368 21.0928 34.3939 22.7957 34.6666 24.635Z" stroke="white" stroke-width="2" stroke-linecap="round" stroke-linejoin="round"/>
<path class="special" d="M37.9167 14.0833H37.9384" stroke="white" stroke-width="2" stroke-linecap="round" stroke-linejoin="round"/>
</svg>
