<svg width="99" height="99" viewBox="0 0 99 99" fill="none" xmlns="http://www.w3.org/2000/svg">
<path d="M75.5648 97.0144H23.6876C23.6876 97.0144 23.8859 93.2406 25.1173 91.2956C26.7862 88.6597 31.8573 87.0066 31.8573 87.0066H68.6206C68.6206 87.0066 72.7134 88.9671 74.1351 91.2956C75.3346 93.2604 75.5648 97.0144 75.5648 97.0144Z" fill="black" stroke="#432684" stroke-width="2"/>
<path d="M43.0906 88.232L46.5627 11.4375H52.4856L56.5705 88.232H43.0906Z" fill="#6C5D8F" stroke="#432684" stroke-width="2"/>
<path d="M20.2156 16.9521C20.2156 16.9521 26.5643 17.175 30.4276 16.1351C33.806 15.2258 35.2516 13.4819 38.5972 12.4588C46.3772 10.0797 51.5953 10.2658 59.4298 12.4588C63.0103 13.461 64.6064 15.2279 68.2121 16.1351C72.3234 17.1695 79.0369 16.9521 79.0369 16.9521" stroke="#432684" stroke-width="3"/>
<path d="M2.03821 57.3917L20.2156 17.3605L38.1888 57.3917H2.03821Z" stroke="#4BA5D7" stroke-width="2"/>
<path d="M61.0637 57.1874L79.2411 17.1562L97.2143 57.1874H61.0637Z" stroke="#4BA5D7" stroke-width="2"/>
<path d="M38.7249 57.1374L1.11703 57.3335C1.11703 57.3335 5.41591 64.3961 10.2142 66.8483C17.2632 70.4508 24.4115 71.0369 31.1519 67.0478C35.578 64.4285 38.7249 57.1374 38.7249 57.1374Z" fill="#4BA5D7"/>
<path d="M98 57.3007L60.3933 57.0934C60.3933 57.0934 64.6488 63.207 69.4318 65.3627C76.4584 68.5297 83.6027 69.1049 90.3671 65.7435C94.8088 63.5363 98 57.3007 98 57.3007Z" fill="#4BA5D7"/>
<path d="M54.345 5.31026C54.345 7.65551 52.3597 9.62052 49.8305 9.62052C47.3013 9.62052 45.316 7.65551 45.316 5.31026C45.316 2.965 47.3013 1 49.8305 1C52.3597 1 54.345 2.965 54.345 5.31026Z" fill="black" stroke="#432684" stroke-width="2"/>
</svg>
