<svg width="856" height="851" viewBox="0 0 856 851" fill="none" xmlns="http://www.w3.org/2000/svg">
<path d="M170.476 564.621C89.5796 424.503 144.552 241.315 293.261 155.458C441.969 69.6006 628.101 113.587 708.998 253.705C789.895 393.822 734.923 577.011 586.214 662.868C437.505 748.725 251.373 704.738 170.476 564.621ZM706.083 255.388C626.062 116.787 441.945 73.2766 294.846 158.204C147.748 243.132 93.3703 424.337 173.391 562.938C253.412 701.538 437.53 745.049 584.628 660.122C731.727 575.194 786.105 393.989 706.083 255.388Z" fill="#6A4BA3"/>
<path d="M207.149 207.149C321.555 92.7438 511.874 97.5751 632.239 217.94C752.605 338.306 757.436 528.625 643.031 643.03C528.625 757.436 338.306 752.604 217.941 632.239C97.5754 511.874 92.744 321.555 207.149 207.149ZM640.671 640.671C753.838 527.504 749.059 339.245 629.997 220.183C510.935 101.121 322.676 96.3416 209.509 209.509C96.3419 322.676 101.121 510.934 220.183 629.997C339.245 749.059 527.504 753.838 640.671 640.671Z" fill="#6A4BA3"/>
<g filter="url(#filter0_d_5879_213)">
<ellipse cx="422" cy="418.5" rx="288" ry="279.5" fill="#C5C3CA"/>
</g>
<path fill-rule="evenodd" clip-rule="evenodd" d="M533.16 676.724C498.288 690.771 460.912 698 423.166 698V697.549C417.856 697.772 392.388 698.662 375.592 696.018C353.653 692.564 313.15 685.611 320.088 680.16C324.608 676.608 325.281 676.641 326.063 676.678C326.481 676.698 326.931 676.72 328.017 676.195C328.816 675.809 329.568 675.444 330.285 675.096C334.886 672.862 338.07 671.316 343.38 669.257C351.4 666.148 359.17 666.357 366.564 666.556C376.657 666.828 386.05 667.081 394.423 658.85C394.764 658.516 395.092 658.196 395.409 657.887C398.207 655.163 400.144 653.277 401.857 649.434C406.653 638.674 404.154 626.838 394.423 620.196C391.092 617.922 388.374 617.424 384.908 616.788C384.009 616.623 383.058 616.448 382.034 616.231C371.81 614.065 365.534 614.247 355.273 616.231C345.025 618.213 338.837 623.663 332.444 629.295C327.026 634.067 321.46 638.969 313.15 642.001C309.547 643.316 306.169 644.956 302.921 646.535C293.634 651.046 285.406 655.044 275.982 649.434C265.193 643.011 255.082 630.253 262.602 620.196C265.988 615.667 270.702 616.271 275.818 616.926C279.74 617.428 283.899 617.96 287.876 616.231C290.765 614.975 292.707 613.291 294.612 611.637C296.765 609.77 298.871 607.942 302.248 606.816C306.219 605.491 309.581 606.138 312.951 606.787C316.28 607.428 319.617 608.071 323.557 606.816C329.901 604.795 332.778 600.144 335.737 595.359C338.374 591.096 341.076 586.728 346.353 584.019C354.067 580.061 363.164 583.362 371.526 586.398C381.27 589.935 390.018 593.111 394.423 584.019C398.389 575.834 399.444 568.313 394.423 560.728C390.737 555.159 385.826 553.93 379.879 552.442C378.504 552.098 377.074 551.74 375.592 551.312C368.633 549.302 363.161 549.987 357.38 550.711C353.121 551.244 348.693 551.799 343.38 551.312C338.156 550.834 334.012 549.653 330.001 548.51C324.839 547.04 319.896 545.631 313.15 545.861C308.968 546.003 305.369 547.904 301.984 549.691C297.2 552.217 292.845 554.517 287.876 551.312C279.392 545.838 277.523 534.865 282.425 526.038C285.901 519.779 291.452 518.556 298.013 517.11C299.384 516.808 300.799 516.496 302.248 516.127C311.999 513.641 318.491 512.882 328.017 516.127C332.202 517.552 334.739 520.064 337.285 522.586C339.779 525.056 342.282 527.535 346.353 529.012C359.498 533.779 369.956 533.084 382.034 526.038C393.538 519.327 402.027 511.604 401.857 498.286C401.736 488.852 398.837 482.351 391.45 476.481C386.903 472.87 383.102 472.087 377.866 471.01C377.138 470.86 376.381 470.704 375.592 470.535C367.649 468.828 361.417 471.068 355.119 473.332C349.131 475.484 343.084 477.658 335.451 476.481C333.345 476.157 331.244 475.891 329.177 475.63C317.458 474.149 306.798 472.801 302.248 461.614C299.331 454.444 296.568 447.052 302.248 441.792C306.186 438.144 310.333 440.218 314.975 442.54C317.652 443.88 320.494 445.302 323.557 445.756C335.862 447.582 342.848 448.111 355.273 448.73C359.914 448.96 364.442 450.218 368.749 451.414C377.54 453.854 385.412 456.04 391.45 448.73C397.778 441.067 397.559 432.886 394.423 423.456C391.943 415.998 388.692 411.772 382.034 407.598C373.348 402.152 365.673 405.478 357.051 409.216C352.802 411.058 348.323 412.999 343.38 414.04C338.802 415.004 335.071 416.364 331.52 417.658C325.843 419.728 320.628 421.63 313.15 421.473C312.432 421.458 311.716 421.445 311.001 421.432C296.295 421.155 282.425 420.895 275.982 407.598C270.141 395.54 269.226 376.205 282.425 373.899C287.261 373.054 290.237 375.789 293.422 378.715C295.908 381 298.522 383.401 302.248 384.306C312.123 386.704 319.041 384.633 327.58 382.076C330.033 381.341 332.621 380.566 335.451 379.846C338.838 378.983 342.131 378.213 345.325 377.465C364.519 372.973 380.17 369.31 391.45 351.598C405.276 329.888 416.475 291.709 391.45 285.688C385.429 284.239 381.4 283.539 375.592 285.688C370.82 287.453 369.244 291.457 367.62 295.586C366.155 299.31 364.65 303.135 360.724 305.511C347.047 313.788 330.332 312.829 320.088 300.555C314.833 294.258 309.963 288.289 313.15 280.732C314.971 276.415 319.448 276.579 324.057 276.748C328.477 276.91 333.017 277.077 335.451 273.299C337.616 269.936 336.571 266.535 335.52 263.115C334.486 259.75 333.446 256.366 335.451 252.98C339.688 245.823 346.877 246.756 354.88 247.794C358.543 248.269 362.377 248.766 366.176 248.52C369.975 248.274 373.332 248.953 376.514 249.596C381.58 250.62 386.2 251.554 391.45 248.52C402.896 241.906 407.603 228.214 401.857 216.309C399.298 211.008 396.469 208.48 391.45 205.406C386.258 202.226 381.153 203.722 375.999 205.233C370.995 206.699 365.945 208.179 360.724 205.406C349.582 199.488 337.219 189.16 343.38 178.15C346.215 173.083 349.471 169.028 355.273 169.23C359.356 169.371 360.418 172.778 361.582 176.509C362.514 179.498 363.51 182.695 366.176 184.592C374.316 190.385 381.615 190.316 391.45 188.557C413.297 184.648 423.142 141.585 423.166 141.478C423.166 141.478 423.166 141.478 423.166 141.478L423.166 139C460.912 139 498.288 146.229 533.16 160.276C568.033 174.322 599.719 194.91 626.409 220.864C653.099 246.818 674.271 277.629 688.716 311.54C703.161 345.45 710.595 381.796 710.595 418.5C710.595 455.204 703.161 491.549 688.716 525.46C674.271 559.371 653.099 590.182 626.409 616.136C599.719 642.09 568.033 662.678 533.16 676.724Z" fill="url(#paint0_linear_5879_213)"/>
<defs>
<filter id="filter0_d_5879_213" x="118" y="127" width="608" height="591" filterUnits="userSpaceOnUse" color-interpolation-filters="sRGB">
<feFlood flood-opacity="0" result="BackgroundImageFix"/>
<feColorMatrix in="SourceAlpha" type="matrix" values="0 0 0 0 0 0 0 0 0 0 0 0 0 0 0 0 0 0 127 0" result="hardAlpha"/>
<feOffset dy="4"/>
<feGaussianBlur stdDeviation="8"/>
<feComposite in2="hardAlpha" operator="out"/>
<feColorMatrix type="matrix" values="0 0 0 0 0.262708 0 0 0 0 0.262708 0 0 0 0 0.325 0 0 0 1 0"/>
<feBlend mode="normal" in2="BackgroundImageFix" result="effect1_dropShadow_5879_213"/>
<feBlend mode="normal" in="SourceGraphic" in2="effect1_dropShadow_5879_213" result="shape"/>
</filter>
<linearGradient id="paint0_linear_5879_213" x1="288" y1="213" x2="646.5" y2="698" gradientUnits="userSpaceOnUse">
<stop stop-color="#142132"/>
<stop offset="0.65625" stop-color="#40315C"/>
<stop offset="1" stop-color="#142132"/>
</linearGradient>
</defs>
</svg>
