<svg width="71" height="107" viewBox="0 0 71 107" fill="none" xmlns="http://www.w3.org/2000/svg">
<rect x="19.7209" y="88.7499" width="31.5556" height="3.94444" rx="1.97222" fill="#4BA5D7"/>
<rect x="21.6948" y="95.6528" width="27.6111" height="3.94444" rx="1.97222" fill="#4BA5D7"/>
<rect x="26.6255" y="102.556" width="17.75" height="3.94444" rx="1.97222" fill="#4BA5D7"/>
<path fill-rule="evenodd" clip-rule="evenodd" d="M60.9852 58.5408C67.1841 52.3272 71 43.8538 71 34.5139C71 15.4524 55.1061 0 35.5 0C15.8939 0 0 15.4524 0 34.5139C0 43.743 3.72595 52.1261 9.79519 58.3188C11.3892 61.0126 14.9476 67.2896 16.4086 72C18.0615 77.3291 18.6882 86 18.6882 86H52.8817C52.8817 86 52.8329 76.6813 54.5914 71C55.9126 66.7315 59.2839 61.1893 60.9852 58.5408Z" fill="#282F3A"/>
<path d="M33.0362 73.6022V41.5536C33.0362 41.5536 29.1652 38.9378 26.6265 39.5814C24.379 40.1512 21.8348 42.6903 21.6987 45.0049C21.5548 47.4515 25.2644 51.2035 27.6118 51.9077C32.5424 53.3869 38.6618 53.8689 42.8972 49.9355C44.9804 48.0008 46.4725 45.9735 46.3487 43.5258C46.2453 41.4816 44.8385 40.2305 42.8973 39.5814C40.5875 38.8089 36.9807 41.5536 36.9807 41.5536V73.6022" stroke="white"/>
</svg>
