<svg width="1045" height="370" viewBox="0 0 1045 370" fill="none" xmlns="http://www.w3.org/2000/svg">
<path d="M26.5081 129L26.5081 205.818L2.99993 226.623L2.99993 298.241L35.4412 322.246V339.851" stroke="#D9D9D9" stroke-width="6"/>
<path d="M52 353.5C52 362.613 44.6127 370 35.5 370C26.3873 370 19 362.613 19 353.5C19 344.387 26.3873 337 35.5 337C44.6127 337 52 344.387 52 353.5ZM22.3137 353.5C22.3137 360.783 28.2174 366.686 35.5 366.686C42.7826 366.686 48.6863 360.783 48.6863 353.5C48.6863 346.217 42.7826 340.314 35.5 340.314C28.2174 340.314 22.3137 346.217 22.3137 353.5Z" fill="#D9D9D9"/>
<path d="M381 135V210.5L353 234V288" stroke="#D9D9D9" stroke-width="6"/>
<path d="M980 129V187.827L1028 246.654V340" stroke="#D9D9D9" stroke-width="6"/>
<path d="M370 301.5C370 310.613 362.613 318 353.5 318C344.387 318 337 310.613 337 301.5C337 292.387 344.387 285 353.5 285C362.613 285 370 292.387 370 301.5ZM340.314 301.5C340.314 308.783 346.217 314.686 353.5 314.686C360.783 314.686 366.686 308.783 366.686 301.5C366.686 294.217 360.783 288.314 353.5 288.314C346.217 288.314 340.314 294.217 340.314 301.5Z" fill="#D9D9D9"/>
<path d="M672 335.5C672 344.613 664.613 352 655.5 352C646.387 352 639 344.613 639 335.5C639 326.387 646.387 319 655.5 319C664.613 319 672 326.387 672 335.5ZM642.314 335.5C642.314 342.783 648.217 348.686 655.5 348.686C662.783 348.686 668.686 342.783 668.686 335.5C668.686 328.217 662.783 322.314 655.5 322.314C648.217 322.314 642.314 328.217 642.314 335.5Z" fill="#D9D9D9"/>
<path d="M1045 353.5C1045 362.613 1037.61 370 1028.5 370C1019.39 370 1012 362.613 1012 353.5C1012 344.387 1019.39 337 1028.5 337C1037.61 337 1045 344.387 1045 353.5ZM1015.31 353.5C1015.31 360.783 1021.22 366.686 1028.5 366.686C1035.78 366.686 1041.69 360.783 1041.69 353.5C1041.69 346.217 1035.78 340.314 1028.5 340.314C1021.22 340.314 1015.31 346.217 1015.31 353.5Z" fill="#D9D9D9"/>
<path d="M511 16.5C511 25.6127 503.613 33 494.5 33C485.387 33 478 25.6127 478 16.5C478 7.3873 485.387 0 494.5 0C503.613 0 511 7.3873 511 16.5ZM481.314 16.5C481.314 23.7826 487.217 29.6863 494.5 29.6863C501.783 29.6863 507.686 23.7826 507.686 16.5C507.686 9.21739 501.783 3.31367 494.5 3.31367C487.217 3.31367 481.314 9.21739 481.314 16.5Z" fill="#D9D9D9"/>
<line x1="24" y1="132" x2="980" y2="132" stroke="#D9D9D9" stroke-width="6"/>
<line x1="495" y1="32" x2="495" y2="135" stroke="#D9D9D9" stroke-width="6"/>
<path d="M649.5 133.5V173.5L678.5 207V268.5L657 297.5V322" stroke="#D9D9D9" stroke-width="6"/>
</svg>
