<svg width="1305" height="672" viewBox="0 0 1305 672" fill="none" xmlns="http://www.w3.org/2000/svg">
<path fill-rule="evenodd" clip-rule="evenodd" d="M338.46 144.175L337.896 144.654L337.737 144.338C337.338 144.406 336.93 144.442 336.515 144.442C331.812 144.442 328 139.889 328 134.273C328 132.017 328.615 129.933 329.656 128.246L329.622 128.178L329.762 128.077C331.05 126.078 332.946 124.667 335.12 124.24L508 0.412917L343.699 139.733C342.523 141.936 340.655 143.562 338.46 144.175Z" fill="url(#paint0_linear_7154_4722)" fill-opacity="0.1"/>
<path fill-rule="evenodd" clip-rule="evenodd" d="M955.46 671.257L954.896 671.736L954.737 671.419C954.338 671.488 953.93 671.523 953.515 671.523C948.812 671.523 945 666.971 945 661.354C945 659.099 945.615 657.014 946.656 655.328L946.622 655.26L946.762 655.159C948.05 653.16 949.946 651.749 952.12 651.321L1125 527.495L960.699 666.814C959.523 669.018 957.655 670.644 955.46 671.257Z" fill="url(#paint1_linear_7154_4722)" fill-opacity="0.1"/>
<path fill-rule="evenodd" clip-rule="evenodd" d="M557.46 449.514L556.896 449.993L556.737 449.677C556.338 449.745 555.93 449.781 555.515 449.781C550.812 449.781 547 445.228 547 439.612C547 437.356 547.615 435.272 548.656 433.585L548.622 433.517L548.762 433.416C550.05 431.417 551.946 430.007 554.12 429.579L727 305.752L562.699 445.072C561.523 447.276 559.655 448.902 557.46 449.514Z" fill="url(#paint2_linear_7154_4722)" fill-opacity="0.1"/>
<path fill-rule="evenodd" clip-rule="evenodd" d="M10.4604 507.239L9.89551 507.718L9.7367 507.402C9.33765 507.47 8.92965 507.506 8.51473 507.506C3.81217 507.506 0 502.953 0 497.337C0 495.081 0.615031 492.997 1.65576 491.31L1.62152 491.242L1.76236 491.141C3.05019 489.142 4.94638 487.732 7.12005 487.304L180 363.477L15.6994 502.797C14.5227 505.001 12.6548 506.627 10.4604 507.239Z" fill="url(#paint3_linear_7154_4722)" fill-opacity="0.5"/>
<path fill-rule="evenodd" clip-rule="evenodd" d="M1135.46 238.359L1134.9 238.838L1134.74 238.521C1134.34 238.59 1133.93 238.625 1133.51 238.625C1128.81 238.625 1125 234.073 1125 228.456C1125 226.201 1125.62 224.116 1126.66 222.43L1126.62 222.362L1126.76 222.261C1128.05 220.262 1129.95 218.851 1132.12 218.423L1305 94.5966L1140.7 233.916C1139.52 236.12 1137.65 237.746 1135.46 238.359Z" fill="url(#paint4_linear_7154_4722)"/>
<path d="M325.953 357.189C322.103 357.189 318.715 356.445 315.789 354.956C312.863 353.416 310.604 351.286 309.013 348.565C307.422 345.845 306.626 342.688 306.626 339.094V320.075C306.626 316.482 307.422 313.325 309.013 310.604C310.604 307.884 312.863 305.779 315.789 304.29C318.715 302.802 322.103 302.057 325.953 302.057C329.752 302.057 333.114 302.776 336.04 304.213C338.966 305.651 341.225 307.678 342.816 310.296C344.407 312.914 345.203 315.943 345.203 319.382C345.203 319.639 345.1 319.87 344.895 320.075C344.741 320.229 344.536 320.306 344.279 320.306L337.195 320.691C336.579 320.691 336.271 320.409 336.271 319.844C336.271 316.816 335.321 314.377 333.422 312.529C331.574 310.681 329.084 309.757 325.953 309.757C322.822 309.757 320.306 310.681 318.407 312.529C316.508 314.377 315.558 316.816 315.558 319.844V339.479C315.558 342.457 316.508 344.869 318.407 346.717C320.306 348.565 322.822 349.489 325.953 349.489C329.084 349.489 331.574 348.591 333.422 346.794C335.321 344.946 336.271 342.508 336.271 339.479C336.271 338.915 336.579 338.632 337.195 338.632L344.279 338.94C344.536 338.94 344.741 339.017 344.895 339.171C345.1 339.325 345.203 339.505 345.203 339.71C345.203 343.201 344.407 346.281 342.816 348.95C341.225 351.568 338.966 353.596 336.04 355.033C333.114 356.471 329.752 357.189 325.953 357.189ZM385.043 356.573C384.529 356.573 384.17 356.342 383.965 355.88L373.801 333.704C373.698 333.499 373.544 333.396 373.339 333.396H364.099C363.842 333.396 363.714 333.525 363.714 333.781V355.649C363.714 355.906 363.611 356.137 363.406 356.342C363.252 356.496 363.046 356.573 362.79 356.573H355.706C355.449 356.573 355.218 356.496 355.013 356.342C354.859 356.137 354.782 355.906 354.782 355.649V303.597C354.782 303.341 354.859 303.135 355.013 302.981C355.218 302.776 355.449 302.673 355.706 302.673H376.881C380.012 302.673 382.784 303.341 385.197 304.675C387.609 305.959 389.483 307.807 390.818 310.219C392.152 312.581 392.82 315.301 392.82 318.381C392.82 321.923 391.896 324.952 390.048 327.467C388.251 329.931 385.736 331.651 382.502 332.626C382.399 332.626 382.322 332.678 382.271 332.78C382.219 332.883 382.219 332.986 382.271 333.088L393.128 355.495C393.23 355.701 393.282 355.855 393.282 355.957C393.282 356.368 392.999 356.573 392.435 356.573H385.043ZM364.099 310.373C363.842 310.373 363.714 310.502 363.714 310.758V326.081C363.714 326.338 363.842 326.466 364.099 326.466H375.649C378.113 326.466 380.089 325.748 381.578 324.31C383.118 322.822 383.888 320.871 383.888 318.458C383.888 316.046 383.118 314.095 381.578 312.606C380.089 311.118 378.113 310.373 375.649 310.373H364.099ZM420.869 357.189C417.071 357.189 413.708 356.445 410.782 354.956C407.856 353.468 405.572 351.363 403.929 348.642C402.338 345.87 401.542 342.688 401.542 339.094V303.597C401.542 303.341 401.619 303.135 401.773 302.981C401.979 302.776 402.21 302.673 402.466 302.673H409.55C409.807 302.673 410.012 302.776 410.166 302.981C410.372 303.135 410.474 303.341 410.474 303.597V339.248C410.474 342.277 411.424 344.741 413.323 346.64C415.223 348.54 417.738 349.489 420.869 349.489C424.001 349.489 426.516 348.54 428.415 346.64C430.315 344.741 431.264 342.277 431.264 339.248V303.597C431.264 303.341 431.341 303.135 431.495 302.981C431.701 302.776 431.932 302.673 432.188 302.673H439.272C439.529 302.673 439.734 302.776 439.888 302.981C440.094 303.135 440.196 303.341 440.196 303.597V339.094C440.196 342.688 439.401 345.87 437.809 348.642C436.218 351.363 433.959 353.468 431.033 354.956C428.107 356.445 424.719 357.189 420.869 357.189ZM449.108 356.573C448.852 356.573 448.621 356.496 448.415 356.342C448.261 356.137 448.184 355.906 448.184 355.649V349.104C448.184 348.745 448.313 348.36 448.569 347.949L474.518 310.835C474.621 310.733 474.647 310.63 474.595 310.527C474.544 310.425 474.441 310.373 474.287 310.373H449.108C448.852 310.373 448.621 310.296 448.415 310.142C448.261 309.937 448.184 309.706 448.184 309.449V303.597C448.184 303.341 448.261 303.135 448.415 302.981C448.621 302.776 448.852 302.673 449.108 302.673H483.758C484.015 302.673 484.22 302.776 484.374 302.981C484.58 303.135 484.682 303.341 484.682 303.597V310.142C484.682 310.502 484.554 310.887 484.297 311.297L458.348 348.411C458.246 348.514 458.22 348.617 458.271 348.719C458.323 348.822 458.425 348.873 458.579 348.873H483.758C484.015 348.873 484.22 348.976 484.374 349.181C484.58 349.335 484.682 349.541 484.682 349.797V355.649C484.682 355.906 484.58 356.137 484.374 356.342C484.22 356.496 484.015 356.573 483.758 356.573H449.108ZM522.929 303.597C522.929 303.341 523.006 303.135 523.16 302.981C523.366 302.776 523.597 302.673 523.853 302.673H530.937C531.194 302.673 531.399 302.776 531.553 302.981C531.759 303.135 531.861 303.341 531.861 303.597V355.649C531.861 355.906 531.759 356.137 531.553 356.342C531.399 356.496 531.194 356.573 530.937 356.573H523.853C523.597 356.573 523.366 356.496 523.16 356.342C523.006 356.137 522.929 355.906 522.929 355.649V333.627C522.929 333.371 522.801 333.242 522.544 333.242H502.909C502.653 333.242 502.524 333.371 502.524 333.627V355.649C502.524 355.906 502.422 356.137 502.216 356.342C502.062 356.496 501.857 356.573 501.6 356.573H494.516C494.26 356.573 494.029 356.496 493.823 356.342C493.669 356.137 493.592 355.906 493.592 355.649V303.597C493.592 303.341 493.669 303.135 493.823 302.981C494.029 302.776 494.26 302.673 494.516 302.673H501.6C501.857 302.673 502.062 302.776 502.216 302.981C502.422 303.135 502.524 303.341 502.524 303.597V325.157C502.524 325.414 502.653 325.542 502.909 325.542H522.544C522.801 325.542 522.929 325.414 522.929 325.157V303.597ZM576.338 356.573C575.825 356.573 575.491 356.317 575.337 355.803L572.796 347.564C572.694 347.359 572.565 347.256 572.411 347.256H552.083C551.929 347.256 551.801 347.359 551.698 347.564L549.157 355.803C549.003 356.317 548.67 356.573 548.156 356.573H540.456C540.148 356.573 539.917 356.496 539.763 356.342C539.609 356.137 539.584 355.855 539.686 355.495L556.395 303.443C556.549 302.93 556.883 302.673 557.396 302.673H567.021C567.535 302.673 567.868 302.93 568.022 303.443L584.808 355.495C584.86 355.598 584.885 355.726 584.885 355.88C584.885 356.342 584.603 356.573 584.038 356.573H576.338ZM554.085 339.787C554.034 340.095 554.137 340.249 554.393 340.249H570.024C570.332 340.249 570.435 340.095 570.332 339.787L562.401 313.992C562.35 313.787 562.273 313.684 562.17 313.684C562.068 313.684 561.991 313.787 561.939 313.992L554.085 339.787ZM609.514 357.189C605.664 357.189 602.276 356.445 599.35 354.956C596.424 353.416 594.166 351.286 592.574 348.565C590.983 345.845 590.187 342.688 590.187 339.094V320.075C590.187 316.482 590.983 313.325 592.574 310.604C594.166 307.884 596.424 305.779 599.35 304.29C602.276 302.802 605.664 302.057 609.514 302.057C613.313 302.057 616.675 302.776 619.601 304.213C622.527 305.651 624.786 307.678 626.377 310.296C627.969 312.914 628.764 315.943 628.764 319.382C628.764 319.639 628.662 319.87 628.456 320.075C628.302 320.229 628.097 320.306 627.84 320.306L620.756 320.691C620.14 320.691 619.832 320.409 619.832 319.844C619.832 316.816 618.883 314.377 616.983 312.529C615.135 310.681 612.646 309.757 609.514 309.757C606.383 309.757 603.868 310.681 601.968 312.529C600.069 314.377 599.119 316.816 599.119 319.844V339.479C599.119 342.457 600.069 344.869 601.968 346.717C603.868 348.565 606.383 349.489 609.514 349.489C612.646 349.489 615.135 348.591 616.983 346.794C618.883 344.946 619.832 342.508 619.832 339.479C619.832 338.915 620.14 338.632 620.756 338.632L627.84 338.94C628.097 338.94 628.302 339.017 628.456 339.171C628.662 339.325 628.764 339.505 628.764 339.71C628.764 343.201 627.969 346.281 626.377 348.95C624.786 351.568 622.527 353.596 619.601 355.033C616.675 356.471 613.313 357.189 609.514 357.189ZM639.267 356.573C639.011 356.573 638.78 356.496 638.574 356.342C638.42 356.137 638.343 355.906 638.343 355.649V303.597C638.343 303.341 638.42 303.135 638.574 302.981C638.78 302.776 639.011 302.673 639.267 302.673H646.351C646.608 302.673 646.813 302.776 646.967 302.981C647.173 303.135 647.275 303.341 647.275 303.597V326.62C647.275 326.774 647.327 326.877 647.429 326.928C647.532 326.98 647.635 326.954 647.737 326.851L667.757 303.212C668.065 302.853 668.45 302.673 668.912 302.673H676.92C677.434 302.673 677.69 302.853 677.69 303.212C677.69 303.366 677.613 303.572 677.459 303.828L659.826 325.465C659.672 325.671 659.647 325.85 659.749 326.004L678.691 355.495C678.794 355.803 678.845 355.983 678.845 356.034C678.845 356.394 678.589 356.573 678.075 356.573H669.99C669.528 356.573 669.169 356.368 668.912 355.957L653.666 332.241C653.461 331.933 653.281 331.908 653.127 332.164L647.429 338.786C647.327 338.992 647.275 339.171 647.275 339.325V355.649C647.275 355.906 647.173 356.137 646.967 356.342C646.813 356.496 646.608 356.573 646.351 356.573H639.267ZM702.216 357.189C698.212 357.189 694.721 356.548 691.744 355.264C688.767 353.981 686.457 352.184 684.814 349.874C683.223 347.564 682.427 344.844 682.427 341.712V339.787C682.427 339.531 682.504 339.325 682.658 339.171C682.863 338.966 683.094 338.863 683.351 338.863H690.204C690.461 338.863 690.666 338.966 690.82 339.171C691.025 339.325 691.128 339.531 691.128 339.787V341.25C691.128 343.612 692.18 345.588 694.285 347.179C696.39 348.719 699.264 349.489 702.909 349.489C706.04 349.489 708.402 348.822 709.993 347.487C711.584 346.153 712.38 344.433 712.38 342.328C712.38 340.891 711.944 339.685 711.071 338.709C710.198 337.683 708.941 336.759 707.298 335.937C705.707 335.116 703.294 334.089 700.06 332.857C696.415 331.523 693.464 330.265 691.205 329.084C688.946 327.904 687.047 326.312 685.507 324.31C684.018 322.257 683.274 319.716 683.274 316.687C683.274 312.17 684.917 308.602 688.202 305.984C691.487 303.366 695.876 302.057 701.369 302.057C705.219 302.057 708.607 302.725 711.533 304.059C714.51 305.394 716.82 307.268 718.463 309.68C720.106 312.042 720.927 314.788 720.927 317.919V319.228C720.927 319.485 720.824 319.716 720.619 319.921C720.465 320.075 720.26 320.152 720.003 320.152H713.073C712.816 320.152 712.585 320.075 712.38 319.921C712.226 319.716 712.149 319.485 712.149 319.228V318.381C712.149 315.969 711.148 313.941 709.146 312.298C707.195 310.604 704.475 309.757 700.984 309.757C698.161 309.757 695.953 310.348 694.362 311.528C692.822 312.709 692.052 314.377 692.052 316.533C692.052 318.073 692.463 319.331 693.284 320.306C694.105 321.282 695.337 322.18 696.98 323.001C698.623 323.771 701.164 324.772 704.603 326.004C708.248 327.39 711.148 328.648 713.304 329.777C715.511 330.907 717.385 332.498 718.925 334.551C720.516 336.553 721.312 339.069 721.312 342.097C721.312 346.717 719.592 350.388 716.153 353.108C712.765 355.829 708.119 357.189 702.216 357.189Z" fill="white"/>
<path d="M818.953 345.838C818.851 345.941 818.799 346.043 818.799 346.146C818.851 346.249 818.953 346.3 819.107 346.3H841.052C841.309 346.3 841.514 346.403 841.668 346.608C841.874 346.762 841.976 346.967 841.976 347.224V353.076C841.976 353.333 841.874 353.564 841.668 353.769C841.514 353.923 841.309 354 841.052 354H807.942C807.686 354 807.455 353.923 807.249 353.769C807.095 353.564 807.018 353.333 807.018 353.076V347.532C807.018 347.07 807.172 346.685 807.48 346.377C811.382 342.219 815.899 337.111 821.032 331.054L824.651 326.819C829.374 321.326 831.735 317.168 831.735 314.345C831.735 312.24 830.991 310.521 829.502 309.186C828.014 307.851 826.089 307.184 823.727 307.184C821.366 307.184 819.441 307.851 817.952 309.186C816.515 310.521 815.796 312.292 815.796 314.499V316.501C815.796 316.758 815.694 316.989 815.488 317.194C815.334 317.348 815.129 317.425 814.872 317.425H807.711C807.455 317.425 807.224 317.348 807.018 317.194C806.864 316.989 806.787 316.758 806.787 316.501V313.19C806.89 310.418 807.686 308.005 809.174 305.952C810.663 303.899 812.665 302.307 815.18 301.178C817.747 300.049 820.596 299.484 823.727 299.484C827.167 299.484 830.17 300.126 832.736 301.409C835.303 302.692 837.279 304.463 838.665 306.722C840.051 308.929 840.744 311.419 840.744 314.191C840.744 318.4 838.511 323.251 834.045 328.744C831.581 331.824 827.526 336.444 821.879 342.604L818.953 345.838ZM867.37 354.847C861.98 354.847 857.693 353.333 854.511 350.304C851.379 347.224 849.814 343.092 849.814 337.907V316.193C849.814 311.06 851.379 307.004 854.511 304.027C857.693 300.998 861.98 299.484 867.37 299.484C872.76 299.484 877.046 300.998 880.229 304.027C883.463 307.004 885.08 311.06 885.08 316.193V337.907C885.08 343.092 883.463 347.224 880.229 350.304C877.046 353.333 872.76 354.847 867.37 354.847ZM867.37 347.07C870.039 347.07 872.169 346.3 873.761 344.76C875.352 343.169 876.148 341.038 876.148 338.369V315.885C876.148 313.216 875.352 311.111 873.761 309.571C872.169 307.98 870.039 307.184 867.37 307.184C864.752 307.184 862.647 307.98 861.056 309.571C859.516 311.111 858.746 313.216 858.746 315.885V338.369C858.746 341.038 859.516 343.169 861.056 344.76C862.647 346.3 864.752 347.07 867.37 347.07ZM905.127 345.838C905.025 345.941 904.973 346.043 904.973 346.146C905.025 346.249 905.127 346.3 905.281 346.3H927.226C927.483 346.3 927.688 346.403 927.842 346.608C928.048 346.762 928.15 346.967 928.15 347.224V353.076C928.15 353.333 928.048 353.564 927.842 353.769C927.688 353.923 927.483 354 927.226 354H894.116C893.86 354 893.629 353.923 893.423 353.769C893.269 353.564 893.192 353.333 893.192 353.076V347.532C893.192 347.07 893.346 346.685 893.654 346.377C897.556 342.219 902.073 337.111 907.206 331.054L910.825 326.819C915.548 321.326 917.909 317.168 917.909 314.345C917.909 312.24 917.165 310.521 915.676 309.186C914.188 307.851 912.263 307.184 909.901 307.184C907.54 307.184 905.615 307.851 904.126 309.186C902.689 310.521 901.97 312.292 901.97 314.499V316.501C901.97 316.758 901.868 316.989 901.662 317.194C901.508 317.348 901.303 317.425 901.046 317.425H893.885C893.629 317.425 893.398 317.348 893.192 317.194C893.038 316.989 892.961 316.758 892.961 316.501V313.19C893.064 310.418 893.86 308.005 895.348 305.952C896.837 303.899 898.839 302.307 901.354 301.178C903.921 300.049 906.77 299.484 909.901 299.484C913.341 299.484 916.344 300.126 918.91 301.409C921.477 302.692 923.453 304.463 924.839 306.722C926.225 308.929 926.918 311.419 926.918 314.191C926.918 318.4 924.685 323.251 920.219 328.744C917.755 331.824 913.7 336.444 908.053 342.604L905.127 345.838ZM966.345 328.359C967.372 330.823 967.885 333.646 967.885 336.829C967.885 339.704 967.449 342.245 966.576 344.452C965.396 347.686 963.445 350.201 960.724 351.998C958.004 353.743 954.718 354.616 950.868 354.616C947.07 354.616 943.759 353.666 940.935 351.767C938.163 349.816 936.187 347.198 935.006 343.913C934.39 342.322 934.031 340.243 933.928 337.676C933.928 337.06 934.236 336.752 934.852 336.752H942.013C942.629 336.752 942.937 337.06 942.937 337.676C943.04 339.319 943.297 340.628 943.707 341.603C944.169 343.246 945.016 344.555 946.248 345.53C947.532 346.454 949.072 346.916 950.868 346.916C954.256 346.916 956.592 345.376 957.875 342.296C958.543 340.807 958.876 338.882 958.876 336.521C958.876 333.903 958.491 331.747 957.721 330.053C956.387 327.178 954.077 325.741 950.791 325.741C949.919 325.741 948.738 326.254 947.249 327.281C947.044 327.384 946.864 327.435 946.71 327.435C946.454 327.435 946.197 327.281 945.94 326.973L942.398 322.045C942.244 321.788 942.167 321.583 942.167 321.429C942.167 321.172 942.27 320.941 942.475 320.736L955.18 308.262C955.283 308.159 955.309 308.057 955.257 307.954C955.206 307.851 955.103 307.8 954.949 307.8H935.699C935.443 307.8 935.212 307.723 935.006 307.569C934.852 307.364 934.775 307.133 934.775 306.876V301.024C934.775 300.767 934.852 300.562 935.006 300.408C935.212 300.203 935.443 300.1 935.699 300.1H966.422C966.679 300.1 966.884 300.203 967.038 300.408C967.244 300.562 967.346 300.767 967.346 301.024V307.723C967.346 308.185 967.192 308.57 966.884 308.878L955.873 319.966C955.668 320.171 955.771 320.325 956.181 320.428C960.955 321.095 964.343 323.739 966.345 328.359Z" fill="white"/>
<path d="M732.277 319.729V302.274H734.911V317.461H742.82V319.729H732.277ZM748.457 302.274V319.729H745.824V302.274H748.457ZM753.818 302.274L758.676 316.49H758.872L763.73 302.274H766.577L760.295 319.729H757.253L750.972 302.274H753.818ZM769.097 319.729V302.274H780.04V304.541H771.731V309.859H779.469V312.118H771.731V317.461H780.143V319.729H769.097Z" fill="white"/>
<path d="M514.736 235.432C512.496 235.432 510.528 235 508.832 234.136C507.136 233.24 505.808 231.992 504.848 230.392C503.92 228.76 503.456 226.888 503.456 224.776V211.576C503.456 209.496 503.92 207.656 504.848 206.056C505.808 204.456 507.136 203.224 508.832 202.36C510.528 201.464 512.496 201.016 514.736 201.016C516.976 201.016 518.944 201.448 520.64 202.312C522.336 203.176 523.648 204.392 524.576 205.96C525.536 207.528 526.016 209.336 526.016 211.384C526.016 211.544 525.968 211.672 525.872 211.768C525.776 211.864 525.664 211.912 525.536 211.912L523.088 212.056C522.768 212.056 522.608 211.912 522.608 211.624V211.48C522.608 209.208 521.888 207.4 520.448 206.056C519.008 204.68 517.104 203.992 514.736 203.992C512.368 203.992 510.464 204.68 509.024 206.056C507.584 207.432 506.864 209.24 506.864 211.48V224.92C506.864 227.16 507.584 228.968 509.024 230.344C510.464 231.72 512.368 232.408 514.736 232.408C517.104 232.408 519.008 231.736 520.448 230.392C521.888 229.016 522.608 227.192 522.608 224.92V224.824C522.608 224.536 522.768 224.392 523.088 224.392L525.536 224.536C525.856 224.536 526.016 224.68 526.016 224.968C526.016 227.048 525.536 228.888 524.576 230.488C523.648 232.056 522.336 233.272 520.64 234.136C518.944 235 516.976 235.432 514.736 235.432ZM542.213 235.384C539.909 235.384 537.925 234.792 536.261 233.608C534.597 232.424 533.445 230.792 532.805 228.712C532.357 227.24 532.133 225.272 532.133 222.808C532.133 220.344 532.357 218.392 532.805 216.952C533.413 214.904 534.549 213.288 536.213 212.104C537.877 210.92 539.893 210.328 542.261 210.328C544.533 210.328 546.485 210.92 548.117 212.104C549.781 213.288 550.917 214.888 551.525 216.904C551.973 218.28 552.197 220.248 552.197 222.808C552.197 225.4 551.973 227.368 551.525 228.712C550.917 230.792 549.781 232.424 548.117 233.608C546.485 234.792 544.517 235.384 542.213 235.384ZM542.213 232.408C543.749 232.408 545.061 231.992 546.149 231.16C547.237 230.296 547.973 229.144 548.357 227.704C548.645 226.552 548.789 224.936 548.789 222.856C548.789 220.744 548.661 219.128 548.405 218.008C548.021 216.568 547.269 215.432 546.149 214.6C545.061 213.736 543.733 213.304 542.165 213.304C540.597 213.304 539.269 213.736 538.181 214.6C537.093 215.432 536.357 216.568 535.973 218.008C535.717 219.128 535.589 220.744 535.589 222.856C535.589 224.968 535.717 226.584 535.973 227.704C536.325 229.144 537.045 230.296 538.133 231.16C539.253 231.992 540.613 232.408 542.213 232.408ZM583.682 210.376C586.082 210.376 587.97 211.096 589.346 212.536C590.754 213.976 591.458 215.944 591.458 218.44V234.52C591.458 234.84 591.298 235 590.978 235H588.578C588.258 235 588.098 234.84 588.098 234.52V219.112C588.098 217.352 587.586 215.96 586.562 214.936C585.57 213.88 584.258 213.352 582.626 213.352C580.93 213.352 579.554 213.864 578.498 214.888C577.474 215.912 576.962 217.288 576.962 219.016V234.52C576.962 234.84 576.802 235 576.482 235H574.034C573.714 235 573.554 234.84 573.554 234.52V219.112C573.554 217.352 573.058 215.96 572.066 214.936C571.074 213.88 569.746 213.352 568.082 213.352C566.386 213.352 565.026 213.864 564.002 214.888C563.01 215.912 562.514 217.288 562.514 219.016V234.52C562.514 234.84 562.354 235 562.034 235H559.586C559.266 235 559.106 234.84 559.106 234.52V211.192C559.106 210.872 559.266 210.712 559.586 210.712H562.034C562.354 210.712 562.514 210.872 562.514 211.192V213.112C562.514 213.176 562.53 213.224 562.562 213.256C562.626 213.256 562.69 213.224 562.754 213.16C563.458 212.232 564.354 211.544 565.442 211.096C566.562 210.616 567.794 210.376 569.138 210.376C570.802 210.376 572.226 210.712 573.41 211.384C574.594 212.056 575.49 213.032 576.098 214.312C576.162 214.472 576.242 214.472 576.338 214.312C577.042 213 578.034 212.024 579.314 211.384C580.594 210.712 582.05 210.376 583.682 210.376ZM601.113 206.296C600.345 206.296 599.705 206.04 599.193 205.528C598.681 205.016 598.425 204.376 598.425 203.608C598.425 202.808 598.681 202.168 599.193 201.688C599.705 201.176 600.345 200.92 601.113 200.92C601.881 200.92 602.521 201.176 603.033 201.688C603.545 202.168 603.801 202.808 603.801 203.608C603.801 204.376 603.545 205.016 603.033 205.528C602.521 206.04 601.881 206.296 601.113 206.296ZM599.769 234.952C599.449 234.952 599.289 234.792 599.289 234.472V211.144C599.289 210.824 599.449 210.664 599.769 210.664H602.217C602.537 210.664 602.697 210.824 602.697 211.144V234.472C602.697 234.792 602.537 234.952 602.217 234.952H599.769ZM621.123 210.376C623.683 210.376 625.715 211.128 627.219 212.632C628.755 214.136 629.523 216.152 629.523 218.68V234.52C629.523 234.84 629.363 235 629.043 235H626.595C626.275 235 626.115 234.84 626.115 234.52V219.352C626.115 217.592 625.571 216.152 624.483 215.032C623.427 213.912 622.051 213.352 620.355 213.352C618.595 213.352 617.171 213.896 616.083 214.984C614.995 216.072 614.451 217.496 614.451 219.256V234.52C614.451 234.84 614.291 235 613.971 235H611.523C611.203 235 611.043 234.84 611.043 234.52V211.192C611.043 210.872 611.203 210.712 611.523 210.712H613.971C614.291 210.712 614.451 210.872 614.451 211.192V213.256C614.451 213.32 614.467 213.368 614.499 213.4C614.563 213.432 614.611 213.416 614.643 213.352C616.051 211.368 618.211 210.376 621.123 210.376ZM651.894 211.192C651.894 210.872 652.054 210.712 652.374 210.712H654.822C655.142 210.712 655.302 210.872 655.302 211.192V234.184C655.302 237.768 654.262 240.392 652.182 242.056C650.134 243.72 647.302 244.552 643.686 244.552C642.95 244.552 642.39 244.536 642.006 244.504C641.686 244.472 641.526 244.296 641.526 243.976L641.622 241.768C641.622 241.608 641.67 241.48 641.766 241.384C641.862 241.32 641.974 241.304 642.102 241.336L643.398 241.384C646.374 241.384 648.534 240.792 649.878 239.608C651.222 238.456 651.894 236.616 651.894 234.088V232.312C651.894 232.248 651.862 232.216 651.798 232.216C651.766 232.184 651.718 232.2 651.654 232.264C650.182 234.184 648.086 235.144 645.366 235.144C643.286 235.144 641.43 234.584 639.798 233.464C638.198 232.344 637.126 230.76 636.582 228.712C636.198 227.4 636.006 225.448 636.006 222.856C636.006 221.448 636.038 220.264 636.102 219.304C636.198 218.344 636.374 217.48 636.63 216.712C637.206 214.792 638.246 213.256 639.75 212.104C641.254 210.92 643.062 210.328 645.174 210.328C648.022 210.328 650.182 211.272 651.654 213.16C651.718 213.224 651.766 213.24 651.798 213.208C651.862 213.176 651.894 213.128 651.894 213.064V211.192ZM651.654 227.656C651.75 227.176 651.814 226.584 651.846 225.88C651.878 225.176 651.894 224.152 651.894 222.808C651.894 221.176 651.878 220.088 651.846 219.544C651.814 218.968 651.734 218.44 651.606 217.96C651.35 216.616 650.71 215.512 649.686 214.648C648.694 213.752 647.43 213.304 645.894 213.304C644.39 213.304 643.11 213.736 642.054 214.6C641.03 215.464 640.31 216.584 639.894 217.96C639.574 218.984 639.414 220.584 639.414 222.76C639.414 225.096 639.574 226.712 639.894 227.608C640.214 228.952 640.902 230.072 641.958 230.968C643.046 231.832 644.358 232.264 645.894 232.264C647.462 232.264 648.742 231.832 649.734 230.968C650.758 230.104 651.398 229 651.654 227.656ZM682.583 235.384C678.967 235.384 676.103 234.568 673.991 232.936C671.911 231.304 670.871 229.128 670.871 226.408V224.92C670.871 224.6 671.031 224.44 671.351 224.44H673.703C674.023 224.44 674.183 224.6 674.183 224.92V226.216C674.183 228.072 674.951 229.576 676.487 230.728C678.023 231.848 680.151 232.408 682.871 232.408C685.335 232.408 687.207 231.896 688.487 230.872C689.767 229.816 690.407 228.424 690.407 226.696C690.407 225.576 690.103 224.616 689.495 223.816C688.919 223.016 688.007 222.264 686.759 221.56C685.543 220.856 683.815 220.04 681.575 219.112C679.175 218.152 677.303 217.32 675.959 216.616C674.647 215.88 673.575 214.952 672.743 213.832C671.943 212.68 671.543 211.24 671.543 209.512C671.543 206.824 672.471 204.744 674.327 203.272C676.215 201.768 678.791 201.016 682.055 201.016C685.607 201.016 688.407 201.848 690.455 203.512C692.503 205.176 693.527 207.384 693.527 210.136V211.192C693.527 211.512 693.367 211.672 693.047 211.672H690.647C690.327 211.672 690.167 211.512 690.167 211.192V210.328C690.167 208.472 689.431 206.952 687.959 205.768C686.519 204.584 684.503 203.992 681.911 203.992C679.639 203.992 677.895 204.456 676.679 205.384C675.463 206.312 674.855 207.656 674.855 209.416C674.855 210.568 675.143 211.528 675.719 212.296C676.327 213.032 677.175 213.688 678.263 214.264C679.383 214.808 681.095 215.528 683.399 216.424C685.735 217.384 687.607 218.28 689.015 219.112C690.455 219.944 691.607 220.968 692.471 222.184C693.367 223.368 693.815 224.824 693.815 226.552C693.815 229.24 692.823 231.384 690.839 232.984C688.855 234.584 686.103 235.384 682.583 235.384ZM709.51 235.384C707.206 235.384 705.222 234.792 703.558 233.608C701.894 232.424 700.742 230.792 700.102 228.712C699.654 227.24 699.43 225.272 699.43 222.808C699.43 220.344 699.654 218.392 700.102 216.952C700.71 214.904 701.846 213.288 703.51 212.104C705.174 210.92 707.19 210.328 709.558 210.328C711.83 210.328 713.782 210.92 715.414 212.104C717.078 213.288 718.214 214.888 718.822 216.904C719.27 218.28 719.494 220.248 719.494 222.808C719.494 225.4 719.27 227.368 718.822 228.712C718.214 230.792 717.078 232.424 715.414 233.608C713.782 234.792 711.814 235.384 709.51 235.384ZM709.51 232.408C711.046 232.408 712.358 231.992 713.446 231.16C714.534 230.296 715.27 229.144 715.654 227.704C715.942 226.552 716.086 224.936 716.086 222.856C716.086 220.744 715.958 219.128 715.702 218.008C715.318 216.568 714.566 215.432 713.446 214.6C712.358 213.736 711.03 213.304 709.462 213.304C707.894 213.304 706.566 213.736 705.478 214.6C704.39 215.432 703.654 216.568 703.27 218.008C703.014 219.128 702.886 220.744 702.886 222.856C702.886 224.968 703.014 226.584 703.27 227.704C703.622 229.144 704.342 230.296 705.43 231.16C706.55 231.992 707.91 232.408 709.51 232.408ZM735.667 235.384C733.363 235.384 731.379 234.792 729.715 233.608C728.051 232.424 726.899 230.792 726.259 228.712C725.811 227.24 725.587 225.272 725.587 222.808C725.587 220.344 725.811 218.392 726.259 216.952C726.867 214.904 728.003 213.288 729.667 212.104C731.331 210.92 733.347 210.328 735.715 210.328C737.987 210.328 739.939 210.92 741.571 212.104C743.235 213.288 744.371 214.888 744.979 216.904C745.427 218.28 745.651 220.248 745.651 222.808C745.651 225.4 745.427 227.368 744.979 228.712C744.371 230.792 743.235 232.424 741.571 233.608C739.939 234.792 737.971 235.384 735.667 235.384ZM735.667 232.408C737.203 232.408 738.515 231.992 739.603 231.16C740.691 230.296 741.427 229.144 741.811 227.704C742.099 226.552 742.243 224.936 742.243 222.856C742.243 220.744 742.115 219.128 741.859 218.008C741.475 216.568 740.723 215.432 739.603 214.6C738.515 213.736 737.187 213.304 735.619 213.304C734.051 213.304 732.723 213.736 731.635 214.6C730.547 215.432 729.811 216.568 729.427 218.008C729.171 219.128 729.043 220.744 729.043 222.856C729.043 224.968 729.171 226.584 729.427 227.704C729.779 229.144 730.499 230.296 731.587 231.16C732.707 231.992 734.067 232.408 735.667 232.408ZM762.639 210.376C765.199 210.376 767.231 211.128 768.735 212.632C770.271 214.136 771.039 216.152 771.039 218.68V234.52C771.039 234.84 770.879 235 770.559 235H768.111C767.791 235 767.631 234.84 767.631 234.52V219.352C767.631 217.592 767.087 216.152 765.999 215.032C764.943 213.912 763.567 213.352 761.871 213.352C760.111 213.352 758.687 213.896 757.599 214.984C756.511 216.072 755.967 217.496 755.967 219.256V234.52C755.967 234.84 755.807 235 755.487 235H753.039C752.719 235 752.559 234.84 752.559 234.52V211.192C752.559 210.872 752.719 210.712 753.039 210.712H755.487C755.807 210.712 755.967 210.872 755.967 211.192V213.256C755.967 213.32 755.983 213.368 756.015 213.4C756.079 213.432 756.127 213.416 756.159 213.352C757.567 211.368 759.727 210.376 762.639 210.376Z" fill="white"/>
<path d="M480.324 402H478.989C478.889 401.503 478.709 401.044 478.449 400.622C478.193 400.196 477.871 399.824 477.483 399.507C477.095 399.19 476.654 398.944 476.162 398.768C475.67 398.593 475.137 398.506 474.564 398.506C473.645 398.506 472.807 398.745 472.05 399.223C471.297 399.701 470.693 400.404 470.239 401.332C469.789 402.256 469.564 403.387 469.564 404.727C469.564 406.077 469.789 407.213 470.239 408.136C470.693 409.06 471.297 409.76 472.05 410.239C472.807 410.712 473.645 410.949 474.564 410.949C475.137 410.949 475.67 410.861 476.162 410.686C476.654 410.511 477.095 410.267 477.483 409.955C477.871 409.637 478.193 409.266 478.449 408.839C478.709 408.413 478.889 407.952 478.989 407.455H480.324C480.205 408.122 479.983 408.745 479.656 409.322C479.334 409.895 478.922 410.397 478.42 410.828C477.923 411.259 477.35 411.595 476.702 411.837C476.053 412.078 475.34 412.199 474.564 412.199C473.342 412.199 472.258 411.893 471.311 411.283C470.364 410.667 469.621 409.801 469.081 408.683C468.546 407.566 468.278 406.247 468.278 404.727C468.278 403.207 468.546 401.889 469.081 400.771C469.621 399.654 470.364 398.79 471.311 398.179C472.258 397.563 473.342 397.256 474.564 397.256C475.34 397.256 476.053 397.376 476.702 397.618C477.35 397.855 477.923 398.191 478.42 398.626C478.922 399.057 479.334 399.559 479.656 400.132C479.983 400.705 480.205 401.328 480.324 402ZM484.445 405.182V412H483.181V397.455H484.445V402.803H484.559C484.814 402.239 485.21 401.789 485.745 401.453C486.284 401.117 486.966 400.949 487.79 400.949C488.529 400.949 489.177 401.1 489.736 401.403C490.295 401.706 490.73 402.154 491.043 402.746C491.355 403.338 491.512 404.067 491.512 404.933V412H490.24V405.011C490.24 404.112 489.989 403.404 489.488 402.888C488.99 402.367 488.318 402.107 487.471 402.107C486.888 402.107 486.37 402.23 485.915 402.476C485.461 402.722 485.101 403.077 484.836 403.541C484.575 404 484.445 404.547 484.445 405.182ZM499.251 412.227C498.233 412.227 497.353 411.991 496.609 411.517C495.866 411.039 495.291 410.378 494.884 409.536C494.481 408.688 494.28 407.713 494.28 406.609C494.28 405.511 494.481 404.536 494.884 403.683C495.291 402.826 495.852 402.156 496.567 401.673C497.286 401.186 498.117 400.942 499.06 400.942C499.652 400.942 500.222 401.051 500.771 401.268C501.321 401.482 501.813 401.811 502.249 402.256C502.689 402.696 503.037 403.252 503.293 403.925C503.548 404.592 503.676 405.383 503.676 406.297V406.922H495.153V405.807H502.384C502.384 405.106 502.241 404.476 501.957 403.918C501.678 403.354 501.287 402.909 500.786 402.582C500.288 402.256 499.713 402.092 499.06 402.092C498.368 402.092 497.76 402.277 497.234 402.646C496.709 403.016 496.297 403.503 495.999 404.109C495.705 404.715 495.556 405.378 495.551 406.098V406.766C495.551 407.632 495.7 408.39 495.999 409.038C496.302 409.682 496.73 410.182 497.284 410.537C497.838 410.892 498.494 411.07 499.251 411.07C499.768 411.07 500.22 410.989 500.608 410.828C501.001 410.667 501.33 410.452 501.595 410.182C501.865 409.907 502.069 409.607 502.206 409.28L503.406 409.67C503.241 410.13 502.968 410.554 502.589 410.942C502.215 411.33 501.747 411.643 501.183 411.879C500.625 412.111 499.981 412.227 499.251 412.227ZM510.723 412.227C509.748 412.227 508.898 411.983 508.174 411.496C507.454 411.008 506.895 410.34 506.498 409.493C506.1 408.645 505.901 407.679 505.901 406.595C505.901 405.501 506.102 404.528 506.505 403.676C506.912 402.824 507.475 402.156 508.195 401.673C508.915 401.186 509.75 400.942 510.702 400.942C511.431 400.942 512.092 401.084 512.684 401.368C513.275 401.647 513.763 402.043 514.147 402.554C514.535 403.061 514.779 403.652 514.878 404.33H513.6C513.467 403.714 513.148 403.188 512.641 402.753C512.139 402.312 511.5 402.092 510.723 402.092C510.027 402.092 509.412 402.282 508.877 402.661C508.342 403.035 507.923 403.558 507.62 404.23C507.321 404.898 507.172 405.672 507.172 406.553C507.172 407.438 507.319 408.222 507.613 408.903C507.906 409.58 508.318 410.111 508.848 410.494C509.383 410.878 510.008 411.07 510.723 411.07C511.206 411.07 511.647 410.98 512.044 410.8C512.447 410.615 512.783 410.355 513.053 410.018C513.328 409.682 513.512 409.282 513.607 408.818H514.885C514.791 409.476 514.556 410.063 514.182 410.58C513.813 411.091 513.332 411.493 512.74 411.787C512.153 412.08 511.481 412.227 510.723 412.227ZM518.745 407.881L518.731 406.226H519.015L524.129 401.091H525.727L520.677 406.148L520.564 406.169L518.745 407.881ZM517.595 412V397.455H518.859V412H517.595ZM524.392 412L519.96 406.396L520.869 405.523L526.011 412H524.392ZM533.99 412V397.455H535.262V403.172H535.375C535.517 402.845 535.721 402.509 535.986 402.163C536.256 401.818 536.609 401.529 537.044 401.297C537.485 401.06 538.039 400.942 538.706 400.942C539.601 400.942 540.387 401.179 541.064 401.652C541.741 402.121 542.269 402.779 542.648 403.626C543.027 404.469 543.216 405.452 543.216 406.574C543.216 407.701 543.027 408.688 542.648 409.536C542.274 410.383 541.748 411.044 541.071 411.517C540.399 411.991 539.618 412.227 538.728 412.227C538.065 412.227 537.511 412.109 537.066 411.872C536.625 411.635 536.27 411.344 536 410.999C535.73 410.648 535.522 410.307 535.375 409.976H535.219V412H533.99ZM535.24 406.553C535.24 407.433 535.371 408.214 535.631 408.896C535.896 409.573 536.275 410.106 536.767 410.494C537.265 410.878 537.866 411.07 538.571 411.07C539.296 411.07 539.909 410.871 540.411 410.473C540.913 410.071 541.294 409.528 541.554 408.847C541.815 408.165 541.945 407.4 541.945 406.553C541.945 405.714 541.815 404.959 541.554 404.287C541.299 403.615 540.92 403.082 540.418 402.689C539.916 402.291 539.301 402.092 538.571 402.092C537.861 402.092 537.257 402.284 536.76 402.668C536.268 403.046 535.891 403.572 535.631 404.244C535.371 404.912 535.24 405.681 535.24 406.553ZM549.04 412.249C548.382 412.249 547.781 412.121 547.236 411.865C546.692 411.605 546.258 411.231 545.936 410.743C545.614 410.25 545.453 409.654 545.453 408.953C545.453 408.413 545.555 407.959 545.759 407.589C545.962 407.22 546.251 406.917 546.625 406.68C546.999 406.444 547.442 406.257 547.953 406.119C548.465 405.982 549.028 405.875 549.644 405.8C550.255 405.724 550.771 405.658 551.192 405.601C551.618 405.544 551.943 405.454 552.165 405.331C552.388 405.208 552.499 405.009 552.499 404.734V404.479C552.499 403.735 552.276 403.151 551.831 402.724C551.391 402.294 550.757 402.078 549.928 402.078C549.142 402.078 548.5 402.251 548.003 402.597C547.511 402.942 547.165 403.349 546.966 403.818L545.766 403.385C546.012 402.788 546.353 402.312 546.789 401.957C547.224 401.598 547.712 401.339 548.252 401.183C548.792 401.022 549.338 400.942 549.892 400.942C550.309 400.942 550.742 400.996 551.192 401.105C551.647 401.214 552.068 401.403 552.456 401.673C552.845 401.938 553.159 402.31 553.401 402.788C553.642 403.262 553.763 403.863 553.763 404.592V412H552.499V410.274H552.421C552.269 410.596 552.044 410.909 551.746 411.212C551.448 411.515 551.074 411.763 550.624 411.957C550.174 412.152 549.646 412.249 549.04 412.249ZM549.211 411.091C549.883 411.091 550.465 410.942 550.958 410.643C551.45 410.345 551.829 409.95 552.094 409.457C552.364 408.96 552.499 408.413 552.499 407.817V406.24C552.404 406.33 552.246 406.411 552.023 406.482C551.805 406.553 551.552 406.616 551.263 406.673C550.979 406.725 550.695 406.77 550.411 406.808C550.127 406.846 549.871 406.879 549.644 406.908C549.028 406.983 548.503 407.102 548.067 407.263C547.632 407.424 547.298 407.646 547.066 407.93C546.834 408.21 546.718 408.57 546.718 409.01C546.718 409.673 546.954 410.187 547.428 410.551C547.901 410.911 548.496 411.091 549.211 411.091ZM561.387 412.227C560.412 412.227 559.562 411.983 558.838 411.496C558.118 411.008 557.559 410.34 557.162 409.493C556.764 408.645 556.565 407.679 556.565 406.595C556.565 405.501 556.766 404.528 557.169 403.676C557.576 402.824 558.139 402.156 558.859 401.673C559.579 401.186 560.414 400.942 561.366 400.942C562.095 400.942 562.756 401.084 563.348 401.368C563.94 401.647 564.427 402.043 564.811 402.554C565.199 403.061 565.443 403.652 565.542 404.33H564.264C564.131 403.714 563.812 403.188 563.305 402.753C562.803 402.312 562.164 402.092 561.387 402.092C560.691 402.092 560.076 402.282 559.541 402.661C559.006 403.035 558.587 403.558 558.284 404.23C557.985 404.898 557.836 405.672 557.836 406.553C557.836 407.438 557.983 408.222 558.277 408.903C558.57 409.58 558.982 410.111 559.512 410.494C560.047 410.878 560.672 411.07 561.387 411.07C561.87 411.07 562.311 410.98 562.708 410.8C563.111 410.615 563.447 410.355 563.717 410.018C563.992 409.682 564.176 409.282 564.271 408.818H565.549C565.455 409.476 565.22 410.063 564.846 410.58C564.477 411.091 563.996 411.493 563.404 411.787C562.817 412.08 562.145 412.227 561.387 412.227ZM569.409 407.881L569.395 406.226H569.679L574.793 401.091H576.391L571.341 406.148L571.228 406.169L569.409 407.881ZM568.259 412V397.455H569.523V412H568.259ZM575.056 412L570.624 406.396L571.533 405.523L576.675 412H575.056ZM584.406 412V401.091H585.677V412H584.406ZM585.052 399.216C584.792 399.216 584.569 399.128 584.385 398.953C584.2 398.773 584.108 398.558 584.108 398.307C584.108 398.056 584.2 397.843 584.385 397.668C584.569 397.488 584.792 397.398 585.052 397.398C585.313 397.398 585.535 397.488 585.72 397.668C585.904 397.843 585.997 398.056 585.997 398.307C585.997 398.558 585.904 398.773 585.72 398.953C585.535 399.128 585.313 399.216 585.052 399.216ZM590.285 405.182V412H589.021V401.091H590.249V402.803H590.363C590.619 402.244 591.016 401.796 591.556 401.46C592.101 401.119 592.773 400.949 593.573 400.949C594.307 400.949 594.951 401.103 595.505 401.411C596.064 401.714 596.497 402.161 596.805 402.753C597.117 403.345 597.273 404.071 597.273 404.933V412H596.009V405.011C596.009 404.116 595.758 403.409 595.256 402.888C594.759 402.367 594.092 402.107 593.254 402.107C592.681 402.107 592.172 402.23 591.727 402.476C591.281 402.722 590.929 403.077 590.668 403.541C590.413 404 590.285 404.547 590.285 405.182ZM610.468 412.227C609.525 412.227 608.692 411.988 607.968 411.51C607.248 411.032 606.685 410.371 606.277 409.528C605.87 408.681 605.667 407.703 605.667 406.595C605.667 405.478 605.87 404.495 606.277 403.648C606.685 402.795 607.248 402.133 607.968 401.659C608.692 401.181 609.525 400.942 610.468 400.942C611.41 400.942 612.241 401.181 612.961 401.659C613.68 402.137 614.244 402.8 614.651 403.648C615.063 404.495 615.269 405.478 615.269 406.595C615.269 407.703 615.065 408.681 614.658 409.528C614.251 410.371 613.685 411.032 612.961 411.51C612.241 411.988 611.41 412.227 610.468 412.227ZM610.468 411.07C611.225 411.07 611.867 410.866 612.392 410.459C612.918 410.052 613.316 409.509 613.586 408.832C613.86 408.155 613.998 407.41 613.998 406.595C613.998 405.781 613.86 405.033 613.586 404.351C613.316 403.669 612.918 403.122 612.392 402.71C611.867 402.298 611.225 402.092 610.468 402.092C609.715 402.092 609.073 402.298 608.543 402.71C608.017 403.122 607.617 403.669 607.343 404.351C607.073 405.033 606.938 405.781 606.938 406.595C606.938 407.41 607.073 408.155 607.343 408.832C607.617 409.509 608.017 410.052 608.543 410.459C609.069 410.866 609.71 411.07 610.468 411.07ZM619.308 405.182V412H618.044V401.091H619.273V402.803H619.386C619.642 402.244 620.04 401.796 620.58 401.46C621.124 401.119 621.796 400.949 622.597 400.949C623.33 400.949 623.974 401.103 624.528 401.411C625.087 401.714 625.52 402.161 625.828 402.753C626.141 403.345 626.297 404.071 626.297 404.933V412H625.033V405.011C625.033 404.116 624.782 403.409 624.28 402.888C623.783 402.367 623.115 402.107 622.277 402.107C621.704 402.107 621.195 402.23 620.75 402.476C620.305 402.722 619.952 403.077 619.692 403.541C619.436 404 619.308 404.547 619.308 405.182ZM640.912 397.455H642.673V407.852C642.673 408.78 642.502 409.569 642.162 410.217C641.821 410.866 641.34 411.358 640.72 411.695C640.1 412.031 639.368 412.199 638.525 412.199C637.73 412.199 637.022 412.054 636.402 411.766C635.781 411.472 635.294 411.055 634.939 410.516C634.583 409.976 634.406 409.334 634.406 408.591H636.139C636.139 409.003 636.241 409.363 636.444 409.67C636.653 409.973 636.937 410.21 637.297 410.381C637.656 410.551 638.066 410.636 638.525 410.636C639.032 410.636 639.463 410.53 639.818 410.317C640.173 410.104 640.443 409.791 640.627 409.379C640.817 408.963 640.912 408.454 640.912 407.852V397.455ZM649.186 412.256C648.494 412.256 647.867 412.125 647.304 411.865C646.74 411.6 646.293 411.219 645.961 410.722C645.63 410.22 645.464 409.614 645.464 408.903C645.464 408.278 645.587 407.772 645.833 407.384C646.08 406.991 646.409 406.683 646.821 406.46C647.233 406.238 647.687 406.072 648.184 405.963C648.686 405.849 649.19 405.759 649.697 405.693C650.36 405.608 650.897 405.544 651.309 405.501C651.726 405.454 652.029 405.376 652.218 405.267C652.413 405.158 652.51 404.969 652.51 404.699V404.642C652.51 403.941 652.318 403.397 651.934 403.009C651.556 402.62 650.98 402.426 650.208 402.426C649.408 402.426 648.781 402.601 648.326 402.952C647.872 403.302 647.552 403.676 647.368 404.074L645.777 403.506C646.061 402.843 646.44 402.327 646.913 401.957C647.391 401.583 647.912 401.323 648.475 401.176C649.044 401.025 649.602 400.949 650.152 400.949C650.502 400.949 650.904 400.991 651.359 401.077C651.818 401.157 652.261 401.325 652.687 401.581C653.118 401.837 653.475 402.223 653.76 402.739C654.044 403.255 654.186 403.946 654.186 404.812V412H652.51V410.523H652.424C652.311 410.759 652.121 411.013 651.856 411.283C651.591 411.553 651.238 411.782 650.798 411.972C650.358 412.161 649.82 412.256 649.186 412.256ZM649.441 410.75C650.104 410.75 650.663 410.62 651.118 410.359C651.577 410.099 651.922 409.763 652.154 409.351C652.391 408.939 652.51 408.506 652.51 408.051V406.517C652.439 406.602 652.282 406.68 652.041 406.751C651.804 406.818 651.529 406.877 651.217 406.929C650.909 406.976 650.609 407.019 650.315 407.057C650.026 407.09 649.792 407.118 649.612 407.142C649.176 407.199 648.769 407.291 648.39 407.419C648.016 407.542 647.713 407.729 647.481 407.98C647.254 408.226 647.14 408.562 647.14 408.989C647.14 409.571 647.356 410.011 647.787 410.31C648.222 410.603 648.774 410.75 649.441 410.75ZM658.921 405.438V412H657.245V401.091H658.864V402.795H659.006C659.262 402.241 659.65 401.796 660.171 401.46C660.692 401.119 661.364 400.949 662.188 400.949C662.927 400.949 663.573 401.1 664.127 401.403C664.681 401.702 665.112 402.156 665.42 402.767C665.728 403.373 665.881 404.14 665.881 405.068V412H664.205V405.182C664.205 404.325 663.983 403.657 663.538 403.179C663.093 402.696 662.482 402.455 661.705 402.455C661.17 402.455 660.692 402.571 660.271 402.803C659.854 403.035 659.525 403.373 659.283 403.818C659.042 404.263 658.921 404.803 658.921 405.438ZM675.819 407.54V401.091H677.495V412H675.819V410.153H675.706C675.45 410.707 675.052 411.179 674.512 411.567C673.973 411.95 673.291 412.142 672.467 412.142C671.785 412.142 671.179 411.993 670.649 411.695C670.118 411.392 669.702 410.937 669.399 410.331C669.096 409.72 668.944 408.951 668.944 408.023V401.091H670.62V407.909C670.62 408.705 670.843 409.339 671.288 409.812C671.738 410.286 672.311 410.523 673.007 410.523C673.423 410.523 673.847 410.416 674.278 410.203C674.714 409.99 675.078 409.663 675.372 409.223C675.67 408.783 675.819 408.222 675.819 407.54ZM683.776 412.256C683.084 412.256 682.457 412.125 681.893 411.865C681.33 411.6 680.883 411.219 680.551 410.722C680.22 410.22 680.054 409.614 680.054 408.903C680.054 408.278 680.177 407.772 680.423 407.384C680.67 406.991 680.999 406.683 681.411 406.46C681.822 406.238 682.277 406.072 682.774 405.963C683.276 405.849 683.78 405.759 684.287 405.693C684.95 405.608 685.487 405.544 685.899 405.501C686.316 405.454 686.619 405.376 686.808 405.267C687.002 405.158 687.099 404.969 687.099 404.699V404.642C687.099 403.941 686.908 403.397 686.524 403.009C686.145 402.62 685.57 402.426 684.798 402.426C683.998 402.426 683.371 402.601 682.916 402.952C682.462 403.302 682.142 403.676 681.957 404.074L680.366 403.506C680.651 402.843 681.029 402.327 681.503 401.957C681.981 401.583 682.502 401.323 683.065 401.176C683.634 401.025 684.192 400.949 684.741 400.949C685.092 400.949 685.494 400.991 685.949 401.077C686.408 401.157 686.851 401.325 687.277 401.581C687.708 401.837 688.065 402.223 688.349 402.739C688.634 403.255 688.776 403.946 688.776 404.812V412H687.099V410.523H687.014C686.901 410.759 686.711 411.013 686.446 411.283C686.181 411.553 685.828 411.782 685.388 411.972C684.947 412.161 684.41 412.256 683.776 412.256ZM684.031 410.75C684.694 410.75 685.253 410.62 685.707 410.359C686.167 410.099 686.512 409.763 686.744 409.351C686.981 408.939 687.099 408.506 687.099 408.051V406.517C687.028 406.602 686.872 406.68 686.631 406.751C686.394 406.818 686.119 406.877 685.807 406.929C685.499 406.976 685.198 407.019 684.905 407.057C684.616 407.09 684.382 407.118 684.202 407.142C683.766 407.199 683.359 407.291 682.98 407.419C682.606 407.542 682.303 407.729 682.071 407.98C681.844 408.226 681.73 408.562 681.73 408.989C681.73 409.571 681.946 410.011 682.376 410.31C682.812 410.603 683.364 410.75 684.031 410.75ZM691.835 412V401.091H693.454V402.739H693.568C693.767 402.199 694.127 401.761 694.647 401.425C695.168 401.089 695.755 400.92 696.409 400.92C696.532 400.92 696.686 400.923 696.87 400.928C697.055 400.932 697.195 400.939 697.289 400.949V402.653C697.233 402.639 697.102 402.618 696.899 402.589C696.7 402.556 696.489 402.54 696.267 402.54C695.736 402.54 695.263 402.651 694.846 402.874C694.434 403.091 694.108 403.394 693.866 403.783C693.629 404.166 693.511 404.604 693.511 405.097V412H691.835ZM700.688 416.091C700.404 416.091 700.15 416.067 699.928 416.02C699.705 415.977 699.551 415.935 699.466 415.892L699.892 414.415C700.3 414.519 700.659 414.557 700.972 414.528C701.284 414.5 701.561 414.36 701.803 414.109C702.049 413.863 702.274 413.463 702.478 412.909L702.79 412.057L698.756 401.091H700.574L703.586 409.784H703.699L706.711 401.091H708.529L703.898 413.591C703.69 414.154 703.432 414.621 703.124 414.99C702.816 415.364 702.459 415.641 702.051 415.821C701.649 416.001 701.194 416.091 700.688 416.091ZM721.451 397.455V412H719.69V399.301H719.605L716.054 401.659V399.869L719.69 397.455H721.451ZM725.635 412V410.722L730.436 405.466C730.999 404.85 731.463 404.315 731.828 403.861C732.192 403.402 732.462 402.971 732.637 402.568C732.817 402.161 732.907 401.735 732.907 401.29C732.907 400.778 732.784 400.336 732.538 399.962C732.297 399.588 731.965 399.299 731.544 399.095C731.122 398.892 730.649 398.79 730.123 398.79C729.565 398.79 729.077 398.906 728.66 399.138C728.248 399.365 727.929 399.685 727.701 400.097C727.479 400.509 727.368 400.991 727.368 401.545H725.691C725.691 400.693 725.888 399.945 726.281 399.301C726.674 398.657 727.209 398.155 727.886 397.795C728.568 397.436 729.333 397.256 730.18 397.256C731.032 397.256 731.788 397.436 732.446 397.795C733.104 398.155 733.62 398.641 733.994 399.251C734.368 399.862 734.555 400.542 734.555 401.29C734.555 401.825 734.458 402.348 734.264 402.859C734.074 403.366 733.743 403.932 733.27 404.557C732.801 405.177 732.15 405.935 731.316 406.83L728.049 410.324V410.438H734.811V412H725.635ZM740.272 410.011L740.159 410.778C740.078 411.318 739.955 411.896 739.789 412.511C739.628 413.127 739.46 413.707 739.285 414.251C739.11 414.796 738.966 415.229 738.852 415.551H737.574C737.635 415.248 737.716 414.848 737.815 414.351C737.914 413.854 738.014 413.297 738.113 412.682C738.217 412.071 738.303 411.446 738.369 410.807L738.454 410.011H740.272ZM748.974 412V410.722L753.776 405.466C754.339 404.85 754.803 404.315 755.168 403.861C755.532 403.402 755.802 402.971 755.977 402.568C756.157 402.161 756.247 401.735 756.247 401.29C756.247 400.778 756.124 400.336 755.878 399.962C755.636 399.588 755.305 399.299 754.884 399.095C754.462 398.892 753.989 398.79 753.463 398.79C752.904 398.79 752.417 398.906 752 399.138C751.588 399.365 751.268 399.685 751.041 400.097C750.819 400.509 750.707 400.991 750.707 401.545H749.031C749.031 400.693 749.228 399.945 749.621 399.301C750.014 398.657 750.549 398.155 751.226 397.795C751.908 397.436 752.672 397.256 753.52 397.256C754.372 397.256 755.127 397.436 755.786 397.795C756.444 398.155 756.96 398.641 757.334 399.251C757.708 399.862 757.895 400.542 757.895 401.29C757.895 401.825 757.798 402.348 757.604 402.859C757.414 403.366 757.083 403.932 756.609 404.557C756.141 405.177 755.49 405.935 754.656 406.83L751.389 410.324V410.438H758.151V412H748.974ZM765.828 412.199C764.758 412.199 763.847 411.908 763.094 411.325C762.341 410.738 761.766 409.888 761.368 408.776C760.97 407.658 760.771 406.309 760.771 404.727C760.771 403.155 760.97 401.813 761.368 400.7C761.77 399.583 762.348 398.731 763.101 398.143C763.858 397.552 764.768 397.256 765.828 397.256C766.889 397.256 767.795 397.552 768.548 398.143C769.306 398.731 769.884 399.583 770.281 400.7C770.684 401.813 770.885 403.155 770.885 404.727C770.885 406.309 770.686 407.658 770.288 408.776C769.891 409.888 769.315 410.738 768.562 411.325C767.81 411.908 766.898 412.199 765.828 412.199ZM765.828 410.636C766.889 410.636 767.713 410.125 768.3 409.102C768.887 408.08 769.18 406.621 769.18 404.727C769.18 403.468 769.045 402.395 768.776 401.51C768.51 400.625 768.127 399.95 767.625 399.486C767.128 399.022 766.529 398.79 765.828 398.79C764.777 398.79 763.955 399.308 763.364 400.345C762.772 401.377 762.476 402.838 762.476 404.727C762.476 405.987 762.608 407.057 762.874 407.938C763.139 408.818 763.52 409.488 764.017 409.947C764.519 410.407 765.123 410.636 765.828 410.636ZM773.584 412V410.722L778.385 405.466C778.948 404.85 779.412 404.315 779.777 403.861C780.142 403.402 780.411 402.971 780.587 402.568C780.767 402.161 780.857 401.735 780.857 401.29C780.857 400.778 780.733 400.336 780.487 399.962C780.246 399.588 779.914 399.299 779.493 399.095C779.071 398.892 778.598 398.79 778.072 398.79C777.514 398.79 777.026 398.906 776.609 399.138C776.197 399.365 775.878 399.685 775.651 400.097C775.428 400.509 775.317 400.991 775.317 401.545H773.641C773.641 400.693 773.837 399.945 774.23 399.301C774.623 398.657 775.158 398.155 775.835 397.795C776.517 397.436 777.282 397.256 778.129 397.256C778.982 397.256 779.737 397.436 780.395 397.795C781.053 398.155 781.569 398.641 781.943 399.251C782.317 399.862 782.504 400.542 782.504 401.29C782.504 401.825 782.407 402.348 782.213 402.859C782.024 403.366 781.692 403.932 781.219 404.557C780.75 405.177 780.099 405.935 779.266 406.83L775.999 410.324V410.438H782.76V412H773.584ZM790.608 412.199C789.67 412.199 788.835 412.038 788.101 411.716C787.372 411.394 786.792 410.946 786.361 410.374C785.935 409.796 785.703 409.126 785.665 408.364H787.455C787.492 408.832 787.653 409.237 787.938 409.578C788.222 409.914 788.593 410.175 789.053 410.359C789.512 410.544 790.021 410.636 790.58 410.636C791.205 410.636 791.759 410.527 792.241 410.31C792.724 410.092 793.103 409.789 793.378 409.401C793.652 409.012 793.79 408.562 793.79 408.051C793.79 407.516 793.657 407.045 793.392 406.638C793.127 406.226 792.739 405.904 792.227 405.672C791.716 405.44 791.091 405.324 790.352 405.324H789.188V403.761H790.352C790.93 403.761 791.437 403.657 791.872 403.449C792.313 403.241 792.656 402.947 792.902 402.568C793.153 402.189 793.278 401.744 793.278 401.233C793.278 400.741 793.17 400.312 792.952 399.947C792.734 399.583 792.426 399.299 792.028 399.095C791.635 398.892 791.171 398.79 790.636 398.79C790.134 398.79 789.661 398.882 789.216 399.067C788.776 399.247 788.416 399.509 788.136 399.855C787.857 400.196 787.705 400.608 787.682 401.091H785.977C786.006 400.329 786.235 399.661 786.666 399.088C787.097 398.51 787.661 398.061 788.357 397.739C789.057 397.417 789.827 397.256 790.665 397.256C791.564 397.256 792.336 397.438 792.98 397.803C793.624 398.162 794.119 398.638 794.464 399.23C794.81 399.822 794.983 400.461 794.983 401.148C794.983 401.967 794.768 402.665 794.337 403.243C793.911 403.821 793.33 404.221 792.597 404.443V404.557C793.515 404.708 794.232 405.099 794.749 405.729C795.265 406.354 795.523 407.128 795.523 408.051C795.523 408.842 795.307 409.552 794.876 410.182C794.45 410.807 793.868 411.299 793.129 411.659C792.391 412.019 791.55 412.199 790.608 412.199Z" fill="white"/>
<defs>
<linearGradient id="paint0_linear_7154_4722" x1="331.649" y1="141.051" x2="569.221" y2="6.64318" gradientUnits="userSpaceOnUse">
<stop stop-color="#C5C5C5"/>
<stop offset="1" stop-color="#D8D8D8"/>
</linearGradient>
<linearGradient id="paint1_linear_7154_4722" x1="948.649" y1="668.133" x2="1186.22" y2="533.725" gradientUnits="userSpaceOnUse">
<stop stop-color="#C5C5C5"/>
<stop offset="1" stop-color="#D8D8D8"/>
</linearGradient>
<linearGradient id="paint2_linear_7154_4722" x1="550.649" y1="446.39" x2="788.221" y2="311.982" gradientUnits="userSpaceOnUse">
<stop stop-color="#C5C5C5"/>
<stop offset="1" stop-color="#D8D8D8"/>
</linearGradient>
<linearGradient id="paint3_linear_7154_4722" x1="3.64915" y1="504.115" x2="241.221" y2="369.707" gradientUnits="userSpaceOnUse">
<stop stop-color="#868686"/>
<stop offset="1" stop-color="#CBCBCB"/>
</linearGradient>
<linearGradient id="paint4_linear_7154_4722" x1="1128.65" y1="235.235" x2="1366.22" y2="100.827" gradientUnits="userSpaceOnUse">
<stop stop-color="#32325E"/>
<stop offset="1" stop-color="#3A3F6A"/>
</linearGradient>
</defs>
</svg>
