<svg width="146" height="98" viewBox="0 0 146 98" fill="none" xmlns="http://www.w3.org/2000/svg">
<path d="M125.138 11.4346C122.826 16.2172 122.11 24.6943 122.11 24.6943L125.149 22.5198C125.149 22.5198 125.633 15.8375 127.511 12.1195C127.762 11.6236 128.193 10.8709 128.193 10.8709L131.709 4.81895C131.709 4.81895 132.042 4.74118 132.24 4.65089C132.805 4.39306 133.169 4.11873 133.367 3.53071C133.582 2.89217 133.471 2.36353 133.054 1.83419C132.532 1.17137 131.754 0.904724 130.977 1.23486C130.38 1.48883 130.112 1.9162 129.956 2.54609C129.813 3.12208 130.164 4.05155 130.164 4.05155C130.164 4.05155 126.655 8.29446 125.138 11.4346Z" fill="#CFBE2A"/>
<path d="M114.586 12.1335C113.692 17.3693 115.358 25.7123 115.358 25.7123L117.673 22.7805C117.673 22.7805 116.284 16.2262 117.056 12.1335C117.159 11.5875 117.365 10.7447 117.365 10.7447L119.063 3.95533C119.063 3.95533 119.361 3.78829 119.526 3.64672C119.997 3.24245 120.271 2.8778 120.298 2.25798C120.327 1.58489 120.074 1.10785 119.526 0.714933C118.84 0.222919 118.019 0.18237 117.365 0.714933C116.861 1.12464 116.723 1.60942 116.747 2.25798C116.769 2.85104 117.365 3.64672 117.365 3.64672C117.365 3.64672 115.172 8.69581 114.586 12.1335Z" fill="#CFBE2A"/>
<path d="M7.30344 64.8854C13.7328 57.7248 20.3976 55.5978 30.1823 54.8341C37.3057 54.2781 41.1394 58.7328 48.2214 57.807C54.7275 56.9566 57.153 52.3855 63.6206 51.2949C68.3034 50.5053 71.161 50.2643 75.7933 51.2949C79.3695 52.0905 80.7763 54.8097 84.4462 54.8341C92.7367 54.8893 91.3613 44.2553 95.1523 37.1381C97.4132 32.8934 96.9593 29.3475 100.579 26.0958C103.827 23.1777 106.618 22.4296 110.991 21.7072C116.7 20.7642 120.371 21.5472 125.657 23.8307C130.785 26.0456 134.856 27.5218 136.804 32.6079C138.134 36.0822 138.102 38.6074 136.804 42.093C134.443 48.4292 121.698 51.2949 121.698 51.2949C121.698 51.2949 118.886 63.0068 113.778 68.4246C110.323 72.0893 107.718 73.6786 103.072 75.7862C96.3818 78.8212 91.6562 77.4682 84.4462 79.0423C77.0332 80.6606 73.1084 82.4739 65.6738 83.9971C60.7276 85.0106 57.9649 86.3557 52.9145 86.1207C45.2657 85.7648 42.3379 79.8718 34.7287 79.0423C22.7246 77.7337 13.4985 97.1774 5.39687 88.5273C1.76494 84.6495 0.54955 80.9823 1.14376 75.7862C1.69493 70.9664 4.0133 68.5498 7.30344 64.8854Z" fill="#CFBE2A"/>
<path d="M7.63571 68.8052C14.404 61.0004 21.4201 58.682 31.7205 57.8496C39.2194 57.2436 43.2552 62.099 50.7105 61.09C57.5596 60.163 60.1129 55.1807 66.9215 53.992C71.8511 53.1313 74.8593 52.8687 79.7358 53.992C83.5006 54.8592 84.9815 57.8229 88.8448 57.8496C97.5723 57.9098 96.1244 46.3191 100.115 38.5615C102.495 33.935 102.018 30.0701 105.828 26.5258C109.247 23.3452 112.185 22.5298 116.789 21.7423C122.799 20.7145 126.663 21.568 132.228 24.0569C137.626 26.4711 141.911 28.0801 143.962 33.6238C145.363 37.4107 145.329 40.163 143.962 43.9622C141.477 50.8685 128.06 53.992 128.06 53.992C128.06 53.992 125.1 66.7576 119.723 72.6628C116.086 76.6572 113.391 81.9384 108.5 84.2357C101.457 87.5438 96.4349 87.9206 88.8448 89.6363C81.0411 91.4003 76.9094 87.976 69.0829 89.6363C63.876 90.7409 60.9677 92.207 55.651 91.9509C47.5991 91.5629 44.517 85.1398 36.5066 84.2357C23.8697 82.8093 14.1573 104.002 5.62864 94.5741C1.80526 90.3474 0.525806 86.3502 1.15133 80.6867C1.73157 75.4332 4.17214 72.7992 7.63571 68.8052Z" fill="#F4E02C" stroke="#DECB1E"/>
<path d="M115.203 12.1335C114.31 17.3693 115.975 25.7123 115.975 25.7123L118.291 22.7805C118.291 22.7805 116.901 16.2262 117.673 12.1335C117.776 11.5875 117.982 10.7447 117.982 10.7447L119.68 3.95533C119.68 3.95533 119.979 3.78829 120.144 3.64672C120.615 3.24245 120.889 2.8778 120.916 2.25798C120.945 1.58489 120.691 1.10785 120.144 0.714933C119.458 0.222919 118.637 0.18237 117.982 0.714933C117.479 1.12464 117.34 1.60942 117.365 2.25798C117.387 2.85104 117.982 3.64672 117.982 3.64672C117.982 3.64672 115.79 8.69581 115.203 12.1335Z" fill="#F4E02C"/>
<path d="M125.746 11.4126C123.435 16.1952 122.719 24.6724 122.719 24.6724L125.757 22.4978C125.757 22.4978 126.242 15.8155 128.12 12.0975C128.37 11.6016 128.802 10.8489 128.802 10.8489L132.318 4.79698C132.318 4.79698 132.651 4.71921 132.849 4.62892C133.413 4.37109 133.778 4.09676 133.976 3.50874C134.191 2.8702 134.08 2.34155 133.663 1.81222C133.14 1.14939 132.363 0.882752 131.586 1.21288C130.988 1.46686 130.721 1.89423 130.564 2.52411C130.421 3.10011 130.772 4.02958 130.772 4.02958C130.772 4.02958 127.264 8.27248 125.746 11.4126Z" fill="#F4E02C"/>
</svg>
