<svg width="633" height="831" viewBox="0 0 633 831" fill="none" xmlns="http://www.w3.org/2000/svg">
<path d="M-52.524 544.621C-133.421 404.503 -78.4486 221.315 70.2602 135.458C218.969 49.6006 405.101 93.5875 485.998 233.705C566.895 373.822 511.922 557.011 363.214 642.868C214.505 728.725 28.3728 684.738 -52.524 544.621ZM483.083 235.388C403.062 96.7873 218.945 53.2767 71.8459 138.204C-75.253 223.132 -129.63 404.337 -49.6091 542.938C30.412 681.538 214.529 725.049 361.628 640.122C508.727 555.194 563.104 373.989 483.083 235.388Z" fill="#D76D4B"/>
<path d="M-15.8508 187.149C98.5547 72.744 288.874 77.5753 409.239 197.941C529.604 318.306 534.436 508.625 420.03 623.031C305.625 737.436 115.306 732.605 -5.05966 612.239C-125.425 491.874 -130.256 301.555 -15.8508 187.149ZM417.671 620.671C530.838 507.504 526.059 319.245 406.997 200.183C287.934 81.1209 99.6755 76.3419 -13.4914 189.509C-126.658 302.676 -121.879 490.935 -2.81713 609.997C116.245 729.059 304.504 733.838 417.671 620.671Z" fill="#D76D4B"/>
<ellipse cx="199" cy="398.5" rx="288" ry="279.5" fill="url(#paint0_linear_5269_537)"/>
<path d="M247.426 531.227C246.399 531.227 245.4 530.643 244.842 529.593C244.003 528.016 244.479 525.985 245.905 525.058L287.675 497.882C289.099 496.954 290.936 497.48 291.774 499.059C292.613 500.636 292.137 502.667 290.711 503.594L248.941 530.77C248.465 531.081 247.942 531.227 247.426 531.227V531.227Z" fill="white" fill-opacity="0.7"/>
<path d="M173.839 470.639C172.671 471.084 170.681 471.72 169.084 470.904C160.843 466.693 152.81 465.503 149.318 464.287C143.177 462.232 137.172 459.419 131.519 455.943C114.911 445.442 100.961 430.352 91.1257 412.273C90.4109 411.002 89.6633 409.612 88.9414 408.208C74.568 380.23 70.9063 347.735 78.6276 316.71C86.3477 285.685 104.529 259.843 129.819 243.945L129.941 243.871C180.657 214.099 244.091 233.056 274.357 287.024C285.152 305.867 291.149 327.663 291.675 350.013C291.773 356.626 291.253 363.224 290.132 369.673C289.517 373.39 285.08 385.167 284.56 397.416C284.437 400.341 283.05 401.185 280.178 403.406C278.008 405.083 273.965 408.871 274.133 404.949C274.614 393.745 279.882 372.735 280.713 367.716C281.718 361.936 282.18 356.071 282.093 350.237C281.614 329.854 276.13 309.925 266.236 292.657C238.608 243.387 180.762 226.084 134.495 253.2C111.461 267.702 94.9032 291.254 87.8675 319.524C80.8258 347.819 84.1659 377.453 97.2723 402.968C97.931 404.249 98.6142 405.519 99.3009 406.739C108.33 423.336 121.086 437.134 136.225 446.707C141.232 449.786 146.606 452.303 152.144 454.158C156.294 455.602 171.095 459.952 179.87 464.972C182.222 466.315 182.806 467.193 179.151 468.588C177.398 469.257 175.355 470.062 173.838 470.639H173.839Z" fill="white" fill-opacity="0.7"/>
<path d="M65.4431 541.146C44.1352 541.146 29.5297 534.896 23.1405 522.655C9.79948 497.092 35.7116 449.702 90.7644 398.977L92.914 401.831C66.8845 425.814 46.8546 449.592 34.9885 470.596C23.0386 491.747 19.9475 509.107 26.0491 520.798C34.7843 537.531 62.6085 541.832 102.387 532.598C143.35 523.086 192.766 500.696 241.53 469.55C290.295 438.406 332.532 402.259 360.46 367.772C387.58 334.281 398.126 305.474 389.391 288.739C377.663 266.267 332.681 266.635 271.997 289.701L270.906 286.187C334.148 262.15 379.528 262.411 392.3 286.881C401.947 305.366 391.528 334.974 362.961 370.251C334.802 405.023 292.274 441.431 243.21 472.768C194.145 504.103 144.379 526.643 103.077 536.233C88.9243 539.519 76.311 541.145 65.4431 541.146Z" fill="white" fill-opacity="0.7"/>
<path d="M79.4764 527.786C60.2266 527.788 47.0286 522.132 41.2468 511.054C29.8466 489.21 49.6061 450.355 94.1041 407.115L96.3206 409.906C53.7629 451.261 33.7746 489.307 44.1554 509.197C51.9778 524.184 76.9556 528.027 112.68 519.728C149.529 511.171 193.986 491.027 237.859 463.006C281.732 434.985 319.73 402.467 344.854 371.443C369.212 341.365 378.695 315.518 370.872 300.53C361.049 281.709 325.557 280.641 275.932 297.673L274.936 294.125C326.931 276.28 362.958 277.936 373.781 298.672C382.503 315.385 373.118 342.108 347.356 373.922C322.001 405.231 283.711 438.011 239.539 466.223C195.365 494.436 150.558 514.728 113.37 523.364C100.63 526.322 89.2681 527.786 79.4765 527.786H79.4764Z" fill="white" fill-opacity="0.7"/>
<path d="M95.7567 512.408C78.8622 512.408 67.2696 507.432 62.1831 497.687C53.0653 480.216 66.3934 450.586 98.7493 416.393L101.069 419.079C70.383 451.507 56.9341 480.199 65.0918 495.83C71.8713 508.819 93.5912 512.13 124.684 504.909C156.833 497.444 195.621 479.868 233.903 455.418C272.186 430.968 305.34 402.596 327.258 375.53C348.456 349.353 356.726 326.889 349.946 313.899C342.298 299.243 316.684 296.95 279.673 307.603L278.827 304.008C317.411 292.903 344.394 295.83 352.854 312.041C360.518 326.726 352.316 350.154 329.759 378.009C307.61 405.36 274.164 433.994 235.583 458.636C197.001 483.277 157.861 501.001 125.375 508.546C114.246 511.13 104.32 512.408 95.7568 512.408L95.7567 512.408Z" fill="white" fill-opacity="0.7"/>
<path d="M111.41 497.608C96.7796 497.609 86.7345 493.286 82.3165 484.821C74.9981 470.798 84.0239 448.218 107.732 421.244L110.14 423.833C87.9003 449.138 78.8189 470.69 85.2252 482.964C91.0003 494.031 109.588 496.831 136.224 490.649C163.847 484.235 197.18 469.129 230.082 448.115C262.984 427.101 291.476 402.72 310.31 379.464C328.468 357.04 335.569 337.832 329.793 326.764C324.298 316.234 307.745 313.166 283.188 318.125L282.585 314.47C308.642 309.209 326.442 312.915 332.701 324.906C339.347 337.641 332.283 357.896 312.811 381.942C293.746 405.484 264.963 430.128 231.761 451.333C198.56 472.538 164.875 487.792 136.913 494.285C127.338 496.508 118.789 497.608 111.41 497.608L111.41 497.608Z" fill="white" fill-opacity="0.7"/>
<path d="M227.676 518.912C229.731 518.912 231.815 518.349 233.738 517.178C233.78 517.153 233.821 517.126 233.862 517.1L287.402 482.077C292.71 478.574 293.493 471.853 292.627 465.103C291.743 458.218 291.743 460.186 290.753 447.144C290.585 444.929 287.985 448.019 287.985 448.019C287.985 448.019 284.887 450.621 283.99 451.651C282.971 452.82 281.997 453.825 282.372 456.966C283.133 463.355 283.445 464.167 283.867 468.829C284.03 470.627 283.924 472.283 282.609 473.149L229.161 508.113C227.833 508.89 226.545 508.091 225.269 507.192C223.215 505.744 224.004 505.933 214.836 499.661C212.632 498.153 210.768 500.015 208.396 501.168C205.69 502.482 203.037 503.679 204.904 504.87C215.097 511.375 213.09 510.192 217.94 513.677C221.211 516.026 223.962 518.912 227.676 518.912L227.676 518.912Z" fill="white" fill-opacity="0.7"/>
<path d="M46.2604 293.318C48.1893 293.318 47.3053 289.139 49.3146 287.272C51.4151 285.321 54.8624 285.939 54.8603 283.983C54.8603 281.849 51.0827 282.827 49.395 280.604C47.6305 278.281 48.1893 274.289 46.4212 274.292H46.5344C44.6055 274.292 45.4896 278.47 43.4802 280.337C41.3797 282.289 37.9325 281.671 37.9346 283.627C37.9346 285.761 41.7121 284.783 43.3999 287.006C45.1643 289.329 44.6055 293.321 46.3736 293.318" fill="white" fill-opacity="0.7"/>
<path d="M26.2848 412.961C28.8993 412.961 27.701 407.298 30.4243 404.767C33.2714 402.121 37.9436 402.959 37.941 400.308C37.941 397.416 32.821 398.741 30.5334 395.729C28.1418 392.579 28.8993 387.17 26.5027 387.173H26.6562C24.0417 387.173 25.24 392.837 22.5166 395.367C19.6696 398.013 14.9974 397.175 15 399.826C15 402.718 20.12 401.393 22.4076 404.405C24.7992 407.555 24.0417 412.964 26.4383 412.961" fill="white" fill-opacity="0.7"/>
<path d="M172.11 560C173.384 560 172.8 557.239 174.127 556.006C175.515 554.716 177.792 555.125 177.791 553.833C177.791 552.423 175.296 553.069 174.18 551.601C173.015 550.065 173.384 547.429 172.216 547.43H172.291C171.016 547.43 171.6 550.191 170.273 551.424C168.885 552.714 166.608 552.305 166.609 553.598C166.609 555.007 169.105 554.361 170.22 555.83C171.386 557.365 171.016 560.001 172.185 560" fill="white" fill-opacity="0.7"/>
<path d="M289.449 221C287.439 221 288.36 225.354 286.266 227.299C284.078 229.333 280.486 228.689 280.488 230.727C280.488 232.95 284.424 231.931 286.183 234.247C288.021 236.668 287.439 240.827 289.281 240.824H289.163C291.173 240.824 290.252 236.47 292.345 234.525C294.534 232.491 298.126 233.135 298.123 231.097C298.123 228.874 294.188 229.893 292.429 227.577C290.591 225.156 291.173 220.998 289.331 221" fill="white" fill-opacity="0.7"/>
<path d="M352.078 464.913C354.45 464.913 353.363 459.774 355.834 457.478C358.418 455.077 362.657 455.838 362.654 453.432C362.654 450.808 358.009 452.011 355.933 449.277C353.763 446.419 354.45 441.511 352.276 441.514H352.415C350.043 441.514 351.13 446.653 348.659 448.949C346.076 451.35 341.836 450.589 341.839 452.995C341.839 455.619 346.484 454.416 348.56 457.15C350.73 460.008 350.043 464.916 352.217 464.913" fill="white" fill-opacity="0.7"/>
<path d="M183.188 377.266C170.004 377.266 159.29 365.419 159.284 350.853C159.275 336.278 169.986 324.413 183.161 324.402H183.179C189.555 324.402 195.549 327.146 200.061 332.13C204.578 337.119 207.067 343.754 207.072 350.815C207.081 365.389 196.37 377.255 183.195 377.266H183.188ZM183.179 331.029H183.165C178.383 331.032 173.888 333.096 170.509 336.84C167.13 340.583 165.271 345.558 165.274 350.849V350.85C165.278 361.763 173.306 370.639 183.171 370.64H183.176C193.063 370.632 201.089 361.74 201.082 350.819C201.079 345.529 199.213 340.557 195.829 336.819C192.448 333.085 187.956 331.029 183.179 331.029H183.179Z" fill="white" fill-opacity="0.7"/>
<path d="M227.961 441.911C226.916 442.427 226.15 442.408 225.272 440.771L190.136 373.265C188.824 370.722 189.51 370.864 191.808 369.413C194.11 367.96 195.344 366.855 196.657 369.397L231.793 436.902C233.105 439.445 232.199 439.404 229.901 440.855C229.151 441.329 228.957 441.42 227.961 441.911Z" fill="white" fill-opacity="0.7"/>
<path d="M262.528 542.447C261.502 542.447 260.502 541.863 259.944 540.813C259.105 539.236 259.582 537.205 261.008 536.278L289.207 517.933C290.632 517.004 292.468 517.531 293.307 519.109C294.146 520.686 293.67 522.717 292.244 523.644L264.044 541.99C263.567 542.301 263.045 542.447 262.528 542.447V542.447Z" fill="white" fill-opacity="0.7"/>
<path d="M278.572 554.356C277.542 554.356 276.54 553.768 275.983 552.713C275.149 551.133 275.632 549.104 277.06 548.181L290.992 539.187C292.42 538.267 294.254 538.799 295.088 540.378C295.921 541.959 295.439 543.987 294.01 544.91L280.079 553.904C279.604 554.21 279.085 554.356 278.572 554.356Z" fill="white" fill-opacity="0.7"/>
<defs>
<linearGradient id="paint0_linear_5269_537" x1="199" y1="119" x2="199" y2="678" gradientUnits="userSpaceOnUse">
<stop stop-color="#DB8C73"/>
<stop offset="1" stop-color="#D9B4A8" stop-opacity="0"/>
</linearGradient>
</defs>
</svg>
