<svg width="856" height="851" viewBox="0 0 856 851" fill="none" xmlns="http://www.w3.org/2000/svg">
<path d="M170.476 564.621C89.5791 424.503 144.551 241.315 293.26 155.458C441.969 69.6006 628.101 113.587 708.998 253.705C789.895 393.822 734.922 577.011 586.214 662.868C437.505 748.725 251.373 704.738 170.476 564.621ZM706.083 255.388C626.062 116.787 441.945 73.2766 294.846 158.204C147.747 243.132 93.3698 424.337 173.391 562.938C253.412 701.538 437.529 745.049 584.628 660.122C731.727 575.194 786.104 393.989 706.083 255.388Z" fill="#D76D4B"/>
<path d="M207.149 207.149C321.555 92.744 511.874 97.5753 632.239 217.941C752.604 338.306 757.436 528.625 643.03 643.031C528.625 757.436 338.306 752.605 217.94 632.239C97.5751 511.874 92.7438 321.555 207.149 207.149ZM640.671 640.671C753.838 527.504 749.059 339.245 629.997 220.183C510.934 101.121 322.676 96.3419 209.509 209.509C96.3416 322.676 101.121 510.935 220.183 629.997C339.245 749.059 527.504 753.838 640.671 640.671Z" fill="#D76D4B"/>
<ellipse cx="422" cy="418.5" rx="288" ry="279.5" fill="url(#paint0_linear_6157_356)"/>
<path d="M470.425 551.227C469.399 551.227 468.399 550.643 467.841 549.593C467.002 548.016 467.479 545.985 468.905 545.058L510.674 517.882C512.098 516.954 513.936 517.48 514.774 519.059C515.613 520.636 515.136 522.667 513.71 523.594L471.941 550.77C471.464 551.081 470.942 551.227 470.425 551.227V551.227Z" fill="white" fill-opacity="0.7"/>
<path d="M396.839 490.639C395.671 491.084 393.681 491.72 392.084 490.904C383.843 486.693 375.81 485.503 372.318 484.287C366.177 482.232 360.172 479.419 354.519 475.943C337.911 465.442 323.961 450.352 314.126 432.273C313.411 431.002 312.663 429.612 311.941 428.208C297.568 400.23 293.906 367.735 301.628 336.71C309.348 305.685 327.529 279.843 352.819 263.945L352.941 263.871C403.657 234.099 467.091 253.056 497.357 307.024C508.152 325.867 514.149 347.663 514.675 370.013C514.773 376.626 514.253 383.224 513.132 389.673C512.517 393.39 508.08 405.167 507.56 417.416C507.437 420.341 506.05 421.185 503.178 423.406C501.009 425.083 496.965 428.871 497.133 424.949C497.614 413.745 502.882 392.735 503.713 387.716C504.718 381.936 505.18 376.071 505.093 370.237C504.614 349.854 499.13 329.925 489.236 312.657C461.608 263.387 403.762 246.084 357.495 273.2C334.461 287.702 317.903 311.254 310.867 339.524C303.826 367.819 307.166 397.453 320.272 422.968C320.931 424.249 321.614 425.519 322.301 426.739C331.33 443.336 344.086 457.134 359.225 466.707C364.232 469.786 369.606 472.303 375.144 474.158C379.294 475.602 394.095 479.952 402.87 484.972C405.222 486.315 405.806 487.193 402.151 488.588C400.398 489.257 398.355 490.062 396.838 490.639H396.839Z" fill="white" fill-opacity="0.7"/>
<path d="M288.443 561.146C267.135 561.146 252.53 554.896 246.14 542.655C232.799 517.092 258.712 469.702 313.764 418.976L315.914 421.831C289.885 445.814 269.855 469.592 257.989 490.596C246.039 511.747 242.947 529.107 249.049 540.798C257.784 557.531 285.609 561.832 325.387 552.598C366.35 543.086 415.766 520.696 464.53 489.55C513.295 458.406 555.532 422.259 583.46 387.772C610.58 354.281 621.126 325.474 612.391 308.739C600.663 286.267 555.681 286.635 494.997 309.701L493.906 306.187C557.148 282.15 602.528 282.41 615.3 306.881C624.947 325.366 614.528 354.974 585.961 390.251C557.802 425.023 515.274 461.431 466.21 492.768C417.145 524.103 367.379 546.643 326.077 556.233C311.924 559.519 299.311 561.145 288.443 561.146V561.146Z" fill="white" fill-opacity="0.7"/>
<path d="M302.476 547.786C283.227 547.788 270.029 542.132 264.247 531.054C252.847 509.21 272.606 470.355 317.104 427.115L319.321 429.906C276.763 471.26 256.775 509.307 267.155 529.197C274.978 544.184 299.956 548.027 335.68 539.728C372.529 531.171 416.986 511.027 460.859 483.006C504.732 454.985 542.73 422.467 567.854 391.443C592.212 361.365 601.695 335.518 593.872 320.53C584.049 301.708 548.557 300.641 498.932 317.673L497.936 314.125C549.931 296.28 585.958 297.936 596.781 318.672C605.503 335.385 596.118 362.108 570.356 393.922C545.001 425.231 506.711 458.011 462.539 486.223C418.365 514.436 373.558 534.728 336.37 543.364C323.63 546.322 312.268 547.786 302.477 547.786H302.476Z" fill="white" fill-opacity="0.7"/>
<path d="M318.757 532.408C301.863 532.408 290.27 527.432 285.184 517.687C276.066 500.216 289.394 470.586 321.75 436.393L324.069 439.079C293.383 471.506 279.935 500.199 288.092 515.83C294.872 528.819 316.592 532.13 347.685 524.909C379.833 517.444 418.621 499.868 456.904 475.418C495.186 450.968 528.34 422.596 550.258 395.53C571.457 369.353 579.726 346.889 572.946 333.899C565.298 319.243 539.684 316.95 502.673 327.603L501.828 324.008C540.411 312.903 567.394 315.83 575.855 332.041C583.519 346.726 575.317 370.154 552.76 398.009C530.611 425.36 497.165 453.994 458.583 478.636C420.001 503.277 380.862 521.001 348.375 528.546C337.247 531.13 327.32 532.408 318.757 532.408L318.757 532.408Z" fill="white" fill-opacity="0.7"/>
<path d="M334.41 517.608C319.78 517.609 309.735 513.286 305.317 504.821C297.998 490.798 307.024 468.218 330.732 441.244L333.14 443.833C310.9 469.138 301.819 490.69 308.225 502.964C314 514.031 332.588 516.831 359.224 510.649C386.847 504.235 420.18 489.129 453.082 468.115C485.984 447.101 514.476 422.72 533.31 399.464C551.468 377.04 558.569 357.832 552.793 346.764C547.298 336.234 530.745 333.166 506.188 338.125L505.585 334.47C531.642 329.209 549.442 332.915 555.701 344.906C562.347 357.641 555.283 377.896 535.811 401.942C516.746 425.484 487.963 450.128 454.761 471.333C421.56 492.537 387.875 507.792 359.913 514.285C350.338 516.508 341.789 517.608 334.41 517.608L334.41 517.608Z" fill="white" fill-opacity="0.7"/>
<path d="M450.676 538.912C452.732 538.912 454.816 538.35 456.738 537.179C456.78 537.153 456.822 537.127 456.863 537.1L510.403 502.077C515.711 498.574 516.493 491.853 515.627 485.103C514.743 478.218 514.743 480.186 513.753 467.144C513.585 464.929 510.985 468.019 510.985 468.019C510.985 468.019 507.887 470.621 506.99 471.651C505.972 472.82 504.998 473.825 505.372 476.966C506.134 483.355 506.445 484.167 506.867 488.829C507.03 490.627 506.925 492.283 505.609 493.149L452.161 528.113C450.833 528.89 449.545 528.091 448.269 527.192C446.215 525.744 447.005 525.933 437.837 519.661C435.632 518.153 433.769 520.015 431.396 521.168C428.691 522.483 426.037 523.679 427.904 524.87C438.097 531.376 436.09 530.193 440.941 533.677C444.211 536.026 446.962 538.912 450.676 538.912L450.676 538.912Z" fill="white" fill-opacity="0.7"/>
<path d="M269.26 313.318C271.189 313.318 270.305 309.139 272.315 307.272C274.415 305.321 277.862 305.939 277.86 303.983C277.86 301.849 274.083 302.827 272.395 300.604C270.631 298.281 271.189 294.289 269.421 294.292H269.534C267.605 294.292 268.49 298.47 266.48 300.337C264.38 302.289 260.932 301.671 260.935 303.627C260.935 305.761 264.712 304.783 266.4 307.006C268.164 309.329 267.605 313.321 269.374 313.318" fill="white" fill-opacity="0.7"/>
<path d="M249.285 432.961C251.899 432.961 250.701 427.298 253.424 424.767C256.271 422.121 260.944 422.959 260.941 420.308C260.941 417.416 255.821 418.741 253.533 415.729C251.142 412.579 251.899 407.17 249.503 407.173H249.656C247.042 407.173 248.24 412.837 245.517 415.367C242.67 418.013 237.997 417.175 238 419.826C238 422.718 243.12 421.393 245.408 424.405C247.799 427.555 247.042 432.964 249.438 432.961" fill="white" fill-opacity="0.7"/>
<path d="M395.11 580C396.385 580 395.801 577.239 397.128 576.006C398.516 574.716 400.793 575.125 400.792 573.833C400.792 572.423 398.296 573.069 397.181 571.601C396.015 570.065 396.385 567.429 395.216 567.43H395.291C394.017 567.43 394.601 570.191 393.274 571.424C391.886 572.714 389.609 572.305 389.61 573.598C389.61 575.007 392.105 574.361 393.22 575.83C394.386 577.365 394.017 580.001 395.185 580" fill="white" fill-opacity="0.7"/>
<path d="M512.449 241C510.439 241 511.36 245.354 509.266 247.299C507.078 249.333 503.486 248.689 503.488 250.727C503.488 252.95 507.424 251.931 509.183 254.247C511.021 256.668 510.439 260.827 512.281 260.824H512.163C514.173 260.824 513.252 256.47 515.345 254.525C517.534 252.491 521.126 253.135 521.123 251.097C521.123 248.874 517.188 249.893 515.429 247.577C513.591 245.156 514.173 240.998 512.331 241" fill="white" fill-opacity="0.7"/>
<path d="M575.078 484.913C577.45 484.913 576.363 479.774 578.834 477.478C581.418 475.077 585.657 475.838 585.654 473.432C585.654 470.808 581.009 472.011 578.933 469.277C576.763 466.419 577.45 461.511 575.276 461.514H575.415C573.043 461.514 574.13 466.653 571.659 468.949C569.076 471.349 564.836 470.589 564.839 472.995C564.839 475.619 569.484 474.416 571.56 477.15C573.73 480.007 573.043 484.916 575.217 484.913" fill="white" fill-opacity="0.7"/>
<path d="M406.188 397.266C393.004 397.266 382.29 385.419 382.284 370.853C382.274 356.278 392.985 344.413 406.16 344.402H406.179C412.555 344.402 418.548 347.146 423.061 352.13C427.577 357.119 430.067 363.754 430.071 370.815C430.081 385.389 419.37 397.255 406.195 397.266H406.188V397.266ZM406.179 351.029H406.164C401.382 351.032 396.888 353.096 393.508 356.84C390.129 360.583 388.27 365.558 388.274 370.849V370.85C388.277 381.763 396.306 390.64 406.17 390.64H406.176C416.063 390.632 424.089 381.74 424.081 370.819C424.078 365.529 422.213 360.557 418.829 356.819C415.448 353.085 410.956 351.029 406.179 351.029H406.179Z" fill="white" fill-opacity="0.7"/>
<path d="M450.961 461.911C449.916 462.427 449.15 462.408 448.272 460.771L413.136 393.265C411.824 390.722 412.51 390.864 414.808 389.413C417.11 387.96 418.344 386.855 419.657 389.397L454.793 456.902C456.105 459.445 455.199 459.404 452.901 460.855C452.151 461.329 451.957 461.42 450.961 461.911V461.911Z" fill="white" fill-opacity="0.7"/>
<path d="M485.528 562.447C484.502 562.447 483.502 561.863 482.944 560.813C482.105 559.236 482.582 557.205 484.008 556.278L512.207 537.933C513.632 537.004 515.468 537.531 516.307 539.109C517.146 540.686 516.67 542.717 515.244 543.644L487.044 561.99C486.567 562.301 486.045 562.447 485.528 562.447V562.447Z" fill="white" fill-opacity="0.7"/>
<path d="M501.572 574.356C500.542 574.356 499.539 573.768 498.982 572.713C498.149 571.133 498.631 569.104 500.06 568.181L513.991 559.187C515.42 558.267 517.253 558.799 518.087 560.378C518.921 561.959 518.438 563.987 517.01 564.91L503.079 573.904C502.604 574.21 502.085 574.356 501.572 574.356Z" fill="white" fill-opacity="0.7"/>
<defs>
<linearGradient id="paint0_linear_6157_356" x1="422" y1="139" x2="422" y2="698" gradientUnits="userSpaceOnUse">
<stop stop-color="#DB8C73"/>
<stop offset="1" stop-color="#D9B4A8" stop-opacity="0"/>
</linearGradient>
</defs>
</svg>
