<svg width="121" height="116" viewBox="0 0 121 116" fill="none" xmlns="http://www.w3.org/2000/svg">
<path d="M39.6302 71.33C32.8445 67.3026 19.5792 71.33 19.5792 71.33L17.928 93.414H81.1474C81.1474 93.414 80.7777 88.6748 79.0243 86.6589C77.1895 84.5493 75.229 84.7667 72.6552 84.0608C67.0235 82.5162 63.4447 85.5184 57.7939 84.0608C49.6076 81.9491 46.2352 75.2501 39.6302 71.33Z" fill="#432684"/>
<path d="M19.1074 71.004C19.1074 71.004 29.2389 68.1353 35.3841 69.8245C40.4876 71.2274 46.9428 76.9013 46.9428 76.9013C46.9428 76.9013 49.7878 80.5274 53.5478 82.0909C57.1567 83.5916 59.2093 85.1576 65.1066 84.6858C71.0039 84.214 70.9726 83.7716 74.5423 84.6858C75.869 85.0255 77.8448 85.8652 77.8448 85.8652" stroke="black" stroke-width="2"/>
<rect x="1.5" y="64.2477" width="16.3432" height="49.3683" rx="4.5" fill="black" stroke="black" stroke-width="3"/>
<path d="M18.6357 101.198V70.5319L29.015 79.4958C29.015 79.4958 42.0648 88.5805 51.6608 91.2905C57.9296 93.0608 61.6616 93.4752 68.1733 93.6494C75.0183 93.8326 78.9663 93.5761 85.6294 91.9981C96.5338 89.4158 108.275 79.9676 111.342 79.2599C114.408 78.5522 116.531 77.6087 119.126 81.6188C121.721 85.629 117.711 89.8751 117.711 89.8751C117.711 89.8751 101.617 103.615 89.1678 108.039C81.2859 110.84 76.5156 111.013 68.1733 110.398C60.9387 109.865 57.2977 109.106 50.4813 106.624C43.8426 104.206 40.7425 100.667 33.7329 99.7826C27.8579 99.0411 18.6357 101.198 18.6357 101.198Z" fill="#6C5D8F" stroke="black" stroke-width="2"/>
<circle cx="7.5486" cy="104.265" r="2.80251" fill="#E3E3E3" stroke="black"/>
<ellipse cx="77.8449" cy="38.6865" rx="39.6301" ry="38.6865" fill="#4BA5D7"/>
<path d="M88.4744 9.63002C91.123 7.87635 92.4846 2.55322 92.4846 2.55322C92.4846 2.55322 103.812 7.24591 108.761 12.9325C113.687 18.5915 116.782 30.3886 116.782 30.3886C116.782 30.3886 115.486 30.4331 114.659 30.3886C109.705 30.1225 107.753 26.5143 102.864 25.6708C98.8695 24.9815 96.5257 25.9863 92.4846 25.6708C86.9725 25.2403 82.0081 27.4033 78.5669 23.0759C75.2986 18.9661 74.3396 12.7449 78.5669 9.63002C81.6817 7.33486 85.2483 11.766 88.4744 9.63002Z" fill="#7CCCB4"/>
<path d="M56.0829 57.2545C51.6156 59.3167 43.4043 57.2545 43.4043 57.2545C43.4043 57.2545 47.8821 65.1751 52.3539 68.7808C57.6587 73.0581 68.5129 75.7446 68.5129 75.7446C68.5129 75.7446 67.1898 72.4235 68.5129 71.1821C70.101 69.6922 71.77 72.7076 73.9822 72.6229C75.915 72.5489 77.2474 72.4099 78.7056 71.1821C80.557 69.6232 81.176 67.7453 80.6944 65.4189C80.3874 63.9362 78.7056 62.0571 78.7056 62.0571L75.4738 57.2545C75.4738 57.2545 73.2128 53.393 70.7504 52.2117C69.062 51.4018 67.5836 52.2781 66.0269 51.2512C62.6597 49.0299 67.3671 44.8855 66.0269 41.1656C65.0798 38.5368 64.8513 35.8123 62.0493 35.1623C61.1053 34.9433 60.4001 34.6869 59.5633 35.1623C58.1408 35.9706 58.7496 37.8576 59.5633 39.2446C60.1763 40.2894 61.2902 40.2146 62.0493 41.1656C64.0056 43.6164 62.0493 45.9953 62.0493 49.09C62.0493 50.3091 62.346 51.0268 62.0493 52.2117C61.3215 55.1185 58.8764 55.9649 56.0829 57.2545Z" fill="#7CCCB4" stroke="#7CCCB4" stroke-width="2"/>
<path d="M89.8751 42.2249C89.8751 42.2249 90.6378 40.7493 91.5264 40.3377C92.4459 39.9118 93.3476 39.6831 94.1212 40.3377C95.0354 41.1113 94.2657 42.2155 94.1212 43.4043C93.9243 45.0248 94.1678 46.3368 92.9418 47.4145C92.0006 48.2417 91.1279 48.3799 89.8751 48.3581C87.9785 48.325 86.6214 47.6158 85.6291 45.9991C84.9861 44.9517 84.3861 44.0389 84.9214 42.9325C85.3892 41.9654 86.2154 41.6589 87.2803 41.5172C88.3215 41.3786 89.8751 42.2249 89.8751 42.2249Z" fill="#7CCCB4"/>
</svg>
