<svg class="social" width="48" height="52" viewBox="0 0 48 52" fill="none" xmlns="http://www.w3.org/2000/svg">
<path class="social" d="M46 6C44.0848 7.35096 41.9642 8.38422 39.72 9.06C38.5155 7.67502 36.9147 6.69338 35.1341 6.24785C33.3535 5.80232 31.479 5.91439 29.7642 6.56891C28.0493 7.22342 26.5769 8.3888 25.546 9.90743C24.515 11.4261 23.9754 13.2247 24 15.06V17.06C20.4853 17.1511 17.0025 16.3716 13.862 14.7909C10.7215 13.2102 8.02063 10.8773 6 8C6 8 -2 26 16 34C11.8811 36.7959 6.97431 38.1979 2 38C20 48 42 38 42 15C41.9982 14.4429 41.9446 13.8872 41.84 13.34C43.8812 11.327 45.3217 8.78543 46 6V6Z" stroke="white" stroke-width="2" stroke-linecap="round" stroke-linejoin="round"/>
</svg>
