<svg width="131" height="116" viewBox="0 0 131 116" fill="none" xmlns="http://www.w3.org/2000/svg">
<path d="M48.9188 94.5787C49.346 92.7745 50.9571 91.5005 52.8111 91.5005H62.9994C64.6805 91.5005 66.1822 92.5516 66.7577 94.1311L71.7187 107.747C72.6694 110.356 70.7373 113.117 67.9604 113.117H49.5864C47.0047 113.117 45.0991 110.707 45.6941 108.195L48.9188 94.5787Z" fill="#D9D9D9" stroke="black" stroke-width="4"/>
<rect x="2" y="7.66614" width="114.532" height="84.4917" rx="10" fill="#7489A6" stroke="black" stroke-width="4"/>
<path d="M1.5 72.8365H117.032V92.6581H1.5V72.8365Z" fill="#D9D9D9" stroke="black" stroke-width="3"/>
<ellipse cx="73.2656" cy="27.5561" rx="5.13326" ry="5.1232" fill="#FEFBD9"/>
<path d="M83.2535 46.8267C97.7831 51.8963 115 71.0865 115 71.0865H4V38.74C4 38.74 12.4285 28.3057 19.3103 29.2264C22.6673 29.6755 24.1914 31.3769 27.1907 33.0318C37.355 38.6401 38.9245 52.577 50.3813 52.0592C57.5316 51.736 59.7114 44.3953 66.8174 43.4969C73.3068 42.6765 77.0476 44.6613 83.2535 46.8267Z" fill="#7CCCB4"/>
<rect x="0.457313" y="2.06951" width="5.86152" height="44.3925" rx="2.93076" transform="matrix(0.843502 0.537127 -0.538626 0.842545 124.712 0.305806)" fill="#AF817D" stroke="black" stroke-width="3"/>
<path d="M96.5985 38.5185C99.3642 36.2912 102.884 36.3533 105.698 38.5185C107.382 39.8133 108.066 41.0992 108.498 43.1759C109.029 45.7256 108.336 47.4037 107.098 49.6963C105.504 52.6489 103.567 53.7782 100.565 55.2853C94.9484 58.1052 84.4653 55.2853 84.4653 55.2853C84.4653 55.2853 89.4332 53.3739 91.4652 50.8607C92.9242 49.0564 93.1184 47.6365 94.0319 45.5046C95.1767 42.8328 94.3326 40.3432 96.5985 38.5185Z" fill="#FEFBD9" stroke="black" stroke-width="3"/>
</svg>
